M48
; DRILL file {KiCad 5.1.4-3.fc31} date pon, 11 lis 2019, 15:40:08
; FORMAT={-:-/ absolute / inch / decimal}
; #@! TF.CreationDate,2019-11-11T15:40:08+01:00
; #@! TF.GenerationSoftware,Kicad,Pcbnew,5.1.4-3.fc31
; #@! TF.FileFunction,Plated,1,2,PTH
FMAT,2
INCH
T1C0.0315
T2C0.0354
T3C0.0394
T4C0.0400
T5C0.0433
%
G90
G05
T1
X1.951Y1.7578
X1.951Y1.4578
X2.191Y1.7578
X2.191Y1.4578
X1.072Y0.1321
X1.372Y0.1321
X2.502Y0.2404
X2.502Y0.142
X2.2651Y0.9778
X2.462Y0.9778
X2.2651Y0.7278
X2.462Y0.7278
X2.871Y1.7578
X2.871Y1.5609
X2.6351Y1.7597
X2.6351Y1.4597
X2.0427Y0.9507
X2.0427Y0.7586
X0.7417Y1.7597
X0.7417Y1.4597
X1.4546Y1.6646
X1.4546Y1.5646
X1.4546Y1.4646
X1.4546Y1.3646
X1.4546Y1.2646
X1.4546Y1.1646
X1.4546Y1.0646
X1.4546Y0.9646
X1.4546Y0.8646
X1.4546Y0.7646
X1.4546Y0.6646
X1.4546Y0.5646
X1.4546Y0.4646
X1.4546Y0.3646
X1.7546Y1.6646
X1.7546Y1.5646
X1.7546Y1.4646
X1.7546Y1.3646
X1.7546Y1.2646
X1.7546Y1.1646
X1.7546Y1.0646
X1.7546Y0.9646
X1.7546Y0.8646
X1.7546Y0.7646
X1.7546Y0.6646
X1.7546Y0.5646
X1.7546Y0.4646
X1.7546Y0.3646
X1.532Y0.1321
X1.7288Y0.1321
X0.831Y0.2943
X1.131Y0.2943
X2.4177Y1.7597
X2.4177Y1.4597
X1.0223Y1.7597
X1.0223Y1.4597
X1.902Y0.142
X2.202Y0.142
X2.3358Y1.2748
X2.6358Y1.2748
T2
X1.0223Y1.3195
X1.0223Y1.2195
X0.7417Y1.3195
X0.7417Y1.2195
T3
X0.6206Y0.7004
X0.6206Y0.6004
X1.2086Y0.7
X1.2086Y0.6
X0.678Y0.2898
X0.678Y0.1898
X0.9146Y0.7
X0.9146Y0.6
T4
X0.1935Y1.2573
X0.1935Y1.1573
X0.1935Y1.0573
X0.1935Y0.9573
X0.1935Y0.8573
X0.2935Y1.2573
X0.2935Y1.1573
X0.2935Y1.0573
X0.2935Y0.9573
X0.2935Y0.8573
T5
X0.271Y0.4067
X0.271Y0.1508
X0.4482Y0.4067
X0.4482Y0.1508
T0
M30
