G04 #@! TF.GenerationSoftware,KiCad,Pcbnew,5.1.4-3.fc30*
G04 #@! TF.CreationDate,2019-09-17T14:14:00+02:00*
G04 #@! TF.ProjectId,usbasp,75736261-7370-42e6-9b69-6361645f7063,2.0*
G04 #@! TF.SameCoordinates,Original*
G04 #@! TF.FileFunction,Other,Comment*
%FSLAX46Y46*%
G04 Gerber Fmt 4.6, Leading zero omitted, Abs format (unit mm)*
G04 Created by KiCad (PCBNEW 5.1.4-3.fc30) date 2019-09-17 14:14:00*
%MOMM*%
%LPD*%
G04 APERTURE LIST*
%ADD10C,0.150000*%
G04 APERTURE END LIST*
D10*
X143078740Y-92411047D02*
X143078740Y-92887238D01*
X143554931Y-92934857D01*
X143507312Y-92887238D01*
X143459693Y-92792000D01*
X143459693Y-92553904D01*
X143507312Y-92458666D01*
X143554931Y-92411047D01*
X143650169Y-92363428D01*
X143888264Y-92363428D01*
X143983502Y-92411047D01*
X144031121Y-92458666D01*
X144078740Y-92553904D01*
X144078740Y-92792000D01*
X144031121Y-92887238D01*
X143983502Y-92934857D01*
X143078740Y-91744380D02*
X143078740Y-91649142D01*
X143126360Y-91553904D01*
X143173979Y-91506285D01*
X143269217Y-91458666D01*
X143459693Y-91411047D01*
X143697788Y-91411047D01*
X143888264Y-91458666D01*
X143983502Y-91506285D01*
X144031121Y-91553904D01*
X144078740Y-91649142D01*
X144078740Y-91744380D01*
X144031121Y-91839619D01*
X143983502Y-91887238D01*
X143888264Y-91934857D01*
X143697788Y-91982476D01*
X143459693Y-91982476D01*
X143269217Y-91934857D01*
X143173979Y-91887238D01*
X143126360Y-91839619D01*
X143078740Y-91744380D01*
X144031121Y-90934857D02*
X144078740Y-90934857D01*
X144173979Y-90982476D01*
X144221598Y-91030095D01*
X143078740Y-90315809D02*
X143078740Y-90220571D01*
X143126360Y-90125333D01*
X143173979Y-90077714D01*
X143269217Y-90030095D01*
X143459693Y-89982476D01*
X143697788Y-89982476D01*
X143888264Y-90030095D01*
X143983502Y-90077714D01*
X144031121Y-90125333D01*
X144078740Y-90220571D01*
X144078740Y-90315809D01*
X144031121Y-90411047D01*
X143983502Y-90458666D01*
X143888264Y-90506285D01*
X143697788Y-90553904D01*
X143459693Y-90553904D01*
X143269217Y-90506285D01*
X143173979Y-90458666D01*
X143126360Y-90411047D01*
X143078740Y-90315809D01*
X143078740Y-89363428D02*
X143078740Y-89268190D01*
X143126360Y-89172952D01*
X143173979Y-89125333D01*
X143269217Y-89077714D01*
X143459693Y-89030095D01*
X143697788Y-89030095D01*
X143888264Y-89077714D01*
X143983502Y-89125333D01*
X144031121Y-89172952D01*
X144078740Y-89268190D01*
X144078740Y-89363428D01*
X144031121Y-89458666D01*
X143983502Y-89506285D01*
X143888264Y-89553904D01*
X143697788Y-89601523D01*
X143459693Y-89601523D01*
X143269217Y-89553904D01*
X143173979Y-89506285D01*
X143126360Y-89458666D01*
X143078740Y-89363428D01*
X143078740Y-88411047D02*
X143078740Y-88315809D01*
X143126360Y-88220571D01*
X143173979Y-88172952D01*
X143269217Y-88125333D01*
X143459693Y-88077714D01*
X143697788Y-88077714D01*
X143888264Y-88125333D01*
X143983502Y-88172952D01*
X144031121Y-88220571D01*
X144078740Y-88315809D01*
X144078740Y-88411047D01*
X144031121Y-88506285D01*
X143983502Y-88553904D01*
X143888264Y-88601523D01*
X143697788Y-88649142D01*
X143459693Y-88649142D01*
X143269217Y-88601523D01*
X143173979Y-88553904D01*
X143126360Y-88506285D01*
X143078740Y-88411047D01*
X144078740Y-86887238D02*
X143412074Y-86887238D01*
X143507312Y-86887238D02*
X143459693Y-86839619D01*
X143412074Y-86744380D01*
X143412074Y-86601523D01*
X143459693Y-86506285D01*
X143554931Y-86458666D01*
X144078740Y-86458666D01*
X143554931Y-86458666D02*
X143459693Y-86411047D01*
X143412074Y-86315809D01*
X143412074Y-86172952D01*
X143459693Y-86077714D01*
X143554931Y-86030095D01*
X144078740Y-86030095D01*
X144078740Y-85553904D02*
X143412074Y-85553904D01*
X143507312Y-85553904D02*
X143459693Y-85506285D01*
X143412074Y-85411047D01*
X143412074Y-85268190D01*
X143459693Y-85172952D01*
X143554931Y-85125333D01*
X144078740Y-85125333D01*
X143554931Y-85125333D02*
X143459693Y-85077714D01*
X143412074Y-84982476D01*
X143412074Y-84839619D01*
X143459693Y-84744380D01*
X143554931Y-84696761D01*
X144078740Y-84696761D01*
X142326360Y-113792000D02*
X142326360Y-63792000D01*
X137658000Y-113792000D02*
X142912781Y-113792000D01*
X137658000Y-63792000D02*
X142912781Y-63792000D01*
X142326360Y-63792000D02*
X142912781Y-64918504D01*
X142326360Y-63792000D02*
X141739939Y-64918504D01*
X142326360Y-113792000D02*
X142912781Y-112665496D01*
X142326360Y-113792000D02*
X141739939Y-112665496D01*
X93705619Y-122658992D02*
X93610380Y-122611373D01*
X93562761Y-122563754D01*
X93515142Y-122468516D01*
X93515142Y-122420897D01*
X93562761Y-122325659D01*
X93610380Y-122278040D01*
X93705619Y-122230420D01*
X93896095Y-122230420D01*
X93991333Y-122278040D01*
X94038952Y-122325659D01*
X94086571Y-122420897D01*
X94086571Y-122468516D01*
X94038952Y-122563754D01*
X93991333Y-122611373D01*
X93896095Y-122658992D01*
X93705619Y-122658992D01*
X93610380Y-122706611D01*
X93562761Y-122754230D01*
X93515142Y-122849468D01*
X93515142Y-123039944D01*
X93562761Y-123135182D01*
X93610380Y-123182801D01*
X93705619Y-123230420D01*
X93896095Y-123230420D01*
X93991333Y-123182801D01*
X94038952Y-123135182D01*
X94086571Y-123039944D01*
X94086571Y-122849468D01*
X94038952Y-122754230D01*
X93991333Y-122706611D01*
X93896095Y-122658992D01*
X94705619Y-122230420D02*
X94800857Y-122230420D01*
X94896095Y-122278040D01*
X94943714Y-122325659D01*
X94991333Y-122420897D01*
X95038952Y-122611373D01*
X95038952Y-122849468D01*
X94991333Y-123039944D01*
X94943714Y-123135182D01*
X94896095Y-123182801D01*
X94800857Y-123230420D01*
X94705619Y-123230420D01*
X94610380Y-123182801D01*
X94562761Y-123135182D01*
X94515142Y-123039944D01*
X94467523Y-122849468D01*
X94467523Y-122611373D01*
X94515142Y-122420897D01*
X94562761Y-122325659D01*
X94610380Y-122278040D01*
X94705619Y-122230420D01*
X95515142Y-123182801D02*
X95515142Y-123230420D01*
X95467523Y-123325659D01*
X95419904Y-123373278D01*
X96134190Y-122230420D02*
X96229428Y-122230420D01*
X96324666Y-122278040D01*
X96372285Y-122325659D01*
X96419904Y-122420897D01*
X96467523Y-122611373D01*
X96467523Y-122849468D01*
X96419904Y-123039944D01*
X96372285Y-123135182D01*
X96324666Y-123182801D01*
X96229428Y-123230420D01*
X96134190Y-123230420D01*
X96038952Y-123182801D01*
X95991333Y-123135182D01*
X95943714Y-123039944D01*
X95896095Y-122849468D01*
X95896095Y-122611373D01*
X95943714Y-122420897D01*
X95991333Y-122325659D01*
X96038952Y-122278040D01*
X96134190Y-122230420D01*
X97086571Y-122230420D02*
X97181809Y-122230420D01*
X97277047Y-122278040D01*
X97324666Y-122325659D01*
X97372285Y-122420897D01*
X97419904Y-122611373D01*
X97419904Y-122849468D01*
X97372285Y-123039944D01*
X97324666Y-123135182D01*
X97277047Y-123182801D01*
X97181809Y-123230420D01*
X97086571Y-123230420D01*
X96991333Y-123182801D01*
X96943714Y-123135182D01*
X96896095Y-123039944D01*
X96848476Y-122849468D01*
X96848476Y-122611373D01*
X96896095Y-122420897D01*
X96943714Y-122325659D01*
X96991333Y-122278040D01*
X97086571Y-122230420D01*
X98038952Y-122230420D02*
X98134190Y-122230420D01*
X98229428Y-122278040D01*
X98277047Y-122325659D01*
X98324666Y-122420897D01*
X98372285Y-122611373D01*
X98372285Y-122849468D01*
X98324666Y-123039944D01*
X98277047Y-123135182D01*
X98229428Y-123182801D01*
X98134190Y-123230420D01*
X98038952Y-123230420D01*
X97943714Y-123182801D01*
X97896095Y-123135182D01*
X97848476Y-123039944D01*
X97800857Y-122849468D01*
X97800857Y-122611373D01*
X97848476Y-122420897D01*
X97896095Y-122325659D01*
X97943714Y-122278040D01*
X98038952Y-122230420D01*
X99562761Y-123230420D02*
X99562761Y-122563754D01*
X99562761Y-122658992D02*
X99610380Y-122611373D01*
X99705619Y-122563754D01*
X99848476Y-122563754D01*
X99943714Y-122611373D01*
X99991333Y-122706611D01*
X99991333Y-123230420D01*
X99991333Y-122706611D02*
X100038952Y-122611373D01*
X100134190Y-122563754D01*
X100277047Y-122563754D01*
X100372285Y-122611373D01*
X100419904Y-122706611D01*
X100419904Y-123230420D01*
X100896095Y-123230420D02*
X100896095Y-122563754D01*
X100896095Y-122658992D02*
X100943714Y-122611373D01*
X101038952Y-122563754D01*
X101181809Y-122563754D01*
X101277047Y-122611373D01*
X101324666Y-122706611D01*
X101324666Y-123230420D01*
X101324666Y-122706611D02*
X101372285Y-122611373D01*
X101467523Y-122563754D01*
X101610380Y-122563754D01*
X101705619Y-122611373D01*
X101753238Y-122706611D01*
X101753238Y-123230420D01*
X57658000Y-121478040D02*
X137658000Y-121478040D01*
X57658000Y-113792000D02*
X57658000Y-122064461D01*
X137658000Y-113792000D02*
X137658000Y-122064461D01*
X137658000Y-121478040D02*
X136531496Y-122064461D01*
X137658000Y-121478040D02*
X136531496Y-120891619D01*
X57658000Y-121478040D02*
X58784504Y-122064461D01*
X57658000Y-121478040D02*
X58784504Y-120891619D01*
M02*
