%TF.GenerationSoftware,KiCad,Pcbnew,5.1.4-3.fc31*%
%TF.CreationDate,2019-11-11T15:40:02+01:00*%
%TF.ProjectId,usbasp,75736261-7370-42e6-9b69-6361645f7063,2.0*%
%TF.SameCoordinates,PX36f6758PY6c779b8*%
%TF.FileFunction,Copper,L1,Top*%
%TF.FilePolarity,Positive*%
%FSLAX46Y46*%
G04 Gerber Fmt 4.6, Leading zero omitted, Abs format (unit mm)*
G04 Created by KiCad (PCBNEW 5.1.4-3.fc31) date 2019-11-11 15:40:02*
%MOMM*%
%LPD*%
G04 APERTURE LIST*
%TA.AperFunction,ComponentPad*%
%ADD10C,1.500000*%
%TD*%
%TA.AperFunction,SMDPad,CuDef*%
%ADD11R,1.900000X1.175000*%
%TD*%
%TA.AperFunction,SMDPad,CuDef*%
%ADD12R,1.900000X2.375000*%
%TD*%
%TA.AperFunction,SMDPad,CuDef*%
%ADD13R,2.100000X1.475000*%
%TD*%
%TA.AperFunction,SMDPad,CuDef*%
%ADD14R,1.380000X0.450000*%
%TD*%
%TA.AperFunction,ComponentPad*%
%ADD15C,2.000000*%
%TD*%
%TA.AperFunction,ComponentPad*%
%ADD16C,1.600000*%
%TD*%
%TA.AperFunction,ComponentPad*%
%ADD17R,1.600000X1.600000*%
%TD*%
%TA.AperFunction,ComponentPad*%
%ADD18O,1.600000X1.600000*%
%TD*%
%TA.AperFunction,ComponentPad*%
%ADD19R,1.800000X1.800000*%
%TD*%
%TA.AperFunction,ComponentPad*%
%ADD20C,1.800000*%
%TD*%
%TA.AperFunction,ComponentPad*%
%ADD21O,1.700000X1.700000*%
%TD*%
%TA.AperFunction,ComponentPad*%
%ADD22R,1.700000X1.700000*%
%TD*%
%TA.AperFunction,ComponentPad*%
%ADD23R,1.727200X1.727200*%
%TD*%
%TA.AperFunction,ComponentPad*%
%ADD24O,1.727200X1.727200*%
%TD*%
%TA.AperFunction,Conductor*%
%ADD25C,0.350000*%
%TD*%
%TA.AperFunction,Conductor*%
%ADD26C,0.254000*%
%TD*%
G04 APERTURE END LIST*
D10*
%TO.P,Y1,2*%
%TO.N,Net-(C2-Pad1)*%
X51885400Y24148420D03*
%TO.P,Y1,1*%
%TO.N,Net-(C1-Pad1)*%
X51885400Y19268420D03*
%TD*%
D11*
%TO.P,J1,6*%
%TO.N,N/C*%
X78695400Y25416520D03*
X78695400Y23736520D03*
D12*
X78695400Y27486520D03*
X78695400Y21666520D03*
D13*
X76395400Y27039020D03*
X76395400Y22114020D03*
D14*
%TO.P,J1,5*%
%TO.N,GND*%
X76035400Y25876520D03*
%TO.P,J1,4*%
X76035400Y25226520D03*
%TO.P,J1,3*%
%TO.N,Net-(D2-Pad1)*%
X76035400Y24576520D03*
%TO.P,J1,2*%
%TO.N,Net-(D1-Pad1)*%
X76035400Y23926520D03*
%TO.P,J1,1*%
%TO.N,+5V*%
X76035400Y23276520D03*
%TD*%
D15*
%TO.P,SW1,1*%
%TO.N,GND*%
X6883400Y10331120D03*
%TO.P,SW1,2*%
%TO.N,Net-(C5-Pad2)*%
X11383400Y10331120D03*
%TO.P,SW1,1*%
%TO.N,GND*%
X6883400Y3831120D03*
%TO.P,SW1,2*%
%TO.N,Net-(C5-Pad2)*%
X11383400Y3831120D03*
%TD*%
D16*
%TO.P,C1,1*%
%TO.N,Net-(C1-Pad1)*%
X57534400Y18486120D03*
%TO.P,C1,2*%
%TO.N,GND*%
X62534400Y18486120D03*
%TD*%
%TO.P,C2,2*%
%TO.N,GND*%
X62534400Y24836120D03*
%TO.P,C2,1*%
%TO.N,Net-(C2-Pad1)*%
X57534400Y24836120D03*
%TD*%
%TO.P,C3,1*%
%TO.N,+5V*%
X72923400Y39648120D03*
%TO.P,C3,2*%
%TO.N,GND*%
X72923400Y44648120D03*
%TD*%
D17*
%TO.P,C4,1*%
%TO.N,+5V*%
X63550400Y3606120D03*
D16*
%TO.P,C4,2*%
%TO.N,GND*%
X63550400Y6106120D03*
%TD*%
%TO.P,C5,2*%
%TO.N,Net-(C5-Pad2)*%
X38912400Y3356120D03*
%TO.P,C5,1*%
%TO.N,GND*%
X43912400Y3356120D03*
%TD*%
D18*
%TO.P,D1,2*%
%TO.N,GND*%
X61410400Y44696320D03*
D17*
%TO.P,D1,1*%
%TO.N,Net-(D1-Pad1)*%
X61410400Y37076320D03*
%TD*%
%TO.P,D2,1*%
%TO.N,Net-(D2-Pad1)*%
X66930400Y37076320D03*
D18*
%TO.P,D2,2*%
%TO.N,GND*%
X66930400Y44696320D03*
%TD*%
D19*
%TO.P,D3,1*%
%TO.N,Net-(D3-Pad1)*%
X18839200Y30975620D03*
D20*
%TO.P,D3,2*%
%TO.N,Net-(D3-Pad2)*%
X18839200Y33515620D03*
%TD*%
%TO.P,D4,2*%
%TO.N,Net-(D4-Pad2)*%
X25967200Y33515620D03*
D19*
%TO.P,D4,1*%
%TO.N,Net-(D4-Pad1)*%
X25967200Y30975620D03*
%TD*%
D17*
%TO.P,D5,1*%
%TO.N,+5V*%
X48310400Y3606120D03*
D18*
%TO.P,D5,2*%
%TO.N,Net-(C5-Pad2)*%
X55930400Y3606120D03*
%TD*%
D21*
%TO.P,J2,2*%
%TO.N,Net-(J2-Pad2)*%
X17221200Y4821120D03*
D22*
%TO.P,J2,1*%
%TO.N,Net-(J2-Pad1)*%
X17221200Y7361120D03*
%TD*%
D23*
%TO.P,J3,1*%
%TO.N,Net-(J3-Pad1)*%
X4914900Y31935420D03*
D24*
%TO.P,J3,2*%
%TO.N,VCCINT*%
X7454900Y31935420D03*
%TO.P,J3,3*%
%TO.N,Net-(J3-Pad3)*%
X4914900Y29395420D03*
%TO.P,J3,4*%
%TO.N,GND*%
X7454900Y29395420D03*
%TO.P,J3,5*%
%TO.N,Net-(J3-Pad5)*%
X4914900Y26855420D03*
%TO.P,J3,6*%
%TO.N,GND*%
X7454900Y26855420D03*
%TO.P,J3,7*%
%TO.N,Net-(J3-Pad7)*%
X4914900Y24315420D03*
%TO.P,J3,8*%
%TO.N,GND*%
X7454900Y24315420D03*
%TO.P,J3,9*%
%TO.N,Net-(J3-Pad9)*%
X4914900Y21775420D03*
%TO.P,J3,10*%
%TO.N,GND*%
X7454900Y21775420D03*
%TD*%
D22*
%TO.P,JP1,1*%
%TO.N,VCCINT*%
X15762500Y17790020D03*
D21*
%TO.P,JP1,2*%
%TO.N,+5V*%
X15762500Y15250020D03*
%TD*%
%TO.P,JP2,2*%
%TO.N,GND*%
X30698400Y17780020D03*
D22*
%TO.P,JP2,1*%
%TO.N,Net-(JP2-Pad1)*%
X30698400Y15240020D03*
%TD*%
%TO.P,JP3,1*%
%TO.N,Net-(C5-Pad2)*%
X23230500Y15240020D03*
D21*
%TO.P,JP3,2*%
%TO.N,Net-(J3-Pad5)*%
X23230500Y17780020D03*
%TD*%
D16*
%TO.P,R1,1*%
%TO.N,+5V*%
X27228800Y3356120D03*
D18*
%TO.P,R1,2*%
%TO.N,Net-(C5-Pad2)*%
X34848800Y3356120D03*
%TD*%
%TO.P,R2,2*%
%TO.N,+5V*%
X55651400Y44648120D03*
D16*
%TO.P,R2,1*%
%TO.N,Net-(D1-Pad1)*%
X55651400Y37028120D03*
%TD*%
D18*
%TO.P,R3,2*%
%TO.N,Net-(D2-Pad1)*%
X66949400Y32379920D03*
D16*
%TO.P,R3,1*%
%TO.N,Net-(R3-Pad1)*%
X59329400Y32379920D03*
%TD*%
%TO.P,R4,1*%
%TO.N,Net-(R4-Pad1)*%
X49555400Y44648120D03*
D18*
%TO.P,R4,2*%
%TO.N,Net-(D1-Pad1)*%
X49555400Y37028120D03*
%TD*%
%TO.P,R5,2*%
%TO.N,Net-(D3-Pad2)*%
X18839200Y37076320D03*
D16*
%TO.P,R5,1*%
%TO.N,+5V*%
X18839200Y44696320D03*
%TD*%
%TO.P,R6,1*%
%TO.N,+5V*%
X25967200Y44696320D03*
D18*
%TO.P,R6,2*%
%TO.N,Net-(D4-Pad2)*%
X25967200Y37076320D03*
%TD*%
D16*
%TO.P,R7,1*%
%TO.N,Net-(J2-Pad1)*%
X21107400Y7475120D03*
D18*
%TO.P,R7,2*%
%TO.N,Net-(R7-Pad2)*%
X28727400Y7475120D03*
%TD*%
D17*
%TO.P,U1,1*%
%TO.N,Net-(C5-Pad2)*%
X44566400Y9261120D03*
D18*
%TO.P,U1,15*%
%TO.N,Net-(R3-Pad1)*%
X36946400Y42281120D03*
%TO.P,U1,2*%
%TO.N,Net-(J2-Pad2)*%
X44566400Y11801120D03*
%TO.P,U1,16*%
%TO.N,Net-(J3-Pad5)*%
X36946400Y39741120D03*
%TO.P,U1,3*%
%TO.N,Net-(R7-Pad2)*%
X44566400Y14341120D03*
%TO.P,U1,17*%
%TO.N,Net-(J3-Pad1)*%
X36946400Y37201120D03*
%TO.P,U1,4*%
%TO.N,Net-(R3-Pad1)*%
X44566400Y16881120D03*
%TO.P,U1,18*%
%TO.N,Net-(J3-Pad9)*%
X36946400Y34661120D03*
%TO.P,U1,5*%
%TO.N,Net-(U1-Pad5)*%
X44566400Y19421120D03*
%TO.P,U1,19*%
%TO.N,Net-(J3-Pad7)*%
X36946400Y32121120D03*
%TO.P,U1,6*%
%TO.N,Net-(U1-Pad6)*%
X44566400Y21961120D03*
%TO.P,U1,20*%
%TO.N,+5V*%
X36946400Y29581120D03*
%TO.P,U1,7*%
X44566400Y24501120D03*
%TO.P,U1,21*%
%TO.N,Net-(U1-Pad21)*%
X36946400Y27041120D03*
%TO.P,U1,8*%
%TO.N,GND*%
X44566400Y27041120D03*
%TO.P,U1,22*%
X36946400Y24501120D03*
%TO.P,U1,9*%
%TO.N,Net-(C1-Pad1)*%
X44566400Y29581120D03*
%TO.P,U1,23*%
%TO.N,Net-(D3-Pad1)*%
X36946400Y21961120D03*
%TO.P,U1,10*%
%TO.N,Net-(C2-Pad1)*%
X44566400Y32121120D03*
%TO.P,U1,24*%
%TO.N,Net-(D4-Pad1)*%
X36946400Y19421120D03*
%TO.P,U1,11*%
%TO.N,Net-(U1-Pad11)*%
X44566400Y34661120D03*
%TO.P,U1,25*%
%TO.N,Net-(JP2-Pad1)*%
X36946400Y16881120D03*
%TO.P,U1,12*%
%TO.N,Net-(U1-Pad12)*%
X44566400Y37201120D03*
%TO.P,U1,26*%
%TO.N,Net-(U1-Pad26)*%
X36946400Y14341120D03*
%TO.P,U1,13*%
%TO.N,Net-(U1-Pad13)*%
X44566400Y39741120D03*
%TO.P,U1,27*%
%TO.N,Net-(U1-Pad27)*%
X36946400Y11801120D03*
%TO.P,U1,14*%
%TO.N,Net-(R4-Pad1)*%
X44566400Y42281120D03*
%TO.P,U1,28*%
%TO.N,Net-(U1-Pad28)*%
X36946400Y9261120D03*
%TD*%
D25*
%TO.N,Net-(C1-Pad1)*%
X57534400Y18486120D02*
X52667700Y18486120D01*
X52667700Y18486120D02*
X51885400Y19268420D01*
%TO.N,GND*%
X7454900Y24315420D02*
X7454900Y26855420D01*
X7454900Y21775420D02*
X7454900Y24315420D01*
X62534400Y18486120D02*
X62534400Y7122120D01*
X62534400Y7122120D02*
X63550400Y6106120D01*
X76035400Y25876520D02*
X74970100Y25876520D01*
X72923400Y44648120D02*
X74970100Y42601420D01*
X74970100Y42601420D02*
X74970100Y25876520D01*
X66930400Y44696320D02*
X72875200Y44696320D01*
X72875200Y44696320D02*
X72923400Y44648120D01*
X38121700Y24501120D02*
X38121700Y21474120D01*
X38121700Y21474120D02*
X37338700Y20691120D01*
X37338700Y20691120D02*
X34834800Y20691120D01*
X34834800Y20691120D02*
X31923700Y17780020D01*
X30698400Y17780020D02*
X31923700Y17780020D01*
X44566400Y27041120D02*
X40661700Y27041120D01*
X40661700Y27041120D02*
X38121700Y24501120D01*
X76035400Y25226520D02*
X76035400Y25876520D01*
X30698400Y17780020D02*
X29473100Y17780020D01*
X29473100Y17780020D02*
X25477700Y21775420D01*
X25477700Y21775420D02*
X7454900Y21775420D01*
X44566400Y27041120D02*
X60329400Y27041120D01*
X60329400Y27041120D02*
X62534400Y24836120D01*
X36946400Y24501120D02*
X38121700Y24501120D01*
%TO.N,Net-(C2-Pad1)*%
X51885400Y24148420D02*
X56846700Y24148420D01*
X56846700Y24148420D02*
X57534400Y24836120D01*
%TO.N,+5V*%
X48310400Y3606120D02*
X49485700Y3606120D01*
X63550400Y3606120D02*
X62375100Y3606120D01*
X63550400Y3606120D02*
X63550400Y4781420D01*
X63550400Y4781420D02*
X63917700Y4781420D01*
X63917700Y4781420D02*
X74970100Y15833820D01*
X74970100Y15833820D02*
X74970100Y23276520D01*
X62375100Y3606120D02*
X61199800Y2430820D01*
X61199800Y2430820D02*
X50661000Y2430820D01*
X50661000Y2430820D02*
X49485700Y3606120D01*
X47722800Y3606120D02*
X48310400Y3606120D01*
X47722800Y3606120D02*
X47135100Y3606120D01*
X44566400Y24501120D02*
X44566400Y23325820D01*
X44566400Y23325820D02*
X44933700Y23325820D01*
X44933700Y23325820D02*
X47135100Y21124420D01*
X47135100Y21124420D02*
X47135100Y3606120D01*
X76035400Y23276520D02*
X74970100Y23276520D01*
X47135100Y3606120D02*
X45707600Y2178620D01*
X45707600Y2178620D02*
X28406300Y2178620D01*
X28406300Y2178620D02*
X27228800Y3356120D01*
X55651400Y44648120D02*
X54476100Y44648120D01*
X36946400Y29581120D02*
X38121700Y29581120D01*
X38121700Y29581120D02*
X38121700Y29948420D01*
X38121700Y29948420D02*
X44104400Y35931120D01*
X44104400Y35931120D02*
X45759100Y35931120D01*
X45759100Y35931120D02*
X54476100Y44648120D01*
X25967200Y44696320D02*
X18839200Y44696320D01*
X55651400Y44648120D02*
X56826700Y44648120D01*
X56826700Y44648120D02*
X61826700Y39648120D01*
X61826700Y39648120D02*
X72923400Y39648120D01*
%TO.N,Net-(C5-Pad2)*%
X23230500Y11258120D02*
X23230500Y15240020D01*
X34848800Y3356120D02*
X31132500Y3356120D01*
X31132500Y3356120D02*
X23230500Y11258120D01*
X23230500Y11258120D02*
X12310400Y11258120D01*
X12310400Y11258120D02*
X11383400Y10331120D01*
X38912400Y3356120D02*
X34848800Y3356120D01*
%TO.N,Net-(D1-Pad1)*%
X60822800Y37076320D02*
X60822800Y36825720D01*
X60822800Y36825720D02*
X73722000Y23926520D01*
X73722000Y23926520D02*
X76035400Y23926520D01*
X60822800Y37076320D02*
X60235100Y37076320D01*
X61410400Y37076320D02*
X60822800Y37076320D01*
X55651400Y37028120D02*
X60186900Y37028120D01*
X60186900Y37028120D02*
X60235100Y37076320D01*
X49555400Y37028120D02*
X55651400Y37028120D01*
%TO.N,Net-(D2-Pad1)*%
X76035400Y24576520D02*
X74970100Y24576520D01*
X66949400Y32379920D02*
X68124700Y32379920D01*
X68124700Y32379920D02*
X68124700Y31421920D01*
X68124700Y31421920D02*
X74970100Y24576520D01*
%TO.N,Net-(D3-Pad1)*%
X18839200Y30975620D02*
X20114500Y30975620D01*
X36946400Y21961120D02*
X29129000Y21961120D01*
X29129000Y21961120D02*
X20114500Y30975620D01*
%TO.N,Net-(J2-Pad1)*%
X17221200Y7361120D02*
X18446500Y7361120D01*
X21107400Y7475120D02*
X18560500Y7475120D01*
X18560500Y7475120D02*
X18446500Y7361120D01*
%TO.N,Net-(JP2-Pad1)*%
X30698400Y15240020D02*
X31923700Y15240020D01*
X36946400Y16881120D02*
X33564800Y16881120D01*
X33564800Y16881120D02*
X31923700Y15240020D01*
%TO.N,Net-(R4-Pad1)*%
X44566400Y42281120D02*
X47188400Y42281120D01*
X47188400Y42281120D02*
X49555400Y44648120D01*
%TO.N,Net-(R7-Pad2)*%
X44566400Y14341120D02*
X43391100Y14341120D01*
X43391100Y14341120D02*
X43391100Y13973820D01*
X43391100Y13973820D02*
X36892400Y7475120D01*
X36892400Y7475120D02*
X28727400Y7475120D01*
%TO.N,Net-(J3-Pad1)*%
X4914900Y31935420D02*
X6153800Y31935420D01*
X36946400Y37201120D02*
X35771100Y37201120D01*
X35771100Y37201120D02*
X34708100Y38264120D01*
X34708100Y38264120D02*
X12017900Y38264120D01*
X12017900Y38264120D02*
X6153800Y32400020D01*
X6153800Y32400020D02*
X6153800Y31935420D01*
%TO.N,Net-(J3-Pad7)*%
X4914900Y25554320D02*
X5428300Y25554320D01*
X5428300Y25554320D02*
X6185000Y26311020D01*
X6185000Y26311020D02*
X6185000Y27345420D01*
X6185000Y27345420D02*
X6934000Y28094420D01*
X6934000Y28094420D02*
X9840300Y28094420D01*
X9840300Y28094420D02*
X16558300Y34812420D01*
X16558300Y34812420D02*
X33079800Y34812420D01*
X33079800Y34812420D02*
X35771100Y32121120D01*
X4914900Y24315420D02*
X4914900Y25554320D01*
X36946400Y32121120D02*
X35771100Y32121120D01*
%TO.N,Net-(J3-Pad9)*%
X4914900Y21775420D02*
X4914900Y23014320D01*
X36946400Y34661120D02*
X35771100Y34661120D01*
X35771100Y34661120D02*
X35069400Y35362820D01*
X35069400Y35362820D02*
X14368600Y35362820D01*
X14368600Y35362820D02*
X9640200Y30634420D01*
X9640200Y30634420D02*
X6868000Y30634420D01*
X6868000Y30634420D02*
X6184900Y29951320D01*
X6184900Y29951320D02*
X6184900Y28905220D01*
X6184900Y28905220D02*
X5405100Y28125420D01*
X5405100Y28125420D02*
X4344700Y28125420D01*
X4344700Y28125420D02*
X3613900Y27394620D01*
X3613900Y27394620D02*
X3613900Y23801920D01*
X3613900Y23801920D02*
X4401500Y23014320D01*
X4401500Y23014320D02*
X4914900Y23014320D01*
%TD*%
D26*
%TO.N,GND*%
G36*
X76253441Y48994006D02*
G01*
X75975514Y48716079D01*
X75757148Y48389270D01*
X75606735Y48026141D01*
X75530055Y47640644D01*
X75530055Y47247596D01*
X75606735Y46862099D01*
X75757148Y46498970D01*
X75975514Y46172161D01*
X76253441Y45894234D01*
X76580250Y45675868D01*
X76943379Y45525455D01*
X77328876Y45448775D01*
X77721924Y45448775D01*
X78107421Y45525455D01*
X78470550Y45675868D01*
X78797359Y45894234D01*
X78892400Y45989275D01*
X78892400Y29312092D01*
X77745400Y29312092D01*
X77620918Y29299832D01*
X77501220Y29263522D01*
X77390906Y29204557D01*
X77294215Y29125205D01*
X77214863Y29028514D01*
X77155898Y28918200D01*
X77119588Y28798502D01*
X77107328Y28674020D01*
X77107328Y28414592D01*
X75345400Y28414592D01*
X75220918Y28402332D01*
X75101220Y28366022D01*
X74990906Y28307057D01*
X74894215Y28227705D01*
X74814863Y28131014D01*
X74755898Y28020700D01*
X74719588Y27901002D01*
X74707328Y27776520D01*
X74707328Y26301520D01*
X74717505Y26198186D01*
X74710400Y26133270D01*
X74742647Y26101023D01*
X74755898Y26057340D01*
X74784665Y26003522D01*
X74710400Y26003522D01*
X74710400Y25981733D01*
X68934700Y31757432D01*
X68934700Y32340129D01*
X68938619Y32379920D01*
X68922980Y32538708D01*
X68876663Y32691393D01*
X68801449Y32832109D01*
X68700228Y32955448D01*
X68576889Y33056669D01*
X68436173Y33131883D01*
X68283488Y33178200D01*
X68164491Y33189920D01*
X68138966Y33192434D01*
X67969008Y33399528D01*
X67750501Y33578852D01*
X67501208Y33712102D01*
X67230709Y33794156D01*
X67019892Y33814920D01*
X66878908Y33814920D01*
X66668091Y33794156D01*
X66397592Y33712102D01*
X66148299Y33578852D01*
X65929792Y33399528D01*
X65750468Y33181021D01*
X65702588Y33091444D01*
X62786662Y36007370D01*
X62799902Y36032140D01*
X62836212Y36151838D01*
X62848472Y36276320D01*
X62848472Y37876320D01*
X65492328Y37876320D01*
X65492328Y36276320D01*
X65504588Y36151838D01*
X65540898Y36032140D01*
X65599863Y35921826D01*
X65679215Y35825135D01*
X65775906Y35745783D01*
X65886220Y35686818D01*
X66005918Y35650508D01*
X66130400Y35638248D01*
X67730400Y35638248D01*
X67854882Y35650508D01*
X67974580Y35686818D01*
X68084894Y35745783D01*
X68181585Y35825135D01*
X68260937Y35921826D01*
X68319902Y36032140D01*
X68356212Y36151838D01*
X68368472Y36276320D01*
X68368472Y37876320D01*
X68356212Y38000802D01*
X68319902Y38120500D01*
X68260937Y38230814D01*
X68181585Y38327505D01*
X68084894Y38406857D01*
X67974580Y38465822D01*
X67854882Y38502132D01*
X67730400Y38514392D01*
X66130400Y38514392D01*
X66005918Y38502132D01*
X65886220Y38465822D01*
X65775906Y38406857D01*
X65679215Y38327505D01*
X65599863Y38230814D01*
X65540898Y38120500D01*
X65504588Y38000802D01*
X65492328Y37876320D01*
X62848472Y37876320D01*
X62836212Y38000802D01*
X62799902Y38120500D01*
X62740937Y38230814D01*
X62661585Y38327505D01*
X62564894Y38406857D01*
X62454580Y38465822D01*
X62334882Y38502132D01*
X62210400Y38514392D01*
X60610400Y38514392D01*
X60485918Y38502132D01*
X60366220Y38465822D01*
X60255906Y38406857D01*
X60159215Y38327505D01*
X60079863Y38230814D01*
X60020898Y38120500D01*
X59984588Y38000802D01*
X59972328Y37876320D01*
X59972328Y37843056D01*
X59956055Y37838120D01*
X56836035Y37838120D01*
X56766037Y37942879D01*
X56566159Y38142757D01*
X56331127Y38299800D01*
X56069974Y38407973D01*
X55792735Y38463120D01*
X55510065Y38463120D01*
X55232826Y38407973D01*
X54971673Y38299800D01*
X54736641Y38142757D01*
X54536763Y37942879D01*
X54466765Y37838120D01*
X50747029Y37838120D01*
X50575008Y38047728D01*
X50356501Y38227052D01*
X50107208Y38360302D01*
X49836709Y38442356D01*
X49625892Y38463120D01*
X49484908Y38463120D01*
X49431336Y38457844D01*
X54618365Y43644872D01*
X54631792Y43628512D01*
X54850299Y43449188D01*
X55099592Y43315938D01*
X55370091Y43233884D01*
X55580908Y43213120D01*
X55721892Y43213120D01*
X55932709Y43233884D01*
X56203208Y43315938D01*
X56452501Y43449188D01*
X56671008Y43628512D01*
X56684435Y43644873D01*
X61225805Y39103502D01*
X61251172Y39072592D01*
X61374511Y38971371D01*
X61515227Y38896157D01*
X61667912Y38849840D01*
X61786909Y38838120D01*
X61786912Y38838120D01*
X61826700Y38834201D01*
X61866488Y38838120D01*
X71738765Y38838120D01*
X71808763Y38733361D01*
X72008641Y38533483D01*
X72243673Y38376440D01*
X72504826Y38268267D01*
X72782065Y38213120D01*
X73064735Y38213120D01*
X73341974Y38268267D01*
X73603127Y38376440D01*
X73838159Y38533483D01*
X74038037Y38733361D01*
X74195080Y38968393D01*
X74303253Y39229546D01*
X74358400Y39506785D01*
X74358400Y39789455D01*
X74303253Y40066694D01*
X74195080Y40327847D01*
X74038037Y40562879D01*
X73838159Y40762757D01*
X73603127Y40919800D01*
X73341974Y41027973D01*
X73064735Y41083120D01*
X72782065Y41083120D01*
X72504826Y41027973D01*
X72243673Y40919800D01*
X72008641Y40762757D01*
X71808763Y40562879D01*
X71738765Y40458120D01*
X62162213Y40458120D01*
X58273053Y44347280D01*
X60018491Y44347280D01*
X60113330Y44082439D01*
X60258015Y43841189D01*
X60446986Y43632801D01*
X60672980Y43465283D01*
X60927313Y43345074D01*
X61061361Y43304416D01*
X61283400Y43426405D01*
X61283400Y44569320D01*
X61537400Y44569320D01*
X61537400Y43426405D01*
X61759439Y43304416D01*
X61893487Y43345074D01*
X62147820Y43465283D01*
X62373814Y43632801D01*
X62562785Y43841189D01*
X62707470Y44082439D01*
X62802309Y44347280D01*
X65538491Y44347280D01*
X65633330Y44082439D01*
X65778015Y43841189D01*
X65966986Y43632801D01*
X66192980Y43465283D01*
X66447313Y43345074D01*
X66581361Y43304416D01*
X66803400Y43426405D01*
X66803400Y44569320D01*
X67057400Y44569320D01*
X67057400Y43426405D01*
X67279439Y43304416D01*
X67413487Y43345074D01*
X67667820Y43465283D01*
X67893814Y43632801D01*
X67914323Y43655418D01*
X72110303Y43655418D01*
X72181886Y43411449D01*
X72437396Y43290549D01*
X72711584Y43221820D01*
X72993912Y43207903D01*
X73273530Y43249333D01*
X73539692Y43344517D01*
X73664914Y43411449D01*
X73736497Y43655418D01*
X72923400Y44468515D01*
X72110303Y43655418D01*
X67914323Y43655418D01*
X68082785Y43841189D01*
X68227470Y44082439D01*
X68322309Y44347280D01*
X68201024Y44569320D01*
X67057400Y44569320D01*
X66803400Y44569320D01*
X65659776Y44569320D01*
X65538491Y44347280D01*
X62802309Y44347280D01*
X62681024Y44569320D01*
X61537400Y44569320D01*
X61283400Y44569320D01*
X60139776Y44569320D01*
X60018491Y44347280D01*
X58273053Y44347280D01*
X58042725Y44577608D01*
X71483183Y44577608D01*
X71524613Y44297990D01*
X71619797Y44031828D01*
X71686729Y43906606D01*
X71930698Y43835023D01*
X72743795Y44648120D01*
X73103005Y44648120D01*
X73916102Y43835023D01*
X74160071Y43906606D01*
X74280971Y44162116D01*
X74349700Y44436304D01*
X74363617Y44718632D01*
X74322187Y44998250D01*
X74227003Y45264412D01*
X74160071Y45389634D01*
X73916102Y45461217D01*
X73103005Y44648120D01*
X72743795Y44648120D01*
X71930698Y45461217D01*
X71686729Y45389634D01*
X71565829Y45134124D01*
X71497100Y44859936D01*
X71483183Y44577608D01*
X58042725Y44577608D01*
X57574973Y45045360D01*
X60018491Y45045360D01*
X60139776Y44823320D01*
X61283400Y44823320D01*
X61283400Y45966235D01*
X61537400Y45966235D01*
X61537400Y44823320D01*
X62681024Y44823320D01*
X62802309Y45045360D01*
X65538491Y45045360D01*
X65659776Y44823320D01*
X66803400Y44823320D01*
X66803400Y45966235D01*
X67057400Y45966235D01*
X67057400Y44823320D01*
X68201024Y44823320D01*
X68322309Y45045360D01*
X68227470Y45310201D01*
X68082785Y45551451D01*
X68001742Y45640822D01*
X72110303Y45640822D01*
X72923400Y44827725D01*
X73736497Y45640822D01*
X73664914Y45884791D01*
X73409404Y46005691D01*
X73135216Y46074420D01*
X72852888Y46088337D01*
X72573270Y46046907D01*
X72307108Y45951723D01*
X72181886Y45884791D01*
X72110303Y45640822D01*
X68001742Y45640822D01*
X67893814Y45759839D01*
X67667820Y45927357D01*
X67413487Y46047566D01*
X67279439Y46088224D01*
X67057400Y45966235D01*
X66803400Y45966235D01*
X66581361Y46088224D01*
X66447313Y46047566D01*
X66192980Y45927357D01*
X65966986Y45759839D01*
X65778015Y45551451D01*
X65633330Y45310201D01*
X65538491Y45045360D01*
X62802309Y45045360D01*
X62707470Y45310201D01*
X62562785Y45551451D01*
X62373814Y45759839D01*
X62147820Y45927357D01*
X61893487Y46047566D01*
X61759439Y46088224D01*
X61537400Y45966235D01*
X61283400Y45966235D01*
X61061361Y46088224D01*
X60927313Y46047566D01*
X60672980Y45927357D01*
X60446986Y45759839D01*
X60258015Y45551451D01*
X60113330Y45310201D01*
X60018491Y45045360D01*
X57574973Y45045360D01*
X57427600Y45192732D01*
X57402228Y45223648D01*
X57278889Y45324869D01*
X57138173Y45400083D01*
X56985488Y45446400D01*
X56866491Y45458120D01*
X56866488Y45458120D01*
X56840966Y45460634D01*
X56671008Y45667728D01*
X56452501Y45847052D01*
X56203208Y45980302D01*
X55932709Y46062356D01*
X55721892Y46083120D01*
X55580908Y46083120D01*
X55370091Y46062356D01*
X55099592Y45980302D01*
X54850299Y45847052D01*
X54631792Y45667728D01*
X54461834Y45460634D01*
X54436312Y45458120D01*
X54436309Y45458120D01*
X54317312Y45446400D01*
X54200163Y45410863D01*
X54164626Y45400083D01*
X54114087Y45373069D01*
X54023911Y45324869D01*
X53900572Y45223648D01*
X53875205Y45192738D01*
X45997157Y37314689D01*
X45980636Y37482429D01*
X45898582Y37752928D01*
X45765332Y38002221D01*
X45586008Y38220728D01*
X45367501Y38400052D01*
X45234542Y38471120D01*
X45367501Y38542188D01*
X45586008Y38721512D01*
X45765332Y38940019D01*
X45898582Y39189312D01*
X45980636Y39459811D01*
X46008343Y39741120D01*
X45980636Y40022429D01*
X45898582Y40292928D01*
X45765332Y40542221D01*
X45586008Y40760728D01*
X45367501Y40940052D01*
X45234542Y41011120D01*
X45367501Y41082188D01*
X45586008Y41261512D01*
X45758029Y41471120D01*
X47148612Y41471120D01*
X47188400Y41467201D01*
X47228188Y41471120D01*
X47228191Y41471120D01*
X47347188Y41482840D01*
X47499873Y41529157D01*
X47640589Y41604371D01*
X47763928Y41705592D01*
X47789300Y41736507D01*
X49290493Y43237700D01*
X49414065Y43213120D01*
X49696735Y43213120D01*
X49973974Y43268267D01*
X50235127Y43376440D01*
X50470159Y43533483D01*
X50670037Y43733361D01*
X50827080Y43968393D01*
X50935253Y44229546D01*
X50990400Y44506785D01*
X50990400Y44789455D01*
X50935253Y45066694D01*
X50827080Y45327847D01*
X50670037Y45562879D01*
X50470159Y45762757D01*
X50235127Y45919800D01*
X49973974Y46027973D01*
X49696735Y46083120D01*
X49414065Y46083120D01*
X49136826Y46027973D01*
X48875673Y45919800D01*
X48640641Y45762757D01*
X48440763Y45562879D01*
X48283720Y45327847D01*
X48175547Y45066694D01*
X48120400Y44789455D01*
X48120400Y44506785D01*
X48144980Y44383213D01*
X46852888Y43091120D01*
X45758029Y43091120D01*
X45586008Y43300728D01*
X45367501Y43480052D01*
X45118208Y43613302D01*
X44847709Y43695356D01*
X44636892Y43716120D01*
X44495908Y43716120D01*
X44285091Y43695356D01*
X44014592Y43613302D01*
X43765299Y43480052D01*
X43546792Y43300728D01*
X43367468Y43082221D01*
X43234218Y42832928D01*
X43152164Y42562429D01*
X43124457Y42281120D01*
X43152164Y41999811D01*
X43234218Y41729312D01*
X43367468Y41480019D01*
X43546792Y41261512D01*
X43765299Y41082188D01*
X43898258Y41011120D01*
X43765299Y40940052D01*
X43546792Y40760728D01*
X43367468Y40542221D01*
X43234218Y40292928D01*
X43152164Y40022429D01*
X43124457Y39741120D01*
X43152164Y39459811D01*
X43234218Y39189312D01*
X43367468Y38940019D01*
X43546792Y38721512D01*
X43765299Y38542188D01*
X43898258Y38471120D01*
X43765299Y38400052D01*
X43546792Y38220728D01*
X43367468Y38002221D01*
X43234218Y37752928D01*
X43152164Y37482429D01*
X43124457Y37201120D01*
X43152164Y36919811D01*
X43234218Y36649312D01*
X43367468Y36400019D01*
X43394657Y36366890D01*
X37780631Y30752863D01*
X37747501Y30780052D01*
X37614542Y30851120D01*
X37747501Y30922188D01*
X37966008Y31101512D01*
X38145332Y31320019D01*
X38278582Y31569312D01*
X38360636Y31839811D01*
X38388343Y32121120D01*
X38360636Y32402429D01*
X38278582Y32672928D01*
X38145332Y32922221D01*
X37966008Y33140728D01*
X37747501Y33320052D01*
X37614542Y33391120D01*
X37747501Y33462188D01*
X37966008Y33641512D01*
X38145332Y33860019D01*
X38278582Y34109312D01*
X38360636Y34379811D01*
X38388343Y34661120D01*
X38360636Y34942429D01*
X38278582Y35212928D01*
X38145332Y35462221D01*
X37966008Y35680728D01*
X37747501Y35860052D01*
X37614542Y35931120D01*
X37747501Y36002188D01*
X37966008Y36181512D01*
X38145332Y36400019D01*
X38278582Y36649312D01*
X38360636Y36919811D01*
X38388343Y37201120D01*
X38360636Y37482429D01*
X38278582Y37752928D01*
X38145332Y38002221D01*
X37966008Y38220728D01*
X37747501Y38400052D01*
X37614542Y38471120D01*
X37747501Y38542188D01*
X37966008Y38721512D01*
X38145332Y38940019D01*
X38278582Y39189312D01*
X38360636Y39459811D01*
X38388343Y39741120D01*
X38360636Y40022429D01*
X38278582Y40292928D01*
X38145332Y40542221D01*
X37966008Y40760728D01*
X37747501Y40940052D01*
X37614542Y41011120D01*
X37747501Y41082188D01*
X37966008Y41261512D01*
X38145332Y41480019D01*
X38278582Y41729312D01*
X38360636Y41999811D01*
X38388343Y42281120D01*
X38360636Y42562429D01*
X38278582Y42832928D01*
X38145332Y43082221D01*
X37966008Y43300728D01*
X37747501Y43480052D01*
X37498208Y43613302D01*
X37227709Y43695356D01*
X37016892Y43716120D01*
X36875908Y43716120D01*
X36665091Y43695356D01*
X36394592Y43613302D01*
X36145299Y43480052D01*
X35926792Y43300728D01*
X35747468Y43082221D01*
X35614218Y42832928D01*
X35532164Y42562429D01*
X35504457Y42281120D01*
X35532164Y41999811D01*
X35614218Y41729312D01*
X35747468Y41480019D01*
X35926792Y41261512D01*
X36145299Y41082188D01*
X36278258Y41011120D01*
X36145299Y40940052D01*
X35926792Y40760728D01*
X35747468Y40542221D01*
X35614218Y40292928D01*
X35532164Y40022429D01*
X35504457Y39741120D01*
X35532164Y39459811D01*
X35614218Y39189312D01*
X35747468Y38940019D01*
X35926792Y38721512D01*
X36145299Y38542188D01*
X36278258Y38471120D01*
X36145299Y38400052D01*
X35926792Y38220728D01*
X35913365Y38204367D01*
X35308999Y38808733D01*
X35283628Y38839648D01*
X35160289Y38940869D01*
X35019573Y39016083D01*
X34866888Y39062400D01*
X34747891Y39074120D01*
X34747888Y39074120D01*
X34708100Y39078039D01*
X34668312Y39074120D01*
X12057688Y39074120D01*
X12017900Y39078039D01*
X11978112Y39074120D01*
X11978109Y39074120D01*
X11859112Y39062400D01*
X11706427Y39016083D01*
X11565711Y38940869D01*
X11442372Y38839648D01*
X11417005Y38808738D01*
X6002816Y33394548D01*
X5902982Y33424832D01*
X5778500Y33437092D01*
X4051300Y33437092D01*
X3926818Y33424832D01*
X3807120Y33388522D01*
X3696806Y33329557D01*
X3600115Y33250205D01*
X3520763Y33153514D01*
X3461798Y33043200D01*
X3425488Y32923502D01*
X3413228Y32799020D01*
X3413228Y31071820D01*
X3425488Y30947338D01*
X3461798Y30827640D01*
X3520763Y30717326D01*
X3600115Y30620635D01*
X3696806Y30541283D01*
X3807120Y30482318D01*
X3858165Y30466834D01*
X3850103Y30460217D01*
X3662831Y30232026D01*
X3523675Y29971684D01*
X3437984Y29689197D01*
X3409049Y29395420D01*
X3437984Y29101643D01*
X3523675Y28819156D01*
X3652294Y28578527D01*
X3069287Y27995519D01*
X3038372Y27970148D01*
X2978194Y27896820D01*
X2937151Y27846809D01*
X2903017Y27782947D01*
X2861937Y27706092D01*
X2815620Y27553407D01*
X2809723Y27493528D01*
X2799981Y27394620D01*
X2803900Y27354832D01*
X2803901Y23841718D01*
X2799981Y23801920D01*
X2814205Y23657510D01*
X2815621Y23643132D01*
X2846762Y23540476D01*
X2861938Y23490447D01*
X2937151Y23349731D01*
X2992752Y23281981D01*
X3038373Y23226392D01*
X3069283Y23201025D01*
X3661246Y22609061D01*
X3523675Y22351684D01*
X3437984Y22069197D01*
X3409049Y21775420D01*
X3437984Y21481643D01*
X3523675Y21199156D01*
X3662831Y20938814D01*
X3850103Y20710623D01*
X4078294Y20523351D01*
X4338636Y20384195D01*
X4621123Y20298504D01*
X4841281Y20276820D01*
X4988519Y20276820D01*
X5208677Y20298504D01*
X5491164Y20384195D01*
X5751506Y20523351D01*
X5979697Y20710623D01*
X6166969Y20938814D01*
X6188370Y20978853D01*
X6348046Y20765127D01*
X6566412Y20568603D01*
X6818922Y20418456D01*
X7095873Y20320457D01*
X7327900Y20440956D01*
X7327900Y21648420D01*
X7581900Y21648420D01*
X7581900Y20440956D01*
X7813927Y20320457D01*
X8090878Y20418456D01*
X8343388Y20568603D01*
X8561754Y20765127D01*
X8737584Y21000476D01*
X8864122Y21265606D01*
X8909858Y21416394D01*
X8788717Y21648420D01*
X7581900Y21648420D01*
X7327900Y21648420D01*
X7307900Y21648420D01*
X7307900Y21902420D01*
X7327900Y21902420D01*
X7327900Y24188420D01*
X7581900Y24188420D01*
X7581900Y21902420D01*
X8788717Y21902420D01*
X8909858Y22134446D01*
X8864122Y22285234D01*
X8737584Y22550364D01*
X8561754Y22785713D01*
X8343388Y22982237D01*
X8237130Y23045420D01*
X8343388Y23108603D01*
X8561754Y23305127D01*
X8737584Y23540476D01*
X8864122Y23805606D01*
X8909858Y23956394D01*
X8788717Y24188420D01*
X7581900Y24188420D01*
X7327900Y24188420D01*
X7307900Y24188420D01*
X7307900Y24442420D01*
X7327900Y24442420D01*
X7327900Y26728420D01*
X7581900Y26728420D01*
X7581900Y24442420D01*
X8788717Y24442420D01*
X8909858Y24674446D01*
X8864122Y24825234D01*
X8737584Y25090364D01*
X8561754Y25325713D01*
X8343388Y25522237D01*
X8237130Y25585420D01*
X8343388Y25648603D01*
X8561754Y25845127D01*
X8737584Y26080476D01*
X8864122Y26345606D01*
X8909858Y26496394D01*
X8788717Y26728420D01*
X7581900Y26728420D01*
X7327900Y26728420D01*
X7307900Y26728420D01*
X7307900Y26982420D01*
X7327900Y26982420D01*
X7327900Y27002420D01*
X7581900Y27002420D01*
X7581900Y26982420D01*
X8788717Y26982420D01*
X8909858Y27214446D01*
X8888634Y27284420D01*
X9800512Y27284420D01*
X9840300Y27280501D01*
X9880088Y27284420D01*
X9880091Y27284420D01*
X9999088Y27296140D01*
X10151773Y27342457D01*
X10292489Y27417671D01*
X10415828Y27518892D01*
X10441200Y27549808D01*
X16893813Y34002420D01*
X17379367Y34002420D01*
X17363189Y33963363D01*
X17304200Y33666804D01*
X17304200Y33364436D01*
X17363189Y33067877D01*
X17478901Y32788525D01*
X17646888Y32537115D01*
X17713327Y32470676D01*
X17695020Y32465122D01*
X17584706Y32406157D01*
X17488015Y32326805D01*
X17408663Y32230114D01*
X17349698Y32119800D01*
X17313388Y32000102D01*
X17301128Y31875620D01*
X17301128Y30075620D01*
X17313388Y29951138D01*
X17349698Y29831440D01*
X17408663Y29721126D01*
X17488015Y29624435D01*
X17584706Y29545083D01*
X17695020Y29486118D01*
X17814718Y29449808D01*
X17939200Y29437548D01*
X19739200Y29437548D01*
X19863682Y29449808D01*
X19983380Y29486118D01*
X20093694Y29545083D01*
X20190385Y29624435D01*
X20248887Y29695721D01*
X28528105Y21416502D01*
X28553472Y21385592D01*
X28621210Y21330001D01*
X28676810Y21284371D01*
X28737302Y21252038D01*
X28817527Y21209157D01*
X28970212Y21162840D01*
X29089209Y21151120D01*
X29089211Y21151120D01*
X29128999Y21147201D01*
X29168787Y21151120D01*
X35754771Y21151120D01*
X35926792Y20941512D01*
X36145299Y20762188D01*
X36278258Y20691120D01*
X36145299Y20620052D01*
X35926792Y20440728D01*
X35747468Y20222221D01*
X35614218Y19972928D01*
X35532164Y19702429D01*
X35504457Y19421120D01*
X35532164Y19139811D01*
X35614218Y18869312D01*
X35747468Y18620019D01*
X35926792Y18401512D01*
X36145299Y18222188D01*
X36278258Y18151120D01*
X36145299Y18080052D01*
X35926792Y17900728D01*
X35754771Y17691120D01*
X33604588Y17691120D01*
X33564800Y17695039D01*
X33525012Y17691120D01*
X33525009Y17691120D01*
X33406012Y17679400D01*
X33253327Y17633083D01*
X33187824Y17598071D01*
X33112610Y17557869D01*
X33048596Y17505334D01*
X32989272Y17456648D01*
X32963905Y17425738D01*
X32035550Y16497382D01*
X31999585Y16541205D01*
X31902894Y16620557D01*
X31792580Y16679522D01*
X31711934Y16703986D01*
X31795988Y16779751D01*
X31970041Y17013100D01*
X32095225Y17275921D01*
X32139876Y17423130D01*
X32018555Y17653020D01*
X30825400Y17653020D01*
X30825400Y17633020D01*
X30571400Y17633020D01*
X30571400Y17653020D01*
X29378245Y17653020D01*
X29256924Y17423130D01*
X29301575Y17275921D01*
X29426759Y17013100D01*
X29600812Y16779751D01*
X29684866Y16703986D01*
X29604220Y16679522D01*
X29493906Y16620557D01*
X29397215Y16541205D01*
X29317863Y16444514D01*
X29258898Y16334200D01*
X29222588Y16214502D01*
X29210328Y16090020D01*
X29210328Y14390020D01*
X29222588Y14265538D01*
X29258898Y14145840D01*
X29317863Y14035526D01*
X29397215Y13938835D01*
X29493906Y13859483D01*
X29604220Y13800518D01*
X29723918Y13764208D01*
X29848400Y13751948D01*
X31548400Y13751948D01*
X31672882Y13764208D01*
X31792580Y13800518D01*
X31902894Y13859483D01*
X31999585Y13938835D01*
X32078937Y14035526D01*
X32137902Y14145840D01*
X32174212Y14265538D01*
X32186472Y14390020D01*
X32186472Y14473284D01*
X32235173Y14488057D01*
X32375889Y14563271D01*
X32499228Y14664492D01*
X32524599Y14695407D01*
X33900313Y16071120D01*
X35754771Y16071120D01*
X35926792Y15861512D01*
X36145299Y15682188D01*
X36278258Y15611120D01*
X36145299Y15540052D01*
X35926792Y15360728D01*
X35747468Y15142221D01*
X35614218Y14892928D01*
X35532164Y14622429D01*
X35504457Y14341120D01*
X35532164Y14059811D01*
X35614218Y13789312D01*
X35747468Y13540019D01*
X35926792Y13321512D01*
X36145299Y13142188D01*
X36278258Y13071120D01*
X36145299Y13000052D01*
X35926792Y12820728D01*
X35747468Y12602221D01*
X35614218Y12352928D01*
X35532164Y12082429D01*
X35504457Y11801120D01*
X35532164Y11519811D01*
X35614218Y11249312D01*
X35747468Y11000019D01*
X35926792Y10781512D01*
X36145299Y10602188D01*
X36278258Y10531120D01*
X36145299Y10460052D01*
X35926792Y10280728D01*
X35747468Y10062221D01*
X35614218Y9812928D01*
X35532164Y9542429D01*
X35504457Y9261120D01*
X35532164Y8979811D01*
X35614218Y8709312D01*
X35747468Y8460019D01*
X35891004Y8285120D01*
X29919029Y8285120D01*
X29747008Y8494728D01*
X29528501Y8674052D01*
X29279208Y8807302D01*
X29008709Y8889356D01*
X28797892Y8910120D01*
X28656908Y8910120D01*
X28446091Y8889356D01*
X28175592Y8807302D01*
X27926299Y8674052D01*
X27707792Y8494728D01*
X27528468Y8276221D01*
X27469059Y8165074D01*
X24040500Y11593632D01*
X24040500Y13751948D01*
X24080500Y13751948D01*
X24204982Y13764208D01*
X24324680Y13800518D01*
X24434994Y13859483D01*
X24531685Y13938835D01*
X24611037Y14035526D01*
X24670002Y14145840D01*
X24706312Y14265538D01*
X24718572Y14390020D01*
X24718572Y16090020D01*
X24706312Y16214502D01*
X24670002Y16334200D01*
X24611037Y16444514D01*
X24531685Y16541205D01*
X24434994Y16620557D01*
X24324680Y16679522D01*
X24255813Y16700413D01*
X24285634Y16724886D01*
X24471206Y16951006D01*
X24609099Y17208986D01*
X24694013Y17488909D01*
X24722685Y17780020D01*
X24694013Y18071131D01*
X24674060Y18136910D01*
X29256924Y18136910D01*
X29378245Y17907020D01*
X30571400Y17907020D01*
X30571400Y19100834D01*
X30825400Y19100834D01*
X30825400Y17907020D01*
X32018555Y17907020D01*
X32139876Y18136910D01*
X32095225Y18284119D01*
X31970041Y18546940D01*
X31795988Y18780289D01*
X31579755Y18975198D01*
X31329652Y19124177D01*
X31055291Y19221501D01*
X30825400Y19100834D01*
X30571400Y19100834D01*
X30341509Y19221501D01*
X30067148Y19124177D01*
X29817045Y18975198D01*
X29600812Y18780289D01*
X29426759Y18546940D01*
X29301575Y18284119D01*
X29256924Y18136910D01*
X24674060Y18136910D01*
X24609099Y18351054D01*
X24471206Y18609034D01*
X24285634Y18835154D01*
X24059514Y19020726D01*
X23801534Y19158619D01*
X23521611Y19243533D01*
X23303450Y19265020D01*
X23157550Y19265020D01*
X22939389Y19243533D01*
X22659466Y19158619D01*
X22401486Y19020726D01*
X22175366Y18835154D01*
X21989794Y18609034D01*
X21851901Y18351054D01*
X21766987Y18071131D01*
X21738315Y17780020D01*
X21766987Y17488909D01*
X21851901Y17208986D01*
X21989794Y16951006D01*
X22175366Y16724886D01*
X22205187Y16700413D01*
X22136320Y16679522D01*
X22026006Y16620557D01*
X21929315Y16541205D01*
X21849963Y16444514D01*
X21790998Y16334200D01*
X21754688Y16214502D01*
X21742428Y16090020D01*
X21742428Y14390020D01*
X21754688Y14265538D01*
X21790998Y14145840D01*
X21849963Y14035526D01*
X21929315Y13938835D01*
X22026006Y13859483D01*
X22136320Y13800518D01*
X22256018Y13764208D01*
X22380500Y13751948D01*
X22420501Y13751948D01*
X22420500Y12068120D01*
X12350188Y12068120D01*
X12310400Y12072039D01*
X12270612Y12068120D01*
X12270609Y12068120D01*
X12151612Y12056400D01*
X11998927Y12010083D01*
X11933424Y11975071D01*
X11858210Y11934869D01*
X11827646Y11909786D01*
X11544433Y11966120D01*
X11222367Y11966120D01*
X10906488Y11903288D01*
X10608937Y11780038D01*
X10341148Y11601107D01*
X10113413Y11373372D01*
X9934482Y11105583D01*
X9811232Y10808032D01*
X9748400Y10492153D01*
X9748400Y10170087D01*
X9811232Y9854208D01*
X9934482Y9556657D01*
X10113413Y9288868D01*
X10341148Y9061133D01*
X10608937Y8882202D01*
X10906488Y8758952D01*
X11222367Y8696120D01*
X11544433Y8696120D01*
X11860312Y8758952D01*
X12157863Y8882202D01*
X12425652Y9061133D01*
X12653387Y9288868D01*
X12832318Y9556657D01*
X12955568Y9854208D01*
X13018400Y10170087D01*
X13018400Y10448120D01*
X22894988Y10448120D01*
X30354487Y2988620D01*
X28741813Y2988620D01*
X28639220Y3091213D01*
X28663800Y3214785D01*
X28663800Y3497455D01*
X28608653Y3774694D01*
X28500480Y4035847D01*
X28343437Y4270879D01*
X28143559Y4470757D01*
X27908527Y4627800D01*
X27647374Y4735973D01*
X27370135Y4791120D01*
X27087465Y4791120D01*
X26810226Y4735973D01*
X26549073Y4627800D01*
X26314041Y4470757D01*
X26114163Y4270879D01*
X25957120Y4035847D01*
X25848947Y3774694D01*
X25793800Y3497455D01*
X25793800Y3214785D01*
X25848947Y2937546D01*
X25957120Y2676393D01*
X26114163Y2441361D01*
X26314041Y2241483D01*
X26549073Y2084440D01*
X26810226Y1976267D01*
X27087465Y1921120D01*
X27370135Y1921120D01*
X27493707Y1945700D01*
X27805405Y1634002D01*
X27830772Y1603092D01*
X27954111Y1501871D01*
X28094827Y1426657D01*
X28124658Y1417608D01*
X4323967Y1572158D01*
X4444065Y1862099D01*
X4520745Y2247596D01*
X4520745Y2640644D01*
X4509793Y2695707D01*
X5927592Y2695707D01*
X6023356Y2431306D01*
X6312971Y2290416D01*
X6624508Y2208736D01*
X6945995Y2189402D01*
X7265075Y2233159D01*
X7569488Y2338325D01*
X7743444Y2431306D01*
X7839208Y2695707D01*
X6883400Y3651515D01*
X5927592Y2695707D01*
X4509793Y2695707D01*
X4444065Y3026141D01*
X4293652Y3389270D01*
X4075286Y3716079D01*
X4022840Y3768525D01*
X5241682Y3768525D01*
X5285439Y3449445D01*
X5390605Y3145032D01*
X5483586Y2971076D01*
X5747987Y2875312D01*
X6703795Y3831120D01*
X7063005Y3831120D01*
X8018813Y2875312D01*
X8283214Y2971076D01*
X8424104Y3260691D01*
X8505784Y3572228D01*
X8525118Y3893715D01*
X8511619Y3992153D01*
X9748400Y3992153D01*
X9748400Y3670087D01*
X9811232Y3354208D01*
X9934482Y3056657D01*
X10113413Y2788868D01*
X10341148Y2561133D01*
X10608937Y2382202D01*
X10906488Y2258952D01*
X11222367Y2196120D01*
X11544433Y2196120D01*
X11860312Y2258952D01*
X12157863Y2382202D01*
X12425652Y2561133D01*
X12653387Y2788868D01*
X12832318Y3056657D01*
X12955568Y3354208D01*
X13018400Y3670087D01*
X13018400Y3992153D01*
X12955568Y4308032D01*
X12832318Y4605583D01*
X12688301Y4821120D01*
X15729015Y4821120D01*
X15757687Y4530009D01*
X15842601Y4250086D01*
X15980494Y3992106D01*
X16166066Y3765986D01*
X16392186Y3580414D01*
X16650166Y3442521D01*
X16930089Y3357607D01*
X17148250Y3336120D01*
X17294150Y3336120D01*
X17512311Y3357607D01*
X17792234Y3442521D01*
X18050214Y3580414D01*
X18276334Y3765986D01*
X18461906Y3992106D01*
X18599799Y4250086D01*
X18684713Y4530009D01*
X18713385Y4821120D01*
X18684713Y5112231D01*
X18599799Y5392154D01*
X18461906Y5650134D01*
X18276334Y5876254D01*
X18246513Y5900727D01*
X18315380Y5921618D01*
X18425694Y5980583D01*
X18522385Y6059935D01*
X18601737Y6156626D01*
X18660702Y6266940D01*
X18697012Y6386638D01*
X18709272Y6511120D01*
X18709272Y6594384D01*
X18757973Y6609157D01*
X18862673Y6665120D01*
X19922765Y6665120D01*
X19992763Y6560361D01*
X20192641Y6360483D01*
X20427673Y6203440D01*
X20688826Y6095267D01*
X20966065Y6040120D01*
X21248735Y6040120D01*
X21525974Y6095267D01*
X21787127Y6203440D01*
X22022159Y6360483D01*
X22222037Y6560361D01*
X22379080Y6795393D01*
X22487253Y7056546D01*
X22542400Y7333785D01*
X22542400Y7616455D01*
X22487253Y7893694D01*
X22379080Y8154847D01*
X22222037Y8389879D01*
X22022159Y8589757D01*
X21787127Y8746800D01*
X21525974Y8854973D01*
X21248735Y8910120D01*
X20966065Y8910120D01*
X20688826Y8854973D01*
X20427673Y8746800D01*
X20192641Y8589757D01*
X19992763Y8389879D01*
X19922765Y8285120D01*
X18701984Y8285120D01*
X18697012Y8335602D01*
X18660702Y8455300D01*
X18601737Y8565614D01*
X18522385Y8662305D01*
X18425694Y8741657D01*
X18315380Y8800622D01*
X18195682Y8836932D01*
X18071200Y8849192D01*
X16371200Y8849192D01*
X16246718Y8836932D01*
X16127020Y8800622D01*
X16016706Y8741657D01*
X15920015Y8662305D01*
X15840663Y8565614D01*
X15781698Y8455300D01*
X15745388Y8335602D01*
X15733128Y8211120D01*
X15733128Y6511120D01*
X15745388Y6386638D01*
X15781698Y6266940D01*
X15840663Y6156626D01*
X15920015Y6059935D01*
X16016706Y5980583D01*
X16127020Y5921618D01*
X16195887Y5900727D01*
X16166066Y5876254D01*
X15980494Y5650134D01*
X15842601Y5392154D01*
X15757687Y5112231D01*
X15729015Y4821120D01*
X12688301Y4821120D01*
X12653387Y4873372D01*
X12425652Y5101107D01*
X12157863Y5280038D01*
X11860312Y5403288D01*
X11544433Y5466120D01*
X11222367Y5466120D01*
X10906488Y5403288D01*
X10608937Y5280038D01*
X10341148Y5101107D01*
X10113413Y4873372D01*
X9934482Y4605583D01*
X9811232Y4308032D01*
X9748400Y3992153D01*
X8511619Y3992153D01*
X8481361Y4212795D01*
X8376195Y4517208D01*
X8283214Y4691164D01*
X8018813Y4786928D01*
X7063005Y3831120D01*
X6703795Y3831120D01*
X5747987Y4786928D01*
X5483586Y4691164D01*
X5342696Y4401549D01*
X5261016Y4090012D01*
X5241682Y3768525D01*
X4022840Y3768525D01*
X3797359Y3994006D01*
X3470550Y4212372D01*
X3107421Y4362785D01*
X2721924Y4439465D01*
X2328876Y4439465D01*
X1943379Y4362785D01*
X1580250Y4212372D01*
X1253441Y3994006D01*
X975514Y3716079D01*
X914400Y3624615D01*
X914400Y4966533D01*
X5927592Y4966533D01*
X6883400Y4010725D01*
X7839208Y4966533D01*
X7743444Y5230934D01*
X7453829Y5371824D01*
X7142292Y5453504D01*
X6820805Y5472838D01*
X6501725Y5429081D01*
X6197312Y5323915D01*
X6023356Y5230934D01*
X5927592Y4966533D01*
X914400Y4966533D01*
X914400Y9195707D01*
X5927592Y9195707D01*
X6023356Y8931306D01*
X6312971Y8790416D01*
X6624508Y8708736D01*
X6945995Y8689402D01*
X7265075Y8733159D01*
X7569488Y8838325D01*
X7743444Y8931306D01*
X7839208Y9195707D01*
X6883400Y10151515D01*
X5927592Y9195707D01*
X914400Y9195707D01*
X914400Y10268525D01*
X5241682Y10268525D01*
X5285439Y9949445D01*
X5390605Y9645032D01*
X5483586Y9471076D01*
X5747987Y9375312D01*
X6703795Y10331120D01*
X7063005Y10331120D01*
X8018813Y9375312D01*
X8283214Y9471076D01*
X8424104Y9760691D01*
X8505784Y10072228D01*
X8525118Y10393715D01*
X8481361Y10712795D01*
X8376195Y11017208D01*
X8283214Y11191164D01*
X8018813Y11286928D01*
X7063005Y10331120D01*
X6703795Y10331120D01*
X5747987Y11286928D01*
X5483586Y11191164D01*
X5342696Y10901549D01*
X5261016Y10590012D01*
X5241682Y10268525D01*
X914400Y10268525D01*
X914400Y11466533D01*
X5927592Y11466533D01*
X6883400Y10510725D01*
X7839208Y11466533D01*
X7743444Y11730934D01*
X7453829Y11871824D01*
X7142292Y11953504D01*
X6820805Y11972838D01*
X6501725Y11929081D01*
X6197312Y11823915D01*
X6023356Y11730934D01*
X5927592Y11466533D01*
X914400Y11466533D01*
X914400Y15250020D01*
X14270315Y15250020D01*
X14298987Y14958909D01*
X14383901Y14678986D01*
X14521794Y14421006D01*
X14707366Y14194886D01*
X14933486Y14009314D01*
X15191466Y13871421D01*
X15471389Y13786507D01*
X15689550Y13765020D01*
X15835450Y13765020D01*
X16053611Y13786507D01*
X16333534Y13871421D01*
X16591514Y14009314D01*
X16817634Y14194886D01*
X17003206Y14421006D01*
X17141099Y14678986D01*
X17226013Y14958909D01*
X17254685Y15250020D01*
X17226013Y15541131D01*
X17141099Y15821054D01*
X17003206Y16079034D01*
X16817634Y16305154D01*
X16787813Y16329627D01*
X16856680Y16350518D01*
X16966994Y16409483D01*
X17063685Y16488835D01*
X17143037Y16585526D01*
X17202002Y16695840D01*
X17238312Y16815538D01*
X17250572Y16940020D01*
X17250572Y18640020D01*
X17238312Y18764502D01*
X17202002Y18884200D01*
X17143037Y18994514D01*
X17063685Y19091205D01*
X16966994Y19170557D01*
X16856680Y19229522D01*
X16736982Y19265832D01*
X16612500Y19278092D01*
X14912500Y19278092D01*
X14788018Y19265832D01*
X14668320Y19229522D01*
X14558006Y19170557D01*
X14461315Y19091205D01*
X14381963Y18994514D01*
X14322998Y18884200D01*
X14286688Y18764502D01*
X14274428Y18640020D01*
X14274428Y16940020D01*
X14286688Y16815538D01*
X14322998Y16695840D01*
X14381963Y16585526D01*
X14461315Y16488835D01*
X14558006Y16409483D01*
X14668320Y16350518D01*
X14737187Y16329627D01*
X14707366Y16305154D01*
X14521794Y16079034D01*
X14383901Y15821054D01*
X14298987Y15541131D01*
X14270315Y15250020D01*
X914400Y15250020D01*
X914400Y44837655D01*
X17404200Y44837655D01*
X17404200Y44554985D01*
X17459347Y44277746D01*
X17567520Y44016593D01*
X17724563Y43781561D01*
X17924441Y43581683D01*
X18159473Y43424640D01*
X18420626Y43316467D01*
X18697865Y43261320D01*
X18980535Y43261320D01*
X19257774Y43316467D01*
X19518927Y43424640D01*
X19753959Y43581683D01*
X19953837Y43781561D01*
X20023835Y43886320D01*
X24782565Y43886320D01*
X24852563Y43781561D01*
X25052441Y43581683D01*
X25287473Y43424640D01*
X25548626Y43316467D01*
X25825865Y43261320D01*
X26108535Y43261320D01*
X26385774Y43316467D01*
X26646927Y43424640D01*
X26881959Y43581683D01*
X27081837Y43781561D01*
X27238880Y44016593D01*
X27347053Y44277746D01*
X27402200Y44554985D01*
X27402200Y44837655D01*
X27347053Y45114894D01*
X27238880Y45376047D01*
X27081837Y45611079D01*
X26881959Y45810957D01*
X26646927Y45968000D01*
X26385774Y46076173D01*
X26108535Y46131320D01*
X25825865Y46131320D01*
X25548626Y46076173D01*
X25287473Y45968000D01*
X25052441Y45810957D01*
X24852563Y45611079D01*
X24782565Y45506320D01*
X20023835Y45506320D01*
X19953837Y45611079D01*
X19753959Y45810957D01*
X19518927Y45968000D01*
X19257774Y46076173D01*
X18980535Y46131320D01*
X18697865Y46131320D01*
X18420626Y46076173D01*
X18159473Y45968000D01*
X17924441Y45810957D01*
X17724563Y45611079D01*
X17567520Y45376047D01*
X17459347Y45114894D01*
X17404200Y44837655D01*
X914400Y44837655D01*
X914400Y46263625D01*
X975514Y46172161D01*
X1253441Y45894234D01*
X1580250Y45675868D01*
X1943379Y45525455D01*
X2328876Y45448775D01*
X2721924Y45448775D01*
X3107421Y45525455D01*
X3470550Y45675868D01*
X3797359Y45894234D01*
X4075286Y46172161D01*
X4293652Y46498970D01*
X4444065Y46862099D01*
X4520745Y47247596D01*
X4520745Y47640644D01*
X4444065Y48026141D01*
X4293652Y48389270D01*
X4075286Y48716079D01*
X3797359Y48994006D01*
X3649024Y49093120D01*
X76401776Y49093120D01*
X76253441Y48994006D01*
X76253441Y48994006D01*
G37*
X76253441Y48994006D02*
X75975514Y48716079D01*
X75757148Y48389270D01*
X75606735Y48026141D01*
X75530055Y47640644D01*
X75530055Y47247596D01*
X75606735Y46862099D01*
X75757148Y46498970D01*
X75975514Y46172161D01*
X76253441Y45894234D01*
X76580250Y45675868D01*
X76943379Y45525455D01*
X77328876Y45448775D01*
X77721924Y45448775D01*
X78107421Y45525455D01*
X78470550Y45675868D01*
X78797359Y45894234D01*
X78892400Y45989275D01*
X78892400Y29312092D01*
X77745400Y29312092D01*
X77620918Y29299832D01*
X77501220Y29263522D01*
X77390906Y29204557D01*
X77294215Y29125205D01*
X77214863Y29028514D01*
X77155898Y28918200D01*
X77119588Y28798502D01*
X77107328Y28674020D01*
X77107328Y28414592D01*
X75345400Y28414592D01*
X75220918Y28402332D01*
X75101220Y28366022D01*
X74990906Y28307057D01*
X74894215Y28227705D01*
X74814863Y28131014D01*
X74755898Y28020700D01*
X74719588Y27901002D01*
X74707328Y27776520D01*
X74707328Y26301520D01*
X74717505Y26198186D01*
X74710400Y26133270D01*
X74742647Y26101023D01*
X74755898Y26057340D01*
X74784665Y26003522D01*
X74710400Y26003522D01*
X74710400Y25981733D01*
X68934700Y31757432D01*
X68934700Y32340129D01*
X68938619Y32379920D01*
X68922980Y32538708D01*
X68876663Y32691393D01*
X68801449Y32832109D01*
X68700228Y32955448D01*
X68576889Y33056669D01*
X68436173Y33131883D01*
X68283488Y33178200D01*
X68164491Y33189920D01*
X68138966Y33192434D01*
X67969008Y33399528D01*
X67750501Y33578852D01*
X67501208Y33712102D01*
X67230709Y33794156D01*
X67019892Y33814920D01*
X66878908Y33814920D01*
X66668091Y33794156D01*
X66397592Y33712102D01*
X66148299Y33578852D01*
X65929792Y33399528D01*
X65750468Y33181021D01*
X65702588Y33091444D01*
X62786662Y36007370D01*
X62799902Y36032140D01*
X62836212Y36151838D01*
X62848472Y36276320D01*
X62848472Y37876320D01*
X65492328Y37876320D01*
X65492328Y36276320D01*
X65504588Y36151838D01*
X65540898Y36032140D01*
X65599863Y35921826D01*
X65679215Y35825135D01*
X65775906Y35745783D01*
X65886220Y35686818D01*
X66005918Y35650508D01*
X66130400Y35638248D01*
X67730400Y35638248D01*
X67854882Y35650508D01*
X67974580Y35686818D01*
X68084894Y35745783D01*
X68181585Y35825135D01*
X68260937Y35921826D01*
X68319902Y36032140D01*
X68356212Y36151838D01*
X68368472Y36276320D01*
X68368472Y37876320D01*
X68356212Y38000802D01*
X68319902Y38120500D01*
X68260937Y38230814D01*
X68181585Y38327505D01*
X68084894Y38406857D01*
X67974580Y38465822D01*
X67854882Y38502132D01*
X67730400Y38514392D01*
X66130400Y38514392D01*
X66005918Y38502132D01*
X65886220Y38465822D01*
X65775906Y38406857D01*
X65679215Y38327505D01*
X65599863Y38230814D01*
X65540898Y38120500D01*
X65504588Y38000802D01*
X65492328Y37876320D01*
X62848472Y37876320D01*
X62836212Y38000802D01*
X62799902Y38120500D01*
X62740937Y38230814D01*
X62661585Y38327505D01*
X62564894Y38406857D01*
X62454580Y38465822D01*
X62334882Y38502132D01*
X62210400Y38514392D01*
X60610400Y38514392D01*
X60485918Y38502132D01*
X60366220Y38465822D01*
X60255906Y38406857D01*
X60159215Y38327505D01*
X60079863Y38230814D01*
X60020898Y38120500D01*
X59984588Y38000802D01*
X59972328Y37876320D01*
X59972328Y37843056D01*
X59956055Y37838120D01*
X56836035Y37838120D01*
X56766037Y37942879D01*
X56566159Y38142757D01*
X56331127Y38299800D01*
X56069974Y38407973D01*
X55792735Y38463120D01*
X55510065Y38463120D01*
X55232826Y38407973D01*
X54971673Y38299800D01*
X54736641Y38142757D01*
X54536763Y37942879D01*
X54466765Y37838120D01*
X50747029Y37838120D01*
X50575008Y38047728D01*
X50356501Y38227052D01*
X50107208Y38360302D01*
X49836709Y38442356D01*
X49625892Y38463120D01*
X49484908Y38463120D01*
X49431336Y38457844D01*
X54618365Y43644872D01*
X54631792Y43628512D01*
X54850299Y43449188D01*
X55099592Y43315938D01*
X55370091Y43233884D01*
X55580908Y43213120D01*
X55721892Y43213120D01*
X55932709Y43233884D01*
X56203208Y43315938D01*
X56452501Y43449188D01*
X56671008Y43628512D01*
X56684435Y43644873D01*
X61225805Y39103502D01*
X61251172Y39072592D01*
X61374511Y38971371D01*
X61515227Y38896157D01*
X61667912Y38849840D01*
X61786909Y38838120D01*
X61786912Y38838120D01*
X61826700Y38834201D01*
X61866488Y38838120D01*
X71738765Y38838120D01*
X71808763Y38733361D01*
X72008641Y38533483D01*
X72243673Y38376440D01*
X72504826Y38268267D01*
X72782065Y38213120D01*
X73064735Y38213120D01*
X73341974Y38268267D01*
X73603127Y38376440D01*
X73838159Y38533483D01*
X74038037Y38733361D01*
X74195080Y38968393D01*
X74303253Y39229546D01*
X74358400Y39506785D01*
X74358400Y39789455D01*
X74303253Y40066694D01*
X74195080Y40327847D01*
X74038037Y40562879D01*
X73838159Y40762757D01*
X73603127Y40919800D01*
X73341974Y41027973D01*
X73064735Y41083120D01*
X72782065Y41083120D01*
X72504826Y41027973D01*
X72243673Y40919800D01*
X72008641Y40762757D01*
X71808763Y40562879D01*
X71738765Y40458120D01*
X62162213Y40458120D01*
X58273053Y44347280D01*
X60018491Y44347280D01*
X60113330Y44082439D01*
X60258015Y43841189D01*
X60446986Y43632801D01*
X60672980Y43465283D01*
X60927313Y43345074D01*
X61061361Y43304416D01*
X61283400Y43426405D01*
X61283400Y44569320D01*
X61537400Y44569320D01*
X61537400Y43426405D01*
X61759439Y43304416D01*
X61893487Y43345074D01*
X62147820Y43465283D01*
X62373814Y43632801D01*
X62562785Y43841189D01*
X62707470Y44082439D01*
X62802309Y44347280D01*
X65538491Y44347280D01*
X65633330Y44082439D01*
X65778015Y43841189D01*
X65966986Y43632801D01*
X66192980Y43465283D01*
X66447313Y43345074D01*
X66581361Y43304416D01*
X66803400Y43426405D01*
X66803400Y44569320D01*
X67057400Y44569320D01*
X67057400Y43426405D01*
X67279439Y43304416D01*
X67413487Y43345074D01*
X67667820Y43465283D01*
X67893814Y43632801D01*
X67914323Y43655418D01*
X72110303Y43655418D01*
X72181886Y43411449D01*
X72437396Y43290549D01*
X72711584Y43221820D01*
X72993912Y43207903D01*
X73273530Y43249333D01*
X73539692Y43344517D01*
X73664914Y43411449D01*
X73736497Y43655418D01*
X72923400Y44468515D01*
X72110303Y43655418D01*
X67914323Y43655418D01*
X68082785Y43841189D01*
X68227470Y44082439D01*
X68322309Y44347280D01*
X68201024Y44569320D01*
X67057400Y44569320D01*
X66803400Y44569320D01*
X65659776Y44569320D01*
X65538491Y44347280D01*
X62802309Y44347280D01*
X62681024Y44569320D01*
X61537400Y44569320D01*
X61283400Y44569320D01*
X60139776Y44569320D01*
X60018491Y44347280D01*
X58273053Y44347280D01*
X58042725Y44577608D01*
X71483183Y44577608D01*
X71524613Y44297990D01*
X71619797Y44031828D01*
X71686729Y43906606D01*
X71930698Y43835023D01*
X72743795Y44648120D01*
X73103005Y44648120D01*
X73916102Y43835023D01*
X74160071Y43906606D01*
X74280971Y44162116D01*
X74349700Y44436304D01*
X74363617Y44718632D01*
X74322187Y44998250D01*
X74227003Y45264412D01*
X74160071Y45389634D01*
X73916102Y45461217D01*
X73103005Y44648120D01*
X72743795Y44648120D01*
X71930698Y45461217D01*
X71686729Y45389634D01*
X71565829Y45134124D01*
X71497100Y44859936D01*
X71483183Y44577608D01*
X58042725Y44577608D01*
X57574973Y45045360D01*
X60018491Y45045360D01*
X60139776Y44823320D01*
X61283400Y44823320D01*
X61283400Y45966235D01*
X61537400Y45966235D01*
X61537400Y44823320D01*
X62681024Y44823320D01*
X62802309Y45045360D01*
X65538491Y45045360D01*
X65659776Y44823320D01*
X66803400Y44823320D01*
X66803400Y45966235D01*
X67057400Y45966235D01*
X67057400Y44823320D01*
X68201024Y44823320D01*
X68322309Y45045360D01*
X68227470Y45310201D01*
X68082785Y45551451D01*
X68001742Y45640822D01*
X72110303Y45640822D01*
X72923400Y44827725D01*
X73736497Y45640822D01*
X73664914Y45884791D01*
X73409404Y46005691D01*
X73135216Y46074420D01*
X72852888Y46088337D01*
X72573270Y46046907D01*
X72307108Y45951723D01*
X72181886Y45884791D01*
X72110303Y45640822D01*
X68001742Y45640822D01*
X67893814Y45759839D01*
X67667820Y45927357D01*
X67413487Y46047566D01*
X67279439Y46088224D01*
X67057400Y45966235D01*
X66803400Y45966235D01*
X66581361Y46088224D01*
X66447313Y46047566D01*
X66192980Y45927357D01*
X65966986Y45759839D01*
X65778015Y45551451D01*
X65633330Y45310201D01*
X65538491Y45045360D01*
X62802309Y45045360D01*
X62707470Y45310201D01*
X62562785Y45551451D01*
X62373814Y45759839D01*
X62147820Y45927357D01*
X61893487Y46047566D01*
X61759439Y46088224D01*
X61537400Y45966235D01*
X61283400Y45966235D01*
X61061361Y46088224D01*
X60927313Y46047566D01*
X60672980Y45927357D01*
X60446986Y45759839D01*
X60258015Y45551451D01*
X60113330Y45310201D01*
X60018491Y45045360D01*
X57574973Y45045360D01*
X57427600Y45192732D01*
X57402228Y45223648D01*
X57278889Y45324869D01*
X57138173Y45400083D01*
X56985488Y45446400D01*
X56866491Y45458120D01*
X56866488Y45458120D01*
X56840966Y45460634D01*
X56671008Y45667728D01*
X56452501Y45847052D01*
X56203208Y45980302D01*
X55932709Y46062356D01*
X55721892Y46083120D01*
X55580908Y46083120D01*
X55370091Y46062356D01*
X55099592Y45980302D01*
X54850299Y45847052D01*
X54631792Y45667728D01*
X54461834Y45460634D01*
X54436312Y45458120D01*
X54436309Y45458120D01*
X54317312Y45446400D01*
X54200163Y45410863D01*
X54164626Y45400083D01*
X54114087Y45373069D01*
X54023911Y45324869D01*
X53900572Y45223648D01*
X53875205Y45192738D01*
X45997157Y37314689D01*
X45980636Y37482429D01*
X45898582Y37752928D01*
X45765332Y38002221D01*
X45586008Y38220728D01*
X45367501Y38400052D01*
X45234542Y38471120D01*
X45367501Y38542188D01*
X45586008Y38721512D01*
X45765332Y38940019D01*
X45898582Y39189312D01*
X45980636Y39459811D01*
X46008343Y39741120D01*
X45980636Y40022429D01*
X45898582Y40292928D01*
X45765332Y40542221D01*
X45586008Y40760728D01*
X45367501Y40940052D01*
X45234542Y41011120D01*
X45367501Y41082188D01*
X45586008Y41261512D01*
X45758029Y41471120D01*
X47148612Y41471120D01*
X47188400Y41467201D01*
X47228188Y41471120D01*
X47228191Y41471120D01*
X47347188Y41482840D01*
X47499873Y41529157D01*
X47640589Y41604371D01*
X47763928Y41705592D01*
X47789300Y41736507D01*
X49290493Y43237700D01*
X49414065Y43213120D01*
X49696735Y43213120D01*
X49973974Y43268267D01*
X50235127Y43376440D01*
X50470159Y43533483D01*
X50670037Y43733361D01*
X50827080Y43968393D01*
X50935253Y44229546D01*
X50990400Y44506785D01*
X50990400Y44789455D01*
X50935253Y45066694D01*
X50827080Y45327847D01*
X50670037Y45562879D01*
X50470159Y45762757D01*
X50235127Y45919800D01*
X49973974Y46027973D01*
X49696735Y46083120D01*
X49414065Y46083120D01*
X49136826Y46027973D01*
X48875673Y45919800D01*
X48640641Y45762757D01*
X48440763Y45562879D01*
X48283720Y45327847D01*
X48175547Y45066694D01*
X48120400Y44789455D01*
X48120400Y44506785D01*
X48144980Y44383213D01*
X46852888Y43091120D01*
X45758029Y43091120D01*
X45586008Y43300728D01*
X45367501Y43480052D01*
X45118208Y43613302D01*
X44847709Y43695356D01*
X44636892Y43716120D01*
X44495908Y43716120D01*
X44285091Y43695356D01*
X44014592Y43613302D01*
X43765299Y43480052D01*
X43546792Y43300728D01*
X43367468Y43082221D01*
X43234218Y42832928D01*
X43152164Y42562429D01*
X43124457Y42281120D01*
X43152164Y41999811D01*
X43234218Y41729312D01*
X43367468Y41480019D01*
X43546792Y41261512D01*
X43765299Y41082188D01*
X43898258Y41011120D01*
X43765299Y40940052D01*
X43546792Y40760728D01*
X43367468Y40542221D01*
X43234218Y40292928D01*
X43152164Y40022429D01*
X43124457Y39741120D01*
X43152164Y39459811D01*
X43234218Y39189312D01*
X43367468Y38940019D01*
X43546792Y38721512D01*
X43765299Y38542188D01*
X43898258Y38471120D01*
X43765299Y38400052D01*
X43546792Y38220728D01*
X43367468Y38002221D01*
X43234218Y37752928D01*
X43152164Y37482429D01*
X43124457Y37201120D01*
X43152164Y36919811D01*
X43234218Y36649312D01*
X43367468Y36400019D01*
X43394657Y36366890D01*
X37780631Y30752863D01*
X37747501Y30780052D01*
X37614542Y30851120D01*
X37747501Y30922188D01*
X37966008Y31101512D01*
X38145332Y31320019D01*
X38278582Y31569312D01*
X38360636Y31839811D01*
X38388343Y32121120D01*
X38360636Y32402429D01*
X38278582Y32672928D01*
X38145332Y32922221D01*
X37966008Y33140728D01*
X37747501Y33320052D01*
X37614542Y33391120D01*
X37747501Y33462188D01*
X37966008Y33641512D01*
X38145332Y33860019D01*
X38278582Y34109312D01*
X38360636Y34379811D01*
X38388343Y34661120D01*
X38360636Y34942429D01*
X38278582Y35212928D01*
X38145332Y35462221D01*
X37966008Y35680728D01*
X37747501Y35860052D01*
X37614542Y35931120D01*
X37747501Y36002188D01*
X37966008Y36181512D01*
X38145332Y36400019D01*
X38278582Y36649312D01*
X38360636Y36919811D01*
X38388343Y37201120D01*
X38360636Y37482429D01*
X38278582Y37752928D01*
X38145332Y38002221D01*
X37966008Y38220728D01*
X37747501Y38400052D01*
X37614542Y38471120D01*
X37747501Y38542188D01*
X37966008Y38721512D01*
X38145332Y38940019D01*
X38278582Y39189312D01*
X38360636Y39459811D01*
X38388343Y39741120D01*
X38360636Y40022429D01*
X38278582Y40292928D01*
X38145332Y40542221D01*
X37966008Y40760728D01*
X37747501Y40940052D01*
X37614542Y41011120D01*
X37747501Y41082188D01*
X37966008Y41261512D01*
X38145332Y41480019D01*
X38278582Y41729312D01*
X38360636Y41999811D01*
X38388343Y42281120D01*
X38360636Y42562429D01*
X38278582Y42832928D01*
X38145332Y43082221D01*
X37966008Y43300728D01*
X37747501Y43480052D01*
X37498208Y43613302D01*
X37227709Y43695356D01*
X37016892Y43716120D01*
X36875908Y43716120D01*
X36665091Y43695356D01*
X36394592Y43613302D01*
X36145299Y43480052D01*
X35926792Y43300728D01*
X35747468Y43082221D01*
X35614218Y42832928D01*
X35532164Y42562429D01*
X35504457Y42281120D01*
X35532164Y41999811D01*
X35614218Y41729312D01*
X35747468Y41480019D01*
X35926792Y41261512D01*
X36145299Y41082188D01*
X36278258Y41011120D01*
X36145299Y40940052D01*
X35926792Y40760728D01*
X35747468Y40542221D01*
X35614218Y40292928D01*
X35532164Y40022429D01*
X35504457Y39741120D01*
X35532164Y39459811D01*
X35614218Y39189312D01*
X35747468Y38940019D01*
X35926792Y38721512D01*
X36145299Y38542188D01*
X36278258Y38471120D01*
X36145299Y38400052D01*
X35926792Y38220728D01*
X35913365Y38204367D01*
X35308999Y38808733D01*
X35283628Y38839648D01*
X35160289Y38940869D01*
X35019573Y39016083D01*
X34866888Y39062400D01*
X34747891Y39074120D01*
X34747888Y39074120D01*
X34708100Y39078039D01*
X34668312Y39074120D01*
X12057688Y39074120D01*
X12017900Y39078039D01*
X11978112Y39074120D01*
X11978109Y39074120D01*
X11859112Y39062400D01*
X11706427Y39016083D01*
X11565711Y38940869D01*
X11442372Y38839648D01*
X11417005Y38808738D01*
X6002816Y33394548D01*
X5902982Y33424832D01*
X5778500Y33437092D01*
X4051300Y33437092D01*
X3926818Y33424832D01*
X3807120Y33388522D01*
X3696806Y33329557D01*
X3600115Y33250205D01*
X3520763Y33153514D01*
X3461798Y33043200D01*
X3425488Y32923502D01*
X3413228Y32799020D01*
X3413228Y31071820D01*
X3425488Y30947338D01*
X3461798Y30827640D01*
X3520763Y30717326D01*
X3600115Y30620635D01*
X3696806Y30541283D01*
X3807120Y30482318D01*
X3858165Y30466834D01*
X3850103Y30460217D01*
X3662831Y30232026D01*
X3523675Y29971684D01*
X3437984Y29689197D01*
X3409049Y29395420D01*
X3437984Y29101643D01*
X3523675Y28819156D01*
X3652294Y28578527D01*
X3069287Y27995519D01*
X3038372Y27970148D01*
X2978194Y27896820D01*
X2937151Y27846809D01*
X2903017Y27782947D01*
X2861937Y27706092D01*
X2815620Y27553407D01*
X2809723Y27493528D01*
X2799981Y27394620D01*
X2803900Y27354832D01*
X2803901Y23841718D01*
X2799981Y23801920D01*
X2814205Y23657510D01*
X2815621Y23643132D01*
X2846762Y23540476D01*
X2861938Y23490447D01*
X2937151Y23349731D01*
X2992752Y23281981D01*
X3038373Y23226392D01*
X3069283Y23201025D01*
X3661246Y22609061D01*
X3523675Y22351684D01*
X3437984Y22069197D01*
X3409049Y21775420D01*
X3437984Y21481643D01*
X3523675Y21199156D01*
X3662831Y20938814D01*
X3850103Y20710623D01*
X4078294Y20523351D01*
X4338636Y20384195D01*
X4621123Y20298504D01*
X4841281Y20276820D01*
X4988519Y20276820D01*
X5208677Y20298504D01*
X5491164Y20384195D01*
X5751506Y20523351D01*
X5979697Y20710623D01*
X6166969Y20938814D01*
X6188370Y20978853D01*
X6348046Y20765127D01*
X6566412Y20568603D01*
X6818922Y20418456D01*
X7095873Y20320457D01*
X7327900Y20440956D01*
X7327900Y21648420D01*
X7581900Y21648420D01*
X7581900Y20440956D01*
X7813927Y20320457D01*
X8090878Y20418456D01*
X8343388Y20568603D01*
X8561754Y20765127D01*
X8737584Y21000476D01*
X8864122Y21265606D01*
X8909858Y21416394D01*
X8788717Y21648420D01*
X7581900Y21648420D01*
X7327900Y21648420D01*
X7307900Y21648420D01*
X7307900Y21902420D01*
X7327900Y21902420D01*
X7327900Y24188420D01*
X7581900Y24188420D01*
X7581900Y21902420D01*
X8788717Y21902420D01*
X8909858Y22134446D01*
X8864122Y22285234D01*
X8737584Y22550364D01*
X8561754Y22785713D01*
X8343388Y22982237D01*
X8237130Y23045420D01*
X8343388Y23108603D01*
X8561754Y23305127D01*
X8737584Y23540476D01*
X8864122Y23805606D01*
X8909858Y23956394D01*
X8788717Y24188420D01*
X7581900Y24188420D01*
X7327900Y24188420D01*
X7307900Y24188420D01*
X7307900Y24442420D01*
X7327900Y24442420D01*
X7327900Y26728420D01*
X7581900Y26728420D01*
X7581900Y24442420D01*
X8788717Y24442420D01*
X8909858Y24674446D01*
X8864122Y24825234D01*
X8737584Y25090364D01*
X8561754Y25325713D01*
X8343388Y25522237D01*
X8237130Y25585420D01*
X8343388Y25648603D01*
X8561754Y25845127D01*
X8737584Y26080476D01*
X8864122Y26345606D01*
X8909858Y26496394D01*
X8788717Y26728420D01*
X7581900Y26728420D01*
X7327900Y26728420D01*
X7307900Y26728420D01*
X7307900Y26982420D01*
X7327900Y26982420D01*
X7327900Y27002420D01*
X7581900Y27002420D01*
X7581900Y26982420D01*
X8788717Y26982420D01*
X8909858Y27214446D01*
X8888634Y27284420D01*
X9800512Y27284420D01*
X9840300Y27280501D01*
X9880088Y27284420D01*
X9880091Y27284420D01*
X9999088Y27296140D01*
X10151773Y27342457D01*
X10292489Y27417671D01*
X10415828Y27518892D01*
X10441200Y27549808D01*
X16893813Y34002420D01*
X17379367Y34002420D01*
X17363189Y33963363D01*
X17304200Y33666804D01*
X17304200Y33364436D01*
X17363189Y33067877D01*
X17478901Y32788525D01*
X17646888Y32537115D01*
X17713327Y32470676D01*
X17695020Y32465122D01*
X17584706Y32406157D01*
X17488015Y32326805D01*
X17408663Y32230114D01*
X17349698Y32119800D01*
X17313388Y32000102D01*
X17301128Y31875620D01*
X17301128Y30075620D01*
X17313388Y29951138D01*
X17349698Y29831440D01*
X17408663Y29721126D01*
X17488015Y29624435D01*
X17584706Y29545083D01*
X17695020Y29486118D01*
X17814718Y29449808D01*
X17939200Y29437548D01*
X19739200Y29437548D01*
X19863682Y29449808D01*
X19983380Y29486118D01*
X20093694Y29545083D01*
X20190385Y29624435D01*
X20248887Y29695721D01*
X28528105Y21416502D01*
X28553472Y21385592D01*
X28621210Y21330001D01*
X28676810Y21284371D01*
X28737302Y21252038D01*
X28817527Y21209157D01*
X28970212Y21162840D01*
X29089209Y21151120D01*
X29089211Y21151120D01*
X29128999Y21147201D01*
X29168787Y21151120D01*
X35754771Y21151120D01*
X35926792Y20941512D01*
X36145299Y20762188D01*
X36278258Y20691120D01*
X36145299Y20620052D01*
X35926792Y20440728D01*
X35747468Y20222221D01*
X35614218Y19972928D01*
X35532164Y19702429D01*
X35504457Y19421120D01*
X35532164Y19139811D01*
X35614218Y18869312D01*
X35747468Y18620019D01*
X35926792Y18401512D01*
X36145299Y18222188D01*
X36278258Y18151120D01*
X36145299Y18080052D01*
X35926792Y17900728D01*
X35754771Y17691120D01*
X33604588Y17691120D01*
X33564800Y17695039D01*
X33525012Y17691120D01*
X33525009Y17691120D01*
X33406012Y17679400D01*
X33253327Y17633083D01*
X33187824Y17598071D01*
X33112610Y17557869D01*
X33048596Y17505334D01*
X32989272Y17456648D01*
X32963905Y17425738D01*
X32035550Y16497382D01*
X31999585Y16541205D01*
X31902894Y16620557D01*
X31792580Y16679522D01*
X31711934Y16703986D01*
X31795988Y16779751D01*
X31970041Y17013100D01*
X32095225Y17275921D01*
X32139876Y17423130D01*
X32018555Y17653020D01*
X30825400Y17653020D01*
X30825400Y17633020D01*
X30571400Y17633020D01*
X30571400Y17653020D01*
X29378245Y17653020D01*
X29256924Y17423130D01*
X29301575Y17275921D01*
X29426759Y17013100D01*
X29600812Y16779751D01*
X29684866Y16703986D01*
X29604220Y16679522D01*
X29493906Y16620557D01*
X29397215Y16541205D01*
X29317863Y16444514D01*
X29258898Y16334200D01*
X29222588Y16214502D01*
X29210328Y16090020D01*
X29210328Y14390020D01*
X29222588Y14265538D01*
X29258898Y14145840D01*
X29317863Y14035526D01*
X29397215Y13938835D01*
X29493906Y13859483D01*
X29604220Y13800518D01*
X29723918Y13764208D01*
X29848400Y13751948D01*
X31548400Y13751948D01*
X31672882Y13764208D01*
X31792580Y13800518D01*
X31902894Y13859483D01*
X31999585Y13938835D01*
X32078937Y14035526D01*
X32137902Y14145840D01*
X32174212Y14265538D01*
X32186472Y14390020D01*
X32186472Y14473284D01*
X32235173Y14488057D01*
X32375889Y14563271D01*
X32499228Y14664492D01*
X32524599Y14695407D01*
X33900313Y16071120D01*
X35754771Y16071120D01*
X35926792Y15861512D01*
X36145299Y15682188D01*
X36278258Y15611120D01*
X36145299Y15540052D01*
X35926792Y15360728D01*
X35747468Y15142221D01*
X35614218Y14892928D01*
X35532164Y14622429D01*
X35504457Y14341120D01*
X35532164Y14059811D01*
X35614218Y13789312D01*
X35747468Y13540019D01*
X35926792Y13321512D01*
X36145299Y13142188D01*
X36278258Y13071120D01*
X36145299Y13000052D01*
X35926792Y12820728D01*
X35747468Y12602221D01*
X35614218Y12352928D01*
X35532164Y12082429D01*
X35504457Y11801120D01*
X35532164Y11519811D01*
X35614218Y11249312D01*
X35747468Y11000019D01*
X35926792Y10781512D01*
X36145299Y10602188D01*
X36278258Y10531120D01*
X36145299Y10460052D01*
X35926792Y10280728D01*
X35747468Y10062221D01*
X35614218Y9812928D01*
X35532164Y9542429D01*
X35504457Y9261120D01*
X35532164Y8979811D01*
X35614218Y8709312D01*
X35747468Y8460019D01*
X35891004Y8285120D01*
X29919029Y8285120D01*
X29747008Y8494728D01*
X29528501Y8674052D01*
X29279208Y8807302D01*
X29008709Y8889356D01*
X28797892Y8910120D01*
X28656908Y8910120D01*
X28446091Y8889356D01*
X28175592Y8807302D01*
X27926299Y8674052D01*
X27707792Y8494728D01*
X27528468Y8276221D01*
X27469059Y8165074D01*
X24040500Y11593632D01*
X24040500Y13751948D01*
X24080500Y13751948D01*
X24204982Y13764208D01*
X24324680Y13800518D01*
X24434994Y13859483D01*
X24531685Y13938835D01*
X24611037Y14035526D01*
X24670002Y14145840D01*
X24706312Y14265538D01*
X24718572Y14390020D01*
X24718572Y16090020D01*
X24706312Y16214502D01*
X24670002Y16334200D01*
X24611037Y16444514D01*
X24531685Y16541205D01*
X24434994Y16620557D01*
X24324680Y16679522D01*
X24255813Y16700413D01*
X24285634Y16724886D01*
X24471206Y16951006D01*
X24609099Y17208986D01*
X24694013Y17488909D01*
X24722685Y17780020D01*
X24694013Y18071131D01*
X24674060Y18136910D01*
X29256924Y18136910D01*
X29378245Y17907020D01*
X30571400Y17907020D01*
X30571400Y19100834D01*
X30825400Y19100834D01*
X30825400Y17907020D01*
X32018555Y17907020D01*
X32139876Y18136910D01*
X32095225Y18284119D01*
X31970041Y18546940D01*
X31795988Y18780289D01*
X31579755Y18975198D01*
X31329652Y19124177D01*
X31055291Y19221501D01*
X30825400Y19100834D01*
X30571400Y19100834D01*
X30341509Y19221501D01*
X30067148Y19124177D01*
X29817045Y18975198D01*
X29600812Y18780289D01*
X29426759Y18546940D01*
X29301575Y18284119D01*
X29256924Y18136910D01*
X24674060Y18136910D01*
X24609099Y18351054D01*
X24471206Y18609034D01*
X24285634Y18835154D01*
X24059514Y19020726D01*
X23801534Y19158619D01*
X23521611Y19243533D01*
X23303450Y19265020D01*
X23157550Y19265020D01*
X22939389Y19243533D01*
X22659466Y19158619D01*
X22401486Y19020726D01*
X22175366Y18835154D01*
X21989794Y18609034D01*
X21851901Y18351054D01*
X21766987Y18071131D01*
X21738315Y17780020D01*
X21766987Y17488909D01*
X21851901Y17208986D01*
X21989794Y16951006D01*
X22175366Y16724886D01*
X22205187Y16700413D01*
X22136320Y16679522D01*
X22026006Y16620557D01*
X21929315Y16541205D01*
X21849963Y16444514D01*
X21790998Y16334200D01*
X21754688Y16214502D01*
X21742428Y16090020D01*
X21742428Y14390020D01*
X21754688Y14265538D01*
X21790998Y14145840D01*
X21849963Y14035526D01*
X21929315Y13938835D01*
X22026006Y13859483D01*
X22136320Y13800518D01*
X22256018Y13764208D01*
X22380500Y13751948D01*
X22420501Y13751948D01*
X22420500Y12068120D01*
X12350188Y12068120D01*
X12310400Y12072039D01*
X12270612Y12068120D01*
X12270609Y12068120D01*
X12151612Y12056400D01*
X11998927Y12010083D01*
X11933424Y11975071D01*
X11858210Y11934869D01*
X11827646Y11909786D01*
X11544433Y11966120D01*
X11222367Y11966120D01*
X10906488Y11903288D01*
X10608937Y11780038D01*
X10341148Y11601107D01*
X10113413Y11373372D01*
X9934482Y11105583D01*
X9811232Y10808032D01*
X9748400Y10492153D01*
X9748400Y10170087D01*
X9811232Y9854208D01*
X9934482Y9556657D01*
X10113413Y9288868D01*
X10341148Y9061133D01*
X10608937Y8882202D01*
X10906488Y8758952D01*
X11222367Y8696120D01*
X11544433Y8696120D01*
X11860312Y8758952D01*
X12157863Y8882202D01*
X12425652Y9061133D01*
X12653387Y9288868D01*
X12832318Y9556657D01*
X12955568Y9854208D01*
X13018400Y10170087D01*
X13018400Y10448120D01*
X22894988Y10448120D01*
X30354487Y2988620D01*
X28741813Y2988620D01*
X28639220Y3091213D01*
X28663800Y3214785D01*
X28663800Y3497455D01*
X28608653Y3774694D01*
X28500480Y4035847D01*
X28343437Y4270879D01*
X28143559Y4470757D01*
X27908527Y4627800D01*
X27647374Y4735973D01*
X27370135Y4791120D01*
X27087465Y4791120D01*
X26810226Y4735973D01*
X26549073Y4627800D01*
X26314041Y4470757D01*
X26114163Y4270879D01*
X25957120Y4035847D01*
X25848947Y3774694D01*
X25793800Y3497455D01*
X25793800Y3214785D01*
X25848947Y2937546D01*
X25957120Y2676393D01*
X26114163Y2441361D01*
X26314041Y2241483D01*
X26549073Y2084440D01*
X26810226Y1976267D01*
X27087465Y1921120D01*
X27370135Y1921120D01*
X27493707Y1945700D01*
X27805405Y1634002D01*
X27830772Y1603092D01*
X27954111Y1501871D01*
X28094827Y1426657D01*
X28124658Y1417608D01*
X4323967Y1572158D01*
X4444065Y1862099D01*
X4520745Y2247596D01*
X4520745Y2640644D01*
X4509793Y2695707D01*
X5927592Y2695707D01*
X6023356Y2431306D01*
X6312971Y2290416D01*
X6624508Y2208736D01*
X6945995Y2189402D01*
X7265075Y2233159D01*
X7569488Y2338325D01*
X7743444Y2431306D01*
X7839208Y2695707D01*
X6883400Y3651515D01*
X5927592Y2695707D01*
X4509793Y2695707D01*
X4444065Y3026141D01*
X4293652Y3389270D01*
X4075286Y3716079D01*
X4022840Y3768525D01*
X5241682Y3768525D01*
X5285439Y3449445D01*
X5390605Y3145032D01*
X5483586Y2971076D01*
X5747987Y2875312D01*
X6703795Y3831120D01*
X7063005Y3831120D01*
X8018813Y2875312D01*
X8283214Y2971076D01*
X8424104Y3260691D01*
X8505784Y3572228D01*
X8525118Y3893715D01*
X8511619Y3992153D01*
X9748400Y3992153D01*
X9748400Y3670087D01*
X9811232Y3354208D01*
X9934482Y3056657D01*
X10113413Y2788868D01*
X10341148Y2561133D01*
X10608937Y2382202D01*
X10906488Y2258952D01*
X11222367Y2196120D01*
X11544433Y2196120D01*
X11860312Y2258952D01*
X12157863Y2382202D01*
X12425652Y2561133D01*
X12653387Y2788868D01*
X12832318Y3056657D01*
X12955568Y3354208D01*
X13018400Y3670087D01*
X13018400Y3992153D01*
X12955568Y4308032D01*
X12832318Y4605583D01*
X12688301Y4821120D01*
X15729015Y4821120D01*
X15757687Y4530009D01*
X15842601Y4250086D01*
X15980494Y3992106D01*
X16166066Y3765986D01*
X16392186Y3580414D01*
X16650166Y3442521D01*
X16930089Y3357607D01*
X17148250Y3336120D01*
X17294150Y3336120D01*
X17512311Y3357607D01*
X17792234Y3442521D01*
X18050214Y3580414D01*
X18276334Y3765986D01*
X18461906Y3992106D01*
X18599799Y4250086D01*
X18684713Y4530009D01*
X18713385Y4821120D01*
X18684713Y5112231D01*
X18599799Y5392154D01*
X18461906Y5650134D01*
X18276334Y5876254D01*
X18246513Y5900727D01*
X18315380Y5921618D01*
X18425694Y5980583D01*
X18522385Y6059935D01*
X18601737Y6156626D01*
X18660702Y6266940D01*
X18697012Y6386638D01*
X18709272Y6511120D01*
X18709272Y6594384D01*
X18757973Y6609157D01*
X18862673Y6665120D01*
X19922765Y6665120D01*
X19992763Y6560361D01*
X20192641Y6360483D01*
X20427673Y6203440D01*
X20688826Y6095267D01*
X20966065Y6040120D01*
X21248735Y6040120D01*
X21525974Y6095267D01*
X21787127Y6203440D01*
X22022159Y6360483D01*
X22222037Y6560361D01*
X22379080Y6795393D01*
X22487253Y7056546D01*
X22542400Y7333785D01*
X22542400Y7616455D01*
X22487253Y7893694D01*
X22379080Y8154847D01*
X22222037Y8389879D01*
X22022159Y8589757D01*
X21787127Y8746800D01*
X21525974Y8854973D01*
X21248735Y8910120D01*
X20966065Y8910120D01*
X20688826Y8854973D01*
X20427673Y8746800D01*
X20192641Y8589757D01*
X19992763Y8389879D01*
X19922765Y8285120D01*
X18701984Y8285120D01*
X18697012Y8335602D01*
X18660702Y8455300D01*
X18601737Y8565614D01*
X18522385Y8662305D01*
X18425694Y8741657D01*
X18315380Y8800622D01*
X18195682Y8836932D01*
X18071200Y8849192D01*
X16371200Y8849192D01*
X16246718Y8836932D01*
X16127020Y8800622D01*
X16016706Y8741657D01*
X15920015Y8662305D01*
X15840663Y8565614D01*
X15781698Y8455300D01*
X15745388Y8335602D01*
X15733128Y8211120D01*
X15733128Y6511120D01*
X15745388Y6386638D01*
X15781698Y6266940D01*
X15840663Y6156626D01*
X15920015Y6059935D01*
X16016706Y5980583D01*
X16127020Y5921618D01*
X16195887Y5900727D01*
X16166066Y5876254D01*
X15980494Y5650134D01*
X15842601Y5392154D01*
X15757687Y5112231D01*
X15729015Y4821120D01*
X12688301Y4821120D01*
X12653387Y4873372D01*
X12425652Y5101107D01*
X12157863Y5280038D01*
X11860312Y5403288D01*
X11544433Y5466120D01*
X11222367Y5466120D01*
X10906488Y5403288D01*
X10608937Y5280038D01*
X10341148Y5101107D01*
X10113413Y4873372D01*
X9934482Y4605583D01*
X9811232Y4308032D01*
X9748400Y3992153D01*
X8511619Y3992153D01*
X8481361Y4212795D01*
X8376195Y4517208D01*
X8283214Y4691164D01*
X8018813Y4786928D01*
X7063005Y3831120D01*
X6703795Y3831120D01*
X5747987Y4786928D01*
X5483586Y4691164D01*
X5342696Y4401549D01*
X5261016Y4090012D01*
X5241682Y3768525D01*
X4022840Y3768525D01*
X3797359Y3994006D01*
X3470550Y4212372D01*
X3107421Y4362785D01*
X2721924Y4439465D01*
X2328876Y4439465D01*
X1943379Y4362785D01*
X1580250Y4212372D01*
X1253441Y3994006D01*
X975514Y3716079D01*
X914400Y3624615D01*
X914400Y4966533D01*
X5927592Y4966533D01*
X6883400Y4010725D01*
X7839208Y4966533D01*
X7743444Y5230934D01*
X7453829Y5371824D01*
X7142292Y5453504D01*
X6820805Y5472838D01*
X6501725Y5429081D01*
X6197312Y5323915D01*
X6023356Y5230934D01*
X5927592Y4966533D01*
X914400Y4966533D01*
X914400Y9195707D01*
X5927592Y9195707D01*
X6023356Y8931306D01*
X6312971Y8790416D01*
X6624508Y8708736D01*
X6945995Y8689402D01*
X7265075Y8733159D01*
X7569488Y8838325D01*
X7743444Y8931306D01*
X7839208Y9195707D01*
X6883400Y10151515D01*
X5927592Y9195707D01*
X914400Y9195707D01*
X914400Y10268525D01*
X5241682Y10268525D01*
X5285439Y9949445D01*
X5390605Y9645032D01*
X5483586Y9471076D01*
X5747987Y9375312D01*
X6703795Y10331120D01*
X7063005Y10331120D01*
X8018813Y9375312D01*
X8283214Y9471076D01*
X8424104Y9760691D01*
X8505784Y10072228D01*
X8525118Y10393715D01*
X8481361Y10712795D01*
X8376195Y11017208D01*
X8283214Y11191164D01*
X8018813Y11286928D01*
X7063005Y10331120D01*
X6703795Y10331120D01*
X5747987Y11286928D01*
X5483586Y11191164D01*
X5342696Y10901549D01*
X5261016Y10590012D01*
X5241682Y10268525D01*
X914400Y10268525D01*
X914400Y11466533D01*
X5927592Y11466533D01*
X6883400Y10510725D01*
X7839208Y11466533D01*
X7743444Y11730934D01*
X7453829Y11871824D01*
X7142292Y11953504D01*
X6820805Y11972838D01*
X6501725Y11929081D01*
X6197312Y11823915D01*
X6023356Y11730934D01*
X5927592Y11466533D01*
X914400Y11466533D01*
X914400Y15250020D01*
X14270315Y15250020D01*
X14298987Y14958909D01*
X14383901Y14678986D01*
X14521794Y14421006D01*
X14707366Y14194886D01*
X14933486Y14009314D01*
X15191466Y13871421D01*
X15471389Y13786507D01*
X15689550Y13765020D01*
X15835450Y13765020D01*
X16053611Y13786507D01*
X16333534Y13871421D01*
X16591514Y14009314D01*
X16817634Y14194886D01*
X17003206Y14421006D01*
X17141099Y14678986D01*
X17226013Y14958909D01*
X17254685Y15250020D01*
X17226013Y15541131D01*
X17141099Y15821054D01*
X17003206Y16079034D01*
X16817634Y16305154D01*
X16787813Y16329627D01*
X16856680Y16350518D01*
X16966994Y16409483D01*
X17063685Y16488835D01*
X17143037Y16585526D01*
X17202002Y16695840D01*
X17238312Y16815538D01*
X17250572Y16940020D01*
X17250572Y18640020D01*
X17238312Y18764502D01*
X17202002Y18884200D01*
X17143037Y18994514D01*
X17063685Y19091205D01*
X16966994Y19170557D01*
X16856680Y19229522D01*
X16736982Y19265832D01*
X16612500Y19278092D01*
X14912500Y19278092D01*
X14788018Y19265832D01*
X14668320Y19229522D01*
X14558006Y19170557D01*
X14461315Y19091205D01*
X14381963Y18994514D01*
X14322998Y18884200D01*
X14286688Y18764502D01*
X14274428Y18640020D01*
X14274428Y16940020D01*
X14286688Y16815538D01*
X14322998Y16695840D01*
X14381963Y16585526D01*
X14461315Y16488835D01*
X14558006Y16409483D01*
X14668320Y16350518D01*
X14737187Y16329627D01*
X14707366Y16305154D01*
X14521794Y16079034D01*
X14383901Y15821054D01*
X14298987Y15541131D01*
X14270315Y15250020D01*
X914400Y15250020D01*
X914400Y44837655D01*
X17404200Y44837655D01*
X17404200Y44554985D01*
X17459347Y44277746D01*
X17567520Y44016593D01*
X17724563Y43781561D01*
X17924441Y43581683D01*
X18159473Y43424640D01*
X18420626Y43316467D01*
X18697865Y43261320D01*
X18980535Y43261320D01*
X19257774Y43316467D01*
X19518927Y43424640D01*
X19753959Y43581683D01*
X19953837Y43781561D01*
X20023835Y43886320D01*
X24782565Y43886320D01*
X24852563Y43781561D01*
X25052441Y43581683D01*
X25287473Y43424640D01*
X25548626Y43316467D01*
X25825865Y43261320D01*
X26108535Y43261320D01*
X26385774Y43316467D01*
X26646927Y43424640D01*
X26881959Y43581683D01*
X27081837Y43781561D01*
X27238880Y44016593D01*
X27347053Y44277746D01*
X27402200Y44554985D01*
X27402200Y44837655D01*
X27347053Y45114894D01*
X27238880Y45376047D01*
X27081837Y45611079D01*
X26881959Y45810957D01*
X26646927Y45968000D01*
X26385774Y46076173D01*
X26108535Y46131320D01*
X25825865Y46131320D01*
X25548626Y46076173D01*
X25287473Y45968000D01*
X25052441Y45810957D01*
X24852563Y45611079D01*
X24782565Y45506320D01*
X20023835Y45506320D01*
X19953837Y45611079D01*
X19753959Y45810957D01*
X19518927Y45968000D01*
X19257774Y46076173D01*
X18980535Y46131320D01*
X18697865Y46131320D01*
X18420626Y46076173D01*
X18159473Y45968000D01*
X17924441Y45810957D01*
X17724563Y45611079D01*
X17567520Y45376047D01*
X17459347Y45114894D01*
X17404200Y44837655D01*
X914400Y44837655D01*
X914400Y46263625D01*
X975514Y46172161D01*
X1253441Y45894234D01*
X1580250Y45675868D01*
X1943379Y45525455D01*
X2328876Y45448775D01*
X2721924Y45448775D01*
X3107421Y45525455D01*
X3470550Y45675868D01*
X3797359Y45894234D01*
X4075286Y46172161D01*
X4293652Y46498970D01*
X4444065Y46862099D01*
X4520745Y47247596D01*
X4520745Y47640644D01*
X4444065Y48026141D01*
X4293652Y48389270D01*
X4075286Y48716079D01*
X3797359Y48994006D01*
X3649024Y49093120D01*
X76401776Y49093120D01*
X76253441Y48994006D01*
G36*
X46325100Y20788907D02*
G01*
X46325101Y3941634D01*
X45372088Y2988620D01*
X45299676Y2988620D01*
X45338700Y3144304D01*
X45352617Y3426632D01*
X45311187Y3706250D01*
X45216003Y3972412D01*
X45149071Y4097634D01*
X44905102Y4169217D01*
X44092005Y3356120D01*
X44106148Y3341977D01*
X43926543Y3162372D01*
X43912400Y3176515D01*
X43898258Y3162372D01*
X43718653Y3341977D01*
X43732795Y3356120D01*
X42919698Y4169217D01*
X42675729Y4097634D01*
X42554829Y3842124D01*
X42486100Y3567936D01*
X42472183Y3285608D01*
X42513613Y3005990D01*
X42519825Y2988620D01*
X40302412Y2988620D01*
X40347400Y3214785D01*
X40347400Y3497455D01*
X40292253Y3774694D01*
X40184080Y4035847D01*
X40027037Y4270879D01*
X39949094Y4348822D01*
X43099303Y4348822D01*
X43912400Y3535725D01*
X44725497Y4348822D01*
X44653914Y4592791D01*
X44398404Y4713691D01*
X44124216Y4782420D01*
X43841888Y4796337D01*
X43562270Y4754907D01*
X43296108Y4659723D01*
X43170886Y4592791D01*
X43099303Y4348822D01*
X39949094Y4348822D01*
X39827159Y4470757D01*
X39592127Y4627800D01*
X39330974Y4735973D01*
X39053735Y4791120D01*
X38771065Y4791120D01*
X38493826Y4735973D01*
X38232673Y4627800D01*
X37997641Y4470757D01*
X37797763Y4270879D01*
X37727765Y4166120D01*
X36040429Y4166120D01*
X35868408Y4375728D01*
X35649901Y4555052D01*
X35400608Y4688302D01*
X35130109Y4770356D01*
X34919292Y4791120D01*
X34778308Y4791120D01*
X34567491Y4770356D01*
X34296992Y4688302D01*
X34047699Y4555052D01*
X33829192Y4375728D01*
X33657171Y4166120D01*
X31468013Y4166120D01*
X29417354Y6216779D01*
X29528501Y6276188D01*
X29747008Y6455512D01*
X29919029Y6665120D01*
X36852612Y6665120D01*
X36892400Y6661201D01*
X36932188Y6665120D01*
X36932191Y6665120D01*
X37051188Y6676840D01*
X37203873Y6723157D01*
X37344589Y6798371D01*
X37467928Y6899592D01*
X37493300Y6930508D01*
X43732170Y13169377D01*
X43765299Y13142188D01*
X43898258Y13071120D01*
X43765299Y13000052D01*
X43546792Y12820728D01*
X43367468Y12602221D01*
X43234218Y12352928D01*
X43152164Y12082429D01*
X43124457Y11801120D01*
X43152164Y11519811D01*
X43234218Y11249312D01*
X43367468Y11000019D01*
X43546792Y10781512D01*
X43659882Y10688701D01*
X43641918Y10686932D01*
X43522220Y10650622D01*
X43411906Y10591657D01*
X43315215Y10512305D01*
X43235863Y10415614D01*
X43176898Y10305300D01*
X43140588Y10185602D01*
X43128328Y10061120D01*
X43128328Y8461120D01*
X43140588Y8336638D01*
X43176898Y8216940D01*
X43235863Y8106626D01*
X43315215Y8009935D01*
X43411906Y7930583D01*
X43522220Y7871618D01*
X43641918Y7835308D01*
X43766400Y7823048D01*
X45366400Y7823048D01*
X45490882Y7835308D01*
X45610580Y7871618D01*
X45720894Y7930583D01*
X45817585Y8009935D01*
X45896937Y8106626D01*
X45955902Y8216940D01*
X45992212Y8336638D01*
X46004472Y8461120D01*
X46004472Y10061120D01*
X45992212Y10185602D01*
X45955902Y10305300D01*
X45896937Y10415614D01*
X45817585Y10512305D01*
X45720894Y10591657D01*
X45610580Y10650622D01*
X45490882Y10686932D01*
X45472918Y10688701D01*
X45586008Y10781512D01*
X45765332Y11000019D01*
X45898582Y11249312D01*
X45980636Y11519811D01*
X46008343Y11801120D01*
X45980636Y12082429D01*
X45898582Y12352928D01*
X45765332Y12602221D01*
X45586008Y12820728D01*
X45367501Y13000052D01*
X45234542Y13071120D01*
X45367501Y13142188D01*
X45586008Y13321512D01*
X45765332Y13540019D01*
X45898582Y13789312D01*
X45980636Y14059811D01*
X46008343Y14341120D01*
X45980636Y14622429D01*
X45898582Y14892928D01*
X45765332Y15142221D01*
X45586008Y15360728D01*
X45367501Y15540052D01*
X45234542Y15611120D01*
X45367501Y15682188D01*
X45586008Y15861512D01*
X45765332Y16080019D01*
X45898582Y16329312D01*
X45980636Y16599811D01*
X46008343Y16881120D01*
X45980636Y17162429D01*
X45898582Y17432928D01*
X45765332Y17682221D01*
X45586008Y17900728D01*
X45367501Y18080052D01*
X45234542Y18151120D01*
X45367501Y18222188D01*
X45586008Y18401512D01*
X45765332Y18620019D01*
X45898582Y18869312D01*
X45980636Y19139811D01*
X46008343Y19421120D01*
X45980636Y19702429D01*
X45898582Y19972928D01*
X45765332Y20222221D01*
X45586008Y20440728D01*
X45367501Y20620052D01*
X45234542Y20691120D01*
X45367501Y20762188D01*
X45586008Y20941512D01*
X45765332Y21160019D01*
X45831046Y21282961D01*
X46325100Y20788907D01*
X46325100Y20788907D01*
G37*
X46325100Y20788907D02*
X46325101Y3941634D01*
X45372088Y2988620D01*
X45299676Y2988620D01*
X45338700Y3144304D01*
X45352617Y3426632D01*
X45311187Y3706250D01*
X45216003Y3972412D01*
X45149071Y4097634D01*
X44905102Y4169217D01*
X44092005Y3356120D01*
X44106148Y3341977D01*
X43926543Y3162372D01*
X43912400Y3176515D01*
X43898258Y3162372D01*
X43718653Y3341977D01*
X43732795Y3356120D01*
X42919698Y4169217D01*
X42675729Y4097634D01*
X42554829Y3842124D01*
X42486100Y3567936D01*
X42472183Y3285608D01*
X42513613Y3005990D01*
X42519825Y2988620D01*
X40302412Y2988620D01*
X40347400Y3214785D01*
X40347400Y3497455D01*
X40292253Y3774694D01*
X40184080Y4035847D01*
X40027037Y4270879D01*
X39949094Y4348822D01*
X43099303Y4348822D01*
X43912400Y3535725D01*
X44725497Y4348822D01*
X44653914Y4592791D01*
X44398404Y4713691D01*
X44124216Y4782420D01*
X43841888Y4796337D01*
X43562270Y4754907D01*
X43296108Y4659723D01*
X43170886Y4592791D01*
X43099303Y4348822D01*
X39949094Y4348822D01*
X39827159Y4470757D01*
X39592127Y4627800D01*
X39330974Y4735973D01*
X39053735Y4791120D01*
X38771065Y4791120D01*
X38493826Y4735973D01*
X38232673Y4627800D01*
X37997641Y4470757D01*
X37797763Y4270879D01*
X37727765Y4166120D01*
X36040429Y4166120D01*
X35868408Y4375728D01*
X35649901Y4555052D01*
X35400608Y4688302D01*
X35130109Y4770356D01*
X34919292Y4791120D01*
X34778308Y4791120D01*
X34567491Y4770356D01*
X34296992Y4688302D01*
X34047699Y4555052D01*
X33829192Y4375728D01*
X33657171Y4166120D01*
X31468013Y4166120D01*
X29417354Y6216779D01*
X29528501Y6276188D01*
X29747008Y6455512D01*
X29919029Y6665120D01*
X36852612Y6665120D01*
X36892400Y6661201D01*
X36932188Y6665120D01*
X36932191Y6665120D01*
X37051188Y6676840D01*
X37203873Y6723157D01*
X37344589Y6798371D01*
X37467928Y6899592D01*
X37493300Y6930508D01*
X43732170Y13169377D01*
X43765299Y13142188D01*
X43898258Y13071120D01*
X43765299Y13000052D01*
X43546792Y12820728D01*
X43367468Y12602221D01*
X43234218Y12352928D01*
X43152164Y12082429D01*
X43124457Y11801120D01*
X43152164Y11519811D01*
X43234218Y11249312D01*
X43367468Y11000019D01*
X43546792Y10781512D01*
X43659882Y10688701D01*
X43641918Y10686932D01*
X43522220Y10650622D01*
X43411906Y10591657D01*
X43315215Y10512305D01*
X43235863Y10415614D01*
X43176898Y10305300D01*
X43140588Y10185602D01*
X43128328Y10061120D01*
X43128328Y8461120D01*
X43140588Y8336638D01*
X43176898Y8216940D01*
X43235863Y8106626D01*
X43315215Y8009935D01*
X43411906Y7930583D01*
X43522220Y7871618D01*
X43641918Y7835308D01*
X43766400Y7823048D01*
X45366400Y7823048D01*
X45490882Y7835308D01*
X45610580Y7871618D01*
X45720894Y7930583D01*
X45817585Y8009935D01*
X45896937Y8106626D01*
X45955902Y8216940D01*
X45992212Y8336638D01*
X46004472Y8461120D01*
X46004472Y10061120D01*
X45992212Y10185602D01*
X45955902Y10305300D01*
X45896937Y10415614D01*
X45817585Y10512305D01*
X45720894Y10591657D01*
X45610580Y10650622D01*
X45490882Y10686932D01*
X45472918Y10688701D01*
X45586008Y10781512D01*
X45765332Y11000019D01*
X45898582Y11249312D01*
X45980636Y11519811D01*
X46008343Y11801120D01*
X45980636Y12082429D01*
X45898582Y12352928D01*
X45765332Y12602221D01*
X45586008Y12820728D01*
X45367501Y13000052D01*
X45234542Y13071120D01*
X45367501Y13142188D01*
X45586008Y13321512D01*
X45765332Y13540019D01*
X45898582Y13789312D01*
X45980636Y14059811D01*
X46008343Y14341120D01*
X45980636Y14622429D01*
X45898582Y14892928D01*
X45765332Y15142221D01*
X45586008Y15360728D01*
X45367501Y15540052D01*
X45234542Y15611120D01*
X45367501Y15682188D01*
X45586008Y15861512D01*
X45765332Y16080019D01*
X45898582Y16329312D01*
X45980636Y16599811D01*
X46008343Y16881120D01*
X45980636Y17162429D01*
X45898582Y17432928D01*
X45765332Y17682221D01*
X45586008Y17900728D01*
X45367501Y18080052D01*
X45234542Y18151120D01*
X45367501Y18222188D01*
X45586008Y18401512D01*
X45765332Y18620019D01*
X45898582Y18869312D01*
X45980636Y19139811D01*
X46008343Y19421120D01*
X45980636Y19702429D01*
X45898582Y19972928D01*
X45765332Y20222221D01*
X45586008Y20440728D01*
X45367501Y20620052D01*
X45234542Y20691120D01*
X45367501Y20762188D01*
X45586008Y20941512D01*
X45765332Y21160019D01*
X45831046Y21282961D01*
X46325100Y20788907D01*
G36*
X48113457Y37028120D02*
G01*
X48141164Y36746811D01*
X48223218Y36476312D01*
X48356468Y36227019D01*
X48535792Y36008512D01*
X48754299Y35829188D01*
X49003592Y35695938D01*
X49274091Y35613884D01*
X49484908Y35593120D01*
X49625892Y35593120D01*
X49836709Y35613884D01*
X50107208Y35695938D01*
X50356501Y35829188D01*
X50575008Y36008512D01*
X50747029Y36218120D01*
X54466765Y36218120D01*
X54536763Y36113361D01*
X54736641Y35913483D01*
X54971673Y35756440D01*
X55232826Y35648267D01*
X55510065Y35593120D01*
X55792735Y35593120D01*
X56069974Y35648267D01*
X56331127Y35756440D01*
X56566159Y35913483D01*
X56766037Y36113361D01*
X56836035Y36218120D01*
X59978060Y36218120D01*
X59984588Y36151838D01*
X60020898Y36032140D01*
X60079863Y35921826D01*
X60159215Y35825135D01*
X60255906Y35745783D01*
X60366220Y35686818D01*
X60485918Y35650508D01*
X60610400Y35638248D01*
X60864760Y35638248D01*
X73121105Y23381902D01*
X73146472Y23350992D01*
X73216768Y23293302D01*
X73269811Y23249771D01*
X73410526Y23174557D01*
X73563212Y23128240D01*
X73722000Y23112601D01*
X73761791Y23116520D01*
X74160101Y23116520D01*
X74160100Y16169332D01*
X64804951Y6814183D01*
X64787071Y6847634D01*
X64543102Y6919217D01*
X63730005Y6106120D01*
X63744148Y6091977D01*
X63564543Y5912372D01*
X63550400Y5926515D01*
X63008113Y5384228D01*
X62974872Y5356948D01*
X62947592Y5323707D01*
X62737303Y5113418D01*
X62757615Y5044192D01*
X62750400Y5044192D01*
X62625918Y5031932D01*
X62506220Y4995622D01*
X62395906Y4936657D01*
X62299215Y4857305D01*
X62219863Y4760614D01*
X62160898Y4650300D01*
X62124588Y4530602D01*
X62112328Y4406120D01*
X62112328Y4372856D01*
X62063627Y4358083D01*
X62046301Y4348822D01*
X61922910Y4282869D01*
X61867310Y4237239D01*
X61799572Y4181648D01*
X61774205Y4150738D01*
X60864288Y3240820D01*
X57319158Y3240820D01*
X57344636Y3324811D01*
X57372343Y3606120D01*
X57344636Y3887429D01*
X57262582Y4157928D01*
X57129332Y4407221D01*
X56950008Y4625728D01*
X56731501Y4805052D01*
X56482208Y4938302D01*
X56211709Y5020356D01*
X56000892Y5041120D01*
X55859908Y5041120D01*
X55649091Y5020356D01*
X55378592Y4938302D01*
X55129299Y4805052D01*
X54910792Y4625728D01*
X54731468Y4407221D01*
X54598218Y4157928D01*
X54516164Y3887429D01*
X54488457Y3606120D01*
X54516164Y3324811D01*
X54541642Y3240820D01*
X50996513Y3240820D01*
X50086599Y4150733D01*
X50061228Y4181648D01*
X49937889Y4282869D01*
X49797173Y4358083D01*
X49748472Y4372856D01*
X49748472Y4406120D01*
X49736212Y4530602D01*
X49699902Y4650300D01*
X49640937Y4760614D01*
X49561585Y4857305D01*
X49464894Y4936657D01*
X49354580Y4995622D01*
X49234882Y5031932D01*
X49110400Y5044192D01*
X47945100Y5044192D01*
X47945100Y6035608D01*
X62110183Y6035608D01*
X62151613Y5755990D01*
X62246797Y5489828D01*
X62313729Y5364606D01*
X62557698Y5293023D01*
X63370795Y6106120D01*
X62557698Y6919217D01*
X62313729Y6847634D01*
X62192829Y6592124D01*
X62124100Y6317936D01*
X62110183Y6035608D01*
X47945100Y6035608D01*
X47945100Y7098822D01*
X62737303Y7098822D01*
X63550400Y6285725D01*
X64363497Y7098822D01*
X64291914Y7342791D01*
X64036404Y7463691D01*
X63762216Y7532420D01*
X63479888Y7546337D01*
X63200270Y7504907D01*
X62934108Y7409723D01*
X62808886Y7342791D01*
X62737303Y7098822D01*
X47945100Y7098822D01*
X47945100Y19404831D01*
X50500400Y19404831D01*
X50500400Y19132009D01*
X50553625Y18864431D01*
X50658029Y18612377D01*
X50809601Y18385534D01*
X51002514Y18192621D01*
X51229357Y18041049D01*
X51481411Y17936645D01*
X51748989Y17883420D01*
X52021811Y17883420D01*
X52105095Y17899986D01*
X52159910Y17855001D01*
X52215510Y17809371D01*
X52221082Y17806393D01*
X52356227Y17734157D01*
X52508912Y17687840D01*
X52627909Y17676120D01*
X52627911Y17676120D01*
X52667699Y17672201D01*
X52707487Y17676120D01*
X56349765Y17676120D01*
X56419763Y17571361D01*
X56619641Y17371483D01*
X56854673Y17214440D01*
X57115826Y17106267D01*
X57393065Y17051120D01*
X57675735Y17051120D01*
X57952974Y17106267D01*
X58214127Y17214440D01*
X58449159Y17371483D01*
X58571094Y17493418D01*
X61721303Y17493418D01*
X61792886Y17249449D01*
X62048396Y17128549D01*
X62322584Y17059820D01*
X62604912Y17045903D01*
X62884530Y17087333D01*
X63150692Y17182517D01*
X63275914Y17249449D01*
X63347497Y17493418D01*
X62534400Y18306515D01*
X61721303Y17493418D01*
X58571094Y17493418D01*
X58649037Y17571361D01*
X58806080Y17806393D01*
X58914253Y18067546D01*
X58969400Y18344785D01*
X58969400Y18415608D01*
X61094183Y18415608D01*
X61135613Y18135990D01*
X61230797Y17869828D01*
X61297729Y17744606D01*
X61541698Y17673023D01*
X62354795Y18486120D01*
X62714005Y18486120D01*
X63527102Y17673023D01*
X63771071Y17744606D01*
X63891971Y18000116D01*
X63960700Y18274304D01*
X63974617Y18556632D01*
X63933187Y18836250D01*
X63838003Y19102412D01*
X63771071Y19227634D01*
X63527102Y19299217D01*
X62714005Y18486120D01*
X62354795Y18486120D01*
X61541698Y19299217D01*
X61297729Y19227634D01*
X61176829Y18972124D01*
X61108100Y18697936D01*
X61094183Y18415608D01*
X58969400Y18415608D01*
X58969400Y18627455D01*
X58914253Y18904694D01*
X58806080Y19165847D01*
X58649037Y19400879D01*
X58571094Y19478822D01*
X61721303Y19478822D01*
X62534400Y18665725D01*
X63347497Y19478822D01*
X63275914Y19722791D01*
X63020404Y19843691D01*
X62746216Y19912420D01*
X62463888Y19926337D01*
X62184270Y19884907D01*
X61918108Y19789723D01*
X61792886Y19722791D01*
X61721303Y19478822D01*
X58571094Y19478822D01*
X58449159Y19600757D01*
X58214127Y19757800D01*
X57952974Y19865973D01*
X57675735Y19921120D01*
X57393065Y19921120D01*
X57115826Y19865973D01*
X56854673Y19757800D01*
X56619641Y19600757D01*
X56419763Y19400879D01*
X56349765Y19296120D01*
X53270400Y19296120D01*
X53270400Y19404831D01*
X53217175Y19672409D01*
X53112771Y19924463D01*
X52961199Y20151306D01*
X52768286Y20344219D01*
X52541443Y20495791D01*
X52289389Y20600195D01*
X52021811Y20653420D01*
X51748989Y20653420D01*
X51481411Y20600195D01*
X51229357Y20495791D01*
X51002514Y20344219D01*
X50809601Y20151306D01*
X50658029Y19924463D01*
X50553625Y19672409D01*
X50500400Y19404831D01*
X47945100Y19404831D01*
X47945100Y21084632D01*
X47949019Y21124420D01*
X47941658Y21199156D01*
X47933380Y21283208D01*
X47887063Y21435893D01*
X47811849Y21576609D01*
X47710628Y21699948D01*
X47679719Y21725314D01*
X45738143Y23666889D01*
X45765332Y23700019D01*
X45898582Y23949312D01*
X45980636Y24219811D01*
X45987040Y24284831D01*
X50500400Y24284831D01*
X50500400Y24012009D01*
X50553625Y23744431D01*
X50658029Y23492377D01*
X50809601Y23265534D01*
X51002514Y23072621D01*
X51229357Y22921049D01*
X51481411Y22816645D01*
X51748989Y22763420D01*
X52021811Y22763420D01*
X52289389Y22816645D01*
X52541443Y22921049D01*
X52768286Y23072621D01*
X52961199Y23265534D01*
X53009900Y23338420D01*
X56806912Y23338420D01*
X56846700Y23334501D01*
X56886488Y23338420D01*
X56886491Y23338420D01*
X57005488Y23350140D01*
X57158173Y23396457D01*
X57228237Y23433907D01*
X57393065Y23401120D01*
X57675735Y23401120D01*
X57952974Y23456267D01*
X58214127Y23564440D01*
X58449159Y23721483D01*
X58571094Y23843418D01*
X61721303Y23843418D01*
X61792886Y23599449D01*
X62048396Y23478549D01*
X62322584Y23409820D01*
X62604912Y23395903D01*
X62884530Y23437333D01*
X63150692Y23532517D01*
X63275914Y23599449D01*
X63347497Y23843418D01*
X62534400Y24656515D01*
X61721303Y23843418D01*
X58571094Y23843418D01*
X58649037Y23921361D01*
X58806080Y24156393D01*
X58914253Y24417546D01*
X58969400Y24694785D01*
X58969400Y24765608D01*
X61094183Y24765608D01*
X61135613Y24485990D01*
X61230797Y24219828D01*
X61297729Y24094606D01*
X61541698Y24023023D01*
X62354795Y24836120D01*
X62714005Y24836120D01*
X63527102Y24023023D01*
X63771071Y24094606D01*
X63891971Y24350116D01*
X63960700Y24624304D01*
X63974617Y24906632D01*
X63933187Y25186250D01*
X63838003Y25452412D01*
X63771071Y25577634D01*
X63527102Y25649217D01*
X62714005Y24836120D01*
X62354795Y24836120D01*
X61541698Y25649217D01*
X61297729Y25577634D01*
X61176829Y25322124D01*
X61108100Y25047936D01*
X61094183Y24765608D01*
X58969400Y24765608D01*
X58969400Y24977455D01*
X58914253Y25254694D01*
X58806080Y25515847D01*
X58649037Y25750879D01*
X58571094Y25828822D01*
X61721303Y25828822D01*
X62534400Y25015725D01*
X63347497Y25828822D01*
X63275914Y26072791D01*
X63020404Y26193691D01*
X62746216Y26262420D01*
X62463888Y26276337D01*
X62184270Y26234907D01*
X61918108Y26139723D01*
X61792886Y26072791D01*
X61721303Y25828822D01*
X58571094Y25828822D01*
X58449159Y25950757D01*
X58214127Y26107800D01*
X57952974Y26215973D01*
X57675735Y26271120D01*
X57393065Y26271120D01*
X57115826Y26215973D01*
X56854673Y26107800D01*
X56619641Y25950757D01*
X56419763Y25750879D01*
X56262720Y25515847D01*
X56154547Y25254694D01*
X56099400Y24977455D01*
X56099400Y24958420D01*
X53009900Y24958420D01*
X52961199Y25031306D01*
X52768286Y25224219D01*
X52541443Y25375791D01*
X52289389Y25480195D01*
X52021811Y25533420D01*
X51748989Y25533420D01*
X51481411Y25480195D01*
X51229357Y25375791D01*
X51002514Y25224219D01*
X50809601Y25031306D01*
X50658029Y24804463D01*
X50553625Y24552409D01*
X50500400Y24284831D01*
X45987040Y24284831D01*
X46008343Y24501120D01*
X45980636Y24782429D01*
X45898582Y25052928D01*
X45765332Y25302221D01*
X45586008Y25520728D01*
X45367501Y25700052D01*
X45229718Y25773699D01*
X45421531Y25888735D01*
X45629919Y26077706D01*
X45797437Y26303700D01*
X45917646Y26558033D01*
X45958304Y26692081D01*
X45836315Y26914120D01*
X44693400Y26914120D01*
X44693400Y26894120D01*
X44439400Y26894120D01*
X44439400Y26914120D01*
X43296485Y26914120D01*
X43174496Y26692081D01*
X43215154Y26558033D01*
X43335363Y26303700D01*
X43502881Y26077706D01*
X43711269Y25888735D01*
X43903082Y25773699D01*
X43765299Y25700052D01*
X43546792Y25520728D01*
X43367468Y25302221D01*
X43234218Y25052928D01*
X43152164Y24782429D01*
X43124457Y24501120D01*
X43152164Y24219811D01*
X43234218Y23949312D01*
X43367468Y23700019D01*
X43546792Y23481512D01*
X43753886Y23311554D01*
X43768120Y23167032D01*
X43769548Y23162323D01*
X43765299Y23160052D01*
X43546792Y22980728D01*
X43367468Y22762221D01*
X43234218Y22512928D01*
X43152164Y22242429D01*
X43124457Y21961120D01*
X43152164Y21679811D01*
X43234218Y21409312D01*
X43367468Y21160019D01*
X43546792Y20941512D01*
X43765299Y20762188D01*
X43898258Y20691120D01*
X43765299Y20620052D01*
X43546792Y20440728D01*
X43367468Y20222221D01*
X43234218Y19972928D01*
X43152164Y19702429D01*
X43124457Y19421120D01*
X43152164Y19139811D01*
X43234218Y18869312D01*
X43367468Y18620019D01*
X43546792Y18401512D01*
X43765299Y18222188D01*
X43898258Y18151120D01*
X43765299Y18080052D01*
X43546792Y17900728D01*
X43367468Y17682221D01*
X43234218Y17432928D01*
X43152164Y17162429D01*
X43124457Y16881120D01*
X43152164Y16599811D01*
X43234218Y16329312D01*
X43367468Y16080019D01*
X43546792Y15861512D01*
X43765299Y15682188D01*
X43898258Y15611120D01*
X43765299Y15540052D01*
X43546792Y15360728D01*
X43376834Y15153634D01*
X43351309Y15151120D01*
X43232312Y15139400D01*
X43079627Y15093083D01*
X42938911Y15017869D01*
X42815572Y14916648D01*
X42714351Y14793309D01*
X42639137Y14652593D01*
X42592820Y14499908D01*
X42577181Y14341120D01*
X42580382Y14308615D01*
X38211046Y9939278D01*
X38145332Y10062221D01*
X37966008Y10280728D01*
X37747501Y10460052D01*
X37614542Y10531120D01*
X37747501Y10602188D01*
X37966008Y10781512D01*
X38145332Y11000019D01*
X38278582Y11249312D01*
X38360636Y11519811D01*
X38388343Y11801120D01*
X38360636Y12082429D01*
X38278582Y12352928D01*
X38145332Y12602221D01*
X37966008Y12820728D01*
X37747501Y13000052D01*
X37614542Y13071120D01*
X37747501Y13142188D01*
X37966008Y13321512D01*
X38145332Y13540019D01*
X38278582Y13789312D01*
X38360636Y14059811D01*
X38388343Y14341120D01*
X38360636Y14622429D01*
X38278582Y14892928D01*
X38145332Y15142221D01*
X37966008Y15360728D01*
X37747501Y15540052D01*
X37614542Y15611120D01*
X37747501Y15682188D01*
X37966008Y15861512D01*
X38145332Y16080019D01*
X38278582Y16329312D01*
X38360636Y16599811D01*
X38388343Y16881120D01*
X38360636Y17162429D01*
X38278582Y17432928D01*
X38145332Y17682221D01*
X37966008Y17900728D01*
X37747501Y18080052D01*
X37614542Y18151120D01*
X37747501Y18222188D01*
X37966008Y18401512D01*
X38145332Y18620019D01*
X38278582Y18869312D01*
X38360636Y19139811D01*
X38388343Y19421120D01*
X38360636Y19702429D01*
X38278582Y19972928D01*
X38145332Y20222221D01*
X37966008Y20440728D01*
X37747501Y20620052D01*
X37614542Y20691120D01*
X37747501Y20762188D01*
X37966008Y20941512D01*
X38145332Y21160019D01*
X38278582Y21409312D01*
X38360636Y21679811D01*
X38388343Y21961120D01*
X38360636Y22242429D01*
X38278582Y22512928D01*
X38145332Y22762221D01*
X37966008Y22980728D01*
X37747501Y23160052D01*
X37609718Y23233699D01*
X37801531Y23348735D01*
X38009919Y23537706D01*
X38177437Y23763700D01*
X38297646Y24018033D01*
X38338304Y24152081D01*
X38216315Y24374120D01*
X37073400Y24374120D01*
X37073400Y24354120D01*
X36819400Y24354120D01*
X36819400Y24374120D01*
X35676485Y24374120D01*
X35554496Y24152081D01*
X35595154Y24018033D01*
X35715363Y23763700D01*
X35882881Y23537706D01*
X36091269Y23348735D01*
X36283082Y23233699D01*
X36145299Y23160052D01*
X35926792Y22980728D01*
X35754771Y22771120D01*
X29464513Y22771120D01*
X20715400Y31520232D01*
X20690028Y31551148D01*
X20566689Y31652369D01*
X20425973Y31727583D01*
X20377272Y31742356D01*
X20377272Y31875620D01*
X20365012Y32000102D01*
X20328702Y32119800D01*
X20269737Y32230114D01*
X20190385Y32326805D01*
X20093694Y32406157D01*
X19983380Y32465122D01*
X19965073Y32470676D01*
X20031512Y32537115D01*
X20199499Y32788525D01*
X20315211Y33067877D01*
X20374200Y33364436D01*
X20374200Y33666804D01*
X20315211Y33963363D01*
X20299033Y34002420D01*
X24507367Y34002420D01*
X24491189Y33963363D01*
X24432200Y33666804D01*
X24432200Y33364436D01*
X24491189Y33067877D01*
X24606901Y32788525D01*
X24774888Y32537115D01*
X24841327Y32470676D01*
X24823020Y32465122D01*
X24712706Y32406157D01*
X24616015Y32326805D01*
X24536663Y32230114D01*
X24477698Y32119800D01*
X24441388Y32000102D01*
X24429128Y31875620D01*
X24429128Y30075620D01*
X24441388Y29951138D01*
X24477698Y29831440D01*
X24536663Y29721126D01*
X24616015Y29624435D01*
X24712706Y29545083D01*
X24823020Y29486118D01*
X24942718Y29449808D01*
X25067200Y29437548D01*
X26867200Y29437548D01*
X26991682Y29449808D01*
X27111380Y29486118D01*
X27221694Y29545083D01*
X27318385Y29624435D01*
X27397737Y29721126D01*
X27456702Y29831440D01*
X27493012Y29951138D01*
X27505272Y30075620D01*
X27505272Y31875620D01*
X27493012Y32000102D01*
X27456702Y32119800D01*
X27397737Y32230114D01*
X27318385Y32326805D01*
X27221694Y32406157D01*
X27111380Y32465122D01*
X27093073Y32470676D01*
X27159512Y32537115D01*
X27327499Y32788525D01*
X27443211Y33067877D01*
X27502200Y33364436D01*
X27502200Y33666804D01*
X27443211Y33963363D01*
X27427033Y34002420D01*
X32744288Y34002420D01*
X35170205Y31576502D01*
X35195572Y31545592D01*
X35226480Y31520227D01*
X35318910Y31444371D01*
X35349896Y31427809D01*
X35459627Y31369157D01*
X35612312Y31322840D01*
X35731309Y31311120D01*
X35731312Y31311120D01*
X35756834Y31308606D01*
X35926792Y31101512D01*
X36145299Y30922188D01*
X36278258Y30851120D01*
X36145299Y30780052D01*
X35926792Y30600728D01*
X35747468Y30382221D01*
X35614218Y30132928D01*
X35532164Y29862429D01*
X35504457Y29581120D01*
X35532164Y29299811D01*
X35614218Y29029312D01*
X35747468Y28780019D01*
X35926792Y28561512D01*
X36145299Y28382188D01*
X36278258Y28311120D01*
X36145299Y28240052D01*
X35926792Y28060728D01*
X35747468Y27842221D01*
X35614218Y27592928D01*
X35532164Y27322429D01*
X35504457Y27041120D01*
X35532164Y26759811D01*
X35614218Y26489312D01*
X35747468Y26240019D01*
X35926792Y26021512D01*
X36145299Y25842188D01*
X36283082Y25768541D01*
X36091269Y25653505D01*
X35882881Y25464534D01*
X35715363Y25238540D01*
X35595154Y24984207D01*
X35554496Y24850159D01*
X35676485Y24628120D01*
X36819400Y24628120D01*
X36819400Y24648120D01*
X37073400Y24648120D01*
X37073400Y24628120D01*
X38216315Y24628120D01*
X38338304Y24850159D01*
X38297646Y24984207D01*
X38177437Y25238540D01*
X38009919Y25464534D01*
X37801531Y25653505D01*
X37609718Y25768541D01*
X37747501Y25842188D01*
X37966008Y26021512D01*
X38145332Y26240019D01*
X38278582Y26489312D01*
X38360636Y26759811D01*
X38388343Y27041120D01*
X38360636Y27322429D01*
X38278582Y27592928D01*
X38145332Y27842221D01*
X37966008Y28060728D01*
X37747501Y28240052D01*
X37614542Y28311120D01*
X37747501Y28382188D01*
X37966008Y28561512D01*
X38135966Y28768606D01*
X38161491Y28771120D01*
X38280488Y28782840D01*
X38433173Y28829157D01*
X38573889Y28904371D01*
X38697228Y29005592D01*
X38798449Y29128931D01*
X38873663Y29269647D01*
X38919980Y29422332D01*
X38935619Y29581120D01*
X38932418Y29613625D01*
X43301754Y33982961D01*
X43367468Y33860019D01*
X43546792Y33641512D01*
X43765299Y33462188D01*
X43898258Y33391120D01*
X43765299Y33320052D01*
X43546792Y33140728D01*
X43367468Y32922221D01*
X43234218Y32672928D01*
X43152164Y32402429D01*
X43124457Y32121120D01*
X43152164Y31839811D01*
X43234218Y31569312D01*
X43367468Y31320019D01*
X43546792Y31101512D01*
X43765299Y30922188D01*
X43898258Y30851120D01*
X43765299Y30780052D01*
X43546792Y30600728D01*
X43367468Y30382221D01*
X43234218Y30132928D01*
X43152164Y29862429D01*
X43124457Y29581120D01*
X43152164Y29299811D01*
X43234218Y29029312D01*
X43367468Y28780019D01*
X43546792Y28561512D01*
X43765299Y28382188D01*
X43903082Y28308541D01*
X43711269Y28193505D01*
X43502881Y28004534D01*
X43335363Y27778540D01*
X43215154Y27524207D01*
X43174496Y27390159D01*
X43296485Y27168120D01*
X44439400Y27168120D01*
X44439400Y27188120D01*
X44693400Y27188120D01*
X44693400Y27168120D01*
X45836315Y27168120D01*
X45958304Y27390159D01*
X45917646Y27524207D01*
X45797437Y27778540D01*
X45629919Y28004534D01*
X45421531Y28193505D01*
X45229718Y28308541D01*
X45367501Y28382188D01*
X45586008Y28561512D01*
X45765332Y28780019D01*
X45898582Y29029312D01*
X45980636Y29299811D01*
X46008343Y29581120D01*
X45980636Y29862429D01*
X45898582Y30132928D01*
X45765332Y30382221D01*
X45586008Y30600728D01*
X45367501Y30780052D01*
X45234542Y30851120D01*
X45367501Y30922188D01*
X45586008Y31101512D01*
X45765332Y31320019D01*
X45898582Y31569312D01*
X45980636Y31839811D01*
X46008343Y32121120D01*
X45980636Y32402429D01*
X45944591Y32521255D01*
X57894400Y32521255D01*
X57894400Y32238585D01*
X57949547Y31961346D01*
X58057720Y31700193D01*
X58214763Y31465161D01*
X58414641Y31265283D01*
X58649673Y31108240D01*
X58910826Y31000067D01*
X59188065Y30944920D01*
X59470735Y30944920D01*
X59747974Y31000067D01*
X60009127Y31108240D01*
X60244159Y31265283D01*
X60444037Y31465161D01*
X60601080Y31700193D01*
X60709253Y31961346D01*
X60764400Y32238585D01*
X60764400Y32521255D01*
X60709253Y32798494D01*
X60601080Y33059647D01*
X60444037Y33294679D01*
X60244159Y33494557D01*
X60009127Y33651600D01*
X59747974Y33759773D01*
X59470735Y33814920D01*
X59188065Y33814920D01*
X58910826Y33759773D01*
X58649673Y33651600D01*
X58414641Y33494557D01*
X58214763Y33294679D01*
X58057720Y33059647D01*
X57949547Y32798494D01*
X57894400Y32521255D01*
X45944591Y32521255D01*
X45898582Y32672928D01*
X45765332Y32922221D01*
X45586008Y33140728D01*
X45367501Y33320052D01*
X45234542Y33391120D01*
X45367501Y33462188D01*
X45586008Y33641512D01*
X45765332Y33860019D01*
X45898582Y34109312D01*
X45980636Y34379811D01*
X46008343Y34661120D01*
X45980636Y34942429D01*
X45922456Y35134226D01*
X46070573Y35179157D01*
X46211289Y35254371D01*
X46334628Y35355592D01*
X46360000Y35386508D01*
X48125676Y37152184D01*
X48113457Y37028120D01*
X48113457Y37028120D01*
G37*
X48113457Y37028120D02*
X48141164Y36746811D01*
X48223218Y36476312D01*
X48356468Y36227019D01*
X48535792Y36008512D01*
X48754299Y35829188D01*
X49003592Y35695938D01*
X49274091Y35613884D01*
X49484908Y35593120D01*
X49625892Y35593120D01*
X49836709Y35613884D01*
X50107208Y35695938D01*
X50356501Y35829188D01*
X50575008Y36008512D01*
X50747029Y36218120D01*
X54466765Y36218120D01*
X54536763Y36113361D01*
X54736641Y35913483D01*
X54971673Y35756440D01*
X55232826Y35648267D01*
X55510065Y35593120D01*
X55792735Y35593120D01*
X56069974Y35648267D01*
X56331127Y35756440D01*
X56566159Y35913483D01*
X56766037Y36113361D01*
X56836035Y36218120D01*
X59978060Y36218120D01*
X59984588Y36151838D01*
X60020898Y36032140D01*
X60079863Y35921826D01*
X60159215Y35825135D01*
X60255906Y35745783D01*
X60366220Y35686818D01*
X60485918Y35650508D01*
X60610400Y35638248D01*
X60864760Y35638248D01*
X73121105Y23381902D01*
X73146472Y23350992D01*
X73216768Y23293302D01*
X73269811Y23249771D01*
X73410526Y23174557D01*
X73563212Y23128240D01*
X73722000Y23112601D01*
X73761791Y23116520D01*
X74160101Y23116520D01*
X74160100Y16169332D01*
X64804951Y6814183D01*
X64787071Y6847634D01*
X64543102Y6919217D01*
X63730005Y6106120D01*
X63744148Y6091977D01*
X63564543Y5912372D01*
X63550400Y5926515D01*
X63008113Y5384228D01*
X62974872Y5356948D01*
X62947592Y5323707D01*
X62737303Y5113418D01*
X62757615Y5044192D01*
X62750400Y5044192D01*
X62625918Y5031932D01*
X62506220Y4995622D01*
X62395906Y4936657D01*
X62299215Y4857305D01*
X62219863Y4760614D01*
X62160898Y4650300D01*
X62124588Y4530602D01*
X62112328Y4406120D01*
X62112328Y4372856D01*
X62063627Y4358083D01*
X62046301Y4348822D01*
X61922910Y4282869D01*
X61867310Y4237239D01*
X61799572Y4181648D01*
X61774205Y4150738D01*
X60864288Y3240820D01*
X57319158Y3240820D01*
X57344636Y3324811D01*
X57372343Y3606120D01*
X57344636Y3887429D01*
X57262582Y4157928D01*
X57129332Y4407221D01*
X56950008Y4625728D01*
X56731501Y4805052D01*
X56482208Y4938302D01*
X56211709Y5020356D01*
X56000892Y5041120D01*
X55859908Y5041120D01*
X55649091Y5020356D01*
X55378592Y4938302D01*
X55129299Y4805052D01*
X54910792Y4625728D01*
X54731468Y4407221D01*
X54598218Y4157928D01*
X54516164Y3887429D01*
X54488457Y3606120D01*
X54516164Y3324811D01*
X54541642Y3240820D01*
X50996513Y3240820D01*
X50086599Y4150733D01*
X50061228Y4181648D01*
X49937889Y4282869D01*
X49797173Y4358083D01*
X49748472Y4372856D01*
X49748472Y4406120D01*
X49736212Y4530602D01*
X49699902Y4650300D01*
X49640937Y4760614D01*
X49561585Y4857305D01*
X49464894Y4936657D01*
X49354580Y4995622D01*
X49234882Y5031932D01*
X49110400Y5044192D01*
X47945100Y5044192D01*
X47945100Y6035608D01*
X62110183Y6035608D01*
X62151613Y5755990D01*
X62246797Y5489828D01*
X62313729Y5364606D01*
X62557698Y5293023D01*
X63370795Y6106120D01*
X62557698Y6919217D01*
X62313729Y6847634D01*
X62192829Y6592124D01*
X62124100Y6317936D01*
X62110183Y6035608D01*
X47945100Y6035608D01*
X47945100Y7098822D01*
X62737303Y7098822D01*
X63550400Y6285725D01*
X64363497Y7098822D01*
X64291914Y7342791D01*
X64036404Y7463691D01*
X63762216Y7532420D01*
X63479888Y7546337D01*
X63200270Y7504907D01*
X62934108Y7409723D01*
X62808886Y7342791D01*
X62737303Y7098822D01*
X47945100Y7098822D01*
X47945100Y19404831D01*
X50500400Y19404831D01*
X50500400Y19132009D01*
X50553625Y18864431D01*
X50658029Y18612377D01*
X50809601Y18385534D01*
X51002514Y18192621D01*
X51229357Y18041049D01*
X51481411Y17936645D01*
X51748989Y17883420D01*
X52021811Y17883420D01*
X52105095Y17899986D01*
X52159910Y17855001D01*
X52215510Y17809371D01*
X52221082Y17806393D01*
X52356227Y17734157D01*
X52508912Y17687840D01*
X52627909Y17676120D01*
X52627911Y17676120D01*
X52667699Y17672201D01*
X52707487Y17676120D01*
X56349765Y17676120D01*
X56419763Y17571361D01*
X56619641Y17371483D01*
X56854673Y17214440D01*
X57115826Y17106267D01*
X57393065Y17051120D01*
X57675735Y17051120D01*
X57952974Y17106267D01*
X58214127Y17214440D01*
X58449159Y17371483D01*
X58571094Y17493418D01*
X61721303Y17493418D01*
X61792886Y17249449D01*
X62048396Y17128549D01*
X62322584Y17059820D01*
X62604912Y17045903D01*
X62884530Y17087333D01*
X63150692Y17182517D01*
X63275914Y17249449D01*
X63347497Y17493418D01*
X62534400Y18306515D01*
X61721303Y17493418D01*
X58571094Y17493418D01*
X58649037Y17571361D01*
X58806080Y17806393D01*
X58914253Y18067546D01*
X58969400Y18344785D01*
X58969400Y18415608D01*
X61094183Y18415608D01*
X61135613Y18135990D01*
X61230797Y17869828D01*
X61297729Y17744606D01*
X61541698Y17673023D01*
X62354795Y18486120D01*
X62714005Y18486120D01*
X63527102Y17673023D01*
X63771071Y17744606D01*
X63891971Y18000116D01*
X63960700Y18274304D01*
X63974617Y18556632D01*
X63933187Y18836250D01*
X63838003Y19102412D01*
X63771071Y19227634D01*
X63527102Y19299217D01*
X62714005Y18486120D01*
X62354795Y18486120D01*
X61541698Y19299217D01*
X61297729Y19227634D01*
X61176829Y18972124D01*
X61108100Y18697936D01*
X61094183Y18415608D01*
X58969400Y18415608D01*
X58969400Y18627455D01*
X58914253Y18904694D01*
X58806080Y19165847D01*
X58649037Y19400879D01*
X58571094Y19478822D01*
X61721303Y19478822D01*
X62534400Y18665725D01*
X63347497Y19478822D01*
X63275914Y19722791D01*
X63020404Y19843691D01*
X62746216Y19912420D01*
X62463888Y19926337D01*
X62184270Y19884907D01*
X61918108Y19789723D01*
X61792886Y19722791D01*
X61721303Y19478822D01*
X58571094Y19478822D01*
X58449159Y19600757D01*
X58214127Y19757800D01*
X57952974Y19865973D01*
X57675735Y19921120D01*
X57393065Y19921120D01*
X57115826Y19865973D01*
X56854673Y19757800D01*
X56619641Y19600757D01*
X56419763Y19400879D01*
X56349765Y19296120D01*
X53270400Y19296120D01*
X53270400Y19404831D01*
X53217175Y19672409D01*
X53112771Y19924463D01*
X52961199Y20151306D01*
X52768286Y20344219D01*
X52541443Y20495791D01*
X52289389Y20600195D01*
X52021811Y20653420D01*
X51748989Y20653420D01*
X51481411Y20600195D01*
X51229357Y20495791D01*
X51002514Y20344219D01*
X50809601Y20151306D01*
X50658029Y19924463D01*
X50553625Y19672409D01*
X50500400Y19404831D01*
X47945100Y19404831D01*
X47945100Y21084632D01*
X47949019Y21124420D01*
X47941658Y21199156D01*
X47933380Y21283208D01*
X47887063Y21435893D01*
X47811849Y21576609D01*
X47710628Y21699948D01*
X47679719Y21725314D01*
X45738143Y23666889D01*
X45765332Y23700019D01*
X45898582Y23949312D01*
X45980636Y24219811D01*
X45987040Y24284831D01*
X50500400Y24284831D01*
X50500400Y24012009D01*
X50553625Y23744431D01*
X50658029Y23492377D01*
X50809601Y23265534D01*
X51002514Y23072621D01*
X51229357Y22921049D01*
X51481411Y22816645D01*
X51748989Y22763420D01*
X52021811Y22763420D01*
X52289389Y22816645D01*
X52541443Y22921049D01*
X52768286Y23072621D01*
X52961199Y23265534D01*
X53009900Y23338420D01*
X56806912Y23338420D01*
X56846700Y23334501D01*
X56886488Y23338420D01*
X56886491Y23338420D01*
X57005488Y23350140D01*
X57158173Y23396457D01*
X57228237Y23433907D01*
X57393065Y23401120D01*
X57675735Y23401120D01*
X57952974Y23456267D01*
X58214127Y23564440D01*
X58449159Y23721483D01*
X58571094Y23843418D01*
X61721303Y23843418D01*
X61792886Y23599449D01*
X62048396Y23478549D01*
X62322584Y23409820D01*
X62604912Y23395903D01*
X62884530Y23437333D01*
X63150692Y23532517D01*
X63275914Y23599449D01*
X63347497Y23843418D01*
X62534400Y24656515D01*
X61721303Y23843418D01*
X58571094Y23843418D01*
X58649037Y23921361D01*
X58806080Y24156393D01*
X58914253Y24417546D01*
X58969400Y24694785D01*
X58969400Y24765608D01*
X61094183Y24765608D01*
X61135613Y24485990D01*
X61230797Y24219828D01*
X61297729Y24094606D01*
X61541698Y24023023D01*
X62354795Y24836120D01*
X62714005Y24836120D01*
X63527102Y24023023D01*
X63771071Y24094606D01*
X63891971Y24350116D01*
X63960700Y24624304D01*
X63974617Y24906632D01*
X63933187Y25186250D01*
X63838003Y25452412D01*
X63771071Y25577634D01*
X63527102Y25649217D01*
X62714005Y24836120D01*
X62354795Y24836120D01*
X61541698Y25649217D01*
X61297729Y25577634D01*
X61176829Y25322124D01*
X61108100Y25047936D01*
X61094183Y24765608D01*
X58969400Y24765608D01*
X58969400Y24977455D01*
X58914253Y25254694D01*
X58806080Y25515847D01*
X58649037Y25750879D01*
X58571094Y25828822D01*
X61721303Y25828822D01*
X62534400Y25015725D01*
X63347497Y25828822D01*
X63275914Y26072791D01*
X63020404Y26193691D01*
X62746216Y26262420D01*
X62463888Y26276337D01*
X62184270Y26234907D01*
X61918108Y26139723D01*
X61792886Y26072791D01*
X61721303Y25828822D01*
X58571094Y25828822D01*
X58449159Y25950757D01*
X58214127Y26107800D01*
X57952974Y26215973D01*
X57675735Y26271120D01*
X57393065Y26271120D01*
X57115826Y26215973D01*
X56854673Y26107800D01*
X56619641Y25950757D01*
X56419763Y25750879D01*
X56262720Y25515847D01*
X56154547Y25254694D01*
X56099400Y24977455D01*
X56099400Y24958420D01*
X53009900Y24958420D01*
X52961199Y25031306D01*
X52768286Y25224219D01*
X52541443Y25375791D01*
X52289389Y25480195D01*
X52021811Y25533420D01*
X51748989Y25533420D01*
X51481411Y25480195D01*
X51229357Y25375791D01*
X51002514Y25224219D01*
X50809601Y25031306D01*
X50658029Y24804463D01*
X50553625Y24552409D01*
X50500400Y24284831D01*
X45987040Y24284831D01*
X46008343Y24501120D01*
X45980636Y24782429D01*
X45898582Y25052928D01*
X45765332Y25302221D01*
X45586008Y25520728D01*
X45367501Y25700052D01*
X45229718Y25773699D01*
X45421531Y25888735D01*
X45629919Y26077706D01*
X45797437Y26303700D01*
X45917646Y26558033D01*
X45958304Y26692081D01*
X45836315Y26914120D01*
X44693400Y26914120D01*
X44693400Y26894120D01*
X44439400Y26894120D01*
X44439400Y26914120D01*
X43296485Y26914120D01*
X43174496Y26692081D01*
X43215154Y26558033D01*
X43335363Y26303700D01*
X43502881Y26077706D01*
X43711269Y25888735D01*
X43903082Y25773699D01*
X43765299Y25700052D01*
X43546792Y25520728D01*
X43367468Y25302221D01*
X43234218Y25052928D01*
X43152164Y24782429D01*
X43124457Y24501120D01*
X43152164Y24219811D01*
X43234218Y23949312D01*
X43367468Y23700019D01*
X43546792Y23481512D01*
X43753886Y23311554D01*
X43768120Y23167032D01*
X43769548Y23162323D01*
X43765299Y23160052D01*
X43546792Y22980728D01*
X43367468Y22762221D01*
X43234218Y22512928D01*
X43152164Y22242429D01*
X43124457Y21961120D01*
X43152164Y21679811D01*
X43234218Y21409312D01*
X43367468Y21160019D01*
X43546792Y20941512D01*
X43765299Y20762188D01*
X43898258Y20691120D01*
X43765299Y20620052D01*
X43546792Y20440728D01*
X43367468Y20222221D01*
X43234218Y19972928D01*
X43152164Y19702429D01*
X43124457Y19421120D01*
X43152164Y19139811D01*
X43234218Y18869312D01*
X43367468Y18620019D01*
X43546792Y18401512D01*
X43765299Y18222188D01*
X43898258Y18151120D01*
X43765299Y18080052D01*
X43546792Y17900728D01*
X43367468Y17682221D01*
X43234218Y17432928D01*
X43152164Y17162429D01*
X43124457Y16881120D01*
X43152164Y16599811D01*
X43234218Y16329312D01*
X43367468Y16080019D01*
X43546792Y15861512D01*
X43765299Y15682188D01*
X43898258Y15611120D01*
X43765299Y15540052D01*
X43546792Y15360728D01*
X43376834Y15153634D01*
X43351309Y15151120D01*
X43232312Y15139400D01*
X43079627Y15093083D01*
X42938911Y15017869D01*
X42815572Y14916648D01*
X42714351Y14793309D01*
X42639137Y14652593D01*
X42592820Y14499908D01*
X42577181Y14341120D01*
X42580382Y14308615D01*
X38211046Y9939278D01*
X38145332Y10062221D01*
X37966008Y10280728D01*
X37747501Y10460052D01*
X37614542Y10531120D01*
X37747501Y10602188D01*
X37966008Y10781512D01*
X38145332Y11000019D01*
X38278582Y11249312D01*
X38360636Y11519811D01*
X38388343Y11801120D01*
X38360636Y12082429D01*
X38278582Y12352928D01*
X38145332Y12602221D01*
X37966008Y12820728D01*
X37747501Y13000052D01*
X37614542Y13071120D01*
X37747501Y13142188D01*
X37966008Y13321512D01*
X38145332Y13540019D01*
X38278582Y13789312D01*
X38360636Y14059811D01*
X38388343Y14341120D01*
X38360636Y14622429D01*
X38278582Y14892928D01*
X38145332Y15142221D01*
X37966008Y15360728D01*
X37747501Y15540052D01*
X37614542Y15611120D01*
X37747501Y15682188D01*
X37966008Y15861512D01*
X38145332Y16080019D01*
X38278582Y16329312D01*
X38360636Y16599811D01*
X38388343Y16881120D01*
X38360636Y17162429D01*
X38278582Y17432928D01*
X38145332Y17682221D01*
X37966008Y17900728D01*
X37747501Y18080052D01*
X37614542Y18151120D01*
X37747501Y18222188D01*
X37966008Y18401512D01*
X38145332Y18620019D01*
X38278582Y18869312D01*
X38360636Y19139811D01*
X38388343Y19421120D01*
X38360636Y19702429D01*
X38278582Y19972928D01*
X38145332Y20222221D01*
X37966008Y20440728D01*
X37747501Y20620052D01*
X37614542Y20691120D01*
X37747501Y20762188D01*
X37966008Y20941512D01*
X38145332Y21160019D01*
X38278582Y21409312D01*
X38360636Y21679811D01*
X38388343Y21961120D01*
X38360636Y22242429D01*
X38278582Y22512928D01*
X38145332Y22762221D01*
X37966008Y22980728D01*
X37747501Y23160052D01*
X37609718Y23233699D01*
X37801531Y23348735D01*
X38009919Y23537706D01*
X38177437Y23763700D01*
X38297646Y24018033D01*
X38338304Y24152081D01*
X38216315Y24374120D01*
X37073400Y24374120D01*
X37073400Y24354120D01*
X36819400Y24354120D01*
X36819400Y24374120D01*
X35676485Y24374120D01*
X35554496Y24152081D01*
X35595154Y24018033D01*
X35715363Y23763700D01*
X35882881Y23537706D01*
X36091269Y23348735D01*
X36283082Y23233699D01*
X36145299Y23160052D01*
X35926792Y22980728D01*
X35754771Y22771120D01*
X29464513Y22771120D01*
X20715400Y31520232D01*
X20690028Y31551148D01*
X20566689Y31652369D01*
X20425973Y31727583D01*
X20377272Y31742356D01*
X20377272Y31875620D01*
X20365012Y32000102D01*
X20328702Y32119800D01*
X20269737Y32230114D01*
X20190385Y32326805D01*
X20093694Y32406157D01*
X19983380Y32465122D01*
X19965073Y32470676D01*
X20031512Y32537115D01*
X20199499Y32788525D01*
X20315211Y33067877D01*
X20374200Y33364436D01*
X20374200Y33666804D01*
X20315211Y33963363D01*
X20299033Y34002420D01*
X24507367Y34002420D01*
X24491189Y33963363D01*
X24432200Y33666804D01*
X24432200Y33364436D01*
X24491189Y33067877D01*
X24606901Y32788525D01*
X24774888Y32537115D01*
X24841327Y32470676D01*
X24823020Y32465122D01*
X24712706Y32406157D01*
X24616015Y32326805D01*
X24536663Y32230114D01*
X24477698Y32119800D01*
X24441388Y32000102D01*
X24429128Y31875620D01*
X24429128Y30075620D01*
X24441388Y29951138D01*
X24477698Y29831440D01*
X24536663Y29721126D01*
X24616015Y29624435D01*
X24712706Y29545083D01*
X24823020Y29486118D01*
X24942718Y29449808D01*
X25067200Y29437548D01*
X26867200Y29437548D01*
X26991682Y29449808D01*
X27111380Y29486118D01*
X27221694Y29545083D01*
X27318385Y29624435D01*
X27397737Y29721126D01*
X27456702Y29831440D01*
X27493012Y29951138D01*
X27505272Y30075620D01*
X27505272Y31875620D01*
X27493012Y32000102D01*
X27456702Y32119800D01*
X27397737Y32230114D01*
X27318385Y32326805D01*
X27221694Y32406157D01*
X27111380Y32465122D01*
X27093073Y32470676D01*
X27159512Y32537115D01*
X27327499Y32788525D01*
X27443211Y33067877D01*
X27502200Y33364436D01*
X27502200Y33666804D01*
X27443211Y33963363D01*
X27427033Y34002420D01*
X32744288Y34002420D01*
X35170205Y31576502D01*
X35195572Y31545592D01*
X35226480Y31520227D01*
X35318910Y31444371D01*
X35349896Y31427809D01*
X35459627Y31369157D01*
X35612312Y31322840D01*
X35731309Y31311120D01*
X35731312Y31311120D01*
X35756834Y31308606D01*
X35926792Y31101512D01*
X36145299Y30922188D01*
X36278258Y30851120D01*
X36145299Y30780052D01*
X35926792Y30600728D01*
X35747468Y30382221D01*
X35614218Y30132928D01*
X35532164Y29862429D01*
X35504457Y29581120D01*
X35532164Y29299811D01*
X35614218Y29029312D01*
X35747468Y28780019D01*
X35926792Y28561512D01*
X36145299Y28382188D01*
X36278258Y28311120D01*
X36145299Y28240052D01*
X35926792Y28060728D01*
X35747468Y27842221D01*
X35614218Y27592928D01*
X35532164Y27322429D01*
X35504457Y27041120D01*
X35532164Y26759811D01*
X35614218Y26489312D01*
X35747468Y26240019D01*
X35926792Y26021512D01*
X36145299Y25842188D01*
X36283082Y25768541D01*
X36091269Y25653505D01*
X35882881Y25464534D01*
X35715363Y25238540D01*
X35595154Y24984207D01*
X35554496Y24850159D01*
X35676485Y24628120D01*
X36819400Y24628120D01*
X36819400Y24648120D01*
X37073400Y24648120D01*
X37073400Y24628120D01*
X38216315Y24628120D01*
X38338304Y24850159D01*
X38297646Y24984207D01*
X38177437Y25238540D01*
X38009919Y25464534D01*
X37801531Y25653505D01*
X37609718Y25768541D01*
X37747501Y25842188D01*
X37966008Y26021512D01*
X38145332Y26240019D01*
X38278582Y26489312D01*
X38360636Y26759811D01*
X38388343Y27041120D01*
X38360636Y27322429D01*
X38278582Y27592928D01*
X38145332Y27842221D01*
X37966008Y28060728D01*
X37747501Y28240052D01*
X37614542Y28311120D01*
X37747501Y28382188D01*
X37966008Y28561512D01*
X38135966Y28768606D01*
X38161491Y28771120D01*
X38280488Y28782840D01*
X38433173Y28829157D01*
X38573889Y28904371D01*
X38697228Y29005592D01*
X38798449Y29128931D01*
X38873663Y29269647D01*
X38919980Y29422332D01*
X38935619Y29581120D01*
X38932418Y29613625D01*
X43301754Y33982961D01*
X43367468Y33860019D01*
X43546792Y33641512D01*
X43765299Y33462188D01*
X43898258Y33391120D01*
X43765299Y33320052D01*
X43546792Y33140728D01*
X43367468Y32922221D01*
X43234218Y32672928D01*
X43152164Y32402429D01*
X43124457Y32121120D01*
X43152164Y31839811D01*
X43234218Y31569312D01*
X43367468Y31320019D01*
X43546792Y31101512D01*
X43765299Y30922188D01*
X43898258Y30851120D01*
X43765299Y30780052D01*
X43546792Y30600728D01*
X43367468Y30382221D01*
X43234218Y30132928D01*
X43152164Y29862429D01*
X43124457Y29581120D01*
X43152164Y29299811D01*
X43234218Y29029312D01*
X43367468Y28780019D01*
X43546792Y28561512D01*
X43765299Y28382188D01*
X43903082Y28308541D01*
X43711269Y28193505D01*
X43502881Y28004534D01*
X43335363Y27778540D01*
X43215154Y27524207D01*
X43174496Y27390159D01*
X43296485Y27168120D01*
X44439400Y27168120D01*
X44439400Y27188120D01*
X44693400Y27188120D01*
X44693400Y27168120D01*
X45836315Y27168120D01*
X45958304Y27390159D01*
X45917646Y27524207D01*
X45797437Y27778540D01*
X45629919Y28004534D01*
X45421531Y28193505D01*
X45229718Y28308541D01*
X45367501Y28382188D01*
X45586008Y28561512D01*
X45765332Y28780019D01*
X45898582Y29029312D01*
X45980636Y29299811D01*
X46008343Y29581120D01*
X45980636Y29862429D01*
X45898582Y30132928D01*
X45765332Y30382221D01*
X45586008Y30600728D01*
X45367501Y30780052D01*
X45234542Y30851120D01*
X45367501Y30922188D01*
X45586008Y31101512D01*
X45765332Y31320019D01*
X45898582Y31569312D01*
X45980636Y31839811D01*
X46008343Y32121120D01*
X45980636Y32402429D01*
X45944591Y32521255D01*
X57894400Y32521255D01*
X57894400Y32238585D01*
X57949547Y31961346D01*
X58057720Y31700193D01*
X58214763Y31465161D01*
X58414641Y31265283D01*
X58649673Y31108240D01*
X58910826Y31000067D01*
X59188065Y30944920D01*
X59470735Y30944920D01*
X59747974Y31000067D01*
X60009127Y31108240D01*
X60244159Y31265283D01*
X60444037Y31465161D01*
X60601080Y31700193D01*
X60709253Y31961346D01*
X60764400Y32238585D01*
X60764400Y32521255D01*
X60709253Y32798494D01*
X60601080Y33059647D01*
X60444037Y33294679D01*
X60244159Y33494557D01*
X60009127Y33651600D01*
X59747974Y33759773D01*
X59470735Y33814920D01*
X59188065Y33814920D01*
X58910826Y33759773D01*
X58649673Y33651600D01*
X58414641Y33494557D01*
X58214763Y33294679D01*
X58057720Y33059647D01*
X57949547Y32798494D01*
X57894400Y32521255D01*
X45944591Y32521255D01*
X45898582Y32672928D01*
X45765332Y32922221D01*
X45586008Y33140728D01*
X45367501Y33320052D01*
X45234542Y33391120D01*
X45367501Y33462188D01*
X45586008Y33641512D01*
X45765332Y33860019D01*
X45898582Y34109312D01*
X45980636Y34379811D01*
X46008343Y34661120D01*
X45980636Y34942429D01*
X45922456Y35134226D01*
X46070573Y35179157D01*
X46211289Y35254371D01*
X46334628Y35355592D01*
X46360000Y35386508D01*
X48125676Y37152184D01*
X48113457Y37028120D01*
G36*
X9504788Y28904420D02*
G01*
X8869829Y28904420D01*
X8909858Y29036394D01*
X8788717Y29268420D01*
X7581900Y29268420D01*
X7581900Y29248420D01*
X7327900Y29248420D01*
X7327900Y29268420D01*
X7307900Y29268420D01*
X7307900Y29522420D01*
X7327900Y29522420D01*
X7327900Y29542420D01*
X7581900Y29542420D01*
X7581900Y29522420D01*
X8788717Y29522420D01*
X8909858Y29754446D01*
X8888634Y29824420D01*
X9600412Y29824420D01*
X9640200Y29820501D01*
X9679988Y29824420D01*
X9679991Y29824420D01*
X9798988Y29836140D01*
X9951673Y29882457D01*
X10092389Y29957671D01*
X10215728Y30058892D01*
X10241100Y30089808D01*
X14704113Y34552820D01*
X15153187Y34552820D01*
X9504788Y28904420D01*
X9504788Y28904420D01*
G37*
X9504788Y28904420D02*
X8869829Y28904420D01*
X8909858Y29036394D01*
X8788717Y29268420D01*
X7581900Y29268420D01*
X7581900Y29248420D01*
X7327900Y29248420D01*
X7327900Y29268420D01*
X7307900Y29268420D01*
X7307900Y29522420D01*
X7327900Y29522420D01*
X7327900Y29542420D01*
X7581900Y29542420D01*
X7581900Y29522420D01*
X8788717Y29522420D01*
X8909858Y29754446D01*
X8888634Y29824420D01*
X9600412Y29824420D01*
X9640200Y29820501D01*
X9679988Y29824420D01*
X9679991Y29824420D01*
X9798988Y29836140D01*
X9951673Y29882457D01*
X10092389Y29957671D01*
X10215728Y30058892D01*
X10241100Y30089808D01*
X14704113Y34552820D01*
X15153187Y34552820D01*
X9504788Y28904420D01*
%TD*%
M02*
