%TF.GenerationSoftware,KiCad,Pcbnew,5.1.4-3.fc31*%
%TF.CreationDate,2019-11-11T15:40:02+01:00*%
%TF.ProjectId,usbasp,75736261-7370-42e6-9b69-6361645f7063,2.0*%
%TF.SameCoordinates,PX36f6758PY6c779b8*%
%TF.FileFunction,Other,Comment*%
%FSLAX46Y46*%
G04 Gerber Fmt 4.6, Leading zero omitted, Abs format (unit mm)*
G04 Created by KiCad (PCBNEW 5.1.4-3.fc31) date 2019-11-11 15:40:02*
%MOMM*%
%LPD*%
G04 APERTURE LIST*
%ADD10C,0.150000*%
G04 APERTURE END LIST*
D10*
X85446140Y21325073D02*
X85446140Y20848882D01*
X85922331Y20801263D01*
X85874712Y20848882D01*
X85827093Y20944120D01*
X85827093Y21182216D01*
X85874712Y21277454D01*
X85922331Y21325073D01*
X86017569Y21372692D01*
X86255664Y21372692D01*
X86350902Y21325073D01*
X86398521Y21277454D01*
X86446140Y21182216D01*
X86446140Y20944120D01*
X86398521Y20848882D01*
X86350902Y20801263D01*
X85446140Y21991740D02*
X85446140Y22086978D01*
X85493760Y22182216D01*
X85541379Y22229835D01*
X85636617Y22277454D01*
X85827093Y22325073D01*
X86065188Y22325073D01*
X86255664Y22277454D01*
X86350902Y22229835D01*
X86398521Y22182216D01*
X86446140Y22086978D01*
X86446140Y21991740D01*
X86398521Y21896501D01*
X86350902Y21848882D01*
X86255664Y21801263D01*
X86065188Y21753644D01*
X85827093Y21753644D01*
X85636617Y21801263D01*
X85541379Y21848882D01*
X85493760Y21896501D01*
X85446140Y21991740D01*
X86398521Y22801263D02*
X86446140Y22801263D01*
X86541379Y22753644D01*
X86588998Y22706025D01*
X85446140Y23420311D02*
X85446140Y23515549D01*
X85493760Y23610787D01*
X85541379Y23658406D01*
X85636617Y23706025D01*
X85827093Y23753644D01*
X86065188Y23753644D01*
X86255664Y23706025D01*
X86350902Y23658406D01*
X86398521Y23610787D01*
X86446140Y23515549D01*
X86446140Y23420311D01*
X86398521Y23325073D01*
X86350902Y23277454D01*
X86255664Y23229835D01*
X86065188Y23182216D01*
X85827093Y23182216D01*
X85636617Y23229835D01*
X85541379Y23277454D01*
X85493760Y23325073D01*
X85446140Y23420311D01*
X85446140Y24372692D02*
X85446140Y24467930D01*
X85493760Y24563168D01*
X85541379Y24610787D01*
X85636617Y24658406D01*
X85827093Y24706025D01*
X86065188Y24706025D01*
X86255664Y24658406D01*
X86350902Y24610787D01*
X86398521Y24563168D01*
X86446140Y24467930D01*
X86446140Y24372692D01*
X86398521Y24277454D01*
X86350902Y24229835D01*
X86255664Y24182216D01*
X86065188Y24134597D01*
X85827093Y24134597D01*
X85636617Y24182216D01*
X85541379Y24229835D01*
X85493760Y24277454D01*
X85446140Y24372692D01*
X85446140Y25325073D02*
X85446140Y25420311D01*
X85493760Y25515549D01*
X85541379Y25563168D01*
X85636617Y25610787D01*
X85827093Y25658406D01*
X86065188Y25658406D01*
X86255664Y25610787D01*
X86350902Y25563168D01*
X86398521Y25515549D01*
X86446140Y25420311D01*
X86446140Y25325073D01*
X86398521Y25229835D01*
X86350902Y25182216D01*
X86255664Y25134597D01*
X86065188Y25086978D01*
X85827093Y25086978D01*
X85636617Y25134597D01*
X85541379Y25182216D01*
X85493760Y25229835D01*
X85446140Y25325073D01*
X86446140Y26848882D02*
X85779474Y26848882D01*
X85874712Y26848882D02*
X85827093Y26896501D01*
X85779474Y26991740D01*
X85779474Y27134597D01*
X85827093Y27229835D01*
X85922331Y27277454D01*
X86446140Y27277454D01*
X85922331Y27277454D02*
X85827093Y27325073D01*
X85779474Y27420311D01*
X85779474Y27563168D01*
X85827093Y27658406D01*
X85922331Y27706025D01*
X86446140Y27706025D01*
X86446140Y28182216D02*
X85779474Y28182216D01*
X85874712Y28182216D02*
X85827093Y28229835D01*
X85779474Y28325073D01*
X85779474Y28467930D01*
X85827093Y28563168D01*
X85922331Y28610787D01*
X86446140Y28610787D01*
X85922331Y28610787D02*
X85827093Y28658406D01*
X85779474Y28753644D01*
X85779474Y28896501D01*
X85827093Y28991740D01*
X85922331Y29039359D01*
X86446140Y29039359D01*
X84693760Y-55880D02*
X84693760Y49944120D01*
X80025400Y-55880D02*
X85280181Y-55880D01*
X80025400Y49944120D02*
X85280181Y49944120D01*
X84693760Y49944120D02*
X85280181Y48817616D01*
X84693760Y49944120D02*
X84107339Y48817616D01*
X84693760Y-55880D02*
X85280181Y1070624D01*
X84693760Y-55880D02*
X84107339Y1070624D01*
X36073019Y-8922872D02*
X35977780Y-8875253D01*
X35930161Y-8827634D01*
X35882542Y-8732396D01*
X35882542Y-8684777D01*
X35930161Y-8589539D01*
X35977780Y-8541920D01*
X36073019Y-8494300D01*
X36263495Y-8494300D01*
X36358733Y-8541920D01*
X36406352Y-8589539D01*
X36453971Y-8684777D01*
X36453971Y-8732396D01*
X36406352Y-8827634D01*
X36358733Y-8875253D01*
X36263495Y-8922872D01*
X36073019Y-8922872D01*
X35977780Y-8970491D01*
X35930161Y-9018110D01*
X35882542Y-9113348D01*
X35882542Y-9303824D01*
X35930161Y-9399062D01*
X35977780Y-9446681D01*
X36073019Y-9494300D01*
X36263495Y-9494300D01*
X36358733Y-9446681D01*
X36406352Y-9399062D01*
X36453971Y-9303824D01*
X36453971Y-9113348D01*
X36406352Y-9018110D01*
X36358733Y-8970491D01*
X36263495Y-8922872D01*
X37073019Y-8494300D02*
X37168257Y-8494300D01*
X37263495Y-8541920D01*
X37311114Y-8589539D01*
X37358733Y-8684777D01*
X37406352Y-8875253D01*
X37406352Y-9113348D01*
X37358733Y-9303824D01*
X37311114Y-9399062D01*
X37263495Y-9446681D01*
X37168257Y-9494300D01*
X37073019Y-9494300D01*
X36977780Y-9446681D01*
X36930161Y-9399062D01*
X36882542Y-9303824D01*
X36834923Y-9113348D01*
X36834923Y-8875253D01*
X36882542Y-8684777D01*
X36930161Y-8589539D01*
X36977780Y-8541920D01*
X37073019Y-8494300D01*
X37882542Y-9446681D02*
X37882542Y-9494300D01*
X37834923Y-9589539D01*
X37787304Y-9637158D01*
X38501590Y-8494300D02*
X38596828Y-8494300D01*
X38692066Y-8541920D01*
X38739685Y-8589539D01*
X38787304Y-8684777D01*
X38834923Y-8875253D01*
X38834923Y-9113348D01*
X38787304Y-9303824D01*
X38739685Y-9399062D01*
X38692066Y-9446681D01*
X38596828Y-9494300D01*
X38501590Y-9494300D01*
X38406352Y-9446681D01*
X38358733Y-9399062D01*
X38311114Y-9303824D01*
X38263495Y-9113348D01*
X38263495Y-8875253D01*
X38311114Y-8684777D01*
X38358733Y-8589539D01*
X38406352Y-8541920D01*
X38501590Y-8494300D01*
X39453971Y-8494300D02*
X39549209Y-8494300D01*
X39644447Y-8541920D01*
X39692066Y-8589539D01*
X39739685Y-8684777D01*
X39787304Y-8875253D01*
X39787304Y-9113348D01*
X39739685Y-9303824D01*
X39692066Y-9399062D01*
X39644447Y-9446681D01*
X39549209Y-9494300D01*
X39453971Y-9494300D01*
X39358733Y-9446681D01*
X39311114Y-9399062D01*
X39263495Y-9303824D01*
X39215876Y-9113348D01*
X39215876Y-8875253D01*
X39263495Y-8684777D01*
X39311114Y-8589539D01*
X39358733Y-8541920D01*
X39453971Y-8494300D01*
X40406352Y-8494300D02*
X40501590Y-8494300D01*
X40596828Y-8541920D01*
X40644447Y-8589539D01*
X40692066Y-8684777D01*
X40739685Y-8875253D01*
X40739685Y-9113348D01*
X40692066Y-9303824D01*
X40644447Y-9399062D01*
X40596828Y-9446681D01*
X40501590Y-9494300D01*
X40406352Y-9494300D01*
X40311114Y-9446681D01*
X40263495Y-9399062D01*
X40215876Y-9303824D01*
X40168257Y-9113348D01*
X40168257Y-8875253D01*
X40215876Y-8684777D01*
X40263495Y-8589539D01*
X40311114Y-8541920D01*
X40406352Y-8494300D01*
X41930161Y-9494300D02*
X41930161Y-8827634D01*
X41930161Y-8922872D02*
X41977780Y-8875253D01*
X42073019Y-8827634D01*
X42215876Y-8827634D01*
X42311114Y-8875253D01*
X42358733Y-8970491D01*
X42358733Y-9494300D01*
X42358733Y-8970491D02*
X42406352Y-8875253D01*
X42501590Y-8827634D01*
X42644447Y-8827634D01*
X42739685Y-8875253D01*
X42787304Y-8970491D01*
X42787304Y-9494300D01*
X43263495Y-9494300D02*
X43263495Y-8827634D01*
X43263495Y-8922872D02*
X43311114Y-8875253D01*
X43406352Y-8827634D01*
X43549209Y-8827634D01*
X43644447Y-8875253D01*
X43692066Y-8970491D01*
X43692066Y-9494300D01*
X43692066Y-8970491D02*
X43739685Y-8875253D01*
X43834923Y-8827634D01*
X43977780Y-8827634D01*
X44073019Y-8875253D01*
X44120638Y-8970491D01*
X44120638Y-9494300D01*
X25400Y-7741920D02*
X80025400Y-7741920D01*
X25400Y-55880D02*
X25400Y-8328341D01*
X80025400Y-55880D02*
X80025400Y-8328341D01*
X80025400Y-7741920D02*
X78898896Y-8328341D01*
X80025400Y-7741920D02*
X78898896Y-7155499D01*
X25400Y-7741920D02*
X1151904Y-8328341D01*
X25400Y-7741920D02*
X1151904Y-7155499D01*
M02*
