G04 #@! TF.GenerationSoftware,KiCad,Pcbnew,5.1.4-3.fc30*
G04 #@! TF.CreationDate,2019-09-17T14:13:59+02:00*
G04 #@! TF.ProjectId,usbasp,75736261-7370-42e6-9b69-6361645f7063,2.0*
G04 #@! TF.SameCoordinates,Original*
G04 #@! TF.FileFunction,Legend,Top*
G04 #@! TF.FilePolarity,Positive*
%FSLAX46Y46*%
G04 Gerber Fmt 4.6, Leading zero omitted, Abs format (unit mm)*
G04 Created by KiCad (PCBNEW 5.1.4-3.fc30) date 2019-09-17 14:13:59*
%MOMM*%
%LPD*%
G04 APERTURE LIST*
%ADD10C,0.150000*%
%ADD11C,0.120000*%
%ADD12R,2.002000X1.277000*%
%ADD13R,2.002000X2.477000*%
%ADD14R,2.202000X1.577000*%
%ADD15R,1.482000X0.552000*%
%ADD16C,1.602000*%
%ADD17C,2.102000*%
%ADD18C,1.702000*%
%ADD19R,1.702000X1.702000*%
%ADD20O,1.702000X1.702000*%
%ADD21R,1.902000X1.902000*%
%ADD22C,1.902000*%
%ADD23O,1.802000X1.802000*%
%ADD24R,1.802000X1.802000*%
%ADD25R,1.829200X1.829200*%
%ADD26O,1.829200X1.829200*%
G04 APERTURE END LIST*
D10*
X128358474Y-106568973D02*
X129025140Y-106568973D01*
X128358474Y-106997544D02*
X128882283Y-106997544D01*
X128977521Y-106949925D01*
X129025140Y-106854687D01*
X129025140Y-106711830D01*
X128977521Y-106616592D01*
X128929902Y-106568973D01*
X128977521Y-106140401D02*
X129025140Y-106045163D01*
X129025140Y-105854687D01*
X128977521Y-105759449D01*
X128882283Y-105711830D01*
X128834664Y-105711830D01*
X128739426Y-105759449D01*
X128691807Y-105854687D01*
X128691807Y-105997544D01*
X128644188Y-106092782D01*
X128548950Y-106140401D01*
X128501331Y-106140401D01*
X128406093Y-106092782D01*
X128358474Y-105997544D01*
X128358474Y-105854687D01*
X128406093Y-105759449D01*
X129025140Y-105283259D02*
X128025140Y-105283259D01*
X128406093Y-105283259D02*
X128358474Y-105188020D01*
X128358474Y-104997544D01*
X128406093Y-104902306D01*
X128453712Y-104854687D01*
X128548950Y-104807068D01*
X128834664Y-104807068D01*
X128929902Y-104854687D01*
X128977521Y-104902306D01*
X129025140Y-104997544D01*
X129025140Y-105188020D01*
X128977521Y-105283259D01*
X129025140Y-103949925D02*
X128501331Y-103949925D01*
X128406093Y-103997544D01*
X128358474Y-104092782D01*
X128358474Y-104283259D01*
X128406093Y-104378497D01*
X128977521Y-103949925D02*
X129025140Y-104045163D01*
X129025140Y-104283259D01*
X128977521Y-104378497D01*
X128882283Y-104426116D01*
X128787045Y-104426116D01*
X128691807Y-104378497D01*
X128644188Y-104283259D01*
X128644188Y-104045163D01*
X128596569Y-103949925D01*
X128977521Y-103521354D02*
X129025140Y-103426116D01*
X129025140Y-103235640D01*
X128977521Y-103140401D01*
X128882283Y-103092782D01*
X128834664Y-103092782D01*
X128739426Y-103140401D01*
X128691807Y-103235640D01*
X128691807Y-103378497D01*
X128644188Y-103473735D01*
X128548950Y-103521354D01*
X128501331Y-103521354D01*
X128406093Y-103473735D01*
X128358474Y-103378497D01*
X128358474Y-103235640D01*
X128406093Y-103140401D01*
X128358474Y-102664211D02*
X129358474Y-102664211D01*
X128406093Y-102664211D02*
X128358474Y-102568973D01*
X128358474Y-102378497D01*
X128406093Y-102283259D01*
X128453712Y-102235640D01*
X128548950Y-102188020D01*
X128834664Y-102188020D01*
X128929902Y-102235640D01*
X128977521Y-102283259D01*
X129025140Y-102378497D01*
X129025140Y-102568973D01*
X128977521Y-102664211D01*
X128358474Y-100997544D02*
X129358474Y-100997544D01*
X128406093Y-100997544D02*
X128358474Y-100902306D01*
X128358474Y-100711830D01*
X128406093Y-100616592D01*
X128453712Y-100568973D01*
X128548950Y-100521354D01*
X128834664Y-100521354D01*
X128929902Y-100568973D01*
X128977521Y-100616592D01*
X129025140Y-100711830D01*
X129025140Y-100902306D01*
X128977521Y-100997544D01*
X129025140Y-100092782D02*
X128358474Y-100092782D01*
X128548950Y-100092782D02*
X128453712Y-100045163D01*
X128406093Y-99997544D01*
X128358474Y-99902306D01*
X128358474Y-99807068D01*
X129025140Y-99330878D02*
X128977521Y-99426116D01*
X128929902Y-99473735D01*
X128834664Y-99521354D01*
X128548950Y-99521354D01*
X128453712Y-99473735D01*
X128406093Y-99426116D01*
X128358474Y-99330878D01*
X128358474Y-99188020D01*
X128406093Y-99092782D01*
X128453712Y-99045163D01*
X128548950Y-98997544D01*
X128834664Y-98997544D01*
X128929902Y-99045163D01*
X128977521Y-99092782D01*
X129025140Y-99188020D01*
X129025140Y-99330878D01*
X128358474Y-98140401D02*
X129167998Y-98140401D01*
X129263236Y-98188020D01*
X129310855Y-98235640D01*
X129358474Y-98330878D01*
X129358474Y-98473735D01*
X129310855Y-98568973D01*
X128977521Y-98140401D02*
X129025140Y-98235640D01*
X129025140Y-98426116D01*
X128977521Y-98521354D01*
X128929902Y-98568973D01*
X128834664Y-98616592D01*
X128548950Y-98616592D01*
X128453712Y-98568973D01*
X128406093Y-98521354D01*
X128358474Y-98426116D01*
X128358474Y-98235640D01*
X128406093Y-98140401D01*
X129025140Y-97664211D02*
X128358474Y-97664211D01*
X128548950Y-97664211D02*
X128453712Y-97616592D01*
X128406093Y-97568973D01*
X128358474Y-97473735D01*
X128358474Y-97378497D01*
X129025140Y-96616592D02*
X128501331Y-96616592D01*
X128406093Y-96664211D01*
X128358474Y-96759449D01*
X128358474Y-96949925D01*
X128406093Y-97045163D01*
X128977521Y-96616592D02*
X129025140Y-96711830D01*
X129025140Y-96949925D01*
X128977521Y-97045163D01*
X128882283Y-97092782D01*
X128787045Y-97092782D01*
X128691807Y-97045163D01*
X128644188Y-96949925D01*
X128644188Y-96711830D01*
X128596569Y-96616592D01*
X129025140Y-96140401D02*
X128358474Y-96140401D01*
X128453712Y-96140401D02*
X128406093Y-96092782D01*
X128358474Y-95997544D01*
X128358474Y-95854687D01*
X128406093Y-95759449D01*
X128501331Y-95711830D01*
X129025140Y-95711830D01*
X128501331Y-95711830D02*
X128406093Y-95664211D01*
X128358474Y-95568973D01*
X128358474Y-95426116D01*
X128406093Y-95330878D01*
X128501331Y-95283259D01*
X129025140Y-95283259D01*
X129025140Y-94807068D02*
X128358474Y-94807068D01*
X128453712Y-94807068D02*
X128406093Y-94759449D01*
X128358474Y-94664211D01*
X128358474Y-94521354D01*
X128406093Y-94426116D01*
X128501331Y-94378497D01*
X129025140Y-94378497D01*
X128501331Y-94378497D02*
X128406093Y-94330878D01*
X128358474Y-94235640D01*
X128358474Y-94092782D01*
X128406093Y-93997544D01*
X128501331Y-93949925D01*
X129025140Y-93949925D01*
X128977521Y-93092782D02*
X129025140Y-93188020D01*
X129025140Y-93378497D01*
X128977521Y-93473735D01*
X128882283Y-93521354D01*
X128501331Y-93521354D01*
X128406093Y-93473735D01*
X128358474Y-93378497D01*
X128358474Y-93188020D01*
X128406093Y-93092782D01*
X128501331Y-93045163D01*
X128596569Y-93045163D01*
X128691807Y-93521354D01*
X129025140Y-92616592D02*
X128358474Y-92616592D01*
X128548950Y-92616592D02*
X128453712Y-92568973D01*
X128406093Y-92521354D01*
X128358474Y-92426116D01*
X128358474Y-92330878D01*
X130675140Y-103521354D02*
X129675140Y-103521354D01*
X130056093Y-103521354D02*
X130008474Y-103426116D01*
X130008474Y-103235640D01*
X130056093Y-103140401D01*
X130103712Y-103092782D01*
X130198950Y-103045163D01*
X130484664Y-103045163D01*
X130579902Y-103092782D01*
X130627521Y-103140401D01*
X130675140Y-103235640D01*
X130675140Y-103426116D01*
X130627521Y-103521354D01*
X130008474Y-102711830D02*
X130675140Y-102473735D01*
X130008474Y-102235640D02*
X130675140Y-102473735D01*
X130913236Y-102568973D01*
X130960855Y-102616592D01*
X131008474Y-102711830D01*
X130389426Y-101140401D02*
X130389426Y-100664211D01*
X130675140Y-101235640D02*
X129675140Y-100902306D01*
X130675140Y-100568973D01*
X130627521Y-100283259D02*
X130675140Y-100140401D01*
X130675140Y-99902306D01*
X130627521Y-99807068D01*
X130579902Y-99759449D01*
X130484664Y-99711830D01*
X130389426Y-99711830D01*
X130294188Y-99759449D01*
X130246569Y-99807068D01*
X130198950Y-99902306D01*
X130151331Y-100092782D01*
X130103712Y-100188020D01*
X130056093Y-100235640D01*
X129960855Y-100283259D01*
X129865617Y-100283259D01*
X129770379Y-100235640D01*
X129722760Y-100188020D01*
X129675140Y-100092782D01*
X129675140Y-99854687D01*
X129722760Y-99711830D01*
X129675140Y-99378497D02*
X129675140Y-98711830D01*
X130675140Y-99140401D01*
X130151331Y-98330878D02*
X130151331Y-97997544D01*
X130675140Y-97854687D02*
X130675140Y-98330878D01*
X129675140Y-98330878D01*
X129675140Y-97854687D01*
X130770379Y-96759449D02*
X130722760Y-96854687D01*
X130627521Y-96949925D01*
X130484664Y-97092782D01*
X130437045Y-97188020D01*
X130437045Y-97283259D01*
X130675140Y-97235640D02*
X130627521Y-97330878D01*
X130532283Y-97426116D01*
X130341807Y-97473735D01*
X130008474Y-97473735D01*
X129817998Y-97426116D01*
X129722760Y-97330878D01*
X129675140Y-97235640D01*
X129675140Y-97045163D01*
X129722760Y-96949925D01*
X129817998Y-96854687D01*
X130008474Y-96807068D01*
X130341807Y-96807068D01*
X130532283Y-96854687D01*
X130627521Y-96949925D01*
X130675140Y-97045163D01*
X130675140Y-97235640D01*
X130151331Y-96378497D02*
X130151331Y-96045163D01*
X130675140Y-95902306D02*
X130675140Y-96378497D01*
X129675140Y-96378497D01*
X129675140Y-95902306D01*
D11*
X136959000Y-92969600D02*
X136699000Y-92969600D01*
X134419000Y-92969600D02*
X132649000Y-92969600D01*
X132649000Y-92969600D02*
X132649000Y-92589600D01*
X132649000Y-85349600D02*
X134419000Y-85349600D01*
X136699000Y-85349600D02*
X136959000Y-85349600D01*
X132649000Y-85349600D02*
X132649000Y-85729600D01*
X112218000Y-89467700D02*
G75*
G03X106818000Y-89467700I-2700000J0D01*
G01*
X112218000Y-94467700D02*
G75*
G02X106818000Y-94467700I-2700000J0D01*
G01*
X112218000Y-94467700D02*
X112218000Y-89467700D01*
X106818000Y-94467700D02*
X106818000Y-89467700D01*
X67516000Y-103155000D02*
X66016000Y-103155000D01*
X63516000Y-104405000D02*
X63516000Y-108905000D01*
X66016000Y-110155000D02*
X67516000Y-110155000D01*
X70016000Y-108905000D02*
X70016000Y-104405000D01*
X114936000Y-93031600D02*
X120176000Y-93031600D01*
X114936000Y-95771600D02*
X120176000Y-95771600D01*
X114936000Y-93031600D02*
X114936000Y-93346600D01*
X114936000Y-95456600D02*
X114936000Y-95771600D01*
X120176000Y-93031600D02*
X120176000Y-93346600D01*
X120176000Y-95456600D02*
X120176000Y-95771600D01*
X120287000Y-90422400D02*
X120287000Y-90737400D01*
X120287000Y-87997400D02*
X120287000Y-88312400D01*
X115047000Y-90422400D02*
X115047000Y-90737400D01*
X115047000Y-87997400D02*
X115047000Y-88312400D01*
X115047000Y-90737400D02*
X120287000Y-90737400D01*
X115047000Y-87997400D02*
X120287000Y-87997400D01*
X128963000Y-75359800D02*
X128963000Y-68119800D01*
X131703000Y-75359800D02*
X131703000Y-68119800D01*
X128963000Y-75359800D02*
X131703000Y-75359800D01*
X128963000Y-68119800D02*
X131703000Y-68119800D01*
X123803000Y-108880000D02*
G75*
G03X123803000Y-108880000I-2620000J0D01*
G01*
X118603000Y-108880000D02*
X123763000Y-108880000D01*
X118603000Y-108840000D02*
X123763000Y-108840000D01*
X118604000Y-108800000D02*
X123762000Y-108800000D01*
X118605000Y-108760000D02*
X123761000Y-108760000D01*
X118607000Y-108720000D02*
X123759000Y-108720000D01*
X118610000Y-108680000D02*
X123756000Y-108680000D01*
X118614000Y-108640000D02*
X120143000Y-108640000D01*
X122223000Y-108640000D02*
X123752000Y-108640000D01*
X118618000Y-108600000D02*
X120143000Y-108600000D01*
X122223000Y-108600000D02*
X123748000Y-108600000D01*
X118622000Y-108560000D02*
X120143000Y-108560000D01*
X122223000Y-108560000D02*
X123744000Y-108560000D01*
X118627000Y-108520000D02*
X120143000Y-108520000D01*
X122223000Y-108520000D02*
X123739000Y-108520000D01*
X118633000Y-108480000D02*
X120143000Y-108480000D01*
X122223000Y-108480000D02*
X123733000Y-108480000D01*
X118640000Y-108440000D02*
X120143000Y-108440000D01*
X122223000Y-108440000D02*
X123726000Y-108440000D01*
X118647000Y-108400000D02*
X120143000Y-108400000D01*
X122223000Y-108400000D02*
X123719000Y-108400000D01*
X118655000Y-108360000D02*
X120143000Y-108360000D01*
X122223000Y-108360000D02*
X123711000Y-108360000D01*
X118663000Y-108320000D02*
X120143000Y-108320000D01*
X122223000Y-108320000D02*
X123703000Y-108320000D01*
X118672000Y-108280000D02*
X120143000Y-108280000D01*
X122223000Y-108280000D02*
X123694000Y-108280000D01*
X118682000Y-108240000D02*
X120143000Y-108240000D01*
X122223000Y-108240000D02*
X123684000Y-108240000D01*
X118692000Y-108200000D02*
X120143000Y-108200000D01*
X122223000Y-108200000D02*
X123674000Y-108200000D01*
X118703000Y-108159000D02*
X120143000Y-108159000D01*
X122223000Y-108159000D02*
X123663000Y-108159000D01*
X118715000Y-108119000D02*
X120143000Y-108119000D01*
X122223000Y-108119000D02*
X123651000Y-108119000D01*
X118728000Y-108079000D02*
X120143000Y-108079000D01*
X122223000Y-108079000D02*
X123638000Y-108079000D01*
X118741000Y-108039000D02*
X120143000Y-108039000D01*
X122223000Y-108039000D02*
X123625000Y-108039000D01*
X118755000Y-107999000D02*
X120143000Y-107999000D01*
X122223000Y-107999000D02*
X123611000Y-107999000D01*
X118769000Y-107959000D02*
X120143000Y-107959000D01*
X122223000Y-107959000D02*
X123597000Y-107959000D01*
X118785000Y-107919000D02*
X120143000Y-107919000D01*
X122223000Y-107919000D02*
X123581000Y-107919000D01*
X118801000Y-107879000D02*
X120143000Y-107879000D01*
X122223000Y-107879000D02*
X123565000Y-107879000D01*
X118818000Y-107839000D02*
X120143000Y-107839000D01*
X122223000Y-107839000D02*
X123548000Y-107839000D01*
X118835000Y-107799000D02*
X120143000Y-107799000D01*
X122223000Y-107799000D02*
X123531000Y-107799000D01*
X118854000Y-107759000D02*
X120143000Y-107759000D01*
X122223000Y-107759000D02*
X123512000Y-107759000D01*
X118873000Y-107719000D02*
X120143000Y-107719000D01*
X122223000Y-107719000D02*
X123493000Y-107719000D01*
X118893000Y-107679000D02*
X120143000Y-107679000D01*
X122223000Y-107679000D02*
X123473000Y-107679000D01*
X118915000Y-107639000D02*
X120143000Y-107639000D01*
X122223000Y-107639000D02*
X123451000Y-107639000D01*
X118936000Y-107599000D02*
X120143000Y-107599000D01*
X122223000Y-107599000D02*
X123430000Y-107599000D01*
X118959000Y-107559000D02*
X120143000Y-107559000D01*
X122223000Y-107559000D02*
X123407000Y-107559000D01*
X118983000Y-107519000D02*
X120143000Y-107519000D01*
X122223000Y-107519000D02*
X123383000Y-107519000D01*
X119008000Y-107479000D02*
X120143000Y-107479000D01*
X122223000Y-107479000D02*
X123358000Y-107479000D01*
X119034000Y-107439000D02*
X120143000Y-107439000D01*
X122223000Y-107439000D02*
X123332000Y-107439000D01*
X119061000Y-107399000D02*
X120143000Y-107399000D01*
X122223000Y-107399000D02*
X123305000Y-107399000D01*
X119088000Y-107359000D02*
X120143000Y-107359000D01*
X122223000Y-107359000D02*
X123278000Y-107359000D01*
X119118000Y-107319000D02*
X120143000Y-107319000D01*
X122223000Y-107319000D02*
X123248000Y-107319000D01*
X119148000Y-107279000D02*
X120143000Y-107279000D01*
X122223000Y-107279000D02*
X123218000Y-107279000D01*
X119179000Y-107239000D02*
X120143000Y-107239000D01*
X122223000Y-107239000D02*
X123187000Y-107239000D01*
X119212000Y-107199000D02*
X120143000Y-107199000D01*
X122223000Y-107199000D02*
X123154000Y-107199000D01*
X119246000Y-107159000D02*
X120143000Y-107159000D01*
X122223000Y-107159000D02*
X123120000Y-107159000D01*
X119282000Y-107119000D02*
X120143000Y-107119000D01*
X122223000Y-107119000D02*
X123084000Y-107119000D01*
X119319000Y-107079000D02*
X120143000Y-107079000D01*
X122223000Y-107079000D02*
X123047000Y-107079000D01*
X119357000Y-107039000D02*
X120143000Y-107039000D01*
X122223000Y-107039000D02*
X123009000Y-107039000D01*
X119398000Y-106999000D02*
X120143000Y-106999000D01*
X122223000Y-106999000D02*
X122968000Y-106999000D01*
X119440000Y-106959000D02*
X120143000Y-106959000D01*
X122223000Y-106959000D02*
X122926000Y-106959000D01*
X119484000Y-106919000D02*
X120143000Y-106919000D01*
X122223000Y-106919000D02*
X122882000Y-106919000D01*
X119530000Y-106879000D02*
X120143000Y-106879000D01*
X122223000Y-106879000D02*
X122836000Y-106879000D01*
X119578000Y-106839000D02*
X120143000Y-106839000D01*
X122223000Y-106839000D02*
X122788000Y-106839000D01*
X119629000Y-106799000D02*
X120143000Y-106799000D01*
X122223000Y-106799000D02*
X122737000Y-106799000D01*
X119683000Y-106759000D02*
X120143000Y-106759000D01*
X122223000Y-106759000D02*
X122683000Y-106759000D01*
X119740000Y-106719000D02*
X120143000Y-106719000D01*
X122223000Y-106719000D02*
X122626000Y-106719000D01*
X119800000Y-106679000D02*
X120143000Y-106679000D01*
X122223000Y-106679000D02*
X122566000Y-106679000D01*
X119864000Y-106639000D02*
X120143000Y-106639000D01*
X122223000Y-106639000D02*
X122502000Y-106639000D01*
X119932000Y-106599000D02*
X120143000Y-106599000D01*
X122223000Y-106599000D02*
X122434000Y-106599000D01*
X120005000Y-106559000D02*
X122361000Y-106559000D01*
X120085000Y-106519000D02*
X122281000Y-106519000D01*
X120172000Y-106479000D02*
X122194000Y-106479000D01*
X120268000Y-106439000D02*
X122098000Y-106439000D01*
X120378000Y-106399000D02*
X121988000Y-106399000D01*
X120506000Y-106359000D02*
X121860000Y-106359000D01*
X120665000Y-106319000D02*
X121701000Y-106319000D01*
X120899000Y-106279000D02*
X121467000Y-106279000D01*
X119708000Y-111684775D02*
X119708000Y-111184775D01*
X119458000Y-111434775D02*
X119958000Y-111434775D01*
X95425000Y-111750000D02*
X95425000Y-109010000D01*
X102665000Y-111750000D02*
X102665000Y-109010000D01*
X102665000Y-109010000D02*
X95425000Y-109010000D01*
X102665000Y-111750000D02*
X95425000Y-111750000D01*
X117923000Y-74369800D02*
X120163000Y-74369800D01*
X117923000Y-74129800D02*
X120163000Y-74129800D01*
X117923000Y-74249800D02*
X120163000Y-74249800D01*
X119043000Y-70079800D02*
X119043000Y-70729800D01*
X119043000Y-75619800D02*
X119043000Y-74969800D01*
X117923000Y-70729800D02*
X117923000Y-74969800D01*
X120163000Y-70729800D02*
X117923000Y-70729800D01*
X120163000Y-74969800D02*
X120163000Y-70729800D01*
X117923000Y-74969800D02*
X120163000Y-74969800D01*
X123443000Y-74969800D02*
X125683000Y-74969800D01*
X125683000Y-74969800D02*
X125683000Y-70729800D01*
X125683000Y-70729800D02*
X123443000Y-70729800D01*
X123443000Y-70729800D02*
X123443000Y-74969800D01*
X124563000Y-75619800D02*
X124563000Y-74969800D01*
X124563000Y-70079800D02*
X124563000Y-70729800D01*
X123443000Y-74249800D02*
X125683000Y-74249800D01*
X123443000Y-74129800D02*
X125683000Y-74129800D01*
X123443000Y-74369800D02*
X125683000Y-74369800D01*
X75393192Y-79818165D02*
G75*
G03X75236284Y-83050500I1078608J-1672335D01*
G01*
X77550408Y-79818165D02*
G75*
G02X77707316Y-83050500I-1078608J-1672335D01*
G01*
X75391963Y-80449370D02*
G75*
G03X75391800Y-82531461I1079837J-1041130D01*
G01*
X77551637Y-80449370D02*
G75*
G02X77551800Y-82531461I-1079837J-1041130D01*
G01*
X75235800Y-83050500D02*
X75391800Y-83050500D01*
X77551800Y-83050500D02*
X77707800Y-83050500D01*
X84679800Y-83050500D02*
X84835800Y-83050500D01*
X82363800Y-83050500D02*
X82519800Y-83050500D01*
X84679637Y-80449370D02*
G75*
G02X84679800Y-82531461I-1079837J-1041130D01*
G01*
X82519963Y-80449370D02*
G75*
G03X82519800Y-82531461I1079837J-1041130D01*
G01*
X84678408Y-79818165D02*
G75*
G02X84835316Y-83050500I-1078608J-1672335D01*
G01*
X82521192Y-79818165D02*
G75*
G03X82364284Y-83050500I1078608J-1672335D01*
G01*
X107633000Y-109010000D02*
X107633000Y-111250000D01*
X107633000Y-111250000D02*
X111873000Y-111250000D01*
X111873000Y-111250000D02*
X111873000Y-109010000D01*
X111873000Y-109010000D02*
X107633000Y-109010000D01*
X106983000Y-110130000D02*
X107633000Y-110130000D01*
X112523000Y-110130000D02*
X111873000Y-110130000D01*
X108353000Y-109010000D02*
X108353000Y-111250000D01*
X108473000Y-109010000D02*
X108473000Y-111250000D01*
X108233000Y-109010000D02*
X108233000Y-111250000D01*
X73523800Y-105045000D02*
X74853800Y-105045000D01*
X73523800Y-106375000D02*
X73523800Y-105045000D01*
X73523800Y-107645000D02*
X76183800Y-107645000D01*
X76183800Y-107645000D02*
X76183800Y-110245000D01*
X73523800Y-107645000D02*
X73523800Y-110245000D01*
X73523800Y-110245000D02*
X76183800Y-110245000D01*
X68492500Y-76450700D02*
X68492500Y-97310700D01*
X68492500Y-97310700D02*
X59142500Y-97310700D01*
X59142500Y-97310700D02*
X59142500Y-76450700D01*
X59142500Y-76450700D02*
X68492500Y-76450700D01*
X58892500Y-76200700D02*
X58892500Y-78740700D01*
X58892500Y-76200700D02*
X61432500Y-76200700D01*
X72065100Y-99816100D02*
X74725100Y-99816100D01*
X72065100Y-97216100D02*
X72065100Y-99816100D01*
X74725100Y-97216100D02*
X74725100Y-99816100D01*
X72065100Y-97216100D02*
X74725100Y-97216100D01*
X72065100Y-95946100D02*
X72065100Y-94616100D01*
X72065100Y-94616100D02*
X73395100Y-94616100D01*
X89661000Y-99826100D02*
X88331000Y-99826100D01*
X89661000Y-98496100D02*
X89661000Y-99826100D01*
X89661000Y-97226100D02*
X87001000Y-97226100D01*
X87001000Y-97226100D02*
X87001000Y-94626100D01*
X89661000Y-97226100D02*
X89661000Y-94626100D01*
X89661000Y-94626100D02*
X87001000Y-94626100D01*
X82193100Y-94626100D02*
X79533100Y-94626100D01*
X82193100Y-97226100D02*
X82193100Y-94626100D01*
X79533100Y-97226100D02*
X79533100Y-94626100D01*
X82193100Y-97226100D02*
X79533100Y-97226100D01*
X82193100Y-98496100D02*
X82193100Y-99826100D01*
X82193100Y-99826100D02*
X80863100Y-99826100D01*
X85401400Y-109340000D02*
X85401400Y-109010000D01*
X85401400Y-109010000D02*
X91941400Y-109010000D01*
X91941400Y-109010000D02*
X91941400Y-109340000D01*
X85401400Y-111420000D02*
X85401400Y-111750000D01*
X85401400Y-111750000D02*
X91941400Y-111750000D01*
X91941400Y-111750000D02*
X91941400Y-111420000D01*
X108622000Y-69579800D02*
X108292000Y-69579800D01*
X108622000Y-76119800D02*
X108622000Y-69579800D01*
X108292000Y-76119800D02*
X108622000Y-76119800D01*
X105882000Y-69579800D02*
X106212000Y-69579800D01*
X105882000Y-76119800D02*
X105882000Y-69579800D01*
X106212000Y-76119800D02*
X105882000Y-76119800D01*
X124042000Y-82726200D02*
X124042000Y-82396200D01*
X117502000Y-82726200D02*
X124042000Y-82726200D01*
X117502000Y-82396200D02*
X117502000Y-82726200D01*
X124042000Y-79986200D02*
X124042000Y-80316200D01*
X117502000Y-79986200D02*
X124042000Y-79986200D01*
X117502000Y-80316200D02*
X117502000Y-79986200D01*
X114312000Y-69579800D02*
X114642000Y-69579800D01*
X114642000Y-69579800D02*
X114642000Y-76119800D01*
X114642000Y-76119800D02*
X114312000Y-76119800D01*
X112232000Y-69579800D02*
X111902000Y-69579800D01*
X111902000Y-69579800D02*
X111902000Y-76119800D01*
X111902000Y-76119800D02*
X112232000Y-76119800D01*
X75101800Y-76119800D02*
X75431800Y-76119800D01*
X75101800Y-69579800D02*
X75101800Y-76119800D01*
X75431800Y-69579800D02*
X75101800Y-69579800D01*
X77841800Y-76119800D02*
X77511800Y-76119800D01*
X77841800Y-69579800D02*
X77841800Y-76119800D01*
X77511800Y-69579800D02*
X77841800Y-69579800D01*
X84639800Y-69579800D02*
X84969800Y-69579800D01*
X84969800Y-69579800D02*
X84969800Y-76119800D01*
X84969800Y-76119800D02*
X84639800Y-76119800D01*
X82559800Y-69579800D02*
X82229800Y-69579800D01*
X82229800Y-69579800D02*
X82229800Y-76119800D01*
X82229800Y-76119800D02*
X82559800Y-76119800D01*
X79280000Y-105221000D02*
X79280000Y-104891000D01*
X79280000Y-104891000D02*
X85820000Y-104891000D01*
X85820000Y-104891000D02*
X85820000Y-105221000D01*
X79280000Y-107301000D02*
X79280000Y-107631000D01*
X79280000Y-107631000D02*
X85820000Y-107631000D01*
X85820000Y-107631000D02*
X85820000Y-107301000D01*
X97389000Y-105805000D02*
G75*
G02X99389000Y-105805000I1000000J0D01*
G01*
X99389000Y-105805000D02*
X101039000Y-105805000D01*
X101039000Y-105805000D02*
X101039000Y-70125000D01*
X101039000Y-70125000D02*
X95739000Y-70125000D01*
X95739000Y-70125000D02*
X95739000Y-105805000D01*
X95739000Y-105805000D02*
X97389000Y-105805000D01*
D10*
X130511380Y-89492933D02*
X131225666Y-89492933D01*
X131368523Y-89540552D01*
X131463761Y-89635790D01*
X131511380Y-89778647D01*
X131511380Y-89873885D01*
X131511380Y-88492933D02*
X131511380Y-89064361D01*
X131511380Y-88778647D02*
X130511380Y-88778647D01*
X130654238Y-88873885D01*
X130749476Y-88969123D01*
X130797095Y-89064361D01*
X105794190Y-92443890D02*
X106270380Y-92443890D01*
X105270380Y-92777223D02*
X105794190Y-92443890D01*
X105270380Y-92110557D01*
X106270380Y-91253414D02*
X106270380Y-91824842D01*
X106270380Y-91539128D02*
X105270380Y-91539128D01*
X105413238Y-91634366D01*
X105508476Y-91729604D01*
X105556095Y-91824842D01*
X62920761Y-107988333D02*
X62968380Y-107845476D01*
X62968380Y-107607380D01*
X62920761Y-107512142D01*
X62873142Y-107464523D01*
X62777904Y-107416904D01*
X62682666Y-107416904D01*
X62587428Y-107464523D01*
X62539809Y-107512142D01*
X62492190Y-107607380D01*
X62444571Y-107797857D01*
X62396952Y-107893095D01*
X62349333Y-107940714D01*
X62254095Y-107988333D01*
X62158857Y-107988333D01*
X62063619Y-107940714D01*
X62016000Y-107893095D01*
X61968380Y-107797857D01*
X61968380Y-107559761D01*
X62016000Y-107416904D01*
X61968380Y-107083571D02*
X62968380Y-106845476D01*
X62254095Y-106655000D01*
X62968380Y-106464523D01*
X61968380Y-106226428D01*
X62968380Y-105321666D02*
X62968380Y-105893095D01*
X62968380Y-105607380D02*
X61968380Y-105607380D01*
X62111238Y-105702619D01*
X62206476Y-105797857D01*
X62254095Y-105893095D01*
X117389333Y-92258742D02*
X117341714Y-92306361D01*
X117198857Y-92353980D01*
X117103619Y-92353980D01*
X116960761Y-92306361D01*
X116865523Y-92211123D01*
X116817904Y-92115885D01*
X116770285Y-91925409D01*
X116770285Y-91782552D01*
X116817904Y-91592076D01*
X116865523Y-91496838D01*
X116960761Y-91401600D01*
X117103619Y-91353980D01*
X117198857Y-91353980D01*
X117341714Y-91401600D01*
X117389333Y-91449219D01*
X118341714Y-92353980D02*
X117770285Y-92353980D01*
X118056000Y-92353980D02*
X118056000Y-91353980D01*
X117960761Y-91496838D01*
X117865523Y-91592076D01*
X117770285Y-91639695D01*
X117500333Y-87224542D02*
X117452714Y-87272161D01*
X117309857Y-87319780D01*
X117214619Y-87319780D01*
X117071761Y-87272161D01*
X116976523Y-87176923D01*
X116928904Y-87081685D01*
X116881285Y-86891209D01*
X116881285Y-86748352D01*
X116928904Y-86557876D01*
X116976523Y-86462638D01*
X117071761Y-86367400D01*
X117214619Y-86319780D01*
X117309857Y-86319780D01*
X117452714Y-86367400D01*
X117500333Y-86415019D01*
X117881285Y-86415019D02*
X117928904Y-86367400D01*
X118024142Y-86319780D01*
X118262238Y-86319780D01*
X118357476Y-86367400D01*
X118405095Y-86415019D01*
X118452714Y-86510257D01*
X118452714Y-86605495D01*
X118405095Y-86748352D01*
X117833666Y-87319780D01*
X118452714Y-87319780D01*
X128190142Y-71906466D02*
X128237761Y-71954085D01*
X128285380Y-72096942D01*
X128285380Y-72192180D01*
X128237761Y-72335038D01*
X128142523Y-72430276D01*
X128047285Y-72477895D01*
X127856809Y-72525514D01*
X127713952Y-72525514D01*
X127523476Y-72477895D01*
X127428238Y-72430276D01*
X127333000Y-72335038D01*
X127285380Y-72192180D01*
X127285380Y-72096942D01*
X127333000Y-71954085D01*
X127380619Y-71906466D01*
X127285380Y-71573133D02*
X127285380Y-70954085D01*
X127666333Y-71287419D01*
X127666333Y-71144561D01*
X127713952Y-71049323D01*
X127761571Y-71001704D01*
X127856809Y-70954085D01*
X128094904Y-70954085D01*
X128190142Y-71001704D01*
X128237761Y-71049323D01*
X128285380Y-71144561D01*
X128285380Y-71430276D01*
X128237761Y-71525514D01*
X128190142Y-71573133D01*
X117790142Y-109046666D02*
X117837761Y-109094285D01*
X117885380Y-109237142D01*
X117885380Y-109332380D01*
X117837761Y-109475238D01*
X117742523Y-109570476D01*
X117647285Y-109618095D01*
X117456809Y-109665714D01*
X117313952Y-109665714D01*
X117123476Y-109618095D01*
X117028238Y-109570476D01*
X116933000Y-109475238D01*
X116885380Y-109332380D01*
X116885380Y-109237142D01*
X116933000Y-109094285D01*
X116980619Y-109046666D01*
X117218714Y-108189523D02*
X117885380Y-108189523D01*
X116837761Y-108427619D02*
X117552047Y-108665714D01*
X117552047Y-108046666D01*
X98878333Y-113237142D02*
X98830714Y-113284761D01*
X98687857Y-113332380D01*
X98592619Y-113332380D01*
X98449761Y-113284761D01*
X98354523Y-113189523D01*
X98306904Y-113094285D01*
X98259285Y-112903809D01*
X98259285Y-112760952D01*
X98306904Y-112570476D01*
X98354523Y-112475238D01*
X98449761Y-112380000D01*
X98592619Y-112332380D01*
X98687857Y-112332380D01*
X98830714Y-112380000D01*
X98878333Y-112427619D01*
X99783095Y-112332380D02*
X99306904Y-112332380D01*
X99259285Y-112808571D01*
X99306904Y-112760952D01*
X99402142Y-112713333D01*
X99640238Y-112713333D01*
X99735476Y-112760952D01*
X99783095Y-112808571D01*
X99830714Y-112903809D01*
X99830714Y-113141904D01*
X99783095Y-113237142D01*
X99735476Y-113284761D01*
X99640238Y-113332380D01*
X99402142Y-113332380D01*
X99306904Y-113284761D01*
X99259285Y-113237142D01*
X117375380Y-73587895D02*
X116375380Y-73587895D01*
X116375380Y-73349800D01*
X116423000Y-73206942D01*
X116518238Y-73111704D01*
X116613476Y-73064085D01*
X116803952Y-73016466D01*
X116946809Y-73016466D01*
X117137285Y-73064085D01*
X117232523Y-73111704D01*
X117327761Y-73206942D01*
X117375380Y-73349800D01*
X117375380Y-73587895D01*
X117375380Y-72064085D02*
X117375380Y-72635514D01*
X117375380Y-72349800D02*
X116375380Y-72349800D01*
X116518238Y-72445038D01*
X116613476Y-72540276D01*
X116661095Y-72635514D01*
X117695380Y-76921704D02*
X116695380Y-76921704D01*
X117695380Y-76350276D02*
X117123952Y-76778847D01*
X116695380Y-76350276D02*
X117266809Y-76921704D01*
X122895380Y-73587895D02*
X121895380Y-73587895D01*
X121895380Y-73349800D01*
X121943000Y-73206942D01*
X122038238Y-73111704D01*
X122133476Y-73064085D01*
X122323952Y-73016466D01*
X122466809Y-73016466D01*
X122657285Y-73064085D01*
X122752523Y-73111704D01*
X122847761Y-73206942D01*
X122895380Y-73349800D01*
X122895380Y-73587895D01*
X121990619Y-72635514D02*
X121943000Y-72587895D01*
X121895380Y-72492657D01*
X121895380Y-72254561D01*
X121943000Y-72159323D01*
X121990619Y-72111704D01*
X122085857Y-72064085D01*
X122181095Y-72064085D01*
X122323952Y-72111704D01*
X122895380Y-72683133D01*
X122895380Y-72064085D01*
X123215380Y-76921704D02*
X122215380Y-76921704D01*
X123215380Y-76350276D02*
X122643952Y-76778847D01*
X122215380Y-76350276D02*
X122786809Y-76921704D01*
X73964180Y-82228595D02*
X72964180Y-82228595D01*
X72964180Y-81990500D01*
X73011800Y-81847642D01*
X73107038Y-81752404D01*
X73202276Y-81704785D01*
X73392752Y-81657166D01*
X73535609Y-81657166D01*
X73726085Y-81704785D01*
X73821323Y-81752404D01*
X73916561Y-81847642D01*
X73964180Y-81990500D01*
X73964180Y-82228595D01*
X72964180Y-81323833D02*
X72964180Y-80704785D01*
X73345133Y-81038119D01*
X73345133Y-80895261D01*
X73392752Y-80800023D01*
X73440371Y-80752404D01*
X73535609Y-80704785D01*
X73773704Y-80704785D01*
X73868942Y-80752404D01*
X73916561Y-80800023D01*
X73964180Y-80895261D01*
X73964180Y-81180976D01*
X73916561Y-81276214D01*
X73868942Y-81323833D01*
X81092180Y-82228595D02*
X80092180Y-82228595D01*
X80092180Y-81990500D01*
X80139800Y-81847642D01*
X80235038Y-81752404D01*
X80330276Y-81704785D01*
X80520752Y-81657166D01*
X80663609Y-81657166D01*
X80854085Y-81704785D01*
X80949323Y-81752404D01*
X81044561Y-81847642D01*
X81092180Y-81990500D01*
X81092180Y-82228595D01*
X80425514Y-80800023D02*
X81092180Y-80800023D01*
X80044561Y-81038119D02*
X80758847Y-81276214D01*
X80758847Y-80657166D01*
X109014904Y-108462380D02*
X109014904Y-107462380D01*
X109253000Y-107462380D01*
X109395857Y-107510000D01*
X109491095Y-107605238D01*
X109538714Y-107700476D01*
X109586333Y-107890952D01*
X109586333Y-108033809D01*
X109538714Y-108224285D01*
X109491095Y-108319523D01*
X109395857Y-108414761D01*
X109253000Y-108462380D01*
X109014904Y-108462380D01*
X110491095Y-107462380D02*
X110014904Y-107462380D01*
X109967285Y-107938571D01*
X110014904Y-107890952D01*
X110110142Y-107843333D01*
X110348238Y-107843333D01*
X110443476Y-107890952D01*
X110491095Y-107938571D01*
X110538714Y-108033809D01*
X110538714Y-108271904D01*
X110491095Y-108367142D01*
X110443476Y-108414761D01*
X110348238Y-108462380D01*
X110110142Y-108462380D01*
X110014904Y-108414761D01*
X109967285Y-108367142D01*
X105681095Y-108782380D02*
X105681095Y-107782380D01*
X106252523Y-108782380D02*
X105823952Y-108210952D01*
X106252523Y-107782380D02*
X105681095Y-108353809D01*
X74520466Y-103497380D02*
X74520466Y-104211666D01*
X74472847Y-104354523D01*
X74377609Y-104449761D01*
X74234752Y-104497380D01*
X74139514Y-104497380D01*
X74949038Y-103592619D02*
X74996657Y-103545000D01*
X75091895Y-103497380D01*
X75329990Y-103497380D01*
X75425228Y-103545000D01*
X75472847Y-103592619D01*
X75520466Y-103687857D01*
X75520466Y-103783095D01*
X75472847Y-103925952D01*
X74901419Y-104497380D01*
X75520466Y-104497380D01*
X63484166Y-74649080D02*
X63484166Y-75363366D01*
X63436547Y-75506223D01*
X63341309Y-75601461D01*
X63198452Y-75649080D01*
X63103214Y-75649080D01*
X63865119Y-74649080D02*
X64484166Y-74649080D01*
X64150833Y-75030033D01*
X64293690Y-75030033D01*
X64388928Y-75077652D01*
X64436547Y-75125271D01*
X64484166Y-75220509D01*
X64484166Y-75458604D01*
X64436547Y-75553842D01*
X64388928Y-75601461D01*
X64293690Y-75649080D01*
X64007976Y-75649080D01*
X63912738Y-75601461D01*
X63865119Y-75553842D01*
X72561766Y-93068480D02*
X72561766Y-93782766D01*
X72514147Y-93925623D01*
X72418909Y-94020861D01*
X72276052Y-94068480D01*
X72180814Y-94068480D01*
X73037957Y-94068480D02*
X73037957Y-93068480D01*
X73418909Y-93068480D01*
X73514147Y-93116100D01*
X73561766Y-93163719D01*
X73609385Y-93258957D01*
X73609385Y-93401814D01*
X73561766Y-93497052D01*
X73514147Y-93544671D01*
X73418909Y-93592290D01*
X73037957Y-93592290D01*
X74561766Y-94068480D02*
X73990338Y-94068480D01*
X74276052Y-94068480D02*
X74276052Y-93068480D01*
X74180814Y-93211338D01*
X74085576Y-93306576D01*
X73990338Y-93354195D01*
X87497666Y-100278480D02*
X87497666Y-100992766D01*
X87450047Y-101135623D01*
X87354809Y-101230861D01*
X87211952Y-101278480D01*
X87116714Y-101278480D01*
X87973857Y-101278480D02*
X87973857Y-100278480D01*
X88354809Y-100278480D01*
X88450047Y-100326100D01*
X88497666Y-100373719D01*
X88545285Y-100468957D01*
X88545285Y-100611814D01*
X88497666Y-100707052D01*
X88450047Y-100754671D01*
X88354809Y-100802290D01*
X87973857Y-100802290D01*
X88926238Y-100373719D02*
X88973857Y-100326100D01*
X89069095Y-100278480D01*
X89307190Y-100278480D01*
X89402428Y-100326100D01*
X89450047Y-100373719D01*
X89497666Y-100468957D01*
X89497666Y-100564195D01*
X89450047Y-100707052D01*
X88878619Y-101278480D01*
X89497666Y-101278480D01*
X80029766Y-100278480D02*
X80029766Y-100992766D01*
X79982147Y-101135623D01*
X79886909Y-101230861D01*
X79744052Y-101278480D01*
X79648814Y-101278480D01*
X80505957Y-101278480D02*
X80505957Y-100278480D01*
X80886909Y-100278480D01*
X80982147Y-100326100D01*
X81029766Y-100373719D01*
X81077385Y-100468957D01*
X81077385Y-100611814D01*
X81029766Y-100707052D01*
X80982147Y-100754671D01*
X80886909Y-100802290D01*
X80505957Y-100802290D01*
X81410719Y-100278480D02*
X82029766Y-100278480D01*
X81696433Y-100659433D01*
X81839290Y-100659433D01*
X81934528Y-100707052D01*
X81982147Y-100754671D01*
X82029766Y-100849909D01*
X82029766Y-101088004D01*
X81982147Y-101183242D01*
X81934528Y-101230861D01*
X81839290Y-101278480D01*
X81553576Y-101278480D01*
X81458338Y-101230861D01*
X81410719Y-101183242D01*
X88504733Y-108462380D02*
X88171400Y-107986190D01*
X87933304Y-108462380D02*
X87933304Y-107462380D01*
X88314257Y-107462380D01*
X88409495Y-107510000D01*
X88457114Y-107557619D01*
X88504733Y-107652857D01*
X88504733Y-107795714D01*
X88457114Y-107890952D01*
X88409495Y-107938571D01*
X88314257Y-107986190D01*
X87933304Y-107986190D01*
X89457114Y-108462380D02*
X88885685Y-108462380D01*
X89171400Y-108462380D02*
X89171400Y-107462380D01*
X89076161Y-107605238D01*
X88980923Y-107700476D01*
X88885685Y-107748095D01*
X105334380Y-73016466D02*
X104858190Y-73349800D01*
X105334380Y-73587895D02*
X104334380Y-73587895D01*
X104334380Y-73206942D01*
X104382000Y-73111704D01*
X104429619Y-73064085D01*
X104524857Y-73016466D01*
X104667714Y-73016466D01*
X104762952Y-73064085D01*
X104810571Y-73111704D01*
X104858190Y-73206942D01*
X104858190Y-73587895D01*
X104429619Y-72635514D02*
X104382000Y-72587895D01*
X104334380Y-72492657D01*
X104334380Y-72254561D01*
X104382000Y-72159323D01*
X104429619Y-72111704D01*
X104524857Y-72064085D01*
X104620095Y-72064085D01*
X104762952Y-72111704D01*
X105334380Y-72683133D01*
X105334380Y-72064085D01*
X120605333Y-79438580D02*
X120272000Y-78962390D01*
X120033904Y-79438580D02*
X120033904Y-78438580D01*
X120414857Y-78438580D01*
X120510095Y-78486200D01*
X120557714Y-78533819D01*
X120605333Y-78629057D01*
X120605333Y-78771914D01*
X120557714Y-78867152D01*
X120510095Y-78914771D01*
X120414857Y-78962390D01*
X120033904Y-78962390D01*
X120938666Y-78438580D02*
X121557714Y-78438580D01*
X121224380Y-78819533D01*
X121367238Y-78819533D01*
X121462476Y-78867152D01*
X121510095Y-78914771D01*
X121557714Y-79010009D01*
X121557714Y-79248104D01*
X121510095Y-79343342D01*
X121462476Y-79390961D01*
X121367238Y-79438580D01*
X121081523Y-79438580D01*
X120986285Y-79390961D01*
X120938666Y-79343342D01*
X116094380Y-73016466D02*
X115618190Y-73349800D01*
X116094380Y-73587895D02*
X115094380Y-73587895D01*
X115094380Y-73206942D01*
X115142000Y-73111704D01*
X115189619Y-73064085D01*
X115284857Y-73016466D01*
X115427714Y-73016466D01*
X115522952Y-73064085D01*
X115570571Y-73111704D01*
X115618190Y-73206942D01*
X115618190Y-73587895D01*
X115427714Y-72159323D02*
X116094380Y-72159323D01*
X115046761Y-72397419D02*
X115761047Y-72635514D01*
X115761047Y-72016466D01*
X79294180Y-73016466D02*
X78817990Y-73349800D01*
X79294180Y-73587895D02*
X78294180Y-73587895D01*
X78294180Y-73206942D01*
X78341800Y-73111704D01*
X78389419Y-73064085D01*
X78484657Y-73016466D01*
X78627514Y-73016466D01*
X78722752Y-73064085D01*
X78770371Y-73111704D01*
X78817990Y-73206942D01*
X78817990Y-73587895D01*
X78294180Y-72111704D02*
X78294180Y-72587895D01*
X78770371Y-72635514D01*
X78722752Y-72587895D01*
X78675133Y-72492657D01*
X78675133Y-72254561D01*
X78722752Y-72159323D01*
X78770371Y-72111704D01*
X78865609Y-72064085D01*
X79103704Y-72064085D01*
X79198942Y-72111704D01*
X79246561Y-72159323D01*
X79294180Y-72254561D01*
X79294180Y-72492657D01*
X79246561Y-72587895D01*
X79198942Y-72635514D01*
X86422180Y-73016466D02*
X85945990Y-73349800D01*
X86422180Y-73587895D02*
X85422180Y-73587895D01*
X85422180Y-73206942D01*
X85469800Y-73111704D01*
X85517419Y-73064085D01*
X85612657Y-73016466D01*
X85755514Y-73016466D01*
X85850752Y-73064085D01*
X85898371Y-73111704D01*
X85945990Y-73206942D01*
X85945990Y-73587895D01*
X85422180Y-72159323D02*
X85422180Y-72349800D01*
X85469800Y-72445038D01*
X85517419Y-72492657D01*
X85660276Y-72587895D01*
X85850752Y-72635514D01*
X86231704Y-72635514D01*
X86326942Y-72587895D01*
X86374561Y-72540276D01*
X86422180Y-72445038D01*
X86422180Y-72254561D01*
X86374561Y-72159323D01*
X86326942Y-72111704D01*
X86231704Y-72064085D01*
X85993609Y-72064085D01*
X85898371Y-72111704D01*
X85850752Y-72159323D01*
X85803133Y-72254561D01*
X85803133Y-72445038D01*
X85850752Y-72540276D01*
X85898371Y-72587895D01*
X85993609Y-72635514D01*
X82383333Y-104343380D02*
X82050000Y-103867190D01*
X81811904Y-104343380D02*
X81811904Y-103343380D01*
X82192857Y-103343380D01*
X82288095Y-103391000D01*
X82335714Y-103438619D01*
X82383333Y-103533857D01*
X82383333Y-103676714D01*
X82335714Y-103771952D01*
X82288095Y-103819571D01*
X82192857Y-103867190D01*
X81811904Y-103867190D01*
X82716666Y-103343380D02*
X83383333Y-103343380D01*
X82954761Y-104343380D01*
X97627095Y-106257380D02*
X97627095Y-107066904D01*
X97674714Y-107162142D01*
X97722333Y-107209761D01*
X97817571Y-107257380D01*
X98008047Y-107257380D01*
X98103285Y-107209761D01*
X98150904Y-107162142D01*
X98198523Y-107066904D01*
X98198523Y-106257380D01*
X99198523Y-107257380D02*
X98627095Y-107257380D01*
X98912809Y-107257380D02*
X98912809Y-106257380D01*
X98817571Y-106400238D01*
X98722333Y-106495476D01*
X98627095Y-106543095D01*
%LPC*%
D12*
X135559000Y-88319600D03*
X135559000Y-89999600D03*
D13*
X135559000Y-86249600D03*
X135559000Y-92069600D03*
D14*
X133259000Y-86697100D03*
X133259000Y-91622100D03*
D15*
X132899000Y-87859600D03*
X132899000Y-88509600D03*
X132899000Y-89159600D03*
X132899000Y-89809600D03*
X132899000Y-90459600D03*
D16*
X109518000Y-89467700D03*
X109518000Y-94467700D03*
D17*
X64516000Y-103405000D03*
X69016000Y-103405000D03*
X64516000Y-109905000D03*
X69016000Y-109905000D03*
D18*
X115056000Y-94401600D03*
X120056000Y-94401600D03*
X120167000Y-89367400D03*
X115167000Y-89367400D03*
X130333000Y-74239800D03*
X130333000Y-69239800D03*
D19*
X121183000Y-110130000D03*
D18*
X121183000Y-107630000D03*
X96545000Y-110380000D03*
X101545000Y-110380000D03*
D20*
X119043000Y-69039800D03*
D19*
X119043000Y-76659800D03*
X124563000Y-76659800D03*
D20*
X124563000Y-69039800D03*
D21*
X76471800Y-82760500D03*
D22*
X76471800Y-80220500D03*
X83599800Y-80220500D03*
D21*
X83599800Y-82760500D03*
D19*
X105943000Y-110130000D03*
D20*
X113563000Y-110130000D03*
D23*
X74853800Y-108915000D03*
D24*
X74853800Y-106375000D03*
D25*
X62547500Y-81800700D03*
D26*
X65087500Y-81800700D03*
X62547500Y-84340700D03*
X65087500Y-84340700D03*
X62547500Y-86880700D03*
X65087500Y-86880700D03*
X62547500Y-89420700D03*
X65087500Y-89420700D03*
X62547500Y-91960700D03*
X65087500Y-91960700D03*
D24*
X73395100Y-95946100D03*
D23*
X73395100Y-98486100D03*
X88331000Y-95956100D03*
D24*
X88331000Y-98496100D03*
X80863100Y-98496100D03*
D23*
X80863100Y-95956100D03*
D18*
X84861400Y-110380000D03*
D20*
X92481400Y-110380000D03*
X107252000Y-69039800D03*
D18*
X107252000Y-76659800D03*
D20*
X124582000Y-81356200D03*
D18*
X116962000Y-81356200D03*
X113272000Y-69039800D03*
D20*
X113272000Y-76659800D03*
X76471800Y-76659800D03*
D18*
X76471800Y-69039800D03*
X83599800Y-69039800D03*
D20*
X83599800Y-76659800D03*
D18*
X78740000Y-106261000D03*
D20*
X86360000Y-106261000D03*
D19*
X102199000Y-104475000D03*
D20*
X94579000Y-71455000D03*
X102199000Y-101935000D03*
X94579000Y-73995000D03*
X102199000Y-99395000D03*
X94579000Y-76535000D03*
X102199000Y-96855000D03*
X94579000Y-79075000D03*
X102199000Y-94315000D03*
X94579000Y-81615000D03*
X102199000Y-91775000D03*
X94579000Y-84155000D03*
X102199000Y-89235000D03*
X94579000Y-86695000D03*
X102199000Y-86695000D03*
X94579000Y-89235000D03*
X102199000Y-84155000D03*
X94579000Y-91775000D03*
X102199000Y-81615000D03*
X94579000Y-94315000D03*
X102199000Y-79075000D03*
X94579000Y-96855000D03*
X102199000Y-76535000D03*
X94579000Y-99395000D03*
X102199000Y-73995000D03*
X94579000Y-101935000D03*
X102199000Y-71455000D03*
X94579000Y-104475000D03*
M02*
