G04 #@! TF.GenerationSoftware,KiCad,Pcbnew,5.1.4-3.fc30*
G04 #@! TF.CreationDate,2019-09-17T14:13:59+02:00*
G04 #@! TF.ProjectId,usbasp,75736261-7370-42e6-9b69-6361645f7063,2.0*
G04 #@! TF.SameCoordinates,Original*
G04 #@! TF.FileFunction,Copper,L2,Bot*
G04 #@! TF.FilePolarity,Positive*
%FSLAX46Y46*%
G04 Gerber Fmt 4.6, Leading zero omitted, Abs format (unit mm)*
G04 Created by KiCad (PCBNEW 5.1.4-3.fc30) date 2019-09-17 14:13:59*
%MOMM*%
%LPD*%
G04 APERTURE LIST*
%ADD10C,1.500000*%
%ADD11C,2.000000*%
%ADD12C,1.600000*%
%ADD13R,1.600000X1.600000*%
%ADD14O,1.600000X1.600000*%
%ADD15R,1.800000X1.800000*%
%ADD16C,1.800000*%
%ADD17O,1.700000X1.700000*%
%ADD18R,1.700000X1.700000*%
%ADD19R,1.727200X1.727200*%
%ADD20O,1.727200X1.727200*%
%ADD21C,0.350000*%
%ADD22C,0.300000*%
G04 APERTURE END LIST*
D10*
X109518000Y-89467700D03*
X109518000Y-94467700D03*
D11*
X64516000Y-103405000D03*
X69016000Y-103405000D03*
X64516000Y-109905000D03*
X69016000Y-109905000D03*
D12*
X115056000Y-94401600D03*
X120056000Y-94401600D03*
X120167000Y-89367400D03*
X115167000Y-89367400D03*
X130333000Y-74239800D03*
X130333000Y-69239800D03*
D13*
X121183000Y-110130000D03*
D12*
X121183000Y-107630000D03*
X96545000Y-110380000D03*
X101545000Y-110380000D03*
D14*
X119043000Y-69039800D03*
D13*
X119043000Y-76659800D03*
X124563000Y-76659800D03*
D14*
X124563000Y-69039800D03*
D15*
X76471800Y-82760500D03*
D16*
X76471800Y-80220500D03*
X83599800Y-80220500D03*
D15*
X83599800Y-82760500D03*
D13*
X105943000Y-110130000D03*
D14*
X113563000Y-110130000D03*
D17*
X74853800Y-108915000D03*
D18*
X74853800Y-106375000D03*
D19*
X62547500Y-81800700D03*
D20*
X65087500Y-81800700D03*
X62547500Y-84340700D03*
X65087500Y-84340700D03*
X62547500Y-86880700D03*
X65087500Y-86880700D03*
X62547500Y-89420700D03*
X65087500Y-89420700D03*
X62547500Y-91960700D03*
X65087500Y-91960700D03*
D18*
X73395100Y-95946100D03*
D17*
X73395100Y-98486100D03*
X88331000Y-95956100D03*
D18*
X88331000Y-98496100D03*
X80863100Y-98496100D03*
D17*
X80863100Y-95956100D03*
D12*
X84861400Y-110380000D03*
D14*
X92481400Y-110380000D03*
X107252000Y-69039800D03*
D12*
X107252000Y-76659800D03*
D14*
X124582000Y-81356200D03*
D12*
X116962000Y-81356200D03*
X113272000Y-69039800D03*
D14*
X113272000Y-76659800D03*
X76471800Y-76659800D03*
D12*
X76471800Y-69039800D03*
X83599800Y-69039800D03*
D14*
X83599800Y-76659800D03*
D12*
X78740000Y-106261000D03*
D14*
X86360000Y-106261000D03*
D13*
X102199000Y-104475000D03*
D14*
X94579000Y-71455000D03*
X102199000Y-101935000D03*
X94579000Y-73995000D03*
X102199000Y-99395000D03*
X94579000Y-76535000D03*
X102199000Y-96855000D03*
X94579000Y-79075000D03*
X102199000Y-94315000D03*
X94579000Y-81615000D03*
X102199000Y-91775000D03*
X94579000Y-84155000D03*
X102199000Y-89235000D03*
X94579000Y-86695000D03*
X102199000Y-86695000D03*
X94579000Y-89235000D03*
X102199000Y-84155000D03*
X94579000Y-91775000D03*
X102199000Y-81615000D03*
X94579000Y-94315000D03*
X102199000Y-79075000D03*
X94579000Y-96855000D03*
X102199000Y-76535000D03*
X94579000Y-99395000D03*
X102199000Y-73995000D03*
X94579000Y-101935000D03*
X102199000Y-71455000D03*
X94579000Y-104475000D03*
D21*
X109518000Y-94401600D02*
X109518000Y-94467700D01*
X102199000Y-85330300D02*
X102566300Y-85330300D01*
X102566300Y-85330300D02*
X109518000Y-92282000D01*
X109518000Y-92282000D02*
X109518000Y-94401600D01*
X109518000Y-94401600D02*
X115056000Y-94401600D01*
X102199000Y-84155000D02*
X102199000Y-85330300D01*
X65087500Y-91960700D02*
X65087500Y-102833500D01*
X65087500Y-102833500D02*
X64516000Y-103405000D01*
X120218400Y-71390500D02*
X119043000Y-70215100D01*
X120167000Y-89367400D02*
X120218400Y-89316000D01*
X120218400Y-89316000D02*
X120218400Y-71390500D01*
X124563000Y-69039800D02*
X122569100Y-69039800D01*
X122569100Y-69039800D02*
X120218400Y-71390500D01*
X119043000Y-69039800D02*
X119043000Y-70215100D01*
X120056000Y-94401600D02*
X120056000Y-89478400D01*
X120056000Y-89478400D02*
X120167000Y-89367400D01*
X64516000Y-103405000D02*
X64516000Y-109905000D01*
X102199000Y-81615000D02*
X102199000Y-82790300D01*
X102199000Y-82790300D02*
X102840600Y-82790300D01*
X102840600Y-82790300D02*
X109518000Y-89467700D01*
D22*
X94579000Y-84155000D02*
X95729300Y-84155000D01*
X102199000Y-89235000D02*
X100809300Y-89235000D01*
X100809300Y-89235000D02*
X95729300Y-84155000D01*
X84861400Y-110380000D02*
X74610600Y-110380000D01*
X74610600Y-110380000D02*
X73395100Y-109164500D01*
X73395100Y-109164500D02*
X73395100Y-98486100D01*
D21*
X102199000Y-105062600D02*
X96881600Y-110380000D01*
X96881600Y-110380000D02*
X96545000Y-110380000D01*
X102199000Y-105062600D02*
X107320300Y-105062600D01*
X107320300Y-105062600D02*
X112387700Y-110130000D01*
X113563000Y-110130000D02*
X112387700Y-110130000D01*
X102199000Y-104475000D02*
X102199000Y-105062600D01*
X69016000Y-109905000D02*
X69016000Y-103405000D01*
X124582000Y-81356200D02*
X124582000Y-80180900D01*
X124582000Y-80180900D02*
X124563000Y-80161900D01*
X124563000Y-80161900D02*
X124563000Y-76659800D01*
X76471800Y-76659800D02*
X76471800Y-80220500D01*
X83599800Y-76659800D02*
X83599800Y-80220500D01*
X83599800Y-82760500D02*
X84875100Y-82760500D01*
X94579000Y-94315000D02*
X94579000Y-93139700D01*
X94579000Y-93139700D02*
X94279000Y-93139700D01*
X94279000Y-93139700D02*
X84875100Y-83735800D01*
X84875100Y-83735800D02*
X84875100Y-82760500D01*
D22*
X65087500Y-81800700D02*
X65087500Y-83014600D01*
X73395100Y-95946100D02*
X73395100Y-90819200D01*
X73395100Y-90819200D02*
X65590500Y-83014600D01*
X65590500Y-83014600D02*
X65087500Y-83014600D01*
D21*
X100995700Y-80408200D02*
X116014000Y-80408200D01*
X116014000Y-80408200D02*
X116962000Y-81356200D01*
X94579000Y-72630300D02*
X94944300Y-72630300D01*
X94944300Y-72630300D02*
X100995700Y-78681700D01*
X100995700Y-78681700D02*
X100995700Y-80408200D01*
X102199000Y-95679700D02*
X102566300Y-95679700D01*
X102566300Y-95679700D02*
X103378600Y-94867400D01*
X103378600Y-94867400D02*
X103378600Y-88715700D01*
X103378600Y-88715700D02*
X102627900Y-87965000D01*
X102627900Y-87965000D02*
X101725600Y-87965000D01*
X101725600Y-87965000D02*
X100995700Y-87235100D01*
X100995700Y-87235100D02*
X100995700Y-80408200D01*
X94579000Y-71455000D02*
X94579000Y-72630300D01*
X102199000Y-96855000D02*
X102199000Y-95679700D01*
X102199000Y-99395000D02*
X101023700Y-99395000D01*
X101023700Y-99395000D02*
X101023700Y-99762300D01*
X101023700Y-99762300D02*
X94525000Y-106261000D01*
X94525000Y-106261000D02*
X86360000Y-106261000D01*
X102199000Y-101935000D02*
X101023700Y-101935000D01*
X101023700Y-101935000D02*
X94043700Y-108915000D01*
X94043700Y-108915000D02*
X74853800Y-108915000D01*
X80863100Y-84044300D02*
X69897500Y-84044300D01*
X69897500Y-84044300D02*
X66376200Y-80523000D01*
X66376200Y-80523000D02*
X64568100Y-80523000D01*
X64568100Y-80523000D02*
X63817500Y-81273600D01*
X63817500Y-81273600D02*
X63817500Y-84885200D01*
X63817500Y-84885200D02*
X63060900Y-85641800D01*
X63060900Y-85641800D02*
X62547500Y-85641800D01*
X94579000Y-73995000D02*
X84596100Y-73995000D01*
X84596100Y-73995000D02*
X80863200Y-77727900D01*
X80863200Y-77727900D02*
X80863200Y-84044300D01*
X80863200Y-84044300D02*
X80863100Y-84044300D01*
X80863100Y-84044300D02*
X80863100Y-94730800D01*
X80863100Y-95956100D02*
X80863100Y-94730800D01*
X62547500Y-86880700D02*
X62547500Y-85641800D01*
X62547500Y-89420700D02*
X63786400Y-89420700D01*
X94579000Y-81615000D02*
X94579000Y-82790300D01*
X94579000Y-82790300D02*
X94211700Y-82790300D01*
X94211700Y-82790300D02*
X93403600Y-83598400D01*
X93403600Y-83598400D02*
X93403600Y-84678500D01*
X93403600Y-84678500D02*
X94150100Y-85425000D01*
X94150100Y-85425000D02*
X95052500Y-85425000D01*
X95052500Y-85425000D02*
X95804600Y-86177100D01*
X95804600Y-86177100D02*
X95804600Y-94814600D01*
X95804600Y-94814600D02*
X95034200Y-95585000D01*
X95034200Y-95585000D02*
X92798300Y-95585000D01*
X92798300Y-95585000D02*
X91167200Y-97216100D01*
X91167200Y-97216100D02*
X72270300Y-97216100D01*
X72270300Y-97216100D02*
X65744900Y-90690700D01*
X65744900Y-90690700D02*
X64543000Y-90690700D01*
X64543000Y-90690700D02*
X63786400Y-89934100D01*
X63786400Y-89934100D02*
X63786400Y-89420700D01*
M02*
