M48
; DRILL file {KiCad 5.1.4-3.fc30} date wto, 17 wrz 2019, 14:14:04
; FORMAT={-:-/ absolute / inch / decimal}
; #@! TF.CreationDate,2019-09-17T14:14:04+02:00
; #@! TF.GenerationSoftware,Kicad,Pcbnew,5.1.4-3.fc30
; #@! TF.FileFunction,Plated,1,2,PTH
FMAT,2
INCH
T1C0.0315
T2C0.0354
T3C0.0394
T4C0.0400
T5C0.0433
%
G90
G05
T1
X3.1Y-4.1835
X3.4Y-4.1835
X4.171Y-4.3358
X4.471Y-4.3358
X4.3117Y-3.5224
X4.3117Y-3.7192
X4.2225Y-2.7181
X4.2225Y-3.0181
X5.1312Y-2.726
X5.1312Y-2.9228
X4.4595Y-2.7181
X4.4595Y-3.0181
X4.771Y-4.2374
X4.771Y-4.3358
X4.6867Y-2.7181
X4.6867Y-3.0181
X3.7236Y-2.8132
X3.7236Y-2.9132
X3.7236Y-3.0132
X3.7236Y-3.1132
X3.7236Y-3.2132
X3.7236Y-3.3132
X3.7236Y-3.4132
X3.7236Y-3.5132
X3.7236Y-3.6132
X3.7236Y-3.7132
X3.7236Y-3.8132
X3.7236Y-3.9132
X3.7236Y-4.0132
X3.7236Y-4.1132
X4.0236Y-2.8132
X4.0236Y-2.9132
X4.0236Y-3.0132
X4.0236Y-3.1132
X4.0236Y-3.2132
X4.0236Y-3.3132
X4.0236Y-3.4132
X4.0236Y-3.5132
X4.0236Y-3.6132
X4.0236Y-3.7132
X4.0236Y-3.8132
X4.0236Y-3.9132
X4.0236Y-4.0132
X4.0236Y-4.1132
X3.341Y-4.3457
X3.641Y-4.3457
X3.0107Y-2.7181
X3.0107Y-3.0181
X4.6048Y-3.203
X4.9048Y-3.203
X4.5341Y-3.5184
X4.731Y-3.5184
X4.5298Y-3.7166
X4.7266Y-3.7166
X3.2913Y-2.7181
X3.2913Y-3.0181
X3.801Y-4.3457
X3.9978Y-4.3457
X4.9041Y-2.7181
X4.9041Y-3.0181
T2
X3.2913Y-3.1583
X3.2913Y-3.2583
X3.0107Y-3.1583
X3.0107Y-3.2583
T3
X3.1836Y-3.7778
X3.1836Y-3.8778
X2.947Y-4.188
X2.947Y-4.288
X3.4776Y-3.7778
X3.4776Y-3.8778
X2.8896Y-3.7774
X2.8896Y-3.8774
T4
X2.4625Y-3.2205
X2.4625Y-3.3205
X2.4625Y-3.4205
X2.4625Y-3.5205
X2.4625Y-3.6205
X2.5625Y-3.2205
X2.5625Y-3.3205
X2.5625Y-3.4205
X2.5625Y-3.5205
X2.5625Y-3.6205
T5
X2.54Y-4.0711
X2.54Y-4.327
X2.7172Y-4.0711
X2.7172Y-4.327
T0
M30
