%TF.GenerationSoftware,KiCad,Pcbnew,5.1.4-3.fc31*%
%TF.CreationDate,2019-11-11T15:40:02+01:00*%
%TF.ProjectId,usbasp,75736261-7370-42e6-9b69-6361645f7063,2.0*%
%TF.SameCoordinates,PX36f6758PY6c779b8*%
%TF.FileFunction,Soldermask,Bot*%
%TF.FilePolarity,Negative*%
%FSLAX46Y46*%
G04 Gerber Fmt 4.6, Leading zero omitted, Abs format (unit mm)*
G04 Created by KiCad (PCBNEW 5.1.4-3.fc31) date 2019-11-11 15:40:02*
%MOMM*%
%LPD*%
G04 APERTURE LIST*
%ADD10C,0.100000*%
G04 APERTURE END LIST*
D10*
G36*
X35015623Y4194807D02*
G01*
X35176042Y4146144D01*
X35243161Y4110268D01*
X35323878Y4067124D01*
X35453459Y3960779D01*
X35559804Y3831198D01*
X35559805Y3831196D01*
X35638824Y3683362D01*
X35687487Y3522943D01*
X35703917Y3356120D01*
X35687487Y3189297D01*
X35638824Y3028878D01*
X35598277Y2953020D01*
X35559804Y2881042D01*
X35453459Y2751461D01*
X35323878Y2645116D01*
X35323876Y2645115D01*
X35176042Y2566096D01*
X35015623Y2517433D01*
X34890604Y2505120D01*
X34806996Y2505120D01*
X34681977Y2517433D01*
X34521558Y2566096D01*
X34373724Y2645115D01*
X34373722Y2645116D01*
X34244141Y2751461D01*
X34137796Y2881042D01*
X34099323Y2953020D01*
X34058776Y3028878D01*
X34010113Y3189297D01*
X33993683Y3356120D01*
X34010113Y3522943D01*
X34058776Y3683362D01*
X34137795Y3831196D01*
X34137796Y3831198D01*
X34244141Y3960779D01*
X34373722Y4067124D01*
X34454439Y4110268D01*
X34521558Y4146144D01*
X34681977Y4194807D01*
X34806996Y4207120D01*
X34890604Y4207120D01*
X35015623Y4194807D01*
X35015623Y4194807D01*
G37*
G36*
X39160628Y4174417D02*
G01*
X39315500Y4110267D01*
X39454881Y4017135D01*
X39573415Y3898601D01*
X39666547Y3759220D01*
X39730697Y3604348D01*
X39763400Y3439936D01*
X39763400Y3272304D01*
X39730697Y3107892D01*
X39666547Y2953020D01*
X39573415Y2813639D01*
X39454881Y2695105D01*
X39315500Y2601973D01*
X39160628Y2537823D01*
X38996216Y2505120D01*
X38828584Y2505120D01*
X38664172Y2537823D01*
X38509300Y2601973D01*
X38369919Y2695105D01*
X38251385Y2813639D01*
X38158253Y2953020D01*
X38094103Y3107892D01*
X38061400Y3272304D01*
X38061400Y3439936D01*
X38094103Y3604348D01*
X38158253Y3759220D01*
X38251385Y3898601D01*
X38369919Y4017135D01*
X38509300Y4110267D01*
X38664172Y4174417D01*
X38828584Y4207120D01*
X38996216Y4207120D01*
X39160628Y4174417D01*
X39160628Y4174417D01*
G37*
G36*
X44160628Y4174417D02*
G01*
X44315500Y4110267D01*
X44454881Y4017135D01*
X44573415Y3898601D01*
X44666547Y3759220D01*
X44730697Y3604348D01*
X44763400Y3439936D01*
X44763400Y3272304D01*
X44730697Y3107892D01*
X44666547Y2953020D01*
X44573415Y2813639D01*
X44454881Y2695105D01*
X44315500Y2601973D01*
X44160628Y2537823D01*
X43996216Y2505120D01*
X43828584Y2505120D01*
X43664172Y2537823D01*
X43509300Y2601973D01*
X43369919Y2695105D01*
X43251385Y2813639D01*
X43158253Y2953020D01*
X43094103Y3107892D01*
X43061400Y3272304D01*
X43061400Y3439936D01*
X43094103Y3604348D01*
X43158253Y3759220D01*
X43251385Y3898601D01*
X43369919Y4017135D01*
X43509300Y4110267D01*
X43664172Y4174417D01*
X43828584Y4207120D01*
X43996216Y4207120D01*
X44160628Y4174417D01*
X44160628Y4174417D01*
G37*
G36*
X27477028Y4174417D02*
G01*
X27631900Y4110267D01*
X27771281Y4017135D01*
X27889815Y3898601D01*
X27982947Y3759220D01*
X28047097Y3604348D01*
X28079800Y3439936D01*
X28079800Y3272304D01*
X28047097Y3107892D01*
X27982947Y2953020D01*
X27889815Y2813639D01*
X27771281Y2695105D01*
X27631900Y2601973D01*
X27477028Y2537823D01*
X27312616Y2505120D01*
X27144984Y2505120D01*
X26980572Y2537823D01*
X26825700Y2601973D01*
X26686319Y2695105D01*
X26567785Y2813639D01*
X26474653Y2953020D01*
X26410503Y3107892D01*
X26377800Y3272304D01*
X26377800Y3439936D01*
X26410503Y3604348D01*
X26474653Y3759220D01*
X26567785Y3898601D01*
X26686319Y4017135D01*
X26825700Y4110267D01*
X26980572Y4174417D01*
X27144984Y4207120D01*
X27312616Y4207120D01*
X27477028Y4174417D01*
X27477028Y4174417D01*
G37*
G36*
X64401400Y2755120D02*
G01*
X62699400Y2755120D01*
X62699400Y4457120D01*
X64401400Y4457120D01*
X64401400Y2755120D01*
X64401400Y2755120D01*
G37*
G36*
X49161400Y2755120D02*
G01*
X47459400Y2755120D01*
X47459400Y4457120D01*
X49161400Y4457120D01*
X49161400Y2755120D01*
X49161400Y2755120D01*
G37*
G36*
X56097223Y4444807D02*
G01*
X56257642Y4396144D01*
X56383344Y4328955D01*
X56405478Y4317124D01*
X56535059Y4210779D01*
X56641404Y4081198D01*
X56641405Y4081196D01*
X56720424Y3933362D01*
X56769087Y3772943D01*
X56785517Y3606120D01*
X56769087Y3439297D01*
X56720424Y3278878D01*
X56716910Y3272304D01*
X56641404Y3131042D01*
X56535059Y3001461D01*
X56405478Y2895116D01*
X56405476Y2895115D01*
X56257642Y2816096D01*
X56257639Y2816095D01*
X56227780Y2807037D01*
X56097223Y2767433D01*
X55972204Y2755120D01*
X55888596Y2755120D01*
X55763577Y2767433D01*
X55633020Y2807037D01*
X55603161Y2816095D01*
X55603158Y2816096D01*
X55455324Y2895115D01*
X55455322Y2895116D01*
X55325741Y3001461D01*
X55219396Y3131042D01*
X55143890Y3272304D01*
X55140376Y3278878D01*
X55091713Y3439297D01*
X55075283Y3606120D01*
X55091713Y3772943D01*
X55140376Y3933362D01*
X55219395Y4081196D01*
X55219396Y4081198D01*
X55325741Y4210779D01*
X55455322Y4317124D01*
X55477456Y4328955D01*
X55603158Y4396144D01*
X55763577Y4444807D01*
X55888596Y4457120D01*
X55972204Y4457120D01*
X56097223Y4444807D01*
X56097223Y4444807D01*
G37*
G36*
X7189964Y4841731D02*
G01*
X7381233Y4762505D01*
X7381235Y4762504D01*
X7553373Y4647485D01*
X7699765Y4501093D01*
X7814785Y4328953D01*
X7894011Y4137684D01*
X7934400Y3934636D01*
X7934400Y3727604D01*
X7894011Y3524556D01*
X7814785Y3333287D01*
X7814784Y3333285D01*
X7699765Y3161147D01*
X7553373Y3014755D01*
X7381235Y2899736D01*
X7381234Y2899735D01*
X7381233Y2899735D01*
X7189964Y2820509D01*
X6986916Y2780120D01*
X6779884Y2780120D01*
X6576836Y2820509D01*
X6385567Y2899735D01*
X6385566Y2899735D01*
X6385565Y2899736D01*
X6213427Y3014755D01*
X6067035Y3161147D01*
X5952016Y3333285D01*
X5952015Y3333287D01*
X5872789Y3524556D01*
X5832400Y3727604D01*
X5832400Y3934636D01*
X5872789Y4137684D01*
X5952015Y4328953D01*
X6067035Y4501093D01*
X6213427Y4647485D01*
X6385565Y4762504D01*
X6385567Y4762505D01*
X6576836Y4841731D01*
X6779884Y4882120D01*
X6986916Y4882120D01*
X7189964Y4841731D01*
X7189964Y4841731D01*
G37*
G36*
X11689964Y4841731D02*
G01*
X11881233Y4762505D01*
X11881235Y4762504D01*
X12053373Y4647485D01*
X12199765Y4501093D01*
X12314785Y4328953D01*
X12394011Y4137684D01*
X12434400Y3934636D01*
X12434400Y3727604D01*
X12394011Y3524556D01*
X12314785Y3333287D01*
X12314784Y3333285D01*
X12199765Y3161147D01*
X12053373Y3014755D01*
X11881235Y2899736D01*
X11881234Y2899735D01*
X11881233Y2899735D01*
X11689964Y2820509D01*
X11486916Y2780120D01*
X11279884Y2780120D01*
X11076836Y2820509D01*
X10885567Y2899735D01*
X10885566Y2899735D01*
X10885565Y2899736D01*
X10713427Y3014755D01*
X10567035Y3161147D01*
X10452016Y3333285D01*
X10452015Y3333287D01*
X10372789Y3524556D01*
X10332400Y3727604D01*
X10332400Y3934636D01*
X10372789Y4137684D01*
X10452015Y4328953D01*
X10567035Y4501093D01*
X10713427Y4647485D01*
X10885565Y4762504D01*
X10885567Y4762505D01*
X11076836Y4841731D01*
X11279884Y4882120D01*
X11486916Y4882120D01*
X11689964Y4841731D01*
X11689964Y4841731D01*
G37*
G36*
X17331642Y5715602D02*
G01*
X17397827Y5709083D01*
X17567666Y5657563D01*
X17724191Y5573898D01*
X17759929Y5544568D01*
X17861386Y5461306D01*
X17944648Y5359849D01*
X17973978Y5324111D01*
X18057643Y5167586D01*
X18109163Y4997747D01*
X18126559Y4821120D01*
X18109163Y4644493D01*
X18057643Y4474654D01*
X17973978Y4318129D01*
X17973153Y4317124D01*
X17861386Y4180934D01*
X17759929Y4097672D01*
X17724191Y4068342D01*
X17567666Y3984677D01*
X17397827Y3933157D01*
X17331642Y3926638D01*
X17265460Y3920120D01*
X17176940Y3920120D01*
X17110758Y3926638D01*
X17044573Y3933157D01*
X16874734Y3984677D01*
X16718209Y4068342D01*
X16682471Y4097672D01*
X16581014Y4180934D01*
X16469247Y4317124D01*
X16468422Y4318129D01*
X16384757Y4474654D01*
X16333237Y4644493D01*
X16315841Y4821120D01*
X16333237Y4997747D01*
X16384757Y5167586D01*
X16468422Y5324111D01*
X16497752Y5359849D01*
X16581014Y5461306D01*
X16682471Y5544568D01*
X16718209Y5573898D01*
X16874734Y5657563D01*
X17044573Y5709083D01*
X17110758Y5715602D01*
X17176940Y5722120D01*
X17265460Y5722120D01*
X17331642Y5715602D01*
X17331642Y5715602D01*
G37*
G36*
X63798628Y6924417D02*
G01*
X63953500Y6860267D01*
X64092881Y6767135D01*
X64211415Y6648601D01*
X64304547Y6509220D01*
X64368697Y6354348D01*
X64401400Y6189936D01*
X64401400Y6022304D01*
X64368697Y5857892D01*
X64304547Y5703020D01*
X64211415Y5563639D01*
X64092881Y5445105D01*
X63953500Y5351973D01*
X63798628Y5287823D01*
X63634216Y5255120D01*
X63466584Y5255120D01*
X63302172Y5287823D01*
X63147300Y5351973D01*
X63007919Y5445105D01*
X62889385Y5563639D01*
X62796253Y5703020D01*
X62732103Y5857892D01*
X62699400Y6022304D01*
X62699400Y6189936D01*
X62732103Y6354348D01*
X62796253Y6509220D01*
X62889385Y6648601D01*
X63007919Y6767135D01*
X63147300Y6860267D01*
X63302172Y6924417D01*
X63466584Y6957120D01*
X63634216Y6957120D01*
X63798628Y6924417D01*
X63798628Y6924417D01*
G37*
G36*
X18122200Y6460120D02*
G01*
X16320200Y6460120D01*
X16320200Y8262120D01*
X18122200Y8262120D01*
X18122200Y6460120D01*
X18122200Y6460120D01*
G37*
G36*
X28894223Y8313807D02*
G01*
X29054642Y8265144D01*
X29121761Y8229268D01*
X29202478Y8186124D01*
X29332059Y8079779D01*
X29438404Y7950198D01*
X29438405Y7950196D01*
X29517424Y7802362D01*
X29566087Y7641943D01*
X29582517Y7475120D01*
X29566087Y7308297D01*
X29517424Y7147878D01*
X29476877Y7072020D01*
X29438404Y7000042D01*
X29332059Y6870461D01*
X29202478Y6764116D01*
X29202476Y6764115D01*
X29054642Y6685096D01*
X28894223Y6636433D01*
X28769204Y6624120D01*
X28685596Y6624120D01*
X28560577Y6636433D01*
X28400158Y6685096D01*
X28252324Y6764115D01*
X28252322Y6764116D01*
X28122741Y6870461D01*
X28016396Y7000042D01*
X27977923Y7072020D01*
X27937376Y7147878D01*
X27888713Y7308297D01*
X27872283Y7475120D01*
X27888713Y7641943D01*
X27937376Y7802362D01*
X28016395Y7950196D01*
X28016396Y7950198D01*
X28122741Y8079779D01*
X28252322Y8186124D01*
X28333039Y8229268D01*
X28400158Y8265144D01*
X28560577Y8313807D01*
X28685596Y8326120D01*
X28769204Y8326120D01*
X28894223Y8313807D01*
X28894223Y8313807D01*
G37*
G36*
X21355628Y8293417D02*
G01*
X21510500Y8229267D01*
X21649881Y8136135D01*
X21768415Y8017601D01*
X21861547Y7878220D01*
X21925697Y7723348D01*
X21958400Y7558936D01*
X21958400Y7391304D01*
X21925697Y7226892D01*
X21861547Y7072020D01*
X21768415Y6932639D01*
X21649881Y6814105D01*
X21510500Y6720973D01*
X21355628Y6656823D01*
X21191216Y6624120D01*
X21023584Y6624120D01*
X20859172Y6656823D01*
X20704300Y6720973D01*
X20564919Y6814105D01*
X20446385Y6932639D01*
X20353253Y7072020D01*
X20289103Y7226892D01*
X20256400Y7391304D01*
X20256400Y7558936D01*
X20289103Y7723348D01*
X20353253Y7878220D01*
X20446385Y8017601D01*
X20564919Y8136135D01*
X20704300Y8229267D01*
X20859172Y8293417D01*
X21023584Y8326120D01*
X21191216Y8326120D01*
X21355628Y8293417D01*
X21355628Y8293417D01*
G37*
G36*
X45417400Y8410120D02*
G01*
X43715400Y8410120D01*
X43715400Y10112120D01*
X45417400Y10112120D01*
X45417400Y8410120D01*
X45417400Y8410120D01*
G37*
G36*
X37113223Y10099807D02*
G01*
X37273642Y10051144D01*
X37323386Y10024555D01*
X37421478Y9972124D01*
X37551059Y9865779D01*
X37657404Y9736198D01*
X37657405Y9736196D01*
X37736424Y9588362D01*
X37785087Y9427943D01*
X37801517Y9261120D01*
X37785087Y9094297D01*
X37736424Y8933878D01*
X37665514Y8801214D01*
X37657404Y8786042D01*
X37551059Y8656461D01*
X37421478Y8550116D01*
X37421476Y8550115D01*
X37273642Y8471096D01*
X37113223Y8422433D01*
X36988204Y8410120D01*
X36904596Y8410120D01*
X36779577Y8422433D01*
X36619158Y8471096D01*
X36471324Y8550115D01*
X36471322Y8550116D01*
X36341741Y8656461D01*
X36235396Y8786042D01*
X36227286Y8801214D01*
X36156376Y8933878D01*
X36107713Y9094297D01*
X36091283Y9261120D01*
X36107713Y9427943D01*
X36156376Y9588362D01*
X36235395Y9736196D01*
X36235396Y9736198D01*
X36341741Y9865779D01*
X36471322Y9972124D01*
X36569414Y10024555D01*
X36619158Y10051144D01*
X36779577Y10099807D01*
X36904596Y10112120D01*
X36988204Y10112120D01*
X37113223Y10099807D01*
X37113223Y10099807D01*
G37*
G36*
X7189964Y11341731D02*
G01*
X7381233Y11262505D01*
X7381235Y11262504D01*
X7480075Y11196461D01*
X7553373Y11147485D01*
X7699765Y11001093D01*
X7814785Y10828953D01*
X7894011Y10637684D01*
X7934400Y10434636D01*
X7934400Y10227604D01*
X7894011Y10024556D01*
X7814785Y9833287D01*
X7814784Y9833285D01*
X7699765Y9661147D01*
X7553373Y9514755D01*
X7381235Y9399736D01*
X7381234Y9399735D01*
X7381233Y9399735D01*
X7189964Y9320509D01*
X6986916Y9280120D01*
X6779884Y9280120D01*
X6576836Y9320509D01*
X6385567Y9399735D01*
X6385566Y9399735D01*
X6385565Y9399736D01*
X6213427Y9514755D01*
X6067035Y9661147D01*
X5952016Y9833285D01*
X5952015Y9833287D01*
X5872789Y10024556D01*
X5832400Y10227604D01*
X5832400Y10434636D01*
X5872789Y10637684D01*
X5952015Y10828953D01*
X6067035Y11001093D01*
X6213427Y11147485D01*
X6286725Y11196461D01*
X6385565Y11262504D01*
X6385567Y11262505D01*
X6576836Y11341731D01*
X6779884Y11382120D01*
X6986916Y11382120D01*
X7189964Y11341731D01*
X7189964Y11341731D01*
G37*
G36*
X11689964Y11341731D02*
G01*
X11881233Y11262505D01*
X11881235Y11262504D01*
X11980075Y11196461D01*
X12053373Y11147485D01*
X12199765Y11001093D01*
X12314785Y10828953D01*
X12394011Y10637684D01*
X12434400Y10434636D01*
X12434400Y10227604D01*
X12394011Y10024556D01*
X12314785Y9833287D01*
X12314784Y9833285D01*
X12199765Y9661147D01*
X12053373Y9514755D01*
X11881235Y9399736D01*
X11881234Y9399735D01*
X11881233Y9399735D01*
X11689964Y9320509D01*
X11486916Y9280120D01*
X11279884Y9280120D01*
X11076836Y9320509D01*
X10885567Y9399735D01*
X10885566Y9399735D01*
X10885565Y9399736D01*
X10713427Y9514755D01*
X10567035Y9661147D01*
X10452016Y9833285D01*
X10452015Y9833287D01*
X10372789Y10024556D01*
X10332400Y10227604D01*
X10332400Y10434636D01*
X10372789Y10637684D01*
X10452015Y10828953D01*
X10567035Y11001093D01*
X10713427Y11147485D01*
X10786725Y11196461D01*
X10885565Y11262504D01*
X10885567Y11262505D01*
X11076836Y11341731D01*
X11279884Y11382120D01*
X11486916Y11382120D01*
X11689964Y11341731D01*
X11689964Y11341731D01*
G37*
G36*
X44733223Y12639807D02*
G01*
X44893642Y12591144D01*
X45026306Y12520234D01*
X45041478Y12512124D01*
X45171059Y12405779D01*
X45277404Y12276198D01*
X45277405Y12276196D01*
X45356424Y12128362D01*
X45405087Y11967943D01*
X45421517Y11801120D01*
X45405087Y11634297D01*
X45356424Y11473878D01*
X45307378Y11382120D01*
X45277404Y11326042D01*
X45171059Y11196461D01*
X45041478Y11090116D01*
X45041476Y11090115D01*
X44893642Y11011096D01*
X44733223Y10962433D01*
X44608204Y10950120D01*
X44524596Y10950120D01*
X44399577Y10962433D01*
X44239158Y11011096D01*
X44091324Y11090115D01*
X44091322Y11090116D01*
X43961741Y11196461D01*
X43855396Y11326042D01*
X43825422Y11382120D01*
X43776376Y11473878D01*
X43727713Y11634297D01*
X43711283Y11801120D01*
X43727713Y11967943D01*
X43776376Y12128362D01*
X43855395Y12276196D01*
X43855396Y12276198D01*
X43961741Y12405779D01*
X44091322Y12512124D01*
X44106494Y12520234D01*
X44239158Y12591144D01*
X44399577Y12639807D01*
X44524596Y12652120D01*
X44608204Y12652120D01*
X44733223Y12639807D01*
X44733223Y12639807D01*
G37*
G36*
X37113223Y12639807D02*
G01*
X37273642Y12591144D01*
X37406306Y12520234D01*
X37421478Y12512124D01*
X37551059Y12405779D01*
X37657404Y12276198D01*
X37657405Y12276196D01*
X37736424Y12128362D01*
X37785087Y11967943D01*
X37801517Y11801120D01*
X37785087Y11634297D01*
X37736424Y11473878D01*
X37687378Y11382120D01*
X37657404Y11326042D01*
X37551059Y11196461D01*
X37421478Y11090116D01*
X37421476Y11090115D01*
X37273642Y11011096D01*
X37113223Y10962433D01*
X36988204Y10950120D01*
X36904596Y10950120D01*
X36779577Y10962433D01*
X36619158Y11011096D01*
X36471324Y11090115D01*
X36471322Y11090116D01*
X36341741Y11196461D01*
X36235396Y11326042D01*
X36205422Y11382120D01*
X36156376Y11473878D01*
X36107713Y11634297D01*
X36091283Y11801120D01*
X36107713Y11967943D01*
X36156376Y12128362D01*
X36235395Y12276196D01*
X36235396Y12276198D01*
X36341741Y12405779D01*
X36471322Y12512124D01*
X36486494Y12520234D01*
X36619158Y12591144D01*
X36779577Y12639807D01*
X36904596Y12652120D01*
X36988204Y12652120D01*
X37113223Y12639807D01*
X37113223Y12639807D01*
G37*
G36*
X44733223Y15179807D02*
G01*
X44893642Y15131144D01*
X45001686Y15073393D01*
X45041478Y15052124D01*
X45171059Y14945779D01*
X45277404Y14816198D01*
X45277405Y14816196D01*
X45356424Y14668362D01*
X45405087Y14507943D01*
X45421517Y14341120D01*
X45405087Y14174297D01*
X45356424Y14013878D01*
X45285514Y13881214D01*
X45277404Y13866042D01*
X45171059Y13736461D01*
X45041478Y13630116D01*
X45041476Y13630115D01*
X44893642Y13551096D01*
X44733223Y13502433D01*
X44608204Y13490120D01*
X44524596Y13490120D01*
X44399577Y13502433D01*
X44239158Y13551096D01*
X44091324Y13630115D01*
X44091322Y13630116D01*
X43961741Y13736461D01*
X43855396Y13866042D01*
X43847286Y13881214D01*
X43776376Y14013878D01*
X43727713Y14174297D01*
X43711283Y14341120D01*
X43727713Y14507943D01*
X43776376Y14668362D01*
X43855395Y14816196D01*
X43855396Y14816198D01*
X43961741Y14945779D01*
X44091322Y15052124D01*
X44131114Y15073393D01*
X44239158Y15131144D01*
X44399577Y15179807D01*
X44524596Y15192120D01*
X44608204Y15192120D01*
X44733223Y15179807D01*
X44733223Y15179807D01*
G37*
G36*
X37113223Y15179807D02*
G01*
X37273642Y15131144D01*
X37381686Y15073393D01*
X37421478Y15052124D01*
X37551059Y14945779D01*
X37657404Y14816198D01*
X37657405Y14816196D01*
X37736424Y14668362D01*
X37785087Y14507943D01*
X37801517Y14341120D01*
X37785087Y14174297D01*
X37736424Y14013878D01*
X37665514Y13881214D01*
X37657404Y13866042D01*
X37551059Y13736461D01*
X37421478Y13630116D01*
X37421476Y13630115D01*
X37273642Y13551096D01*
X37113223Y13502433D01*
X36988204Y13490120D01*
X36904596Y13490120D01*
X36779577Y13502433D01*
X36619158Y13551096D01*
X36471324Y13630115D01*
X36471322Y13630116D01*
X36341741Y13736461D01*
X36235396Y13866042D01*
X36227286Y13881214D01*
X36156376Y14013878D01*
X36107713Y14174297D01*
X36091283Y14341120D01*
X36107713Y14507943D01*
X36156376Y14668362D01*
X36235395Y14816196D01*
X36235396Y14816198D01*
X36341741Y14945779D01*
X36471322Y15052124D01*
X36511114Y15073393D01*
X36619158Y15131144D01*
X36779577Y15179807D01*
X36904596Y15192120D01*
X36988204Y15192120D01*
X37113223Y15179807D01*
X37113223Y15179807D01*
G37*
G36*
X31599400Y14339020D02*
G01*
X29797400Y14339020D01*
X29797400Y16141020D01*
X31599400Y16141020D01*
X31599400Y14339020D01*
X31599400Y14339020D01*
G37*
G36*
X24131500Y14339020D02*
G01*
X22329500Y14339020D01*
X22329500Y16141020D01*
X24131500Y16141020D01*
X24131500Y14339020D01*
X24131500Y14339020D01*
G37*
G36*
X15872943Y16144501D02*
G01*
X15939127Y16137983D01*
X16108966Y16086463D01*
X16265491Y16002798D01*
X16301229Y15973468D01*
X16402686Y15890206D01*
X16485948Y15788749D01*
X16515278Y15753011D01*
X16598943Y15596486D01*
X16650463Y15426647D01*
X16667859Y15250020D01*
X16650463Y15073393D01*
X16598943Y14903554D01*
X16515278Y14747029D01*
X16485948Y14711291D01*
X16402686Y14609834D01*
X16301229Y14526572D01*
X16265491Y14497242D01*
X16108966Y14413577D01*
X15939127Y14362057D01*
X15872942Y14355538D01*
X15806760Y14349020D01*
X15718240Y14349020D01*
X15652057Y14355539D01*
X15585873Y14362057D01*
X15416034Y14413577D01*
X15259509Y14497242D01*
X15223771Y14526572D01*
X15122314Y14609834D01*
X15039052Y14711291D01*
X15009722Y14747029D01*
X14926057Y14903554D01*
X14874537Y15073393D01*
X14857141Y15250020D01*
X14874537Y15426647D01*
X14926057Y15596486D01*
X15009722Y15753011D01*
X15039052Y15788749D01*
X15122314Y15890206D01*
X15223771Y15973468D01*
X15259509Y16002798D01*
X15416034Y16086463D01*
X15585873Y16137983D01*
X15652057Y16144501D01*
X15718240Y16151020D01*
X15806760Y16151020D01*
X15872943Y16144501D01*
X15872943Y16144501D01*
G37*
G36*
X44733223Y17719807D02*
G01*
X44893642Y17671144D01*
X44961038Y17635120D01*
X45041478Y17592124D01*
X45171059Y17485779D01*
X45277404Y17356198D01*
X45277405Y17356196D01*
X45356424Y17208362D01*
X45405087Y17047943D01*
X45421517Y16881120D01*
X45405087Y16714297D01*
X45356424Y16553878D01*
X45285514Y16421214D01*
X45277404Y16406042D01*
X45171059Y16276461D01*
X45041478Y16170116D01*
X45041476Y16170115D01*
X44893642Y16091096D01*
X44733223Y16042433D01*
X44608204Y16030120D01*
X44524596Y16030120D01*
X44399577Y16042433D01*
X44239158Y16091096D01*
X44091324Y16170115D01*
X44091322Y16170116D01*
X43961741Y16276461D01*
X43855396Y16406042D01*
X43847286Y16421214D01*
X43776376Y16553878D01*
X43727713Y16714297D01*
X43711283Y16881120D01*
X43727713Y17047943D01*
X43776376Y17208362D01*
X43855395Y17356196D01*
X43855396Y17356198D01*
X43961741Y17485779D01*
X44091322Y17592124D01*
X44171762Y17635120D01*
X44239158Y17671144D01*
X44399577Y17719807D01*
X44524596Y17732120D01*
X44608204Y17732120D01*
X44733223Y17719807D01*
X44733223Y17719807D01*
G37*
G36*
X37113223Y17719807D02*
G01*
X37273642Y17671144D01*
X37341038Y17635120D01*
X37421478Y17592124D01*
X37551059Y17485779D01*
X37657404Y17356198D01*
X37657405Y17356196D01*
X37736424Y17208362D01*
X37785087Y17047943D01*
X37801517Y16881120D01*
X37785087Y16714297D01*
X37736424Y16553878D01*
X37665514Y16421214D01*
X37657404Y16406042D01*
X37551059Y16276461D01*
X37421478Y16170116D01*
X37421476Y16170115D01*
X37273642Y16091096D01*
X37113223Y16042433D01*
X36988204Y16030120D01*
X36904596Y16030120D01*
X36779577Y16042433D01*
X36619158Y16091096D01*
X36471324Y16170115D01*
X36471322Y16170116D01*
X36341741Y16276461D01*
X36235396Y16406042D01*
X36227286Y16421214D01*
X36156376Y16553878D01*
X36107713Y16714297D01*
X36091283Y16881120D01*
X36107713Y17047943D01*
X36156376Y17208362D01*
X36235395Y17356196D01*
X36235396Y17356198D01*
X36341741Y17485779D01*
X36471322Y17592124D01*
X36551762Y17635120D01*
X36619158Y17671144D01*
X36779577Y17719807D01*
X36904596Y17732120D01*
X36988204Y17732120D01*
X37113223Y17719807D01*
X37113223Y17719807D01*
G37*
G36*
X30808842Y18674502D02*
G01*
X30875027Y18667983D01*
X31044866Y18616463D01*
X31201391Y18532798D01*
X31237129Y18503468D01*
X31338586Y18420206D01*
X31421848Y18318749D01*
X31451178Y18283011D01*
X31534843Y18126486D01*
X31586363Y17956647D01*
X31603759Y17780020D01*
X31586363Y17603393D01*
X31534843Y17433554D01*
X31451178Y17277029D01*
X31421848Y17241291D01*
X31338586Y17139834D01*
X31237129Y17056572D01*
X31201391Y17027242D01*
X31044866Y16943577D01*
X30875027Y16892057D01*
X30808843Y16885539D01*
X30742660Y16879020D01*
X30654140Y16879020D01*
X30587957Y16885539D01*
X30521773Y16892057D01*
X30351934Y16943577D01*
X30195409Y17027242D01*
X30159671Y17056572D01*
X30058214Y17139834D01*
X29974952Y17241291D01*
X29945622Y17277029D01*
X29861957Y17433554D01*
X29810437Y17603393D01*
X29793041Y17780020D01*
X29810437Y17956647D01*
X29861957Y18126486D01*
X29945622Y18283011D01*
X29974952Y18318749D01*
X30058214Y18420206D01*
X30159671Y18503468D01*
X30195409Y18532798D01*
X30351934Y18616463D01*
X30521773Y18667983D01*
X30587958Y18674502D01*
X30654140Y18681020D01*
X30742660Y18681020D01*
X30808842Y18674502D01*
X30808842Y18674502D01*
G37*
G36*
X23340942Y18674502D02*
G01*
X23407127Y18667983D01*
X23576966Y18616463D01*
X23733491Y18532798D01*
X23769229Y18503468D01*
X23870686Y18420206D01*
X23953948Y18318749D01*
X23983278Y18283011D01*
X24066943Y18126486D01*
X24118463Y17956647D01*
X24135859Y17780020D01*
X24118463Y17603393D01*
X24066943Y17433554D01*
X23983278Y17277029D01*
X23953948Y17241291D01*
X23870686Y17139834D01*
X23769229Y17056572D01*
X23733491Y17027242D01*
X23576966Y16943577D01*
X23407127Y16892057D01*
X23340943Y16885539D01*
X23274760Y16879020D01*
X23186240Y16879020D01*
X23120057Y16885539D01*
X23053873Y16892057D01*
X22884034Y16943577D01*
X22727509Y17027242D01*
X22691771Y17056572D01*
X22590314Y17139834D01*
X22507052Y17241291D01*
X22477722Y17277029D01*
X22394057Y17433554D01*
X22342537Y17603393D01*
X22325141Y17780020D01*
X22342537Y17956647D01*
X22394057Y18126486D01*
X22477722Y18283011D01*
X22507052Y18318749D01*
X22590314Y18420206D01*
X22691771Y18503468D01*
X22727509Y18532798D01*
X22884034Y18616463D01*
X23053873Y18667983D01*
X23120058Y18674502D01*
X23186240Y18681020D01*
X23274760Y18681020D01*
X23340942Y18674502D01*
X23340942Y18674502D01*
G37*
G36*
X16663500Y16889020D02*
G01*
X14861500Y16889020D01*
X14861500Y18691020D01*
X16663500Y18691020D01*
X16663500Y16889020D01*
X16663500Y16889020D01*
G37*
G36*
X57782628Y19304417D02*
G01*
X57937500Y19240267D01*
X58076881Y19147135D01*
X58195415Y19028601D01*
X58288547Y18889220D01*
X58352697Y18734348D01*
X58385400Y18569936D01*
X58385400Y18402304D01*
X58352697Y18237892D01*
X58288547Y18083020D01*
X58195415Y17943639D01*
X58076881Y17825105D01*
X57937500Y17731973D01*
X57782628Y17667823D01*
X57618216Y17635120D01*
X57450584Y17635120D01*
X57286172Y17667823D01*
X57131300Y17731973D01*
X56991919Y17825105D01*
X56873385Y17943639D01*
X56780253Y18083020D01*
X56716103Y18237892D01*
X56683400Y18402304D01*
X56683400Y18569936D01*
X56716103Y18734348D01*
X56780253Y18889220D01*
X56873385Y19028601D01*
X56991919Y19147135D01*
X57131300Y19240267D01*
X57286172Y19304417D01*
X57450584Y19337120D01*
X57618216Y19337120D01*
X57782628Y19304417D01*
X57782628Y19304417D01*
G37*
G36*
X62782628Y19304417D02*
G01*
X62937500Y19240267D01*
X63076881Y19147135D01*
X63195415Y19028601D01*
X63288547Y18889220D01*
X63352697Y18734348D01*
X63385400Y18569936D01*
X63385400Y18402304D01*
X63352697Y18237892D01*
X63288547Y18083020D01*
X63195415Y17943639D01*
X63076881Y17825105D01*
X62937500Y17731973D01*
X62782628Y17667823D01*
X62618216Y17635120D01*
X62450584Y17635120D01*
X62286172Y17667823D01*
X62131300Y17731973D01*
X61991919Y17825105D01*
X61873385Y17943639D01*
X61780253Y18083020D01*
X61716103Y18237892D01*
X61683400Y18402304D01*
X61683400Y18569936D01*
X61716103Y18734348D01*
X61780253Y18889220D01*
X61873385Y19028601D01*
X61991919Y19147135D01*
X62131300Y19240267D01*
X62286172Y19304417D01*
X62450584Y19337120D01*
X62618216Y19337120D01*
X62782628Y19304417D01*
X62782628Y19304417D01*
G37*
G36*
X52119042Y20038639D02*
G01*
X52264814Y19978258D01*
X52264816Y19978257D01*
X52396008Y19890598D01*
X52507578Y19779028D01*
X52528068Y19748362D01*
X52595238Y19647834D01*
X52655619Y19502062D01*
X52686400Y19347313D01*
X52686400Y19189527D01*
X52655619Y19034778D01*
X52595325Y18889217D01*
X52595237Y18889004D01*
X52507578Y18757812D01*
X52396008Y18646242D01*
X52264816Y18558583D01*
X52264815Y18558582D01*
X52264814Y18558582D01*
X52119042Y18498201D01*
X51964293Y18467420D01*
X51806507Y18467420D01*
X51651758Y18498201D01*
X51505986Y18558582D01*
X51505985Y18558582D01*
X51505984Y18558583D01*
X51374792Y18646242D01*
X51263222Y18757812D01*
X51175563Y18889004D01*
X51175475Y18889217D01*
X51115181Y19034778D01*
X51084400Y19189527D01*
X51084400Y19347313D01*
X51115181Y19502062D01*
X51175562Y19647834D01*
X51242732Y19748362D01*
X51263222Y19779028D01*
X51374792Y19890598D01*
X51505984Y19978257D01*
X51505986Y19978258D01*
X51651758Y20038639D01*
X51806507Y20069420D01*
X51964293Y20069420D01*
X52119042Y20038639D01*
X52119042Y20038639D01*
G37*
G36*
X37113223Y20259807D02*
G01*
X37273642Y20211144D01*
X37406306Y20140234D01*
X37421478Y20132124D01*
X37551059Y20025779D01*
X37657404Y19896198D01*
X37657405Y19896196D01*
X37736424Y19748362D01*
X37785087Y19587943D01*
X37801517Y19421120D01*
X37785087Y19254297D01*
X37736424Y19093878D01*
X37701532Y19028600D01*
X37657404Y18946042D01*
X37551059Y18816461D01*
X37421478Y18710116D01*
X37421476Y18710115D01*
X37273642Y18631096D01*
X37113223Y18582433D01*
X36988204Y18570120D01*
X36904596Y18570120D01*
X36779577Y18582433D01*
X36619158Y18631096D01*
X36471324Y18710115D01*
X36471322Y18710116D01*
X36341741Y18816461D01*
X36235396Y18946042D01*
X36191268Y19028600D01*
X36156376Y19093878D01*
X36107713Y19254297D01*
X36091283Y19421120D01*
X36107713Y19587943D01*
X36156376Y19748362D01*
X36235395Y19896196D01*
X36235396Y19896198D01*
X36341741Y20025779D01*
X36471322Y20132124D01*
X36486494Y20140234D01*
X36619158Y20211144D01*
X36779577Y20259807D01*
X36904596Y20272120D01*
X36988204Y20272120D01*
X37113223Y20259807D01*
X37113223Y20259807D01*
G37*
G36*
X44733223Y20259807D02*
G01*
X44893642Y20211144D01*
X45026306Y20140234D01*
X45041478Y20132124D01*
X45171059Y20025779D01*
X45277404Y19896198D01*
X45277405Y19896196D01*
X45356424Y19748362D01*
X45405087Y19587943D01*
X45421517Y19421120D01*
X45405087Y19254297D01*
X45356424Y19093878D01*
X45321532Y19028600D01*
X45277404Y18946042D01*
X45171059Y18816461D01*
X45041478Y18710116D01*
X45041476Y18710115D01*
X44893642Y18631096D01*
X44733223Y18582433D01*
X44608204Y18570120D01*
X44524596Y18570120D01*
X44399577Y18582433D01*
X44239158Y18631096D01*
X44091324Y18710115D01*
X44091322Y18710116D01*
X43961741Y18816461D01*
X43855396Y18946042D01*
X43811268Y19028600D01*
X43776376Y19093878D01*
X43727713Y19254297D01*
X43711283Y19421120D01*
X43727713Y19587943D01*
X43776376Y19748362D01*
X43855395Y19896196D01*
X43855396Y19896198D01*
X43961741Y20025779D01*
X44091322Y20132124D01*
X44106494Y20140234D01*
X44239158Y20211144D01*
X44399577Y20259807D01*
X44524596Y20272120D01*
X44608204Y20272120D01*
X44733223Y20259807D01*
X44733223Y20259807D01*
G37*
G36*
X7634194Y22676787D02*
G01*
X7806595Y22624489D01*
X7965483Y22539562D01*
X8104749Y22425269D01*
X8219042Y22286003D01*
X8303969Y22127115D01*
X8356267Y21954714D01*
X8373925Y21775420D01*
X8356267Y21596126D01*
X8303969Y21423725D01*
X8219042Y21264837D01*
X8104749Y21125571D01*
X7965483Y21011278D01*
X7806595Y20926351D01*
X7634194Y20874053D01*
X7499831Y20860820D01*
X7409969Y20860820D01*
X7275606Y20874053D01*
X7103205Y20926351D01*
X6944317Y21011278D01*
X6805051Y21125571D01*
X6690758Y21264837D01*
X6605831Y21423725D01*
X6553533Y21596126D01*
X6535875Y21775420D01*
X6553533Y21954714D01*
X6605831Y22127115D01*
X6690758Y22286003D01*
X6805051Y22425269D01*
X6944317Y22539562D01*
X7103205Y22624489D01*
X7275606Y22676787D01*
X7409969Y22690020D01*
X7499831Y22690020D01*
X7634194Y22676787D01*
X7634194Y22676787D01*
G37*
G36*
X5094194Y22676787D02*
G01*
X5266595Y22624489D01*
X5425483Y22539562D01*
X5564749Y22425269D01*
X5679042Y22286003D01*
X5763969Y22127115D01*
X5816267Y21954714D01*
X5833925Y21775420D01*
X5816267Y21596126D01*
X5763969Y21423725D01*
X5679042Y21264837D01*
X5564749Y21125571D01*
X5425483Y21011278D01*
X5266595Y20926351D01*
X5094194Y20874053D01*
X4959831Y20860820D01*
X4869969Y20860820D01*
X4735606Y20874053D01*
X4563205Y20926351D01*
X4404317Y21011278D01*
X4265051Y21125571D01*
X4150758Y21264837D01*
X4065831Y21423725D01*
X4013533Y21596126D01*
X3995875Y21775420D01*
X4013533Y21954714D01*
X4065831Y22127115D01*
X4150758Y22286003D01*
X4265051Y22425269D01*
X4404317Y22539562D01*
X4563205Y22624489D01*
X4735606Y22676787D01*
X4869969Y22690020D01*
X4959831Y22690020D01*
X5094194Y22676787D01*
X5094194Y22676787D01*
G37*
G36*
X44733223Y22799807D02*
G01*
X44893642Y22751144D01*
X45007997Y22690020D01*
X45041478Y22672124D01*
X45171059Y22565779D01*
X45277404Y22436198D01*
X45277405Y22436196D01*
X45356424Y22288362D01*
X45405087Y22127943D01*
X45421517Y21961120D01*
X45405087Y21794297D01*
X45356424Y21633878D01*
X45336245Y21596126D01*
X45277404Y21486042D01*
X45171059Y21356461D01*
X45041478Y21250116D01*
X45041476Y21250115D01*
X44893642Y21171096D01*
X44733223Y21122433D01*
X44608204Y21110120D01*
X44524596Y21110120D01*
X44399577Y21122433D01*
X44239158Y21171096D01*
X44091324Y21250115D01*
X44091322Y21250116D01*
X43961741Y21356461D01*
X43855396Y21486042D01*
X43796555Y21596126D01*
X43776376Y21633878D01*
X43727713Y21794297D01*
X43711283Y21961120D01*
X43727713Y22127943D01*
X43776376Y22288362D01*
X43855395Y22436196D01*
X43855396Y22436198D01*
X43961741Y22565779D01*
X44091322Y22672124D01*
X44124803Y22690020D01*
X44239158Y22751144D01*
X44399577Y22799807D01*
X44524596Y22812120D01*
X44608204Y22812120D01*
X44733223Y22799807D01*
X44733223Y22799807D01*
G37*
G36*
X37113223Y22799807D02*
G01*
X37273642Y22751144D01*
X37387997Y22690020D01*
X37421478Y22672124D01*
X37551059Y22565779D01*
X37657404Y22436198D01*
X37657405Y22436196D01*
X37736424Y22288362D01*
X37785087Y22127943D01*
X37801517Y21961120D01*
X37785087Y21794297D01*
X37736424Y21633878D01*
X37716245Y21596126D01*
X37657404Y21486042D01*
X37551059Y21356461D01*
X37421478Y21250116D01*
X37421476Y21250115D01*
X37273642Y21171096D01*
X37113223Y21122433D01*
X36988204Y21110120D01*
X36904596Y21110120D01*
X36779577Y21122433D01*
X36619158Y21171096D01*
X36471324Y21250115D01*
X36471322Y21250116D01*
X36341741Y21356461D01*
X36235396Y21486042D01*
X36176555Y21596126D01*
X36156376Y21633878D01*
X36107713Y21794297D01*
X36091283Y21961120D01*
X36107713Y22127943D01*
X36156376Y22288362D01*
X36235395Y22436196D01*
X36235396Y22436198D01*
X36341741Y22565779D01*
X36471322Y22672124D01*
X36504803Y22690020D01*
X36619158Y22751144D01*
X36779577Y22799807D01*
X36904596Y22812120D01*
X36988204Y22812120D01*
X37113223Y22799807D01*
X37113223Y22799807D01*
G37*
G36*
X52119042Y24918639D02*
G01*
X52264814Y24858258D01*
X52264816Y24858257D01*
X52396008Y24770598D01*
X52507578Y24659028D01*
X52595237Y24527836D01*
X52595238Y24527834D01*
X52655619Y24382062D01*
X52686400Y24227313D01*
X52686400Y24069527D01*
X52655619Y23914778D01*
X52595238Y23769006D01*
X52595237Y23769004D01*
X52507578Y23637812D01*
X52396008Y23526242D01*
X52264816Y23438583D01*
X52264815Y23438582D01*
X52264814Y23438582D01*
X52119042Y23378201D01*
X51964293Y23347420D01*
X51806507Y23347420D01*
X51651758Y23378201D01*
X51505986Y23438582D01*
X51505985Y23438582D01*
X51505984Y23438583D01*
X51374792Y23526242D01*
X51263222Y23637812D01*
X51175563Y23769004D01*
X51175562Y23769006D01*
X51115181Y23914778D01*
X51084400Y24069527D01*
X51084400Y24227313D01*
X51115181Y24382062D01*
X51175562Y24527834D01*
X51175563Y24527836D01*
X51263222Y24659028D01*
X51374792Y24770598D01*
X51505984Y24858257D01*
X51505986Y24858258D01*
X51651758Y24918639D01*
X51806507Y24949420D01*
X51964293Y24949420D01*
X52119042Y24918639D01*
X52119042Y24918639D01*
G37*
G36*
X5094194Y25216787D02*
G01*
X5266595Y25164489D01*
X5425483Y25079562D01*
X5564749Y24965269D01*
X5679042Y24826003D01*
X5763969Y24667115D01*
X5816267Y24494714D01*
X5833925Y24315420D01*
X5816267Y24136126D01*
X5763969Y23963725D01*
X5679042Y23804837D01*
X5564749Y23665571D01*
X5425483Y23551278D01*
X5266595Y23466351D01*
X5094194Y23414053D01*
X4959831Y23400820D01*
X4869969Y23400820D01*
X4735606Y23414053D01*
X4563205Y23466351D01*
X4404317Y23551278D01*
X4265051Y23665571D01*
X4150758Y23804837D01*
X4065831Y23963725D01*
X4013533Y24136126D01*
X3995875Y24315420D01*
X4013533Y24494714D01*
X4065831Y24667115D01*
X4150758Y24826003D01*
X4265051Y24965269D01*
X4404317Y25079562D01*
X4563205Y25164489D01*
X4735606Y25216787D01*
X4869969Y25230020D01*
X4959831Y25230020D01*
X5094194Y25216787D01*
X5094194Y25216787D01*
G37*
G36*
X7634194Y25216787D02*
G01*
X7806595Y25164489D01*
X7965483Y25079562D01*
X8104749Y24965269D01*
X8219042Y24826003D01*
X8303969Y24667115D01*
X8356267Y24494714D01*
X8373925Y24315420D01*
X8356267Y24136126D01*
X8303969Y23963725D01*
X8219042Y23804837D01*
X8104749Y23665571D01*
X7965483Y23551278D01*
X7806595Y23466351D01*
X7634194Y23414053D01*
X7499831Y23400820D01*
X7409969Y23400820D01*
X7275606Y23414053D01*
X7103205Y23466351D01*
X6944317Y23551278D01*
X6805051Y23665571D01*
X6690758Y23804837D01*
X6605831Y23963725D01*
X6553533Y24136126D01*
X6535875Y24315420D01*
X6553533Y24494714D01*
X6605831Y24667115D01*
X6690758Y24826003D01*
X6805051Y24965269D01*
X6944317Y25079562D01*
X7103205Y25164489D01*
X7275606Y25216787D01*
X7409969Y25230020D01*
X7499831Y25230020D01*
X7634194Y25216787D01*
X7634194Y25216787D01*
G37*
G36*
X44733223Y25339807D02*
G01*
X44893642Y25291144D01*
X44990785Y25239220D01*
X45041478Y25212124D01*
X45171059Y25105779D01*
X45277404Y24976198D01*
X45277405Y24976196D01*
X45356424Y24828362D01*
X45405087Y24667943D01*
X45421517Y24501120D01*
X45405087Y24334297D01*
X45356424Y24173878D01*
X45336245Y24136126D01*
X45277404Y24026042D01*
X45171059Y23896461D01*
X45041478Y23790116D01*
X45041476Y23790115D01*
X44893642Y23711096D01*
X44733223Y23662433D01*
X44608204Y23650120D01*
X44524596Y23650120D01*
X44399577Y23662433D01*
X44239158Y23711096D01*
X44091324Y23790115D01*
X44091322Y23790116D01*
X43961741Y23896461D01*
X43855396Y24026042D01*
X43796555Y24136126D01*
X43776376Y24173878D01*
X43727713Y24334297D01*
X43711283Y24501120D01*
X43727713Y24667943D01*
X43776376Y24828362D01*
X43855395Y24976196D01*
X43855396Y24976198D01*
X43961741Y25105779D01*
X44091322Y25212124D01*
X44142015Y25239220D01*
X44239158Y25291144D01*
X44399577Y25339807D01*
X44524596Y25352120D01*
X44608204Y25352120D01*
X44733223Y25339807D01*
X44733223Y25339807D01*
G37*
G36*
X37113223Y25339807D02*
G01*
X37273642Y25291144D01*
X37370785Y25239220D01*
X37421478Y25212124D01*
X37551059Y25105779D01*
X37657404Y24976198D01*
X37657405Y24976196D01*
X37736424Y24828362D01*
X37785087Y24667943D01*
X37801517Y24501120D01*
X37785087Y24334297D01*
X37736424Y24173878D01*
X37716245Y24136126D01*
X37657404Y24026042D01*
X37551059Y23896461D01*
X37421478Y23790116D01*
X37421476Y23790115D01*
X37273642Y23711096D01*
X37113223Y23662433D01*
X36988204Y23650120D01*
X36904596Y23650120D01*
X36779577Y23662433D01*
X36619158Y23711096D01*
X36471324Y23790115D01*
X36471322Y23790116D01*
X36341741Y23896461D01*
X36235396Y24026042D01*
X36176555Y24136126D01*
X36156376Y24173878D01*
X36107713Y24334297D01*
X36091283Y24501120D01*
X36107713Y24667943D01*
X36156376Y24828362D01*
X36235395Y24976196D01*
X36235396Y24976198D01*
X36341741Y25105779D01*
X36471322Y25212124D01*
X36522015Y25239220D01*
X36619158Y25291144D01*
X36779577Y25339807D01*
X36904596Y25352120D01*
X36988204Y25352120D01*
X37113223Y25339807D01*
X37113223Y25339807D01*
G37*
G36*
X57782628Y25654417D02*
G01*
X57937500Y25590267D01*
X58076881Y25497135D01*
X58195415Y25378601D01*
X58288547Y25239220D01*
X58352697Y25084348D01*
X58385400Y24919936D01*
X58385400Y24752304D01*
X58352697Y24587892D01*
X58288547Y24433020D01*
X58195415Y24293639D01*
X58076881Y24175105D01*
X57937500Y24081973D01*
X57782628Y24017823D01*
X57618216Y23985120D01*
X57450584Y23985120D01*
X57286172Y24017823D01*
X57131300Y24081973D01*
X56991919Y24175105D01*
X56873385Y24293639D01*
X56780253Y24433020D01*
X56716103Y24587892D01*
X56683400Y24752304D01*
X56683400Y24919936D01*
X56716103Y25084348D01*
X56780253Y25239220D01*
X56873385Y25378601D01*
X56991919Y25497135D01*
X57131300Y25590267D01*
X57286172Y25654417D01*
X57450584Y25687120D01*
X57618216Y25687120D01*
X57782628Y25654417D01*
X57782628Y25654417D01*
G37*
G36*
X62782628Y25654417D02*
G01*
X62937500Y25590267D01*
X63076881Y25497135D01*
X63195415Y25378601D01*
X63288547Y25239220D01*
X63352697Y25084348D01*
X63385400Y24919936D01*
X63385400Y24752304D01*
X63352697Y24587892D01*
X63288547Y24433020D01*
X63195415Y24293639D01*
X63076881Y24175105D01*
X62937500Y24081973D01*
X62782628Y24017823D01*
X62618216Y23985120D01*
X62450584Y23985120D01*
X62286172Y24017823D01*
X62131300Y24081973D01*
X61991919Y24175105D01*
X61873385Y24293639D01*
X61780253Y24433020D01*
X61716103Y24587892D01*
X61683400Y24752304D01*
X61683400Y24919936D01*
X61716103Y25084348D01*
X61780253Y25239220D01*
X61873385Y25378601D01*
X61991919Y25497135D01*
X62131300Y25590267D01*
X62286172Y25654417D01*
X62450584Y25687120D01*
X62618216Y25687120D01*
X62782628Y25654417D01*
X62782628Y25654417D01*
G37*
G36*
X5094194Y27756787D02*
G01*
X5266595Y27704489D01*
X5425483Y27619562D01*
X5564749Y27505269D01*
X5679042Y27366003D01*
X5763969Y27207115D01*
X5816267Y27034714D01*
X5833925Y26855420D01*
X5816267Y26676126D01*
X5763969Y26503725D01*
X5679042Y26344837D01*
X5564749Y26205571D01*
X5425483Y26091278D01*
X5266595Y26006351D01*
X5094194Y25954053D01*
X4959831Y25940820D01*
X4869969Y25940820D01*
X4735606Y25954053D01*
X4563205Y26006351D01*
X4404317Y26091278D01*
X4265051Y26205571D01*
X4150758Y26344837D01*
X4065831Y26503725D01*
X4013533Y26676126D01*
X3995875Y26855420D01*
X4013533Y27034714D01*
X4065831Y27207115D01*
X4150758Y27366003D01*
X4265051Y27505269D01*
X4404317Y27619562D01*
X4563205Y27704489D01*
X4735606Y27756787D01*
X4869969Y27770020D01*
X4959831Y27770020D01*
X5094194Y27756787D01*
X5094194Y27756787D01*
G37*
G36*
X7634194Y27756787D02*
G01*
X7806595Y27704489D01*
X7965483Y27619562D01*
X8104749Y27505269D01*
X8219042Y27366003D01*
X8303969Y27207115D01*
X8356267Y27034714D01*
X8373925Y26855420D01*
X8356267Y26676126D01*
X8303969Y26503725D01*
X8219042Y26344837D01*
X8104749Y26205571D01*
X7965483Y26091278D01*
X7806595Y26006351D01*
X7634194Y25954053D01*
X7499831Y25940820D01*
X7409969Y25940820D01*
X7275606Y25954053D01*
X7103205Y26006351D01*
X6944317Y26091278D01*
X6805051Y26205571D01*
X6690758Y26344837D01*
X6605831Y26503725D01*
X6553533Y26676126D01*
X6535875Y26855420D01*
X6553533Y27034714D01*
X6605831Y27207115D01*
X6690758Y27366003D01*
X6805051Y27505269D01*
X6944317Y27619562D01*
X7103205Y27704489D01*
X7275606Y27756787D01*
X7409969Y27770020D01*
X7499831Y27770020D01*
X7634194Y27756787D01*
X7634194Y27756787D01*
G37*
G36*
X44733223Y27879807D02*
G01*
X44893642Y27831144D01*
X45007997Y27770020D01*
X45041478Y27752124D01*
X45171059Y27645779D01*
X45277404Y27516198D01*
X45277405Y27516196D01*
X45356424Y27368362D01*
X45405087Y27207943D01*
X45421517Y27041120D01*
X45405087Y26874297D01*
X45356424Y26713878D01*
X45336245Y26676126D01*
X45277404Y26566042D01*
X45171059Y26436461D01*
X45041478Y26330116D01*
X45041476Y26330115D01*
X44893642Y26251096D01*
X44733223Y26202433D01*
X44608204Y26190120D01*
X44524596Y26190120D01*
X44399577Y26202433D01*
X44239158Y26251096D01*
X44091324Y26330115D01*
X44091322Y26330116D01*
X43961741Y26436461D01*
X43855396Y26566042D01*
X43796555Y26676126D01*
X43776376Y26713878D01*
X43727713Y26874297D01*
X43711283Y27041120D01*
X43727713Y27207943D01*
X43776376Y27368362D01*
X43855395Y27516196D01*
X43855396Y27516198D01*
X43961741Y27645779D01*
X44091322Y27752124D01*
X44124803Y27770020D01*
X44239158Y27831144D01*
X44399577Y27879807D01*
X44524596Y27892120D01*
X44608204Y27892120D01*
X44733223Y27879807D01*
X44733223Y27879807D01*
G37*
G36*
X37113223Y27879807D02*
G01*
X37273642Y27831144D01*
X37387997Y27770020D01*
X37421478Y27752124D01*
X37551059Y27645779D01*
X37657404Y27516198D01*
X37657405Y27516196D01*
X37736424Y27368362D01*
X37785087Y27207943D01*
X37801517Y27041120D01*
X37785087Y26874297D01*
X37736424Y26713878D01*
X37716245Y26676126D01*
X37657404Y26566042D01*
X37551059Y26436461D01*
X37421478Y26330116D01*
X37421476Y26330115D01*
X37273642Y26251096D01*
X37113223Y26202433D01*
X36988204Y26190120D01*
X36904596Y26190120D01*
X36779577Y26202433D01*
X36619158Y26251096D01*
X36471324Y26330115D01*
X36471322Y26330116D01*
X36341741Y26436461D01*
X36235396Y26566042D01*
X36176555Y26676126D01*
X36156376Y26713878D01*
X36107713Y26874297D01*
X36091283Y27041120D01*
X36107713Y27207943D01*
X36156376Y27368362D01*
X36235395Y27516196D01*
X36235396Y27516198D01*
X36341741Y27645779D01*
X36471322Y27752124D01*
X36504803Y27770020D01*
X36619158Y27831144D01*
X36779577Y27879807D01*
X36904596Y27892120D01*
X36988204Y27892120D01*
X37113223Y27879807D01*
X37113223Y27879807D01*
G37*
G36*
X5094194Y30296787D02*
G01*
X5266595Y30244489D01*
X5425483Y30159562D01*
X5564749Y30045269D01*
X5679042Y29906003D01*
X5763969Y29747115D01*
X5816267Y29574714D01*
X5833925Y29395420D01*
X5816267Y29216126D01*
X5763969Y29043725D01*
X5679042Y28884837D01*
X5564749Y28745571D01*
X5425483Y28631278D01*
X5266595Y28546351D01*
X5094194Y28494053D01*
X4959831Y28480820D01*
X4869969Y28480820D01*
X4735606Y28494053D01*
X4563205Y28546351D01*
X4404317Y28631278D01*
X4265051Y28745571D01*
X4150758Y28884837D01*
X4065831Y29043725D01*
X4013533Y29216126D01*
X3995875Y29395420D01*
X4013533Y29574714D01*
X4065831Y29747115D01*
X4150758Y29906003D01*
X4265051Y30045269D01*
X4404317Y30159562D01*
X4563205Y30244489D01*
X4735606Y30296787D01*
X4869969Y30310020D01*
X4959831Y30310020D01*
X5094194Y30296787D01*
X5094194Y30296787D01*
G37*
G36*
X7634194Y30296787D02*
G01*
X7806595Y30244489D01*
X7965483Y30159562D01*
X8104749Y30045269D01*
X8219042Y29906003D01*
X8303969Y29747115D01*
X8356267Y29574714D01*
X8373925Y29395420D01*
X8356267Y29216126D01*
X8303969Y29043725D01*
X8219042Y28884837D01*
X8104749Y28745571D01*
X7965483Y28631278D01*
X7806595Y28546351D01*
X7634194Y28494053D01*
X7499831Y28480820D01*
X7409969Y28480820D01*
X7275606Y28494053D01*
X7103205Y28546351D01*
X6944317Y28631278D01*
X6805051Y28745571D01*
X6690758Y28884837D01*
X6605831Y29043725D01*
X6553533Y29216126D01*
X6535875Y29395420D01*
X6553533Y29574714D01*
X6605831Y29747115D01*
X6690758Y29906003D01*
X6805051Y30045269D01*
X6944317Y30159562D01*
X7103205Y30244489D01*
X7275606Y30296787D01*
X7409969Y30310020D01*
X7499831Y30310020D01*
X7634194Y30296787D01*
X7634194Y30296787D01*
G37*
G36*
X37113223Y30419807D02*
G01*
X37273642Y30371144D01*
X37387997Y30310020D01*
X37421478Y30292124D01*
X37551059Y30185779D01*
X37657404Y30056198D01*
X37657405Y30056196D01*
X37736424Y29908362D01*
X37785087Y29747943D01*
X37801517Y29581120D01*
X37785087Y29414297D01*
X37736424Y29253878D01*
X37716245Y29216126D01*
X37657404Y29106042D01*
X37551059Y28976461D01*
X37421478Y28870116D01*
X37421476Y28870115D01*
X37273642Y28791096D01*
X37113223Y28742433D01*
X36988204Y28730120D01*
X36904596Y28730120D01*
X36779577Y28742433D01*
X36619158Y28791096D01*
X36471324Y28870115D01*
X36471322Y28870116D01*
X36341741Y28976461D01*
X36235396Y29106042D01*
X36176555Y29216126D01*
X36156376Y29253878D01*
X36107713Y29414297D01*
X36091283Y29581120D01*
X36107713Y29747943D01*
X36156376Y29908362D01*
X36235395Y30056196D01*
X36235396Y30056198D01*
X36341741Y30185779D01*
X36471322Y30292124D01*
X36504803Y30310020D01*
X36619158Y30371144D01*
X36779577Y30419807D01*
X36904596Y30432120D01*
X36988204Y30432120D01*
X37113223Y30419807D01*
X37113223Y30419807D01*
G37*
G36*
X44733223Y30419807D02*
G01*
X44893642Y30371144D01*
X45007997Y30310020D01*
X45041478Y30292124D01*
X45171059Y30185779D01*
X45277404Y30056198D01*
X45277405Y30056196D01*
X45356424Y29908362D01*
X45405087Y29747943D01*
X45421517Y29581120D01*
X45405087Y29414297D01*
X45356424Y29253878D01*
X45336245Y29216126D01*
X45277404Y29106042D01*
X45171059Y28976461D01*
X45041478Y28870116D01*
X45041476Y28870115D01*
X44893642Y28791096D01*
X44733223Y28742433D01*
X44608204Y28730120D01*
X44524596Y28730120D01*
X44399577Y28742433D01*
X44239158Y28791096D01*
X44091324Y28870115D01*
X44091322Y28870116D01*
X43961741Y28976461D01*
X43855396Y29106042D01*
X43796555Y29216126D01*
X43776376Y29253878D01*
X43727713Y29414297D01*
X43711283Y29581120D01*
X43727713Y29747943D01*
X43776376Y29908362D01*
X43855395Y30056196D01*
X43855396Y30056198D01*
X43961741Y30185779D01*
X44091322Y30292124D01*
X44124803Y30310020D01*
X44239158Y30371144D01*
X44399577Y30419807D01*
X44524596Y30432120D01*
X44608204Y30432120D01*
X44733223Y30419807D01*
X44733223Y30419807D01*
G37*
G36*
X26918200Y30024620D02*
G01*
X25016200Y30024620D01*
X25016200Y31926620D01*
X26918200Y31926620D01*
X26918200Y30024620D01*
X26918200Y30024620D01*
G37*
G36*
X19790200Y30024620D02*
G01*
X17888200Y30024620D01*
X17888200Y31926620D01*
X19790200Y31926620D01*
X19790200Y30024620D01*
X19790200Y30024620D01*
G37*
G36*
X7634194Y32836787D02*
G01*
X7806595Y32784489D01*
X7965483Y32699562D01*
X8104749Y32585269D01*
X8219042Y32446003D01*
X8303969Y32287115D01*
X8356267Y32114714D01*
X8373925Y31935420D01*
X8356267Y31756126D01*
X8303969Y31583725D01*
X8219042Y31424837D01*
X8104749Y31285571D01*
X7965483Y31171278D01*
X7806595Y31086351D01*
X7634194Y31034053D01*
X7499831Y31020820D01*
X7409969Y31020820D01*
X7275606Y31034053D01*
X7103205Y31086351D01*
X6944317Y31171278D01*
X6805051Y31285571D01*
X6690758Y31424837D01*
X6605831Y31583725D01*
X6553533Y31756126D01*
X6535875Y31935420D01*
X6553533Y32114714D01*
X6605831Y32287115D01*
X6690758Y32446003D01*
X6805051Y32585269D01*
X6944317Y32699562D01*
X7103205Y32784489D01*
X7275606Y32836787D01*
X7409969Y32850020D01*
X7499831Y32850020D01*
X7634194Y32836787D01*
X7634194Y32836787D01*
G37*
G36*
X5829500Y31020820D02*
G01*
X4000300Y31020820D01*
X4000300Y32850020D01*
X5829500Y32850020D01*
X5829500Y31020820D01*
X5829500Y31020820D01*
G37*
G36*
X44733223Y32959807D02*
G01*
X44893642Y32911144D01*
X44998687Y32854996D01*
X45041478Y32832124D01*
X45171059Y32725779D01*
X45277404Y32596198D01*
X45277405Y32596196D01*
X45356424Y32448362D01*
X45405087Y32287943D01*
X45421517Y32121120D01*
X45405087Y31954297D01*
X45356424Y31793878D01*
X45336245Y31756126D01*
X45277404Y31646042D01*
X45171059Y31516461D01*
X45041478Y31410116D01*
X45041476Y31410115D01*
X44893642Y31331096D01*
X44733223Y31282433D01*
X44608204Y31270120D01*
X44524596Y31270120D01*
X44399577Y31282433D01*
X44239158Y31331096D01*
X44091324Y31410115D01*
X44091322Y31410116D01*
X43961741Y31516461D01*
X43855396Y31646042D01*
X43796555Y31756126D01*
X43776376Y31793878D01*
X43727713Y31954297D01*
X43711283Y32121120D01*
X43727713Y32287943D01*
X43776376Y32448362D01*
X43855395Y32596196D01*
X43855396Y32596198D01*
X43961741Y32725779D01*
X44091322Y32832124D01*
X44134113Y32854996D01*
X44239158Y32911144D01*
X44399577Y32959807D01*
X44524596Y32972120D01*
X44608204Y32972120D01*
X44733223Y32959807D01*
X44733223Y32959807D01*
G37*
G36*
X37113223Y32959807D02*
G01*
X37273642Y32911144D01*
X37378687Y32854996D01*
X37421478Y32832124D01*
X37551059Y32725779D01*
X37657404Y32596198D01*
X37657405Y32596196D01*
X37736424Y32448362D01*
X37785087Y32287943D01*
X37801517Y32121120D01*
X37785087Y31954297D01*
X37736424Y31793878D01*
X37716245Y31756126D01*
X37657404Y31646042D01*
X37551059Y31516461D01*
X37421478Y31410116D01*
X37421476Y31410115D01*
X37273642Y31331096D01*
X37113223Y31282433D01*
X36988204Y31270120D01*
X36904596Y31270120D01*
X36779577Y31282433D01*
X36619158Y31331096D01*
X36471324Y31410115D01*
X36471322Y31410116D01*
X36341741Y31516461D01*
X36235396Y31646042D01*
X36176555Y31756126D01*
X36156376Y31793878D01*
X36107713Y31954297D01*
X36091283Y32121120D01*
X36107713Y32287943D01*
X36156376Y32448362D01*
X36235395Y32596196D01*
X36235396Y32596198D01*
X36341741Y32725779D01*
X36471322Y32832124D01*
X36514113Y32854996D01*
X36619158Y32911144D01*
X36779577Y32959807D01*
X36904596Y32972120D01*
X36988204Y32972120D01*
X37113223Y32959807D01*
X37113223Y32959807D01*
G37*
G36*
X67116223Y33218607D02*
G01*
X67276642Y33169944D01*
X67343761Y33134068D01*
X67424478Y33090924D01*
X67554059Y32984579D01*
X67660404Y32854998D01*
X67660405Y32854996D01*
X67739424Y32707162D01*
X67739425Y32707159D01*
X67741730Y32699561D01*
X67788087Y32546743D01*
X67804517Y32379920D01*
X67788087Y32213097D01*
X67739424Y32052678D01*
X67668514Y31920014D01*
X67660404Y31904842D01*
X67554059Y31775261D01*
X67424478Y31668916D01*
X67424476Y31668915D01*
X67276642Y31589896D01*
X67116223Y31541233D01*
X66991204Y31528920D01*
X66907596Y31528920D01*
X66782577Y31541233D01*
X66622158Y31589896D01*
X66474324Y31668915D01*
X66474322Y31668916D01*
X66344741Y31775261D01*
X66238396Y31904842D01*
X66230286Y31920014D01*
X66159376Y32052678D01*
X66110713Y32213097D01*
X66094283Y32379920D01*
X66110713Y32546743D01*
X66157070Y32699561D01*
X66159375Y32707159D01*
X66159376Y32707162D01*
X66238395Y32854996D01*
X66238396Y32854998D01*
X66344741Y32984579D01*
X66474322Y33090924D01*
X66555039Y33134068D01*
X66622158Y33169944D01*
X66782577Y33218607D01*
X66907596Y33230920D01*
X66991204Y33230920D01*
X67116223Y33218607D01*
X67116223Y33218607D01*
G37*
G36*
X59577628Y33198217D02*
G01*
X59732500Y33134067D01*
X59871881Y33040935D01*
X59990415Y32922401D01*
X60083547Y32783020D01*
X60147697Y32628148D01*
X60180400Y32463736D01*
X60180400Y32296104D01*
X60147697Y32131692D01*
X60083547Y31976820D01*
X59990415Y31837439D01*
X59871881Y31718905D01*
X59732500Y31625773D01*
X59577628Y31561623D01*
X59413216Y31528920D01*
X59245584Y31528920D01*
X59081172Y31561623D01*
X58926300Y31625773D01*
X58786919Y31718905D01*
X58668385Y31837439D01*
X58575253Y31976820D01*
X58511103Y32131692D01*
X58478400Y32296104D01*
X58478400Y32463736D01*
X58511103Y32628148D01*
X58575253Y32783020D01*
X58668385Y32922401D01*
X58786919Y33040935D01*
X58926300Y33134067D01*
X59081172Y33198217D01*
X59245584Y33230920D01*
X59413216Y33230920D01*
X59577628Y33198217D01*
X59577628Y33198217D01*
G37*
G36*
X19116595Y34430074D02*
G01*
X19289666Y34358386D01*
X19367018Y34306701D01*
X19445427Y34254310D01*
X19577890Y34121847D01*
X19577891Y34121845D01*
X19681966Y33966086D01*
X19753654Y33793015D01*
X19790200Y33609287D01*
X19790200Y33421953D01*
X19753654Y33238225D01*
X19681966Y33065154D01*
X19681965Y33065153D01*
X19577890Y32909393D01*
X19445427Y32776930D01*
X19368874Y32725779D01*
X19289666Y32672854D01*
X19116595Y32601166D01*
X18932867Y32564620D01*
X18745533Y32564620D01*
X18561805Y32601166D01*
X18388734Y32672854D01*
X18309526Y32725779D01*
X18232973Y32776930D01*
X18100510Y32909393D01*
X17996435Y33065153D01*
X17996434Y33065154D01*
X17924746Y33238225D01*
X17888200Y33421953D01*
X17888200Y33609287D01*
X17924746Y33793015D01*
X17996434Y33966086D01*
X18100509Y34121845D01*
X18100510Y34121847D01*
X18232973Y34254310D01*
X18311382Y34306701D01*
X18388734Y34358386D01*
X18561805Y34430074D01*
X18745533Y34466620D01*
X18932867Y34466620D01*
X19116595Y34430074D01*
X19116595Y34430074D01*
G37*
G36*
X26244595Y34430074D02*
G01*
X26417666Y34358386D01*
X26495018Y34306701D01*
X26573427Y34254310D01*
X26705890Y34121847D01*
X26705891Y34121845D01*
X26809966Y33966086D01*
X26881654Y33793015D01*
X26918200Y33609287D01*
X26918200Y33421953D01*
X26881654Y33238225D01*
X26809966Y33065154D01*
X26809965Y33065153D01*
X26705890Y32909393D01*
X26573427Y32776930D01*
X26496874Y32725779D01*
X26417666Y32672854D01*
X26244595Y32601166D01*
X26060867Y32564620D01*
X25873533Y32564620D01*
X25689805Y32601166D01*
X25516734Y32672854D01*
X25437526Y32725779D01*
X25360973Y32776930D01*
X25228510Y32909393D01*
X25124435Y33065153D01*
X25124434Y33065154D01*
X25052746Y33238225D01*
X25016200Y33421953D01*
X25016200Y33609287D01*
X25052746Y33793015D01*
X25124434Y33966086D01*
X25228509Y34121845D01*
X25228510Y34121847D01*
X25360973Y34254310D01*
X25439382Y34306701D01*
X25516734Y34358386D01*
X25689805Y34430074D01*
X25873533Y34466620D01*
X26060867Y34466620D01*
X26244595Y34430074D01*
X26244595Y34430074D01*
G37*
G36*
X44733223Y35499807D02*
G01*
X44893642Y35451144D01*
X45026306Y35380234D01*
X45041478Y35372124D01*
X45171059Y35265779D01*
X45277404Y35136198D01*
X45277405Y35136196D01*
X45356424Y34988362D01*
X45405087Y34827943D01*
X45421517Y34661120D01*
X45405087Y34494297D01*
X45365483Y34363740D01*
X45363859Y34358386D01*
X45356424Y34333878D01*
X45313894Y34254310D01*
X45277404Y34186042D01*
X45171059Y34056461D01*
X45041478Y33950116D01*
X45041476Y33950115D01*
X44893642Y33871096D01*
X44733223Y33822433D01*
X44608204Y33810120D01*
X44524596Y33810120D01*
X44399577Y33822433D01*
X44239158Y33871096D01*
X44091324Y33950115D01*
X44091322Y33950116D01*
X43961741Y34056461D01*
X43855396Y34186042D01*
X43818906Y34254310D01*
X43776376Y34333878D01*
X43768942Y34358386D01*
X43767317Y34363740D01*
X43727713Y34494297D01*
X43711283Y34661120D01*
X43727713Y34827943D01*
X43776376Y34988362D01*
X43855395Y35136196D01*
X43855396Y35136198D01*
X43961741Y35265779D01*
X44091322Y35372124D01*
X44106494Y35380234D01*
X44239158Y35451144D01*
X44399577Y35499807D01*
X44524596Y35512120D01*
X44608204Y35512120D01*
X44733223Y35499807D01*
X44733223Y35499807D01*
G37*
G36*
X37113223Y35499807D02*
G01*
X37273642Y35451144D01*
X37406306Y35380234D01*
X37421478Y35372124D01*
X37551059Y35265779D01*
X37657404Y35136198D01*
X37657405Y35136196D01*
X37736424Y34988362D01*
X37785087Y34827943D01*
X37801517Y34661120D01*
X37785087Y34494297D01*
X37745483Y34363740D01*
X37743859Y34358386D01*
X37736424Y34333878D01*
X37693894Y34254310D01*
X37657404Y34186042D01*
X37551059Y34056461D01*
X37421478Y33950116D01*
X37421476Y33950115D01*
X37273642Y33871096D01*
X37113223Y33822433D01*
X36988204Y33810120D01*
X36904596Y33810120D01*
X36779577Y33822433D01*
X36619158Y33871096D01*
X36471324Y33950115D01*
X36471322Y33950116D01*
X36341741Y34056461D01*
X36235396Y34186042D01*
X36198906Y34254310D01*
X36156376Y34333878D01*
X36148942Y34358386D01*
X36147317Y34363740D01*
X36107713Y34494297D01*
X36091283Y34661120D01*
X36107713Y34827943D01*
X36156376Y34988362D01*
X36235395Y35136196D01*
X36235396Y35136198D01*
X36341741Y35265779D01*
X36471322Y35372124D01*
X36486494Y35380234D01*
X36619158Y35451144D01*
X36779577Y35499807D01*
X36904596Y35512120D01*
X36988204Y35512120D01*
X37113223Y35499807D01*
X37113223Y35499807D01*
G37*
G36*
X49722223Y37866807D02*
G01*
X49882642Y37818144D01*
X49949761Y37782268D01*
X50030478Y37739124D01*
X50160059Y37632779D01*
X50266404Y37503198D01*
X50266405Y37503196D01*
X50345424Y37355362D01*
X50394087Y37194943D01*
X50410517Y37028120D01*
X50394087Y36861297D01*
X50345424Y36700878D01*
X50304877Y36625020D01*
X50266404Y36553042D01*
X50160059Y36423461D01*
X50030478Y36317116D01*
X50030476Y36317115D01*
X49882642Y36238096D01*
X49722223Y36189433D01*
X49597204Y36177120D01*
X49513596Y36177120D01*
X49388577Y36189433D01*
X49228158Y36238096D01*
X49080324Y36317115D01*
X49080322Y36317116D01*
X48950741Y36423461D01*
X48844396Y36553042D01*
X48805923Y36625020D01*
X48765376Y36700878D01*
X48716713Y36861297D01*
X48700283Y37028120D01*
X48716713Y37194943D01*
X48765376Y37355362D01*
X48844395Y37503196D01*
X48844396Y37503198D01*
X48950741Y37632779D01*
X49080322Y37739124D01*
X49161039Y37782268D01*
X49228158Y37818144D01*
X49388577Y37866807D01*
X49513596Y37879120D01*
X49597204Y37879120D01*
X49722223Y37866807D01*
X49722223Y37866807D01*
G37*
G36*
X55899628Y37846417D02*
G01*
X56054500Y37782267D01*
X56193881Y37689135D01*
X56312415Y37570601D01*
X56405547Y37431220D01*
X56469697Y37276348D01*
X56502400Y37111936D01*
X56502400Y36944304D01*
X56469697Y36779892D01*
X56405547Y36625020D01*
X56312415Y36485639D01*
X56193881Y36367105D01*
X56054500Y36273973D01*
X55899628Y36209823D01*
X55735216Y36177120D01*
X55567584Y36177120D01*
X55403172Y36209823D01*
X55248300Y36273973D01*
X55108919Y36367105D01*
X54990385Y36485639D01*
X54897253Y36625020D01*
X54833103Y36779892D01*
X54800400Y36944304D01*
X54800400Y37111936D01*
X54833103Y37276348D01*
X54897253Y37431220D01*
X54990385Y37570601D01*
X55108919Y37689135D01*
X55248300Y37782267D01*
X55403172Y37846417D01*
X55567584Y37879120D01*
X55735216Y37879120D01*
X55899628Y37846417D01*
X55899628Y37846417D01*
G37*
G36*
X62261400Y36225320D02*
G01*
X60559400Y36225320D01*
X60559400Y37927320D01*
X62261400Y37927320D01*
X62261400Y36225320D01*
X62261400Y36225320D01*
G37*
G36*
X26134023Y37915007D02*
G01*
X26294442Y37866344D01*
X26407751Y37805779D01*
X26442278Y37787324D01*
X26571859Y37680979D01*
X26678204Y37551398D01*
X26678205Y37551396D01*
X26757224Y37403562D01*
X26805887Y37243143D01*
X26822317Y37076320D01*
X26805887Y36909497D01*
X26757224Y36749078D01*
X26690915Y36625023D01*
X26678204Y36601242D01*
X26571859Y36471661D01*
X26442278Y36365316D01*
X26442276Y36365315D01*
X26294442Y36286296D01*
X26134023Y36237633D01*
X26009004Y36225320D01*
X25925396Y36225320D01*
X25800377Y36237633D01*
X25639958Y36286296D01*
X25492124Y36365315D01*
X25492122Y36365316D01*
X25362541Y36471661D01*
X25256196Y36601242D01*
X25243485Y36625023D01*
X25177176Y36749078D01*
X25128513Y36909497D01*
X25112083Y37076320D01*
X25128513Y37243143D01*
X25177176Y37403562D01*
X25256195Y37551396D01*
X25256196Y37551398D01*
X25362541Y37680979D01*
X25492122Y37787324D01*
X25526649Y37805779D01*
X25639958Y37866344D01*
X25800377Y37915007D01*
X25925396Y37927320D01*
X26009004Y37927320D01*
X26134023Y37915007D01*
X26134023Y37915007D01*
G37*
G36*
X19006023Y37915007D02*
G01*
X19166442Y37866344D01*
X19279751Y37805779D01*
X19314278Y37787324D01*
X19443859Y37680979D01*
X19550204Y37551398D01*
X19550205Y37551396D01*
X19629224Y37403562D01*
X19677887Y37243143D01*
X19694317Y37076320D01*
X19677887Y36909497D01*
X19629224Y36749078D01*
X19562915Y36625023D01*
X19550204Y36601242D01*
X19443859Y36471661D01*
X19314278Y36365316D01*
X19314276Y36365315D01*
X19166442Y36286296D01*
X19006023Y36237633D01*
X18881004Y36225320D01*
X18797396Y36225320D01*
X18672377Y36237633D01*
X18511958Y36286296D01*
X18364124Y36365315D01*
X18364122Y36365316D01*
X18234541Y36471661D01*
X18128196Y36601242D01*
X18115485Y36625023D01*
X18049176Y36749078D01*
X18000513Y36909497D01*
X17984083Y37076320D01*
X18000513Y37243143D01*
X18049176Y37403562D01*
X18128195Y37551396D01*
X18128196Y37551398D01*
X18234541Y37680979D01*
X18364122Y37787324D01*
X18398649Y37805779D01*
X18511958Y37866344D01*
X18672377Y37915007D01*
X18797396Y37927320D01*
X18881004Y37927320D01*
X19006023Y37915007D01*
X19006023Y37915007D01*
G37*
G36*
X67781400Y36225320D02*
G01*
X66079400Y36225320D01*
X66079400Y37927320D01*
X67781400Y37927320D01*
X67781400Y36225320D01*
X67781400Y36225320D01*
G37*
G36*
X37113223Y38039807D02*
G01*
X37273642Y37991144D01*
X37393048Y37927320D01*
X37421478Y37912124D01*
X37551059Y37805779D01*
X37657404Y37676198D01*
X37657405Y37676196D01*
X37736424Y37528362D01*
X37785087Y37367943D01*
X37801517Y37201120D01*
X37785087Y37034297D01*
X37736424Y36873878D01*
X37729699Y36861297D01*
X37657404Y36726042D01*
X37551059Y36596461D01*
X37421478Y36490116D01*
X37421476Y36490115D01*
X37273642Y36411096D01*
X37113223Y36362433D01*
X36988204Y36350120D01*
X36904596Y36350120D01*
X36779577Y36362433D01*
X36619158Y36411096D01*
X36471324Y36490115D01*
X36471322Y36490116D01*
X36341741Y36596461D01*
X36235396Y36726042D01*
X36163101Y36861297D01*
X36156376Y36873878D01*
X36107713Y37034297D01*
X36091283Y37201120D01*
X36107713Y37367943D01*
X36156376Y37528362D01*
X36235395Y37676196D01*
X36235396Y37676198D01*
X36341741Y37805779D01*
X36471322Y37912124D01*
X36499752Y37927320D01*
X36619158Y37991144D01*
X36779577Y38039807D01*
X36904596Y38052120D01*
X36988204Y38052120D01*
X37113223Y38039807D01*
X37113223Y38039807D01*
G37*
G36*
X44733223Y38039807D02*
G01*
X44893642Y37991144D01*
X45013048Y37927320D01*
X45041478Y37912124D01*
X45171059Y37805779D01*
X45277404Y37676198D01*
X45277405Y37676196D01*
X45356424Y37528362D01*
X45405087Y37367943D01*
X45421517Y37201120D01*
X45405087Y37034297D01*
X45356424Y36873878D01*
X45349699Y36861297D01*
X45277404Y36726042D01*
X45171059Y36596461D01*
X45041478Y36490116D01*
X45041476Y36490115D01*
X44893642Y36411096D01*
X44733223Y36362433D01*
X44608204Y36350120D01*
X44524596Y36350120D01*
X44399577Y36362433D01*
X44239158Y36411096D01*
X44091324Y36490115D01*
X44091322Y36490116D01*
X43961741Y36596461D01*
X43855396Y36726042D01*
X43783101Y36861297D01*
X43776376Y36873878D01*
X43727713Y37034297D01*
X43711283Y37201120D01*
X43727713Y37367943D01*
X43776376Y37528362D01*
X43855395Y37676196D01*
X43855396Y37676198D01*
X43961741Y37805779D01*
X44091322Y37912124D01*
X44119752Y37927320D01*
X44239158Y37991144D01*
X44399577Y38039807D01*
X44524596Y38052120D01*
X44608204Y38052120D01*
X44733223Y38039807D01*
X44733223Y38039807D01*
G37*
G36*
X73171628Y40466417D02*
G01*
X73326500Y40402267D01*
X73465881Y40309135D01*
X73584415Y40190601D01*
X73677547Y40051220D01*
X73741697Y39896348D01*
X73774400Y39731936D01*
X73774400Y39564304D01*
X73741697Y39399892D01*
X73677547Y39245020D01*
X73584415Y39105639D01*
X73465881Y38987105D01*
X73326500Y38893973D01*
X73171628Y38829823D01*
X73007216Y38797120D01*
X72839584Y38797120D01*
X72675172Y38829823D01*
X72520300Y38893973D01*
X72380919Y38987105D01*
X72262385Y39105639D01*
X72169253Y39245020D01*
X72105103Y39399892D01*
X72072400Y39564304D01*
X72072400Y39731936D01*
X72105103Y39896348D01*
X72169253Y40051220D01*
X72262385Y40190601D01*
X72380919Y40309135D01*
X72520300Y40402267D01*
X72675172Y40466417D01*
X72839584Y40499120D01*
X73007216Y40499120D01*
X73171628Y40466417D01*
X73171628Y40466417D01*
G37*
G36*
X37113223Y40579807D02*
G01*
X37273642Y40531144D01*
X37394741Y40466415D01*
X37421478Y40452124D01*
X37551059Y40345779D01*
X37657404Y40216198D01*
X37657405Y40216196D01*
X37736424Y40068362D01*
X37785087Y39907943D01*
X37801517Y39741120D01*
X37785087Y39574297D01*
X37736424Y39413878D01*
X37665514Y39281214D01*
X37657404Y39266042D01*
X37551059Y39136461D01*
X37421478Y39030116D01*
X37421476Y39030115D01*
X37273642Y38951096D01*
X37113223Y38902433D01*
X36988204Y38890120D01*
X36904596Y38890120D01*
X36779577Y38902433D01*
X36619158Y38951096D01*
X36471324Y39030115D01*
X36471322Y39030116D01*
X36341741Y39136461D01*
X36235396Y39266042D01*
X36227286Y39281214D01*
X36156376Y39413878D01*
X36107713Y39574297D01*
X36091283Y39741120D01*
X36107713Y39907943D01*
X36156376Y40068362D01*
X36235395Y40216196D01*
X36235396Y40216198D01*
X36341741Y40345779D01*
X36471322Y40452124D01*
X36498059Y40466415D01*
X36619158Y40531144D01*
X36779577Y40579807D01*
X36904596Y40592120D01*
X36988204Y40592120D01*
X37113223Y40579807D01*
X37113223Y40579807D01*
G37*
G36*
X44733223Y40579807D02*
G01*
X44893642Y40531144D01*
X45014741Y40466415D01*
X45041478Y40452124D01*
X45171059Y40345779D01*
X45277404Y40216198D01*
X45277405Y40216196D01*
X45356424Y40068362D01*
X45405087Y39907943D01*
X45421517Y39741120D01*
X45405087Y39574297D01*
X45356424Y39413878D01*
X45285514Y39281214D01*
X45277404Y39266042D01*
X45171059Y39136461D01*
X45041478Y39030116D01*
X45041476Y39030115D01*
X44893642Y38951096D01*
X44733223Y38902433D01*
X44608204Y38890120D01*
X44524596Y38890120D01*
X44399577Y38902433D01*
X44239158Y38951096D01*
X44091324Y39030115D01*
X44091322Y39030116D01*
X43961741Y39136461D01*
X43855396Y39266042D01*
X43847286Y39281214D01*
X43776376Y39413878D01*
X43727713Y39574297D01*
X43711283Y39741120D01*
X43727713Y39907943D01*
X43776376Y40068362D01*
X43855395Y40216196D01*
X43855396Y40216198D01*
X43961741Y40345779D01*
X44091322Y40452124D01*
X44118059Y40466415D01*
X44239158Y40531144D01*
X44399577Y40579807D01*
X44524596Y40592120D01*
X44608204Y40592120D01*
X44733223Y40579807D01*
X44733223Y40579807D01*
G37*
G36*
X37113223Y43119807D02*
G01*
X37273642Y43071144D01*
X37406306Y43000234D01*
X37421478Y42992124D01*
X37551059Y42885779D01*
X37657404Y42756198D01*
X37657405Y42756196D01*
X37736424Y42608362D01*
X37785087Y42447943D01*
X37801517Y42281120D01*
X37785087Y42114297D01*
X37736424Y41953878D01*
X37665514Y41821214D01*
X37657404Y41806042D01*
X37551059Y41676461D01*
X37421478Y41570116D01*
X37421476Y41570115D01*
X37273642Y41491096D01*
X37113223Y41442433D01*
X36988204Y41430120D01*
X36904596Y41430120D01*
X36779577Y41442433D01*
X36619158Y41491096D01*
X36471324Y41570115D01*
X36471322Y41570116D01*
X36341741Y41676461D01*
X36235396Y41806042D01*
X36227286Y41821214D01*
X36156376Y41953878D01*
X36107713Y42114297D01*
X36091283Y42281120D01*
X36107713Y42447943D01*
X36156376Y42608362D01*
X36235395Y42756196D01*
X36235396Y42756198D01*
X36341741Y42885779D01*
X36471322Y42992124D01*
X36486494Y43000234D01*
X36619158Y43071144D01*
X36779577Y43119807D01*
X36904596Y43132120D01*
X36988204Y43132120D01*
X37113223Y43119807D01*
X37113223Y43119807D01*
G37*
G36*
X44733223Y43119807D02*
G01*
X44893642Y43071144D01*
X45026306Y43000234D01*
X45041478Y42992124D01*
X45171059Y42885779D01*
X45277404Y42756198D01*
X45277405Y42756196D01*
X45356424Y42608362D01*
X45405087Y42447943D01*
X45421517Y42281120D01*
X45405087Y42114297D01*
X45356424Y41953878D01*
X45285514Y41821214D01*
X45277404Y41806042D01*
X45171059Y41676461D01*
X45041478Y41570116D01*
X45041476Y41570115D01*
X44893642Y41491096D01*
X44733223Y41442433D01*
X44608204Y41430120D01*
X44524596Y41430120D01*
X44399577Y41442433D01*
X44239158Y41491096D01*
X44091324Y41570115D01*
X44091322Y41570116D01*
X43961741Y41676461D01*
X43855396Y41806042D01*
X43847286Y41821214D01*
X43776376Y41953878D01*
X43727713Y42114297D01*
X43711283Y42281120D01*
X43727713Y42447943D01*
X43776376Y42608362D01*
X43855395Y42756196D01*
X43855396Y42756198D01*
X43961741Y42885779D01*
X44091322Y42992124D01*
X44106494Y43000234D01*
X44239158Y43071144D01*
X44399577Y43119807D01*
X44524596Y43132120D01*
X44608204Y43132120D01*
X44733223Y43119807D01*
X44733223Y43119807D01*
G37*
G36*
X73171628Y45466417D02*
G01*
X73326500Y45402267D01*
X73465881Y45309135D01*
X73584415Y45190601D01*
X73677547Y45051220D01*
X73741697Y44896348D01*
X73774400Y44731936D01*
X73774400Y44564304D01*
X73741697Y44399892D01*
X73677547Y44245020D01*
X73584415Y44105639D01*
X73465881Y43987105D01*
X73326500Y43893973D01*
X73171628Y43829823D01*
X73007216Y43797120D01*
X72839584Y43797120D01*
X72675172Y43829823D01*
X72520300Y43893973D01*
X72380919Y43987105D01*
X72262385Y44105639D01*
X72169253Y44245020D01*
X72105103Y44399892D01*
X72072400Y44564304D01*
X72072400Y44731936D01*
X72105103Y44896348D01*
X72169253Y45051220D01*
X72262385Y45190601D01*
X72380919Y45309135D01*
X72520300Y45402267D01*
X72675172Y45466417D01*
X72839584Y45499120D01*
X73007216Y45499120D01*
X73171628Y45466417D01*
X73171628Y45466417D01*
G37*
G36*
X55818223Y45486807D02*
G01*
X55978642Y45438144D01*
X56045761Y45402268D01*
X56126478Y45359124D01*
X56256059Y45252779D01*
X56362404Y45123198D01*
X56362405Y45123196D01*
X56441424Y44975362D01*
X56490087Y44814943D01*
X56506517Y44648120D01*
X56490087Y44481297D01*
X56441424Y44320878D01*
X56400877Y44245020D01*
X56362404Y44173042D01*
X56256059Y44043461D01*
X56126478Y43937116D01*
X56126476Y43937115D01*
X55978642Y43858096D01*
X55818223Y43809433D01*
X55693204Y43797120D01*
X55609596Y43797120D01*
X55484577Y43809433D01*
X55324158Y43858096D01*
X55176324Y43937115D01*
X55176322Y43937116D01*
X55046741Y44043461D01*
X54940396Y44173042D01*
X54901923Y44245020D01*
X54861376Y44320878D01*
X54812713Y44481297D01*
X54796283Y44648120D01*
X54812713Y44814943D01*
X54861376Y44975362D01*
X54940395Y45123196D01*
X54940396Y45123198D01*
X55046741Y45252779D01*
X55176322Y45359124D01*
X55257039Y45402268D01*
X55324158Y45438144D01*
X55484577Y45486807D01*
X55609596Y45499120D01*
X55693204Y45499120D01*
X55818223Y45486807D01*
X55818223Y45486807D01*
G37*
G36*
X49803628Y45466417D02*
G01*
X49958500Y45402267D01*
X50097881Y45309135D01*
X50216415Y45190601D01*
X50309547Y45051220D01*
X50373697Y44896348D01*
X50406400Y44731936D01*
X50406400Y44564304D01*
X50373697Y44399892D01*
X50309547Y44245020D01*
X50216415Y44105639D01*
X50097881Y43987105D01*
X49958500Y43893973D01*
X49803628Y43829823D01*
X49639216Y43797120D01*
X49471584Y43797120D01*
X49307172Y43829823D01*
X49152300Y43893973D01*
X49012919Y43987105D01*
X48894385Y44105639D01*
X48801253Y44245020D01*
X48737103Y44399892D01*
X48704400Y44564304D01*
X48704400Y44731936D01*
X48737103Y44896348D01*
X48801253Y45051220D01*
X48894385Y45190601D01*
X49012919Y45309135D01*
X49152300Y45402267D01*
X49307172Y45466417D01*
X49471584Y45499120D01*
X49639216Y45499120D01*
X49803628Y45466417D01*
X49803628Y45466417D01*
G37*
G36*
X67097223Y45535007D02*
G01*
X67257642Y45486344D01*
X67390306Y45415434D01*
X67405478Y45407324D01*
X67535059Y45300979D01*
X67641404Y45171398D01*
X67641405Y45171396D01*
X67720424Y45023562D01*
X67769087Y44863143D01*
X67785517Y44696320D01*
X67769087Y44529497D01*
X67720424Y44369078D01*
X67679877Y44293220D01*
X67641404Y44221242D01*
X67535059Y44091661D01*
X67405478Y43985316D01*
X67405476Y43985315D01*
X67257642Y43906296D01*
X67097223Y43857633D01*
X66972204Y43845320D01*
X66888596Y43845320D01*
X66763577Y43857633D01*
X66603158Y43906296D01*
X66455324Y43985315D01*
X66455322Y43985316D01*
X66325741Y44091661D01*
X66219396Y44221242D01*
X66180923Y44293220D01*
X66140376Y44369078D01*
X66091713Y44529497D01*
X66075283Y44696320D01*
X66091713Y44863143D01*
X66140376Y45023562D01*
X66219395Y45171396D01*
X66219396Y45171398D01*
X66325741Y45300979D01*
X66455322Y45407324D01*
X66470494Y45415434D01*
X66603158Y45486344D01*
X66763577Y45535007D01*
X66888596Y45547320D01*
X66972204Y45547320D01*
X67097223Y45535007D01*
X67097223Y45535007D01*
G37*
G36*
X61577223Y45535007D02*
G01*
X61737642Y45486344D01*
X61870306Y45415434D01*
X61885478Y45407324D01*
X62015059Y45300979D01*
X62121404Y45171398D01*
X62121405Y45171396D01*
X62200424Y45023562D01*
X62249087Y44863143D01*
X62265517Y44696320D01*
X62249087Y44529497D01*
X62200424Y44369078D01*
X62159877Y44293220D01*
X62121404Y44221242D01*
X62015059Y44091661D01*
X61885478Y43985316D01*
X61885476Y43985315D01*
X61737642Y43906296D01*
X61577223Y43857633D01*
X61452204Y43845320D01*
X61368596Y43845320D01*
X61243577Y43857633D01*
X61083158Y43906296D01*
X60935324Y43985315D01*
X60935322Y43985316D01*
X60805741Y44091661D01*
X60699396Y44221242D01*
X60660923Y44293220D01*
X60620376Y44369078D01*
X60571713Y44529497D01*
X60555283Y44696320D01*
X60571713Y44863143D01*
X60620376Y45023562D01*
X60699395Y45171396D01*
X60699396Y45171398D01*
X60805741Y45300979D01*
X60935322Y45407324D01*
X60950494Y45415434D01*
X61083158Y45486344D01*
X61243577Y45535007D01*
X61368596Y45547320D01*
X61452204Y45547320D01*
X61577223Y45535007D01*
X61577223Y45535007D01*
G37*
G36*
X26215428Y45514617D02*
G01*
X26370300Y45450467D01*
X26509681Y45357335D01*
X26628215Y45238801D01*
X26721347Y45099420D01*
X26785497Y44944548D01*
X26818200Y44780136D01*
X26818200Y44612504D01*
X26785497Y44448092D01*
X26721347Y44293220D01*
X26628215Y44153839D01*
X26509681Y44035305D01*
X26370300Y43942173D01*
X26215428Y43878023D01*
X26051016Y43845320D01*
X25883384Y43845320D01*
X25718972Y43878023D01*
X25564100Y43942173D01*
X25424719Y44035305D01*
X25306185Y44153839D01*
X25213053Y44293220D01*
X25148903Y44448092D01*
X25116200Y44612504D01*
X25116200Y44780136D01*
X25148903Y44944548D01*
X25213053Y45099420D01*
X25306185Y45238801D01*
X25424719Y45357335D01*
X25564100Y45450467D01*
X25718972Y45514617D01*
X25883384Y45547320D01*
X26051016Y45547320D01*
X26215428Y45514617D01*
X26215428Y45514617D01*
G37*
G36*
X19087428Y45514617D02*
G01*
X19242300Y45450467D01*
X19381681Y45357335D01*
X19500215Y45238801D01*
X19593347Y45099420D01*
X19657497Y44944548D01*
X19690200Y44780136D01*
X19690200Y44612504D01*
X19657497Y44448092D01*
X19593347Y44293220D01*
X19500215Y44153839D01*
X19381681Y44035305D01*
X19242300Y43942173D01*
X19087428Y43878023D01*
X18923016Y43845320D01*
X18755384Y43845320D01*
X18590972Y43878023D01*
X18436100Y43942173D01*
X18296719Y44035305D01*
X18178185Y44153839D01*
X18085053Y44293220D01*
X18020903Y44448092D01*
X17988200Y44612504D01*
X17988200Y44780136D01*
X18020903Y44944548D01*
X18085053Y45099420D01*
X18178185Y45238801D01*
X18296719Y45357335D01*
X18436100Y45450467D01*
X18590972Y45514617D01*
X18755384Y45547320D01*
X18923016Y45547320D01*
X19087428Y45514617D01*
X19087428Y45514617D01*
G37*
M02*
