%TF.GenerationSoftware,KiCad,Pcbnew,5.1.4-3.fc31*%
%TF.CreationDate,2019-11-11T15:40:02+01:00*%
%TF.ProjectId,usbasp,75736261-7370-42e6-9b69-6361645f7063,2.0*%
%TF.SameCoordinates,PX36f6758PY6c779b8*%
%TF.FileFunction,Other,Fab,Top*%
%FSLAX46Y46*%
G04 Gerber Fmt 4.6, Leading zero omitted, Abs format (unit mm)*
G04 Created by KiCad (PCBNEW 5.1.4-3.fc31) date 2019-11-11 15:40:02*
%MOMM*%
%LPD*%
G04 APERTURE LIST*
%ADD10C,0.100000*%
%ADD11C,0.150000*%
%ADD12C,0.120000*%
G04 APERTURE END LIST*
D10*
%TO.C,Y1*%
X53885400Y24708420D02*
G75*
G03X49885400Y24708420I-2000000J0D01*
G01*
X53885400Y18708420D02*
G75*
G02X49885400Y18708420I-2000000J0D01*
G01*
X54210400Y24833420D02*
G75*
G03X49560400Y24833420I-2325000J0D01*
G01*
X54210400Y18583420D02*
G75*
G02X49560400Y18583420I-2325000J0D01*
G01*
X53885400Y18708420D02*
X53885400Y24708420D01*
X49885400Y18708420D02*
X49885400Y24708420D01*
X54210400Y18583420D02*
X54210400Y24833420D01*
X49560400Y18583420D02*
X49560400Y24833420D01*
%TO.C,J1*%
X80145400Y21326520D02*
X80145400Y27826520D01*
X80845400Y20826520D02*
X75845400Y20826520D01*
X75845400Y20826520D02*
X75845400Y28326520D01*
X75845400Y28326520D02*
X80845400Y28326520D01*
X80845400Y28326520D02*
X80845400Y20826520D01*
%TO.C,SW1*%
X11148964Y7081120D02*
G75*
G03X11148964Y7081120I-2015564J0D01*
G01*
X6133400Y4081120D02*
X6133400Y7081120D01*
X12133400Y4081120D02*
X6133400Y4081120D01*
X12133400Y10081120D02*
X12133400Y4081120D01*
X6133400Y10081120D02*
X12133400Y10081120D01*
X6133400Y7081120D02*
X6133400Y10081120D01*
%TO.C,C1*%
X57534400Y19736120D02*
X57534400Y17236120D01*
X57534400Y17236120D02*
X62534400Y17236120D01*
X62534400Y17236120D02*
X62534400Y19736120D01*
X62534400Y19736120D02*
X57534400Y19736120D01*
%TO.C,C2*%
X62534400Y26086120D02*
X57534400Y26086120D01*
X62534400Y23586120D02*
X62534400Y26086120D01*
X57534400Y23586120D02*
X62534400Y23586120D01*
X57534400Y26086120D02*
X57534400Y23586120D01*
%TO.C,C3*%
X71673400Y38648120D02*
X74173400Y38648120D01*
X74173400Y38648120D02*
X74173400Y45648120D01*
X74173400Y45648120D02*
X71673400Y45648120D01*
X71673400Y45648120D02*
X71673400Y38648120D01*
%TO.C,C4*%
X66050400Y4856120D02*
G75*
G03X66050400Y4856120I-2500000J0D01*
G01*
X62462900Y2722515D02*
X62462900Y3222515D01*
X62212900Y2972515D02*
X62712900Y2972515D01*
%TO.C,C5*%
X37912400Y2106120D02*
X44912400Y2106120D01*
X37912400Y4606120D02*
X37912400Y2106120D01*
X44912400Y4606120D02*
X37912400Y4606120D01*
X44912400Y2106120D02*
X44912400Y4606120D01*
%TO.C,D1*%
X60410400Y39386320D02*
X62410400Y39386320D01*
X60410400Y39586320D02*
X62410400Y39586320D01*
X60410400Y39486320D02*
X62410400Y39486320D01*
X61410400Y44696320D02*
X61410400Y42886320D01*
X61410400Y37076320D02*
X61410400Y38886320D01*
X60410400Y42886320D02*
X60410400Y38886320D01*
X62410400Y42886320D02*
X60410400Y42886320D01*
X62410400Y38886320D02*
X62410400Y42886320D01*
X60410400Y38886320D02*
X62410400Y38886320D01*
%TO.C,D2*%
X65930400Y38886320D02*
X67930400Y38886320D01*
X67930400Y38886320D02*
X67930400Y42886320D01*
X67930400Y42886320D02*
X65930400Y42886320D01*
X65930400Y42886320D02*
X65930400Y38886320D01*
X66930400Y37076320D02*
X66930400Y38886320D01*
X66930400Y44696320D02*
X66930400Y42886320D01*
X65930400Y39486320D02*
X67930400Y39486320D01*
X65930400Y39586320D02*
X67930400Y39586320D01*
X65930400Y39386320D02*
X67930400Y39386320D01*
%TO.C,D3*%
X20004676Y30745065D02*
G75*
G03X17673010Y30745620I-1165476J1500555D01*
G01*
X20339200Y32245620D02*
G75*
G03X20339200Y32245620I-1500000J0D01*
G01*
X17673010Y30745620D02*
X20005390Y30745620D01*
%TO.C,D4*%
X24801010Y30745620D02*
X27133390Y30745620D01*
X27467200Y32245620D02*
G75*
G03X27467200Y32245620I-1500000J0D01*
G01*
X27132676Y30745065D02*
G75*
G03X24801010Y30745620I-1165476J1500555D01*
G01*
%TO.C,D5*%
X50120400Y4606120D02*
X50120400Y2606120D01*
X50120400Y2606120D02*
X54120400Y2606120D01*
X54120400Y2606120D02*
X54120400Y4606120D01*
X54120400Y4606120D02*
X50120400Y4606120D01*
X48310400Y3606120D02*
X50120400Y3606120D01*
X55930400Y3606120D02*
X54120400Y3606120D01*
X50720400Y4606120D02*
X50720400Y2606120D01*
X50820400Y4606120D02*
X50820400Y2606120D01*
X50620400Y4606120D02*
X50620400Y2606120D01*
%TO.C,J2*%
X15951200Y7996120D02*
X16586200Y8631120D01*
X15951200Y3551120D02*
X15951200Y7996120D01*
X18491200Y3551120D02*
X15951200Y3551120D01*
X18491200Y8631120D02*
X18491200Y3551120D01*
X16586200Y8631120D02*
X18491200Y8631120D01*
%TO.C,J3*%
X10609900Y37035420D02*
X10609900Y16675420D01*
X10059900Y36495420D02*
X10059900Y17235420D01*
X1759900Y37035420D02*
X1759900Y16675420D01*
X2309900Y36495420D02*
X2309900Y29105420D01*
X2309900Y24605420D02*
X2309900Y17235420D01*
X2309900Y29105420D02*
X1759900Y29105420D01*
X2309900Y24605420D02*
X1759900Y24605420D01*
X10609900Y37035420D02*
X1759900Y37035420D01*
X10059900Y36495420D02*
X2309900Y36495420D01*
X10609900Y16675420D02*
X1759900Y16675420D01*
X10059900Y17235420D02*
X2309900Y17235420D01*
X10609900Y37035420D02*
X10059900Y36495420D01*
X10609900Y16675420D02*
X10059900Y17235420D01*
X1759900Y37035420D02*
X2309900Y36495420D01*
X1759900Y16675420D02*
X2309900Y17235420D01*
%TO.C,JP1*%
X15127500Y19060020D02*
X17032500Y19060020D01*
X17032500Y19060020D02*
X17032500Y13980020D01*
X17032500Y13980020D02*
X14492500Y13980020D01*
X14492500Y13980020D02*
X14492500Y18425020D01*
X14492500Y18425020D02*
X15127500Y19060020D01*
%TO.C,JP2*%
X31968400Y14605020D02*
X31333400Y13970020D01*
X31968400Y19050020D02*
X31968400Y14605020D01*
X29428400Y19050020D02*
X31968400Y19050020D01*
X29428400Y13970020D02*
X29428400Y19050020D01*
X31333400Y13970020D02*
X29428400Y13970020D01*
%TO.C,JP3*%
X23865500Y13970020D02*
X21960500Y13970020D01*
X21960500Y13970020D02*
X21960500Y19050020D01*
X21960500Y19050020D02*
X24500500Y19050020D01*
X24500500Y19050020D02*
X24500500Y14605020D01*
X24500500Y14605020D02*
X23865500Y13970020D01*
%TO.C,R1*%
X27888800Y4606120D02*
X27888800Y2106120D01*
X27888800Y2106120D02*
X34188800Y2106120D01*
X34188800Y2106120D02*
X34188800Y4606120D01*
X34188800Y4606120D02*
X27888800Y4606120D01*
X27228800Y3356120D02*
X27888800Y3356120D01*
X34848800Y3356120D02*
X34188800Y3356120D01*
%TO.C,R2*%
X55651400Y44648120D02*
X55651400Y43988120D01*
X55651400Y37028120D02*
X55651400Y37688120D01*
X54401400Y43988120D02*
X54401400Y37688120D01*
X56901400Y43988120D02*
X54401400Y43988120D01*
X56901400Y37688120D02*
X56901400Y43988120D01*
X54401400Y37688120D02*
X56901400Y37688120D01*
%TO.C,R3*%
X66949400Y32379920D02*
X66289400Y32379920D01*
X59329400Y32379920D02*
X59989400Y32379920D01*
X66289400Y33629920D02*
X59989400Y33629920D01*
X66289400Y31129920D02*
X66289400Y33629920D01*
X59989400Y31129920D02*
X66289400Y31129920D01*
X59989400Y33629920D02*
X59989400Y31129920D01*
%TO.C,R4*%
X50805400Y43988120D02*
X48305400Y43988120D01*
X48305400Y43988120D02*
X48305400Y37688120D01*
X48305400Y37688120D02*
X50805400Y37688120D01*
X50805400Y37688120D02*
X50805400Y43988120D01*
X49555400Y44648120D02*
X49555400Y43988120D01*
X49555400Y37028120D02*
X49555400Y37688120D01*
%TO.C,R5*%
X18839200Y37076320D02*
X18839200Y37736320D01*
X18839200Y44696320D02*
X18839200Y44036320D01*
X20089200Y37736320D02*
X20089200Y44036320D01*
X17589200Y37736320D02*
X20089200Y37736320D01*
X17589200Y44036320D02*
X17589200Y37736320D01*
X20089200Y44036320D02*
X17589200Y44036320D01*
%TO.C,R6*%
X27217200Y44036320D02*
X24717200Y44036320D01*
X24717200Y44036320D02*
X24717200Y37736320D01*
X24717200Y37736320D02*
X27217200Y37736320D01*
X27217200Y37736320D02*
X27217200Y44036320D01*
X25967200Y44696320D02*
X25967200Y44036320D01*
X25967200Y37076320D02*
X25967200Y37736320D01*
%TO.C,R7*%
X21767400Y8725120D02*
X21767400Y6225120D01*
X21767400Y6225120D02*
X28067400Y6225120D01*
X28067400Y6225120D02*
X28067400Y8725120D01*
X28067400Y8725120D02*
X21767400Y8725120D01*
X21107400Y7475120D02*
X21767400Y7475120D01*
X28727400Y7475120D02*
X28067400Y7475120D01*
%TO.C,U1*%
X42931400Y7991120D02*
X37581400Y7991120D01*
X37581400Y7991120D02*
X37581400Y43551120D01*
X37581400Y43551120D02*
X43931400Y43551120D01*
X43931400Y43551120D02*
X43931400Y8991120D01*
X43931400Y8991120D02*
X42931400Y7991120D01*
%TD*%
%TO.C,Y1*%
D11*
X55862780Y20017944D02*
X55862780Y19446516D01*
X55862780Y19732230D02*
X54862780Y19732230D01*
X55005638Y19636992D01*
X55100876Y19541754D01*
X55148495Y19446516D01*
X54958019Y20398897D02*
X54910400Y20446516D01*
X54862780Y20541754D01*
X54862780Y20779849D01*
X54910400Y20875087D01*
X54958019Y20922706D01*
X55053257Y20970325D01*
X55148495Y20970325D01*
X55291352Y20922706D01*
X55862780Y20351278D01*
X55862780Y20970325D01*
X55862780Y21398897D02*
X54862780Y21398897D01*
X55577066Y21732230D01*
X54862780Y22065563D01*
X55862780Y22065563D01*
X55862780Y22541754D02*
X54862780Y22541754D01*
X55338971Y22541754D02*
X55338971Y23113182D01*
X55862780Y23113182D02*
X54862780Y23113182D01*
X55196114Y23494135D02*
X55196114Y24017944D01*
X55862780Y23494135D01*
X55862780Y24017944D01*
X51861590Y21232230D02*
X52337780Y21232230D01*
X51337780Y20898897D02*
X51861590Y21232230D01*
X51337780Y21565563D01*
X52337780Y22422706D02*
X52337780Y21851278D01*
X52337780Y22136992D02*
X51337780Y22136992D01*
X51480638Y22041754D01*
X51575876Y21946516D01*
X51623495Y21851278D01*
%TO.C,J1*%
X73397260Y25669623D02*
X74206784Y25669623D01*
X74302022Y25717242D01*
X74349641Y25764861D01*
X74397260Y25860100D01*
X74397260Y26050576D01*
X74349641Y26145814D01*
X74302022Y26193433D01*
X74206784Y26241052D01*
X73397260Y26241052D01*
X74349641Y26669623D02*
X74397260Y26812480D01*
X74397260Y27050576D01*
X74349641Y27145814D01*
X74302022Y27193433D01*
X74206784Y27241052D01*
X74111546Y27241052D01*
X74016308Y27193433D01*
X73968689Y27145814D01*
X73921070Y27050576D01*
X73873451Y26860100D01*
X73825832Y26764861D01*
X73778213Y26717242D01*
X73682975Y26669623D01*
X73587737Y26669623D01*
X73492499Y26717242D01*
X73444880Y26764861D01*
X73397260Y26860100D01*
X73397260Y27098195D01*
X73444880Y27241052D01*
X73873451Y28002957D02*
X73921070Y28145814D01*
X73968689Y28193433D01*
X74063927Y28241052D01*
X74206784Y28241052D01*
X74302022Y28193433D01*
X74349641Y28145814D01*
X74397260Y28050576D01*
X74397260Y27669623D01*
X73397260Y27669623D01*
X73397260Y28002957D01*
X73444880Y28098195D01*
X73492499Y28145814D01*
X73587737Y28193433D01*
X73682975Y28193433D01*
X73778213Y28145814D01*
X73825832Y28098195D01*
X73873451Y28002957D01*
X73873451Y27669623D01*
X74492499Y28431528D02*
X74492499Y29193433D01*
X73873451Y29764861D02*
X73921070Y29907719D01*
X73968689Y29955338D01*
X74063927Y30002957D01*
X74206784Y30002957D01*
X74302022Y29955338D01*
X74349641Y29907719D01*
X74397260Y29812480D01*
X74397260Y29431528D01*
X73397260Y29431528D01*
X73397260Y29764861D01*
X73444880Y29860100D01*
X73492499Y29907719D01*
X73587737Y29955338D01*
X73682975Y29955338D01*
X73778213Y29907719D01*
X73825832Y29860100D01*
X73873451Y29764861D01*
X73873451Y29431528D01*
X78147780Y24243187D02*
X78862066Y24243187D01*
X79004923Y24195568D01*
X79100161Y24100330D01*
X79147780Y23957473D01*
X79147780Y23862235D01*
X79147780Y25243187D02*
X79147780Y24671759D01*
X79147780Y24957473D02*
X78147780Y24957473D01*
X78290638Y24862235D01*
X78385876Y24766997D01*
X78433495Y24671759D01*
%TO.C,SW1*%
X9538161Y5747787D02*
X9585780Y5890644D01*
X9585780Y6128740D01*
X9538161Y6223978D01*
X9490542Y6271597D01*
X9395304Y6319216D01*
X9300066Y6319216D01*
X9204828Y6271597D01*
X9157209Y6223978D01*
X9109590Y6128740D01*
X9061971Y5938263D01*
X9014352Y5843025D01*
X8966733Y5795406D01*
X8871495Y5747787D01*
X8776257Y5747787D01*
X8681019Y5795406D01*
X8633400Y5843025D01*
X8585780Y5938263D01*
X8585780Y6176359D01*
X8633400Y6319216D01*
X8585780Y6652549D02*
X9585780Y6890644D01*
X8871495Y7081120D01*
X9585780Y7271597D01*
X8585780Y7509692D01*
X9585780Y8414454D02*
X9585780Y7843025D01*
X9585780Y8128740D02*
X8585780Y8128740D01*
X8728638Y8033501D01*
X8823876Y7938263D01*
X8871495Y7843025D01*
%TO.C,C1*%
X58391542Y16438501D02*
X58439161Y16486120D01*
X58534400Y16533740D01*
X58772495Y16533740D01*
X58867733Y16486120D01*
X58915352Y16438501D01*
X58962971Y16343263D01*
X58962971Y16248025D01*
X58915352Y16105168D01*
X58343923Y15533740D01*
X58962971Y15533740D01*
X59343923Y16438501D02*
X59391542Y16486120D01*
X59486780Y16533740D01*
X59724876Y16533740D01*
X59820114Y16486120D01*
X59867733Y16438501D01*
X59915352Y16343263D01*
X59915352Y16248025D01*
X59867733Y16105168D01*
X59296304Y15533740D01*
X59915352Y15533740D01*
X60343923Y16200406D02*
X60343923Y15200406D01*
X60343923Y16152787D02*
X60439161Y16200406D01*
X60629638Y16200406D01*
X60724876Y16152787D01*
X60772495Y16105168D01*
X60820114Y16009930D01*
X60820114Y15724216D01*
X60772495Y15628978D01*
X60724876Y15581359D01*
X60629638Y15533740D01*
X60439161Y15533740D01*
X60343923Y15581359D01*
X61582019Y16057549D02*
X61248685Y16057549D01*
X61248685Y15533740D02*
X61248685Y16533740D01*
X61724876Y16533740D01*
X59867733Y18128978D02*
X59820114Y18081359D01*
X59677257Y18033740D01*
X59582019Y18033740D01*
X59439161Y18081359D01*
X59343923Y18176597D01*
X59296304Y18271835D01*
X59248685Y18462311D01*
X59248685Y18605168D01*
X59296304Y18795644D01*
X59343923Y18890882D01*
X59439161Y18986120D01*
X59582019Y19033740D01*
X59677257Y19033740D01*
X59820114Y18986120D01*
X59867733Y18938501D01*
X60820114Y18033740D02*
X60248685Y18033740D01*
X60534400Y18033740D02*
X60534400Y19033740D01*
X60439161Y18890882D01*
X60343923Y18795644D01*
X60248685Y18748025D01*
%TO.C,C2*%
X58391542Y22788501D02*
X58439161Y22836120D01*
X58534400Y22883740D01*
X58772495Y22883740D01*
X58867733Y22836120D01*
X58915352Y22788501D01*
X58962971Y22693263D01*
X58962971Y22598025D01*
X58915352Y22455168D01*
X58343923Y21883740D01*
X58962971Y21883740D01*
X59343923Y22788501D02*
X59391542Y22836120D01*
X59486780Y22883740D01*
X59724876Y22883740D01*
X59820114Y22836120D01*
X59867733Y22788501D01*
X59915352Y22693263D01*
X59915352Y22598025D01*
X59867733Y22455168D01*
X59296304Y21883740D01*
X59915352Y21883740D01*
X60343923Y22550406D02*
X60343923Y21550406D01*
X60343923Y22502787D02*
X60439161Y22550406D01*
X60629638Y22550406D01*
X60724876Y22502787D01*
X60772495Y22455168D01*
X60820114Y22359930D01*
X60820114Y22074216D01*
X60772495Y21978978D01*
X60724876Y21931359D01*
X60629638Y21883740D01*
X60439161Y21883740D01*
X60343923Y21931359D01*
X61582019Y22407549D02*
X61248685Y22407549D01*
X61248685Y21883740D02*
X61248685Y22883740D01*
X61724876Y22883740D01*
X59867733Y24478978D02*
X59820114Y24431359D01*
X59677257Y24383740D01*
X59582019Y24383740D01*
X59439161Y24431359D01*
X59343923Y24526597D01*
X59296304Y24621835D01*
X59248685Y24812311D01*
X59248685Y24955168D01*
X59296304Y25145644D01*
X59343923Y25240882D01*
X59439161Y25336120D01*
X59582019Y25383740D01*
X59677257Y25383740D01*
X59820114Y25336120D01*
X59867733Y25288501D01*
X60248685Y25288501D02*
X60296304Y25336120D01*
X60391542Y25383740D01*
X60629638Y25383740D01*
X60724876Y25336120D01*
X60772495Y25288501D01*
X60820114Y25193263D01*
X60820114Y25098025D01*
X60772495Y24955168D01*
X60201066Y24383740D01*
X60820114Y24383740D01*
%TO.C,C3*%
X75875780Y41029073D02*
X75875780Y40457644D01*
X75875780Y40743359D02*
X74875780Y40743359D01*
X75018638Y40648120D01*
X75113876Y40552882D01*
X75161495Y40457644D01*
X74875780Y41648120D02*
X74875780Y41743359D01*
X74923400Y41838597D01*
X74971019Y41886216D01*
X75066257Y41933835D01*
X75256733Y41981454D01*
X75494828Y41981454D01*
X75685304Y41933835D01*
X75780542Y41886216D01*
X75828161Y41838597D01*
X75875780Y41743359D01*
X75875780Y41648120D01*
X75828161Y41552882D01*
X75780542Y41505263D01*
X75685304Y41457644D01*
X75494828Y41410025D01*
X75256733Y41410025D01*
X75066257Y41457644D01*
X74971019Y41505263D01*
X74923400Y41552882D01*
X74875780Y41648120D01*
X74875780Y42600501D02*
X74875780Y42695740D01*
X74923400Y42790978D01*
X74971019Y42838597D01*
X75066257Y42886216D01*
X75256733Y42933835D01*
X75494828Y42933835D01*
X75685304Y42886216D01*
X75780542Y42838597D01*
X75828161Y42790978D01*
X75875780Y42695740D01*
X75875780Y42600501D01*
X75828161Y42505263D01*
X75780542Y42457644D01*
X75685304Y42410025D01*
X75494828Y42362406D01*
X75256733Y42362406D01*
X75066257Y42410025D01*
X74971019Y42457644D01*
X74923400Y42505263D01*
X74875780Y42600501D01*
X75209114Y43362406D02*
X75875780Y43362406D01*
X75304352Y43362406D02*
X75256733Y43410025D01*
X75209114Y43505263D01*
X75209114Y43648120D01*
X75256733Y43743359D01*
X75351971Y43790978D01*
X75875780Y43790978D01*
X73280542Y41981454D02*
X73328161Y41933835D01*
X73375780Y41790978D01*
X73375780Y41695740D01*
X73328161Y41552882D01*
X73232923Y41457644D01*
X73137685Y41410025D01*
X72947209Y41362406D01*
X72804352Y41362406D01*
X72613876Y41410025D01*
X72518638Y41457644D01*
X72423400Y41552882D01*
X72375780Y41695740D01*
X72375780Y41790978D01*
X72423400Y41933835D01*
X72471019Y41981454D01*
X72375780Y42314787D02*
X72375780Y42933835D01*
X72756733Y42600501D01*
X72756733Y42743359D01*
X72804352Y42838597D01*
X72851971Y42886216D01*
X72947209Y42933835D01*
X73185304Y42933835D01*
X73280542Y42886216D01*
X73328161Y42838597D01*
X73375780Y42743359D01*
X73375780Y42457644D01*
X73328161Y42362406D01*
X73280542Y42314787D01*
%TO.C,C4*%
X67086114Y4118025D02*
X67752780Y4118025D01*
X66705161Y3879930D02*
X67419447Y3641835D01*
X67419447Y4260882D01*
X67086114Y5070406D02*
X67752780Y5070406D01*
X67086114Y4641835D02*
X67609923Y4641835D01*
X67705161Y4689454D01*
X67752780Y4784692D01*
X67752780Y4927549D01*
X67705161Y5022787D01*
X67657542Y5070406D01*
X66752780Y5451359D02*
X66752780Y6118025D01*
X67752780Y5689454D01*
X63907542Y4689454D02*
X63955161Y4641835D01*
X64002780Y4498978D01*
X64002780Y4403740D01*
X63955161Y4260882D01*
X63859923Y4165644D01*
X63764685Y4118025D01*
X63574209Y4070406D01*
X63431352Y4070406D01*
X63240876Y4118025D01*
X63145638Y4165644D01*
X63050400Y4260882D01*
X63002780Y4403740D01*
X63002780Y4498978D01*
X63050400Y4641835D01*
X63098019Y4689454D01*
X63336114Y5546597D02*
X64002780Y5546597D01*
X62955161Y5308501D02*
X63669447Y5070406D01*
X63669447Y5689454D01*
%TO.C,C5*%
X40293352Y5403740D02*
X39721923Y5403740D01*
X40007638Y5403740D02*
X40007638Y6403740D01*
X39912400Y6260882D01*
X39817161Y6165644D01*
X39721923Y6118025D01*
X40912400Y6403740D02*
X41007638Y6403740D01*
X41102876Y6356120D01*
X41150495Y6308501D01*
X41198114Y6213263D01*
X41245733Y6022787D01*
X41245733Y5784692D01*
X41198114Y5594216D01*
X41150495Y5498978D01*
X41102876Y5451359D01*
X41007638Y5403740D01*
X40912400Y5403740D01*
X40817161Y5451359D01*
X40769542Y5498978D01*
X40721923Y5594216D01*
X40674304Y5784692D01*
X40674304Y6022787D01*
X40721923Y6213263D01*
X40769542Y6308501D01*
X40817161Y6356120D01*
X40912400Y6403740D01*
X41864780Y6403740D02*
X41960019Y6403740D01*
X42055257Y6356120D01*
X42102876Y6308501D01*
X42150495Y6213263D01*
X42198114Y6022787D01*
X42198114Y5784692D01*
X42150495Y5594216D01*
X42102876Y5498978D01*
X42055257Y5451359D01*
X41960019Y5403740D01*
X41864780Y5403740D01*
X41769542Y5451359D01*
X41721923Y5498978D01*
X41674304Y5594216D01*
X41626685Y5784692D01*
X41626685Y6022787D01*
X41674304Y6213263D01*
X41721923Y6308501D01*
X41769542Y6356120D01*
X41864780Y6403740D01*
X42626685Y6070406D02*
X42626685Y5403740D01*
X42626685Y5975168D02*
X42674304Y6022787D01*
X42769542Y6070406D01*
X42912400Y6070406D01*
X43007638Y6022787D01*
X43055257Y5927549D01*
X43055257Y5403740D01*
X41245733Y2998978D02*
X41198114Y2951359D01*
X41055257Y2903740D01*
X40960019Y2903740D01*
X40817161Y2951359D01*
X40721923Y3046597D01*
X40674304Y3141835D01*
X40626685Y3332311D01*
X40626685Y3475168D01*
X40674304Y3665644D01*
X40721923Y3760882D01*
X40817161Y3856120D01*
X40960019Y3903740D01*
X41055257Y3903740D01*
X41198114Y3856120D01*
X41245733Y3808501D01*
X42150495Y3903740D02*
X41674304Y3903740D01*
X41626685Y3427549D01*
X41674304Y3475168D01*
X41769542Y3522787D01*
X42007638Y3522787D01*
X42102876Y3475168D01*
X42150495Y3427549D01*
X42198114Y3332311D01*
X42198114Y3094216D01*
X42150495Y2998978D01*
X42102876Y2951359D01*
X42007638Y2903740D01*
X41769542Y2903740D01*
X41674304Y2951359D01*
X41626685Y2998978D01*
%TO.C,D1*%
X62982780Y39648225D02*
X62982780Y40267273D01*
X63363733Y39933940D01*
X63363733Y40076797D01*
X63411352Y40172035D01*
X63458971Y40219654D01*
X63554209Y40267273D01*
X63792304Y40267273D01*
X63887542Y40219654D01*
X63935161Y40172035D01*
X63982780Y40076797D01*
X63982780Y39791082D01*
X63935161Y39695844D01*
X63887542Y39648225D01*
X62982780Y40552987D02*
X63982780Y40886320D01*
X62982780Y41219654D01*
X62982780Y41981559D02*
X62982780Y41791082D01*
X63030400Y41695844D01*
X63078019Y41648225D01*
X63220876Y41552987D01*
X63411352Y41505368D01*
X63792304Y41505368D01*
X63887542Y41552987D01*
X63935161Y41600606D01*
X63982780Y41695844D01*
X63982780Y41886320D01*
X63935161Y41981559D01*
X63887542Y42029178D01*
X63792304Y42076797D01*
X63554209Y42076797D01*
X63458971Y42029178D01*
X63411352Y41981559D01*
X63363733Y41886320D01*
X63363733Y41695844D01*
X63411352Y41600606D01*
X63458971Y41552987D01*
X63554209Y41505368D01*
X60062780Y36814416D02*
X59062780Y36814416D01*
X60062780Y37385844D02*
X59491352Y36957273D01*
X59062780Y37385844D02*
X59634209Y36814416D01*
D12*
X61772304Y40595844D02*
X60972304Y40595844D01*
X60972304Y40786320D01*
X61010400Y40900606D01*
X61086590Y40976797D01*
X61162780Y41014892D01*
X61315161Y41052987D01*
X61429447Y41052987D01*
X61581828Y41014892D01*
X61658019Y40976797D01*
X61734209Y40900606D01*
X61772304Y40786320D01*
X61772304Y40595844D01*
X61772304Y41814892D02*
X61772304Y41357749D01*
X61772304Y41586320D02*
X60972304Y41586320D01*
X61086590Y41510130D01*
X61162780Y41433940D01*
X61200876Y41357749D01*
%TO.C,D2*%
D11*
X68502780Y39648225D02*
X68502780Y40267273D01*
X68883733Y39933940D01*
X68883733Y40076797D01*
X68931352Y40172035D01*
X68978971Y40219654D01*
X69074209Y40267273D01*
X69312304Y40267273D01*
X69407542Y40219654D01*
X69455161Y40172035D01*
X69502780Y40076797D01*
X69502780Y39791082D01*
X69455161Y39695844D01*
X69407542Y39648225D01*
X68502780Y40552987D02*
X69502780Y40886320D01*
X68502780Y41219654D01*
X68502780Y41981559D02*
X68502780Y41791082D01*
X68550400Y41695844D01*
X68598019Y41648225D01*
X68740876Y41552987D01*
X68931352Y41505368D01*
X69312304Y41505368D01*
X69407542Y41552987D01*
X69455161Y41600606D01*
X69502780Y41695844D01*
X69502780Y41886320D01*
X69455161Y41981559D01*
X69407542Y42029178D01*
X69312304Y42076797D01*
X69074209Y42076797D01*
X68978971Y42029178D01*
X68931352Y41981559D01*
X68883733Y41886320D01*
X68883733Y41695844D01*
X68931352Y41600606D01*
X68978971Y41552987D01*
X69074209Y41505368D01*
D12*
X66339923Y40824416D02*
X66339923Y41624416D01*
X66530400Y41624416D01*
X66644685Y41586320D01*
X66720876Y41510130D01*
X66758971Y41433940D01*
X66797066Y41281559D01*
X66797066Y41167273D01*
X66758971Y41014892D01*
X66720876Y40938701D01*
X66644685Y40862511D01*
X66530400Y40824416D01*
X66339923Y40824416D01*
X67101828Y41548225D02*
X67139923Y41586320D01*
X67216114Y41624416D01*
X67406590Y41624416D01*
X67482780Y41586320D01*
X67520876Y41548225D01*
X67558971Y41472035D01*
X67558971Y41395844D01*
X67520876Y41281559D01*
X67063733Y40824416D01*
X67558971Y40824416D01*
D11*
X65582780Y36814416D02*
X64582780Y36814416D01*
X65582780Y37385844D02*
X65011352Y36957273D01*
X64582780Y37385844D02*
X65154209Y36814416D01*
%TO.C,D3*%
X22251580Y31293240D02*
X21584914Y31293240D01*
X21775390Y31293240D02*
X21680152Y31340859D01*
X21632533Y31388478D01*
X21584914Y31483716D01*
X21584914Y31578954D01*
X22203961Y32293240D02*
X22251580Y32198001D01*
X22251580Y32007525D01*
X22203961Y31912287D01*
X22108723Y31864668D01*
X21727771Y31864668D01*
X21632533Y31912287D01*
X21584914Y32007525D01*
X21584914Y32198001D01*
X21632533Y32293240D01*
X21727771Y32340859D01*
X21823009Y32340859D01*
X21918247Y31864668D01*
X22251580Y33198001D02*
X21251580Y33198001D01*
X22203961Y33198001D02*
X22251580Y33102763D01*
X22251580Y32912287D01*
X22203961Y32817049D01*
X22156342Y32769430D01*
X22061104Y32721811D01*
X21775390Y32721811D01*
X21680152Y32769430D01*
X21632533Y32817049D01*
X21584914Y32912287D01*
X21584914Y33102763D01*
X21632533Y33198001D01*
%TO.C,D4*%
X28712914Y30840859D02*
X29522438Y30840859D01*
X29617676Y30793240D01*
X29665295Y30745620D01*
X29712914Y30650382D01*
X29712914Y30507525D01*
X29665295Y30412287D01*
X29331961Y30840859D02*
X29379580Y30745620D01*
X29379580Y30555144D01*
X29331961Y30459906D01*
X29284342Y30412287D01*
X29189104Y30364668D01*
X28903390Y30364668D01*
X28808152Y30412287D01*
X28760533Y30459906D01*
X28712914Y30555144D01*
X28712914Y30745620D01*
X28760533Y30840859D01*
X29379580Y31317049D02*
X28712914Y31317049D01*
X28903390Y31317049D02*
X28808152Y31364668D01*
X28760533Y31412287D01*
X28712914Y31507525D01*
X28712914Y31602763D01*
X29331961Y32317049D02*
X29379580Y32221811D01*
X29379580Y32031335D01*
X29331961Y31936097D01*
X29236723Y31888478D01*
X28855771Y31888478D01*
X28760533Y31936097D01*
X28712914Y32031335D01*
X28712914Y32221811D01*
X28760533Y32317049D01*
X28855771Y32364668D01*
X28951009Y32364668D01*
X29046247Y31888478D01*
X29331961Y33174192D02*
X29379580Y33078954D01*
X29379580Y32888478D01*
X29331961Y32793240D01*
X29236723Y32745620D01*
X28855771Y32745620D01*
X28760533Y32793240D01*
X28712914Y32888478D01*
X28712914Y33078954D01*
X28760533Y33174192D01*
X28855771Y33221811D01*
X28951009Y33221811D01*
X29046247Y32745620D01*
X28712914Y33650382D02*
X29379580Y33650382D01*
X28808152Y33650382D02*
X28760533Y33698001D01*
X28712914Y33793240D01*
X28712914Y33936097D01*
X28760533Y34031335D01*
X28855771Y34078954D01*
X29379580Y34078954D01*
%TO.C,D5*%
X49977542Y1033740D02*
X49406114Y1033740D01*
X49691828Y1033740D02*
X49691828Y2033740D01*
X49596590Y1890882D01*
X49501352Y1795644D01*
X49406114Y1748025D01*
X50406114Y1033740D02*
X50406114Y2033740D01*
X50977542Y1033740D01*
X50977542Y2033740D01*
X51882304Y1700406D02*
X51882304Y1033740D01*
X51644209Y2081359D02*
X51406114Y1367073D01*
X52025161Y1367073D01*
X52929923Y1033740D02*
X52358495Y1033740D01*
X52644209Y1033740D02*
X52644209Y2033740D01*
X52548971Y1890882D01*
X52453733Y1795644D01*
X52358495Y1748025D01*
X53787066Y1700406D02*
X53787066Y1033740D01*
X53548971Y2081359D02*
X53310876Y1367073D01*
X53929923Y1367073D01*
X54453733Y1605168D02*
X54358495Y1652787D01*
X54310876Y1700406D01*
X54263257Y1795644D01*
X54263257Y1843263D01*
X54310876Y1938501D01*
X54358495Y1986120D01*
X54453733Y2033740D01*
X54644209Y2033740D01*
X54739447Y1986120D01*
X54787066Y1938501D01*
X54834685Y1843263D01*
X54834685Y1795644D01*
X54787066Y1700406D01*
X54739447Y1652787D01*
X54644209Y1605168D01*
X54453733Y1605168D01*
X54358495Y1557549D01*
X54310876Y1509930D01*
X54263257Y1414692D01*
X54263257Y1224216D01*
X54310876Y1128978D01*
X54358495Y1081359D01*
X54453733Y1033740D01*
X54644209Y1033740D01*
X54739447Y1081359D01*
X54787066Y1128978D01*
X54834685Y1224216D01*
X54834685Y1414692D01*
X54787066Y1509930D01*
X54739447Y1557549D01*
X54644209Y1605168D01*
D12*
X51829923Y3244216D02*
X51829923Y4044216D01*
X52020400Y4044216D01*
X52134685Y4006120D01*
X52210876Y3929930D01*
X52248971Y3853740D01*
X52287066Y3701359D01*
X52287066Y3587073D01*
X52248971Y3434692D01*
X52210876Y3358501D01*
X52134685Y3282311D01*
X52020400Y3244216D01*
X51829923Y3244216D01*
X53010876Y4044216D02*
X52629923Y4044216D01*
X52591828Y3663263D01*
X52629923Y3701359D01*
X52706114Y3739454D01*
X52896590Y3739454D01*
X52972780Y3701359D01*
X53010876Y3663263D01*
X53048971Y3587073D01*
X53048971Y3396597D01*
X53010876Y3320406D01*
X52972780Y3282311D01*
X52896590Y3244216D01*
X52706114Y3244216D01*
X52629923Y3282311D01*
X52591828Y3320406D01*
D11*
X48048495Y4953740D02*
X48048495Y5953740D01*
X48619923Y4953740D02*
X48191352Y5525168D01*
X48619923Y5953740D02*
X48048495Y5382311D01*
%TO.C,J2*%
X14245009Y3038740D02*
X14816438Y3038740D01*
X14530723Y2038740D02*
X14530723Y3038740D01*
X15054533Y2038740D02*
X15578342Y2705406D01*
X15054533Y2705406D02*
X15578342Y2038740D01*
X15959295Y2038740D02*
X15959295Y3038740D01*
X16197390Y3038740D01*
X16340247Y2991120D01*
X16435485Y2895882D01*
X16483104Y2800644D01*
X16530723Y2610168D01*
X16530723Y2467311D01*
X16483104Y2276835D01*
X16435485Y2181597D01*
X16340247Y2086359D01*
X16197390Y2038740D01*
X15959295Y2038740D01*
X18292628Y2038740D02*
X17959295Y2514930D01*
X17721200Y2038740D02*
X17721200Y3038740D01*
X18102152Y3038740D01*
X18197390Y2991120D01*
X18245009Y2943501D01*
X18292628Y2848263D01*
X18292628Y2705406D01*
X18245009Y2610168D01*
X18197390Y2562549D01*
X18102152Y2514930D01*
X17721200Y2514930D01*
X18625961Y2038740D02*
X19149771Y2705406D01*
X18625961Y2705406D02*
X19149771Y2038740D01*
X19530723Y2038740D02*
X19530723Y3038740D01*
X19768819Y3038740D01*
X19911676Y2991120D01*
X20006914Y2895882D01*
X20054533Y2800644D01*
X20102152Y2610168D01*
X20102152Y2467311D01*
X20054533Y2276835D01*
X20006914Y2181597D01*
X19911676Y2086359D01*
X19768819Y2038740D01*
X19530723Y2038740D01*
X17768819Y6424454D02*
X17054533Y6424454D01*
X16911676Y6472073D01*
X16816438Y6567311D01*
X16768819Y6710168D01*
X16768819Y6805406D01*
X17673580Y5995882D02*
X17721200Y5948263D01*
X17768819Y5853025D01*
X17768819Y5614930D01*
X17721200Y5519692D01*
X17673580Y5472073D01*
X17578342Y5424454D01*
X17483104Y5424454D01*
X17340247Y5472073D01*
X16768819Y6043501D01*
X16768819Y5424454D01*
%TO.C,J3*%
X1613471Y15004754D02*
X2089661Y15004754D01*
X1518233Y14719040D02*
X1851566Y15719040D01*
X2184900Y14719040D01*
X2375376Y15719040D02*
X2708709Y14719040D01*
X3042042Y15719040D01*
X3946804Y14719040D02*
X3613471Y15195230D01*
X3375376Y14719040D02*
X3375376Y15719040D01*
X3756328Y15719040D01*
X3851566Y15671420D01*
X3899185Y15623801D01*
X3946804Y15528563D01*
X3946804Y15385706D01*
X3899185Y15290468D01*
X3851566Y15242849D01*
X3756328Y15195230D01*
X3375376Y15195230D01*
X4375376Y15099992D02*
X5137280Y15099992D01*
X5613471Y14719040D02*
X5613471Y15719040D01*
X6042042Y14766659D02*
X6184900Y14719040D01*
X6422995Y14719040D01*
X6518233Y14766659D01*
X6565852Y14814278D01*
X6613471Y14909516D01*
X6613471Y15004754D01*
X6565852Y15099992D01*
X6518233Y15147611D01*
X6422995Y15195230D01*
X6232519Y15242849D01*
X6137280Y15290468D01*
X6089661Y15338087D01*
X6042042Y15433325D01*
X6042042Y15528563D01*
X6089661Y15623801D01*
X6137280Y15671420D01*
X6232519Y15719040D01*
X6470614Y15719040D01*
X6613471Y15671420D01*
X7042042Y14719040D02*
X7042042Y15719040D01*
X7422995Y15719040D01*
X7518233Y15671420D01*
X7565852Y15623801D01*
X7613471Y15528563D01*
X7613471Y15385706D01*
X7565852Y15290468D01*
X7518233Y15242849D01*
X7422995Y15195230D01*
X7042042Y15195230D01*
X8042042Y15099992D02*
X8803947Y15099992D01*
X9803947Y14719040D02*
X9232519Y14719040D01*
X9518233Y14719040D02*
X9518233Y15719040D01*
X9422995Y15576182D01*
X9327757Y15480944D01*
X9232519Y15433325D01*
X10422995Y15719040D02*
X10518233Y15719040D01*
X10613471Y15671420D01*
X10661090Y15623801D01*
X10708709Y15528563D01*
X10756328Y15338087D01*
X10756328Y15099992D01*
X10708709Y14909516D01*
X10661090Y14814278D01*
X10613471Y14766659D01*
X10518233Y14719040D01*
X10422995Y14719040D01*
X10327757Y14766659D01*
X10280138Y14814278D01*
X10232519Y14909516D01*
X10184900Y15099992D01*
X10184900Y15338087D01*
X10232519Y15528563D01*
X10280138Y15623801D01*
X10327757Y15671420D01*
X10422995Y15719040D01*
X5851566Y27403040D02*
X5851566Y26688754D01*
X5803947Y26545897D01*
X5708709Y26450659D01*
X5565852Y26403040D01*
X5470614Y26403040D01*
X6232519Y27403040D02*
X6851566Y27403040D01*
X6518233Y27022087D01*
X6661090Y27022087D01*
X6756328Y26974468D01*
X6803947Y26926849D01*
X6851566Y26831611D01*
X6851566Y26593516D01*
X6803947Y26498278D01*
X6756328Y26450659D01*
X6661090Y26403040D01*
X6375376Y26403040D01*
X6280138Y26450659D01*
X6232519Y26498278D01*
%TO.C,JP1*%
X15214880Y15686687D02*
X15929166Y15686687D01*
X16072023Y15639068D01*
X16167261Y15543830D01*
X16214880Y15400973D01*
X16214880Y15305735D01*
X16214880Y16162878D02*
X15214880Y16162878D01*
X15214880Y16543830D01*
X15262500Y16639068D01*
X15310119Y16686687D01*
X15405357Y16734306D01*
X15548214Y16734306D01*
X15643452Y16686687D01*
X15691071Y16639068D01*
X15738690Y16543830D01*
X15738690Y16162878D01*
X16214880Y17686687D02*
X16214880Y17115259D01*
X16214880Y17400973D02*
X15214880Y17400973D01*
X15357738Y17305735D01*
X15452976Y17210497D01*
X15500595Y17115259D01*
%TO.C,JP2*%
X30150780Y15676687D02*
X30865066Y15676687D01*
X31007923Y15629068D01*
X31103161Y15533830D01*
X31150780Y15390973D01*
X31150780Y15295735D01*
X31150780Y16152878D02*
X30150780Y16152878D01*
X30150780Y16533830D01*
X30198400Y16629068D01*
X30246019Y16676687D01*
X30341257Y16724306D01*
X30484114Y16724306D01*
X30579352Y16676687D01*
X30626971Y16629068D01*
X30674590Y16533830D01*
X30674590Y16152878D01*
X30246019Y17105259D02*
X30198400Y17152878D01*
X30150780Y17248116D01*
X30150780Y17486211D01*
X30198400Y17581449D01*
X30246019Y17629068D01*
X30341257Y17676687D01*
X30436495Y17676687D01*
X30579352Y17629068D01*
X31150780Y17057640D01*
X31150780Y17676687D01*
%TO.C,JP3*%
X22682880Y15676687D02*
X23397166Y15676687D01*
X23540023Y15629068D01*
X23635261Y15533830D01*
X23682880Y15390973D01*
X23682880Y15295735D01*
X23682880Y16152878D02*
X22682880Y16152878D01*
X22682880Y16533830D01*
X22730500Y16629068D01*
X22778119Y16676687D01*
X22873357Y16724306D01*
X23016214Y16724306D01*
X23111452Y16676687D01*
X23159071Y16629068D01*
X23206690Y16533830D01*
X23206690Y16152878D01*
X22682880Y17057640D02*
X22682880Y17676687D01*
X23063833Y17343354D01*
X23063833Y17486211D01*
X23111452Y17581449D01*
X23159071Y17629068D01*
X23254309Y17676687D01*
X23492404Y17676687D01*
X23587642Y17629068D01*
X23635261Y17581449D01*
X23682880Y17486211D01*
X23682880Y17200497D01*
X23635261Y17105259D01*
X23587642Y17057640D01*
%TO.C,R1*%
X30348323Y1200406D02*
X30348323Y533740D01*
X30110228Y1581359D02*
X29872133Y867073D01*
X30491180Y867073D01*
X30872133Y533740D02*
X30872133Y1533740D01*
X30967371Y914692D02*
X31253085Y533740D01*
X31253085Y1200406D02*
X30872133Y819454D01*
X31586419Y1533740D02*
X32253085Y1533740D01*
X31824514Y533740D01*
X30872133Y2903740D02*
X30538800Y3379930D01*
X30300704Y2903740D02*
X30300704Y3903740D01*
X30681657Y3903740D01*
X30776895Y3856120D01*
X30824514Y3808501D01*
X30872133Y3713263D01*
X30872133Y3570406D01*
X30824514Y3475168D01*
X30776895Y3427549D01*
X30681657Y3379930D01*
X30300704Y3379930D01*
X31824514Y2903740D02*
X31253085Y2903740D01*
X31538800Y2903740D02*
X31538800Y3903740D01*
X31443561Y3760882D01*
X31348323Y3665644D01*
X31253085Y3618025D01*
%TO.C,R2*%
X57569019Y39671454D02*
X57521400Y39719073D01*
X57473780Y39814311D01*
X57473780Y40052406D01*
X57521400Y40147644D01*
X57569019Y40195263D01*
X57664257Y40242882D01*
X57759495Y40242882D01*
X57902352Y40195263D01*
X58473780Y39623835D01*
X58473780Y40242882D01*
X58473780Y40671454D02*
X57473780Y40671454D01*
X58092828Y40766692D02*
X58473780Y41052406D01*
X57807114Y41052406D02*
X58188066Y40671454D01*
X57569019Y41433359D02*
X57521400Y41480978D01*
X57473780Y41576216D01*
X57473780Y41814311D01*
X57521400Y41909549D01*
X57569019Y41957168D01*
X57664257Y42004787D01*
X57759495Y42004787D01*
X57902352Y41957168D01*
X58473780Y41385740D01*
X58473780Y42004787D01*
X56103780Y40671454D02*
X55627590Y40338120D01*
X56103780Y40100025D02*
X55103780Y40100025D01*
X55103780Y40480978D01*
X55151400Y40576216D01*
X55199019Y40623835D01*
X55294257Y40671454D01*
X55437114Y40671454D01*
X55532352Y40623835D01*
X55579971Y40576216D01*
X55627590Y40480978D01*
X55627590Y40100025D01*
X55199019Y41052406D02*
X55151400Y41100025D01*
X55103780Y41195263D01*
X55103780Y41433359D01*
X55151400Y41528597D01*
X55199019Y41576216D01*
X55294257Y41623835D01*
X55389495Y41623835D01*
X55532352Y41576216D01*
X56103780Y41004787D01*
X56103780Y41623835D01*
%TO.C,R3*%
X62853685Y30557540D02*
X62663209Y30557540D01*
X62567971Y30509920D01*
X62520352Y30462301D01*
X62425114Y30319444D01*
X62377495Y30128968D01*
X62377495Y29748016D01*
X62425114Y29652778D01*
X62472733Y29605159D01*
X62567971Y29557540D01*
X62758447Y29557540D01*
X62853685Y29605159D01*
X62901304Y29652778D01*
X62948923Y29748016D01*
X62948923Y29986111D01*
X62901304Y30081349D01*
X62853685Y30128968D01*
X62758447Y30176587D01*
X62567971Y30176587D01*
X62472733Y30128968D01*
X62425114Y30081349D01*
X62377495Y29986111D01*
X63520352Y30128968D02*
X63425114Y30176587D01*
X63377495Y30224206D01*
X63329876Y30319444D01*
X63329876Y30367063D01*
X63377495Y30462301D01*
X63425114Y30509920D01*
X63520352Y30557540D01*
X63710828Y30557540D01*
X63806066Y30509920D01*
X63853685Y30462301D01*
X63901304Y30367063D01*
X63901304Y30319444D01*
X63853685Y30224206D01*
X63806066Y30176587D01*
X63710828Y30128968D01*
X63520352Y30128968D01*
X63425114Y30081349D01*
X63377495Y30033730D01*
X63329876Y29938492D01*
X63329876Y29748016D01*
X63377495Y29652778D01*
X63425114Y29605159D01*
X63520352Y29557540D01*
X63710828Y29557540D01*
X63806066Y29605159D01*
X63853685Y29652778D01*
X63901304Y29748016D01*
X63901304Y29938492D01*
X63853685Y30033730D01*
X63806066Y30081349D01*
X63710828Y30128968D01*
X62972733Y31927540D02*
X62639400Y32403730D01*
X62401304Y31927540D02*
X62401304Y32927540D01*
X62782257Y32927540D01*
X62877495Y32879920D01*
X62925114Y32832301D01*
X62972733Y32737063D01*
X62972733Y32594206D01*
X62925114Y32498968D01*
X62877495Y32451349D01*
X62782257Y32403730D01*
X62401304Y32403730D01*
X63306066Y32927540D02*
X63925114Y32927540D01*
X63591780Y32546587D01*
X63734638Y32546587D01*
X63829876Y32498968D01*
X63877495Y32451349D01*
X63925114Y32356111D01*
X63925114Y32118016D01*
X63877495Y32022778D01*
X63829876Y31975159D01*
X63734638Y31927540D01*
X63448923Y31927540D01*
X63353685Y31975159D01*
X63306066Y32022778D01*
%TO.C,R4*%
X46637780Y40552406D02*
X46637780Y40361930D01*
X46685400Y40266692D01*
X46733019Y40219073D01*
X46875876Y40123835D01*
X47066352Y40076216D01*
X47447304Y40076216D01*
X47542542Y40123835D01*
X47590161Y40171454D01*
X47637780Y40266692D01*
X47637780Y40457168D01*
X47590161Y40552406D01*
X47542542Y40600025D01*
X47447304Y40647644D01*
X47209209Y40647644D01*
X47113971Y40600025D01*
X47066352Y40552406D01*
X47018733Y40457168D01*
X47018733Y40266692D01*
X47066352Y40171454D01*
X47113971Y40123835D01*
X47209209Y40076216D01*
X47066352Y41219073D02*
X47018733Y41123835D01*
X46971114Y41076216D01*
X46875876Y41028597D01*
X46828257Y41028597D01*
X46733019Y41076216D01*
X46685400Y41123835D01*
X46637780Y41219073D01*
X46637780Y41409549D01*
X46685400Y41504787D01*
X46733019Y41552406D01*
X46828257Y41600025D01*
X46875876Y41600025D01*
X46971114Y41552406D01*
X47018733Y41504787D01*
X47066352Y41409549D01*
X47066352Y41219073D01*
X47113971Y41123835D01*
X47161590Y41076216D01*
X47256828Y41028597D01*
X47447304Y41028597D01*
X47542542Y41076216D01*
X47590161Y41123835D01*
X47637780Y41219073D01*
X47637780Y41409549D01*
X47590161Y41504787D01*
X47542542Y41552406D01*
X47447304Y41600025D01*
X47256828Y41600025D01*
X47161590Y41552406D01*
X47113971Y41504787D01*
X47066352Y41409549D01*
X50007780Y40671454D02*
X49531590Y40338120D01*
X50007780Y40100025D02*
X49007780Y40100025D01*
X49007780Y40480978D01*
X49055400Y40576216D01*
X49103019Y40623835D01*
X49198257Y40671454D01*
X49341114Y40671454D01*
X49436352Y40623835D01*
X49483971Y40576216D01*
X49531590Y40480978D01*
X49531590Y40100025D01*
X49341114Y41528597D02*
X50007780Y41528597D01*
X48960161Y41290501D02*
X49674447Y41052406D01*
X49674447Y41671454D01*
%TO.C,R5*%
X16921580Y40767273D02*
X16921580Y40195844D01*
X16921580Y40481559D02*
X15921580Y40481559D01*
X16064438Y40386320D01*
X16159676Y40291082D01*
X16207295Y40195844D01*
X16921580Y41195844D02*
X15921580Y41195844D01*
X16540628Y41291082D02*
X16921580Y41576797D01*
X16254914Y41576797D02*
X16635866Y41195844D01*
X19060400Y40724714D02*
X18584210Y40391380D01*
X19060400Y40153285D02*
X18060400Y40153285D01*
X18060400Y40534238D01*
X18108020Y40629476D01*
X18155639Y40677095D01*
X18250877Y40724714D01*
X18393734Y40724714D01*
X18488972Y40677095D01*
X18536591Y40629476D01*
X18584210Y40534238D01*
X18584210Y40153285D01*
X18060400Y41629476D02*
X18060400Y41153285D01*
X18536591Y41105666D01*
X18488972Y41153285D01*
X18441353Y41248523D01*
X18441353Y41486619D01*
X18488972Y41581857D01*
X18536591Y41629476D01*
X18631829Y41677095D01*
X18869924Y41677095D01*
X18965162Y41629476D01*
X19012781Y41581857D01*
X19060400Y41486619D01*
X19060400Y41248523D01*
X19012781Y41153285D01*
X18965162Y41105666D01*
%TO.C,R6*%
X24049580Y40767273D02*
X24049580Y40195844D01*
X24049580Y40481559D02*
X23049580Y40481559D01*
X23192438Y40386320D01*
X23287676Y40291082D01*
X23335295Y40195844D01*
X24049580Y41195844D02*
X23049580Y41195844D01*
X23668628Y41291082D02*
X24049580Y41576797D01*
X23382914Y41576797D02*
X23763866Y41195844D01*
X26419580Y40719654D02*
X25943390Y40386320D01*
X26419580Y40148225D02*
X25419580Y40148225D01*
X25419580Y40529178D01*
X25467200Y40624416D01*
X25514819Y40672035D01*
X25610057Y40719654D01*
X25752914Y40719654D01*
X25848152Y40672035D01*
X25895771Y40624416D01*
X25943390Y40529178D01*
X25943390Y40148225D01*
X25419580Y41576797D02*
X25419580Y41386320D01*
X25467200Y41291082D01*
X25514819Y41243463D01*
X25657676Y41148225D01*
X25848152Y41100606D01*
X26229104Y41100606D01*
X26324342Y41148225D01*
X26371961Y41195844D01*
X26419580Y41291082D01*
X26419580Y41481559D01*
X26371961Y41576797D01*
X26324342Y41624416D01*
X26229104Y41672035D01*
X25991009Y41672035D01*
X25895771Y41624416D01*
X25848152Y41576797D01*
X25800533Y41481559D01*
X25800533Y41291082D01*
X25848152Y41195844D01*
X25895771Y41148225D01*
X25991009Y41100606D01*
%TO.C,R7*%
X24798352Y4652740D02*
X24226923Y4652740D01*
X24512638Y4652740D02*
X24512638Y5652740D01*
X24417400Y5509882D01*
X24322161Y5414644D01*
X24226923Y5367025D01*
X25226923Y4652740D02*
X25226923Y5652740D01*
X25322161Y5033692D02*
X25607876Y4652740D01*
X25607876Y5319406D02*
X25226923Y4938454D01*
X24750733Y7022740D02*
X24417400Y7498930D01*
X24179304Y7022740D02*
X24179304Y8022740D01*
X24560257Y8022740D01*
X24655495Y7975120D01*
X24703114Y7927501D01*
X24750733Y7832263D01*
X24750733Y7689406D01*
X24703114Y7594168D01*
X24655495Y7546549D01*
X24560257Y7498930D01*
X24179304Y7498930D01*
X25084066Y8022740D02*
X25750733Y8022740D01*
X25322161Y7022740D01*
%TO.C,U1*%
X35065923Y44444454D02*
X35542114Y44444454D01*
X34970685Y44158740D02*
X35304019Y45158740D01*
X35637352Y44158740D01*
X35827828Y45158740D02*
X36399257Y45158740D01*
X36113542Y44158740D02*
X36113542Y45158740D01*
X36732590Y44158740D02*
X36732590Y44825406D01*
X36732590Y44730168D02*
X36780209Y44777787D01*
X36875447Y44825406D01*
X37018304Y44825406D01*
X37113542Y44777787D01*
X37161161Y44682549D01*
X37161161Y44158740D01*
X37161161Y44682549D02*
X37208780Y44777787D01*
X37304019Y44825406D01*
X37446876Y44825406D01*
X37542114Y44777787D01*
X37589733Y44682549D01*
X37589733Y44158740D01*
X38446876Y44206359D02*
X38351638Y44158740D01*
X38161161Y44158740D01*
X38065923Y44206359D01*
X38018304Y44301597D01*
X38018304Y44682549D01*
X38065923Y44777787D01*
X38161161Y44825406D01*
X38351638Y44825406D01*
X38446876Y44777787D01*
X38494495Y44682549D01*
X38494495Y44587311D01*
X38018304Y44492073D01*
X39351638Y44825406D02*
X39351638Y44015882D01*
X39304019Y43920644D01*
X39256400Y43873025D01*
X39161161Y43825406D01*
X39018304Y43825406D01*
X38923066Y43873025D01*
X39351638Y44206359D02*
X39256400Y44158740D01*
X39065923Y44158740D01*
X38970685Y44206359D01*
X38923066Y44253978D01*
X38875447Y44349216D01*
X38875447Y44634930D01*
X38923066Y44730168D01*
X38970685Y44777787D01*
X39065923Y44825406D01*
X39256400Y44825406D01*
X39351638Y44777787D01*
X40256400Y44158740D02*
X40256400Y44682549D01*
X40208780Y44777787D01*
X40113542Y44825406D01*
X39923066Y44825406D01*
X39827828Y44777787D01*
X40256400Y44206359D02*
X40161161Y44158740D01*
X39923066Y44158740D01*
X39827828Y44206359D01*
X39780209Y44301597D01*
X39780209Y44396835D01*
X39827828Y44492073D01*
X39923066Y44539692D01*
X40161161Y44539692D01*
X40256400Y44587311D01*
X40875447Y44730168D02*
X40780209Y44777787D01*
X40732590Y44825406D01*
X40684971Y44920644D01*
X40684971Y44968263D01*
X40732590Y45063501D01*
X40780209Y45111120D01*
X40875447Y45158740D01*
X41065923Y45158740D01*
X41161161Y45111120D01*
X41208780Y45063501D01*
X41256400Y44968263D01*
X41256400Y44920644D01*
X41208780Y44825406D01*
X41161161Y44777787D01*
X41065923Y44730168D01*
X40875447Y44730168D01*
X40780209Y44682549D01*
X40732590Y44634930D01*
X40684971Y44539692D01*
X40684971Y44349216D01*
X40732590Y44253978D01*
X40780209Y44206359D01*
X40875447Y44158740D01*
X41065923Y44158740D01*
X41161161Y44206359D01*
X41208780Y44253978D01*
X41256400Y44349216D01*
X41256400Y44539692D01*
X41208780Y44634930D01*
X41161161Y44682549D01*
X41065923Y44730168D01*
X41684971Y44539692D02*
X42446876Y44539692D01*
X43446876Y44158740D02*
X42875447Y44158740D01*
X43161161Y44158740D02*
X43161161Y45158740D01*
X43065923Y45015882D01*
X42970685Y44920644D01*
X42875447Y44873025D01*
X44304019Y45158740D02*
X44113542Y45158740D01*
X44018304Y45111120D01*
X43970685Y45063501D01*
X43875447Y44920644D01*
X43827828Y44730168D01*
X43827828Y44349216D01*
X43875447Y44253978D01*
X43923066Y44206359D01*
X44018304Y44158740D01*
X44208780Y44158740D01*
X44304019Y44206359D01*
X44351638Y44253978D01*
X44399257Y44349216D01*
X44399257Y44587311D01*
X44351638Y44682549D01*
X44304019Y44730168D01*
X44208780Y44777787D01*
X44018304Y44777787D01*
X43923066Y44730168D01*
X43875447Y44682549D01*
X43827828Y44587311D01*
X44827828Y44158740D02*
X44827828Y45158740D01*
X45208780Y45158740D01*
X45304019Y45111120D01*
X45351638Y45063501D01*
X45399257Y44968263D01*
X45399257Y44825406D01*
X45351638Y44730168D01*
X45304019Y44682549D01*
X45208780Y44634930D01*
X44827828Y44634930D01*
X45827828Y45158740D02*
X45827828Y44349216D01*
X45875447Y44253978D01*
X45923066Y44206359D01*
X46018304Y44158740D01*
X46208780Y44158740D01*
X46304019Y44206359D01*
X46351638Y44253978D01*
X46399257Y44349216D01*
X46399257Y45158740D01*
X39994495Y26318740D02*
X39994495Y25509216D01*
X40042114Y25413978D01*
X40089733Y25366359D01*
X40184971Y25318740D01*
X40375447Y25318740D01*
X40470685Y25366359D01*
X40518304Y25413978D01*
X40565923Y25509216D01*
X40565923Y26318740D01*
X41565923Y25318740D02*
X40994495Y25318740D01*
X41280209Y25318740D02*
X41280209Y26318740D01*
X41184971Y26175882D01*
X41089733Y26080644D01*
X40994495Y26033025D01*
%TD*%
M02*
