G04 #@! TF.GenerationSoftware,KiCad,Pcbnew,5.1.4-3.fc30*
G04 #@! TF.CreationDate,2019-09-17T14:14:00+02:00*
G04 #@! TF.ProjectId,usbasp,75736261-7370-42e6-9b69-6361645f7063,2.0*
G04 #@! TF.SameCoordinates,Original*
G04 #@! TF.FileFunction,Other,Fab,Top*
%FSLAX46Y46*%
G04 Gerber Fmt 4.6, Leading zero omitted, Abs format (unit mm)*
G04 Created by KiCad (PCBNEW 5.1.4-3.fc30) date 2019-09-17 14:14:00*
%MOMM*%
%LPD*%
G04 APERTURE LIST*
%ADD10C,0.100000*%
%ADD11C,0.150000*%
%ADD12C,0.120000*%
G04 APERTURE END LIST*
D10*
X137009000Y-92409600D02*
X137009000Y-85909600D01*
X137709000Y-92909600D02*
X132709000Y-92909600D01*
X132709000Y-92909600D02*
X132709000Y-85409600D01*
X132709000Y-85409600D02*
X137709000Y-85409600D01*
X137709000Y-85409600D02*
X137709000Y-92909600D01*
X112018000Y-89467700D02*
G75*
G03X107018000Y-89467700I-2500000J0D01*
G01*
X112018000Y-94467700D02*
G75*
G02X107018000Y-94467700I-2500000J0D01*
G01*
X112018000Y-89467700D02*
G75*
G03X107018000Y-89467700I-2500000J0D01*
G01*
X112018000Y-94467700D02*
G75*
G02X107018000Y-94467700I-2500000J0D01*
G01*
X112018000Y-94467700D02*
X112018000Y-89467700D01*
X107018000Y-94467700D02*
X107018000Y-89467700D01*
X112018000Y-94467700D02*
X112018000Y-89467700D01*
X107018000Y-94467700D02*
X107018000Y-89467700D01*
X68781564Y-106655000D02*
G75*
G03X68781564Y-106655000I-2015564J0D01*
G01*
X63766000Y-109655000D02*
X63766000Y-106655000D01*
X69766000Y-109655000D02*
X63766000Y-109655000D01*
X69766000Y-103655000D02*
X69766000Y-109655000D01*
X63766000Y-103655000D02*
X69766000Y-103655000D01*
X63766000Y-106655000D02*
X63766000Y-103655000D01*
X115056000Y-93151600D02*
X115056000Y-95651600D01*
X115056000Y-95651600D02*
X120056000Y-95651600D01*
X120056000Y-95651600D02*
X120056000Y-93151600D01*
X120056000Y-93151600D02*
X115056000Y-93151600D01*
X120167000Y-88117400D02*
X115167000Y-88117400D01*
X120167000Y-90617400D02*
X120167000Y-88117400D01*
X115167000Y-90617400D02*
X120167000Y-90617400D01*
X115167000Y-88117400D02*
X115167000Y-90617400D01*
X129083000Y-75239800D02*
X131583000Y-75239800D01*
X131583000Y-75239800D02*
X131583000Y-68239800D01*
X131583000Y-68239800D02*
X129083000Y-68239800D01*
X129083000Y-68239800D02*
X129083000Y-75239800D01*
X123683000Y-108880000D02*
G75*
G03X123683000Y-108880000I-2500000J0D01*
G01*
X120095500Y-111013605D02*
X120095500Y-110513605D01*
X119845500Y-110763605D02*
X120345500Y-110763605D01*
X95545000Y-111630000D02*
X102545000Y-111630000D01*
X95545000Y-109130000D02*
X95545000Y-111630000D01*
X102545000Y-109130000D02*
X95545000Y-109130000D01*
X102545000Y-111630000D02*
X102545000Y-109130000D01*
X118043000Y-74349800D02*
X120043000Y-74349800D01*
X118043000Y-74149800D02*
X120043000Y-74149800D01*
X118043000Y-74249800D02*
X120043000Y-74249800D01*
X119043000Y-69039800D02*
X119043000Y-70849800D01*
X119043000Y-76659800D02*
X119043000Y-74849800D01*
X118043000Y-70849800D02*
X118043000Y-74849800D01*
X120043000Y-70849800D02*
X118043000Y-70849800D01*
X120043000Y-74849800D02*
X120043000Y-70849800D01*
X118043000Y-74849800D02*
X120043000Y-74849800D01*
X123563000Y-74849800D02*
X125563000Y-74849800D01*
X125563000Y-74849800D02*
X125563000Y-70849800D01*
X125563000Y-70849800D02*
X123563000Y-70849800D01*
X123563000Y-70849800D02*
X123563000Y-74849800D01*
X124563000Y-76659800D02*
X124563000Y-74849800D01*
X124563000Y-69039800D02*
X124563000Y-70849800D01*
X123563000Y-74249800D02*
X125563000Y-74249800D01*
X123563000Y-74149800D02*
X125563000Y-74149800D01*
X123563000Y-74349800D02*
X125563000Y-74349800D01*
X77637276Y-82991055D02*
G75*
G03X75305610Y-82990500I-1165476J1500555D01*
G01*
X77971800Y-81490500D02*
G75*
G03X77971800Y-81490500I-1500000J0D01*
G01*
X75305610Y-82990500D02*
X77637990Y-82990500D01*
X82433610Y-82990500D02*
X84765990Y-82990500D01*
X85099800Y-81490500D02*
G75*
G03X85099800Y-81490500I-1500000J0D01*
G01*
X84765276Y-82991055D02*
G75*
G03X82433610Y-82990500I-1165476J1500555D01*
G01*
X107753000Y-109130000D02*
X107753000Y-111130000D01*
X107753000Y-111130000D02*
X111753000Y-111130000D01*
X111753000Y-111130000D02*
X111753000Y-109130000D01*
X111753000Y-109130000D02*
X107753000Y-109130000D01*
X105943000Y-110130000D02*
X107753000Y-110130000D01*
X113563000Y-110130000D02*
X111753000Y-110130000D01*
X108353000Y-109130000D02*
X108353000Y-111130000D01*
X108453000Y-109130000D02*
X108453000Y-111130000D01*
X108253000Y-109130000D02*
X108253000Y-111130000D01*
X73583800Y-105740000D02*
X74218800Y-105105000D01*
X73583800Y-110185000D02*
X73583800Y-105740000D01*
X76123800Y-110185000D02*
X73583800Y-110185000D01*
X76123800Y-105105000D02*
X76123800Y-110185000D01*
X74218800Y-105105000D02*
X76123800Y-105105000D01*
X68242500Y-76700700D02*
X68242500Y-97060700D01*
X67692500Y-77240700D02*
X67692500Y-96500700D01*
X59392500Y-76700700D02*
X59392500Y-97060700D01*
X59942500Y-77240700D02*
X59942500Y-84630700D01*
X59942500Y-89130700D02*
X59942500Y-96500700D01*
X59942500Y-84630700D02*
X59392500Y-84630700D01*
X59942500Y-89130700D02*
X59392500Y-89130700D01*
X68242500Y-76700700D02*
X59392500Y-76700700D01*
X67692500Y-77240700D02*
X59942500Y-77240700D01*
X68242500Y-97060700D02*
X59392500Y-97060700D01*
X67692500Y-96500700D02*
X59942500Y-96500700D01*
X68242500Y-76700700D02*
X67692500Y-77240700D01*
X68242500Y-97060700D02*
X67692500Y-96500700D01*
X59392500Y-76700700D02*
X59942500Y-77240700D01*
X59392500Y-97060700D02*
X59942500Y-96500700D01*
X72760100Y-94676100D02*
X74665100Y-94676100D01*
X74665100Y-94676100D02*
X74665100Y-99756100D01*
X74665100Y-99756100D02*
X72125100Y-99756100D01*
X72125100Y-99756100D02*
X72125100Y-95311100D01*
X72125100Y-95311100D02*
X72760100Y-94676100D01*
X89601000Y-99131100D02*
X88966000Y-99766100D01*
X89601000Y-94686100D02*
X89601000Y-99131100D01*
X87061000Y-94686100D02*
X89601000Y-94686100D01*
X87061000Y-99766100D02*
X87061000Y-94686100D01*
X88966000Y-99766100D02*
X87061000Y-99766100D01*
X81498100Y-99766100D02*
X79593100Y-99766100D01*
X79593100Y-99766100D02*
X79593100Y-94686100D01*
X79593100Y-94686100D02*
X82133100Y-94686100D01*
X82133100Y-94686100D02*
X82133100Y-99131100D01*
X82133100Y-99131100D02*
X81498100Y-99766100D01*
X85521400Y-109130000D02*
X85521400Y-111630000D01*
X85521400Y-111630000D02*
X91821400Y-111630000D01*
X91821400Y-111630000D02*
X91821400Y-109130000D01*
X91821400Y-109130000D02*
X85521400Y-109130000D01*
X84861400Y-110380000D02*
X85521400Y-110380000D01*
X92481400Y-110380000D02*
X91821400Y-110380000D01*
X107252000Y-69039800D02*
X107252000Y-69699800D01*
X107252000Y-76659800D02*
X107252000Y-75999800D01*
X106002000Y-69699800D02*
X106002000Y-75999800D01*
X108502000Y-69699800D02*
X106002000Y-69699800D01*
X108502000Y-75999800D02*
X108502000Y-69699800D01*
X106002000Y-75999800D02*
X108502000Y-75999800D01*
X124582000Y-81356200D02*
X123922000Y-81356200D01*
X116962000Y-81356200D02*
X117622000Y-81356200D01*
X123922000Y-80106200D02*
X117622000Y-80106200D01*
X123922000Y-82606200D02*
X123922000Y-80106200D01*
X117622000Y-82606200D02*
X123922000Y-82606200D01*
X117622000Y-80106200D02*
X117622000Y-82606200D01*
X114522000Y-69699800D02*
X112022000Y-69699800D01*
X112022000Y-69699800D02*
X112022000Y-75999800D01*
X112022000Y-75999800D02*
X114522000Y-75999800D01*
X114522000Y-75999800D02*
X114522000Y-69699800D01*
X113272000Y-69039800D02*
X113272000Y-69699800D01*
X113272000Y-76659800D02*
X113272000Y-75999800D01*
X76471800Y-76659800D02*
X76471800Y-75999800D01*
X76471800Y-69039800D02*
X76471800Y-69699800D01*
X77721800Y-75999800D02*
X77721800Y-69699800D01*
X75221800Y-75999800D02*
X77721800Y-75999800D01*
X75221800Y-69699800D02*
X75221800Y-75999800D01*
X77721800Y-69699800D02*
X75221800Y-69699800D01*
X84849800Y-69699800D02*
X82349800Y-69699800D01*
X82349800Y-69699800D02*
X82349800Y-75999800D01*
X82349800Y-75999800D02*
X84849800Y-75999800D01*
X84849800Y-75999800D02*
X84849800Y-69699800D01*
X83599800Y-69039800D02*
X83599800Y-69699800D01*
X83599800Y-76659800D02*
X83599800Y-75999800D01*
X79400000Y-105011000D02*
X79400000Y-107511000D01*
X79400000Y-107511000D02*
X85700000Y-107511000D01*
X85700000Y-107511000D02*
X85700000Y-105011000D01*
X85700000Y-105011000D02*
X79400000Y-105011000D01*
X78740000Y-106261000D02*
X79400000Y-106261000D01*
X86360000Y-106261000D02*
X85700000Y-106261000D01*
X100564000Y-105745000D02*
X95214000Y-105745000D01*
X95214000Y-105745000D02*
X95214000Y-70185000D01*
X95214000Y-70185000D02*
X101564000Y-70185000D01*
X101564000Y-70185000D02*
X101564000Y-104745000D01*
X101564000Y-104745000D02*
X100564000Y-105745000D01*
D11*
X130260860Y-88066497D02*
X131070384Y-88066497D01*
X131165622Y-88018878D01*
X131213241Y-87971259D01*
X131260860Y-87876020D01*
X131260860Y-87685544D01*
X131213241Y-87590306D01*
X131165622Y-87542687D01*
X131070384Y-87495068D01*
X130260860Y-87495068D01*
X131213241Y-87066497D02*
X131260860Y-86923640D01*
X131260860Y-86685544D01*
X131213241Y-86590306D01*
X131165622Y-86542687D01*
X131070384Y-86495068D01*
X130975146Y-86495068D01*
X130879908Y-86542687D01*
X130832289Y-86590306D01*
X130784670Y-86685544D01*
X130737051Y-86876020D01*
X130689432Y-86971259D01*
X130641813Y-87018878D01*
X130546575Y-87066497D01*
X130451337Y-87066497D01*
X130356099Y-87018878D01*
X130308480Y-86971259D01*
X130260860Y-86876020D01*
X130260860Y-86637925D01*
X130308480Y-86495068D01*
X130737051Y-85733163D02*
X130784670Y-85590306D01*
X130832289Y-85542687D01*
X130927527Y-85495068D01*
X131070384Y-85495068D01*
X131165622Y-85542687D01*
X131213241Y-85590306D01*
X131260860Y-85685544D01*
X131260860Y-86066497D01*
X130260860Y-86066497D01*
X130260860Y-85733163D01*
X130308480Y-85637925D01*
X130356099Y-85590306D01*
X130451337Y-85542687D01*
X130546575Y-85542687D01*
X130641813Y-85590306D01*
X130689432Y-85637925D01*
X130737051Y-85733163D01*
X130737051Y-86066497D01*
X131356099Y-85304592D02*
X131356099Y-84542687D01*
X130737051Y-83971259D02*
X130784670Y-83828401D01*
X130832289Y-83780782D01*
X130927527Y-83733163D01*
X131070384Y-83733163D01*
X131165622Y-83780782D01*
X131213241Y-83828401D01*
X131260860Y-83923640D01*
X131260860Y-84304592D01*
X130260860Y-84304592D01*
X130260860Y-83971259D01*
X130308480Y-83876020D01*
X130356099Y-83828401D01*
X130451337Y-83780782D01*
X130546575Y-83780782D01*
X130641813Y-83828401D01*
X130689432Y-83876020D01*
X130737051Y-83971259D01*
X130737051Y-84304592D01*
X135011380Y-89492933D02*
X135725666Y-89492933D01*
X135868523Y-89540552D01*
X135963761Y-89635790D01*
X136011380Y-89778647D01*
X136011380Y-89873885D01*
X136011380Y-88492933D02*
X136011380Y-89064361D01*
X136011380Y-88778647D02*
X135011380Y-88778647D01*
X135154238Y-88873885D01*
X135249476Y-88969123D01*
X135297095Y-89064361D01*
X113670380Y-93658176D02*
X113670380Y-94229604D01*
X113670380Y-93943890D02*
X112670380Y-93943890D01*
X112813238Y-94039128D01*
X112908476Y-94134366D01*
X112956095Y-94229604D01*
X112765619Y-93277223D02*
X112718000Y-93229604D01*
X112670380Y-93134366D01*
X112670380Y-92896271D01*
X112718000Y-92801033D01*
X112765619Y-92753414D01*
X112860857Y-92705795D01*
X112956095Y-92705795D01*
X113098952Y-92753414D01*
X113670380Y-93324842D01*
X113670380Y-92705795D01*
X113670380Y-92277223D02*
X112670380Y-92277223D01*
X113384666Y-91943890D01*
X112670380Y-91610557D01*
X113670380Y-91610557D01*
X113670380Y-91134366D02*
X112670380Y-91134366D01*
X113146571Y-91134366D02*
X113146571Y-90562938D01*
X113670380Y-90562938D02*
X112670380Y-90562938D01*
X113003714Y-90181985D02*
X113003714Y-89658176D01*
X113670380Y-90181985D01*
X113670380Y-89658176D01*
X109494190Y-92443890D02*
X109970380Y-92443890D01*
X108970380Y-92777223D02*
X109494190Y-92443890D01*
X108970380Y-92110557D01*
X109970380Y-91253414D02*
X109970380Y-91824842D01*
X109970380Y-91539128D02*
X108970380Y-91539128D01*
X109113238Y-91634366D01*
X109208476Y-91729604D01*
X109256095Y-91824842D01*
X71668380Y-107607380D02*
X71192190Y-107940714D01*
X71668380Y-108178809D02*
X70668380Y-108178809D01*
X70668380Y-107797857D01*
X70716000Y-107702619D01*
X70763619Y-107655000D01*
X70858857Y-107607380D01*
X71001714Y-107607380D01*
X71096952Y-107655000D01*
X71144571Y-107702619D01*
X71192190Y-107797857D01*
X71192190Y-108178809D01*
X71144571Y-107178809D02*
X71144571Y-106845476D01*
X71668380Y-106702619D02*
X71668380Y-107178809D01*
X70668380Y-107178809D01*
X70668380Y-106702619D01*
X71620761Y-106321666D02*
X71668380Y-106178809D01*
X71668380Y-105940714D01*
X71620761Y-105845476D01*
X71573142Y-105797857D01*
X71477904Y-105750238D01*
X71382666Y-105750238D01*
X71287428Y-105797857D01*
X71239809Y-105845476D01*
X71192190Y-105940714D01*
X71144571Y-106131190D01*
X71096952Y-106226428D01*
X71049333Y-106274047D01*
X70954095Y-106321666D01*
X70858857Y-106321666D01*
X70763619Y-106274047D01*
X70716000Y-106226428D01*
X70668380Y-106131190D01*
X70668380Y-105893095D01*
X70716000Y-105750238D01*
X71144571Y-105321666D02*
X71144571Y-104988333D01*
X71668380Y-104845476D02*
X71668380Y-105321666D01*
X70668380Y-105321666D01*
X70668380Y-104845476D01*
X70668380Y-104559761D02*
X70668380Y-103988333D01*
X71668380Y-104274047D02*
X70668380Y-104274047D01*
X67170761Y-107988333D02*
X67218380Y-107845476D01*
X67218380Y-107607380D01*
X67170761Y-107512142D01*
X67123142Y-107464523D01*
X67027904Y-107416904D01*
X66932666Y-107416904D01*
X66837428Y-107464523D01*
X66789809Y-107512142D01*
X66742190Y-107607380D01*
X66694571Y-107797857D01*
X66646952Y-107893095D01*
X66599333Y-107940714D01*
X66504095Y-107988333D01*
X66408857Y-107988333D01*
X66313619Y-107940714D01*
X66266000Y-107893095D01*
X66218380Y-107797857D01*
X66218380Y-107559761D01*
X66266000Y-107416904D01*
X66218380Y-107083571D02*
X67218380Y-106845476D01*
X66504095Y-106655000D01*
X67218380Y-106464523D01*
X66218380Y-106226428D01*
X67218380Y-105321666D02*
X67218380Y-105893095D01*
X67218380Y-105607380D02*
X66218380Y-105607380D01*
X66361238Y-105702619D01*
X66456476Y-105797857D01*
X66504095Y-105893095D01*
X115913142Y-96449219D02*
X115960761Y-96401600D01*
X116056000Y-96353980D01*
X116294095Y-96353980D01*
X116389333Y-96401600D01*
X116436952Y-96449219D01*
X116484571Y-96544457D01*
X116484571Y-96639695D01*
X116436952Y-96782552D01*
X115865523Y-97353980D01*
X116484571Y-97353980D01*
X116865523Y-96449219D02*
X116913142Y-96401600D01*
X117008380Y-96353980D01*
X117246476Y-96353980D01*
X117341714Y-96401600D01*
X117389333Y-96449219D01*
X117436952Y-96544457D01*
X117436952Y-96639695D01*
X117389333Y-96782552D01*
X116817904Y-97353980D01*
X117436952Y-97353980D01*
X117865523Y-96687314D02*
X117865523Y-97687314D01*
X117865523Y-96734933D02*
X117960761Y-96687314D01*
X118151238Y-96687314D01*
X118246476Y-96734933D01*
X118294095Y-96782552D01*
X118341714Y-96877790D01*
X118341714Y-97163504D01*
X118294095Y-97258742D01*
X118246476Y-97306361D01*
X118151238Y-97353980D01*
X117960761Y-97353980D01*
X117865523Y-97306361D01*
X119103619Y-96830171D02*
X118770285Y-96830171D01*
X118770285Y-97353980D02*
X118770285Y-96353980D01*
X119246476Y-96353980D01*
X117389333Y-94758742D02*
X117341714Y-94806361D01*
X117198857Y-94853980D01*
X117103619Y-94853980D01*
X116960761Y-94806361D01*
X116865523Y-94711123D01*
X116817904Y-94615885D01*
X116770285Y-94425409D01*
X116770285Y-94282552D01*
X116817904Y-94092076D01*
X116865523Y-93996838D01*
X116960761Y-93901600D01*
X117103619Y-93853980D01*
X117198857Y-93853980D01*
X117341714Y-93901600D01*
X117389333Y-93949219D01*
X118341714Y-94853980D02*
X117770285Y-94853980D01*
X118056000Y-94853980D02*
X118056000Y-93853980D01*
X117960761Y-93996838D01*
X117865523Y-94092076D01*
X117770285Y-94139695D01*
X116024142Y-91415019D02*
X116071761Y-91367400D01*
X116167000Y-91319780D01*
X116405095Y-91319780D01*
X116500333Y-91367400D01*
X116547952Y-91415019D01*
X116595571Y-91510257D01*
X116595571Y-91605495D01*
X116547952Y-91748352D01*
X115976523Y-92319780D01*
X116595571Y-92319780D01*
X116976523Y-91415019D02*
X117024142Y-91367400D01*
X117119380Y-91319780D01*
X117357476Y-91319780D01*
X117452714Y-91367400D01*
X117500333Y-91415019D01*
X117547952Y-91510257D01*
X117547952Y-91605495D01*
X117500333Y-91748352D01*
X116928904Y-92319780D01*
X117547952Y-92319780D01*
X117976523Y-91653114D02*
X117976523Y-92653114D01*
X117976523Y-91700733D02*
X118071761Y-91653114D01*
X118262238Y-91653114D01*
X118357476Y-91700733D01*
X118405095Y-91748352D01*
X118452714Y-91843590D01*
X118452714Y-92129304D01*
X118405095Y-92224542D01*
X118357476Y-92272161D01*
X118262238Y-92319780D01*
X118071761Y-92319780D01*
X117976523Y-92272161D01*
X119214619Y-91795971D02*
X118881285Y-91795971D01*
X118881285Y-92319780D02*
X118881285Y-91319780D01*
X119357476Y-91319780D01*
X117500333Y-89724542D02*
X117452714Y-89772161D01*
X117309857Y-89819780D01*
X117214619Y-89819780D01*
X117071761Y-89772161D01*
X116976523Y-89676923D01*
X116928904Y-89581685D01*
X116881285Y-89391209D01*
X116881285Y-89248352D01*
X116928904Y-89057876D01*
X116976523Y-88962638D01*
X117071761Y-88867400D01*
X117214619Y-88819780D01*
X117309857Y-88819780D01*
X117452714Y-88867400D01*
X117500333Y-88915019D01*
X117881285Y-88915019D02*
X117928904Y-88867400D01*
X118024142Y-88819780D01*
X118262238Y-88819780D01*
X118357476Y-88867400D01*
X118405095Y-88915019D01*
X118452714Y-89010257D01*
X118452714Y-89105495D01*
X118405095Y-89248352D01*
X117833666Y-89819780D01*
X118452714Y-89819780D01*
X133285380Y-72858847D02*
X133285380Y-73430276D01*
X133285380Y-73144561D02*
X132285380Y-73144561D01*
X132428238Y-73239800D01*
X132523476Y-73335038D01*
X132571095Y-73430276D01*
X132285380Y-72239800D02*
X132285380Y-72144561D01*
X132333000Y-72049323D01*
X132380619Y-72001704D01*
X132475857Y-71954085D01*
X132666333Y-71906466D01*
X132904428Y-71906466D01*
X133094904Y-71954085D01*
X133190142Y-72001704D01*
X133237761Y-72049323D01*
X133285380Y-72144561D01*
X133285380Y-72239800D01*
X133237761Y-72335038D01*
X133190142Y-72382657D01*
X133094904Y-72430276D01*
X132904428Y-72477895D01*
X132666333Y-72477895D01*
X132475857Y-72430276D01*
X132380619Y-72382657D01*
X132333000Y-72335038D01*
X132285380Y-72239800D01*
X132285380Y-71287419D02*
X132285380Y-71192180D01*
X132333000Y-71096942D01*
X132380619Y-71049323D01*
X132475857Y-71001704D01*
X132666333Y-70954085D01*
X132904428Y-70954085D01*
X133094904Y-71001704D01*
X133190142Y-71049323D01*
X133237761Y-71096942D01*
X133285380Y-71192180D01*
X133285380Y-71287419D01*
X133237761Y-71382657D01*
X133190142Y-71430276D01*
X133094904Y-71477895D01*
X132904428Y-71525514D01*
X132666333Y-71525514D01*
X132475857Y-71477895D01*
X132380619Y-71430276D01*
X132333000Y-71382657D01*
X132285380Y-71287419D01*
X132618714Y-70525514D02*
X133285380Y-70525514D01*
X132713952Y-70525514D02*
X132666333Y-70477895D01*
X132618714Y-70382657D01*
X132618714Y-70239800D01*
X132666333Y-70144561D01*
X132761571Y-70096942D01*
X133285380Y-70096942D01*
X130690142Y-71906466D02*
X130737761Y-71954085D01*
X130785380Y-72096942D01*
X130785380Y-72192180D01*
X130737761Y-72335038D01*
X130642523Y-72430276D01*
X130547285Y-72477895D01*
X130356809Y-72525514D01*
X130213952Y-72525514D01*
X130023476Y-72477895D01*
X129928238Y-72430276D01*
X129833000Y-72335038D01*
X129785380Y-72192180D01*
X129785380Y-72096942D01*
X129833000Y-71954085D01*
X129880619Y-71906466D01*
X129785380Y-71573133D02*
X129785380Y-70954085D01*
X130166333Y-71287419D01*
X130166333Y-71144561D01*
X130213952Y-71049323D01*
X130261571Y-71001704D01*
X130356809Y-70954085D01*
X130594904Y-70954085D01*
X130690142Y-71001704D01*
X130737761Y-71049323D01*
X130785380Y-71144561D01*
X130785380Y-71430276D01*
X130737761Y-71525514D01*
X130690142Y-71573133D01*
X124718714Y-109618095D02*
X125385380Y-109618095D01*
X124337761Y-109856190D02*
X125052047Y-110094285D01*
X125052047Y-109475238D01*
X124718714Y-108665714D02*
X125385380Y-108665714D01*
X124718714Y-109094285D02*
X125242523Y-109094285D01*
X125337761Y-109046666D01*
X125385380Y-108951428D01*
X125385380Y-108808571D01*
X125337761Y-108713333D01*
X125290142Y-108665714D01*
X124385380Y-108284761D02*
X124385380Y-107618095D01*
X125385380Y-108046666D01*
X121540142Y-109046666D02*
X121587761Y-109094285D01*
X121635380Y-109237142D01*
X121635380Y-109332380D01*
X121587761Y-109475238D01*
X121492523Y-109570476D01*
X121397285Y-109618095D01*
X121206809Y-109665714D01*
X121063952Y-109665714D01*
X120873476Y-109618095D01*
X120778238Y-109570476D01*
X120683000Y-109475238D01*
X120635380Y-109332380D01*
X120635380Y-109237142D01*
X120683000Y-109094285D01*
X120730619Y-109046666D01*
X120968714Y-108189523D02*
X121635380Y-108189523D01*
X120587761Y-108427619D02*
X121302047Y-108665714D01*
X121302047Y-108046666D01*
X97925952Y-108332380D02*
X97354523Y-108332380D01*
X97640238Y-108332380D02*
X97640238Y-107332380D01*
X97545000Y-107475238D01*
X97449761Y-107570476D01*
X97354523Y-107618095D01*
X98545000Y-107332380D02*
X98640238Y-107332380D01*
X98735476Y-107380000D01*
X98783095Y-107427619D01*
X98830714Y-107522857D01*
X98878333Y-107713333D01*
X98878333Y-107951428D01*
X98830714Y-108141904D01*
X98783095Y-108237142D01*
X98735476Y-108284761D01*
X98640238Y-108332380D01*
X98545000Y-108332380D01*
X98449761Y-108284761D01*
X98402142Y-108237142D01*
X98354523Y-108141904D01*
X98306904Y-107951428D01*
X98306904Y-107713333D01*
X98354523Y-107522857D01*
X98402142Y-107427619D01*
X98449761Y-107380000D01*
X98545000Y-107332380D01*
X99497380Y-107332380D02*
X99592619Y-107332380D01*
X99687857Y-107380000D01*
X99735476Y-107427619D01*
X99783095Y-107522857D01*
X99830714Y-107713333D01*
X99830714Y-107951428D01*
X99783095Y-108141904D01*
X99735476Y-108237142D01*
X99687857Y-108284761D01*
X99592619Y-108332380D01*
X99497380Y-108332380D01*
X99402142Y-108284761D01*
X99354523Y-108237142D01*
X99306904Y-108141904D01*
X99259285Y-107951428D01*
X99259285Y-107713333D01*
X99306904Y-107522857D01*
X99354523Y-107427619D01*
X99402142Y-107380000D01*
X99497380Y-107332380D01*
X100259285Y-107665714D02*
X100259285Y-108332380D01*
X100259285Y-107760952D02*
X100306904Y-107713333D01*
X100402142Y-107665714D01*
X100545000Y-107665714D01*
X100640238Y-107713333D01*
X100687857Y-107808571D01*
X100687857Y-108332380D01*
X98878333Y-110737142D02*
X98830714Y-110784761D01*
X98687857Y-110832380D01*
X98592619Y-110832380D01*
X98449761Y-110784761D01*
X98354523Y-110689523D01*
X98306904Y-110594285D01*
X98259285Y-110403809D01*
X98259285Y-110260952D01*
X98306904Y-110070476D01*
X98354523Y-109975238D01*
X98449761Y-109880000D01*
X98592619Y-109832380D01*
X98687857Y-109832380D01*
X98830714Y-109880000D01*
X98878333Y-109927619D01*
X99783095Y-109832380D02*
X99306904Y-109832380D01*
X99259285Y-110308571D01*
X99306904Y-110260952D01*
X99402142Y-110213333D01*
X99640238Y-110213333D01*
X99735476Y-110260952D01*
X99783095Y-110308571D01*
X99830714Y-110403809D01*
X99830714Y-110641904D01*
X99783095Y-110737142D01*
X99735476Y-110784761D01*
X99640238Y-110832380D01*
X99402142Y-110832380D01*
X99306904Y-110784761D01*
X99259285Y-110737142D01*
X120615380Y-74087895D02*
X120615380Y-73468847D01*
X120996333Y-73802180D01*
X120996333Y-73659323D01*
X121043952Y-73564085D01*
X121091571Y-73516466D01*
X121186809Y-73468847D01*
X121424904Y-73468847D01*
X121520142Y-73516466D01*
X121567761Y-73564085D01*
X121615380Y-73659323D01*
X121615380Y-73945038D01*
X121567761Y-74040276D01*
X121520142Y-74087895D01*
X120615380Y-73183133D02*
X121615380Y-72849800D01*
X120615380Y-72516466D01*
X120615380Y-71754561D02*
X120615380Y-71945038D01*
X120663000Y-72040276D01*
X120710619Y-72087895D01*
X120853476Y-72183133D01*
X121043952Y-72230752D01*
X121424904Y-72230752D01*
X121520142Y-72183133D01*
X121567761Y-72135514D01*
X121615380Y-72040276D01*
X121615380Y-71849800D01*
X121567761Y-71754561D01*
X121520142Y-71706942D01*
X121424904Y-71659323D01*
X121186809Y-71659323D01*
X121091571Y-71706942D01*
X121043952Y-71754561D01*
X120996333Y-71849800D01*
X120996333Y-72040276D01*
X121043952Y-72135514D01*
X121091571Y-72183133D01*
X121186809Y-72230752D01*
X117695380Y-76921704D02*
X116695380Y-76921704D01*
X117695380Y-76350276D02*
X117123952Y-76778847D01*
X116695380Y-76350276D02*
X117266809Y-76921704D01*
D12*
X119404904Y-73140276D02*
X118604904Y-73140276D01*
X118604904Y-72949800D01*
X118643000Y-72835514D01*
X118719190Y-72759323D01*
X118795380Y-72721228D01*
X118947761Y-72683133D01*
X119062047Y-72683133D01*
X119214428Y-72721228D01*
X119290619Y-72759323D01*
X119366809Y-72835514D01*
X119404904Y-72949800D01*
X119404904Y-73140276D01*
X119404904Y-71921228D02*
X119404904Y-72378371D01*
X119404904Y-72149800D02*
X118604904Y-72149800D01*
X118719190Y-72225990D01*
X118795380Y-72302180D01*
X118833476Y-72378371D01*
D11*
X126135380Y-74087895D02*
X126135380Y-73468847D01*
X126516333Y-73802180D01*
X126516333Y-73659323D01*
X126563952Y-73564085D01*
X126611571Y-73516466D01*
X126706809Y-73468847D01*
X126944904Y-73468847D01*
X127040142Y-73516466D01*
X127087761Y-73564085D01*
X127135380Y-73659323D01*
X127135380Y-73945038D01*
X127087761Y-74040276D01*
X127040142Y-74087895D01*
X126135380Y-73183133D02*
X127135380Y-72849800D01*
X126135380Y-72516466D01*
X126135380Y-71754561D02*
X126135380Y-71945038D01*
X126183000Y-72040276D01*
X126230619Y-72087895D01*
X126373476Y-72183133D01*
X126563952Y-72230752D01*
X126944904Y-72230752D01*
X127040142Y-72183133D01*
X127087761Y-72135514D01*
X127135380Y-72040276D01*
X127135380Y-71849800D01*
X127087761Y-71754561D01*
X127040142Y-71706942D01*
X126944904Y-71659323D01*
X126706809Y-71659323D01*
X126611571Y-71706942D01*
X126563952Y-71754561D01*
X126516333Y-71849800D01*
X126516333Y-72040276D01*
X126563952Y-72135514D01*
X126611571Y-72183133D01*
X126706809Y-72230752D01*
D12*
X123972523Y-72911704D02*
X123972523Y-72111704D01*
X124163000Y-72111704D01*
X124277285Y-72149800D01*
X124353476Y-72225990D01*
X124391571Y-72302180D01*
X124429666Y-72454561D01*
X124429666Y-72568847D01*
X124391571Y-72721228D01*
X124353476Y-72797419D01*
X124277285Y-72873609D01*
X124163000Y-72911704D01*
X123972523Y-72911704D01*
X124734428Y-72187895D02*
X124772523Y-72149800D01*
X124848714Y-72111704D01*
X125039190Y-72111704D01*
X125115380Y-72149800D01*
X125153476Y-72187895D01*
X125191571Y-72264085D01*
X125191571Y-72340276D01*
X125153476Y-72454561D01*
X124696333Y-72911704D01*
X125191571Y-72911704D01*
D11*
X123215380Y-76921704D02*
X122215380Y-76921704D01*
X123215380Y-76350276D02*
X122643952Y-76778847D01*
X122215380Y-76350276D02*
X122786809Y-76921704D01*
X79884180Y-82442880D02*
X79217514Y-82442880D01*
X79407990Y-82442880D02*
X79312752Y-82395261D01*
X79265133Y-82347642D01*
X79217514Y-82252404D01*
X79217514Y-82157166D01*
X79836561Y-81442880D02*
X79884180Y-81538119D01*
X79884180Y-81728595D01*
X79836561Y-81823833D01*
X79741323Y-81871452D01*
X79360371Y-81871452D01*
X79265133Y-81823833D01*
X79217514Y-81728595D01*
X79217514Y-81538119D01*
X79265133Y-81442880D01*
X79360371Y-81395261D01*
X79455609Y-81395261D01*
X79550847Y-81871452D01*
X79884180Y-80538119D02*
X78884180Y-80538119D01*
X79836561Y-80538119D02*
X79884180Y-80633357D01*
X79884180Y-80823833D01*
X79836561Y-80919071D01*
X79788942Y-80966690D01*
X79693704Y-81014309D01*
X79407990Y-81014309D01*
X79312752Y-80966690D01*
X79265133Y-80919071D01*
X79217514Y-80823833D01*
X79217514Y-80633357D01*
X79265133Y-80538119D01*
X86345514Y-82895261D02*
X87155038Y-82895261D01*
X87250276Y-82942880D01*
X87297895Y-82990500D01*
X87345514Y-83085738D01*
X87345514Y-83228595D01*
X87297895Y-83323833D01*
X86964561Y-82895261D02*
X87012180Y-82990500D01*
X87012180Y-83180976D01*
X86964561Y-83276214D01*
X86916942Y-83323833D01*
X86821704Y-83371452D01*
X86535990Y-83371452D01*
X86440752Y-83323833D01*
X86393133Y-83276214D01*
X86345514Y-83180976D01*
X86345514Y-82990500D01*
X86393133Y-82895261D01*
X87012180Y-82419071D02*
X86345514Y-82419071D01*
X86535990Y-82419071D02*
X86440752Y-82371452D01*
X86393133Y-82323833D01*
X86345514Y-82228595D01*
X86345514Y-82133357D01*
X86964561Y-81419071D02*
X87012180Y-81514309D01*
X87012180Y-81704785D01*
X86964561Y-81800023D01*
X86869323Y-81847642D01*
X86488371Y-81847642D01*
X86393133Y-81800023D01*
X86345514Y-81704785D01*
X86345514Y-81514309D01*
X86393133Y-81419071D01*
X86488371Y-81371452D01*
X86583609Y-81371452D01*
X86678847Y-81847642D01*
X86964561Y-80561928D02*
X87012180Y-80657166D01*
X87012180Y-80847642D01*
X86964561Y-80942880D01*
X86869323Y-80990500D01*
X86488371Y-80990500D01*
X86393133Y-80942880D01*
X86345514Y-80847642D01*
X86345514Y-80657166D01*
X86393133Y-80561928D01*
X86488371Y-80514309D01*
X86583609Y-80514309D01*
X86678847Y-80990500D01*
X86345514Y-80085738D02*
X87012180Y-80085738D01*
X86440752Y-80085738D02*
X86393133Y-80038119D01*
X86345514Y-79942880D01*
X86345514Y-79800023D01*
X86393133Y-79704785D01*
X86488371Y-79657166D01*
X87012180Y-79657166D01*
X107610142Y-112702380D02*
X107038714Y-112702380D01*
X107324428Y-112702380D02*
X107324428Y-111702380D01*
X107229190Y-111845238D01*
X107133952Y-111940476D01*
X107038714Y-111988095D01*
X108038714Y-112702380D02*
X108038714Y-111702380D01*
X108610142Y-112702380D01*
X108610142Y-111702380D01*
X109514904Y-112035714D02*
X109514904Y-112702380D01*
X109276809Y-111654761D02*
X109038714Y-112369047D01*
X109657761Y-112369047D01*
X110562523Y-112702380D02*
X109991095Y-112702380D01*
X110276809Y-112702380D02*
X110276809Y-111702380D01*
X110181571Y-111845238D01*
X110086333Y-111940476D01*
X109991095Y-111988095D01*
X111419666Y-112035714D02*
X111419666Y-112702380D01*
X111181571Y-111654761D02*
X110943476Y-112369047D01*
X111562523Y-112369047D01*
X112086333Y-112130952D02*
X111991095Y-112083333D01*
X111943476Y-112035714D01*
X111895857Y-111940476D01*
X111895857Y-111892857D01*
X111943476Y-111797619D01*
X111991095Y-111750000D01*
X112086333Y-111702380D01*
X112276809Y-111702380D01*
X112372047Y-111750000D01*
X112419666Y-111797619D01*
X112467285Y-111892857D01*
X112467285Y-111940476D01*
X112419666Y-112035714D01*
X112372047Y-112083333D01*
X112276809Y-112130952D01*
X112086333Y-112130952D01*
X111991095Y-112178571D01*
X111943476Y-112226190D01*
X111895857Y-112321428D01*
X111895857Y-112511904D01*
X111943476Y-112607142D01*
X111991095Y-112654761D01*
X112086333Y-112702380D01*
X112276809Y-112702380D01*
X112372047Y-112654761D01*
X112419666Y-112607142D01*
X112467285Y-112511904D01*
X112467285Y-112321428D01*
X112419666Y-112226190D01*
X112372047Y-112178571D01*
X112276809Y-112130952D01*
D12*
X109462523Y-110491904D02*
X109462523Y-109691904D01*
X109653000Y-109691904D01*
X109767285Y-109730000D01*
X109843476Y-109806190D01*
X109881571Y-109882380D01*
X109919666Y-110034761D01*
X109919666Y-110149047D01*
X109881571Y-110301428D01*
X109843476Y-110377619D01*
X109767285Y-110453809D01*
X109653000Y-110491904D01*
X109462523Y-110491904D01*
X110643476Y-109691904D02*
X110262523Y-109691904D01*
X110224428Y-110072857D01*
X110262523Y-110034761D01*
X110338714Y-109996666D01*
X110529190Y-109996666D01*
X110605380Y-110034761D01*
X110643476Y-110072857D01*
X110681571Y-110149047D01*
X110681571Y-110339523D01*
X110643476Y-110415714D01*
X110605380Y-110453809D01*
X110529190Y-110491904D01*
X110338714Y-110491904D01*
X110262523Y-110453809D01*
X110224428Y-110415714D01*
D11*
X105681095Y-108782380D02*
X105681095Y-107782380D01*
X106252523Y-108782380D02*
X105823952Y-108210952D01*
X106252523Y-107782380D02*
X105681095Y-108353809D01*
X71877609Y-110697380D02*
X72449038Y-110697380D01*
X72163323Y-111697380D02*
X72163323Y-110697380D01*
X72687133Y-111697380D02*
X73210942Y-111030714D01*
X72687133Y-111030714D02*
X73210942Y-111697380D01*
X73591895Y-111697380D02*
X73591895Y-110697380D01*
X73829990Y-110697380D01*
X73972847Y-110745000D01*
X74068085Y-110840238D01*
X74115704Y-110935476D01*
X74163323Y-111125952D01*
X74163323Y-111268809D01*
X74115704Y-111459285D01*
X74068085Y-111554523D01*
X73972847Y-111649761D01*
X73829990Y-111697380D01*
X73591895Y-111697380D01*
X75925228Y-111697380D02*
X75591895Y-111221190D01*
X75353800Y-111697380D02*
X75353800Y-110697380D01*
X75734752Y-110697380D01*
X75829990Y-110745000D01*
X75877609Y-110792619D01*
X75925228Y-110887857D01*
X75925228Y-111030714D01*
X75877609Y-111125952D01*
X75829990Y-111173571D01*
X75734752Y-111221190D01*
X75353800Y-111221190D01*
X76258561Y-111697380D02*
X76782371Y-111030714D01*
X76258561Y-111030714D02*
X76782371Y-111697380D01*
X77163323Y-111697380D02*
X77163323Y-110697380D01*
X77401419Y-110697380D01*
X77544276Y-110745000D01*
X77639514Y-110840238D01*
X77687133Y-110935476D01*
X77734752Y-111125952D01*
X77734752Y-111268809D01*
X77687133Y-111459285D01*
X77639514Y-111554523D01*
X77544276Y-111649761D01*
X77401419Y-111697380D01*
X77163323Y-111697380D01*
X75401419Y-107311666D02*
X74687133Y-107311666D01*
X74544276Y-107264047D01*
X74449038Y-107168809D01*
X74401419Y-107025952D01*
X74401419Y-106930714D01*
X75306180Y-107740238D02*
X75353800Y-107787857D01*
X75401419Y-107883095D01*
X75401419Y-108121190D01*
X75353800Y-108216428D01*
X75306180Y-108264047D01*
X75210942Y-108311666D01*
X75115704Y-108311666D01*
X74972847Y-108264047D01*
X74401419Y-107692619D01*
X74401419Y-108311666D01*
X59246071Y-98731366D02*
X59722261Y-98731366D01*
X59150833Y-99017080D02*
X59484166Y-98017080D01*
X59817500Y-99017080D01*
X60007976Y-98017080D02*
X60341309Y-99017080D01*
X60674642Y-98017080D01*
X61579404Y-99017080D02*
X61246071Y-98540890D01*
X61007976Y-99017080D02*
X61007976Y-98017080D01*
X61388928Y-98017080D01*
X61484166Y-98064700D01*
X61531785Y-98112319D01*
X61579404Y-98207557D01*
X61579404Y-98350414D01*
X61531785Y-98445652D01*
X61484166Y-98493271D01*
X61388928Y-98540890D01*
X61007976Y-98540890D01*
X62007976Y-98636128D02*
X62769880Y-98636128D01*
X63246071Y-99017080D02*
X63246071Y-98017080D01*
X63674642Y-98969461D02*
X63817500Y-99017080D01*
X64055595Y-99017080D01*
X64150833Y-98969461D01*
X64198452Y-98921842D01*
X64246071Y-98826604D01*
X64246071Y-98731366D01*
X64198452Y-98636128D01*
X64150833Y-98588509D01*
X64055595Y-98540890D01*
X63865119Y-98493271D01*
X63769880Y-98445652D01*
X63722261Y-98398033D01*
X63674642Y-98302795D01*
X63674642Y-98207557D01*
X63722261Y-98112319D01*
X63769880Y-98064700D01*
X63865119Y-98017080D01*
X64103214Y-98017080D01*
X64246071Y-98064700D01*
X64674642Y-99017080D02*
X64674642Y-98017080D01*
X65055595Y-98017080D01*
X65150833Y-98064700D01*
X65198452Y-98112319D01*
X65246071Y-98207557D01*
X65246071Y-98350414D01*
X65198452Y-98445652D01*
X65150833Y-98493271D01*
X65055595Y-98540890D01*
X64674642Y-98540890D01*
X65674642Y-98636128D02*
X66436547Y-98636128D01*
X67436547Y-99017080D02*
X66865119Y-99017080D01*
X67150833Y-99017080D02*
X67150833Y-98017080D01*
X67055595Y-98159938D01*
X66960357Y-98255176D01*
X66865119Y-98302795D01*
X68055595Y-98017080D02*
X68150833Y-98017080D01*
X68246071Y-98064700D01*
X68293690Y-98112319D01*
X68341309Y-98207557D01*
X68388928Y-98398033D01*
X68388928Y-98636128D01*
X68341309Y-98826604D01*
X68293690Y-98921842D01*
X68246071Y-98969461D01*
X68150833Y-99017080D01*
X68055595Y-99017080D01*
X67960357Y-98969461D01*
X67912738Y-98921842D01*
X67865119Y-98826604D01*
X67817500Y-98636128D01*
X67817500Y-98398033D01*
X67865119Y-98207557D01*
X67912738Y-98112319D01*
X67960357Y-98064700D01*
X68055595Y-98017080D01*
X63484166Y-86333080D02*
X63484166Y-87047366D01*
X63436547Y-87190223D01*
X63341309Y-87285461D01*
X63198452Y-87333080D01*
X63103214Y-87333080D01*
X63865119Y-86333080D02*
X64484166Y-86333080D01*
X64150833Y-86714033D01*
X64293690Y-86714033D01*
X64388928Y-86761652D01*
X64436547Y-86809271D01*
X64484166Y-86904509D01*
X64484166Y-87142604D01*
X64436547Y-87237842D01*
X64388928Y-87285461D01*
X64293690Y-87333080D01*
X64007976Y-87333080D01*
X63912738Y-87285461D01*
X63865119Y-87237842D01*
X71051581Y-101441423D02*
X71099200Y-101346185D01*
X71099200Y-101155709D01*
X71051581Y-101060471D01*
X70956343Y-101012852D01*
X70908724Y-101012852D01*
X70813486Y-101060471D01*
X70765867Y-101155709D01*
X70765867Y-101298566D01*
X70718248Y-101393804D01*
X70623010Y-101441423D01*
X70575391Y-101441423D01*
X70480153Y-101393804D01*
X70432534Y-101298566D01*
X70432534Y-101155709D01*
X70480153Y-101060471D01*
X70432534Y-100155709D02*
X71099200Y-100155709D01*
X70432534Y-100584280D02*
X70956343Y-100584280D01*
X71051581Y-100536661D01*
X71099200Y-100441423D01*
X71099200Y-100298566D01*
X71051581Y-100203328D01*
X71003962Y-100155709D01*
X70432534Y-99679519D02*
X71432534Y-99679519D01*
X70480153Y-99679519D02*
X70432534Y-99584280D01*
X70432534Y-99393804D01*
X70480153Y-99298566D01*
X70527772Y-99250947D01*
X70623010Y-99203328D01*
X70908724Y-99203328D01*
X71003962Y-99250947D01*
X71051581Y-99298566D01*
X71099200Y-99393804D01*
X71099200Y-99584280D01*
X71051581Y-99679519D01*
X70432534Y-98774757D02*
X71432534Y-98774757D01*
X70480153Y-98774757D02*
X70432534Y-98679519D01*
X70432534Y-98489042D01*
X70480153Y-98393804D01*
X70527772Y-98346185D01*
X70623010Y-98298566D01*
X70908724Y-98298566D01*
X71003962Y-98346185D01*
X71051581Y-98393804D01*
X71099200Y-98489042D01*
X71099200Y-98679519D01*
X71051581Y-98774757D01*
X71099200Y-97727138D02*
X71051581Y-97822376D01*
X70956343Y-97869995D01*
X70099200Y-97869995D01*
X70432534Y-97441423D02*
X71099200Y-97203328D01*
X70432534Y-96965233D02*
X71099200Y-97203328D01*
X71337296Y-97298566D01*
X71384915Y-97346185D01*
X71432534Y-97441423D01*
X70432534Y-95965233D02*
X70432534Y-95584280D01*
X70099200Y-95822376D02*
X70956343Y-95822376D01*
X71051581Y-95774757D01*
X71099200Y-95679519D01*
X71099200Y-95584280D01*
X71099200Y-94822376D02*
X70575391Y-94822376D01*
X70480153Y-94869995D01*
X70432534Y-94965233D01*
X70432534Y-95155709D01*
X70480153Y-95250947D01*
X71051581Y-94822376D02*
X71099200Y-94917614D01*
X71099200Y-95155709D01*
X71051581Y-95250947D01*
X70956343Y-95298566D01*
X70861105Y-95298566D01*
X70765867Y-95250947D01*
X70718248Y-95155709D01*
X70718248Y-94917614D01*
X70670629Y-94822376D01*
X71099200Y-94346185D02*
X70432534Y-94346185D01*
X70623010Y-94346185D02*
X70527772Y-94298566D01*
X70480153Y-94250947D01*
X70432534Y-94155709D01*
X70432534Y-94060471D01*
X70432534Y-93298566D02*
X71242058Y-93298566D01*
X71337296Y-93346185D01*
X71384915Y-93393804D01*
X71432534Y-93489042D01*
X71432534Y-93631900D01*
X71384915Y-93727138D01*
X71051581Y-93298566D02*
X71099200Y-93393804D01*
X71099200Y-93584280D01*
X71051581Y-93679519D01*
X71003962Y-93727138D01*
X70908724Y-93774757D01*
X70623010Y-93774757D01*
X70527772Y-93727138D01*
X70480153Y-93679519D01*
X70432534Y-93584280D01*
X70432534Y-93393804D01*
X70480153Y-93298566D01*
X71051581Y-92441423D02*
X71099200Y-92536661D01*
X71099200Y-92727138D01*
X71051581Y-92822376D01*
X70956343Y-92869995D01*
X70575391Y-92869995D01*
X70480153Y-92822376D01*
X70432534Y-92727138D01*
X70432534Y-92536661D01*
X70480153Y-92441423D01*
X70575391Y-92393804D01*
X70670629Y-92393804D01*
X70765867Y-92869995D01*
X70432534Y-92108090D02*
X70432534Y-91727138D01*
X70099200Y-91965233D02*
X70956343Y-91965233D01*
X71051581Y-91917614D01*
X71099200Y-91822376D01*
X71099200Y-91727138D01*
X72847480Y-98049433D02*
X73561766Y-98049433D01*
X73704623Y-98097052D01*
X73799861Y-98192290D01*
X73847480Y-98335147D01*
X73847480Y-98430385D01*
X73847480Y-97573242D02*
X72847480Y-97573242D01*
X72847480Y-97192290D01*
X72895100Y-97097052D01*
X72942719Y-97049433D01*
X73037957Y-97001814D01*
X73180814Y-97001814D01*
X73276052Y-97049433D01*
X73323671Y-97097052D01*
X73371290Y-97192290D01*
X73371290Y-97573242D01*
X73847480Y-96049433D02*
X73847480Y-96620861D01*
X73847480Y-96335147D02*
X72847480Y-96335147D01*
X72990338Y-96430385D01*
X73085576Y-96525623D01*
X73133195Y-96620861D01*
X85438841Y-100982663D02*
X85486460Y-100887425D01*
X85486460Y-100696949D01*
X85438841Y-100601711D01*
X85343603Y-100554092D01*
X85295984Y-100554092D01*
X85200746Y-100601711D01*
X85153127Y-100696949D01*
X85153127Y-100839806D01*
X85105508Y-100935044D01*
X85010270Y-100982663D01*
X84962651Y-100982663D01*
X84867413Y-100935044D01*
X84819794Y-100839806D01*
X84819794Y-100696949D01*
X84867413Y-100601711D01*
X85486460Y-99982663D02*
X85438841Y-100077901D01*
X85343603Y-100125520D01*
X84486460Y-100125520D01*
X85486460Y-99458854D02*
X85438841Y-99554092D01*
X85391222Y-99601711D01*
X85295984Y-99649330D01*
X85010270Y-99649330D01*
X84915032Y-99601711D01*
X84867413Y-99554092D01*
X84819794Y-99458854D01*
X84819794Y-99315997D01*
X84867413Y-99220759D01*
X84915032Y-99173140D01*
X85010270Y-99125520D01*
X85295984Y-99125520D01*
X85391222Y-99173140D01*
X85438841Y-99220759D01*
X85486460Y-99315997D01*
X85486460Y-99458854D01*
X84819794Y-98792187D02*
X85486460Y-98601711D01*
X85010270Y-98411235D01*
X85486460Y-98220759D01*
X84819794Y-98030282D01*
X85438841Y-96935044D02*
X85486460Y-96792187D01*
X85486460Y-96554092D01*
X85438841Y-96458854D01*
X85391222Y-96411235D01*
X85295984Y-96363616D01*
X85200746Y-96363616D01*
X85105508Y-96411235D01*
X85057889Y-96458854D01*
X85010270Y-96554092D01*
X84962651Y-96744568D01*
X84915032Y-96839806D01*
X84867413Y-96887425D01*
X84772175Y-96935044D01*
X84676937Y-96935044D01*
X84581699Y-96887425D01*
X84534080Y-96839806D01*
X84486460Y-96744568D01*
X84486460Y-96506473D01*
X84534080Y-96363616D01*
X85391222Y-95363616D02*
X85438841Y-95411235D01*
X85486460Y-95554092D01*
X85486460Y-95649330D01*
X85438841Y-95792187D01*
X85343603Y-95887425D01*
X85248365Y-95935044D01*
X85057889Y-95982663D01*
X84915032Y-95982663D01*
X84724556Y-95935044D01*
X84629318Y-95887425D01*
X84534080Y-95792187D01*
X84486460Y-95649330D01*
X84486460Y-95554092D01*
X84534080Y-95411235D01*
X84581699Y-95363616D01*
X85486460Y-94935044D02*
X84486460Y-94935044D01*
X85486460Y-94363616D02*
X84915032Y-94792187D01*
X84486460Y-94363616D02*
X85057889Y-94935044D01*
X87783380Y-98059433D02*
X88497666Y-98059433D01*
X88640523Y-98107052D01*
X88735761Y-98202290D01*
X88783380Y-98345147D01*
X88783380Y-98440385D01*
X88783380Y-97583242D02*
X87783380Y-97583242D01*
X87783380Y-97202290D01*
X87831000Y-97107052D01*
X87878619Y-97059433D01*
X87973857Y-97011814D01*
X88116714Y-97011814D01*
X88211952Y-97059433D01*
X88259571Y-97107052D01*
X88307190Y-97202290D01*
X88307190Y-97583242D01*
X87878619Y-96630861D02*
X87831000Y-96583242D01*
X87783380Y-96488004D01*
X87783380Y-96249909D01*
X87831000Y-96154671D01*
X87878619Y-96107052D01*
X87973857Y-96059433D01*
X88069095Y-96059433D01*
X88211952Y-96107052D01*
X88783380Y-96678480D01*
X88783380Y-96059433D01*
X78171781Y-103875010D02*
X78219400Y-103779772D01*
X78219400Y-103589296D01*
X78171781Y-103494058D01*
X78076543Y-103446439D01*
X78028924Y-103446439D01*
X77933686Y-103494058D01*
X77886067Y-103589296D01*
X77886067Y-103732153D01*
X77838448Y-103827391D01*
X77743210Y-103875010D01*
X77695591Y-103875010D01*
X77600353Y-103827391D01*
X77552734Y-103732153D01*
X77552734Y-103589296D01*
X77600353Y-103494058D01*
X78171781Y-102636915D02*
X78219400Y-102732153D01*
X78219400Y-102922629D01*
X78171781Y-103017867D01*
X78076543Y-103065486D01*
X77695591Y-103065486D01*
X77600353Y-103017867D01*
X77552734Y-102922629D01*
X77552734Y-102732153D01*
X77600353Y-102636915D01*
X77695591Y-102589296D01*
X77790829Y-102589296D01*
X77886067Y-103065486D01*
X78219400Y-102017867D02*
X78171781Y-102113105D01*
X78076543Y-102160724D01*
X77219400Y-102160724D01*
X77552734Y-101779772D02*
X77552734Y-101398820D01*
X78219400Y-101636915D02*
X77362258Y-101636915D01*
X77267020Y-101589296D01*
X77219400Y-101494058D01*
X77219400Y-101398820D01*
X77552734Y-100303581D02*
X78552734Y-100303581D01*
X77600353Y-100303581D02*
X77552734Y-100208343D01*
X77552734Y-100017867D01*
X77600353Y-99922629D01*
X77647972Y-99875010D01*
X77743210Y-99827391D01*
X78028924Y-99827391D01*
X78124162Y-99875010D01*
X78171781Y-99922629D01*
X78219400Y-100017867D01*
X78219400Y-100208343D01*
X78171781Y-100303581D01*
X78219400Y-99398820D02*
X77552734Y-99398820D01*
X77743210Y-99398820D02*
X77647972Y-99351200D01*
X77600353Y-99303581D01*
X77552734Y-99208343D01*
X77552734Y-99113105D01*
X78219400Y-98636915D02*
X78171781Y-98732153D01*
X78124162Y-98779772D01*
X78028924Y-98827391D01*
X77743210Y-98827391D01*
X77647972Y-98779772D01*
X77600353Y-98732153D01*
X77552734Y-98636915D01*
X77552734Y-98494058D01*
X77600353Y-98398820D01*
X77647972Y-98351200D01*
X77743210Y-98303581D01*
X78028924Y-98303581D01*
X78124162Y-98351200D01*
X78171781Y-98398820D01*
X78219400Y-98494058D01*
X78219400Y-98636915D01*
X77552734Y-97446439D02*
X78362258Y-97446439D01*
X78457496Y-97494058D01*
X78505115Y-97541677D01*
X78552734Y-97636915D01*
X78552734Y-97779772D01*
X78505115Y-97875010D01*
X78171781Y-97446439D02*
X78219400Y-97541677D01*
X78219400Y-97732153D01*
X78171781Y-97827391D01*
X78124162Y-97875010D01*
X78028924Y-97922629D01*
X77743210Y-97922629D01*
X77647972Y-97875010D01*
X77600353Y-97827391D01*
X77552734Y-97732153D01*
X77552734Y-97541677D01*
X77600353Y-97446439D01*
X78219400Y-96970248D02*
X77552734Y-96970248D01*
X77743210Y-96970248D02*
X77647972Y-96922629D01*
X77600353Y-96875010D01*
X77552734Y-96779772D01*
X77552734Y-96684534D01*
X78219400Y-95922629D02*
X77695591Y-95922629D01*
X77600353Y-95970248D01*
X77552734Y-96065486D01*
X77552734Y-96255962D01*
X77600353Y-96351200D01*
X78171781Y-95922629D02*
X78219400Y-96017867D01*
X78219400Y-96255962D01*
X78171781Y-96351200D01*
X78076543Y-96398820D01*
X77981305Y-96398820D01*
X77886067Y-96351200D01*
X77838448Y-96255962D01*
X77838448Y-96017867D01*
X77790829Y-95922629D01*
X78219400Y-95446439D02*
X77552734Y-95446439D01*
X77647972Y-95446439D02*
X77600353Y-95398820D01*
X77552734Y-95303581D01*
X77552734Y-95160724D01*
X77600353Y-95065486D01*
X77695591Y-95017867D01*
X78219400Y-95017867D01*
X77695591Y-95017867D02*
X77600353Y-94970248D01*
X77552734Y-94875010D01*
X77552734Y-94732153D01*
X77600353Y-94636915D01*
X77695591Y-94589296D01*
X78219400Y-94589296D01*
X78219400Y-94113105D02*
X77552734Y-94113105D01*
X77647972Y-94113105D02*
X77600353Y-94065486D01*
X77552734Y-93970248D01*
X77552734Y-93827391D01*
X77600353Y-93732153D01*
X77695591Y-93684534D01*
X78219400Y-93684534D01*
X77695591Y-93684534D02*
X77600353Y-93636915D01*
X77552734Y-93541677D01*
X77552734Y-93398820D01*
X77600353Y-93303581D01*
X77695591Y-93255962D01*
X78219400Y-93255962D01*
X78219400Y-92779772D02*
X77552734Y-92779772D01*
X77219400Y-92779772D02*
X77267020Y-92827391D01*
X77314639Y-92779772D01*
X77267020Y-92732153D01*
X77219400Y-92779772D01*
X77314639Y-92779772D01*
X77552734Y-92303581D02*
X78219400Y-92303581D01*
X77647972Y-92303581D02*
X77600353Y-92255962D01*
X77552734Y-92160724D01*
X77552734Y-92017867D01*
X77600353Y-91922629D01*
X77695591Y-91875010D01*
X78219400Y-91875010D01*
X77552734Y-90970248D02*
X78362258Y-90970248D01*
X78457496Y-91017867D01*
X78505115Y-91065486D01*
X78552734Y-91160724D01*
X78552734Y-91303581D01*
X78505115Y-91398820D01*
X78171781Y-90970248D02*
X78219400Y-91065486D01*
X78219400Y-91255962D01*
X78171781Y-91351200D01*
X78124162Y-91398820D01*
X78028924Y-91446439D01*
X77743210Y-91446439D01*
X77647972Y-91398820D01*
X77600353Y-91351200D01*
X77552734Y-91255962D01*
X77552734Y-91065486D01*
X77600353Y-90970248D01*
X80315480Y-98059433D02*
X81029766Y-98059433D01*
X81172623Y-98107052D01*
X81267861Y-98202290D01*
X81315480Y-98345147D01*
X81315480Y-98440385D01*
X81315480Y-97583242D02*
X80315480Y-97583242D01*
X80315480Y-97202290D01*
X80363100Y-97107052D01*
X80410719Y-97059433D01*
X80505957Y-97011814D01*
X80648814Y-97011814D01*
X80744052Y-97059433D01*
X80791671Y-97107052D01*
X80839290Y-97202290D01*
X80839290Y-97583242D01*
X80315480Y-96678480D02*
X80315480Y-96059433D01*
X80696433Y-96392766D01*
X80696433Y-96249909D01*
X80744052Y-96154671D01*
X80791671Y-96107052D01*
X80886909Y-96059433D01*
X81125004Y-96059433D01*
X81220242Y-96107052D01*
X81267861Y-96154671D01*
X81315480Y-96249909D01*
X81315480Y-96535623D01*
X81267861Y-96630861D01*
X81220242Y-96678480D01*
X87980923Y-112535714D02*
X87980923Y-113202380D01*
X87742828Y-112154761D02*
X87504733Y-112869047D01*
X88123780Y-112869047D01*
X88504733Y-113202380D02*
X88504733Y-112202380D01*
X88599971Y-112821428D02*
X88885685Y-113202380D01*
X88885685Y-112535714D02*
X88504733Y-112916666D01*
X89219019Y-112202380D02*
X89885685Y-112202380D01*
X89457114Y-113202380D01*
X88504733Y-110832380D02*
X88171400Y-110356190D01*
X87933304Y-110832380D02*
X87933304Y-109832380D01*
X88314257Y-109832380D01*
X88409495Y-109880000D01*
X88457114Y-109927619D01*
X88504733Y-110022857D01*
X88504733Y-110165714D01*
X88457114Y-110260952D01*
X88409495Y-110308571D01*
X88314257Y-110356190D01*
X87933304Y-110356190D01*
X89457114Y-110832380D02*
X88885685Y-110832380D01*
X89171400Y-110832380D02*
X89171400Y-109832380D01*
X89076161Y-109975238D01*
X88980923Y-110070476D01*
X88885685Y-110118095D01*
X109169619Y-74016466D02*
X109122000Y-73968847D01*
X109074380Y-73873609D01*
X109074380Y-73635514D01*
X109122000Y-73540276D01*
X109169619Y-73492657D01*
X109264857Y-73445038D01*
X109360095Y-73445038D01*
X109502952Y-73492657D01*
X110074380Y-74064085D01*
X110074380Y-73445038D01*
X110074380Y-73016466D02*
X109074380Y-73016466D01*
X109693428Y-72921228D02*
X110074380Y-72635514D01*
X109407714Y-72635514D02*
X109788666Y-73016466D01*
X109169619Y-72254561D02*
X109122000Y-72206942D01*
X109074380Y-72111704D01*
X109074380Y-71873609D01*
X109122000Y-71778371D01*
X109169619Y-71730752D01*
X109264857Y-71683133D01*
X109360095Y-71683133D01*
X109502952Y-71730752D01*
X110074380Y-72302180D01*
X110074380Y-71683133D01*
X107704380Y-73016466D02*
X107228190Y-73349800D01*
X107704380Y-73587895D02*
X106704380Y-73587895D01*
X106704380Y-73206942D01*
X106752000Y-73111704D01*
X106799619Y-73064085D01*
X106894857Y-73016466D01*
X107037714Y-73016466D01*
X107132952Y-73064085D01*
X107180571Y-73111704D01*
X107228190Y-73206942D01*
X107228190Y-73587895D01*
X106799619Y-72635514D02*
X106752000Y-72587895D01*
X106704380Y-72492657D01*
X106704380Y-72254561D01*
X106752000Y-72159323D01*
X106799619Y-72111704D01*
X106894857Y-72064085D01*
X106990095Y-72064085D01*
X107132952Y-72111704D01*
X107704380Y-72683133D01*
X107704380Y-72064085D01*
X120486285Y-83178580D02*
X120295809Y-83178580D01*
X120200571Y-83226200D01*
X120152952Y-83273819D01*
X120057714Y-83416676D01*
X120010095Y-83607152D01*
X120010095Y-83988104D01*
X120057714Y-84083342D01*
X120105333Y-84130961D01*
X120200571Y-84178580D01*
X120391047Y-84178580D01*
X120486285Y-84130961D01*
X120533904Y-84083342D01*
X120581523Y-83988104D01*
X120581523Y-83750009D01*
X120533904Y-83654771D01*
X120486285Y-83607152D01*
X120391047Y-83559533D01*
X120200571Y-83559533D01*
X120105333Y-83607152D01*
X120057714Y-83654771D01*
X120010095Y-83750009D01*
X121152952Y-83607152D02*
X121057714Y-83559533D01*
X121010095Y-83511914D01*
X120962476Y-83416676D01*
X120962476Y-83369057D01*
X121010095Y-83273819D01*
X121057714Y-83226200D01*
X121152952Y-83178580D01*
X121343428Y-83178580D01*
X121438666Y-83226200D01*
X121486285Y-83273819D01*
X121533904Y-83369057D01*
X121533904Y-83416676D01*
X121486285Y-83511914D01*
X121438666Y-83559533D01*
X121343428Y-83607152D01*
X121152952Y-83607152D01*
X121057714Y-83654771D01*
X121010095Y-83702390D01*
X120962476Y-83797628D01*
X120962476Y-83988104D01*
X121010095Y-84083342D01*
X121057714Y-84130961D01*
X121152952Y-84178580D01*
X121343428Y-84178580D01*
X121438666Y-84130961D01*
X121486285Y-84083342D01*
X121533904Y-83988104D01*
X121533904Y-83797628D01*
X121486285Y-83702390D01*
X121438666Y-83654771D01*
X121343428Y-83607152D01*
X120605333Y-81808580D02*
X120272000Y-81332390D01*
X120033904Y-81808580D02*
X120033904Y-80808580D01*
X120414857Y-80808580D01*
X120510095Y-80856200D01*
X120557714Y-80903819D01*
X120605333Y-80999057D01*
X120605333Y-81141914D01*
X120557714Y-81237152D01*
X120510095Y-81284771D01*
X120414857Y-81332390D01*
X120033904Y-81332390D01*
X120938666Y-80808580D02*
X121557714Y-80808580D01*
X121224380Y-81189533D01*
X121367238Y-81189533D01*
X121462476Y-81237152D01*
X121510095Y-81284771D01*
X121557714Y-81380009D01*
X121557714Y-81618104D01*
X121510095Y-81713342D01*
X121462476Y-81760961D01*
X121367238Y-81808580D01*
X121081523Y-81808580D01*
X120986285Y-81760961D01*
X120938666Y-81713342D01*
X110354380Y-73135514D02*
X110354380Y-73325990D01*
X110402000Y-73421228D01*
X110449619Y-73468847D01*
X110592476Y-73564085D01*
X110782952Y-73611704D01*
X111163904Y-73611704D01*
X111259142Y-73564085D01*
X111306761Y-73516466D01*
X111354380Y-73421228D01*
X111354380Y-73230752D01*
X111306761Y-73135514D01*
X111259142Y-73087895D01*
X111163904Y-73040276D01*
X110925809Y-73040276D01*
X110830571Y-73087895D01*
X110782952Y-73135514D01*
X110735333Y-73230752D01*
X110735333Y-73421228D01*
X110782952Y-73516466D01*
X110830571Y-73564085D01*
X110925809Y-73611704D01*
X110782952Y-72468847D02*
X110735333Y-72564085D01*
X110687714Y-72611704D01*
X110592476Y-72659323D01*
X110544857Y-72659323D01*
X110449619Y-72611704D01*
X110402000Y-72564085D01*
X110354380Y-72468847D01*
X110354380Y-72278371D01*
X110402000Y-72183133D01*
X110449619Y-72135514D01*
X110544857Y-72087895D01*
X110592476Y-72087895D01*
X110687714Y-72135514D01*
X110735333Y-72183133D01*
X110782952Y-72278371D01*
X110782952Y-72468847D01*
X110830571Y-72564085D01*
X110878190Y-72611704D01*
X110973428Y-72659323D01*
X111163904Y-72659323D01*
X111259142Y-72611704D01*
X111306761Y-72564085D01*
X111354380Y-72468847D01*
X111354380Y-72278371D01*
X111306761Y-72183133D01*
X111259142Y-72135514D01*
X111163904Y-72087895D01*
X110973428Y-72087895D01*
X110878190Y-72135514D01*
X110830571Y-72183133D01*
X110782952Y-72278371D01*
X113724380Y-73016466D02*
X113248190Y-73349800D01*
X113724380Y-73587895D02*
X112724380Y-73587895D01*
X112724380Y-73206942D01*
X112772000Y-73111704D01*
X112819619Y-73064085D01*
X112914857Y-73016466D01*
X113057714Y-73016466D01*
X113152952Y-73064085D01*
X113200571Y-73111704D01*
X113248190Y-73206942D01*
X113248190Y-73587895D01*
X113057714Y-72159323D02*
X113724380Y-72159323D01*
X112676761Y-72397419D02*
X113391047Y-72635514D01*
X113391047Y-72016466D01*
X74554180Y-72968847D02*
X74554180Y-73540276D01*
X74554180Y-73254561D02*
X73554180Y-73254561D01*
X73697038Y-73349800D01*
X73792276Y-73445038D01*
X73839895Y-73540276D01*
X74554180Y-72540276D02*
X73554180Y-72540276D01*
X74173228Y-72445038D02*
X74554180Y-72159323D01*
X73887514Y-72159323D02*
X74268466Y-72540276D01*
X76693000Y-73011406D02*
X76216810Y-73344740D01*
X76693000Y-73582835D02*
X75693000Y-73582835D01*
X75693000Y-73201882D01*
X75740620Y-73106644D01*
X75788239Y-73059025D01*
X75883477Y-73011406D01*
X76026334Y-73011406D01*
X76121572Y-73059025D01*
X76169191Y-73106644D01*
X76216810Y-73201882D01*
X76216810Y-73582835D01*
X75693000Y-72106644D02*
X75693000Y-72582835D01*
X76169191Y-72630454D01*
X76121572Y-72582835D01*
X76073953Y-72487597D01*
X76073953Y-72249501D01*
X76121572Y-72154263D01*
X76169191Y-72106644D01*
X76264429Y-72059025D01*
X76502524Y-72059025D01*
X76597762Y-72106644D01*
X76645381Y-72154263D01*
X76693000Y-72249501D01*
X76693000Y-72487597D01*
X76645381Y-72582835D01*
X76597762Y-72630454D01*
X81682180Y-72968847D02*
X81682180Y-73540276D01*
X81682180Y-73254561D02*
X80682180Y-73254561D01*
X80825038Y-73349800D01*
X80920276Y-73445038D01*
X80967895Y-73540276D01*
X81682180Y-72540276D02*
X80682180Y-72540276D01*
X81301228Y-72445038D02*
X81682180Y-72159323D01*
X81015514Y-72159323D02*
X81396466Y-72540276D01*
X84052180Y-73016466D02*
X83575990Y-73349800D01*
X84052180Y-73587895D02*
X83052180Y-73587895D01*
X83052180Y-73206942D01*
X83099800Y-73111704D01*
X83147419Y-73064085D01*
X83242657Y-73016466D01*
X83385514Y-73016466D01*
X83480752Y-73064085D01*
X83528371Y-73111704D01*
X83575990Y-73206942D01*
X83575990Y-73587895D01*
X83052180Y-72159323D02*
X83052180Y-72349800D01*
X83099800Y-72445038D01*
X83147419Y-72492657D01*
X83290276Y-72587895D01*
X83480752Y-72635514D01*
X83861704Y-72635514D01*
X83956942Y-72587895D01*
X84004561Y-72540276D01*
X84052180Y-72445038D01*
X84052180Y-72254561D01*
X84004561Y-72159323D01*
X83956942Y-72111704D01*
X83861704Y-72064085D01*
X83623609Y-72064085D01*
X83528371Y-72111704D01*
X83480752Y-72159323D01*
X83433133Y-72254561D01*
X83433133Y-72445038D01*
X83480752Y-72540276D01*
X83528371Y-72587895D01*
X83623609Y-72635514D01*
X82430952Y-109083380D02*
X81859523Y-109083380D01*
X82145238Y-109083380D02*
X82145238Y-108083380D01*
X82050000Y-108226238D01*
X81954761Y-108321476D01*
X81859523Y-108369095D01*
X82859523Y-109083380D02*
X82859523Y-108083380D01*
X82954761Y-108702428D02*
X83240476Y-109083380D01*
X83240476Y-108416714D02*
X82859523Y-108797666D01*
X82383333Y-106713380D02*
X82050000Y-106237190D01*
X81811904Y-106713380D02*
X81811904Y-105713380D01*
X82192857Y-105713380D01*
X82288095Y-105761000D01*
X82335714Y-105808619D01*
X82383333Y-105903857D01*
X82383333Y-106046714D01*
X82335714Y-106141952D01*
X82288095Y-106189571D01*
X82192857Y-106237190D01*
X81811904Y-106237190D01*
X82716666Y-105713380D02*
X83383333Y-105713380D01*
X82954761Y-106713380D01*
X92698523Y-69291666D02*
X93174714Y-69291666D01*
X92603285Y-69577380D02*
X92936619Y-68577380D01*
X93269952Y-69577380D01*
X93460428Y-68577380D02*
X94031857Y-68577380D01*
X93746142Y-69577380D02*
X93746142Y-68577380D01*
X94365190Y-69577380D02*
X94365190Y-68910714D01*
X94365190Y-69005952D02*
X94412809Y-68958333D01*
X94508047Y-68910714D01*
X94650904Y-68910714D01*
X94746142Y-68958333D01*
X94793761Y-69053571D01*
X94793761Y-69577380D01*
X94793761Y-69053571D02*
X94841380Y-68958333D01*
X94936619Y-68910714D01*
X95079476Y-68910714D01*
X95174714Y-68958333D01*
X95222333Y-69053571D01*
X95222333Y-69577380D01*
X96079476Y-69529761D02*
X95984238Y-69577380D01*
X95793761Y-69577380D01*
X95698523Y-69529761D01*
X95650904Y-69434523D01*
X95650904Y-69053571D01*
X95698523Y-68958333D01*
X95793761Y-68910714D01*
X95984238Y-68910714D01*
X96079476Y-68958333D01*
X96127095Y-69053571D01*
X96127095Y-69148809D01*
X95650904Y-69244047D01*
X96984238Y-68910714D02*
X96984238Y-69720238D01*
X96936619Y-69815476D01*
X96889000Y-69863095D01*
X96793761Y-69910714D01*
X96650904Y-69910714D01*
X96555666Y-69863095D01*
X96984238Y-69529761D02*
X96889000Y-69577380D01*
X96698523Y-69577380D01*
X96603285Y-69529761D01*
X96555666Y-69482142D01*
X96508047Y-69386904D01*
X96508047Y-69101190D01*
X96555666Y-69005952D01*
X96603285Y-68958333D01*
X96698523Y-68910714D01*
X96889000Y-68910714D01*
X96984238Y-68958333D01*
X97889000Y-69577380D02*
X97889000Y-69053571D01*
X97841380Y-68958333D01*
X97746142Y-68910714D01*
X97555666Y-68910714D01*
X97460428Y-68958333D01*
X97889000Y-69529761D02*
X97793761Y-69577380D01*
X97555666Y-69577380D01*
X97460428Y-69529761D01*
X97412809Y-69434523D01*
X97412809Y-69339285D01*
X97460428Y-69244047D01*
X97555666Y-69196428D01*
X97793761Y-69196428D01*
X97889000Y-69148809D01*
X98508047Y-69005952D02*
X98412809Y-68958333D01*
X98365190Y-68910714D01*
X98317571Y-68815476D01*
X98317571Y-68767857D01*
X98365190Y-68672619D01*
X98412809Y-68625000D01*
X98508047Y-68577380D01*
X98698523Y-68577380D01*
X98793761Y-68625000D01*
X98841380Y-68672619D01*
X98889000Y-68767857D01*
X98889000Y-68815476D01*
X98841380Y-68910714D01*
X98793761Y-68958333D01*
X98698523Y-69005952D01*
X98508047Y-69005952D01*
X98412809Y-69053571D01*
X98365190Y-69101190D01*
X98317571Y-69196428D01*
X98317571Y-69386904D01*
X98365190Y-69482142D01*
X98412809Y-69529761D01*
X98508047Y-69577380D01*
X98698523Y-69577380D01*
X98793761Y-69529761D01*
X98841380Y-69482142D01*
X98889000Y-69386904D01*
X98889000Y-69196428D01*
X98841380Y-69101190D01*
X98793761Y-69053571D01*
X98698523Y-69005952D01*
X99317571Y-69196428D02*
X100079476Y-69196428D01*
X101079476Y-69577380D02*
X100508047Y-69577380D01*
X100793761Y-69577380D02*
X100793761Y-68577380D01*
X100698523Y-68720238D01*
X100603285Y-68815476D01*
X100508047Y-68863095D01*
X101936619Y-68577380D02*
X101746142Y-68577380D01*
X101650904Y-68625000D01*
X101603285Y-68672619D01*
X101508047Y-68815476D01*
X101460428Y-69005952D01*
X101460428Y-69386904D01*
X101508047Y-69482142D01*
X101555666Y-69529761D01*
X101650904Y-69577380D01*
X101841380Y-69577380D01*
X101936619Y-69529761D01*
X101984238Y-69482142D01*
X102031857Y-69386904D01*
X102031857Y-69148809D01*
X101984238Y-69053571D01*
X101936619Y-69005952D01*
X101841380Y-68958333D01*
X101650904Y-68958333D01*
X101555666Y-69005952D01*
X101508047Y-69053571D01*
X101460428Y-69148809D01*
X102460428Y-69577380D02*
X102460428Y-68577380D01*
X102841380Y-68577380D01*
X102936619Y-68625000D01*
X102984238Y-68672619D01*
X103031857Y-68767857D01*
X103031857Y-68910714D01*
X102984238Y-69005952D01*
X102936619Y-69053571D01*
X102841380Y-69101190D01*
X102460428Y-69101190D01*
X103460428Y-68577380D02*
X103460428Y-69386904D01*
X103508047Y-69482142D01*
X103555666Y-69529761D01*
X103650904Y-69577380D01*
X103841380Y-69577380D01*
X103936619Y-69529761D01*
X103984238Y-69482142D01*
X104031857Y-69386904D01*
X104031857Y-68577380D01*
X97627095Y-87417380D02*
X97627095Y-88226904D01*
X97674714Y-88322142D01*
X97722333Y-88369761D01*
X97817571Y-88417380D01*
X98008047Y-88417380D01*
X98103285Y-88369761D01*
X98150904Y-88322142D01*
X98198523Y-88226904D01*
X98198523Y-87417380D01*
X99198523Y-88417380D02*
X98627095Y-88417380D01*
X98912809Y-88417380D02*
X98912809Y-87417380D01*
X98817571Y-87560238D01*
X98722333Y-87655476D01*
X98627095Y-87703095D01*
M02*
