G04 #@! TF.GenerationSoftware,KiCad,Pcbnew,5.1.2-1.fc30*
G04 #@! TF.CreationDate,2019-07-08T04:49:55+02:00*
G04 #@! TF.ProjectId,usbasp,75736261-7370-42e6-9b69-6361645f7063,1.0*
G04 #@! TF.SameCoordinates,Original*
G04 #@! TF.FileFunction,Copper,L1,Top*
G04 #@! TF.FilePolarity,Positive*
%FSLAX46Y46*%
G04 Gerber Fmt 4.6, Leading zero omitted, Abs format (unit mm)*
G04 Created by KiCad (PCBNEW 5.1.2-1.fc30) date 2019-07-08 04:49:55*
%MOMM*%
%LPD*%
G04 APERTURE LIST*
%ADD10C,1.600000*%
%ADD11R,1.600000X1.600000*%
%ADD12O,1.600000X1.600000*%
%ADD13C,1.800000*%
%ADD14R,1.800000X1.800000*%
%ADD15C,1.400000*%
%ADD16C,3.000000*%
%ADD17R,1.400000X1.400000*%
%ADD18O,1.727200X1.727200*%
%ADD19R,1.727200X1.727200*%
%ADD20O,1.700000X1.700000*%
%ADD21R,1.700000X1.700000*%
%ADD22C,1.500000*%
%ADD23C,0.500000*%
%ADD24C,1.000000*%
%ADD25C,0.254000*%
G04 APERTURE END LIST*
D10*
X180928000Y-66294000D03*
X185928000Y-66294000D03*
X180928000Y-83820000D03*
X185928000Y-83820000D03*
X221996000Y-91694000D03*
X221996000Y-96694000D03*
X214884000Y-97068000D03*
D11*
X214884000Y-99568000D03*
D10*
X245190000Y-76454000D03*
X250190000Y-76454000D03*
D12*
X231902000Y-82804000D03*
D11*
X239522000Y-82804000D03*
D12*
X231902000Y-86868000D03*
D11*
X239522000Y-86868000D03*
D13*
X214630000Y-56896000D03*
D14*
X217170000Y-56896000D03*
D13*
X224790000Y-56896000D03*
D14*
X222250000Y-56896000D03*
D12*
X245110000Y-70104000D03*
D11*
X252730000Y-70104000D03*
D15*
X246464000Y-90226000D03*
D16*
X249174000Y-94996000D03*
D17*
X246464000Y-87726000D03*
D15*
X249664000Y-90226000D03*
X249664000Y-87726000D03*
D16*
X249174000Y-82956000D03*
D18*
X215138000Y-87884000D03*
X212598000Y-87884000D03*
X215138000Y-85344000D03*
X212598000Y-85344000D03*
X215138000Y-82804000D03*
X212598000Y-82804000D03*
X215138000Y-80264000D03*
X212598000Y-80264000D03*
X215138000Y-77724000D03*
D19*
X212598000Y-77724000D03*
D18*
X226568000Y-82804000D03*
X224028000Y-82804000D03*
X226568000Y-80264000D03*
X224028000Y-80264000D03*
X226568000Y-77724000D03*
D19*
X224028000Y-77724000D03*
D20*
X186182000Y-96520000D03*
D21*
X186182000Y-99060000D03*
D20*
X236474000Y-76708000D03*
D21*
X236474000Y-74168000D03*
D20*
X236474000Y-67310000D03*
D21*
X236474000Y-64770000D03*
D12*
X245110000Y-64770000D03*
D10*
X252730000Y-64770000D03*
D12*
X252984000Y-59944000D03*
D10*
X245364000Y-59944000D03*
D12*
X239522000Y-93218000D03*
D10*
X231902000Y-93218000D03*
D12*
X239522000Y-99314000D03*
D10*
X231902000Y-99314000D03*
D12*
X209804000Y-56896000D03*
D10*
X202184000Y-56896000D03*
D12*
X229108000Y-56896000D03*
D10*
X236728000Y-56896000D03*
D12*
X210312000Y-67564000D03*
D10*
X217932000Y-67564000D03*
D12*
X203454000Y-64770000D03*
X195834000Y-97790000D03*
X203454000Y-67310000D03*
X195834000Y-95250000D03*
X203454000Y-69850000D03*
X195834000Y-92710000D03*
X203454000Y-72390000D03*
X195834000Y-90170000D03*
X203454000Y-74930000D03*
X195834000Y-87630000D03*
X203454000Y-77470000D03*
X195834000Y-85090000D03*
X203454000Y-80010000D03*
X195834000Y-82550000D03*
X203454000Y-82550000D03*
X195834000Y-80010000D03*
X203454000Y-85090000D03*
X195834000Y-77470000D03*
X203454000Y-87630000D03*
X195834000Y-74930000D03*
X203454000Y-90170000D03*
X195834000Y-72390000D03*
X203454000Y-92710000D03*
X195834000Y-69850000D03*
X203454000Y-95250000D03*
X195834000Y-67310000D03*
X203454000Y-97790000D03*
D11*
X195834000Y-64770000D03*
D22*
X185928000Y-73406000D03*
X185928000Y-77206000D03*
D23*
X185928000Y-66294000D02*
X185928000Y-73406000D01*
X195834000Y-83839700D02*
X196381000Y-83839700D01*
X196381000Y-83839700D02*
X197112100Y-83108600D01*
X197112100Y-83108600D02*
X197112100Y-82059800D01*
X197112100Y-82059800D02*
X196332300Y-81280000D01*
X196332300Y-81280000D02*
X193802000Y-81280000D01*
X193802000Y-81280000D02*
X185928000Y-73406000D01*
X195834000Y-85090000D02*
X195834000Y-83839700D01*
D24*
X248970000Y-77994000D02*
X248970000Y-82752000D01*
X248970000Y-82752000D02*
X249174000Y-82956000D01*
X250190000Y-76454000D02*
X248970000Y-77674000D01*
X248970000Y-77674000D02*
X248970000Y-77994000D01*
X248970000Y-77994000D02*
X239310300Y-77994000D01*
X239310300Y-77994000D02*
X238024300Y-76708000D01*
X226568000Y-86868000D02*
X226568000Y-87122000D01*
X226568000Y-87122000D02*
X221996000Y-91694000D01*
X226568000Y-82804000D02*
X226568000Y-86868000D01*
X226568000Y-86868000D02*
X230401700Y-86868000D01*
X231902000Y-86868000D02*
X230401700Y-86868000D01*
X182441100Y-82306900D02*
X180928000Y-83820000D01*
X194333700Y-82550000D02*
X194090600Y-82306900D01*
X194090600Y-82306900D02*
X182441100Y-82306900D01*
X182441100Y-82306900D02*
X182441100Y-67807100D01*
X182441100Y-67807100D02*
X180928000Y-66294000D01*
X236474000Y-76708000D02*
X238024300Y-76708000D01*
X195834000Y-82550000D02*
X194333700Y-82550000D01*
D23*
X185928000Y-83820000D02*
X189738000Y-87630000D01*
X189738000Y-87630000D02*
X195834000Y-87630000D01*
D24*
X252984000Y-59944000D02*
X251483700Y-59944000D01*
X251483700Y-59944000D02*
X248435700Y-56896000D01*
X248435700Y-56896000D02*
X236728000Y-56896000D01*
X221996000Y-96694000D02*
X230586100Y-96694000D01*
X230586100Y-96694000D02*
X238021600Y-89258500D01*
X238021600Y-89258500D02*
X238021600Y-85742700D01*
X238021600Y-85742700D02*
X238396700Y-85367600D01*
X238396700Y-85367600D02*
X242705300Y-85367600D01*
X242705300Y-85367600D02*
X245063700Y-87726000D01*
X214884000Y-99568000D02*
X219122000Y-99568000D01*
X219122000Y-99568000D02*
X221996000Y-96694000D01*
X246464000Y-87726000D02*
X245063700Y-87726000D01*
X201179500Y-85090000D02*
X201179500Y-83855200D01*
X201179500Y-83855200D02*
X197334300Y-80010000D01*
X201953700Y-85090000D02*
X201179500Y-85090000D01*
X201179500Y-85090000D02*
X201179500Y-97670700D01*
X201179500Y-97670700D02*
X203076800Y-99568000D01*
X203076800Y-99568000D02*
X214884000Y-99568000D01*
X195834000Y-80010000D02*
X197334300Y-80010000D01*
X203454000Y-85090000D02*
X201953700Y-85090000D01*
D23*
X236474000Y-64770000D02*
X235173700Y-64770000D01*
X195834000Y-64770000D02*
X197084300Y-64770000D01*
X197084300Y-64770000D02*
X198354200Y-66039900D01*
X198354200Y-66039900D02*
X233903800Y-66039900D01*
X233903800Y-66039900D02*
X235173700Y-64770000D01*
X245110000Y-64770000D02*
X245110000Y-68853700D01*
X245110000Y-70104000D02*
X245110000Y-68853700D01*
X236474000Y-64770000D02*
X245110000Y-64770000D01*
X239522000Y-93218000D02*
X239522000Y-91967700D01*
X242780700Y-89071000D02*
X242780700Y-88876400D01*
X242780700Y-88876400D02*
X240772300Y-86868000D01*
X239522000Y-91967700D02*
X239884000Y-91967700D01*
X239884000Y-91967700D02*
X242780700Y-89071000D01*
X249664000Y-90226000D02*
X248509000Y-89071000D01*
X248509000Y-89071000D02*
X242780700Y-89071000D01*
X239522000Y-86868000D02*
X240772300Y-86868000D01*
X209804000Y-56896000D02*
X214630000Y-56896000D01*
X229108000Y-56896000D02*
X224790000Y-56896000D01*
X222250000Y-56896000D02*
X220899700Y-56896000D01*
X203454000Y-74930000D02*
X202203700Y-74930000D01*
X202203700Y-74930000D02*
X198393700Y-71120000D01*
X198393700Y-71120000D02*
X195295200Y-71120000D01*
X195295200Y-71120000D02*
X194540800Y-70365600D01*
X194540800Y-70365600D02*
X194540800Y-63776300D01*
X194540800Y-63776300D02*
X200070800Y-58246300D01*
X200070800Y-58246300D02*
X219549400Y-58246300D01*
X219549400Y-58246300D02*
X220899700Y-56896000D01*
X226568000Y-80264000D02*
X227888500Y-78943500D01*
X227888500Y-78943500D02*
X227888500Y-76117400D01*
X227888500Y-76117400D02*
X226980800Y-75209700D01*
X226980800Y-75209700D02*
X215112300Y-75209700D01*
X215112300Y-75209700D02*
X212598000Y-77724000D01*
D24*
X215138000Y-77724000D02*
X216701900Y-77724000D01*
X226568000Y-77724000D02*
X226568000Y-76160100D01*
X226568000Y-76160100D02*
X218265800Y-76160100D01*
X218265800Y-76160100D02*
X216701900Y-77724000D01*
D23*
X224028000Y-82804000D02*
X224028000Y-84117900D01*
X203454000Y-95250000D02*
X204704300Y-95250000D01*
X204704300Y-95250000D02*
X207436700Y-92517600D01*
X207436700Y-92517600D02*
X215628300Y-92517600D01*
X215628300Y-92517600D02*
X224028000Y-84117900D01*
X224028000Y-80264000D02*
X219148200Y-85143800D01*
X219148200Y-85143800D02*
X219148200Y-86749300D01*
X219148200Y-86749300D02*
X214457600Y-91439900D01*
X214457600Y-91439900D02*
X202915200Y-91439900D01*
X202915200Y-91439900D02*
X202164400Y-90689100D01*
X202164400Y-90689100D02*
X202164400Y-89626000D01*
X202164400Y-89626000D02*
X202910100Y-88880300D01*
X202910100Y-88880300D02*
X203454000Y-88880300D01*
X203454000Y-87630000D02*
X203454000Y-88880300D01*
X203454000Y-87630000D02*
X204704300Y-87630000D01*
X204704300Y-87630000D02*
X206990300Y-85344000D01*
X206990300Y-85344000D02*
X212598000Y-85344000D01*
X212598000Y-87884000D02*
X211284100Y-87884000D01*
X203454000Y-90170000D02*
X208998100Y-90170000D01*
X208998100Y-90170000D02*
X211284100Y-87884000D01*
X224028000Y-77724000D02*
X216501200Y-85250800D01*
X216501200Y-85250800D02*
X216501200Y-88401300D01*
X216501200Y-88401300D02*
X215671500Y-89231000D01*
X215671500Y-89231000D02*
X213945000Y-89231000D01*
X213945000Y-89231000D02*
X212598000Y-87884000D01*
X236474000Y-74168000D02*
X235173700Y-74168000D01*
X203454000Y-72390000D02*
X233395700Y-72390000D01*
X233395700Y-72390000D02*
X235173700Y-74168000D01*
X204704300Y-97790000D02*
X209276300Y-93218000D01*
X209276300Y-93218000D02*
X231902000Y-93218000D01*
X203454000Y-97790000D02*
X204704300Y-97790000D01*
X195834000Y-97790000D02*
X197084300Y-97790000D01*
X197084300Y-97790000D02*
X200129500Y-100835200D01*
X200129500Y-100835200D02*
X230380800Y-100835200D01*
X230380800Y-100835200D02*
X231902000Y-99314000D01*
X210312000Y-67564000D02*
X209061700Y-67564000D01*
X195834000Y-69850000D02*
X197084300Y-69850000D01*
X197084300Y-69850000D02*
X198334600Y-68599700D01*
X198334600Y-68599700D02*
X208026000Y-68599700D01*
X208026000Y-68599700D02*
X209061700Y-67564000D01*
D25*
G36*
X253657719Y-54231596D02*
G01*
X253359724Y-54485210D01*
X253116664Y-54791875D01*
X252937798Y-55139910D01*
X252829939Y-55516059D01*
X252797195Y-55905994D01*
X252840814Y-56294863D01*
X252959134Y-56667854D01*
X253147647Y-57010759D01*
X253399175Y-57310518D01*
X253704136Y-57555712D01*
X254050914Y-57737004D01*
X254426300Y-57847486D01*
X254815997Y-57882951D01*
X255205161Y-57842048D01*
X255578969Y-57726336D01*
X255923182Y-57540220D01*
X256224689Y-57290792D01*
X256472007Y-56987550D01*
X256567001Y-56808893D01*
X256567000Y-99945152D01*
X256440376Y-99722253D01*
X256184687Y-99426035D01*
X255876333Y-99185123D01*
X255527057Y-99008691D01*
X255150165Y-98903460D01*
X254760010Y-98873440D01*
X254371456Y-98919772D01*
X253999300Y-99040693D01*
X253657719Y-99231596D01*
X253359724Y-99485210D01*
X253116664Y-99791875D01*
X252937798Y-100139910D01*
X252829939Y-100516059D01*
X252797195Y-100905994D01*
X252840814Y-101294863D01*
X252959134Y-101667854D01*
X253147647Y-102010759D01*
X253399175Y-102310518D01*
X253704136Y-102555712D01*
X253871102Y-102643000D01*
X180733095Y-102643000D01*
X180923182Y-102540220D01*
X181224689Y-102290792D01*
X181472007Y-101987550D01*
X181655715Y-101642046D01*
X181768815Y-101267440D01*
X181807000Y-100878000D01*
X181806218Y-100822017D01*
X181757174Y-100433795D01*
X181633659Y-100062493D01*
X181440376Y-99722253D01*
X181184687Y-99426035D01*
X180876333Y-99185123D01*
X180527057Y-99008691D01*
X180150165Y-98903460D01*
X179760010Y-98873440D01*
X179371456Y-98919772D01*
X178999300Y-99040693D01*
X178657719Y-99231596D01*
X178359724Y-99485210D01*
X178116664Y-99791875D01*
X178037000Y-99946884D01*
X178037000Y-96520000D01*
X184689815Y-96520000D01*
X184718487Y-96811111D01*
X184803401Y-97091034D01*
X184941294Y-97349014D01*
X185126866Y-97575134D01*
X185156687Y-97599607D01*
X185087820Y-97620498D01*
X184977506Y-97679463D01*
X184880815Y-97758815D01*
X184801463Y-97855506D01*
X184742498Y-97965820D01*
X184706188Y-98085518D01*
X184693928Y-98210000D01*
X184693928Y-99910000D01*
X184706188Y-100034482D01*
X184742498Y-100154180D01*
X184801463Y-100264494D01*
X184880815Y-100361185D01*
X184977506Y-100440537D01*
X185087820Y-100499502D01*
X185207518Y-100535812D01*
X185332000Y-100548072D01*
X187032000Y-100548072D01*
X187156482Y-100535812D01*
X187276180Y-100499502D01*
X187386494Y-100440537D01*
X187483185Y-100361185D01*
X187562537Y-100264494D01*
X187621502Y-100154180D01*
X187657812Y-100034482D01*
X187670072Y-99910000D01*
X187670072Y-98210000D01*
X187657812Y-98085518D01*
X187621502Y-97965820D01*
X187562537Y-97855506D01*
X187483185Y-97758815D01*
X187386494Y-97679463D01*
X187276180Y-97620498D01*
X187207313Y-97599607D01*
X187237134Y-97575134D01*
X187422706Y-97349014D01*
X187560599Y-97091034D01*
X187645513Y-96811111D01*
X187674185Y-96520000D01*
X187645513Y-96228889D01*
X187560599Y-95948966D01*
X187422706Y-95690986D01*
X187237134Y-95464866D01*
X187011014Y-95279294D01*
X186753034Y-95141401D01*
X186473111Y-95056487D01*
X186254950Y-95035000D01*
X186109050Y-95035000D01*
X185890889Y-95056487D01*
X185610966Y-95141401D01*
X185352986Y-95279294D01*
X185126866Y-95464866D01*
X184941294Y-95690986D01*
X184803401Y-95948966D01*
X184718487Y-96228889D01*
X184689815Y-96520000D01*
X178037000Y-96520000D01*
X178037000Y-84812702D01*
X180114903Y-84812702D01*
X180186486Y-85056671D01*
X180441996Y-85177571D01*
X180716184Y-85246300D01*
X180998512Y-85260217D01*
X181278130Y-85218787D01*
X181544292Y-85123603D01*
X181669514Y-85056671D01*
X181741097Y-84812702D01*
X180928000Y-83999605D01*
X180114903Y-84812702D01*
X178037000Y-84812702D01*
X178037000Y-83890512D01*
X179487783Y-83890512D01*
X179529213Y-84170130D01*
X179624397Y-84436292D01*
X179691329Y-84561514D01*
X179935298Y-84633097D01*
X180748395Y-83820000D01*
X181107605Y-83820000D01*
X181920702Y-84633097D01*
X182164671Y-84561514D01*
X182285571Y-84306004D01*
X182354300Y-84031816D01*
X182368217Y-83749488D01*
X182326787Y-83469870D01*
X182231603Y-83203708D01*
X182164671Y-83078486D01*
X181920702Y-83006903D01*
X181107605Y-83820000D01*
X180748395Y-83820000D01*
X179935298Y-83006903D01*
X179691329Y-83078486D01*
X179570429Y-83333996D01*
X179501700Y-83608184D01*
X179487783Y-83890512D01*
X178037000Y-83890512D01*
X178037000Y-82827298D01*
X180114903Y-82827298D01*
X180928000Y-83640395D01*
X181741097Y-82827298D01*
X181669514Y-82583329D01*
X181414004Y-82462429D01*
X181139816Y-82393700D01*
X180857488Y-82379783D01*
X180577870Y-82421213D01*
X180311708Y-82516397D01*
X180186486Y-82583329D01*
X180114903Y-82827298D01*
X178037000Y-82827298D01*
X178037000Y-77069589D01*
X184543000Y-77069589D01*
X184543000Y-77342411D01*
X184596225Y-77609989D01*
X184700629Y-77862043D01*
X184852201Y-78088886D01*
X185045114Y-78281799D01*
X185271957Y-78433371D01*
X185524011Y-78537775D01*
X185791589Y-78591000D01*
X186064411Y-78591000D01*
X186331989Y-78537775D01*
X186584043Y-78433371D01*
X186810886Y-78281799D01*
X187003799Y-78088886D01*
X187155371Y-77862043D01*
X187259775Y-77609989D01*
X187313000Y-77342411D01*
X187313000Y-77069589D01*
X187259775Y-76802011D01*
X187155371Y-76549957D01*
X187003799Y-76323114D01*
X186810886Y-76130201D01*
X186584043Y-75978629D01*
X186331989Y-75874225D01*
X186064411Y-75821000D01*
X185791589Y-75821000D01*
X185524011Y-75874225D01*
X185271957Y-75978629D01*
X185045114Y-76130201D01*
X184852201Y-76323114D01*
X184700629Y-76549957D01*
X184596225Y-76802011D01*
X184543000Y-77069589D01*
X178037000Y-77069589D01*
X178037000Y-67286702D01*
X180114903Y-67286702D01*
X180186486Y-67530671D01*
X180441996Y-67651571D01*
X180716184Y-67720300D01*
X180998512Y-67734217D01*
X181278130Y-67692787D01*
X181544292Y-67597603D01*
X181669514Y-67530671D01*
X181741097Y-67286702D01*
X180928000Y-66473605D01*
X180114903Y-67286702D01*
X178037000Y-67286702D01*
X178037000Y-66364512D01*
X179487783Y-66364512D01*
X179529213Y-66644130D01*
X179624397Y-66910292D01*
X179691329Y-67035514D01*
X179935298Y-67107097D01*
X180748395Y-66294000D01*
X181107605Y-66294000D01*
X181920702Y-67107097D01*
X182164671Y-67035514D01*
X182285571Y-66780004D01*
X182354300Y-66505816D01*
X182368217Y-66223488D01*
X182357724Y-66152665D01*
X184493000Y-66152665D01*
X184493000Y-66435335D01*
X184548147Y-66712574D01*
X184656320Y-66973727D01*
X184813363Y-67208759D01*
X185013241Y-67408637D01*
X185043000Y-67428521D01*
X185043001Y-72332314D01*
X184852201Y-72523114D01*
X184700629Y-72749957D01*
X184596225Y-73002011D01*
X184543000Y-73269589D01*
X184543000Y-73542411D01*
X184596225Y-73809989D01*
X184700629Y-74062043D01*
X184852201Y-74288886D01*
X185045114Y-74481799D01*
X185271957Y-74633371D01*
X185524011Y-74737775D01*
X185791589Y-74791000D01*
X186061422Y-74791000D01*
X193145470Y-81875049D01*
X193173183Y-81908817D01*
X193206951Y-81936530D01*
X193206953Y-81936532D01*
X193307941Y-82019411D01*
X193461686Y-82101589D01*
X193628510Y-82152195D01*
X193758523Y-82165000D01*
X193758531Y-82165000D01*
X193802000Y-82169281D01*
X193845469Y-82165000D01*
X194453003Y-82165000D01*
X194442096Y-82200961D01*
X194564085Y-82423000D01*
X195707000Y-82423000D01*
X195707000Y-82403000D01*
X195961000Y-82403000D01*
X195961000Y-82423000D01*
X195981000Y-82423000D01*
X195981000Y-82677000D01*
X195961000Y-82677000D01*
X195961000Y-82697000D01*
X195707000Y-82697000D01*
X195707000Y-82677000D01*
X194564085Y-82677000D01*
X194442096Y-82899039D01*
X194482754Y-83033087D01*
X194602963Y-83287420D01*
X194770481Y-83513414D01*
X194959933Y-83685214D01*
X194944718Y-83839700D01*
X194949001Y-83883186D01*
X194949001Y-83959921D01*
X194814392Y-84070392D01*
X194635068Y-84288899D01*
X194501818Y-84538192D01*
X194419764Y-84808691D01*
X194392057Y-85090000D01*
X194419764Y-85371309D01*
X194501818Y-85641808D01*
X194635068Y-85891101D01*
X194814392Y-86109608D01*
X195032899Y-86288932D01*
X195165858Y-86360000D01*
X195032899Y-86431068D01*
X194814392Y-86610392D01*
X194703922Y-86745000D01*
X190104579Y-86745000D01*
X187356017Y-83996439D01*
X187363000Y-83961335D01*
X187363000Y-83678665D01*
X187307853Y-83401426D01*
X187199680Y-83140273D01*
X187042637Y-82905241D01*
X186842759Y-82705363D01*
X186607727Y-82548320D01*
X186346574Y-82440147D01*
X186069335Y-82385000D01*
X185786665Y-82385000D01*
X185509426Y-82440147D01*
X185248273Y-82548320D01*
X185013241Y-82705363D01*
X184813363Y-82905241D01*
X184656320Y-83140273D01*
X184548147Y-83401426D01*
X184493000Y-83678665D01*
X184493000Y-83961335D01*
X184548147Y-84238574D01*
X184656320Y-84499727D01*
X184813363Y-84734759D01*
X185013241Y-84934637D01*
X185248273Y-85091680D01*
X185509426Y-85199853D01*
X185786665Y-85255000D01*
X186069335Y-85255000D01*
X186104439Y-85248017D01*
X189081470Y-88225049D01*
X189109183Y-88258817D01*
X189142951Y-88286530D01*
X189142953Y-88286532D01*
X189243941Y-88369411D01*
X189397686Y-88451589D01*
X189450678Y-88467664D01*
X189564510Y-88502195D01*
X189694523Y-88515000D01*
X189694531Y-88515000D01*
X189738000Y-88519281D01*
X189781469Y-88515000D01*
X194703922Y-88515000D01*
X194814392Y-88649608D01*
X195032899Y-88828932D01*
X195165858Y-88900000D01*
X195032899Y-88971068D01*
X194814392Y-89150392D01*
X194635068Y-89368899D01*
X194501818Y-89618192D01*
X194419764Y-89888691D01*
X194392057Y-90170000D01*
X194419764Y-90451309D01*
X194501818Y-90721808D01*
X194635068Y-90971101D01*
X194814392Y-91189608D01*
X195032899Y-91368932D01*
X195165858Y-91440000D01*
X195032899Y-91511068D01*
X194814392Y-91690392D01*
X194635068Y-91908899D01*
X194501818Y-92158192D01*
X194419764Y-92428691D01*
X194392057Y-92710000D01*
X194419764Y-92991309D01*
X194501818Y-93261808D01*
X194635068Y-93511101D01*
X194814392Y-93729608D01*
X195032899Y-93908932D01*
X195165858Y-93980000D01*
X195032899Y-94051068D01*
X194814392Y-94230392D01*
X194635068Y-94448899D01*
X194501818Y-94698192D01*
X194419764Y-94968691D01*
X194392057Y-95250000D01*
X194419764Y-95531309D01*
X194501818Y-95801808D01*
X194635068Y-96051101D01*
X194814392Y-96269608D01*
X195032899Y-96448932D01*
X195165858Y-96520000D01*
X195032899Y-96591068D01*
X194814392Y-96770392D01*
X194635068Y-96988899D01*
X194501818Y-97238192D01*
X194419764Y-97508691D01*
X194392057Y-97790000D01*
X194419764Y-98071309D01*
X194501818Y-98341808D01*
X194635068Y-98591101D01*
X194814392Y-98809608D01*
X195032899Y-98988932D01*
X195282192Y-99122182D01*
X195552691Y-99204236D01*
X195763508Y-99225000D01*
X195904492Y-99225000D01*
X196115309Y-99204236D01*
X196385808Y-99122182D01*
X196635101Y-98988932D01*
X196852906Y-98810184D01*
X199472970Y-101430249D01*
X199500683Y-101464017D01*
X199534451Y-101491730D01*
X199534453Y-101491732D01*
X199605952Y-101550410D01*
X199635441Y-101574611D01*
X199789187Y-101656789D01*
X199956010Y-101707395D01*
X200086023Y-101720200D01*
X200086033Y-101720200D01*
X200129499Y-101724481D01*
X200172965Y-101720200D01*
X230337331Y-101720200D01*
X230380800Y-101724481D01*
X230424269Y-101720200D01*
X230424277Y-101720200D01*
X230554290Y-101707395D01*
X230721113Y-101656789D01*
X230874859Y-101574611D01*
X231009617Y-101464017D01*
X231037334Y-101430244D01*
X231725561Y-100742017D01*
X231760665Y-100749000D01*
X232043335Y-100749000D01*
X232320574Y-100693853D01*
X232581727Y-100585680D01*
X232816759Y-100428637D01*
X233016637Y-100228759D01*
X233173680Y-99993727D01*
X233281853Y-99732574D01*
X233337000Y-99455335D01*
X233337000Y-99314000D01*
X238080057Y-99314000D01*
X238107764Y-99595309D01*
X238189818Y-99865808D01*
X238323068Y-100115101D01*
X238502392Y-100333608D01*
X238720899Y-100512932D01*
X238970192Y-100646182D01*
X239240691Y-100728236D01*
X239451508Y-100749000D01*
X239592492Y-100749000D01*
X239803309Y-100728236D01*
X240073808Y-100646182D01*
X240323101Y-100512932D01*
X240541608Y-100333608D01*
X240720932Y-100115101D01*
X240854182Y-99865808D01*
X240936236Y-99595309D01*
X240963943Y-99314000D01*
X240936236Y-99032691D01*
X240854182Y-98762192D01*
X240720932Y-98512899D01*
X240541608Y-98294392D01*
X240323101Y-98115068D01*
X240073808Y-97981818D01*
X239803309Y-97899764D01*
X239592492Y-97879000D01*
X239451508Y-97879000D01*
X239240691Y-97899764D01*
X238970192Y-97981818D01*
X238720899Y-98115068D01*
X238502392Y-98294392D01*
X238323068Y-98512899D01*
X238189818Y-98762192D01*
X238107764Y-99032691D01*
X238080057Y-99314000D01*
X233337000Y-99314000D01*
X233337000Y-99172665D01*
X233281853Y-98895426D01*
X233173680Y-98634273D01*
X233016637Y-98399241D01*
X232816759Y-98199363D01*
X232581727Y-98042320D01*
X232320574Y-97934147D01*
X232043335Y-97879000D01*
X231760665Y-97879000D01*
X231483426Y-97934147D01*
X231222273Y-98042320D01*
X230987241Y-98199363D01*
X230787363Y-98399241D01*
X230630320Y-98634273D01*
X230522147Y-98895426D01*
X230467000Y-99172665D01*
X230467000Y-99455335D01*
X230473983Y-99490439D01*
X230014222Y-99950200D01*
X220344931Y-99950200D01*
X222173282Y-98121850D01*
X222414574Y-98073853D01*
X222675727Y-97965680D01*
X222880284Y-97829000D01*
X230530349Y-97829000D01*
X230586100Y-97834491D01*
X230641851Y-97829000D01*
X230641852Y-97829000D01*
X230808599Y-97812577D01*
X231022547Y-97747676D01*
X231219723Y-97642284D01*
X231392549Y-97500449D01*
X231428096Y-97457135D01*
X232397578Y-96487653D01*
X247861952Y-96487653D01*
X248017962Y-96803214D01*
X248392745Y-96994020D01*
X248797551Y-97108044D01*
X249216824Y-97140902D01*
X249634451Y-97091334D01*
X250034383Y-96961243D01*
X250330038Y-96803214D01*
X250486048Y-96487653D01*
X249174000Y-95175605D01*
X247861952Y-96487653D01*
X232397578Y-96487653D01*
X233846407Y-95038824D01*
X247029098Y-95038824D01*
X247078666Y-95456451D01*
X247208757Y-95856383D01*
X247366786Y-96152038D01*
X247682347Y-96308048D01*
X248994395Y-94996000D01*
X249353605Y-94996000D01*
X250665653Y-96308048D01*
X250981214Y-96152038D01*
X251172020Y-95777255D01*
X251286044Y-95372449D01*
X251318902Y-94953176D01*
X251269334Y-94535549D01*
X251139243Y-94135617D01*
X250981214Y-93839962D01*
X250665653Y-93683952D01*
X249353605Y-94996000D01*
X248994395Y-94996000D01*
X247682347Y-93683952D01*
X247366786Y-93839962D01*
X247175980Y-94214745D01*
X247061956Y-94619551D01*
X247029098Y-95038824D01*
X233846407Y-95038824D01*
X238784741Y-90100491D01*
X238828049Y-90064949D01*
X238969884Y-89892123D01*
X239075276Y-89694947D01*
X239140177Y-89480999D01*
X239156600Y-89314252D01*
X239156600Y-89314251D01*
X239162091Y-89258500D01*
X239156600Y-89202749D01*
X239156600Y-88306072D01*
X240322000Y-88306072D01*
X240446482Y-88293812D01*
X240566180Y-88257502D01*
X240676494Y-88198537D01*
X240772483Y-88119761D01*
X241626421Y-88973700D01*
X239521672Y-91078450D01*
X239478524Y-91082700D01*
X239478523Y-91082700D01*
X239348510Y-91095505D01*
X239181687Y-91146111D01*
X239027941Y-91228289D01*
X238893183Y-91338883D01*
X238782589Y-91473641D01*
X238700411Y-91627387D01*
X238649805Y-91794210D01*
X238632718Y-91967700D01*
X238637001Y-92011186D01*
X238637001Y-92087921D01*
X238502392Y-92198392D01*
X238323068Y-92416899D01*
X238189818Y-92666192D01*
X238107764Y-92936691D01*
X238080057Y-93218000D01*
X238107764Y-93499309D01*
X238189818Y-93769808D01*
X238323068Y-94019101D01*
X238502392Y-94237608D01*
X238720899Y-94416932D01*
X238970192Y-94550182D01*
X239240691Y-94632236D01*
X239451508Y-94653000D01*
X239592492Y-94653000D01*
X239803309Y-94632236D01*
X240073808Y-94550182D01*
X240323101Y-94416932D01*
X240541608Y-94237608D01*
X240720932Y-94019101D01*
X240854182Y-93769808D01*
X240934707Y-93504347D01*
X247861952Y-93504347D01*
X249174000Y-94816395D01*
X250486048Y-93504347D01*
X250330038Y-93188786D01*
X249955255Y-92997980D01*
X249550449Y-92883956D01*
X249131176Y-92851098D01*
X248713549Y-92900666D01*
X248313617Y-93030757D01*
X248017962Y-93188786D01*
X247861952Y-93504347D01*
X240934707Y-93504347D01*
X240936236Y-93499309D01*
X240963943Y-93218000D01*
X240936236Y-92936691D01*
X240854182Y-92666192D01*
X240720932Y-92416899D01*
X240705357Y-92397921D01*
X243147279Y-89956000D01*
X245156553Y-89956000D01*
X245129000Y-90094514D01*
X245129000Y-90357486D01*
X245180304Y-90615405D01*
X245280939Y-90858359D01*
X245427038Y-91077013D01*
X245612987Y-91262962D01*
X245831641Y-91409061D01*
X246074595Y-91509696D01*
X246332514Y-91561000D01*
X246595486Y-91561000D01*
X246853405Y-91509696D01*
X247096359Y-91409061D01*
X247315013Y-91262962D01*
X247500962Y-91077013D01*
X247647061Y-90858359D01*
X247747696Y-90615405D01*
X247799000Y-90357486D01*
X247799000Y-90094514D01*
X247771447Y-89956000D01*
X248142422Y-89956000D01*
X248329000Y-90142578D01*
X248329000Y-90357486D01*
X248380304Y-90615405D01*
X248480939Y-90858359D01*
X248627038Y-91077013D01*
X248812987Y-91262962D01*
X249031641Y-91409061D01*
X249274595Y-91509696D01*
X249532514Y-91561000D01*
X249795486Y-91561000D01*
X250053405Y-91509696D01*
X250296359Y-91409061D01*
X250515013Y-91262962D01*
X250700962Y-91077013D01*
X250847061Y-90858359D01*
X250947696Y-90615405D01*
X250999000Y-90357486D01*
X250999000Y-90094514D01*
X250947696Y-89836595D01*
X250847061Y-89593641D01*
X250700962Y-89374987D01*
X250515013Y-89189038D01*
X250296359Y-89042939D01*
X250133882Y-88975639D01*
X250245366Y-88934935D01*
X250346203Y-88881037D01*
X250405664Y-88647269D01*
X249664000Y-87905605D01*
X249649858Y-87919748D01*
X249470253Y-87740143D01*
X249484395Y-87726000D01*
X249843605Y-87726000D01*
X250585269Y-88467664D01*
X250819037Y-88408203D01*
X250929934Y-88169758D01*
X250992183Y-87914260D01*
X251003390Y-87651527D01*
X250963125Y-87391656D01*
X250872935Y-87144634D01*
X250819037Y-87043797D01*
X250585269Y-86984336D01*
X249843605Y-87726000D01*
X249484395Y-87726000D01*
X248742731Y-86984336D01*
X248508963Y-87043797D01*
X248398066Y-87282242D01*
X248335817Y-87537740D01*
X248324610Y-87800473D01*
X248364875Y-88060344D01*
X248410753Y-88186000D01*
X247802072Y-88186000D01*
X247802072Y-87026000D01*
X247789812Y-86901518D01*
X247760452Y-86804731D01*
X248922336Y-86804731D01*
X249664000Y-87546395D01*
X250405664Y-86804731D01*
X250346203Y-86570963D01*
X250107758Y-86460066D01*
X249852260Y-86397817D01*
X249589527Y-86386610D01*
X249329656Y-86426875D01*
X249082634Y-86517065D01*
X248981797Y-86570963D01*
X248922336Y-86804731D01*
X247760452Y-86804731D01*
X247753502Y-86781820D01*
X247694537Y-86671506D01*
X247615185Y-86574815D01*
X247518494Y-86495463D01*
X247408180Y-86436498D01*
X247288482Y-86400188D01*
X247164000Y-86387928D01*
X245764000Y-86387928D01*
X245639518Y-86400188D01*
X245519820Y-86436498D01*
X245428267Y-86485435D01*
X243547296Y-84604465D01*
X243511749Y-84561151D01*
X243373452Y-84447653D01*
X247861952Y-84447653D01*
X248017962Y-84763214D01*
X248392745Y-84954020D01*
X248797551Y-85068044D01*
X249216824Y-85100902D01*
X249634451Y-85051334D01*
X250034383Y-84921243D01*
X250330038Y-84763214D01*
X250486048Y-84447653D01*
X249174000Y-83135605D01*
X247861952Y-84447653D01*
X243373452Y-84447653D01*
X243338923Y-84419316D01*
X243141747Y-84313924D01*
X242927799Y-84249023D01*
X242761052Y-84232600D01*
X242761051Y-84232600D01*
X242705300Y-84227109D01*
X242649549Y-84232600D01*
X240418174Y-84232600D01*
X240446482Y-84229812D01*
X240566180Y-84193502D01*
X240676494Y-84134537D01*
X240773185Y-84055185D01*
X240852537Y-83958494D01*
X240911502Y-83848180D01*
X240947812Y-83728482D01*
X240960072Y-83604000D01*
X240960072Y-82998824D01*
X247029098Y-82998824D01*
X247078666Y-83416451D01*
X247208757Y-83816383D01*
X247366786Y-84112038D01*
X247682347Y-84268048D01*
X248994395Y-82956000D01*
X249353605Y-82956000D01*
X250665653Y-84268048D01*
X250981214Y-84112038D01*
X251172020Y-83737255D01*
X251286044Y-83332449D01*
X251318902Y-82913176D01*
X251269334Y-82495549D01*
X251139243Y-82095617D01*
X250981214Y-81799962D01*
X250665653Y-81643952D01*
X249353605Y-82956000D01*
X248994395Y-82956000D01*
X247682347Y-81643952D01*
X247366786Y-81799962D01*
X247175980Y-82174745D01*
X247061956Y-82579551D01*
X247029098Y-82998824D01*
X240960072Y-82998824D01*
X240960072Y-82004000D01*
X240947812Y-81879518D01*
X240911502Y-81759820D01*
X240852537Y-81649506D01*
X240773185Y-81552815D01*
X240676494Y-81473463D01*
X240659440Y-81464347D01*
X247861952Y-81464347D01*
X249174000Y-82776395D01*
X250486048Y-81464347D01*
X250330038Y-81148786D01*
X249955255Y-80957980D01*
X249550449Y-80843956D01*
X249131176Y-80811098D01*
X248713549Y-80860666D01*
X248313617Y-80990757D01*
X248017962Y-81148786D01*
X247861952Y-81464347D01*
X240659440Y-81464347D01*
X240566180Y-81414498D01*
X240446482Y-81378188D01*
X240322000Y-81365928D01*
X238722000Y-81365928D01*
X238597518Y-81378188D01*
X238477820Y-81414498D01*
X238367506Y-81473463D01*
X238270815Y-81552815D01*
X238191463Y-81649506D01*
X238132498Y-81759820D01*
X238096188Y-81879518D01*
X238083928Y-82004000D01*
X238083928Y-83604000D01*
X238096188Y-83728482D01*
X238132498Y-83848180D01*
X238191463Y-83958494D01*
X238270815Y-84055185D01*
X238367506Y-84134537D01*
X238477820Y-84193502D01*
X238597518Y-84229812D01*
X238625826Y-84232600D01*
X238452452Y-84232600D01*
X238396700Y-84227109D01*
X238340948Y-84232600D01*
X238174201Y-84249023D01*
X237960253Y-84313924D01*
X237763077Y-84419316D01*
X237590251Y-84561151D01*
X237554708Y-84604460D01*
X237258459Y-84900710D01*
X237215152Y-84936251D01*
X237073317Y-85109077D01*
X237024797Y-85199853D01*
X236967924Y-85306254D01*
X236903023Y-85520202D01*
X236881109Y-85742700D01*
X236886601Y-85798461D01*
X236886600Y-88788368D01*
X233158866Y-92516102D01*
X233016637Y-92303241D01*
X232816759Y-92103363D01*
X232581727Y-91946320D01*
X232320574Y-91838147D01*
X232043335Y-91783000D01*
X231760665Y-91783000D01*
X231483426Y-91838147D01*
X231222273Y-91946320D01*
X230987241Y-92103363D01*
X230787363Y-92303241D01*
X230767479Y-92333000D01*
X223281178Y-92333000D01*
X223353571Y-92180004D01*
X223422300Y-91905816D01*
X223436217Y-91623488D01*
X223394787Y-91343870D01*
X223299603Y-91077708D01*
X223232671Y-90952486D01*
X222988702Y-90880903D01*
X222175605Y-91694000D01*
X222189748Y-91708143D01*
X222010143Y-91887748D01*
X221996000Y-91873605D01*
X221981858Y-91887748D01*
X221802253Y-91708143D01*
X221816395Y-91694000D01*
X221003298Y-90880903D01*
X220759329Y-90952486D01*
X220638429Y-91207996D01*
X220569700Y-91482184D01*
X220555783Y-91764512D01*
X220597213Y-92044130D01*
X220692397Y-92310292D01*
X220704535Y-92333000D01*
X217064478Y-92333000D01*
X218696180Y-90701298D01*
X221182903Y-90701298D01*
X221996000Y-91514395D01*
X222809097Y-90701298D01*
X222737514Y-90457329D01*
X222482004Y-90336429D01*
X222207816Y-90267700D01*
X221925488Y-90253783D01*
X221645870Y-90295213D01*
X221379708Y-90390397D01*
X221254486Y-90457329D01*
X221182903Y-90701298D01*
X218696180Y-90701298D01*
X222180439Y-87217039D01*
X230510096Y-87217039D01*
X230550754Y-87351087D01*
X230670963Y-87605420D01*
X230838481Y-87831414D01*
X231046869Y-88020385D01*
X231288119Y-88165070D01*
X231552960Y-88259909D01*
X231775000Y-88138624D01*
X231775000Y-86995000D01*
X232029000Y-86995000D01*
X232029000Y-88138624D01*
X232251040Y-88259909D01*
X232515881Y-88165070D01*
X232757131Y-88020385D01*
X232965519Y-87831414D01*
X233133037Y-87605420D01*
X233253246Y-87351087D01*
X233293904Y-87217039D01*
X233171915Y-86995000D01*
X232029000Y-86995000D01*
X231775000Y-86995000D01*
X230632085Y-86995000D01*
X230510096Y-87217039D01*
X222180439Y-87217039D01*
X222878517Y-86518961D01*
X230510096Y-86518961D01*
X230632085Y-86741000D01*
X231775000Y-86741000D01*
X231775000Y-85597376D01*
X232029000Y-85597376D01*
X232029000Y-86741000D01*
X233171915Y-86741000D01*
X233293904Y-86518961D01*
X233253246Y-86384913D01*
X233133037Y-86130580D01*
X232965519Y-85904586D01*
X232757131Y-85715615D01*
X232515881Y-85570930D01*
X232251040Y-85476091D01*
X232029000Y-85597376D01*
X231775000Y-85597376D01*
X231552960Y-85476091D01*
X231288119Y-85570930D01*
X231046869Y-85715615D01*
X230838481Y-85904586D01*
X230670963Y-86130580D01*
X230550754Y-86384913D01*
X230510096Y-86518961D01*
X222878517Y-86518961D01*
X224623049Y-84774430D01*
X224656817Y-84746717D01*
X224726928Y-84661288D01*
X224767411Y-84611959D01*
X224849589Y-84458214D01*
X224900195Y-84291390D01*
X224903389Y-84258963D01*
X224913000Y-84161377D01*
X224913000Y-84161369D01*
X224917281Y-84117900D01*
X224913000Y-84074431D01*
X224913000Y-84016353D01*
X225092797Y-83868797D01*
X225280069Y-83640606D01*
X225301470Y-83600567D01*
X225461146Y-83814293D01*
X225679512Y-84010817D01*
X225932022Y-84160964D01*
X226208973Y-84258963D01*
X226441000Y-84138464D01*
X226441000Y-82931000D01*
X226695000Y-82931000D01*
X226695000Y-84138464D01*
X226927027Y-84258963D01*
X227203978Y-84160964D01*
X227456488Y-84010817D01*
X227674854Y-83814293D01*
X227850684Y-83578944D01*
X227977222Y-83313814D01*
X228022958Y-83163026D01*
X228017744Y-83153039D01*
X230510096Y-83153039D01*
X230550754Y-83287087D01*
X230670963Y-83541420D01*
X230838481Y-83767414D01*
X231046869Y-83956385D01*
X231288119Y-84101070D01*
X231552960Y-84195909D01*
X231775000Y-84074624D01*
X231775000Y-82931000D01*
X232029000Y-82931000D01*
X232029000Y-84074624D01*
X232251040Y-84195909D01*
X232515881Y-84101070D01*
X232757131Y-83956385D01*
X232965519Y-83767414D01*
X233133037Y-83541420D01*
X233253246Y-83287087D01*
X233293904Y-83153039D01*
X233171915Y-82931000D01*
X232029000Y-82931000D01*
X231775000Y-82931000D01*
X230632085Y-82931000D01*
X230510096Y-83153039D01*
X228017744Y-83153039D01*
X227901817Y-82931000D01*
X226695000Y-82931000D01*
X226441000Y-82931000D01*
X226421000Y-82931000D01*
X226421000Y-82677000D01*
X226441000Y-82677000D01*
X226441000Y-82657000D01*
X226695000Y-82657000D01*
X226695000Y-82677000D01*
X227901817Y-82677000D01*
X228017743Y-82454961D01*
X230510096Y-82454961D01*
X230632085Y-82677000D01*
X231775000Y-82677000D01*
X231775000Y-81533376D01*
X232029000Y-81533376D01*
X232029000Y-82677000D01*
X233171915Y-82677000D01*
X233293904Y-82454961D01*
X233253246Y-82320913D01*
X233133037Y-82066580D01*
X232965519Y-81840586D01*
X232757131Y-81651615D01*
X232515881Y-81506930D01*
X232251040Y-81412091D01*
X232029000Y-81533376D01*
X231775000Y-81533376D01*
X231552960Y-81412091D01*
X231288119Y-81506930D01*
X231046869Y-81651615D01*
X230838481Y-81840586D01*
X230670963Y-82066580D01*
X230550754Y-82320913D01*
X230510096Y-82454961D01*
X228017743Y-82454961D01*
X228022958Y-82444974D01*
X227977222Y-82294186D01*
X227850684Y-82029056D01*
X227674854Y-81793707D01*
X227456488Y-81597183D01*
X227360090Y-81539863D01*
X227404606Y-81516069D01*
X227632797Y-81328797D01*
X227820069Y-81100606D01*
X227959225Y-80840264D01*
X228044916Y-80557777D01*
X228073851Y-80264000D01*
X228051052Y-80032526D01*
X228483550Y-79600029D01*
X228517317Y-79572317D01*
X228554580Y-79526913D01*
X228627910Y-79437560D01*
X228627911Y-79437559D01*
X228710089Y-79283813D01*
X228760695Y-79116990D01*
X228773500Y-78986977D01*
X228773500Y-78986967D01*
X228777781Y-78943501D01*
X228773500Y-78900034D01*
X228773500Y-77064890D01*
X235032524Y-77064890D01*
X235077175Y-77212099D01*
X235202359Y-77474920D01*
X235376412Y-77708269D01*
X235592645Y-77903178D01*
X235842748Y-78052157D01*
X236117109Y-78149481D01*
X236347000Y-78028814D01*
X236347000Y-76835000D01*
X236601000Y-76835000D01*
X236601000Y-78028814D01*
X236830891Y-78149481D01*
X237105252Y-78052157D01*
X237355355Y-77903178D01*
X237571588Y-77708269D01*
X237745641Y-77474920D01*
X237870825Y-77212099D01*
X237915476Y-77064890D01*
X237794155Y-76835000D01*
X236601000Y-76835000D01*
X236347000Y-76835000D01*
X235153845Y-76835000D01*
X235032524Y-77064890D01*
X228773500Y-77064890D01*
X228773500Y-76160869D01*
X228777781Y-76117400D01*
X228773500Y-76073931D01*
X228773500Y-76073923D01*
X228760695Y-75943910D01*
X228728724Y-75838517D01*
X228710089Y-75777086D01*
X228627911Y-75623341D01*
X228545032Y-75522353D01*
X228545030Y-75522351D01*
X228517317Y-75488583D01*
X228483549Y-75460870D01*
X227637334Y-74614656D01*
X227609617Y-74580883D01*
X227474859Y-74470289D01*
X227321113Y-74388111D01*
X227154290Y-74337505D01*
X227024277Y-74324700D01*
X227024269Y-74324700D01*
X226980800Y-74320419D01*
X226937331Y-74324700D01*
X215155765Y-74324700D01*
X215112299Y-74320419D01*
X215068833Y-74324700D01*
X215068823Y-74324700D01*
X214938810Y-74337505D01*
X214771987Y-74388111D01*
X214618241Y-74470289D01*
X214618239Y-74470290D01*
X214618240Y-74470290D01*
X214517253Y-74553168D01*
X214517251Y-74553170D01*
X214483483Y-74580883D01*
X214455770Y-74614651D01*
X212848094Y-76222328D01*
X211734400Y-76222328D01*
X211609918Y-76234588D01*
X211490220Y-76270898D01*
X211379906Y-76329863D01*
X211283215Y-76409215D01*
X211203863Y-76505906D01*
X211144898Y-76616220D01*
X211108588Y-76735918D01*
X211096328Y-76860400D01*
X211096328Y-78587600D01*
X211108588Y-78712082D01*
X211144898Y-78831780D01*
X211203863Y-78942094D01*
X211283215Y-79038785D01*
X211379906Y-79118137D01*
X211490220Y-79177102D01*
X211541265Y-79192586D01*
X211533203Y-79199203D01*
X211345931Y-79427394D01*
X211206775Y-79687736D01*
X211121084Y-79970223D01*
X211092149Y-80264000D01*
X211121084Y-80557777D01*
X211206775Y-80840264D01*
X211345931Y-81100606D01*
X211533203Y-81328797D01*
X211761394Y-81516069D01*
X211794940Y-81534000D01*
X211761394Y-81551931D01*
X211533203Y-81739203D01*
X211345931Y-81967394D01*
X211206775Y-82227736D01*
X211121084Y-82510223D01*
X211092149Y-82804000D01*
X211121084Y-83097777D01*
X211206775Y-83380264D01*
X211345931Y-83640606D01*
X211533203Y-83868797D01*
X211761394Y-84056069D01*
X211794940Y-84074000D01*
X211761394Y-84091931D01*
X211533203Y-84279203D01*
X211385647Y-84459000D01*
X207033765Y-84459000D01*
X206990299Y-84454719D01*
X206946833Y-84459000D01*
X206946823Y-84459000D01*
X206816810Y-84471805D01*
X206649987Y-84522411D01*
X206496241Y-84604589D01*
X206496239Y-84604590D01*
X206496240Y-84604590D01*
X206395253Y-84687468D01*
X206395251Y-84687470D01*
X206361483Y-84715183D01*
X206333770Y-84748951D01*
X204472906Y-86609816D01*
X204255101Y-86431068D01*
X204122142Y-86360000D01*
X204255101Y-86288932D01*
X204473608Y-86109608D01*
X204652932Y-85891101D01*
X204786182Y-85641808D01*
X204868236Y-85371309D01*
X204895943Y-85090000D01*
X204868236Y-84808691D01*
X204786182Y-84538192D01*
X204652932Y-84288899D01*
X204473608Y-84070392D01*
X204255101Y-83891068D01*
X204122142Y-83820000D01*
X204255101Y-83748932D01*
X204473608Y-83569608D01*
X204652932Y-83351101D01*
X204786182Y-83101808D01*
X204868236Y-82831309D01*
X204895943Y-82550000D01*
X204868236Y-82268691D01*
X204786182Y-81998192D01*
X204652932Y-81748899D01*
X204473608Y-81530392D01*
X204255101Y-81351068D01*
X204117318Y-81277421D01*
X204309131Y-81162385D01*
X204517519Y-80973414D01*
X204685037Y-80747420D01*
X204805246Y-80493087D01*
X204845904Y-80359039D01*
X204723915Y-80137000D01*
X203581000Y-80137000D01*
X203581000Y-80157000D01*
X203327000Y-80157000D01*
X203327000Y-80137000D01*
X202184085Y-80137000D01*
X202062096Y-80359039D01*
X202102754Y-80493087D01*
X202222963Y-80747420D01*
X202390481Y-80973414D01*
X202598869Y-81162385D01*
X202790682Y-81277421D01*
X202652899Y-81351068D01*
X202434392Y-81530392D01*
X202255068Y-81748899D01*
X202121818Y-81998192D01*
X202039764Y-82268691D01*
X202012057Y-82550000D01*
X202039764Y-82831309D01*
X202121818Y-83101808D01*
X202255068Y-83351101D01*
X202434392Y-83569608D01*
X202652899Y-83748932D01*
X202785858Y-83820000D01*
X202652899Y-83891068D01*
X202574998Y-83955000D01*
X202314500Y-83955000D01*
X202314500Y-83910951D01*
X202319991Y-83855200D01*
X202305065Y-83703647D01*
X202298077Y-83632701D01*
X202233176Y-83418753D01*
X202127784Y-83221577D01*
X201985949Y-83048751D01*
X201942641Y-83013209D01*
X198176296Y-79246865D01*
X198140749Y-79203551D01*
X197967923Y-79061716D01*
X197770747Y-78956324D01*
X197556799Y-78891423D01*
X197390052Y-78875000D01*
X197390051Y-78875000D01*
X197334300Y-78869509D01*
X197278549Y-78875000D01*
X196713002Y-78875000D01*
X196635101Y-78811068D01*
X196502142Y-78740000D01*
X196635101Y-78668932D01*
X196853608Y-78489608D01*
X197032932Y-78271101D01*
X197166182Y-78021808D01*
X197248236Y-77751309D01*
X197275943Y-77470000D01*
X197248236Y-77188691D01*
X197166182Y-76918192D01*
X197032932Y-76668899D01*
X196853608Y-76450392D01*
X196635101Y-76271068D01*
X196502142Y-76200000D01*
X196635101Y-76128932D01*
X196853608Y-75949608D01*
X197032932Y-75731101D01*
X197166182Y-75481808D01*
X197248236Y-75211309D01*
X197275943Y-74930000D01*
X197248236Y-74648691D01*
X197166182Y-74378192D01*
X197032932Y-74128899D01*
X196853608Y-73910392D01*
X196635101Y-73731068D01*
X196502142Y-73660000D01*
X196635101Y-73588932D01*
X196853608Y-73409608D01*
X197032932Y-73191101D01*
X197166182Y-72941808D01*
X197248236Y-72671309D01*
X197275943Y-72390000D01*
X197248236Y-72108691D01*
X197216782Y-72005000D01*
X198027122Y-72005000D01*
X201547170Y-75525049D01*
X201574883Y-75558817D01*
X201608651Y-75586530D01*
X201608653Y-75586532D01*
X201709641Y-75669411D01*
X201863386Y-75751589D01*
X201947438Y-75777086D01*
X202030210Y-75802195D01*
X202160223Y-75815000D01*
X202160231Y-75815000D01*
X202203700Y-75819281D01*
X202247169Y-75815000D01*
X202323922Y-75815000D01*
X202434392Y-75949608D01*
X202652899Y-76128932D01*
X202785858Y-76200000D01*
X202652899Y-76271068D01*
X202434392Y-76450392D01*
X202255068Y-76668899D01*
X202121818Y-76918192D01*
X202039764Y-77188691D01*
X202012057Y-77470000D01*
X202039764Y-77751309D01*
X202121818Y-78021808D01*
X202255068Y-78271101D01*
X202434392Y-78489608D01*
X202652899Y-78668932D01*
X202790682Y-78742579D01*
X202598869Y-78857615D01*
X202390481Y-79046586D01*
X202222963Y-79272580D01*
X202102754Y-79526913D01*
X202062096Y-79660961D01*
X202184085Y-79883000D01*
X203327000Y-79883000D01*
X203327000Y-79863000D01*
X203581000Y-79863000D01*
X203581000Y-79883000D01*
X204723915Y-79883000D01*
X204845904Y-79660961D01*
X204805246Y-79526913D01*
X204685037Y-79272580D01*
X204517519Y-79046586D01*
X204309131Y-78857615D01*
X204117318Y-78742579D01*
X204255101Y-78668932D01*
X204473608Y-78489608D01*
X204652932Y-78271101D01*
X204786182Y-78021808D01*
X204868236Y-77751309D01*
X204895943Y-77470000D01*
X204868236Y-77188691D01*
X204786182Y-76918192D01*
X204652932Y-76668899D01*
X204473608Y-76450392D01*
X204255101Y-76271068D01*
X204122142Y-76200000D01*
X204255101Y-76128932D01*
X204473608Y-75949608D01*
X204652932Y-75731101D01*
X204786182Y-75481808D01*
X204868236Y-75211309D01*
X204895943Y-74930000D01*
X204868236Y-74648691D01*
X204786182Y-74378192D01*
X204652932Y-74128899D01*
X204473608Y-73910392D01*
X204255101Y-73731068D01*
X204122142Y-73660000D01*
X204255101Y-73588932D01*
X204473608Y-73409608D01*
X204584078Y-73275000D01*
X233029122Y-73275000D01*
X234517170Y-74763049D01*
X234544883Y-74796817D01*
X234578651Y-74824530D01*
X234578653Y-74824532D01*
X234633309Y-74869387D01*
X234679641Y-74907411D01*
X234833387Y-74989589D01*
X234987741Y-75036413D01*
X234998188Y-75142482D01*
X235034498Y-75262180D01*
X235093463Y-75372494D01*
X235172815Y-75469185D01*
X235269506Y-75548537D01*
X235379820Y-75607502D01*
X235460466Y-75631966D01*
X235376412Y-75707731D01*
X235202359Y-75941080D01*
X235077175Y-76203901D01*
X235032524Y-76351110D01*
X235153845Y-76581000D01*
X236347000Y-76581000D01*
X236347000Y-76561000D01*
X236601000Y-76561000D01*
X236601000Y-76581000D01*
X237794155Y-76581000D01*
X237915476Y-76351110D01*
X237903815Y-76312665D01*
X243755000Y-76312665D01*
X243755000Y-76595335D01*
X243810147Y-76872574D01*
X243918320Y-77133727D01*
X244075363Y-77368759D01*
X244275241Y-77568637D01*
X244510273Y-77725680D01*
X244771426Y-77833853D01*
X245048665Y-77889000D01*
X245331335Y-77889000D01*
X245608574Y-77833853D01*
X245869727Y-77725680D01*
X246104759Y-77568637D01*
X246226694Y-77446702D01*
X249376903Y-77446702D01*
X249448486Y-77690671D01*
X249703996Y-77811571D01*
X249978184Y-77880300D01*
X250260512Y-77894217D01*
X250540130Y-77852787D01*
X250806292Y-77757603D01*
X250931514Y-77690671D01*
X251003097Y-77446702D01*
X250190000Y-76633605D01*
X249376903Y-77446702D01*
X246226694Y-77446702D01*
X246304637Y-77368759D01*
X246461680Y-77133727D01*
X246569853Y-76872574D01*
X246625000Y-76595335D01*
X246625000Y-76524512D01*
X248749783Y-76524512D01*
X248791213Y-76804130D01*
X248886397Y-77070292D01*
X248953329Y-77195514D01*
X249197298Y-77267097D01*
X250010395Y-76454000D01*
X250369605Y-76454000D01*
X251182702Y-77267097D01*
X251426671Y-77195514D01*
X251547571Y-76940004D01*
X251616300Y-76665816D01*
X251630217Y-76383488D01*
X251588787Y-76103870D01*
X251493603Y-75837708D01*
X251426671Y-75712486D01*
X251182702Y-75640903D01*
X250369605Y-76454000D01*
X250010395Y-76454000D01*
X249197298Y-75640903D01*
X248953329Y-75712486D01*
X248832429Y-75967996D01*
X248763700Y-76242184D01*
X248749783Y-76524512D01*
X246625000Y-76524512D01*
X246625000Y-76312665D01*
X246569853Y-76035426D01*
X246461680Y-75774273D01*
X246304637Y-75539241D01*
X246226694Y-75461298D01*
X249376903Y-75461298D01*
X250190000Y-76274395D01*
X251003097Y-75461298D01*
X250931514Y-75217329D01*
X250676004Y-75096429D01*
X250401816Y-75027700D01*
X250119488Y-75013783D01*
X249839870Y-75055213D01*
X249573708Y-75150397D01*
X249448486Y-75217329D01*
X249376903Y-75461298D01*
X246226694Y-75461298D01*
X246104759Y-75339363D01*
X245869727Y-75182320D01*
X245608574Y-75074147D01*
X245331335Y-75019000D01*
X245048665Y-75019000D01*
X244771426Y-75074147D01*
X244510273Y-75182320D01*
X244275241Y-75339363D01*
X244075363Y-75539241D01*
X243918320Y-75774273D01*
X243810147Y-76035426D01*
X243755000Y-76312665D01*
X237903815Y-76312665D01*
X237870825Y-76203901D01*
X237745641Y-75941080D01*
X237571588Y-75707731D01*
X237487534Y-75631966D01*
X237568180Y-75607502D01*
X237678494Y-75548537D01*
X237775185Y-75469185D01*
X237854537Y-75372494D01*
X237913502Y-75262180D01*
X237949812Y-75142482D01*
X237962072Y-75018000D01*
X237962072Y-73318000D01*
X237949812Y-73193518D01*
X237913502Y-73073820D01*
X237854537Y-72963506D01*
X237775185Y-72866815D01*
X237678494Y-72787463D01*
X237568180Y-72728498D01*
X237448482Y-72692188D01*
X237324000Y-72679928D01*
X235624000Y-72679928D01*
X235499518Y-72692188D01*
X235379820Y-72728498D01*
X235269506Y-72787463D01*
X235172815Y-72866815D01*
X235150854Y-72893575D01*
X234052234Y-71794956D01*
X234024517Y-71761183D01*
X233889759Y-71650589D01*
X233736013Y-71568411D01*
X233569190Y-71517805D01*
X233439177Y-71505000D01*
X233439169Y-71505000D01*
X233395700Y-71500719D01*
X233352231Y-71505000D01*
X204584078Y-71505000D01*
X204473608Y-71370392D01*
X204255101Y-71191068D01*
X204122142Y-71120000D01*
X204255101Y-71048932D01*
X204473608Y-70869608D01*
X204652932Y-70651101D01*
X204786182Y-70401808D01*
X204868236Y-70131309D01*
X204895943Y-69850000D01*
X204868236Y-69568691D01*
X204842758Y-69484700D01*
X207982531Y-69484700D01*
X208026000Y-69488981D01*
X208069469Y-69484700D01*
X208069477Y-69484700D01*
X208199490Y-69471895D01*
X208366313Y-69421289D01*
X208520059Y-69339111D01*
X208654817Y-69228517D01*
X208682534Y-69194744D01*
X209293094Y-68584184D01*
X209510899Y-68762932D01*
X209760192Y-68896182D01*
X210030691Y-68978236D01*
X210241508Y-68999000D01*
X210382492Y-68999000D01*
X210593309Y-68978236D01*
X210863808Y-68896182D01*
X211113101Y-68762932D01*
X211331608Y-68583608D01*
X211510932Y-68365101D01*
X211644182Y-68115808D01*
X211726236Y-67845309D01*
X211753943Y-67564000D01*
X211726236Y-67282691D01*
X211644182Y-67012192D01*
X211597523Y-66924900D01*
X216643492Y-66924900D01*
X216552147Y-67145426D01*
X216497000Y-67422665D01*
X216497000Y-67705335D01*
X216552147Y-67982574D01*
X216660320Y-68243727D01*
X216817363Y-68478759D01*
X217017241Y-68678637D01*
X217252273Y-68835680D01*
X217513426Y-68943853D01*
X217790665Y-68999000D01*
X218073335Y-68999000D01*
X218350574Y-68943853D01*
X218611727Y-68835680D01*
X218846759Y-68678637D01*
X219046637Y-68478759D01*
X219203680Y-68243727D01*
X219311853Y-67982574D01*
X219367000Y-67705335D01*
X219367000Y-67422665D01*
X219311853Y-67145426D01*
X219220508Y-66924900D01*
X233860331Y-66924900D01*
X233903800Y-66929181D01*
X233947269Y-66924900D01*
X233947277Y-66924900D01*
X234077290Y-66912095D01*
X234244113Y-66861489D01*
X234397859Y-66779311D01*
X234532617Y-66668717D01*
X234560334Y-66634944D01*
X235150854Y-66044425D01*
X235172815Y-66071185D01*
X235269506Y-66150537D01*
X235379820Y-66209502D01*
X235448687Y-66230393D01*
X235418866Y-66254866D01*
X235233294Y-66480986D01*
X235095401Y-66738966D01*
X235010487Y-67018889D01*
X234981815Y-67310000D01*
X235010487Y-67601111D01*
X235095401Y-67881034D01*
X235233294Y-68139014D01*
X235418866Y-68365134D01*
X235644986Y-68550706D01*
X235902966Y-68688599D01*
X236182889Y-68773513D01*
X236401050Y-68795000D01*
X236546950Y-68795000D01*
X236765111Y-68773513D01*
X237045034Y-68688599D01*
X237303014Y-68550706D01*
X237529134Y-68365134D01*
X237714706Y-68139014D01*
X237852599Y-67881034D01*
X237937513Y-67601111D01*
X237966185Y-67310000D01*
X237937513Y-67018889D01*
X237852599Y-66738966D01*
X237714706Y-66480986D01*
X237529134Y-66254866D01*
X237499313Y-66230393D01*
X237568180Y-66209502D01*
X237678494Y-66150537D01*
X237775185Y-66071185D01*
X237854537Y-65974494D01*
X237913502Y-65864180D01*
X237949812Y-65744482D01*
X237958625Y-65655000D01*
X243979922Y-65655000D01*
X244090392Y-65789608D01*
X244225000Y-65900078D01*
X244225001Y-68810223D01*
X244225001Y-68973921D01*
X244090392Y-69084392D01*
X243911068Y-69302899D01*
X243777818Y-69552192D01*
X243695764Y-69822691D01*
X243668057Y-70104000D01*
X243695764Y-70385309D01*
X243777818Y-70655808D01*
X243911068Y-70905101D01*
X244090392Y-71123608D01*
X244308899Y-71302932D01*
X244558192Y-71436182D01*
X244828691Y-71518236D01*
X245039508Y-71539000D01*
X245180492Y-71539000D01*
X245391309Y-71518236D01*
X245661808Y-71436182D01*
X245911101Y-71302932D01*
X246129608Y-71123608D01*
X246308932Y-70905101D01*
X246442182Y-70655808D01*
X246524236Y-70385309D01*
X246551943Y-70104000D01*
X246524236Y-69822691D01*
X246442182Y-69552192D01*
X246309521Y-69304000D01*
X251291928Y-69304000D01*
X251291928Y-70904000D01*
X251304188Y-71028482D01*
X251340498Y-71148180D01*
X251399463Y-71258494D01*
X251478815Y-71355185D01*
X251575506Y-71434537D01*
X251685820Y-71493502D01*
X251805518Y-71529812D01*
X251930000Y-71542072D01*
X253530000Y-71542072D01*
X253654482Y-71529812D01*
X253774180Y-71493502D01*
X253884494Y-71434537D01*
X253981185Y-71355185D01*
X254060537Y-71258494D01*
X254119502Y-71148180D01*
X254155812Y-71028482D01*
X254168072Y-70904000D01*
X254168072Y-69304000D01*
X254155812Y-69179518D01*
X254119502Y-69059820D01*
X254060537Y-68949506D01*
X253981185Y-68852815D01*
X253884494Y-68773463D01*
X253774180Y-68714498D01*
X253654482Y-68678188D01*
X253530000Y-68665928D01*
X251930000Y-68665928D01*
X251805518Y-68678188D01*
X251685820Y-68714498D01*
X251575506Y-68773463D01*
X251478815Y-68852815D01*
X251399463Y-68949506D01*
X251340498Y-69059820D01*
X251304188Y-69179518D01*
X251291928Y-69304000D01*
X246309521Y-69304000D01*
X246308932Y-69302899D01*
X246129608Y-69084392D01*
X245995000Y-68973922D01*
X245995000Y-65900078D01*
X246129608Y-65789608D01*
X246308932Y-65571101D01*
X246442182Y-65321808D01*
X246524236Y-65051309D01*
X246551943Y-64770000D01*
X246538023Y-64628665D01*
X251295000Y-64628665D01*
X251295000Y-64911335D01*
X251350147Y-65188574D01*
X251458320Y-65449727D01*
X251615363Y-65684759D01*
X251815241Y-65884637D01*
X252050273Y-66041680D01*
X252311426Y-66149853D01*
X252588665Y-66205000D01*
X252871335Y-66205000D01*
X253148574Y-66149853D01*
X253409727Y-66041680D01*
X253644759Y-65884637D01*
X253844637Y-65684759D01*
X254001680Y-65449727D01*
X254109853Y-65188574D01*
X254165000Y-64911335D01*
X254165000Y-64628665D01*
X254109853Y-64351426D01*
X254001680Y-64090273D01*
X253844637Y-63855241D01*
X253644759Y-63655363D01*
X253409727Y-63498320D01*
X253148574Y-63390147D01*
X252871335Y-63335000D01*
X252588665Y-63335000D01*
X252311426Y-63390147D01*
X252050273Y-63498320D01*
X251815241Y-63655363D01*
X251615363Y-63855241D01*
X251458320Y-64090273D01*
X251350147Y-64351426D01*
X251295000Y-64628665D01*
X246538023Y-64628665D01*
X246524236Y-64488691D01*
X246442182Y-64218192D01*
X246308932Y-63968899D01*
X246129608Y-63750392D01*
X245911101Y-63571068D01*
X245661808Y-63437818D01*
X245391309Y-63355764D01*
X245180492Y-63335000D01*
X245039508Y-63335000D01*
X244828691Y-63355764D01*
X244558192Y-63437818D01*
X244308899Y-63571068D01*
X244090392Y-63750392D01*
X243979922Y-63885000D01*
X237958625Y-63885000D01*
X237949812Y-63795518D01*
X237913502Y-63675820D01*
X237854537Y-63565506D01*
X237775185Y-63468815D01*
X237678494Y-63389463D01*
X237568180Y-63330498D01*
X237448482Y-63294188D01*
X237324000Y-63281928D01*
X235624000Y-63281928D01*
X235499518Y-63294188D01*
X235379820Y-63330498D01*
X235269506Y-63389463D01*
X235172815Y-63468815D01*
X235093463Y-63565506D01*
X235034498Y-63675820D01*
X234998188Y-63795518D01*
X234987741Y-63901587D01*
X234833387Y-63948411D01*
X234679641Y-64030589D01*
X234578653Y-64113468D01*
X234578651Y-64113470D01*
X234544883Y-64141183D01*
X234517170Y-64174951D01*
X233537222Y-65154900D01*
X204836812Y-65154900D01*
X204868236Y-65051309D01*
X204895943Y-64770000D01*
X204868236Y-64488691D01*
X204786182Y-64218192D01*
X204652932Y-63968899D01*
X204473608Y-63750392D01*
X204255101Y-63571068D01*
X204005808Y-63437818D01*
X203735309Y-63355764D01*
X203524492Y-63335000D01*
X203383508Y-63335000D01*
X203172691Y-63355764D01*
X202902192Y-63437818D01*
X202652899Y-63571068D01*
X202434392Y-63750392D01*
X202255068Y-63968899D01*
X202121818Y-64218192D01*
X202039764Y-64488691D01*
X202012057Y-64770000D01*
X202039764Y-65051309D01*
X202071188Y-65154900D01*
X198720779Y-65154900D01*
X197740834Y-64174956D01*
X197713117Y-64141183D01*
X197578359Y-64030589D01*
X197424613Y-63948411D01*
X197265183Y-63900048D01*
X197259812Y-63845518D01*
X197223502Y-63725820D01*
X197164537Y-63615506D01*
X197085185Y-63518815D01*
X196988494Y-63439463D01*
X196878180Y-63380498D01*
X196758482Y-63344188D01*
X196634000Y-63331928D01*
X196236750Y-63331928D01*
X199766013Y-59802665D01*
X243929000Y-59802665D01*
X243929000Y-60085335D01*
X243984147Y-60362574D01*
X244092320Y-60623727D01*
X244249363Y-60858759D01*
X244449241Y-61058637D01*
X244684273Y-61215680D01*
X244945426Y-61323853D01*
X245222665Y-61379000D01*
X245505335Y-61379000D01*
X245782574Y-61323853D01*
X246043727Y-61215680D01*
X246278759Y-61058637D01*
X246478637Y-60858759D01*
X246635680Y-60623727D01*
X246743853Y-60362574D01*
X246799000Y-60085335D01*
X246799000Y-59802665D01*
X246743853Y-59525426D01*
X246635680Y-59264273D01*
X246478637Y-59029241D01*
X246278759Y-58829363D01*
X246043727Y-58672320D01*
X245782574Y-58564147D01*
X245505335Y-58509000D01*
X245222665Y-58509000D01*
X244945426Y-58564147D01*
X244684273Y-58672320D01*
X244449241Y-58829363D01*
X244249363Y-59029241D01*
X244092320Y-59264273D01*
X243984147Y-59525426D01*
X243929000Y-59802665D01*
X199766013Y-59802665D01*
X200437379Y-59131300D01*
X219505931Y-59131300D01*
X219549400Y-59135581D01*
X219592869Y-59131300D01*
X219592877Y-59131300D01*
X219722890Y-59118495D01*
X219889713Y-59067889D01*
X220043459Y-58985711D01*
X220178217Y-58875117D01*
X220205934Y-58841344D01*
X220854316Y-58192963D01*
X220898815Y-58247185D01*
X220995506Y-58326537D01*
X221105820Y-58385502D01*
X221225518Y-58421812D01*
X221350000Y-58434072D01*
X223150000Y-58434072D01*
X223274482Y-58421812D01*
X223394180Y-58385502D01*
X223504494Y-58326537D01*
X223601185Y-58247185D01*
X223680537Y-58150494D01*
X223739502Y-58040180D01*
X223745056Y-58021873D01*
X223811495Y-58088312D01*
X224062905Y-58256299D01*
X224342257Y-58372011D01*
X224638816Y-58431000D01*
X224941184Y-58431000D01*
X225237743Y-58372011D01*
X225517095Y-58256299D01*
X225768505Y-58088312D01*
X225982312Y-57874505D01*
X226044790Y-57781000D01*
X227977922Y-57781000D01*
X228088392Y-57915608D01*
X228306899Y-58094932D01*
X228556192Y-58228182D01*
X228826691Y-58310236D01*
X229037508Y-58331000D01*
X229178492Y-58331000D01*
X229389309Y-58310236D01*
X229659808Y-58228182D01*
X229909101Y-58094932D01*
X230127608Y-57915608D01*
X230306932Y-57697101D01*
X230440182Y-57447808D01*
X230522236Y-57177309D01*
X230549943Y-56896000D01*
X230536023Y-56754665D01*
X235293000Y-56754665D01*
X235293000Y-57037335D01*
X235348147Y-57314574D01*
X235456320Y-57575727D01*
X235613363Y-57810759D01*
X235813241Y-58010637D01*
X236048273Y-58167680D01*
X236309426Y-58275853D01*
X236586665Y-58331000D01*
X236869335Y-58331000D01*
X237146574Y-58275853D01*
X237407727Y-58167680D01*
X237612284Y-58031000D01*
X247965569Y-58031000D01*
X250641709Y-60707141D01*
X250677251Y-60750449D01*
X250850077Y-60892284D01*
X250983516Y-60963608D01*
X251047253Y-60997676D01*
X251261201Y-61062577D01*
X251483700Y-61084491D01*
X251539451Y-61079000D01*
X252104998Y-61079000D01*
X252182899Y-61142932D01*
X252432192Y-61276182D01*
X252702691Y-61358236D01*
X252913508Y-61379000D01*
X253054492Y-61379000D01*
X253265309Y-61358236D01*
X253535808Y-61276182D01*
X253785101Y-61142932D01*
X254003608Y-60963608D01*
X254182932Y-60745101D01*
X254316182Y-60495808D01*
X254398236Y-60225309D01*
X254425943Y-59944000D01*
X254398236Y-59662691D01*
X254316182Y-59392192D01*
X254182932Y-59142899D01*
X254003608Y-58924392D01*
X253785101Y-58745068D01*
X253535808Y-58611818D01*
X253265309Y-58529764D01*
X253054492Y-58509000D01*
X252913508Y-58509000D01*
X252702691Y-58529764D01*
X252432192Y-58611818D01*
X252182899Y-58745068D01*
X252104998Y-58809000D01*
X251953832Y-58809000D01*
X249277696Y-56132865D01*
X249242149Y-56089551D01*
X249069323Y-55947716D01*
X248872147Y-55842324D01*
X248658199Y-55777423D01*
X248491452Y-55761000D01*
X248491451Y-55761000D01*
X248435700Y-55755509D01*
X248379949Y-55761000D01*
X237612284Y-55761000D01*
X237407727Y-55624320D01*
X237146574Y-55516147D01*
X236869335Y-55461000D01*
X236586665Y-55461000D01*
X236309426Y-55516147D01*
X236048273Y-55624320D01*
X235813241Y-55781363D01*
X235613363Y-55981241D01*
X235456320Y-56216273D01*
X235348147Y-56477426D01*
X235293000Y-56754665D01*
X230536023Y-56754665D01*
X230522236Y-56614691D01*
X230440182Y-56344192D01*
X230306932Y-56094899D01*
X230127608Y-55876392D01*
X229909101Y-55697068D01*
X229659808Y-55563818D01*
X229389309Y-55481764D01*
X229178492Y-55461000D01*
X229037508Y-55461000D01*
X228826691Y-55481764D01*
X228556192Y-55563818D01*
X228306899Y-55697068D01*
X228088392Y-55876392D01*
X227977922Y-56011000D01*
X226044790Y-56011000D01*
X225982312Y-55917495D01*
X225768505Y-55703688D01*
X225517095Y-55535701D01*
X225237743Y-55419989D01*
X224941184Y-55361000D01*
X224638816Y-55361000D01*
X224342257Y-55419989D01*
X224062905Y-55535701D01*
X223811495Y-55703688D01*
X223745056Y-55770127D01*
X223739502Y-55751820D01*
X223680537Y-55641506D01*
X223601185Y-55544815D01*
X223504494Y-55465463D01*
X223394180Y-55406498D01*
X223274482Y-55370188D01*
X223150000Y-55357928D01*
X221350000Y-55357928D01*
X221225518Y-55370188D01*
X221105820Y-55406498D01*
X220995506Y-55465463D01*
X220898815Y-55544815D01*
X220819463Y-55641506D01*
X220760498Y-55751820D01*
X220724188Y-55871518D01*
X220711928Y-55996000D01*
X220711928Y-56028137D01*
X220559386Y-56074411D01*
X220405641Y-56156589D01*
X220304653Y-56239468D01*
X220304651Y-56239470D01*
X220270883Y-56267183D01*
X220243170Y-56300951D01*
X219182822Y-57361300D01*
X218708072Y-57361300D01*
X218708072Y-55996000D01*
X218695812Y-55871518D01*
X218659502Y-55751820D01*
X218600537Y-55641506D01*
X218521185Y-55544815D01*
X218424494Y-55465463D01*
X218314180Y-55406498D01*
X218194482Y-55370188D01*
X218070000Y-55357928D01*
X216270000Y-55357928D01*
X216145518Y-55370188D01*
X216025820Y-55406498D01*
X215915506Y-55465463D01*
X215818815Y-55544815D01*
X215739463Y-55641506D01*
X215680498Y-55751820D01*
X215674944Y-55770127D01*
X215608505Y-55703688D01*
X215357095Y-55535701D01*
X215077743Y-55419989D01*
X214781184Y-55361000D01*
X214478816Y-55361000D01*
X214182257Y-55419989D01*
X213902905Y-55535701D01*
X213651495Y-55703688D01*
X213437688Y-55917495D01*
X213375210Y-56011000D01*
X210934078Y-56011000D01*
X210823608Y-55876392D01*
X210605101Y-55697068D01*
X210355808Y-55563818D01*
X210085309Y-55481764D01*
X209874492Y-55461000D01*
X209733508Y-55461000D01*
X209522691Y-55481764D01*
X209252192Y-55563818D01*
X209002899Y-55697068D01*
X208784392Y-55876392D01*
X208605068Y-56094899D01*
X208471818Y-56344192D01*
X208389764Y-56614691D01*
X208362057Y-56896000D01*
X208389764Y-57177309D01*
X208445576Y-57361300D01*
X203544498Y-57361300D01*
X203563853Y-57314574D01*
X203619000Y-57037335D01*
X203619000Y-56754665D01*
X203563853Y-56477426D01*
X203455680Y-56216273D01*
X203298637Y-55981241D01*
X203098759Y-55781363D01*
X202863727Y-55624320D01*
X202602574Y-55516147D01*
X202325335Y-55461000D01*
X202042665Y-55461000D01*
X201765426Y-55516147D01*
X201504273Y-55624320D01*
X201269241Y-55781363D01*
X201069363Y-55981241D01*
X200912320Y-56216273D01*
X200804147Y-56477426D01*
X200749000Y-56754665D01*
X200749000Y-57037335D01*
X200804147Y-57314574D01*
X200823502Y-57361300D01*
X200114269Y-57361300D01*
X200070800Y-57357019D01*
X200027331Y-57361300D01*
X200027323Y-57361300D01*
X199912106Y-57372648D01*
X199897309Y-57374105D01*
X199846703Y-57389457D01*
X199730487Y-57424711D01*
X199576741Y-57506889D01*
X199576739Y-57506890D01*
X199576740Y-57506890D01*
X199475753Y-57589768D01*
X199475751Y-57589770D01*
X199441983Y-57617483D01*
X199414270Y-57651251D01*
X193945752Y-63119770D01*
X193911984Y-63147483D01*
X193884271Y-63181251D01*
X193884268Y-63181254D01*
X193801390Y-63282241D01*
X193719212Y-63435987D01*
X193668605Y-63602810D01*
X193651519Y-63776300D01*
X193655801Y-63819779D01*
X193655800Y-70322131D01*
X193651519Y-70365600D01*
X193655800Y-70409069D01*
X193655800Y-70409076D01*
X193668605Y-70539089D01*
X193719211Y-70705912D01*
X193801389Y-70859658D01*
X193911983Y-70994417D01*
X193945756Y-71022134D01*
X194592381Y-71668760D01*
X194501818Y-71838192D01*
X194419764Y-72108691D01*
X194392057Y-72390000D01*
X194419764Y-72671309D01*
X194501818Y-72941808D01*
X194635068Y-73191101D01*
X194814392Y-73409608D01*
X195032899Y-73588932D01*
X195165858Y-73660000D01*
X195032899Y-73731068D01*
X194814392Y-73910392D01*
X194635068Y-74128899D01*
X194501818Y-74378192D01*
X194419764Y-74648691D01*
X194392057Y-74930000D01*
X194419764Y-75211309D01*
X194501818Y-75481808D01*
X194635068Y-75731101D01*
X194814392Y-75949608D01*
X195032899Y-76128932D01*
X195165858Y-76200000D01*
X195032899Y-76271068D01*
X194814392Y-76450392D01*
X194635068Y-76668899D01*
X194501818Y-76918192D01*
X194419764Y-77188691D01*
X194392057Y-77470000D01*
X194419764Y-77751309D01*
X194501818Y-78021808D01*
X194635068Y-78271101D01*
X194814392Y-78489608D01*
X195032899Y-78668932D01*
X195165858Y-78740000D01*
X195032899Y-78811068D01*
X194814392Y-78990392D01*
X194635068Y-79208899D01*
X194501818Y-79458192D01*
X194419764Y-79728691D01*
X194392057Y-80010000D01*
X194419764Y-80291309D01*
X194451218Y-80395000D01*
X194168579Y-80395000D01*
X187313000Y-73539422D01*
X187313000Y-73269589D01*
X187259775Y-73002011D01*
X187155371Y-72749957D01*
X187003799Y-72523114D01*
X186813000Y-72332315D01*
X186813000Y-67428521D01*
X186842759Y-67408637D01*
X187042637Y-67208759D01*
X187199680Y-66973727D01*
X187307853Y-66712574D01*
X187363000Y-66435335D01*
X187363000Y-66152665D01*
X187307853Y-65875426D01*
X187199680Y-65614273D01*
X187042637Y-65379241D01*
X186842759Y-65179363D01*
X186607727Y-65022320D01*
X186346574Y-64914147D01*
X186069335Y-64859000D01*
X185786665Y-64859000D01*
X185509426Y-64914147D01*
X185248273Y-65022320D01*
X185013241Y-65179363D01*
X184813363Y-65379241D01*
X184656320Y-65614273D01*
X184548147Y-65875426D01*
X184493000Y-66152665D01*
X182357724Y-66152665D01*
X182326787Y-65943870D01*
X182231603Y-65677708D01*
X182164671Y-65552486D01*
X181920702Y-65480903D01*
X181107605Y-66294000D01*
X180748395Y-66294000D01*
X179935298Y-65480903D01*
X179691329Y-65552486D01*
X179570429Y-65807996D01*
X179501700Y-66082184D01*
X179487783Y-66364512D01*
X178037000Y-66364512D01*
X178037000Y-65301298D01*
X180114903Y-65301298D01*
X180928000Y-66114395D01*
X181741097Y-65301298D01*
X181669514Y-65057329D01*
X181414004Y-64936429D01*
X181139816Y-64867700D01*
X180857488Y-64853783D01*
X180577870Y-64895213D01*
X180311708Y-64990397D01*
X180186486Y-65057329D01*
X180114903Y-65301298D01*
X178037000Y-65301298D01*
X178037000Y-56809492D01*
X178147647Y-57010759D01*
X178399175Y-57310518D01*
X178704136Y-57555712D01*
X179050914Y-57737004D01*
X179426300Y-57847486D01*
X179815997Y-57882951D01*
X180205161Y-57842048D01*
X180578969Y-57726336D01*
X180923182Y-57540220D01*
X181224689Y-57290792D01*
X181472007Y-56987550D01*
X181655715Y-56642046D01*
X181768815Y-56267440D01*
X181807000Y-55878000D01*
X181806218Y-55822017D01*
X181757174Y-55433795D01*
X181633659Y-55062493D01*
X181440376Y-54722253D01*
X181184687Y-54426035D01*
X180876333Y-54185123D01*
X180733554Y-54113000D01*
X253869922Y-54113000D01*
X253657719Y-54231596D01*
X253657719Y-54231596D01*
G37*
X253657719Y-54231596D02*
X253359724Y-54485210D01*
X253116664Y-54791875D01*
X252937798Y-55139910D01*
X252829939Y-55516059D01*
X252797195Y-55905994D01*
X252840814Y-56294863D01*
X252959134Y-56667854D01*
X253147647Y-57010759D01*
X253399175Y-57310518D01*
X253704136Y-57555712D01*
X254050914Y-57737004D01*
X254426300Y-57847486D01*
X254815997Y-57882951D01*
X255205161Y-57842048D01*
X255578969Y-57726336D01*
X255923182Y-57540220D01*
X256224689Y-57290792D01*
X256472007Y-56987550D01*
X256567001Y-56808893D01*
X256567000Y-99945152D01*
X256440376Y-99722253D01*
X256184687Y-99426035D01*
X255876333Y-99185123D01*
X255527057Y-99008691D01*
X255150165Y-98903460D01*
X254760010Y-98873440D01*
X254371456Y-98919772D01*
X253999300Y-99040693D01*
X253657719Y-99231596D01*
X253359724Y-99485210D01*
X253116664Y-99791875D01*
X252937798Y-100139910D01*
X252829939Y-100516059D01*
X252797195Y-100905994D01*
X252840814Y-101294863D01*
X252959134Y-101667854D01*
X253147647Y-102010759D01*
X253399175Y-102310518D01*
X253704136Y-102555712D01*
X253871102Y-102643000D01*
X180733095Y-102643000D01*
X180923182Y-102540220D01*
X181224689Y-102290792D01*
X181472007Y-101987550D01*
X181655715Y-101642046D01*
X181768815Y-101267440D01*
X181807000Y-100878000D01*
X181806218Y-100822017D01*
X181757174Y-100433795D01*
X181633659Y-100062493D01*
X181440376Y-99722253D01*
X181184687Y-99426035D01*
X180876333Y-99185123D01*
X180527057Y-99008691D01*
X180150165Y-98903460D01*
X179760010Y-98873440D01*
X179371456Y-98919772D01*
X178999300Y-99040693D01*
X178657719Y-99231596D01*
X178359724Y-99485210D01*
X178116664Y-99791875D01*
X178037000Y-99946884D01*
X178037000Y-96520000D01*
X184689815Y-96520000D01*
X184718487Y-96811111D01*
X184803401Y-97091034D01*
X184941294Y-97349014D01*
X185126866Y-97575134D01*
X185156687Y-97599607D01*
X185087820Y-97620498D01*
X184977506Y-97679463D01*
X184880815Y-97758815D01*
X184801463Y-97855506D01*
X184742498Y-97965820D01*
X184706188Y-98085518D01*
X184693928Y-98210000D01*
X184693928Y-99910000D01*
X184706188Y-100034482D01*
X184742498Y-100154180D01*
X184801463Y-100264494D01*
X184880815Y-100361185D01*
X184977506Y-100440537D01*
X185087820Y-100499502D01*
X185207518Y-100535812D01*
X185332000Y-100548072D01*
X187032000Y-100548072D01*
X187156482Y-100535812D01*
X187276180Y-100499502D01*
X187386494Y-100440537D01*
X187483185Y-100361185D01*
X187562537Y-100264494D01*
X187621502Y-100154180D01*
X187657812Y-100034482D01*
X187670072Y-99910000D01*
X187670072Y-98210000D01*
X187657812Y-98085518D01*
X187621502Y-97965820D01*
X187562537Y-97855506D01*
X187483185Y-97758815D01*
X187386494Y-97679463D01*
X187276180Y-97620498D01*
X187207313Y-97599607D01*
X187237134Y-97575134D01*
X187422706Y-97349014D01*
X187560599Y-97091034D01*
X187645513Y-96811111D01*
X187674185Y-96520000D01*
X187645513Y-96228889D01*
X187560599Y-95948966D01*
X187422706Y-95690986D01*
X187237134Y-95464866D01*
X187011014Y-95279294D01*
X186753034Y-95141401D01*
X186473111Y-95056487D01*
X186254950Y-95035000D01*
X186109050Y-95035000D01*
X185890889Y-95056487D01*
X185610966Y-95141401D01*
X185352986Y-95279294D01*
X185126866Y-95464866D01*
X184941294Y-95690986D01*
X184803401Y-95948966D01*
X184718487Y-96228889D01*
X184689815Y-96520000D01*
X178037000Y-96520000D01*
X178037000Y-84812702D01*
X180114903Y-84812702D01*
X180186486Y-85056671D01*
X180441996Y-85177571D01*
X180716184Y-85246300D01*
X180998512Y-85260217D01*
X181278130Y-85218787D01*
X181544292Y-85123603D01*
X181669514Y-85056671D01*
X181741097Y-84812702D01*
X180928000Y-83999605D01*
X180114903Y-84812702D01*
X178037000Y-84812702D01*
X178037000Y-83890512D01*
X179487783Y-83890512D01*
X179529213Y-84170130D01*
X179624397Y-84436292D01*
X179691329Y-84561514D01*
X179935298Y-84633097D01*
X180748395Y-83820000D01*
X181107605Y-83820000D01*
X181920702Y-84633097D01*
X182164671Y-84561514D01*
X182285571Y-84306004D01*
X182354300Y-84031816D01*
X182368217Y-83749488D01*
X182326787Y-83469870D01*
X182231603Y-83203708D01*
X182164671Y-83078486D01*
X181920702Y-83006903D01*
X181107605Y-83820000D01*
X180748395Y-83820000D01*
X179935298Y-83006903D01*
X179691329Y-83078486D01*
X179570429Y-83333996D01*
X179501700Y-83608184D01*
X179487783Y-83890512D01*
X178037000Y-83890512D01*
X178037000Y-82827298D01*
X180114903Y-82827298D01*
X180928000Y-83640395D01*
X181741097Y-82827298D01*
X181669514Y-82583329D01*
X181414004Y-82462429D01*
X181139816Y-82393700D01*
X180857488Y-82379783D01*
X180577870Y-82421213D01*
X180311708Y-82516397D01*
X180186486Y-82583329D01*
X180114903Y-82827298D01*
X178037000Y-82827298D01*
X178037000Y-77069589D01*
X184543000Y-77069589D01*
X184543000Y-77342411D01*
X184596225Y-77609989D01*
X184700629Y-77862043D01*
X184852201Y-78088886D01*
X185045114Y-78281799D01*
X185271957Y-78433371D01*
X185524011Y-78537775D01*
X185791589Y-78591000D01*
X186064411Y-78591000D01*
X186331989Y-78537775D01*
X186584043Y-78433371D01*
X186810886Y-78281799D01*
X187003799Y-78088886D01*
X187155371Y-77862043D01*
X187259775Y-77609989D01*
X187313000Y-77342411D01*
X187313000Y-77069589D01*
X187259775Y-76802011D01*
X187155371Y-76549957D01*
X187003799Y-76323114D01*
X186810886Y-76130201D01*
X186584043Y-75978629D01*
X186331989Y-75874225D01*
X186064411Y-75821000D01*
X185791589Y-75821000D01*
X185524011Y-75874225D01*
X185271957Y-75978629D01*
X185045114Y-76130201D01*
X184852201Y-76323114D01*
X184700629Y-76549957D01*
X184596225Y-76802011D01*
X184543000Y-77069589D01*
X178037000Y-77069589D01*
X178037000Y-67286702D01*
X180114903Y-67286702D01*
X180186486Y-67530671D01*
X180441996Y-67651571D01*
X180716184Y-67720300D01*
X180998512Y-67734217D01*
X181278130Y-67692787D01*
X181544292Y-67597603D01*
X181669514Y-67530671D01*
X181741097Y-67286702D01*
X180928000Y-66473605D01*
X180114903Y-67286702D01*
X178037000Y-67286702D01*
X178037000Y-66364512D01*
X179487783Y-66364512D01*
X179529213Y-66644130D01*
X179624397Y-66910292D01*
X179691329Y-67035514D01*
X179935298Y-67107097D01*
X180748395Y-66294000D01*
X181107605Y-66294000D01*
X181920702Y-67107097D01*
X182164671Y-67035514D01*
X182285571Y-66780004D01*
X182354300Y-66505816D01*
X182368217Y-66223488D01*
X182357724Y-66152665D01*
X184493000Y-66152665D01*
X184493000Y-66435335D01*
X184548147Y-66712574D01*
X184656320Y-66973727D01*
X184813363Y-67208759D01*
X185013241Y-67408637D01*
X185043000Y-67428521D01*
X185043001Y-72332314D01*
X184852201Y-72523114D01*
X184700629Y-72749957D01*
X184596225Y-73002011D01*
X184543000Y-73269589D01*
X184543000Y-73542411D01*
X184596225Y-73809989D01*
X184700629Y-74062043D01*
X184852201Y-74288886D01*
X185045114Y-74481799D01*
X185271957Y-74633371D01*
X185524011Y-74737775D01*
X185791589Y-74791000D01*
X186061422Y-74791000D01*
X193145470Y-81875049D01*
X193173183Y-81908817D01*
X193206951Y-81936530D01*
X193206953Y-81936532D01*
X193307941Y-82019411D01*
X193461686Y-82101589D01*
X193628510Y-82152195D01*
X193758523Y-82165000D01*
X193758531Y-82165000D01*
X193802000Y-82169281D01*
X193845469Y-82165000D01*
X194453003Y-82165000D01*
X194442096Y-82200961D01*
X194564085Y-82423000D01*
X195707000Y-82423000D01*
X195707000Y-82403000D01*
X195961000Y-82403000D01*
X195961000Y-82423000D01*
X195981000Y-82423000D01*
X195981000Y-82677000D01*
X195961000Y-82677000D01*
X195961000Y-82697000D01*
X195707000Y-82697000D01*
X195707000Y-82677000D01*
X194564085Y-82677000D01*
X194442096Y-82899039D01*
X194482754Y-83033087D01*
X194602963Y-83287420D01*
X194770481Y-83513414D01*
X194959933Y-83685214D01*
X194944718Y-83839700D01*
X194949001Y-83883186D01*
X194949001Y-83959921D01*
X194814392Y-84070392D01*
X194635068Y-84288899D01*
X194501818Y-84538192D01*
X194419764Y-84808691D01*
X194392057Y-85090000D01*
X194419764Y-85371309D01*
X194501818Y-85641808D01*
X194635068Y-85891101D01*
X194814392Y-86109608D01*
X195032899Y-86288932D01*
X195165858Y-86360000D01*
X195032899Y-86431068D01*
X194814392Y-86610392D01*
X194703922Y-86745000D01*
X190104579Y-86745000D01*
X187356017Y-83996439D01*
X187363000Y-83961335D01*
X187363000Y-83678665D01*
X187307853Y-83401426D01*
X187199680Y-83140273D01*
X187042637Y-82905241D01*
X186842759Y-82705363D01*
X186607727Y-82548320D01*
X186346574Y-82440147D01*
X186069335Y-82385000D01*
X185786665Y-82385000D01*
X185509426Y-82440147D01*
X185248273Y-82548320D01*
X185013241Y-82705363D01*
X184813363Y-82905241D01*
X184656320Y-83140273D01*
X184548147Y-83401426D01*
X184493000Y-83678665D01*
X184493000Y-83961335D01*
X184548147Y-84238574D01*
X184656320Y-84499727D01*
X184813363Y-84734759D01*
X185013241Y-84934637D01*
X185248273Y-85091680D01*
X185509426Y-85199853D01*
X185786665Y-85255000D01*
X186069335Y-85255000D01*
X186104439Y-85248017D01*
X189081470Y-88225049D01*
X189109183Y-88258817D01*
X189142951Y-88286530D01*
X189142953Y-88286532D01*
X189243941Y-88369411D01*
X189397686Y-88451589D01*
X189450678Y-88467664D01*
X189564510Y-88502195D01*
X189694523Y-88515000D01*
X189694531Y-88515000D01*
X189738000Y-88519281D01*
X189781469Y-88515000D01*
X194703922Y-88515000D01*
X194814392Y-88649608D01*
X195032899Y-88828932D01*
X195165858Y-88900000D01*
X195032899Y-88971068D01*
X194814392Y-89150392D01*
X194635068Y-89368899D01*
X194501818Y-89618192D01*
X194419764Y-89888691D01*
X194392057Y-90170000D01*
X194419764Y-90451309D01*
X194501818Y-90721808D01*
X194635068Y-90971101D01*
X194814392Y-91189608D01*
X195032899Y-91368932D01*
X195165858Y-91440000D01*
X195032899Y-91511068D01*
X194814392Y-91690392D01*
X194635068Y-91908899D01*
X194501818Y-92158192D01*
X194419764Y-92428691D01*
X194392057Y-92710000D01*
X194419764Y-92991309D01*
X194501818Y-93261808D01*
X194635068Y-93511101D01*
X194814392Y-93729608D01*
X195032899Y-93908932D01*
X195165858Y-93980000D01*
X195032899Y-94051068D01*
X194814392Y-94230392D01*
X194635068Y-94448899D01*
X194501818Y-94698192D01*
X194419764Y-94968691D01*
X194392057Y-95250000D01*
X194419764Y-95531309D01*
X194501818Y-95801808D01*
X194635068Y-96051101D01*
X194814392Y-96269608D01*
X195032899Y-96448932D01*
X195165858Y-96520000D01*
X195032899Y-96591068D01*
X194814392Y-96770392D01*
X194635068Y-96988899D01*
X194501818Y-97238192D01*
X194419764Y-97508691D01*
X194392057Y-97790000D01*
X194419764Y-98071309D01*
X194501818Y-98341808D01*
X194635068Y-98591101D01*
X194814392Y-98809608D01*
X195032899Y-98988932D01*
X195282192Y-99122182D01*
X195552691Y-99204236D01*
X195763508Y-99225000D01*
X195904492Y-99225000D01*
X196115309Y-99204236D01*
X196385808Y-99122182D01*
X196635101Y-98988932D01*
X196852906Y-98810184D01*
X199472970Y-101430249D01*
X199500683Y-101464017D01*
X199534451Y-101491730D01*
X199534453Y-101491732D01*
X199605952Y-101550410D01*
X199635441Y-101574611D01*
X199789187Y-101656789D01*
X199956010Y-101707395D01*
X200086023Y-101720200D01*
X200086033Y-101720200D01*
X200129499Y-101724481D01*
X200172965Y-101720200D01*
X230337331Y-101720200D01*
X230380800Y-101724481D01*
X230424269Y-101720200D01*
X230424277Y-101720200D01*
X230554290Y-101707395D01*
X230721113Y-101656789D01*
X230874859Y-101574611D01*
X231009617Y-101464017D01*
X231037334Y-101430244D01*
X231725561Y-100742017D01*
X231760665Y-100749000D01*
X232043335Y-100749000D01*
X232320574Y-100693853D01*
X232581727Y-100585680D01*
X232816759Y-100428637D01*
X233016637Y-100228759D01*
X233173680Y-99993727D01*
X233281853Y-99732574D01*
X233337000Y-99455335D01*
X233337000Y-99314000D01*
X238080057Y-99314000D01*
X238107764Y-99595309D01*
X238189818Y-99865808D01*
X238323068Y-100115101D01*
X238502392Y-100333608D01*
X238720899Y-100512932D01*
X238970192Y-100646182D01*
X239240691Y-100728236D01*
X239451508Y-100749000D01*
X239592492Y-100749000D01*
X239803309Y-100728236D01*
X240073808Y-100646182D01*
X240323101Y-100512932D01*
X240541608Y-100333608D01*
X240720932Y-100115101D01*
X240854182Y-99865808D01*
X240936236Y-99595309D01*
X240963943Y-99314000D01*
X240936236Y-99032691D01*
X240854182Y-98762192D01*
X240720932Y-98512899D01*
X240541608Y-98294392D01*
X240323101Y-98115068D01*
X240073808Y-97981818D01*
X239803309Y-97899764D01*
X239592492Y-97879000D01*
X239451508Y-97879000D01*
X239240691Y-97899764D01*
X238970192Y-97981818D01*
X238720899Y-98115068D01*
X238502392Y-98294392D01*
X238323068Y-98512899D01*
X238189818Y-98762192D01*
X238107764Y-99032691D01*
X238080057Y-99314000D01*
X233337000Y-99314000D01*
X233337000Y-99172665D01*
X233281853Y-98895426D01*
X233173680Y-98634273D01*
X233016637Y-98399241D01*
X232816759Y-98199363D01*
X232581727Y-98042320D01*
X232320574Y-97934147D01*
X232043335Y-97879000D01*
X231760665Y-97879000D01*
X231483426Y-97934147D01*
X231222273Y-98042320D01*
X230987241Y-98199363D01*
X230787363Y-98399241D01*
X230630320Y-98634273D01*
X230522147Y-98895426D01*
X230467000Y-99172665D01*
X230467000Y-99455335D01*
X230473983Y-99490439D01*
X230014222Y-99950200D01*
X220344931Y-99950200D01*
X222173282Y-98121850D01*
X222414574Y-98073853D01*
X222675727Y-97965680D01*
X222880284Y-97829000D01*
X230530349Y-97829000D01*
X230586100Y-97834491D01*
X230641851Y-97829000D01*
X230641852Y-97829000D01*
X230808599Y-97812577D01*
X231022547Y-97747676D01*
X231219723Y-97642284D01*
X231392549Y-97500449D01*
X231428096Y-97457135D01*
X232397578Y-96487653D01*
X247861952Y-96487653D01*
X248017962Y-96803214D01*
X248392745Y-96994020D01*
X248797551Y-97108044D01*
X249216824Y-97140902D01*
X249634451Y-97091334D01*
X250034383Y-96961243D01*
X250330038Y-96803214D01*
X250486048Y-96487653D01*
X249174000Y-95175605D01*
X247861952Y-96487653D01*
X232397578Y-96487653D01*
X233846407Y-95038824D01*
X247029098Y-95038824D01*
X247078666Y-95456451D01*
X247208757Y-95856383D01*
X247366786Y-96152038D01*
X247682347Y-96308048D01*
X248994395Y-94996000D01*
X249353605Y-94996000D01*
X250665653Y-96308048D01*
X250981214Y-96152038D01*
X251172020Y-95777255D01*
X251286044Y-95372449D01*
X251318902Y-94953176D01*
X251269334Y-94535549D01*
X251139243Y-94135617D01*
X250981214Y-93839962D01*
X250665653Y-93683952D01*
X249353605Y-94996000D01*
X248994395Y-94996000D01*
X247682347Y-93683952D01*
X247366786Y-93839962D01*
X247175980Y-94214745D01*
X247061956Y-94619551D01*
X247029098Y-95038824D01*
X233846407Y-95038824D01*
X238784741Y-90100491D01*
X238828049Y-90064949D01*
X238969884Y-89892123D01*
X239075276Y-89694947D01*
X239140177Y-89480999D01*
X239156600Y-89314252D01*
X239156600Y-89314251D01*
X239162091Y-89258500D01*
X239156600Y-89202749D01*
X239156600Y-88306072D01*
X240322000Y-88306072D01*
X240446482Y-88293812D01*
X240566180Y-88257502D01*
X240676494Y-88198537D01*
X240772483Y-88119761D01*
X241626421Y-88973700D01*
X239521672Y-91078450D01*
X239478524Y-91082700D01*
X239478523Y-91082700D01*
X239348510Y-91095505D01*
X239181687Y-91146111D01*
X239027941Y-91228289D01*
X238893183Y-91338883D01*
X238782589Y-91473641D01*
X238700411Y-91627387D01*
X238649805Y-91794210D01*
X238632718Y-91967700D01*
X238637001Y-92011186D01*
X238637001Y-92087921D01*
X238502392Y-92198392D01*
X238323068Y-92416899D01*
X238189818Y-92666192D01*
X238107764Y-92936691D01*
X238080057Y-93218000D01*
X238107764Y-93499309D01*
X238189818Y-93769808D01*
X238323068Y-94019101D01*
X238502392Y-94237608D01*
X238720899Y-94416932D01*
X238970192Y-94550182D01*
X239240691Y-94632236D01*
X239451508Y-94653000D01*
X239592492Y-94653000D01*
X239803309Y-94632236D01*
X240073808Y-94550182D01*
X240323101Y-94416932D01*
X240541608Y-94237608D01*
X240720932Y-94019101D01*
X240854182Y-93769808D01*
X240934707Y-93504347D01*
X247861952Y-93504347D01*
X249174000Y-94816395D01*
X250486048Y-93504347D01*
X250330038Y-93188786D01*
X249955255Y-92997980D01*
X249550449Y-92883956D01*
X249131176Y-92851098D01*
X248713549Y-92900666D01*
X248313617Y-93030757D01*
X248017962Y-93188786D01*
X247861952Y-93504347D01*
X240934707Y-93504347D01*
X240936236Y-93499309D01*
X240963943Y-93218000D01*
X240936236Y-92936691D01*
X240854182Y-92666192D01*
X240720932Y-92416899D01*
X240705357Y-92397921D01*
X243147279Y-89956000D01*
X245156553Y-89956000D01*
X245129000Y-90094514D01*
X245129000Y-90357486D01*
X245180304Y-90615405D01*
X245280939Y-90858359D01*
X245427038Y-91077013D01*
X245612987Y-91262962D01*
X245831641Y-91409061D01*
X246074595Y-91509696D01*
X246332514Y-91561000D01*
X246595486Y-91561000D01*
X246853405Y-91509696D01*
X247096359Y-91409061D01*
X247315013Y-91262962D01*
X247500962Y-91077013D01*
X247647061Y-90858359D01*
X247747696Y-90615405D01*
X247799000Y-90357486D01*
X247799000Y-90094514D01*
X247771447Y-89956000D01*
X248142422Y-89956000D01*
X248329000Y-90142578D01*
X248329000Y-90357486D01*
X248380304Y-90615405D01*
X248480939Y-90858359D01*
X248627038Y-91077013D01*
X248812987Y-91262962D01*
X249031641Y-91409061D01*
X249274595Y-91509696D01*
X249532514Y-91561000D01*
X249795486Y-91561000D01*
X250053405Y-91509696D01*
X250296359Y-91409061D01*
X250515013Y-91262962D01*
X250700962Y-91077013D01*
X250847061Y-90858359D01*
X250947696Y-90615405D01*
X250999000Y-90357486D01*
X250999000Y-90094514D01*
X250947696Y-89836595D01*
X250847061Y-89593641D01*
X250700962Y-89374987D01*
X250515013Y-89189038D01*
X250296359Y-89042939D01*
X250133882Y-88975639D01*
X250245366Y-88934935D01*
X250346203Y-88881037D01*
X250405664Y-88647269D01*
X249664000Y-87905605D01*
X249649858Y-87919748D01*
X249470253Y-87740143D01*
X249484395Y-87726000D01*
X249843605Y-87726000D01*
X250585269Y-88467664D01*
X250819037Y-88408203D01*
X250929934Y-88169758D01*
X250992183Y-87914260D01*
X251003390Y-87651527D01*
X250963125Y-87391656D01*
X250872935Y-87144634D01*
X250819037Y-87043797D01*
X250585269Y-86984336D01*
X249843605Y-87726000D01*
X249484395Y-87726000D01*
X248742731Y-86984336D01*
X248508963Y-87043797D01*
X248398066Y-87282242D01*
X248335817Y-87537740D01*
X248324610Y-87800473D01*
X248364875Y-88060344D01*
X248410753Y-88186000D01*
X247802072Y-88186000D01*
X247802072Y-87026000D01*
X247789812Y-86901518D01*
X247760452Y-86804731D01*
X248922336Y-86804731D01*
X249664000Y-87546395D01*
X250405664Y-86804731D01*
X250346203Y-86570963D01*
X250107758Y-86460066D01*
X249852260Y-86397817D01*
X249589527Y-86386610D01*
X249329656Y-86426875D01*
X249082634Y-86517065D01*
X248981797Y-86570963D01*
X248922336Y-86804731D01*
X247760452Y-86804731D01*
X247753502Y-86781820D01*
X247694537Y-86671506D01*
X247615185Y-86574815D01*
X247518494Y-86495463D01*
X247408180Y-86436498D01*
X247288482Y-86400188D01*
X247164000Y-86387928D01*
X245764000Y-86387928D01*
X245639518Y-86400188D01*
X245519820Y-86436498D01*
X245428267Y-86485435D01*
X243547296Y-84604465D01*
X243511749Y-84561151D01*
X243373452Y-84447653D01*
X247861952Y-84447653D01*
X248017962Y-84763214D01*
X248392745Y-84954020D01*
X248797551Y-85068044D01*
X249216824Y-85100902D01*
X249634451Y-85051334D01*
X250034383Y-84921243D01*
X250330038Y-84763214D01*
X250486048Y-84447653D01*
X249174000Y-83135605D01*
X247861952Y-84447653D01*
X243373452Y-84447653D01*
X243338923Y-84419316D01*
X243141747Y-84313924D01*
X242927799Y-84249023D01*
X242761052Y-84232600D01*
X242761051Y-84232600D01*
X242705300Y-84227109D01*
X242649549Y-84232600D01*
X240418174Y-84232600D01*
X240446482Y-84229812D01*
X240566180Y-84193502D01*
X240676494Y-84134537D01*
X240773185Y-84055185D01*
X240852537Y-83958494D01*
X240911502Y-83848180D01*
X240947812Y-83728482D01*
X240960072Y-83604000D01*
X240960072Y-82998824D01*
X247029098Y-82998824D01*
X247078666Y-83416451D01*
X247208757Y-83816383D01*
X247366786Y-84112038D01*
X247682347Y-84268048D01*
X248994395Y-82956000D01*
X249353605Y-82956000D01*
X250665653Y-84268048D01*
X250981214Y-84112038D01*
X251172020Y-83737255D01*
X251286044Y-83332449D01*
X251318902Y-82913176D01*
X251269334Y-82495549D01*
X251139243Y-82095617D01*
X250981214Y-81799962D01*
X250665653Y-81643952D01*
X249353605Y-82956000D01*
X248994395Y-82956000D01*
X247682347Y-81643952D01*
X247366786Y-81799962D01*
X247175980Y-82174745D01*
X247061956Y-82579551D01*
X247029098Y-82998824D01*
X240960072Y-82998824D01*
X240960072Y-82004000D01*
X240947812Y-81879518D01*
X240911502Y-81759820D01*
X240852537Y-81649506D01*
X240773185Y-81552815D01*
X240676494Y-81473463D01*
X240659440Y-81464347D01*
X247861952Y-81464347D01*
X249174000Y-82776395D01*
X250486048Y-81464347D01*
X250330038Y-81148786D01*
X249955255Y-80957980D01*
X249550449Y-80843956D01*
X249131176Y-80811098D01*
X248713549Y-80860666D01*
X248313617Y-80990757D01*
X248017962Y-81148786D01*
X247861952Y-81464347D01*
X240659440Y-81464347D01*
X240566180Y-81414498D01*
X240446482Y-81378188D01*
X240322000Y-81365928D01*
X238722000Y-81365928D01*
X238597518Y-81378188D01*
X238477820Y-81414498D01*
X238367506Y-81473463D01*
X238270815Y-81552815D01*
X238191463Y-81649506D01*
X238132498Y-81759820D01*
X238096188Y-81879518D01*
X238083928Y-82004000D01*
X238083928Y-83604000D01*
X238096188Y-83728482D01*
X238132498Y-83848180D01*
X238191463Y-83958494D01*
X238270815Y-84055185D01*
X238367506Y-84134537D01*
X238477820Y-84193502D01*
X238597518Y-84229812D01*
X238625826Y-84232600D01*
X238452452Y-84232600D01*
X238396700Y-84227109D01*
X238340948Y-84232600D01*
X238174201Y-84249023D01*
X237960253Y-84313924D01*
X237763077Y-84419316D01*
X237590251Y-84561151D01*
X237554708Y-84604460D01*
X237258459Y-84900710D01*
X237215152Y-84936251D01*
X237073317Y-85109077D01*
X237024797Y-85199853D01*
X236967924Y-85306254D01*
X236903023Y-85520202D01*
X236881109Y-85742700D01*
X236886601Y-85798461D01*
X236886600Y-88788368D01*
X233158866Y-92516102D01*
X233016637Y-92303241D01*
X232816759Y-92103363D01*
X232581727Y-91946320D01*
X232320574Y-91838147D01*
X232043335Y-91783000D01*
X231760665Y-91783000D01*
X231483426Y-91838147D01*
X231222273Y-91946320D01*
X230987241Y-92103363D01*
X230787363Y-92303241D01*
X230767479Y-92333000D01*
X223281178Y-92333000D01*
X223353571Y-92180004D01*
X223422300Y-91905816D01*
X223436217Y-91623488D01*
X223394787Y-91343870D01*
X223299603Y-91077708D01*
X223232671Y-90952486D01*
X222988702Y-90880903D01*
X222175605Y-91694000D01*
X222189748Y-91708143D01*
X222010143Y-91887748D01*
X221996000Y-91873605D01*
X221981858Y-91887748D01*
X221802253Y-91708143D01*
X221816395Y-91694000D01*
X221003298Y-90880903D01*
X220759329Y-90952486D01*
X220638429Y-91207996D01*
X220569700Y-91482184D01*
X220555783Y-91764512D01*
X220597213Y-92044130D01*
X220692397Y-92310292D01*
X220704535Y-92333000D01*
X217064478Y-92333000D01*
X218696180Y-90701298D01*
X221182903Y-90701298D01*
X221996000Y-91514395D01*
X222809097Y-90701298D01*
X222737514Y-90457329D01*
X222482004Y-90336429D01*
X222207816Y-90267700D01*
X221925488Y-90253783D01*
X221645870Y-90295213D01*
X221379708Y-90390397D01*
X221254486Y-90457329D01*
X221182903Y-90701298D01*
X218696180Y-90701298D01*
X222180439Y-87217039D01*
X230510096Y-87217039D01*
X230550754Y-87351087D01*
X230670963Y-87605420D01*
X230838481Y-87831414D01*
X231046869Y-88020385D01*
X231288119Y-88165070D01*
X231552960Y-88259909D01*
X231775000Y-88138624D01*
X231775000Y-86995000D01*
X232029000Y-86995000D01*
X232029000Y-88138624D01*
X232251040Y-88259909D01*
X232515881Y-88165070D01*
X232757131Y-88020385D01*
X232965519Y-87831414D01*
X233133037Y-87605420D01*
X233253246Y-87351087D01*
X233293904Y-87217039D01*
X233171915Y-86995000D01*
X232029000Y-86995000D01*
X231775000Y-86995000D01*
X230632085Y-86995000D01*
X230510096Y-87217039D01*
X222180439Y-87217039D01*
X222878517Y-86518961D01*
X230510096Y-86518961D01*
X230632085Y-86741000D01*
X231775000Y-86741000D01*
X231775000Y-85597376D01*
X232029000Y-85597376D01*
X232029000Y-86741000D01*
X233171915Y-86741000D01*
X233293904Y-86518961D01*
X233253246Y-86384913D01*
X233133037Y-86130580D01*
X232965519Y-85904586D01*
X232757131Y-85715615D01*
X232515881Y-85570930D01*
X232251040Y-85476091D01*
X232029000Y-85597376D01*
X231775000Y-85597376D01*
X231552960Y-85476091D01*
X231288119Y-85570930D01*
X231046869Y-85715615D01*
X230838481Y-85904586D01*
X230670963Y-86130580D01*
X230550754Y-86384913D01*
X230510096Y-86518961D01*
X222878517Y-86518961D01*
X224623049Y-84774430D01*
X224656817Y-84746717D01*
X224726928Y-84661288D01*
X224767411Y-84611959D01*
X224849589Y-84458214D01*
X224900195Y-84291390D01*
X224903389Y-84258963D01*
X224913000Y-84161377D01*
X224913000Y-84161369D01*
X224917281Y-84117900D01*
X224913000Y-84074431D01*
X224913000Y-84016353D01*
X225092797Y-83868797D01*
X225280069Y-83640606D01*
X225301470Y-83600567D01*
X225461146Y-83814293D01*
X225679512Y-84010817D01*
X225932022Y-84160964D01*
X226208973Y-84258963D01*
X226441000Y-84138464D01*
X226441000Y-82931000D01*
X226695000Y-82931000D01*
X226695000Y-84138464D01*
X226927027Y-84258963D01*
X227203978Y-84160964D01*
X227456488Y-84010817D01*
X227674854Y-83814293D01*
X227850684Y-83578944D01*
X227977222Y-83313814D01*
X228022958Y-83163026D01*
X228017744Y-83153039D01*
X230510096Y-83153039D01*
X230550754Y-83287087D01*
X230670963Y-83541420D01*
X230838481Y-83767414D01*
X231046869Y-83956385D01*
X231288119Y-84101070D01*
X231552960Y-84195909D01*
X231775000Y-84074624D01*
X231775000Y-82931000D01*
X232029000Y-82931000D01*
X232029000Y-84074624D01*
X232251040Y-84195909D01*
X232515881Y-84101070D01*
X232757131Y-83956385D01*
X232965519Y-83767414D01*
X233133037Y-83541420D01*
X233253246Y-83287087D01*
X233293904Y-83153039D01*
X233171915Y-82931000D01*
X232029000Y-82931000D01*
X231775000Y-82931000D01*
X230632085Y-82931000D01*
X230510096Y-83153039D01*
X228017744Y-83153039D01*
X227901817Y-82931000D01*
X226695000Y-82931000D01*
X226441000Y-82931000D01*
X226421000Y-82931000D01*
X226421000Y-82677000D01*
X226441000Y-82677000D01*
X226441000Y-82657000D01*
X226695000Y-82657000D01*
X226695000Y-82677000D01*
X227901817Y-82677000D01*
X228017743Y-82454961D01*
X230510096Y-82454961D01*
X230632085Y-82677000D01*
X231775000Y-82677000D01*
X231775000Y-81533376D01*
X232029000Y-81533376D01*
X232029000Y-82677000D01*
X233171915Y-82677000D01*
X233293904Y-82454961D01*
X233253246Y-82320913D01*
X233133037Y-82066580D01*
X232965519Y-81840586D01*
X232757131Y-81651615D01*
X232515881Y-81506930D01*
X232251040Y-81412091D01*
X232029000Y-81533376D01*
X231775000Y-81533376D01*
X231552960Y-81412091D01*
X231288119Y-81506930D01*
X231046869Y-81651615D01*
X230838481Y-81840586D01*
X230670963Y-82066580D01*
X230550754Y-82320913D01*
X230510096Y-82454961D01*
X228017743Y-82454961D01*
X228022958Y-82444974D01*
X227977222Y-82294186D01*
X227850684Y-82029056D01*
X227674854Y-81793707D01*
X227456488Y-81597183D01*
X227360090Y-81539863D01*
X227404606Y-81516069D01*
X227632797Y-81328797D01*
X227820069Y-81100606D01*
X227959225Y-80840264D01*
X228044916Y-80557777D01*
X228073851Y-80264000D01*
X228051052Y-80032526D01*
X228483550Y-79600029D01*
X228517317Y-79572317D01*
X228554580Y-79526913D01*
X228627910Y-79437560D01*
X228627911Y-79437559D01*
X228710089Y-79283813D01*
X228760695Y-79116990D01*
X228773500Y-78986977D01*
X228773500Y-78986967D01*
X228777781Y-78943501D01*
X228773500Y-78900034D01*
X228773500Y-77064890D01*
X235032524Y-77064890D01*
X235077175Y-77212099D01*
X235202359Y-77474920D01*
X235376412Y-77708269D01*
X235592645Y-77903178D01*
X235842748Y-78052157D01*
X236117109Y-78149481D01*
X236347000Y-78028814D01*
X236347000Y-76835000D01*
X236601000Y-76835000D01*
X236601000Y-78028814D01*
X236830891Y-78149481D01*
X237105252Y-78052157D01*
X237355355Y-77903178D01*
X237571588Y-77708269D01*
X237745641Y-77474920D01*
X237870825Y-77212099D01*
X237915476Y-77064890D01*
X237794155Y-76835000D01*
X236601000Y-76835000D01*
X236347000Y-76835000D01*
X235153845Y-76835000D01*
X235032524Y-77064890D01*
X228773500Y-77064890D01*
X228773500Y-76160869D01*
X228777781Y-76117400D01*
X228773500Y-76073931D01*
X228773500Y-76073923D01*
X228760695Y-75943910D01*
X228728724Y-75838517D01*
X228710089Y-75777086D01*
X228627911Y-75623341D01*
X228545032Y-75522353D01*
X228545030Y-75522351D01*
X228517317Y-75488583D01*
X228483549Y-75460870D01*
X227637334Y-74614656D01*
X227609617Y-74580883D01*
X227474859Y-74470289D01*
X227321113Y-74388111D01*
X227154290Y-74337505D01*
X227024277Y-74324700D01*
X227024269Y-74324700D01*
X226980800Y-74320419D01*
X226937331Y-74324700D01*
X215155765Y-74324700D01*
X215112299Y-74320419D01*
X215068833Y-74324700D01*
X215068823Y-74324700D01*
X214938810Y-74337505D01*
X214771987Y-74388111D01*
X214618241Y-74470289D01*
X214618239Y-74470290D01*
X214618240Y-74470290D01*
X214517253Y-74553168D01*
X214517251Y-74553170D01*
X214483483Y-74580883D01*
X214455770Y-74614651D01*
X212848094Y-76222328D01*
X211734400Y-76222328D01*
X211609918Y-76234588D01*
X211490220Y-76270898D01*
X211379906Y-76329863D01*
X211283215Y-76409215D01*
X211203863Y-76505906D01*
X211144898Y-76616220D01*
X211108588Y-76735918D01*
X211096328Y-76860400D01*
X211096328Y-78587600D01*
X211108588Y-78712082D01*
X211144898Y-78831780D01*
X211203863Y-78942094D01*
X211283215Y-79038785D01*
X211379906Y-79118137D01*
X211490220Y-79177102D01*
X211541265Y-79192586D01*
X211533203Y-79199203D01*
X211345931Y-79427394D01*
X211206775Y-79687736D01*
X211121084Y-79970223D01*
X211092149Y-80264000D01*
X211121084Y-80557777D01*
X211206775Y-80840264D01*
X211345931Y-81100606D01*
X211533203Y-81328797D01*
X211761394Y-81516069D01*
X211794940Y-81534000D01*
X211761394Y-81551931D01*
X211533203Y-81739203D01*
X211345931Y-81967394D01*
X211206775Y-82227736D01*
X211121084Y-82510223D01*
X211092149Y-82804000D01*
X211121084Y-83097777D01*
X211206775Y-83380264D01*
X211345931Y-83640606D01*
X211533203Y-83868797D01*
X211761394Y-84056069D01*
X211794940Y-84074000D01*
X211761394Y-84091931D01*
X211533203Y-84279203D01*
X211385647Y-84459000D01*
X207033765Y-84459000D01*
X206990299Y-84454719D01*
X206946833Y-84459000D01*
X206946823Y-84459000D01*
X206816810Y-84471805D01*
X206649987Y-84522411D01*
X206496241Y-84604589D01*
X206496239Y-84604590D01*
X206496240Y-84604590D01*
X206395253Y-84687468D01*
X206395251Y-84687470D01*
X206361483Y-84715183D01*
X206333770Y-84748951D01*
X204472906Y-86609816D01*
X204255101Y-86431068D01*
X204122142Y-86360000D01*
X204255101Y-86288932D01*
X204473608Y-86109608D01*
X204652932Y-85891101D01*
X204786182Y-85641808D01*
X204868236Y-85371309D01*
X204895943Y-85090000D01*
X204868236Y-84808691D01*
X204786182Y-84538192D01*
X204652932Y-84288899D01*
X204473608Y-84070392D01*
X204255101Y-83891068D01*
X204122142Y-83820000D01*
X204255101Y-83748932D01*
X204473608Y-83569608D01*
X204652932Y-83351101D01*
X204786182Y-83101808D01*
X204868236Y-82831309D01*
X204895943Y-82550000D01*
X204868236Y-82268691D01*
X204786182Y-81998192D01*
X204652932Y-81748899D01*
X204473608Y-81530392D01*
X204255101Y-81351068D01*
X204117318Y-81277421D01*
X204309131Y-81162385D01*
X204517519Y-80973414D01*
X204685037Y-80747420D01*
X204805246Y-80493087D01*
X204845904Y-80359039D01*
X204723915Y-80137000D01*
X203581000Y-80137000D01*
X203581000Y-80157000D01*
X203327000Y-80157000D01*
X203327000Y-80137000D01*
X202184085Y-80137000D01*
X202062096Y-80359039D01*
X202102754Y-80493087D01*
X202222963Y-80747420D01*
X202390481Y-80973414D01*
X202598869Y-81162385D01*
X202790682Y-81277421D01*
X202652899Y-81351068D01*
X202434392Y-81530392D01*
X202255068Y-81748899D01*
X202121818Y-81998192D01*
X202039764Y-82268691D01*
X202012057Y-82550000D01*
X202039764Y-82831309D01*
X202121818Y-83101808D01*
X202255068Y-83351101D01*
X202434392Y-83569608D01*
X202652899Y-83748932D01*
X202785858Y-83820000D01*
X202652899Y-83891068D01*
X202574998Y-83955000D01*
X202314500Y-83955000D01*
X202314500Y-83910951D01*
X202319991Y-83855200D01*
X202305065Y-83703647D01*
X202298077Y-83632701D01*
X202233176Y-83418753D01*
X202127784Y-83221577D01*
X201985949Y-83048751D01*
X201942641Y-83013209D01*
X198176296Y-79246865D01*
X198140749Y-79203551D01*
X197967923Y-79061716D01*
X197770747Y-78956324D01*
X197556799Y-78891423D01*
X197390052Y-78875000D01*
X197390051Y-78875000D01*
X197334300Y-78869509D01*
X197278549Y-78875000D01*
X196713002Y-78875000D01*
X196635101Y-78811068D01*
X196502142Y-78740000D01*
X196635101Y-78668932D01*
X196853608Y-78489608D01*
X197032932Y-78271101D01*
X197166182Y-78021808D01*
X197248236Y-77751309D01*
X197275943Y-77470000D01*
X197248236Y-77188691D01*
X197166182Y-76918192D01*
X197032932Y-76668899D01*
X196853608Y-76450392D01*
X196635101Y-76271068D01*
X196502142Y-76200000D01*
X196635101Y-76128932D01*
X196853608Y-75949608D01*
X197032932Y-75731101D01*
X197166182Y-75481808D01*
X197248236Y-75211309D01*
X197275943Y-74930000D01*
X197248236Y-74648691D01*
X197166182Y-74378192D01*
X197032932Y-74128899D01*
X196853608Y-73910392D01*
X196635101Y-73731068D01*
X196502142Y-73660000D01*
X196635101Y-73588932D01*
X196853608Y-73409608D01*
X197032932Y-73191101D01*
X197166182Y-72941808D01*
X197248236Y-72671309D01*
X197275943Y-72390000D01*
X197248236Y-72108691D01*
X197216782Y-72005000D01*
X198027122Y-72005000D01*
X201547170Y-75525049D01*
X201574883Y-75558817D01*
X201608651Y-75586530D01*
X201608653Y-75586532D01*
X201709641Y-75669411D01*
X201863386Y-75751589D01*
X201947438Y-75777086D01*
X202030210Y-75802195D01*
X202160223Y-75815000D01*
X202160231Y-75815000D01*
X202203700Y-75819281D01*
X202247169Y-75815000D01*
X202323922Y-75815000D01*
X202434392Y-75949608D01*
X202652899Y-76128932D01*
X202785858Y-76200000D01*
X202652899Y-76271068D01*
X202434392Y-76450392D01*
X202255068Y-76668899D01*
X202121818Y-76918192D01*
X202039764Y-77188691D01*
X202012057Y-77470000D01*
X202039764Y-77751309D01*
X202121818Y-78021808D01*
X202255068Y-78271101D01*
X202434392Y-78489608D01*
X202652899Y-78668932D01*
X202790682Y-78742579D01*
X202598869Y-78857615D01*
X202390481Y-79046586D01*
X202222963Y-79272580D01*
X202102754Y-79526913D01*
X202062096Y-79660961D01*
X202184085Y-79883000D01*
X203327000Y-79883000D01*
X203327000Y-79863000D01*
X203581000Y-79863000D01*
X203581000Y-79883000D01*
X204723915Y-79883000D01*
X204845904Y-79660961D01*
X204805246Y-79526913D01*
X204685037Y-79272580D01*
X204517519Y-79046586D01*
X204309131Y-78857615D01*
X204117318Y-78742579D01*
X204255101Y-78668932D01*
X204473608Y-78489608D01*
X204652932Y-78271101D01*
X204786182Y-78021808D01*
X204868236Y-77751309D01*
X204895943Y-77470000D01*
X204868236Y-77188691D01*
X204786182Y-76918192D01*
X204652932Y-76668899D01*
X204473608Y-76450392D01*
X204255101Y-76271068D01*
X204122142Y-76200000D01*
X204255101Y-76128932D01*
X204473608Y-75949608D01*
X204652932Y-75731101D01*
X204786182Y-75481808D01*
X204868236Y-75211309D01*
X204895943Y-74930000D01*
X204868236Y-74648691D01*
X204786182Y-74378192D01*
X204652932Y-74128899D01*
X204473608Y-73910392D01*
X204255101Y-73731068D01*
X204122142Y-73660000D01*
X204255101Y-73588932D01*
X204473608Y-73409608D01*
X204584078Y-73275000D01*
X233029122Y-73275000D01*
X234517170Y-74763049D01*
X234544883Y-74796817D01*
X234578651Y-74824530D01*
X234578653Y-74824532D01*
X234633309Y-74869387D01*
X234679641Y-74907411D01*
X234833387Y-74989589D01*
X234987741Y-75036413D01*
X234998188Y-75142482D01*
X235034498Y-75262180D01*
X235093463Y-75372494D01*
X235172815Y-75469185D01*
X235269506Y-75548537D01*
X235379820Y-75607502D01*
X235460466Y-75631966D01*
X235376412Y-75707731D01*
X235202359Y-75941080D01*
X235077175Y-76203901D01*
X235032524Y-76351110D01*
X235153845Y-76581000D01*
X236347000Y-76581000D01*
X236347000Y-76561000D01*
X236601000Y-76561000D01*
X236601000Y-76581000D01*
X237794155Y-76581000D01*
X237915476Y-76351110D01*
X237903815Y-76312665D01*
X243755000Y-76312665D01*
X243755000Y-76595335D01*
X243810147Y-76872574D01*
X243918320Y-77133727D01*
X244075363Y-77368759D01*
X244275241Y-77568637D01*
X244510273Y-77725680D01*
X244771426Y-77833853D01*
X245048665Y-77889000D01*
X245331335Y-77889000D01*
X245608574Y-77833853D01*
X245869727Y-77725680D01*
X246104759Y-77568637D01*
X246226694Y-77446702D01*
X249376903Y-77446702D01*
X249448486Y-77690671D01*
X249703996Y-77811571D01*
X249978184Y-77880300D01*
X250260512Y-77894217D01*
X250540130Y-77852787D01*
X250806292Y-77757603D01*
X250931514Y-77690671D01*
X251003097Y-77446702D01*
X250190000Y-76633605D01*
X249376903Y-77446702D01*
X246226694Y-77446702D01*
X246304637Y-77368759D01*
X246461680Y-77133727D01*
X246569853Y-76872574D01*
X246625000Y-76595335D01*
X246625000Y-76524512D01*
X248749783Y-76524512D01*
X248791213Y-76804130D01*
X248886397Y-77070292D01*
X248953329Y-77195514D01*
X249197298Y-77267097D01*
X250010395Y-76454000D01*
X250369605Y-76454000D01*
X251182702Y-77267097D01*
X251426671Y-77195514D01*
X251547571Y-76940004D01*
X251616300Y-76665816D01*
X251630217Y-76383488D01*
X251588787Y-76103870D01*
X251493603Y-75837708D01*
X251426671Y-75712486D01*
X251182702Y-75640903D01*
X250369605Y-76454000D01*
X250010395Y-76454000D01*
X249197298Y-75640903D01*
X248953329Y-75712486D01*
X248832429Y-75967996D01*
X248763700Y-76242184D01*
X248749783Y-76524512D01*
X246625000Y-76524512D01*
X246625000Y-76312665D01*
X246569853Y-76035426D01*
X246461680Y-75774273D01*
X246304637Y-75539241D01*
X246226694Y-75461298D01*
X249376903Y-75461298D01*
X250190000Y-76274395D01*
X251003097Y-75461298D01*
X250931514Y-75217329D01*
X250676004Y-75096429D01*
X250401816Y-75027700D01*
X250119488Y-75013783D01*
X249839870Y-75055213D01*
X249573708Y-75150397D01*
X249448486Y-75217329D01*
X249376903Y-75461298D01*
X246226694Y-75461298D01*
X246104759Y-75339363D01*
X245869727Y-75182320D01*
X245608574Y-75074147D01*
X245331335Y-75019000D01*
X245048665Y-75019000D01*
X244771426Y-75074147D01*
X244510273Y-75182320D01*
X244275241Y-75339363D01*
X244075363Y-75539241D01*
X243918320Y-75774273D01*
X243810147Y-76035426D01*
X243755000Y-76312665D01*
X237903815Y-76312665D01*
X237870825Y-76203901D01*
X237745641Y-75941080D01*
X237571588Y-75707731D01*
X237487534Y-75631966D01*
X237568180Y-75607502D01*
X237678494Y-75548537D01*
X237775185Y-75469185D01*
X237854537Y-75372494D01*
X237913502Y-75262180D01*
X237949812Y-75142482D01*
X237962072Y-75018000D01*
X237962072Y-73318000D01*
X237949812Y-73193518D01*
X237913502Y-73073820D01*
X237854537Y-72963506D01*
X237775185Y-72866815D01*
X237678494Y-72787463D01*
X237568180Y-72728498D01*
X237448482Y-72692188D01*
X237324000Y-72679928D01*
X235624000Y-72679928D01*
X235499518Y-72692188D01*
X235379820Y-72728498D01*
X235269506Y-72787463D01*
X235172815Y-72866815D01*
X235150854Y-72893575D01*
X234052234Y-71794956D01*
X234024517Y-71761183D01*
X233889759Y-71650589D01*
X233736013Y-71568411D01*
X233569190Y-71517805D01*
X233439177Y-71505000D01*
X233439169Y-71505000D01*
X233395700Y-71500719D01*
X233352231Y-71505000D01*
X204584078Y-71505000D01*
X204473608Y-71370392D01*
X204255101Y-71191068D01*
X204122142Y-71120000D01*
X204255101Y-71048932D01*
X204473608Y-70869608D01*
X204652932Y-70651101D01*
X204786182Y-70401808D01*
X204868236Y-70131309D01*
X204895943Y-69850000D01*
X204868236Y-69568691D01*
X204842758Y-69484700D01*
X207982531Y-69484700D01*
X208026000Y-69488981D01*
X208069469Y-69484700D01*
X208069477Y-69484700D01*
X208199490Y-69471895D01*
X208366313Y-69421289D01*
X208520059Y-69339111D01*
X208654817Y-69228517D01*
X208682534Y-69194744D01*
X209293094Y-68584184D01*
X209510899Y-68762932D01*
X209760192Y-68896182D01*
X210030691Y-68978236D01*
X210241508Y-68999000D01*
X210382492Y-68999000D01*
X210593309Y-68978236D01*
X210863808Y-68896182D01*
X211113101Y-68762932D01*
X211331608Y-68583608D01*
X211510932Y-68365101D01*
X211644182Y-68115808D01*
X211726236Y-67845309D01*
X211753943Y-67564000D01*
X211726236Y-67282691D01*
X211644182Y-67012192D01*
X211597523Y-66924900D01*
X216643492Y-66924900D01*
X216552147Y-67145426D01*
X216497000Y-67422665D01*
X216497000Y-67705335D01*
X216552147Y-67982574D01*
X216660320Y-68243727D01*
X216817363Y-68478759D01*
X217017241Y-68678637D01*
X217252273Y-68835680D01*
X217513426Y-68943853D01*
X217790665Y-68999000D01*
X218073335Y-68999000D01*
X218350574Y-68943853D01*
X218611727Y-68835680D01*
X218846759Y-68678637D01*
X219046637Y-68478759D01*
X219203680Y-68243727D01*
X219311853Y-67982574D01*
X219367000Y-67705335D01*
X219367000Y-67422665D01*
X219311853Y-67145426D01*
X219220508Y-66924900D01*
X233860331Y-66924900D01*
X233903800Y-66929181D01*
X233947269Y-66924900D01*
X233947277Y-66924900D01*
X234077290Y-66912095D01*
X234244113Y-66861489D01*
X234397859Y-66779311D01*
X234532617Y-66668717D01*
X234560334Y-66634944D01*
X235150854Y-66044425D01*
X235172815Y-66071185D01*
X235269506Y-66150537D01*
X235379820Y-66209502D01*
X235448687Y-66230393D01*
X235418866Y-66254866D01*
X235233294Y-66480986D01*
X235095401Y-66738966D01*
X235010487Y-67018889D01*
X234981815Y-67310000D01*
X235010487Y-67601111D01*
X235095401Y-67881034D01*
X235233294Y-68139014D01*
X235418866Y-68365134D01*
X235644986Y-68550706D01*
X235902966Y-68688599D01*
X236182889Y-68773513D01*
X236401050Y-68795000D01*
X236546950Y-68795000D01*
X236765111Y-68773513D01*
X237045034Y-68688599D01*
X237303014Y-68550706D01*
X237529134Y-68365134D01*
X237714706Y-68139014D01*
X237852599Y-67881034D01*
X237937513Y-67601111D01*
X237966185Y-67310000D01*
X237937513Y-67018889D01*
X237852599Y-66738966D01*
X237714706Y-66480986D01*
X237529134Y-66254866D01*
X237499313Y-66230393D01*
X237568180Y-66209502D01*
X237678494Y-66150537D01*
X237775185Y-66071185D01*
X237854537Y-65974494D01*
X237913502Y-65864180D01*
X237949812Y-65744482D01*
X237958625Y-65655000D01*
X243979922Y-65655000D01*
X244090392Y-65789608D01*
X244225000Y-65900078D01*
X244225001Y-68810223D01*
X244225001Y-68973921D01*
X244090392Y-69084392D01*
X243911068Y-69302899D01*
X243777818Y-69552192D01*
X243695764Y-69822691D01*
X243668057Y-70104000D01*
X243695764Y-70385309D01*
X243777818Y-70655808D01*
X243911068Y-70905101D01*
X244090392Y-71123608D01*
X244308899Y-71302932D01*
X244558192Y-71436182D01*
X244828691Y-71518236D01*
X245039508Y-71539000D01*
X245180492Y-71539000D01*
X245391309Y-71518236D01*
X245661808Y-71436182D01*
X245911101Y-71302932D01*
X246129608Y-71123608D01*
X246308932Y-70905101D01*
X246442182Y-70655808D01*
X246524236Y-70385309D01*
X246551943Y-70104000D01*
X246524236Y-69822691D01*
X246442182Y-69552192D01*
X246309521Y-69304000D01*
X251291928Y-69304000D01*
X251291928Y-70904000D01*
X251304188Y-71028482D01*
X251340498Y-71148180D01*
X251399463Y-71258494D01*
X251478815Y-71355185D01*
X251575506Y-71434537D01*
X251685820Y-71493502D01*
X251805518Y-71529812D01*
X251930000Y-71542072D01*
X253530000Y-71542072D01*
X253654482Y-71529812D01*
X253774180Y-71493502D01*
X253884494Y-71434537D01*
X253981185Y-71355185D01*
X254060537Y-71258494D01*
X254119502Y-71148180D01*
X254155812Y-71028482D01*
X254168072Y-70904000D01*
X254168072Y-69304000D01*
X254155812Y-69179518D01*
X254119502Y-69059820D01*
X254060537Y-68949506D01*
X253981185Y-68852815D01*
X253884494Y-68773463D01*
X253774180Y-68714498D01*
X253654482Y-68678188D01*
X253530000Y-68665928D01*
X251930000Y-68665928D01*
X251805518Y-68678188D01*
X251685820Y-68714498D01*
X251575506Y-68773463D01*
X251478815Y-68852815D01*
X251399463Y-68949506D01*
X251340498Y-69059820D01*
X251304188Y-69179518D01*
X251291928Y-69304000D01*
X246309521Y-69304000D01*
X246308932Y-69302899D01*
X246129608Y-69084392D01*
X245995000Y-68973922D01*
X245995000Y-65900078D01*
X246129608Y-65789608D01*
X246308932Y-65571101D01*
X246442182Y-65321808D01*
X246524236Y-65051309D01*
X246551943Y-64770000D01*
X246538023Y-64628665D01*
X251295000Y-64628665D01*
X251295000Y-64911335D01*
X251350147Y-65188574D01*
X251458320Y-65449727D01*
X251615363Y-65684759D01*
X251815241Y-65884637D01*
X252050273Y-66041680D01*
X252311426Y-66149853D01*
X252588665Y-66205000D01*
X252871335Y-66205000D01*
X253148574Y-66149853D01*
X253409727Y-66041680D01*
X253644759Y-65884637D01*
X253844637Y-65684759D01*
X254001680Y-65449727D01*
X254109853Y-65188574D01*
X254165000Y-64911335D01*
X254165000Y-64628665D01*
X254109853Y-64351426D01*
X254001680Y-64090273D01*
X253844637Y-63855241D01*
X253644759Y-63655363D01*
X253409727Y-63498320D01*
X253148574Y-63390147D01*
X252871335Y-63335000D01*
X252588665Y-63335000D01*
X252311426Y-63390147D01*
X252050273Y-63498320D01*
X251815241Y-63655363D01*
X251615363Y-63855241D01*
X251458320Y-64090273D01*
X251350147Y-64351426D01*
X251295000Y-64628665D01*
X246538023Y-64628665D01*
X246524236Y-64488691D01*
X246442182Y-64218192D01*
X246308932Y-63968899D01*
X246129608Y-63750392D01*
X245911101Y-63571068D01*
X245661808Y-63437818D01*
X245391309Y-63355764D01*
X245180492Y-63335000D01*
X245039508Y-63335000D01*
X244828691Y-63355764D01*
X244558192Y-63437818D01*
X244308899Y-63571068D01*
X244090392Y-63750392D01*
X243979922Y-63885000D01*
X237958625Y-63885000D01*
X237949812Y-63795518D01*
X237913502Y-63675820D01*
X237854537Y-63565506D01*
X237775185Y-63468815D01*
X237678494Y-63389463D01*
X237568180Y-63330498D01*
X237448482Y-63294188D01*
X237324000Y-63281928D01*
X235624000Y-63281928D01*
X235499518Y-63294188D01*
X235379820Y-63330498D01*
X235269506Y-63389463D01*
X235172815Y-63468815D01*
X235093463Y-63565506D01*
X235034498Y-63675820D01*
X234998188Y-63795518D01*
X234987741Y-63901587D01*
X234833387Y-63948411D01*
X234679641Y-64030589D01*
X234578653Y-64113468D01*
X234578651Y-64113470D01*
X234544883Y-64141183D01*
X234517170Y-64174951D01*
X233537222Y-65154900D01*
X204836812Y-65154900D01*
X204868236Y-65051309D01*
X204895943Y-64770000D01*
X204868236Y-64488691D01*
X204786182Y-64218192D01*
X204652932Y-63968899D01*
X204473608Y-63750392D01*
X204255101Y-63571068D01*
X204005808Y-63437818D01*
X203735309Y-63355764D01*
X203524492Y-63335000D01*
X203383508Y-63335000D01*
X203172691Y-63355764D01*
X202902192Y-63437818D01*
X202652899Y-63571068D01*
X202434392Y-63750392D01*
X202255068Y-63968899D01*
X202121818Y-64218192D01*
X202039764Y-64488691D01*
X202012057Y-64770000D01*
X202039764Y-65051309D01*
X202071188Y-65154900D01*
X198720779Y-65154900D01*
X197740834Y-64174956D01*
X197713117Y-64141183D01*
X197578359Y-64030589D01*
X197424613Y-63948411D01*
X197265183Y-63900048D01*
X197259812Y-63845518D01*
X197223502Y-63725820D01*
X197164537Y-63615506D01*
X197085185Y-63518815D01*
X196988494Y-63439463D01*
X196878180Y-63380498D01*
X196758482Y-63344188D01*
X196634000Y-63331928D01*
X196236750Y-63331928D01*
X199766013Y-59802665D01*
X243929000Y-59802665D01*
X243929000Y-60085335D01*
X243984147Y-60362574D01*
X244092320Y-60623727D01*
X244249363Y-60858759D01*
X244449241Y-61058637D01*
X244684273Y-61215680D01*
X244945426Y-61323853D01*
X245222665Y-61379000D01*
X245505335Y-61379000D01*
X245782574Y-61323853D01*
X246043727Y-61215680D01*
X246278759Y-61058637D01*
X246478637Y-60858759D01*
X246635680Y-60623727D01*
X246743853Y-60362574D01*
X246799000Y-60085335D01*
X246799000Y-59802665D01*
X246743853Y-59525426D01*
X246635680Y-59264273D01*
X246478637Y-59029241D01*
X246278759Y-58829363D01*
X246043727Y-58672320D01*
X245782574Y-58564147D01*
X245505335Y-58509000D01*
X245222665Y-58509000D01*
X244945426Y-58564147D01*
X244684273Y-58672320D01*
X244449241Y-58829363D01*
X244249363Y-59029241D01*
X244092320Y-59264273D01*
X243984147Y-59525426D01*
X243929000Y-59802665D01*
X199766013Y-59802665D01*
X200437379Y-59131300D01*
X219505931Y-59131300D01*
X219549400Y-59135581D01*
X219592869Y-59131300D01*
X219592877Y-59131300D01*
X219722890Y-59118495D01*
X219889713Y-59067889D01*
X220043459Y-58985711D01*
X220178217Y-58875117D01*
X220205934Y-58841344D01*
X220854316Y-58192963D01*
X220898815Y-58247185D01*
X220995506Y-58326537D01*
X221105820Y-58385502D01*
X221225518Y-58421812D01*
X221350000Y-58434072D01*
X223150000Y-58434072D01*
X223274482Y-58421812D01*
X223394180Y-58385502D01*
X223504494Y-58326537D01*
X223601185Y-58247185D01*
X223680537Y-58150494D01*
X223739502Y-58040180D01*
X223745056Y-58021873D01*
X223811495Y-58088312D01*
X224062905Y-58256299D01*
X224342257Y-58372011D01*
X224638816Y-58431000D01*
X224941184Y-58431000D01*
X225237743Y-58372011D01*
X225517095Y-58256299D01*
X225768505Y-58088312D01*
X225982312Y-57874505D01*
X226044790Y-57781000D01*
X227977922Y-57781000D01*
X228088392Y-57915608D01*
X228306899Y-58094932D01*
X228556192Y-58228182D01*
X228826691Y-58310236D01*
X229037508Y-58331000D01*
X229178492Y-58331000D01*
X229389309Y-58310236D01*
X229659808Y-58228182D01*
X229909101Y-58094932D01*
X230127608Y-57915608D01*
X230306932Y-57697101D01*
X230440182Y-57447808D01*
X230522236Y-57177309D01*
X230549943Y-56896000D01*
X230536023Y-56754665D01*
X235293000Y-56754665D01*
X235293000Y-57037335D01*
X235348147Y-57314574D01*
X235456320Y-57575727D01*
X235613363Y-57810759D01*
X235813241Y-58010637D01*
X236048273Y-58167680D01*
X236309426Y-58275853D01*
X236586665Y-58331000D01*
X236869335Y-58331000D01*
X237146574Y-58275853D01*
X237407727Y-58167680D01*
X237612284Y-58031000D01*
X247965569Y-58031000D01*
X250641709Y-60707141D01*
X250677251Y-60750449D01*
X250850077Y-60892284D01*
X250983516Y-60963608D01*
X251047253Y-60997676D01*
X251261201Y-61062577D01*
X251483700Y-61084491D01*
X251539451Y-61079000D01*
X252104998Y-61079000D01*
X252182899Y-61142932D01*
X252432192Y-61276182D01*
X252702691Y-61358236D01*
X252913508Y-61379000D01*
X253054492Y-61379000D01*
X253265309Y-61358236D01*
X253535808Y-61276182D01*
X253785101Y-61142932D01*
X254003608Y-60963608D01*
X254182932Y-60745101D01*
X254316182Y-60495808D01*
X254398236Y-60225309D01*
X254425943Y-59944000D01*
X254398236Y-59662691D01*
X254316182Y-59392192D01*
X254182932Y-59142899D01*
X254003608Y-58924392D01*
X253785101Y-58745068D01*
X253535808Y-58611818D01*
X253265309Y-58529764D01*
X253054492Y-58509000D01*
X252913508Y-58509000D01*
X252702691Y-58529764D01*
X252432192Y-58611818D01*
X252182899Y-58745068D01*
X252104998Y-58809000D01*
X251953832Y-58809000D01*
X249277696Y-56132865D01*
X249242149Y-56089551D01*
X249069323Y-55947716D01*
X248872147Y-55842324D01*
X248658199Y-55777423D01*
X248491452Y-55761000D01*
X248491451Y-55761000D01*
X248435700Y-55755509D01*
X248379949Y-55761000D01*
X237612284Y-55761000D01*
X237407727Y-55624320D01*
X237146574Y-55516147D01*
X236869335Y-55461000D01*
X236586665Y-55461000D01*
X236309426Y-55516147D01*
X236048273Y-55624320D01*
X235813241Y-55781363D01*
X235613363Y-55981241D01*
X235456320Y-56216273D01*
X235348147Y-56477426D01*
X235293000Y-56754665D01*
X230536023Y-56754665D01*
X230522236Y-56614691D01*
X230440182Y-56344192D01*
X230306932Y-56094899D01*
X230127608Y-55876392D01*
X229909101Y-55697068D01*
X229659808Y-55563818D01*
X229389309Y-55481764D01*
X229178492Y-55461000D01*
X229037508Y-55461000D01*
X228826691Y-55481764D01*
X228556192Y-55563818D01*
X228306899Y-55697068D01*
X228088392Y-55876392D01*
X227977922Y-56011000D01*
X226044790Y-56011000D01*
X225982312Y-55917495D01*
X225768505Y-55703688D01*
X225517095Y-55535701D01*
X225237743Y-55419989D01*
X224941184Y-55361000D01*
X224638816Y-55361000D01*
X224342257Y-55419989D01*
X224062905Y-55535701D01*
X223811495Y-55703688D01*
X223745056Y-55770127D01*
X223739502Y-55751820D01*
X223680537Y-55641506D01*
X223601185Y-55544815D01*
X223504494Y-55465463D01*
X223394180Y-55406498D01*
X223274482Y-55370188D01*
X223150000Y-55357928D01*
X221350000Y-55357928D01*
X221225518Y-55370188D01*
X221105820Y-55406498D01*
X220995506Y-55465463D01*
X220898815Y-55544815D01*
X220819463Y-55641506D01*
X220760498Y-55751820D01*
X220724188Y-55871518D01*
X220711928Y-55996000D01*
X220711928Y-56028137D01*
X220559386Y-56074411D01*
X220405641Y-56156589D01*
X220304653Y-56239468D01*
X220304651Y-56239470D01*
X220270883Y-56267183D01*
X220243170Y-56300951D01*
X219182822Y-57361300D01*
X218708072Y-57361300D01*
X218708072Y-55996000D01*
X218695812Y-55871518D01*
X218659502Y-55751820D01*
X218600537Y-55641506D01*
X218521185Y-55544815D01*
X218424494Y-55465463D01*
X218314180Y-55406498D01*
X218194482Y-55370188D01*
X218070000Y-55357928D01*
X216270000Y-55357928D01*
X216145518Y-55370188D01*
X216025820Y-55406498D01*
X215915506Y-55465463D01*
X215818815Y-55544815D01*
X215739463Y-55641506D01*
X215680498Y-55751820D01*
X215674944Y-55770127D01*
X215608505Y-55703688D01*
X215357095Y-55535701D01*
X215077743Y-55419989D01*
X214781184Y-55361000D01*
X214478816Y-55361000D01*
X214182257Y-55419989D01*
X213902905Y-55535701D01*
X213651495Y-55703688D01*
X213437688Y-55917495D01*
X213375210Y-56011000D01*
X210934078Y-56011000D01*
X210823608Y-55876392D01*
X210605101Y-55697068D01*
X210355808Y-55563818D01*
X210085309Y-55481764D01*
X209874492Y-55461000D01*
X209733508Y-55461000D01*
X209522691Y-55481764D01*
X209252192Y-55563818D01*
X209002899Y-55697068D01*
X208784392Y-55876392D01*
X208605068Y-56094899D01*
X208471818Y-56344192D01*
X208389764Y-56614691D01*
X208362057Y-56896000D01*
X208389764Y-57177309D01*
X208445576Y-57361300D01*
X203544498Y-57361300D01*
X203563853Y-57314574D01*
X203619000Y-57037335D01*
X203619000Y-56754665D01*
X203563853Y-56477426D01*
X203455680Y-56216273D01*
X203298637Y-55981241D01*
X203098759Y-55781363D01*
X202863727Y-55624320D01*
X202602574Y-55516147D01*
X202325335Y-55461000D01*
X202042665Y-55461000D01*
X201765426Y-55516147D01*
X201504273Y-55624320D01*
X201269241Y-55781363D01*
X201069363Y-55981241D01*
X200912320Y-56216273D01*
X200804147Y-56477426D01*
X200749000Y-56754665D01*
X200749000Y-57037335D01*
X200804147Y-57314574D01*
X200823502Y-57361300D01*
X200114269Y-57361300D01*
X200070800Y-57357019D01*
X200027331Y-57361300D01*
X200027323Y-57361300D01*
X199912106Y-57372648D01*
X199897309Y-57374105D01*
X199846703Y-57389457D01*
X199730487Y-57424711D01*
X199576741Y-57506889D01*
X199576739Y-57506890D01*
X199576740Y-57506890D01*
X199475753Y-57589768D01*
X199475751Y-57589770D01*
X199441983Y-57617483D01*
X199414270Y-57651251D01*
X193945752Y-63119770D01*
X193911984Y-63147483D01*
X193884271Y-63181251D01*
X193884268Y-63181254D01*
X193801390Y-63282241D01*
X193719212Y-63435987D01*
X193668605Y-63602810D01*
X193651519Y-63776300D01*
X193655801Y-63819779D01*
X193655800Y-70322131D01*
X193651519Y-70365600D01*
X193655800Y-70409069D01*
X193655800Y-70409076D01*
X193668605Y-70539089D01*
X193719211Y-70705912D01*
X193801389Y-70859658D01*
X193911983Y-70994417D01*
X193945756Y-71022134D01*
X194592381Y-71668760D01*
X194501818Y-71838192D01*
X194419764Y-72108691D01*
X194392057Y-72390000D01*
X194419764Y-72671309D01*
X194501818Y-72941808D01*
X194635068Y-73191101D01*
X194814392Y-73409608D01*
X195032899Y-73588932D01*
X195165858Y-73660000D01*
X195032899Y-73731068D01*
X194814392Y-73910392D01*
X194635068Y-74128899D01*
X194501818Y-74378192D01*
X194419764Y-74648691D01*
X194392057Y-74930000D01*
X194419764Y-75211309D01*
X194501818Y-75481808D01*
X194635068Y-75731101D01*
X194814392Y-75949608D01*
X195032899Y-76128932D01*
X195165858Y-76200000D01*
X195032899Y-76271068D01*
X194814392Y-76450392D01*
X194635068Y-76668899D01*
X194501818Y-76918192D01*
X194419764Y-77188691D01*
X194392057Y-77470000D01*
X194419764Y-77751309D01*
X194501818Y-78021808D01*
X194635068Y-78271101D01*
X194814392Y-78489608D01*
X195032899Y-78668932D01*
X195165858Y-78740000D01*
X195032899Y-78811068D01*
X194814392Y-78990392D01*
X194635068Y-79208899D01*
X194501818Y-79458192D01*
X194419764Y-79728691D01*
X194392057Y-80010000D01*
X194419764Y-80291309D01*
X194451218Y-80395000D01*
X194168579Y-80395000D01*
X187313000Y-73539422D01*
X187313000Y-73269589D01*
X187259775Y-73002011D01*
X187155371Y-72749957D01*
X187003799Y-72523114D01*
X186813000Y-72332315D01*
X186813000Y-67428521D01*
X186842759Y-67408637D01*
X187042637Y-67208759D01*
X187199680Y-66973727D01*
X187307853Y-66712574D01*
X187363000Y-66435335D01*
X187363000Y-66152665D01*
X187307853Y-65875426D01*
X187199680Y-65614273D01*
X187042637Y-65379241D01*
X186842759Y-65179363D01*
X186607727Y-65022320D01*
X186346574Y-64914147D01*
X186069335Y-64859000D01*
X185786665Y-64859000D01*
X185509426Y-64914147D01*
X185248273Y-65022320D01*
X185013241Y-65179363D01*
X184813363Y-65379241D01*
X184656320Y-65614273D01*
X184548147Y-65875426D01*
X184493000Y-66152665D01*
X182357724Y-66152665D01*
X182326787Y-65943870D01*
X182231603Y-65677708D01*
X182164671Y-65552486D01*
X181920702Y-65480903D01*
X181107605Y-66294000D01*
X180748395Y-66294000D01*
X179935298Y-65480903D01*
X179691329Y-65552486D01*
X179570429Y-65807996D01*
X179501700Y-66082184D01*
X179487783Y-66364512D01*
X178037000Y-66364512D01*
X178037000Y-65301298D01*
X180114903Y-65301298D01*
X180928000Y-66114395D01*
X181741097Y-65301298D01*
X181669514Y-65057329D01*
X181414004Y-64936429D01*
X181139816Y-64867700D01*
X180857488Y-64853783D01*
X180577870Y-64895213D01*
X180311708Y-64990397D01*
X180186486Y-65057329D01*
X180114903Y-65301298D01*
X178037000Y-65301298D01*
X178037000Y-56809492D01*
X178147647Y-57010759D01*
X178399175Y-57310518D01*
X178704136Y-57555712D01*
X179050914Y-57737004D01*
X179426300Y-57847486D01*
X179815997Y-57882951D01*
X180205161Y-57842048D01*
X180578969Y-57726336D01*
X180923182Y-57540220D01*
X181224689Y-57290792D01*
X181472007Y-56987550D01*
X181655715Y-56642046D01*
X181768815Y-56267440D01*
X181807000Y-55878000D01*
X181806218Y-55822017D01*
X181757174Y-55433795D01*
X181633659Y-55062493D01*
X181440376Y-54722253D01*
X181184687Y-54426035D01*
X180876333Y-54185123D01*
X180733554Y-54113000D01*
X253869922Y-54113000D01*
X253657719Y-54231596D01*
G36*
X230787363Y-94132759D02*
G01*
X230987241Y-94332637D01*
X231200103Y-94474866D01*
X230115969Y-95559000D01*
X222880284Y-95559000D01*
X222675727Y-95422320D01*
X222414574Y-95314147D01*
X222137335Y-95259000D01*
X221854665Y-95259000D01*
X221577426Y-95314147D01*
X221316273Y-95422320D01*
X221081241Y-95579363D01*
X220881363Y-95779241D01*
X220724320Y-96014273D01*
X220616147Y-96275426D01*
X220568150Y-96516718D01*
X218651869Y-98433000D01*
X216224957Y-98433000D01*
X216214537Y-98413506D01*
X216135185Y-98316815D01*
X216038494Y-98237463D01*
X215928180Y-98178498D01*
X215808482Y-98142188D01*
X215684000Y-98129928D01*
X215676785Y-98129928D01*
X215697097Y-98060702D01*
X214884000Y-97247605D01*
X214070903Y-98060702D01*
X214091215Y-98129928D01*
X214084000Y-98129928D01*
X213959518Y-98142188D01*
X213839820Y-98178498D01*
X213729506Y-98237463D01*
X213632815Y-98316815D01*
X213553463Y-98413506D01*
X213543043Y-98433000D01*
X205315835Y-98433000D01*
X205333117Y-98418817D01*
X205360834Y-98385044D01*
X206607366Y-97138512D01*
X213443783Y-97138512D01*
X213485213Y-97418130D01*
X213580397Y-97684292D01*
X213647329Y-97809514D01*
X213891298Y-97881097D01*
X214704395Y-97068000D01*
X215063605Y-97068000D01*
X215876702Y-97881097D01*
X216120671Y-97809514D01*
X216241571Y-97554004D01*
X216310300Y-97279816D01*
X216324217Y-96997488D01*
X216282787Y-96717870D01*
X216187603Y-96451708D01*
X216120671Y-96326486D01*
X215876702Y-96254903D01*
X215063605Y-97068000D01*
X214704395Y-97068000D01*
X213891298Y-96254903D01*
X213647329Y-96326486D01*
X213526429Y-96581996D01*
X213457700Y-96856184D01*
X213443783Y-97138512D01*
X206607366Y-97138512D01*
X207670580Y-96075298D01*
X214070903Y-96075298D01*
X214884000Y-96888395D01*
X215697097Y-96075298D01*
X215625514Y-95831329D01*
X215370004Y-95710429D01*
X215095816Y-95641700D01*
X214813488Y-95627783D01*
X214533870Y-95669213D01*
X214267708Y-95764397D01*
X214142486Y-95831329D01*
X214070903Y-96075298D01*
X207670580Y-96075298D01*
X209642879Y-94103000D01*
X230767479Y-94103000D01*
X230787363Y-94132759D01*
X230787363Y-94132759D01*
G37*
X230787363Y-94132759D02*
X230987241Y-94332637D01*
X231200103Y-94474866D01*
X230115969Y-95559000D01*
X222880284Y-95559000D01*
X222675727Y-95422320D01*
X222414574Y-95314147D01*
X222137335Y-95259000D01*
X221854665Y-95259000D01*
X221577426Y-95314147D01*
X221316273Y-95422320D01*
X221081241Y-95579363D01*
X220881363Y-95779241D01*
X220724320Y-96014273D01*
X220616147Y-96275426D01*
X220568150Y-96516718D01*
X218651869Y-98433000D01*
X216224957Y-98433000D01*
X216214537Y-98413506D01*
X216135185Y-98316815D01*
X216038494Y-98237463D01*
X215928180Y-98178498D01*
X215808482Y-98142188D01*
X215684000Y-98129928D01*
X215676785Y-98129928D01*
X215697097Y-98060702D01*
X214884000Y-97247605D01*
X214070903Y-98060702D01*
X214091215Y-98129928D01*
X214084000Y-98129928D01*
X213959518Y-98142188D01*
X213839820Y-98178498D01*
X213729506Y-98237463D01*
X213632815Y-98316815D01*
X213553463Y-98413506D01*
X213543043Y-98433000D01*
X205315835Y-98433000D01*
X205333117Y-98418817D01*
X205360834Y-98385044D01*
X206607366Y-97138512D01*
X213443783Y-97138512D01*
X213485213Y-97418130D01*
X213580397Y-97684292D01*
X213647329Y-97809514D01*
X213891298Y-97881097D01*
X214704395Y-97068000D01*
X215063605Y-97068000D01*
X215876702Y-97881097D01*
X216120671Y-97809514D01*
X216241571Y-97554004D01*
X216310300Y-97279816D01*
X216324217Y-96997488D01*
X216282787Y-96717870D01*
X216187603Y-96451708D01*
X216120671Y-96326486D01*
X215876702Y-96254903D01*
X215063605Y-97068000D01*
X214704395Y-97068000D01*
X213891298Y-96254903D01*
X213647329Y-96326486D01*
X213526429Y-96581996D01*
X213457700Y-96856184D01*
X213443783Y-97138512D01*
X206607366Y-97138512D01*
X207670580Y-96075298D01*
X214070903Y-96075298D01*
X214884000Y-96888395D01*
X215697097Y-96075298D01*
X215625514Y-95831329D01*
X215370004Y-95710429D01*
X215095816Y-95641700D01*
X214813488Y-95627783D01*
X214533870Y-95669213D01*
X214267708Y-95764397D01*
X214142486Y-95831329D01*
X214070903Y-96075298D01*
X207670580Y-96075298D01*
X209642879Y-94103000D01*
X230767479Y-94103000D01*
X230787363Y-94132759D01*
G36*
X215265000Y-85217000D02*
G01*
X215285000Y-85217000D01*
X215285000Y-85471000D01*
X215265000Y-85471000D01*
X215265000Y-87757000D01*
X215285000Y-87757000D01*
X215285000Y-88011000D01*
X215265000Y-88011000D01*
X215265000Y-88031000D01*
X215011000Y-88031000D01*
X215011000Y-88011000D01*
X214991000Y-88011000D01*
X214991000Y-87757000D01*
X215011000Y-87757000D01*
X215011000Y-85471000D01*
X214991000Y-85471000D01*
X214991000Y-85217000D01*
X215011000Y-85217000D01*
X215011000Y-85197000D01*
X215265000Y-85197000D01*
X215265000Y-85217000D01*
X215265000Y-85217000D01*
G37*
X215265000Y-85217000D02*
X215285000Y-85217000D01*
X215285000Y-85471000D01*
X215265000Y-85471000D01*
X215265000Y-87757000D01*
X215285000Y-87757000D01*
X215285000Y-88011000D01*
X215265000Y-88011000D01*
X215265000Y-88031000D01*
X215011000Y-88031000D01*
X215011000Y-88011000D01*
X214991000Y-88011000D01*
X214991000Y-87757000D01*
X215011000Y-87757000D01*
X215011000Y-85471000D01*
X214991000Y-85471000D01*
X214991000Y-85217000D01*
X215011000Y-85217000D01*
X215011000Y-85197000D01*
X215265000Y-85197000D01*
X215265000Y-85217000D01*
M02*
