G04 #@! TF.GenerationSoftware,KiCad,Pcbnew,5.1.2-1.fc30*
G04 #@! TF.CreationDate,2019-07-08T04:49:55+02:00*
G04 #@! TF.ProjectId,usbasp,75736261-7370-42e6-9b69-6361645f7063,1.0*
G04 #@! TF.SameCoordinates,Original*
G04 #@! TF.FileFunction,Legend,Top*
G04 #@! TF.FilePolarity,Positive*
%FSLAX46Y46*%
G04 Gerber Fmt 4.6, Leading zero omitted, Abs format (unit mm)*
G04 Created by KiCad (PCBNEW 5.1.2-1.fc30) date 2019-07-08 04:49:55*
%MOMM*%
%LPD*%
G04 APERTURE LIST*
%ADD10C,0.300000*%
%ADD11C,0.120000*%
%ADD12C,0.150000*%
G04 APERTURE END LIST*
D10*
X184214000Y-59376571D02*
X184214000Y-60590857D01*
X184285428Y-60733714D01*
X184356857Y-60805142D01*
X184499714Y-60876571D01*
X184785428Y-60876571D01*
X184928285Y-60805142D01*
X184999714Y-60733714D01*
X185071142Y-60590857D01*
X185071142Y-59376571D01*
X185714000Y-60805142D02*
X185928285Y-60876571D01*
X186285428Y-60876571D01*
X186428285Y-60805142D01*
X186499714Y-60733714D01*
X186571142Y-60590857D01*
X186571142Y-60448000D01*
X186499714Y-60305142D01*
X186428285Y-60233714D01*
X186285428Y-60162285D01*
X185999714Y-60090857D01*
X185856857Y-60019428D01*
X185785428Y-59948000D01*
X185714000Y-59805142D01*
X185714000Y-59662285D01*
X185785428Y-59519428D01*
X185856857Y-59448000D01*
X185999714Y-59376571D01*
X186356857Y-59376571D01*
X186571142Y-59448000D01*
X187714000Y-60090857D02*
X187928285Y-60162285D01*
X187999714Y-60233714D01*
X188071142Y-60376571D01*
X188071142Y-60590857D01*
X187999714Y-60733714D01*
X187928285Y-60805142D01*
X187785428Y-60876571D01*
X187214000Y-60876571D01*
X187214000Y-59376571D01*
X187714000Y-59376571D01*
X187856857Y-59448000D01*
X187928285Y-59519428D01*
X187999714Y-59662285D01*
X187999714Y-59805142D01*
X187928285Y-59948000D01*
X187856857Y-60019428D01*
X187714000Y-60090857D01*
X187214000Y-60090857D01*
X188642571Y-60448000D02*
X189356857Y-60448000D01*
X188499714Y-60876571D02*
X188999714Y-59376571D01*
X189499714Y-60876571D01*
X189928285Y-60805142D02*
X190142571Y-60876571D01*
X190499714Y-60876571D01*
X190642571Y-60805142D01*
X190714000Y-60733714D01*
X190785428Y-60590857D01*
X190785428Y-60448000D01*
X190714000Y-60305142D01*
X190642571Y-60233714D01*
X190499714Y-60162285D01*
X190214000Y-60090857D01*
X190071142Y-60019428D01*
X189999714Y-59948000D01*
X189928285Y-59805142D01*
X189928285Y-59662285D01*
X189999714Y-59519428D01*
X190071142Y-59448000D01*
X190214000Y-59376571D01*
X190571142Y-59376571D01*
X190785428Y-59448000D01*
X191428285Y-60876571D02*
X191428285Y-59376571D01*
X191999714Y-59376571D01*
X192142571Y-59448000D01*
X192214000Y-59519428D01*
X192285428Y-59662285D01*
X192285428Y-59876571D01*
X192214000Y-60019428D01*
X192142571Y-60090857D01*
X191999714Y-60162285D01*
X191428285Y-60162285D01*
D11*
X180808000Y-65239000D02*
X180808000Y-64924000D01*
X180808000Y-67664000D02*
X180808000Y-67349000D01*
X186048000Y-65239000D02*
X186048000Y-64924000D01*
X186048000Y-67664000D02*
X186048000Y-67349000D01*
X186048000Y-64924000D02*
X180808000Y-64924000D01*
X186048000Y-67664000D02*
X180808000Y-67664000D01*
X180808000Y-82765000D02*
X180808000Y-82450000D01*
X180808000Y-85190000D02*
X180808000Y-84875000D01*
X186048000Y-82765000D02*
X186048000Y-82450000D01*
X186048000Y-85190000D02*
X186048000Y-84875000D01*
X186048000Y-82450000D02*
X180808000Y-82450000D01*
X186048000Y-85190000D02*
X180808000Y-85190000D01*
X220626000Y-90574000D02*
X223366000Y-90574000D01*
X220626000Y-97814000D02*
X223366000Y-97814000D01*
X223366000Y-97814000D02*
X223366000Y-90574000D01*
X220626000Y-97814000D02*
X220626000Y-90574000D01*
X213159000Y-100872775D02*
X213659000Y-100872775D01*
X213409000Y-101122775D02*
X213409000Y-100622775D01*
X214600000Y-95717000D02*
X215168000Y-95717000D01*
X214366000Y-95757000D02*
X215402000Y-95757000D01*
X214207000Y-95797000D02*
X215561000Y-95797000D01*
X214079000Y-95837000D02*
X215689000Y-95837000D01*
X213969000Y-95877000D02*
X215799000Y-95877000D01*
X213873000Y-95917000D02*
X215895000Y-95917000D01*
X213786000Y-95957000D02*
X215982000Y-95957000D01*
X213706000Y-95997000D02*
X216062000Y-95997000D01*
X215924000Y-96037000D02*
X216135000Y-96037000D01*
X213633000Y-96037000D02*
X213844000Y-96037000D01*
X215924000Y-96077000D02*
X216203000Y-96077000D01*
X213565000Y-96077000D02*
X213844000Y-96077000D01*
X215924000Y-96117000D02*
X216267000Y-96117000D01*
X213501000Y-96117000D02*
X213844000Y-96117000D01*
X215924000Y-96157000D02*
X216327000Y-96157000D01*
X213441000Y-96157000D02*
X213844000Y-96157000D01*
X215924000Y-96197000D02*
X216384000Y-96197000D01*
X213384000Y-96197000D02*
X213844000Y-96197000D01*
X215924000Y-96237000D02*
X216438000Y-96237000D01*
X213330000Y-96237000D02*
X213844000Y-96237000D01*
X215924000Y-96277000D02*
X216489000Y-96277000D01*
X213279000Y-96277000D02*
X213844000Y-96277000D01*
X215924000Y-96317000D02*
X216537000Y-96317000D01*
X213231000Y-96317000D02*
X213844000Y-96317000D01*
X215924000Y-96357000D02*
X216583000Y-96357000D01*
X213185000Y-96357000D02*
X213844000Y-96357000D01*
X215924000Y-96397000D02*
X216627000Y-96397000D01*
X213141000Y-96397000D02*
X213844000Y-96397000D01*
X215924000Y-96437000D02*
X216669000Y-96437000D01*
X213099000Y-96437000D02*
X213844000Y-96437000D01*
X215924000Y-96477000D02*
X216710000Y-96477000D01*
X213058000Y-96477000D02*
X213844000Y-96477000D01*
X215924000Y-96517000D02*
X216748000Y-96517000D01*
X213020000Y-96517000D02*
X213844000Y-96517000D01*
X215924000Y-96557000D02*
X216785000Y-96557000D01*
X212983000Y-96557000D02*
X213844000Y-96557000D01*
X215924000Y-96597000D02*
X216821000Y-96597000D01*
X212947000Y-96597000D02*
X213844000Y-96597000D01*
X215924000Y-96637000D02*
X216855000Y-96637000D01*
X212913000Y-96637000D02*
X213844000Y-96637000D01*
X215924000Y-96677000D02*
X216888000Y-96677000D01*
X212880000Y-96677000D02*
X213844000Y-96677000D01*
X215924000Y-96717000D02*
X216919000Y-96717000D01*
X212849000Y-96717000D02*
X213844000Y-96717000D01*
X215924000Y-96757000D02*
X216949000Y-96757000D01*
X212819000Y-96757000D02*
X213844000Y-96757000D01*
X215924000Y-96797000D02*
X216979000Y-96797000D01*
X212789000Y-96797000D02*
X213844000Y-96797000D01*
X215924000Y-96837000D02*
X217006000Y-96837000D01*
X212762000Y-96837000D02*
X213844000Y-96837000D01*
X215924000Y-96877000D02*
X217033000Y-96877000D01*
X212735000Y-96877000D02*
X213844000Y-96877000D01*
X215924000Y-96917000D02*
X217059000Y-96917000D01*
X212709000Y-96917000D02*
X213844000Y-96917000D01*
X215924000Y-96957000D02*
X217084000Y-96957000D01*
X212684000Y-96957000D02*
X213844000Y-96957000D01*
X215924000Y-96997000D02*
X217108000Y-96997000D01*
X212660000Y-96997000D02*
X213844000Y-96997000D01*
X215924000Y-97037000D02*
X217131000Y-97037000D01*
X212637000Y-97037000D02*
X213844000Y-97037000D01*
X215924000Y-97077000D02*
X217152000Y-97077000D01*
X212616000Y-97077000D02*
X213844000Y-97077000D01*
X215924000Y-97117000D02*
X217174000Y-97117000D01*
X212594000Y-97117000D02*
X213844000Y-97117000D01*
X215924000Y-97157000D02*
X217194000Y-97157000D01*
X212574000Y-97157000D02*
X213844000Y-97157000D01*
X215924000Y-97197000D02*
X217213000Y-97197000D01*
X212555000Y-97197000D02*
X213844000Y-97197000D01*
X215924000Y-97237000D02*
X217232000Y-97237000D01*
X212536000Y-97237000D02*
X213844000Y-97237000D01*
X215924000Y-97277000D02*
X217249000Y-97277000D01*
X212519000Y-97277000D02*
X213844000Y-97277000D01*
X215924000Y-97317000D02*
X217266000Y-97317000D01*
X212502000Y-97317000D02*
X213844000Y-97317000D01*
X215924000Y-97357000D02*
X217282000Y-97357000D01*
X212486000Y-97357000D02*
X213844000Y-97357000D01*
X215924000Y-97397000D02*
X217298000Y-97397000D01*
X212470000Y-97397000D02*
X213844000Y-97397000D01*
X215924000Y-97437000D02*
X217312000Y-97437000D01*
X212456000Y-97437000D02*
X213844000Y-97437000D01*
X215924000Y-97477000D02*
X217326000Y-97477000D01*
X212442000Y-97477000D02*
X213844000Y-97477000D01*
X215924000Y-97517000D02*
X217339000Y-97517000D01*
X212429000Y-97517000D02*
X213844000Y-97517000D01*
X215924000Y-97557000D02*
X217352000Y-97557000D01*
X212416000Y-97557000D02*
X213844000Y-97557000D01*
X215924000Y-97597000D02*
X217364000Y-97597000D01*
X212404000Y-97597000D02*
X213844000Y-97597000D01*
X215924000Y-97638000D02*
X217375000Y-97638000D01*
X212393000Y-97638000D02*
X213844000Y-97638000D01*
X215924000Y-97678000D02*
X217385000Y-97678000D01*
X212383000Y-97678000D02*
X213844000Y-97678000D01*
X215924000Y-97718000D02*
X217395000Y-97718000D01*
X212373000Y-97718000D02*
X213844000Y-97718000D01*
X215924000Y-97758000D02*
X217404000Y-97758000D01*
X212364000Y-97758000D02*
X213844000Y-97758000D01*
X215924000Y-97798000D02*
X217412000Y-97798000D01*
X212356000Y-97798000D02*
X213844000Y-97798000D01*
X215924000Y-97838000D02*
X217420000Y-97838000D01*
X212348000Y-97838000D02*
X213844000Y-97838000D01*
X215924000Y-97878000D02*
X217427000Y-97878000D01*
X212341000Y-97878000D02*
X213844000Y-97878000D01*
X215924000Y-97918000D02*
X217434000Y-97918000D01*
X212334000Y-97918000D02*
X213844000Y-97918000D01*
X215924000Y-97958000D02*
X217440000Y-97958000D01*
X212328000Y-97958000D02*
X213844000Y-97958000D01*
X215924000Y-97998000D02*
X217445000Y-97998000D01*
X212323000Y-97998000D02*
X213844000Y-97998000D01*
X215924000Y-98038000D02*
X217449000Y-98038000D01*
X212319000Y-98038000D02*
X213844000Y-98038000D01*
X215924000Y-98078000D02*
X217453000Y-98078000D01*
X212315000Y-98078000D02*
X213844000Y-98078000D01*
X212311000Y-98118000D02*
X217457000Y-98118000D01*
X212308000Y-98158000D02*
X217460000Y-98158000D01*
X212306000Y-98198000D02*
X217462000Y-98198000D01*
X212305000Y-98238000D02*
X217463000Y-98238000D01*
X212304000Y-98278000D02*
X217464000Y-98278000D01*
X212304000Y-98318000D02*
X217464000Y-98318000D01*
X217504000Y-98318000D02*
G75*
G03X217504000Y-98318000I-2620000J0D01*
G01*
X244070000Y-77824000D02*
X244070000Y-75084000D01*
X251310000Y-77824000D02*
X251310000Y-75084000D01*
X251310000Y-75084000D02*
X244070000Y-75084000D01*
X251310000Y-77824000D02*
X244070000Y-77824000D01*
X237232000Y-83924000D02*
X237232000Y-81684000D01*
X236992000Y-83924000D02*
X236992000Y-81684000D01*
X237112000Y-83924000D02*
X237112000Y-81684000D01*
X232942000Y-82804000D02*
X233592000Y-82804000D01*
X238482000Y-82804000D02*
X237832000Y-82804000D01*
X233592000Y-83924000D02*
X237832000Y-83924000D01*
X233592000Y-81684000D02*
X233592000Y-83924000D01*
X237832000Y-81684000D02*
X233592000Y-81684000D01*
X237832000Y-83924000D02*
X237832000Y-81684000D01*
X237232000Y-87988000D02*
X237232000Y-85748000D01*
X236992000Y-87988000D02*
X236992000Y-85748000D01*
X237112000Y-87988000D02*
X237112000Y-85748000D01*
X232942000Y-86868000D02*
X233592000Y-86868000D01*
X238482000Y-86868000D02*
X237832000Y-86868000D01*
X233592000Y-87988000D02*
X237832000Y-87988000D01*
X233592000Y-85748000D02*
X233592000Y-87988000D01*
X237832000Y-85748000D02*
X233592000Y-85748000D01*
X237832000Y-87988000D02*
X237832000Y-85748000D01*
X217460000Y-55816000D02*
X217460000Y-55660000D01*
X217460000Y-58132000D02*
X217460000Y-57976000D01*
X214858870Y-55816163D02*
G75*
G02X216940961Y-55816000I1041130J-1079837D01*
G01*
X214858870Y-57975837D02*
G75*
G03X216940961Y-57976000I1041130J1079837D01*
G01*
X214227665Y-55817392D02*
G75*
G02X217460000Y-55660484I1672335J-1078608D01*
G01*
X214227665Y-57974608D02*
G75*
G03X217460000Y-58131516I1672335J1078608D01*
G01*
X221960000Y-57976000D02*
X221960000Y-58132000D01*
X221960000Y-55660000D02*
X221960000Y-55816000D01*
X224561130Y-57975837D02*
G75*
G02X222479039Y-57976000I-1041130J1079837D01*
G01*
X224561130Y-55816163D02*
G75*
G03X222479039Y-55816000I-1041130J-1079837D01*
G01*
X225192335Y-57974608D02*
G75*
G02X221960000Y-58131516I-1672335J1078608D01*
G01*
X225192335Y-55817392D02*
G75*
G03X221960000Y-55660484I-1672335J-1078608D01*
G01*
X250440000Y-71224000D02*
X250440000Y-68984000D01*
X250200000Y-71224000D02*
X250200000Y-68984000D01*
X250320000Y-71224000D02*
X250320000Y-68984000D01*
X246150000Y-70104000D02*
X246800000Y-70104000D01*
X251690000Y-70104000D02*
X251040000Y-70104000D01*
X246800000Y-71224000D02*
X251040000Y-71224000D01*
X246800000Y-68984000D02*
X246800000Y-71224000D01*
X251040000Y-68984000D02*
X246800000Y-68984000D01*
X251040000Y-71224000D02*
X251040000Y-68984000D01*
X242464000Y-87726000D02*
X241964000Y-87226000D01*
X241964000Y-87226000D02*
X241964000Y-88226000D01*
X241964000Y-88226000D02*
X242464000Y-87726000D01*
X242664000Y-96026000D02*
X242664000Y-81926000D01*
X242664000Y-81926000D02*
X247464000Y-81926000D01*
X250964000Y-81926000D02*
X255764000Y-81926000D01*
X255764000Y-81926000D02*
X255764000Y-96026000D01*
X255764000Y-96026000D02*
X250964000Y-96026000D01*
X247464000Y-96026000D02*
X242664000Y-96026000D01*
X208943000Y-72124000D02*
X211483000Y-72124000D01*
X208943000Y-72124000D02*
X208943000Y-74664000D01*
X209193000Y-72374000D02*
X218543000Y-72374000D01*
X209193000Y-93234000D02*
X209193000Y-72374000D01*
X218543000Y-93234000D02*
X209193000Y-93234000D01*
X218543000Y-72374000D02*
X218543000Y-93234000D01*
X220373000Y-72124000D02*
X222913000Y-72124000D01*
X220373000Y-72124000D02*
X220373000Y-74664000D01*
X220623000Y-72374000D02*
X229973000Y-72374000D01*
X220623000Y-88154000D02*
X220623000Y-72374000D01*
X229973000Y-88154000D02*
X220623000Y-88154000D01*
X229973000Y-72374000D02*
X229973000Y-88154000D01*
X187512000Y-100390000D02*
X186182000Y-100390000D01*
X187512000Y-99060000D02*
X187512000Y-100390000D01*
X187512000Y-97790000D02*
X184852000Y-97790000D01*
X184852000Y-97790000D02*
X184852000Y-95190000D01*
X187512000Y-97790000D02*
X187512000Y-95190000D01*
X187512000Y-95190000D02*
X184852000Y-95190000D01*
X235144000Y-72838000D02*
X236474000Y-72838000D01*
X235144000Y-74168000D02*
X235144000Y-72838000D01*
X235144000Y-75438000D02*
X237804000Y-75438000D01*
X237804000Y-75438000D02*
X237804000Y-78038000D01*
X235144000Y-75438000D02*
X235144000Y-78038000D01*
X235144000Y-78038000D02*
X237804000Y-78038000D01*
X235144000Y-63440000D02*
X236474000Y-63440000D01*
X235144000Y-64770000D02*
X235144000Y-63440000D01*
X235144000Y-66040000D02*
X237804000Y-66040000D01*
X237804000Y-66040000D02*
X237804000Y-68640000D01*
X235144000Y-66040000D02*
X235144000Y-68640000D01*
X235144000Y-68640000D02*
X237804000Y-68640000D01*
X245650000Y-63400000D02*
X245650000Y-63730000D01*
X252190000Y-63400000D02*
X245650000Y-63400000D01*
X252190000Y-63730000D02*
X252190000Y-63400000D01*
X245650000Y-66140000D02*
X245650000Y-65810000D01*
X252190000Y-66140000D02*
X245650000Y-66140000D01*
X252190000Y-65810000D02*
X252190000Y-66140000D01*
X252444000Y-61314000D02*
X252444000Y-60984000D01*
X245904000Y-61314000D02*
X252444000Y-61314000D01*
X245904000Y-60984000D02*
X245904000Y-61314000D01*
X252444000Y-58574000D02*
X252444000Y-58904000D01*
X245904000Y-58574000D02*
X252444000Y-58574000D01*
X245904000Y-58904000D02*
X245904000Y-58574000D01*
X238982000Y-94588000D02*
X238982000Y-94258000D01*
X232442000Y-94588000D02*
X238982000Y-94588000D01*
X232442000Y-94258000D02*
X232442000Y-94588000D01*
X238982000Y-91848000D02*
X238982000Y-92178000D01*
X232442000Y-91848000D02*
X238982000Y-91848000D01*
X232442000Y-92178000D02*
X232442000Y-91848000D01*
X238982000Y-100684000D02*
X238982000Y-100354000D01*
X232442000Y-100684000D02*
X238982000Y-100684000D01*
X232442000Y-100354000D02*
X232442000Y-100684000D01*
X238982000Y-97944000D02*
X238982000Y-98274000D01*
X232442000Y-97944000D02*
X238982000Y-97944000D01*
X232442000Y-98274000D02*
X232442000Y-97944000D01*
X209264000Y-58266000D02*
X209264000Y-57936000D01*
X202724000Y-58266000D02*
X209264000Y-58266000D01*
X202724000Y-57936000D02*
X202724000Y-58266000D01*
X209264000Y-55526000D02*
X209264000Y-55856000D01*
X202724000Y-55526000D02*
X209264000Y-55526000D01*
X202724000Y-55856000D02*
X202724000Y-55526000D01*
X229648000Y-55526000D02*
X229648000Y-55856000D01*
X236188000Y-55526000D02*
X229648000Y-55526000D01*
X236188000Y-55856000D02*
X236188000Y-55526000D01*
X229648000Y-58266000D02*
X229648000Y-57936000D01*
X236188000Y-58266000D02*
X229648000Y-58266000D01*
X236188000Y-57936000D02*
X236188000Y-58266000D01*
X210852000Y-66194000D02*
X210852000Y-66524000D01*
X217392000Y-66194000D02*
X210852000Y-66194000D01*
X217392000Y-66524000D02*
X217392000Y-66194000D01*
X210852000Y-68934000D02*
X210852000Y-68604000D01*
X217392000Y-68934000D02*
X210852000Y-68934000D01*
X217392000Y-68604000D02*
X217392000Y-68934000D01*
X202294000Y-63440000D02*
X200644000Y-63440000D01*
X202294000Y-99120000D02*
X202294000Y-63440000D01*
X196994000Y-99120000D02*
X202294000Y-99120000D01*
X196994000Y-63440000D02*
X196994000Y-99120000D01*
X198644000Y-63440000D02*
X196994000Y-63440000D01*
X200644000Y-63440000D02*
G75*
G02X198644000Y-63440000I-1000000J0D01*
G01*
X187778000Y-72956000D02*
X187778000Y-77656000D01*
X184078000Y-72956000D02*
X184078000Y-77656000D01*
X184078000Y-72956000D02*
G75*
G02X187778000Y-72956000I1850000J0D01*
G01*
X184078000Y-77656000D02*
G75*
G03X187778000Y-77656000I1850000J0D01*
G01*
D12*
X183261333Y-69151142D02*
X183213714Y-69198761D01*
X183070857Y-69246380D01*
X182975619Y-69246380D01*
X182832761Y-69198761D01*
X182737523Y-69103523D01*
X182689904Y-69008285D01*
X182642285Y-68817809D01*
X182642285Y-68674952D01*
X182689904Y-68484476D01*
X182737523Y-68389238D01*
X182832761Y-68294000D01*
X182975619Y-68246380D01*
X183070857Y-68246380D01*
X183213714Y-68294000D01*
X183261333Y-68341619D01*
X184213714Y-69246380D02*
X183642285Y-69246380D01*
X183928000Y-69246380D02*
X183928000Y-68246380D01*
X183832761Y-68389238D01*
X183737523Y-68484476D01*
X183642285Y-68532095D01*
X183261333Y-86677142D02*
X183213714Y-86724761D01*
X183070857Y-86772380D01*
X182975619Y-86772380D01*
X182832761Y-86724761D01*
X182737523Y-86629523D01*
X182689904Y-86534285D01*
X182642285Y-86343809D01*
X182642285Y-86200952D01*
X182689904Y-86010476D01*
X182737523Y-85915238D01*
X182832761Y-85820000D01*
X182975619Y-85772380D01*
X183070857Y-85772380D01*
X183213714Y-85820000D01*
X183261333Y-85867619D01*
X183642285Y-85867619D02*
X183689904Y-85820000D01*
X183785142Y-85772380D01*
X184023238Y-85772380D01*
X184118476Y-85820000D01*
X184166095Y-85867619D01*
X184213714Y-85962857D01*
X184213714Y-86058095D01*
X184166095Y-86200952D01*
X183594666Y-86772380D01*
X184213714Y-86772380D01*
X219853142Y-94360666D02*
X219900761Y-94408285D01*
X219948380Y-94551142D01*
X219948380Y-94646380D01*
X219900761Y-94789238D01*
X219805523Y-94884476D01*
X219710285Y-94932095D01*
X219519809Y-94979714D01*
X219376952Y-94979714D01*
X219186476Y-94932095D01*
X219091238Y-94884476D01*
X218996000Y-94789238D01*
X218948380Y-94646380D01*
X218948380Y-94551142D01*
X218996000Y-94408285D01*
X219043619Y-94360666D01*
X218948380Y-94027333D02*
X218948380Y-93408285D01*
X219329333Y-93741619D01*
X219329333Y-93598761D01*
X219376952Y-93503523D01*
X219424571Y-93455904D01*
X219519809Y-93408285D01*
X219757904Y-93408285D01*
X219853142Y-93455904D01*
X219900761Y-93503523D01*
X219948380Y-93598761D01*
X219948380Y-93884476D01*
X219900761Y-93979714D01*
X219853142Y-94027333D01*
X211491142Y-98484666D02*
X211538761Y-98532285D01*
X211586380Y-98675142D01*
X211586380Y-98770380D01*
X211538761Y-98913238D01*
X211443523Y-99008476D01*
X211348285Y-99056095D01*
X211157809Y-99103714D01*
X211014952Y-99103714D01*
X210824476Y-99056095D01*
X210729238Y-99008476D01*
X210634000Y-98913238D01*
X210586380Y-98770380D01*
X210586380Y-98675142D01*
X210634000Y-98532285D01*
X210681619Y-98484666D01*
X210919714Y-97627523D02*
X211586380Y-97627523D01*
X210538761Y-97865619D02*
X211253047Y-98103714D01*
X211253047Y-97484666D01*
X247523333Y-79311142D02*
X247475714Y-79358761D01*
X247332857Y-79406380D01*
X247237619Y-79406380D01*
X247094761Y-79358761D01*
X246999523Y-79263523D01*
X246951904Y-79168285D01*
X246904285Y-78977809D01*
X246904285Y-78834952D01*
X246951904Y-78644476D01*
X246999523Y-78549238D01*
X247094761Y-78454000D01*
X247237619Y-78406380D01*
X247332857Y-78406380D01*
X247475714Y-78454000D01*
X247523333Y-78501619D01*
X248428095Y-78406380D02*
X247951904Y-78406380D01*
X247904285Y-78882571D01*
X247951904Y-78834952D01*
X248047142Y-78787333D01*
X248285238Y-78787333D01*
X248380476Y-78834952D01*
X248428095Y-78882571D01*
X248475714Y-78977809D01*
X248475714Y-79215904D01*
X248428095Y-79311142D01*
X248380476Y-79358761D01*
X248285238Y-79406380D01*
X248047142Y-79406380D01*
X247951904Y-79358761D01*
X247904285Y-79311142D01*
X234973904Y-85376380D02*
X234973904Y-84376380D01*
X235212000Y-84376380D01*
X235354857Y-84424000D01*
X235450095Y-84519238D01*
X235497714Y-84614476D01*
X235545333Y-84804952D01*
X235545333Y-84947809D01*
X235497714Y-85138285D01*
X235450095Y-85233523D01*
X235354857Y-85328761D01*
X235212000Y-85376380D01*
X234973904Y-85376380D01*
X236497714Y-85376380D02*
X235926285Y-85376380D01*
X236212000Y-85376380D02*
X236212000Y-84376380D01*
X236116761Y-84519238D01*
X236021523Y-84614476D01*
X235926285Y-84662095D01*
X239260095Y-85056380D02*
X239260095Y-84056380D01*
X239831523Y-85056380D02*
X239402952Y-84484952D01*
X239831523Y-84056380D02*
X239260095Y-84627809D01*
X234973904Y-89440380D02*
X234973904Y-88440380D01*
X235212000Y-88440380D01*
X235354857Y-88488000D01*
X235450095Y-88583238D01*
X235497714Y-88678476D01*
X235545333Y-88868952D01*
X235545333Y-89011809D01*
X235497714Y-89202285D01*
X235450095Y-89297523D01*
X235354857Y-89392761D01*
X235212000Y-89440380D01*
X234973904Y-89440380D01*
X235926285Y-88535619D02*
X235973904Y-88488000D01*
X236069142Y-88440380D01*
X236307238Y-88440380D01*
X236402476Y-88488000D01*
X236450095Y-88535619D01*
X236497714Y-88630857D01*
X236497714Y-88726095D01*
X236450095Y-88868952D01*
X235878666Y-89440380D01*
X236497714Y-89440380D01*
X239260095Y-89120380D02*
X239260095Y-88120380D01*
X239831523Y-89120380D02*
X239402952Y-88548952D01*
X239831523Y-88120380D02*
X239260095Y-88691809D01*
X215669904Y-60650380D02*
X215669904Y-59650380D01*
X215908000Y-59650380D01*
X216050857Y-59698000D01*
X216146095Y-59793238D01*
X216193714Y-59888476D01*
X216241333Y-60078952D01*
X216241333Y-60221809D01*
X216193714Y-60412285D01*
X216146095Y-60507523D01*
X216050857Y-60602761D01*
X215908000Y-60650380D01*
X215669904Y-60650380D01*
X216574666Y-59650380D02*
X217193714Y-59650380D01*
X216860380Y-60031333D01*
X217003238Y-60031333D01*
X217098476Y-60078952D01*
X217146095Y-60126571D01*
X217193714Y-60221809D01*
X217193714Y-60459904D01*
X217146095Y-60555142D01*
X217098476Y-60602761D01*
X217003238Y-60650380D01*
X216717523Y-60650380D01*
X216622285Y-60602761D01*
X216574666Y-60555142D01*
X223035904Y-60650380D02*
X223035904Y-59650380D01*
X223274000Y-59650380D01*
X223416857Y-59698000D01*
X223512095Y-59793238D01*
X223559714Y-59888476D01*
X223607333Y-60078952D01*
X223607333Y-60221809D01*
X223559714Y-60412285D01*
X223512095Y-60507523D01*
X223416857Y-60602761D01*
X223274000Y-60650380D01*
X223035904Y-60650380D01*
X224464476Y-59983714D02*
X224464476Y-60650380D01*
X224226380Y-59602761D02*
X223988285Y-60317047D01*
X224607333Y-60317047D01*
X248181904Y-72676380D02*
X248181904Y-71676380D01*
X248420000Y-71676380D01*
X248562857Y-71724000D01*
X248658095Y-71819238D01*
X248705714Y-71914476D01*
X248753333Y-72104952D01*
X248753333Y-72247809D01*
X248705714Y-72438285D01*
X248658095Y-72533523D01*
X248562857Y-72628761D01*
X248420000Y-72676380D01*
X248181904Y-72676380D01*
X249658095Y-71676380D02*
X249181904Y-71676380D01*
X249134285Y-72152571D01*
X249181904Y-72104952D01*
X249277142Y-72057333D01*
X249515238Y-72057333D01*
X249610476Y-72104952D01*
X249658095Y-72152571D01*
X249705714Y-72247809D01*
X249705714Y-72485904D01*
X249658095Y-72581142D01*
X249610476Y-72628761D01*
X249515238Y-72676380D01*
X249277142Y-72676380D01*
X249181904Y-72628761D01*
X249134285Y-72581142D01*
X241366380Y-93859333D02*
X242080666Y-93859333D01*
X242223523Y-93906952D01*
X242318761Y-94002190D01*
X242366380Y-94145047D01*
X242366380Y-94240285D01*
X242366380Y-92859333D02*
X242366380Y-93430761D01*
X242366380Y-93145047D02*
X241366380Y-93145047D01*
X241509238Y-93240285D01*
X241604476Y-93335523D01*
X241652095Y-93430761D01*
X213534666Y-70572380D02*
X213534666Y-71286666D01*
X213487047Y-71429523D01*
X213391809Y-71524761D01*
X213248952Y-71572380D01*
X213153714Y-71572380D01*
X213963238Y-70667619D02*
X214010857Y-70620000D01*
X214106095Y-70572380D01*
X214344190Y-70572380D01*
X214439428Y-70620000D01*
X214487047Y-70667619D01*
X214534666Y-70762857D01*
X214534666Y-70858095D01*
X214487047Y-71000952D01*
X213915619Y-71572380D01*
X214534666Y-71572380D01*
X224964666Y-70572380D02*
X224964666Y-71286666D01*
X224917047Y-71429523D01*
X224821809Y-71524761D01*
X224678952Y-71572380D01*
X224583714Y-71572380D01*
X225345619Y-70572380D02*
X225964666Y-70572380D01*
X225631333Y-70953333D01*
X225774190Y-70953333D01*
X225869428Y-71000952D01*
X225917047Y-71048571D01*
X225964666Y-71143809D01*
X225964666Y-71381904D01*
X225917047Y-71477142D01*
X225869428Y-71524761D01*
X225774190Y-71572380D01*
X225488476Y-71572380D01*
X225393238Y-71524761D01*
X225345619Y-71477142D01*
X185348666Y-100842380D02*
X185348666Y-101556666D01*
X185301047Y-101699523D01*
X185205809Y-101794761D01*
X185062952Y-101842380D01*
X184967714Y-101842380D01*
X185824857Y-101842380D02*
X185824857Y-100842380D01*
X186205809Y-100842380D01*
X186301047Y-100890000D01*
X186348666Y-100937619D01*
X186396285Y-101032857D01*
X186396285Y-101175714D01*
X186348666Y-101270952D01*
X186301047Y-101318571D01*
X186205809Y-101366190D01*
X185824857Y-101366190D01*
X187348666Y-101842380D02*
X186777238Y-101842380D01*
X187062952Y-101842380D02*
X187062952Y-100842380D01*
X186967714Y-100985238D01*
X186872476Y-101080476D01*
X186777238Y-101128095D01*
X181372476Y-94594761D02*
X181467714Y-94642380D01*
X181658190Y-94642380D01*
X181753428Y-94594761D01*
X181801047Y-94499523D01*
X181801047Y-94451904D01*
X181753428Y-94356666D01*
X181658190Y-94309047D01*
X181515333Y-94309047D01*
X181420095Y-94261428D01*
X181372476Y-94166190D01*
X181372476Y-94118571D01*
X181420095Y-94023333D01*
X181515333Y-93975714D01*
X181658190Y-93975714D01*
X181753428Y-94023333D01*
X182658190Y-93975714D02*
X182658190Y-94642380D01*
X182229619Y-93975714D02*
X182229619Y-94499523D01*
X182277238Y-94594761D01*
X182372476Y-94642380D01*
X182515333Y-94642380D01*
X182610571Y-94594761D01*
X182658190Y-94547142D01*
X183134380Y-93975714D02*
X183134380Y-94975714D01*
X183134380Y-94023333D02*
X183229619Y-93975714D01*
X183420095Y-93975714D01*
X183515333Y-94023333D01*
X183562952Y-94070952D01*
X183610571Y-94166190D01*
X183610571Y-94451904D01*
X183562952Y-94547142D01*
X183515333Y-94594761D01*
X183420095Y-94642380D01*
X183229619Y-94642380D01*
X183134380Y-94594761D01*
X184039142Y-93975714D02*
X184039142Y-94975714D01*
X184039142Y-94023333D02*
X184134380Y-93975714D01*
X184324857Y-93975714D01*
X184420095Y-94023333D01*
X184467714Y-94070952D01*
X184515333Y-94166190D01*
X184515333Y-94451904D01*
X184467714Y-94547142D01*
X184420095Y-94594761D01*
X184324857Y-94642380D01*
X184134380Y-94642380D01*
X184039142Y-94594761D01*
X185086761Y-94642380D02*
X184991523Y-94594761D01*
X184943904Y-94499523D01*
X184943904Y-93642380D01*
X185372476Y-93975714D02*
X185610571Y-94642380D01*
X185848666Y-93975714D02*
X185610571Y-94642380D01*
X185515333Y-94880476D01*
X185467714Y-94928095D01*
X185372476Y-94975714D01*
X186848666Y-93975714D02*
X187229619Y-93975714D01*
X186991523Y-93642380D02*
X186991523Y-94499523D01*
X187039142Y-94594761D01*
X187134380Y-94642380D01*
X187229619Y-94642380D01*
X187991523Y-94642380D02*
X187991523Y-94118571D01*
X187943904Y-94023333D01*
X187848666Y-93975714D01*
X187658190Y-93975714D01*
X187562952Y-94023333D01*
X187991523Y-94594761D02*
X187896285Y-94642380D01*
X187658190Y-94642380D01*
X187562952Y-94594761D01*
X187515333Y-94499523D01*
X187515333Y-94404285D01*
X187562952Y-94309047D01*
X187658190Y-94261428D01*
X187896285Y-94261428D01*
X187991523Y-94213809D01*
X188467714Y-94642380D02*
X188467714Y-93975714D01*
X188467714Y-94166190D02*
X188515333Y-94070952D01*
X188562952Y-94023333D01*
X188658190Y-93975714D01*
X188753428Y-93975714D01*
X189515333Y-93975714D02*
X189515333Y-94785238D01*
X189467714Y-94880476D01*
X189420095Y-94928095D01*
X189324857Y-94975714D01*
X189182000Y-94975714D01*
X189086761Y-94928095D01*
X189515333Y-94594761D02*
X189420095Y-94642380D01*
X189229619Y-94642380D01*
X189134380Y-94594761D01*
X189086761Y-94547142D01*
X189039142Y-94451904D01*
X189039142Y-94166190D01*
X189086761Y-94070952D01*
X189134380Y-94023333D01*
X189229619Y-93975714D01*
X189420095Y-93975714D01*
X189515333Y-94023333D01*
X190372476Y-94594761D02*
X190277238Y-94642380D01*
X190086761Y-94642380D01*
X189991523Y-94594761D01*
X189943904Y-94499523D01*
X189943904Y-94118571D01*
X189991523Y-94023333D01*
X190086761Y-93975714D01*
X190277238Y-93975714D01*
X190372476Y-94023333D01*
X190420095Y-94118571D01*
X190420095Y-94213809D01*
X189943904Y-94309047D01*
X190705809Y-93975714D02*
X191086761Y-93975714D01*
X190848666Y-93642380D02*
X190848666Y-94499523D01*
X190896285Y-94594761D01*
X190991523Y-94642380D01*
X191086761Y-94642380D01*
X235640666Y-71290380D02*
X235640666Y-72004666D01*
X235593047Y-72147523D01*
X235497809Y-72242761D01*
X235354952Y-72290380D01*
X235259714Y-72290380D01*
X236116857Y-72290380D02*
X236116857Y-71290380D01*
X236497809Y-71290380D01*
X236593047Y-71338000D01*
X236640666Y-71385619D01*
X236688285Y-71480857D01*
X236688285Y-71623714D01*
X236640666Y-71718952D01*
X236593047Y-71766571D01*
X236497809Y-71814190D01*
X236116857Y-71814190D01*
X237069238Y-71385619D02*
X237116857Y-71338000D01*
X237212095Y-71290380D01*
X237450190Y-71290380D01*
X237545428Y-71338000D01*
X237593047Y-71385619D01*
X237640666Y-71480857D01*
X237640666Y-71576095D01*
X237593047Y-71718952D01*
X237021619Y-72290380D01*
X237640666Y-72290380D01*
X233164476Y-79442761D02*
X233259714Y-79490380D01*
X233450190Y-79490380D01*
X233545428Y-79442761D01*
X233593047Y-79347523D01*
X233593047Y-79299904D01*
X233545428Y-79204666D01*
X233450190Y-79157047D01*
X233307333Y-79157047D01*
X233212095Y-79109428D01*
X233164476Y-79014190D01*
X233164476Y-78966571D01*
X233212095Y-78871333D01*
X233307333Y-78823714D01*
X233450190Y-78823714D01*
X233545428Y-78871333D01*
X234164476Y-79490380D02*
X234069238Y-79442761D01*
X234021619Y-79347523D01*
X234021619Y-78490380D01*
X234688285Y-79490380D02*
X234593047Y-79442761D01*
X234545428Y-79395142D01*
X234497809Y-79299904D01*
X234497809Y-79014190D01*
X234545428Y-78918952D01*
X234593047Y-78871333D01*
X234688285Y-78823714D01*
X234831142Y-78823714D01*
X234926380Y-78871333D01*
X234974000Y-78918952D01*
X235021619Y-79014190D01*
X235021619Y-79299904D01*
X234974000Y-79395142D01*
X234926380Y-79442761D01*
X234831142Y-79490380D01*
X234688285Y-79490380D01*
X235354952Y-78823714D02*
X235545428Y-79490380D01*
X235735904Y-79014190D01*
X235926380Y-79490380D01*
X236116857Y-78823714D01*
X237212095Y-79442761D02*
X237354952Y-79490380D01*
X237593047Y-79490380D01*
X237688285Y-79442761D01*
X237735904Y-79395142D01*
X237783523Y-79299904D01*
X237783523Y-79204666D01*
X237735904Y-79109428D01*
X237688285Y-79061809D01*
X237593047Y-79014190D01*
X237402571Y-78966571D01*
X237307333Y-78918952D01*
X237259714Y-78871333D01*
X237212095Y-78776095D01*
X237212095Y-78680857D01*
X237259714Y-78585619D01*
X237307333Y-78538000D01*
X237402571Y-78490380D01*
X237640666Y-78490380D01*
X237783523Y-78538000D01*
X238783523Y-79395142D02*
X238735904Y-79442761D01*
X238593047Y-79490380D01*
X238497809Y-79490380D01*
X238354952Y-79442761D01*
X238259714Y-79347523D01*
X238212095Y-79252285D01*
X238164476Y-79061809D01*
X238164476Y-78918952D01*
X238212095Y-78728476D01*
X238259714Y-78633238D01*
X238354952Y-78538000D01*
X238497809Y-78490380D01*
X238593047Y-78490380D01*
X238735904Y-78538000D01*
X238783523Y-78585619D01*
X239212095Y-79490380D02*
X239212095Y-78490380D01*
X239783523Y-79490380D02*
X239354952Y-78918952D01*
X239783523Y-78490380D02*
X239212095Y-79061809D01*
X235640666Y-61892380D02*
X235640666Y-62606666D01*
X235593047Y-62749523D01*
X235497809Y-62844761D01*
X235354952Y-62892380D01*
X235259714Y-62892380D01*
X236116857Y-62892380D02*
X236116857Y-61892380D01*
X236497809Y-61892380D01*
X236593047Y-61940000D01*
X236640666Y-61987619D01*
X236688285Y-62082857D01*
X236688285Y-62225714D01*
X236640666Y-62320952D01*
X236593047Y-62368571D01*
X236497809Y-62416190D01*
X236116857Y-62416190D01*
X237021619Y-61892380D02*
X237640666Y-61892380D01*
X237307333Y-62273333D01*
X237450190Y-62273333D01*
X237545428Y-62320952D01*
X237593047Y-62368571D01*
X237640666Y-62463809D01*
X237640666Y-62701904D01*
X237593047Y-62797142D01*
X237545428Y-62844761D01*
X237450190Y-62892380D01*
X237164476Y-62892380D01*
X237069238Y-62844761D01*
X237021619Y-62797142D01*
X229997809Y-70044761D02*
X230093047Y-70092380D01*
X230283523Y-70092380D01*
X230378761Y-70044761D01*
X230426380Y-69949523D01*
X230426380Y-69901904D01*
X230378761Y-69806666D01*
X230283523Y-69759047D01*
X230140666Y-69759047D01*
X230045428Y-69711428D01*
X229997809Y-69616190D01*
X229997809Y-69568571D01*
X230045428Y-69473333D01*
X230140666Y-69425714D01*
X230283523Y-69425714D01*
X230378761Y-69473333D01*
X231235904Y-70044761D02*
X231140666Y-70092380D01*
X230950190Y-70092380D01*
X230854952Y-70044761D01*
X230807333Y-69949523D01*
X230807333Y-69568571D01*
X230854952Y-69473333D01*
X230950190Y-69425714D01*
X231140666Y-69425714D01*
X231235904Y-69473333D01*
X231283523Y-69568571D01*
X231283523Y-69663809D01*
X230807333Y-69759047D01*
X231854952Y-70092380D02*
X231759714Y-70044761D01*
X231712095Y-69949523D01*
X231712095Y-69092380D01*
X232093047Y-69425714D02*
X232474000Y-69425714D01*
X232235904Y-70092380D02*
X232235904Y-69235238D01*
X232283523Y-69140000D01*
X232378761Y-69092380D01*
X232474000Y-69092380D01*
X233569238Y-69425714D02*
X233569238Y-70425714D01*
X233569238Y-69473333D02*
X233664476Y-69425714D01*
X233854952Y-69425714D01*
X233950190Y-69473333D01*
X233997809Y-69520952D01*
X234045428Y-69616190D01*
X234045428Y-69901904D01*
X233997809Y-69997142D01*
X233950190Y-70044761D01*
X233854952Y-70092380D01*
X233664476Y-70092380D01*
X233569238Y-70044761D01*
X234474000Y-70092380D02*
X234474000Y-69425714D01*
X234474000Y-69616190D02*
X234521619Y-69520952D01*
X234569238Y-69473333D01*
X234664476Y-69425714D01*
X234759714Y-69425714D01*
X235235904Y-70092380D02*
X235140666Y-70044761D01*
X235093047Y-69997142D01*
X235045428Y-69901904D01*
X235045428Y-69616190D01*
X235093047Y-69520952D01*
X235140666Y-69473333D01*
X235235904Y-69425714D01*
X235378761Y-69425714D01*
X235474000Y-69473333D01*
X235521619Y-69520952D01*
X235569238Y-69616190D01*
X235569238Y-69901904D01*
X235521619Y-69997142D01*
X235474000Y-70044761D01*
X235378761Y-70092380D01*
X235235904Y-70092380D01*
X236426380Y-69425714D02*
X236426380Y-70235238D01*
X236378761Y-70330476D01*
X236331142Y-70378095D01*
X236235904Y-70425714D01*
X236093047Y-70425714D01*
X235997809Y-70378095D01*
X236426380Y-70044761D02*
X236331142Y-70092380D01*
X236140666Y-70092380D01*
X236045428Y-70044761D01*
X235997809Y-69997142D01*
X235950190Y-69901904D01*
X235950190Y-69616190D01*
X235997809Y-69520952D01*
X236045428Y-69473333D01*
X236140666Y-69425714D01*
X236331142Y-69425714D01*
X236426380Y-69473333D01*
X236902571Y-70092380D02*
X236902571Y-69425714D01*
X236902571Y-69616190D02*
X236950190Y-69520952D01*
X236997809Y-69473333D01*
X237093047Y-69425714D01*
X237188285Y-69425714D01*
X237950190Y-70092380D02*
X237950190Y-69568571D01*
X237902571Y-69473333D01*
X237807333Y-69425714D01*
X237616857Y-69425714D01*
X237521619Y-69473333D01*
X237950190Y-70044761D02*
X237854952Y-70092380D01*
X237616857Y-70092380D01*
X237521619Y-70044761D01*
X237474000Y-69949523D01*
X237474000Y-69854285D01*
X237521619Y-69759047D01*
X237616857Y-69711428D01*
X237854952Y-69711428D01*
X237950190Y-69663809D01*
X238426380Y-70092380D02*
X238426380Y-69425714D01*
X238426380Y-69520952D02*
X238474000Y-69473333D01*
X238569238Y-69425714D01*
X238712095Y-69425714D01*
X238807333Y-69473333D01*
X238854952Y-69568571D01*
X238854952Y-70092380D01*
X238854952Y-69568571D02*
X238902571Y-69473333D01*
X238997809Y-69425714D01*
X239140666Y-69425714D01*
X239235904Y-69473333D01*
X239283523Y-69568571D01*
X239283523Y-70092380D01*
X239759714Y-70092380D02*
X239759714Y-69425714D01*
X239759714Y-69520952D02*
X239807333Y-69473333D01*
X239902571Y-69425714D01*
X240045428Y-69425714D01*
X240140666Y-69473333D01*
X240188285Y-69568571D01*
X240188285Y-70092380D01*
X240188285Y-69568571D02*
X240235904Y-69473333D01*
X240331142Y-69425714D01*
X240474000Y-69425714D01*
X240569238Y-69473333D01*
X240616857Y-69568571D01*
X240616857Y-70092380D01*
X241093047Y-70092380D02*
X241093047Y-69425714D01*
X241093047Y-69092380D02*
X241045428Y-69140000D01*
X241093047Y-69187619D01*
X241140666Y-69140000D01*
X241093047Y-69092380D01*
X241093047Y-69187619D01*
X241569238Y-69425714D02*
X241569238Y-70092380D01*
X241569238Y-69520952D02*
X241616857Y-69473333D01*
X241712095Y-69425714D01*
X241854952Y-69425714D01*
X241950190Y-69473333D01*
X241997809Y-69568571D01*
X241997809Y-70092380D01*
X242902571Y-69425714D02*
X242902571Y-70235238D01*
X242854952Y-70330476D01*
X242807333Y-70378095D01*
X242712095Y-70425714D01*
X242569238Y-70425714D01*
X242474000Y-70378095D01*
X242902571Y-70044761D02*
X242807333Y-70092380D01*
X242616857Y-70092380D01*
X242521619Y-70044761D01*
X242474000Y-69997142D01*
X242426380Y-69901904D01*
X242426380Y-69616190D01*
X242474000Y-69520952D01*
X242521619Y-69473333D01*
X242616857Y-69425714D01*
X242807333Y-69425714D01*
X242902571Y-69473333D01*
X248753333Y-67592380D02*
X248420000Y-67116190D01*
X248181904Y-67592380D02*
X248181904Y-66592380D01*
X248562857Y-66592380D01*
X248658095Y-66640000D01*
X248705714Y-66687619D01*
X248753333Y-66782857D01*
X248753333Y-66925714D01*
X248705714Y-67020952D01*
X248658095Y-67068571D01*
X248562857Y-67116190D01*
X248181904Y-67116190D01*
X249705714Y-67592380D02*
X249134285Y-67592380D01*
X249420000Y-67592380D02*
X249420000Y-66592380D01*
X249324761Y-66735238D01*
X249229523Y-66830476D01*
X249134285Y-66878095D01*
X249007333Y-58026380D02*
X248674000Y-57550190D01*
X248435904Y-58026380D02*
X248435904Y-57026380D01*
X248816857Y-57026380D01*
X248912095Y-57074000D01*
X248959714Y-57121619D01*
X249007333Y-57216857D01*
X249007333Y-57359714D01*
X248959714Y-57454952D01*
X248912095Y-57502571D01*
X248816857Y-57550190D01*
X248435904Y-57550190D01*
X249388285Y-57121619D02*
X249435904Y-57074000D01*
X249531142Y-57026380D01*
X249769238Y-57026380D01*
X249864476Y-57074000D01*
X249912095Y-57121619D01*
X249959714Y-57216857D01*
X249959714Y-57312095D01*
X249912095Y-57454952D01*
X249340666Y-58026380D01*
X249959714Y-58026380D01*
X235545333Y-91300380D02*
X235212000Y-90824190D01*
X234973904Y-91300380D02*
X234973904Y-90300380D01*
X235354857Y-90300380D01*
X235450095Y-90348000D01*
X235497714Y-90395619D01*
X235545333Y-90490857D01*
X235545333Y-90633714D01*
X235497714Y-90728952D01*
X235450095Y-90776571D01*
X235354857Y-90824190D01*
X234973904Y-90824190D01*
X235878666Y-90300380D02*
X236497714Y-90300380D01*
X236164380Y-90681333D01*
X236307238Y-90681333D01*
X236402476Y-90728952D01*
X236450095Y-90776571D01*
X236497714Y-90871809D01*
X236497714Y-91109904D01*
X236450095Y-91205142D01*
X236402476Y-91252761D01*
X236307238Y-91300380D01*
X236021523Y-91300380D01*
X235926285Y-91252761D01*
X235878666Y-91205142D01*
X235545333Y-97396380D02*
X235212000Y-96920190D01*
X234973904Y-97396380D02*
X234973904Y-96396380D01*
X235354857Y-96396380D01*
X235450095Y-96444000D01*
X235497714Y-96491619D01*
X235545333Y-96586857D01*
X235545333Y-96729714D01*
X235497714Y-96824952D01*
X235450095Y-96872571D01*
X235354857Y-96920190D01*
X234973904Y-96920190D01*
X236402476Y-96729714D02*
X236402476Y-97396380D01*
X236164380Y-96348761D02*
X235926285Y-97063047D01*
X236545333Y-97063047D01*
X206081333Y-59888380D02*
X205748000Y-59412190D01*
X205509904Y-59888380D02*
X205509904Y-58888380D01*
X205890857Y-58888380D01*
X205986095Y-58936000D01*
X206033714Y-58983619D01*
X206081333Y-59078857D01*
X206081333Y-59221714D01*
X206033714Y-59316952D01*
X205986095Y-59364571D01*
X205890857Y-59412190D01*
X205509904Y-59412190D01*
X206986095Y-58888380D02*
X206509904Y-58888380D01*
X206462285Y-59364571D01*
X206509904Y-59316952D01*
X206605142Y-59269333D01*
X206843238Y-59269333D01*
X206938476Y-59316952D01*
X206986095Y-59364571D01*
X207033714Y-59459809D01*
X207033714Y-59697904D01*
X206986095Y-59793142D01*
X206938476Y-59840761D01*
X206843238Y-59888380D01*
X206605142Y-59888380D01*
X206509904Y-59840761D01*
X206462285Y-59793142D01*
X232751333Y-59718380D02*
X232418000Y-59242190D01*
X232179904Y-59718380D02*
X232179904Y-58718380D01*
X232560857Y-58718380D01*
X232656095Y-58766000D01*
X232703714Y-58813619D01*
X232751333Y-58908857D01*
X232751333Y-59051714D01*
X232703714Y-59146952D01*
X232656095Y-59194571D01*
X232560857Y-59242190D01*
X232179904Y-59242190D01*
X233608476Y-58718380D02*
X233418000Y-58718380D01*
X233322761Y-58766000D01*
X233275142Y-58813619D01*
X233179904Y-58956476D01*
X233132285Y-59146952D01*
X233132285Y-59527904D01*
X233179904Y-59623142D01*
X233227523Y-59670761D01*
X233322761Y-59718380D01*
X233513238Y-59718380D01*
X233608476Y-59670761D01*
X233656095Y-59623142D01*
X233703714Y-59527904D01*
X233703714Y-59289809D01*
X233656095Y-59194571D01*
X233608476Y-59146952D01*
X233513238Y-59099333D01*
X233322761Y-59099333D01*
X233227523Y-59146952D01*
X233179904Y-59194571D01*
X233132285Y-59289809D01*
X213955333Y-65476380D02*
X213622000Y-65000190D01*
X213383904Y-65476380D02*
X213383904Y-64476380D01*
X213764857Y-64476380D01*
X213860095Y-64524000D01*
X213907714Y-64571619D01*
X213955333Y-64666857D01*
X213955333Y-64809714D01*
X213907714Y-64904952D01*
X213860095Y-64952571D01*
X213764857Y-65000190D01*
X213383904Y-65000190D01*
X214288666Y-64476380D02*
X214955333Y-64476380D01*
X214526761Y-65476380D01*
X198882095Y-61892380D02*
X198882095Y-62701904D01*
X198929714Y-62797142D01*
X198977333Y-62844761D01*
X199072571Y-62892380D01*
X199263047Y-62892380D01*
X199358285Y-62844761D01*
X199405904Y-62797142D01*
X199453523Y-62701904D01*
X199453523Y-61892380D01*
X200453523Y-62892380D02*
X199882095Y-62892380D01*
X200167809Y-62892380D02*
X200167809Y-61892380D01*
X200072571Y-62035238D01*
X199977333Y-62130476D01*
X199882095Y-62178095D01*
X188754190Y-75782190D02*
X189230380Y-75782190D01*
X188230380Y-76115523D02*
X188754190Y-75782190D01*
X188230380Y-75448857D01*
X189230380Y-74591714D02*
X189230380Y-75163142D01*
X189230380Y-74877428D02*
X188230380Y-74877428D01*
X188373238Y-74972666D01*
X188468476Y-75067904D01*
X188516095Y-75163142D01*
M02*
