G04 #@! TF.GenerationSoftware,KiCad,Pcbnew,5.1.4-3.fc30*
G04 #@! TF.CreationDate,2019-09-17T14:13:59+02:00*
G04 #@! TF.ProjectId,usbasp,75736261-7370-42e6-9b69-6361645f7063,2.0*
G04 #@! TF.SameCoordinates,Original*
G04 #@! TF.FileFunction,Soldermask,Top*
G04 #@! TF.FilePolarity,Negative*
%FSLAX46Y46*%
G04 Gerber Fmt 4.6, Leading zero omitted, Abs format (unit mm)*
G04 Created by KiCad (PCBNEW 5.1.4-3.fc30) date 2019-09-17 14:13:59*
%MOMM*%
%LPD*%
G04 APERTURE LIST*
%ADD10C,0.100000*%
G04 APERTURE END LIST*
D10*
G36*
X92648223Y-109541313D02*
G01*
X92808642Y-109589976D01*
X92875761Y-109625852D01*
X92956478Y-109668996D01*
X93086059Y-109775341D01*
X93192404Y-109904922D01*
X93192405Y-109904924D01*
X93271424Y-110052758D01*
X93320087Y-110213177D01*
X93336517Y-110380000D01*
X93320087Y-110546823D01*
X93271424Y-110707242D01*
X93230877Y-110783100D01*
X93192404Y-110855078D01*
X93086059Y-110984659D01*
X92956478Y-111091004D01*
X92956476Y-111091005D01*
X92808642Y-111170024D01*
X92648223Y-111218687D01*
X92523204Y-111231000D01*
X92439596Y-111231000D01*
X92314577Y-111218687D01*
X92154158Y-111170024D01*
X92006324Y-111091005D01*
X92006322Y-111091004D01*
X91876741Y-110984659D01*
X91770396Y-110855078D01*
X91731923Y-110783100D01*
X91691376Y-110707242D01*
X91642713Y-110546823D01*
X91626283Y-110380000D01*
X91642713Y-110213177D01*
X91691376Y-110052758D01*
X91770395Y-109904924D01*
X91770396Y-109904922D01*
X91876741Y-109775341D01*
X92006322Y-109668996D01*
X92087039Y-109625852D01*
X92154158Y-109589976D01*
X92314577Y-109541313D01*
X92439596Y-109529000D01*
X92523204Y-109529000D01*
X92648223Y-109541313D01*
X92648223Y-109541313D01*
G37*
G36*
X96793228Y-109561703D02*
G01*
X96948100Y-109625853D01*
X97087481Y-109718985D01*
X97206015Y-109837519D01*
X97299147Y-109976900D01*
X97363297Y-110131772D01*
X97396000Y-110296184D01*
X97396000Y-110463816D01*
X97363297Y-110628228D01*
X97299147Y-110783100D01*
X97206015Y-110922481D01*
X97087481Y-111041015D01*
X96948100Y-111134147D01*
X96793228Y-111198297D01*
X96628816Y-111231000D01*
X96461184Y-111231000D01*
X96296772Y-111198297D01*
X96141900Y-111134147D01*
X96002519Y-111041015D01*
X95883985Y-110922481D01*
X95790853Y-110783100D01*
X95726703Y-110628228D01*
X95694000Y-110463816D01*
X95694000Y-110296184D01*
X95726703Y-110131772D01*
X95790853Y-109976900D01*
X95883985Y-109837519D01*
X96002519Y-109718985D01*
X96141900Y-109625853D01*
X96296772Y-109561703D01*
X96461184Y-109529000D01*
X96628816Y-109529000D01*
X96793228Y-109561703D01*
X96793228Y-109561703D01*
G37*
G36*
X101793228Y-109561703D02*
G01*
X101948100Y-109625853D01*
X102087481Y-109718985D01*
X102206015Y-109837519D01*
X102299147Y-109976900D01*
X102363297Y-110131772D01*
X102396000Y-110296184D01*
X102396000Y-110463816D01*
X102363297Y-110628228D01*
X102299147Y-110783100D01*
X102206015Y-110922481D01*
X102087481Y-111041015D01*
X101948100Y-111134147D01*
X101793228Y-111198297D01*
X101628816Y-111231000D01*
X101461184Y-111231000D01*
X101296772Y-111198297D01*
X101141900Y-111134147D01*
X101002519Y-111041015D01*
X100883985Y-110922481D01*
X100790853Y-110783100D01*
X100726703Y-110628228D01*
X100694000Y-110463816D01*
X100694000Y-110296184D01*
X100726703Y-110131772D01*
X100790853Y-109976900D01*
X100883985Y-109837519D01*
X101002519Y-109718985D01*
X101141900Y-109625853D01*
X101296772Y-109561703D01*
X101461184Y-109529000D01*
X101628816Y-109529000D01*
X101793228Y-109561703D01*
X101793228Y-109561703D01*
G37*
G36*
X85109628Y-109561703D02*
G01*
X85264500Y-109625853D01*
X85403881Y-109718985D01*
X85522415Y-109837519D01*
X85615547Y-109976900D01*
X85679697Y-110131772D01*
X85712400Y-110296184D01*
X85712400Y-110463816D01*
X85679697Y-110628228D01*
X85615547Y-110783100D01*
X85522415Y-110922481D01*
X85403881Y-111041015D01*
X85264500Y-111134147D01*
X85109628Y-111198297D01*
X84945216Y-111231000D01*
X84777584Y-111231000D01*
X84613172Y-111198297D01*
X84458300Y-111134147D01*
X84318919Y-111041015D01*
X84200385Y-110922481D01*
X84107253Y-110783100D01*
X84043103Y-110628228D01*
X84010400Y-110463816D01*
X84010400Y-110296184D01*
X84043103Y-110131772D01*
X84107253Y-109976900D01*
X84200385Y-109837519D01*
X84318919Y-109718985D01*
X84458300Y-109625853D01*
X84613172Y-109561703D01*
X84777584Y-109529000D01*
X84945216Y-109529000D01*
X85109628Y-109561703D01*
X85109628Y-109561703D01*
G37*
G36*
X122034000Y-110981000D02*
G01*
X120332000Y-110981000D01*
X120332000Y-109279000D01*
X122034000Y-109279000D01*
X122034000Y-110981000D01*
X122034000Y-110981000D01*
G37*
G36*
X113729823Y-109291313D02*
G01*
X113890242Y-109339976D01*
X114015944Y-109407165D01*
X114038078Y-109418996D01*
X114167659Y-109525341D01*
X114274004Y-109654922D01*
X114274005Y-109654924D01*
X114353024Y-109802758D01*
X114401687Y-109963177D01*
X114418117Y-110130000D01*
X114401687Y-110296823D01*
X114353024Y-110457242D01*
X114349510Y-110463816D01*
X114274004Y-110605078D01*
X114167659Y-110734659D01*
X114038078Y-110841004D01*
X114038076Y-110841005D01*
X113890242Y-110920024D01*
X113890239Y-110920025D01*
X113860380Y-110929083D01*
X113729823Y-110968687D01*
X113604804Y-110981000D01*
X113521196Y-110981000D01*
X113396177Y-110968687D01*
X113265620Y-110929083D01*
X113235761Y-110920025D01*
X113235758Y-110920024D01*
X113087924Y-110841005D01*
X113087922Y-110841004D01*
X112958341Y-110734659D01*
X112851996Y-110605078D01*
X112776490Y-110463816D01*
X112772976Y-110457242D01*
X112724313Y-110296823D01*
X112707883Y-110130000D01*
X112724313Y-109963177D01*
X112772976Y-109802758D01*
X112851995Y-109654924D01*
X112851996Y-109654922D01*
X112958341Y-109525341D01*
X113087922Y-109418996D01*
X113110056Y-109407165D01*
X113235758Y-109339976D01*
X113396177Y-109291313D01*
X113521196Y-109279000D01*
X113604804Y-109279000D01*
X113729823Y-109291313D01*
X113729823Y-109291313D01*
G37*
G36*
X106794000Y-110981000D02*
G01*
X105092000Y-110981000D01*
X105092000Y-109279000D01*
X106794000Y-109279000D01*
X106794000Y-110981000D01*
X106794000Y-110981000D01*
G37*
G36*
X64822564Y-108894389D02*
G01*
X65013833Y-108973615D01*
X65013835Y-108973616D01*
X65185973Y-109088635D01*
X65332365Y-109235027D01*
X65447385Y-109407167D01*
X65526611Y-109598436D01*
X65567000Y-109801484D01*
X65567000Y-110008516D01*
X65526611Y-110211564D01*
X65447385Y-110402833D01*
X65447384Y-110402835D01*
X65332365Y-110574973D01*
X65185973Y-110721365D01*
X65013835Y-110836384D01*
X65013834Y-110836385D01*
X65013833Y-110836385D01*
X64822564Y-110915611D01*
X64619516Y-110956000D01*
X64412484Y-110956000D01*
X64209436Y-110915611D01*
X64018167Y-110836385D01*
X64018166Y-110836385D01*
X64018165Y-110836384D01*
X63846027Y-110721365D01*
X63699635Y-110574973D01*
X63584616Y-110402835D01*
X63584615Y-110402833D01*
X63505389Y-110211564D01*
X63465000Y-110008516D01*
X63465000Y-109801484D01*
X63505389Y-109598436D01*
X63584615Y-109407167D01*
X63699635Y-109235027D01*
X63846027Y-109088635D01*
X64018165Y-108973616D01*
X64018167Y-108973615D01*
X64209436Y-108894389D01*
X64412484Y-108854000D01*
X64619516Y-108854000D01*
X64822564Y-108894389D01*
X64822564Y-108894389D01*
G37*
G36*
X69322564Y-108894389D02*
G01*
X69513833Y-108973615D01*
X69513835Y-108973616D01*
X69685973Y-109088635D01*
X69832365Y-109235027D01*
X69947385Y-109407167D01*
X70026611Y-109598436D01*
X70067000Y-109801484D01*
X70067000Y-110008516D01*
X70026611Y-110211564D01*
X69947385Y-110402833D01*
X69947384Y-110402835D01*
X69832365Y-110574973D01*
X69685973Y-110721365D01*
X69513835Y-110836384D01*
X69513834Y-110836385D01*
X69513833Y-110836385D01*
X69322564Y-110915611D01*
X69119516Y-110956000D01*
X68912484Y-110956000D01*
X68709436Y-110915611D01*
X68518167Y-110836385D01*
X68518166Y-110836385D01*
X68518165Y-110836384D01*
X68346027Y-110721365D01*
X68199635Y-110574973D01*
X68084616Y-110402835D01*
X68084615Y-110402833D01*
X68005389Y-110211564D01*
X67965000Y-110008516D01*
X67965000Y-109801484D01*
X68005389Y-109598436D01*
X68084615Y-109407167D01*
X68199635Y-109235027D01*
X68346027Y-109088635D01*
X68518165Y-108973616D01*
X68518167Y-108973615D01*
X68709436Y-108894389D01*
X68912484Y-108854000D01*
X69119516Y-108854000D01*
X69322564Y-108894389D01*
X69322564Y-108894389D01*
G37*
G36*
X74964242Y-108020518D02*
G01*
X75030427Y-108027037D01*
X75200266Y-108078557D01*
X75356791Y-108162222D01*
X75392529Y-108191552D01*
X75493986Y-108274814D01*
X75577248Y-108376271D01*
X75606578Y-108412009D01*
X75690243Y-108568534D01*
X75741763Y-108738373D01*
X75759159Y-108915000D01*
X75741763Y-109091627D01*
X75690243Y-109261466D01*
X75606578Y-109417991D01*
X75605753Y-109418996D01*
X75493986Y-109555186D01*
X75392529Y-109638448D01*
X75356791Y-109667778D01*
X75200266Y-109751443D01*
X75030427Y-109802963D01*
X74964242Y-109809482D01*
X74898060Y-109816000D01*
X74809540Y-109816000D01*
X74743358Y-109809482D01*
X74677173Y-109802963D01*
X74507334Y-109751443D01*
X74350809Y-109667778D01*
X74315071Y-109638448D01*
X74213614Y-109555186D01*
X74101847Y-109418996D01*
X74101022Y-109417991D01*
X74017357Y-109261466D01*
X73965837Y-109091627D01*
X73948441Y-108915000D01*
X73965837Y-108738373D01*
X74017357Y-108568534D01*
X74101022Y-108412009D01*
X74130352Y-108376271D01*
X74213614Y-108274814D01*
X74315071Y-108191552D01*
X74350809Y-108162222D01*
X74507334Y-108078557D01*
X74677173Y-108027037D01*
X74743358Y-108020518D01*
X74809540Y-108014000D01*
X74898060Y-108014000D01*
X74964242Y-108020518D01*
X74964242Y-108020518D01*
G37*
G36*
X121431228Y-106811703D02*
G01*
X121586100Y-106875853D01*
X121725481Y-106968985D01*
X121844015Y-107087519D01*
X121937147Y-107226900D01*
X122001297Y-107381772D01*
X122034000Y-107546184D01*
X122034000Y-107713816D01*
X122001297Y-107878228D01*
X121937147Y-108033100D01*
X121844015Y-108172481D01*
X121725481Y-108291015D01*
X121586100Y-108384147D01*
X121431228Y-108448297D01*
X121266816Y-108481000D01*
X121099184Y-108481000D01*
X120934772Y-108448297D01*
X120779900Y-108384147D01*
X120640519Y-108291015D01*
X120521985Y-108172481D01*
X120428853Y-108033100D01*
X120364703Y-107878228D01*
X120332000Y-107713816D01*
X120332000Y-107546184D01*
X120364703Y-107381772D01*
X120428853Y-107226900D01*
X120521985Y-107087519D01*
X120640519Y-106968985D01*
X120779900Y-106875853D01*
X120934772Y-106811703D01*
X121099184Y-106779000D01*
X121266816Y-106779000D01*
X121431228Y-106811703D01*
X121431228Y-106811703D01*
G37*
G36*
X75754800Y-107276000D02*
G01*
X73952800Y-107276000D01*
X73952800Y-105474000D01*
X75754800Y-105474000D01*
X75754800Y-107276000D01*
X75754800Y-107276000D01*
G37*
G36*
X78988228Y-105442703D02*
G01*
X79143100Y-105506853D01*
X79282481Y-105599985D01*
X79401015Y-105718519D01*
X79494147Y-105857900D01*
X79558297Y-106012772D01*
X79591000Y-106177184D01*
X79591000Y-106344816D01*
X79558297Y-106509228D01*
X79494147Y-106664100D01*
X79401015Y-106803481D01*
X79282481Y-106922015D01*
X79143100Y-107015147D01*
X78988228Y-107079297D01*
X78823816Y-107112000D01*
X78656184Y-107112000D01*
X78491772Y-107079297D01*
X78336900Y-107015147D01*
X78197519Y-106922015D01*
X78078985Y-106803481D01*
X77985853Y-106664100D01*
X77921703Y-106509228D01*
X77889000Y-106344816D01*
X77889000Y-106177184D01*
X77921703Y-106012772D01*
X77985853Y-105857900D01*
X78078985Y-105718519D01*
X78197519Y-105599985D01*
X78336900Y-105506853D01*
X78491772Y-105442703D01*
X78656184Y-105410000D01*
X78823816Y-105410000D01*
X78988228Y-105442703D01*
X78988228Y-105442703D01*
G37*
G36*
X86526823Y-105422313D02*
G01*
X86687242Y-105470976D01*
X86754361Y-105506852D01*
X86835078Y-105549996D01*
X86964659Y-105656341D01*
X87071004Y-105785922D01*
X87071005Y-105785924D01*
X87150024Y-105933758D01*
X87198687Y-106094177D01*
X87215117Y-106261000D01*
X87198687Y-106427823D01*
X87150024Y-106588242D01*
X87109477Y-106664100D01*
X87071004Y-106736078D01*
X86964659Y-106865659D01*
X86835078Y-106972004D01*
X86835076Y-106972005D01*
X86687242Y-107051024D01*
X86526823Y-107099687D01*
X86401804Y-107112000D01*
X86318196Y-107112000D01*
X86193177Y-107099687D01*
X86032758Y-107051024D01*
X85884924Y-106972005D01*
X85884922Y-106972004D01*
X85755341Y-106865659D01*
X85648996Y-106736078D01*
X85610523Y-106664100D01*
X85569976Y-106588242D01*
X85521313Y-106427823D01*
X85504883Y-106261000D01*
X85521313Y-106094177D01*
X85569976Y-105933758D01*
X85648995Y-105785924D01*
X85648996Y-105785922D01*
X85755341Y-105656341D01*
X85884922Y-105549996D01*
X85965639Y-105506852D01*
X86032758Y-105470976D01*
X86193177Y-105422313D01*
X86318196Y-105410000D01*
X86401804Y-105410000D01*
X86526823Y-105422313D01*
X86526823Y-105422313D01*
G37*
G36*
X103050000Y-105326000D02*
G01*
X101348000Y-105326000D01*
X101348000Y-103624000D01*
X103050000Y-103624000D01*
X103050000Y-105326000D01*
X103050000Y-105326000D01*
G37*
G36*
X94745823Y-103636313D02*
G01*
X94906242Y-103684976D01*
X94955986Y-103711565D01*
X95054078Y-103763996D01*
X95183659Y-103870341D01*
X95290004Y-103999922D01*
X95290005Y-103999924D01*
X95369024Y-104147758D01*
X95417687Y-104308177D01*
X95434117Y-104475000D01*
X95417687Y-104641823D01*
X95369024Y-104802242D01*
X95298114Y-104934906D01*
X95290004Y-104950078D01*
X95183659Y-105079659D01*
X95054078Y-105186004D01*
X95054076Y-105186005D01*
X94906242Y-105265024D01*
X94745823Y-105313687D01*
X94620804Y-105326000D01*
X94537196Y-105326000D01*
X94412177Y-105313687D01*
X94251758Y-105265024D01*
X94103924Y-105186005D01*
X94103922Y-105186004D01*
X93974341Y-105079659D01*
X93867996Y-104950078D01*
X93859886Y-104934906D01*
X93788976Y-104802242D01*
X93740313Y-104641823D01*
X93723883Y-104475000D01*
X93740313Y-104308177D01*
X93788976Y-104147758D01*
X93867995Y-103999924D01*
X93867996Y-103999922D01*
X93974341Y-103870341D01*
X94103922Y-103763996D01*
X94202014Y-103711565D01*
X94251758Y-103684976D01*
X94412177Y-103636313D01*
X94537196Y-103624000D01*
X94620804Y-103624000D01*
X94745823Y-103636313D01*
X94745823Y-103636313D01*
G37*
G36*
X64822564Y-102394389D02*
G01*
X65013833Y-102473615D01*
X65013835Y-102473616D01*
X65112675Y-102539659D01*
X65185973Y-102588635D01*
X65332365Y-102735027D01*
X65447385Y-102907167D01*
X65526611Y-103098436D01*
X65567000Y-103301484D01*
X65567000Y-103508516D01*
X65526611Y-103711564D01*
X65447385Y-103902833D01*
X65447384Y-103902835D01*
X65332365Y-104074973D01*
X65185973Y-104221365D01*
X65013835Y-104336384D01*
X65013834Y-104336385D01*
X65013833Y-104336385D01*
X64822564Y-104415611D01*
X64619516Y-104456000D01*
X64412484Y-104456000D01*
X64209436Y-104415611D01*
X64018167Y-104336385D01*
X64018166Y-104336385D01*
X64018165Y-104336384D01*
X63846027Y-104221365D01*
X63699635Y-104074973D01*
X63584616Y-103902835D01*
X63584615Y-103902833D01*
X63505389Y-103711564D01*
X63465000Y-103508516D01*
X63465000Y-103301484D01*
X63505389Y-103098436D01*
X63584615Y-102907167D01*
X63699635Y-102735027D01*
X63846027Y-102588635D01*
X63919325Y-102539659D01*
X64018165Y-102473616D01*
X64018167Y-102473615D01*
X64209436Y-102394389D01*
X64412484Y-102354000D01*
X64619516Y-102354000D01*
X64822564Y-102394389D01*
X64822564Y-102394389D01*
G37*
G36*
X69322564Y-102394389D02*
G01*
X69513833Y-102473615D01*
X69513835Y-102473616D01*
X69612675Y-102539659D01*
X69685973Y-102588635D01*
X69832365Y-102735027D01*
X69947385Y-102907167D01*
X70026611Y-103098436D01*
X70067000Y-103301484D01*
X70067000Y-103508516D01*
X70026611Y-103711564D01*
X69947385Y-103902833D01*
X69947384Y-103902835D01*
X69832365Y-104074973D01*
X69685973Y-104221365D01*
X69513835Y-104336384D01*
X69513834Y-104336385D01*
X69513833Y-104336385D01*
X69322564Y-104415611D01*
X69119516Y-104456000D01*
X68912484Y-104456000D01*
X68709436Y-104415611D01*
X68518167Y-104336385D01*
X68518166Y-104336385D01*
X68518165Y-104336384D01*
X68346027Y-104221365D01*
X68199635Y-104074973D01*
X68084616Y-103902835D01*
X68084615Y-103902833D01*
X68005389Y-103711564D01*
X67965000Y-103508516D01*
X67965000Y-103301484D01*
X68005389Y-103098436D01*
X68084615Y-102907167D01*
X68199635Y-102735027D01*
X68346027Y-102588635D01*
X68419325Y-102539659D01*
X68518165Y-102473616D01*
X68518167Y-102473615D01*
X68709436Y-102394389D01*
X68912484Y-102354000D01*
X69119516Y-102354000D01*
X69322564Y-102394389D01*
X69322564Y-102394389D01*
G37*
G36*
X102365823Y-101096313D02*
G01*
X102526242Y-101144976D01*
X102658906Y-101215886D01*
X102674078Y-101223996D01*
X102803659Y-101330341D01*
X102910004Y-101459922D01*
X102910005Y-101459924D01*
X102989024Y-101607758D01*
X103037687Y-101768177D01*
X103054117Y-101935000D01*
X103037687Y-102101823D01*
X102989024Y-102262242D01*
X102939978Y-102354000D01*
X102910004Y-102410078D01*
X102803659Y-102539659D01*
X102674078Y-102646004D01*
X102674076Y-102646005D01*
X102526242Y-102725024D01*
X102365823Y-102773687D01*
X102240804Y-102786000D01*
X102157196Y-102786000D01*
X102032177Y-102773687D01*
X101871758Y-102725024D01*
X101723924Y-102646005D01*
X101723922Y-102646004D01*
X101594341Y-102539659D01*
X101487996Y-102410078D01*
X101458022Y-102354000D01*
X101408976Y-102262242D01*
X101360313Y-102101823D01*
X101343883Y-101935000D01*
X101360313Y-101768177D01*
X101408976Y-101607758D01*
X101487995Y-101459924D01*
X101487996Y-101459922D01*
X101594341Y-101330341D01*
X101723922Y-101223996D01*
X101739094Y-101215886D01*
X101871758Y-101144976D01*
X102032177Y-101096313D01*
X102157196Y-101084000D01*
X102240804Y-101084000D01*
X102365823Y-101096313D01*
X102365823Y-101096313D01*
G37*
G36*
X94745823Y-101096313D02*
G01*
X94906242Y-101144976D01*
X95038906Y-101215886D01*
X95054078Y-101223996D01*
X95183659Y-101330341D01*
X95290004Y-101459922D01*
X95290005Y-101459924D01*
X95369024Y-101607758D01*
X95417687Y-101768177D01*
X95434117Y-101935000D01*
X95417687Y-102101823D01*
X95369024Y-102262242D01*
X95319978Y-102354000D01*
X95290004Y-102410078D01*
X95183659Y-102539659D01*
X95054078Y-102646004D01*
X95054076Y-102646005D01*
X94906242Y-102725024D01*
X94745823Y-102773687D01*
X94620804Y-102786000D01*
X94537196Y-102786000D01*
X94412177Y-102773687D01*
X94251758Y-102725024D01*
X94103924Y-102646005D01*
X94103922Y-102646004D01*
X93974341Y-102539659D01*
X93867996Y-102410078D01*
X93838022Y-102354000D01*
X93788976Y-102262242D01*
X93740313Y-102101823D01*
X93723883Y-101935000D01*
X93740313Y-101768177D01*
X93788976Y-101607758D01*
X93867995Y-101459924D01*
X93867996Y-101459922D01*
X93974341Y-101330341D01*
X94103922Y-101223996D01*
X94119094Y-101215886D01*
X94251758Y-101144976D01*
X94412177Y-101096313D01*
X94537196Y-101084000D01*
X94620804Y-101084000D01*
X94745823Y-101096313D01*
X94745823Y-101096313D01*
G37*
G36*
X102365823Y-98556313D02*
G01*
X102526242Y-98604976D01*
X102634286Y-98662727D01*
X102674078Y-98683996D01*
X102803659Y-98790341D01*
X102910004Y-98919922D01*
X102910005Y-98919924D01*
X102989024Y-99067758D01*
X103037687Y-99228177D01*
X103054117Y-99395000D01*
X103037687Y-99561823D01*
X102989024Y-99722242D01*
X102918114Y-99854906D01*
X102910004Y-99870078D01*
X102803659Y-99999659D01*
X102674078Y-100106004D01*
X102674076Y-100106005D01*
X102526242Y-100185024D01*
X102365823Y-100233687D01*
X102240804Y-100246000D01*
X102157196Y-100246000D01*
X102032177Y-100233687D01*
X101871758Y-100185024D01*
X101723924Y-100106005D01*
X101723922Y-100106004D01*
X101594341Y-99999659D01*
X101487996Y-99870078D01*
X101479886Y-99854906D01*
X101408976Y-99722242D01*
X101360313Y-99561823D01*
X101343883Y-99395000D01*
X101360313Y-99228177D01*
X101408976Y-99067758D01*
X101487995Y-98919924D01*
X101487996Y-98919922D01*
X101594341Y-98790341D01*
X101723922Y-98683996D01*
X101763714Y-98662727D01*
X101871758Y-98604976D01*
X102032177Y-98556313D01*
X102157196Y-98544000D01*
X102240804Y-98544000D01*
X102365823Y-98556313D01*
X102365823Y-98556313D01*
G37*
G36*
X94745823Y-98556313D02*
G01*
X94906242Y-98604976D01*
X95014286Y-98662727D01*
X95054078Y-98683996D01*
X95183659Y-98790341D01*
X95290004Y-98919922D01*
X95290005Y-98919924D01*
X95369024Y-99067758D01*
X95417687Y-99228177D01*
X95434117Y-99395000D01*
X95417687Y-99561823D01*
X95369024Y-99722242D01*
X95298114Y-99854906D01*
X95290004Y-99870078D01*
X95183659Y-99999659D01*
X95054078Y-100106004D01*
X95054076Y-100106005D01*
X94906242Y-100185024D01*
X94745823Y-100233687D01*
X94620804Y-100246000D01*
X94537196Y-100246000D01*
X94412177Y-100233687D01*
X94251758Y-100185024D01*
X94103924Y-100106005D01*
X94103922Y-100106004D01*
X93974341Y-99999659D01*
X93867996Y-99870078D01*
X93859886Y-99854906D01*
X93788976Y-99722242D01*
X93740313Y-99561823D01*
X93723883Y-99395000D01*
X93740313Y-99228177D01*
X93788976Y-99067758D01*
X93867995Y-98919924D01*
X93867996Y-98919922D01*
X93974341Y-98790341D01*
X94103922Y-98683996D01*
X94143714Y-98662727D01*
X94251758Y-98604976D01*
X94412177Y-98556313D01*
X94537196Y-98544000D01*
X94620804Y-98544000D01*
X94745823Y-98556313D01*
X94745823Y-98556313D01*
G37*
G36*
X81764100Y-99397100D02*
G01*
X79962100Y-99397100D01*
X79962100Y-97595100D01*
X81764100Y-97595100D01*
X81764100Y-99397100D01*
X81764100Y-99397100D01*
G37*
G36*
X89232000Y-99397100D02*
G01*
X87430000Y-99397100D01*
X87430000Y-97595100D01*
X89232000Y-97595100D01*
X89232000Y-99397100D01*
X89232000Y-99397100D01*
G37*
G36*
X73505543Y-97591619D02*
G01*
X73571727Y-97598137D01*
X73741566Y-97649657D01*
X73898091Y-97733322D01*
X73933829Y-97762652D01*
X74035286Y-97845914D01*
X74118548Y-97947371D01*
X74147878Y-97983109D01*
X74231543Y-98139634D01*
X74283063Y-98309473D01*
X74300459Y-98486100D01*
X74283063Y-98662727D01*
X74231543Y-98832566D01*
X74147878Y-98989091D01*
X74118548Y-99024829D01*
X74035286Y-99126286D01*
X73933829Y-99209548D01*
X73898091Y-99238878D01*
X73741566Y-99322543D01*
X73571727Y-99374063D01*
X73505542Y-99380582D01*
X73439360Y-99387100D01*
X73350840Y-99387100D01*
X73284657Y-99380581D01*
X73218473Y-99374063D01*
X73048634Y-99322543D01*
X72892109Y-99238878D01*
X72856371Y-99209548D01*
X72754914Y-99126286D01*
X72671652Y-99024829D01*
X72642322Y-98989091D01*
X72558657Y-98832566D01*
X72507137Y-98662727D01*
X72489741Y-98486100D01*
X72507137Y-98309473D01*
X72558657Y-98139634D01*
X72642322Y-97983109D01*
X72671652Y-97947371D01*
X72754914Y-97845914D01*
X72856371Y-97762652D01*
X72892109Y-97733322D01*
X73048634Y-97649657D01*
X73218473Y-97598137D01*
X73284657Y-97591619D01*
X73350840Y-97585100D01*
X73439360Y-97585100D01*
X73505543Y-97591619D01*
X73505543Y-97591619D01*
G37*
G36*
X102365823Y-96016313D02*
G01*
X102526242Y-96064976D01*
X102652991Y-96132725D01*
X102674078Y-96143996D01*
X102803659Y-96250341D01*
X102910004Y-96379922D01*
X102910005Y-96379924D01*
X102989024Y-96527758D01*
X103037687Y-96688177D01*
X103054117Y-96855000D01*
X103037687Y-97021823D01*
X102989024Y-97182242D01*
X102918114Y-97314906D01*
X102910004Y-97330078D01*
X102803659Y-97459659D01*
X102674078Y-97566004D01*
X102674076Y-97566005D01*
X102526242Y-97645024D01*
X102365823Y-97693687D01*
X102240804Y-97706000D01*
X102157196Y-97706000D01*
X102032177Y-97693687D01*
X101871758Y-97645024D01*
X101723924Y-97566005D01*
X101723922Y-97566004D01*
X101594341Y-97459659D01*
X101487996Y-97330078D01*
X101479886Y-97314906D01*
X101408976Y-97182242D01*
X101360313Y-97021823D01*
X101343883Y-96855000D01*
X101360313Y-96688177D01*
X101408976Y-96527758D01*
X101487995Y-96379924D01*
X101487996Y-96379922D01*
X101594341Y-96250341D01*
X101723922Y-96143996D01*
X101745009Y-96132725D01*
X101871758Y-96064976D01*
X102032177Y-96016313D01*
X102157196Y-96004000D01*
X102240804Y-96004000D01*
X102365823Y-96016313D01*
X102365823Y-96016313D01*
G37*
G36*
X94745823Y-96016313D02*
G01*
X94906242Y-96064976D01*
X95032991Y-96132725D01*
X95054078Y-96143996D01*
X95183659Y-96250341D01*
X95290004Y-96379922D01*
X95290005Y-96379924D01*
X95369024Y-96527758D01*
X95417687Y-96688177D01*
X95434117Y-96855000D01*
X95417687Y-97021823D01*
X95369024Y-97182242D01*
X95298114Y-97314906D01*
X95290004Y-97330078D01*
X95183659Y-97459659D01*
X95054078Y-97566004D01*
X95054076Y-97566005D01*
X94906242Y-97645024D01*
X94745823Y-97693687D01*
X94620804Y-97706000D01*
X94537196Y-97706000D01*
X94412177Y-97693687D01*
X94251758Y-97645024D01*
X94103924Y-97566005D01*
X94103922Y-97566004D01*
X93974341Y-97459659D01*
X93867996Y-97330078D01*
X93859886Y-97314906D01*
X93788976Y-97182242D01*
X93740313Y-97021823D01*
X93723883Y-96855000D01*
X93740313Y-96688177D01*
X93788976Y-96527758D01*
X93867995Y-96379924D01*
X93867996Y-96379922D01*
X93974341Y-96250341D01*
X94103922Y-96143996D01*
X94125009Y-96132725D01*
X94251758Y-96064976D01*
X94412177Y-96016313D01*
X94537196Y-96004000D01*
X94620804Y-96004000D01*
X94745823Y-96016313D01*
X94745823Y-96016313D01*
G37*
G36*
X88441442Y-95061618D02*
G01*
X88507627Y-95068137D01*
X88677466Y-95119657D01*
X88833991Y-95203322D01*
X88869729Y-95232652D01*
X88971186Y-95315914D01*
X89054448Y-95417371D01*
X89083778Y-95453109D01*
X89167443Y-95609634D01*
X89218963Y-95779473D01*
X89236359Y-95956100D01*
X89218963Y-96132727D01*
X89167443Y-96302566D01*
X89083778Y-96459091D01*
X89054448Y-96494829D01*
X88971186Y-96596286D01*
X88869729Y-96679548D01*
X88833991Y-96708878D01*
X88677466Y-96792543D01*
X88507627Y-96844063D01*
X88441443Y-96850581D01*
X88375260Y-96857100D01*
X88286740Y-96857100D01*
X88220557Y-96850581D01*
X88154373Y-96844063D01*
X87984534Y-96792543D01*
X87828009Y-96708878D01*
X87792271Y-96679548D01*
X87690814Y-96596286D01*
X87607552Y-96494829D01*
X87578222Y-96459091D01*
X87494557Y-96302566D01*
X87443037Y-96132727D01*
X87425641Y-95956100D01*
X87443037Y-95779473D01*
X87494557Y-95609634D01*
X87578222Y-95453109D01*
X87607552Y-95417371D01*
X87690814Y-95315914D01*
X87792271Y-95232652D01*
X87828009Y-95203322D01*
X87984534Y-95119657D01*
X88154373Y-95068137D01*
X88220558Y-95061618D01*
X88286740Y-95055100D01*
X88375260Y-95055100D01*
X88441442Y-95061618D01*
X88441442Y-95061618D01*
G37*
G36*
X80973542Y-95061618D02*
G01*
X81039727Y-95068137D01*
X81209566Y-95119657D01*
X81366091Y-95203322D01*
X81401829Y-95232652D01*
X81503286Y-95315914D01*
X81586548Y-95417371D01*
X81615878Y-95453109D01*
X81699543Y-95609634D01*
X81751063Y-95779473D01*
X81768459Y-95956100D01*
X81751063Y-96132727D01*
X81699543Y-96302566D01*
X81615878Y-96459091D01*
X81586548Y-96494829D01*
X81503286Y-96596286D01*
X81401829Y-96679548D01*
X81366091Y-96708878D01*
X81209566Y-96792543D01*
X81039727Y-96844063D01*
X80973543Y-96850581D01*
X80907360Y-96857100D01*
X80818840Y-96857100D01*
X80752657Y-96850581D01*
X80686473Y-96844063D01*
X80516634Y-96792543D01*
X80360109Y-96708878D01*
X80324371Y-96679548D01*
X80222914Y-96596286D01*
X80139652Y-96494829D01*
X80110322Y-96459091D01*
X80026657Y-96302566D01*
X79975137Y-96132727D01*
X79957741Y-95956100D01*
X79975137Y-95779473D01*
X80026657Y-95609634D01*
X80110322Y-95453109D01*
X80139652Y-95417371D01*
X80222914Y-95315914D01*
X80324371Y-95232652D01*
X80360109Y-95203322D01*
X80516634Y-95119657D01*
X80686473Y-95068137D01*
X80752658Y-95061618D01*
X80818840Y-95055100D01*
X80907360Y-95055100D01*
X80973542Y-95061618D01*
X80973542Y-95061618D01*
G37*
G36*
X74296100Y-96847100D02*
G01*
X72494100Y-96847100D01*
X72494100Y-95045100D01*
X74296100Y-95045100D01*
X74296100Y-96847100D01*
X74296100Y-96847100D01*
G37*
G36*
X109751642Y-93697481D02*
G01*
X109897414Y-93757862D01*
X109897416Y-93757863D01*
X110028608Y-93845522D01*
X110140178Y-93957092D01*
X110227837Y-94088284D01*
X110227838Y-94088286D01*
X110288219Y-94234058D01*
X110319000Y-94388807D01*
X110319000Y-94546593D01*
X110288219Y-94701342D01*
X110227838Y-94847114D01*
X110227837Y-94847116D01*
X110140178Y-94978308D01*
X110028608Y-95089878D01*
X109897416Y-95177537D01*
X109897415Y-95177538D01*
X109897414Y-95177538D01*
X109751642Y-95237919D01*
X109596893Y-95268700D01*
X109439107Y-95268700D01*
X109284358Y-95237919D01*
X109138586Y-95177538D01*
X109138585Y-95177538D01*
X109138584Y-95177537D01*
X109007392Y-95089878D01*
X108895822Y-94978308D01*
X108808163Y-94847116D01*
X108808162Y-94847114D01*
X108747781Y-94701342D01*
X108717000Y-94546593D01*
X108717000Y-94388807D01*
X108747781Y-94234058D01*
X108808162Y-94088286D01*
X108808163Y-94088284D01*
X108895822Y-93957092D01*
X109007392Y-93845522D01*
X109138584Y-93757863D01*
X109138586Y-93757862D01*
X109284358Y-93697481D01*
X109439107Y-93666700D01*
X109596893Y-93666700D01*
X109751642Y-93697481D01*
X109751642Y-93697481D01*
G37*
G36*
X115304228Y-93583303D02*
G01*
X115459100Y-93647453D01*
X115598481Y-93740585D01*
X115717015Y-93859119D01*
X115810147Y-93998500D01*
X115874297Y-94153372D01*
X115907000Y-94317784D01*
X115907000Y-94485416D01*
X115874297Y-94649828D01*
X115810147Y-94804700D01*
X115717015Y-94944081D01*
X115598481Y-95062615D01*
X115459100Y-95155747D01*
X115304228Y-95219897D01*
X115139816Y-95252600D01*
X114972184Y-95252600D01*
X114807772Y-95219897D01*
X114652900Y-95155747D01*
X114513519Y-95062615D01*
X114394985Y-94944081D01*
X114301853Y-94804700D01*
X114237703Y-94649828D01*
X114205000Y-94485416D01*
X114205000Y-94317784D01*
X114237703Y-94153372D01*
X114301853Y-93998500D01*
X114394985Y-93859119D01*
X114513519Y-93740585D01*
X114652900Y-93647453D01*
X114807772Y-93583303D01*
X114972184Y-93550600D01*
X115139816Y-93550600D01*
X115304228Y-93583303D01*
X115304228Y-93583303D01*
G37*
G36*
X120304228Y-93583303D02*
G01*
X120459100Y-93647453D01*
X120598481Y-93740585D01*
X120717015Y-93859119D01*
X120810147Y-93998500D01*
X120874297Y-94153372D01*
X120907000Y-94317784D01*
X120907000Y-94485416D01*
X120874297Y-94649828D01*
X120810147Y-94804700D01*
X120717015Y-94944081D01*
X120598481Y-95062615D01*
X120459100Y-95155747D01*
X120304228Y-95219897D01*
X120139816Y-95252600D01*
X119972184Y-95252600D01*
X119807772Y-95219897D01*
X119652900Y-95155747D01*
X119513519Y-95062615D01*
X119394985Y-94944081D01*
X119301853Y-94804700D01*
X119237703Y-94649828D01*
X119205000Y-94485416D01*
X119205000Y-94317784D01*
X119237703Y-94153372D01*
X119301853Y-93998500D01*
X119394985Y-93859119D01*
X119513519Y-93740585D01*
X119652900Y-93647453D01*
X119807772Y-93583303D01*
X119972184Y-93550600D01*
X120139816Y-93550600D01*
X120304228Y-93583303D01*
X120304228Y-93583303D01*
G37*
G36*
X102365823Y-93476313D02*
G01*
X102526242Y-93524976D01*
X102635364Y-93583303D01*
X102674078Y-93603996D01*
X102803659Y-93710341D01*
X102910004Y-93839922D01*
X102910005Y-93839924D01*
X102989024Y-93987758D01*
X102989025Y-93987761D01*
X102998083Y-94017620D01*
X103037687Y-94148177D01*
X103054117Y-94315000D01*
X103037687Y-94481823D01*
X102989024Y-94642242D01*
X102918114Y-94774906D01*
X102910004Y-94790078D01*
X102803659Y-94919659D01*
X102674078Y-95026004D01*
X102674076Y-95026005D01*
X102526242Y-95105024D01*
X102365823Y-95153687D01*
X102240804Y-95166000D01*
X102157196Y-95166000D01*
X102032177Y-95153687D01*
X101871758Y-95105024D01*
X101723924Y-95026005D01*
X101723922Y-95026004D01*
X101594341Y-94919659D01*
X101487996Y-94790078D01*
X101479886Y-94774906D01*
X101408976Y-94642242D01*
X101360313Y-94481823D01*
X101343883Y-94315000D01*
X101360313Y-94148177D01*
X101399917Y-94017620D01*
X101408975Y-93987761D01*
X101408976Y-93987758D01*
X101487995Y-93839924D01*
X101487996Y-93839922D01*
X101594341Y-93710341D01*
X101723922Y-93603996D01*
X101762636Y-93583303D01*
X101871758Y-93524976D01*
X102032177Y-93476313D01*
X102157196Y-93464000D01*
X102240804Y-93464000D01*
X102365823Y-93476313D01*
X102365823Y-93476313D01*
G37*
G36*
X94745823Y-93476313D02*
G01*
X94906242Y-93524976D01*
X95015364Y-93583303D01*
X95054078Y-93603996D01*
X95183659Y-93710341D01*
X95290004Y-93839922D01*
X95290005Y-93839924D01*
X95369024Y-93987758D01*
X95369025Y-93987761D01*
X95378083Y-94017620D01*
X95417687Y-94148177D01*
X95434117Y-94315000D01*
X95417687Y-94481823D01*
X95369024Y-94642242D01*
X95298114Y-94774906D01*
X95290004Y-94790078D01*
X95183659Y-94919659D01*
X95054078Y-95026004D01*
X95054076Y-95026005D01*
X94906242Y-95105024D01*
X94745823Y-95153687D01*
X94620804Y-95166000D01*
X94537196Y-95166000D01*
X94412177Y-95153687D01*
X94251758Y-95105024D01*
X94103924Y-95026005D01*
X94103922Y-95026004D01*
X93974341Y-94919659D01*
X93867996Y-94790078D01*
X93859886Y-94774906D01*
X93788976Y-94642242D01*
X93740313Y-94481823D01*
X93723883Y-94315000D01*
X93740313Y-94148177D01*
X93779917Y-94017620D01*
X93788975Y-93987761D01*
X93788976Y-93987758D01*
X93867995Y-93839924D01*
X93867996Y-93839922D01*
X93974341Y-93710341D01*
X94103922Y-93603996D01*
X94142636Y-93583303D01*
X94251758Y-93524976D01*
X94412177Y-93476313D01*
X94537196Y-93464000D01*
X94620804Y-93464000D01*
X94745823Y-93476313D01*
X94745823Y-93476313D01*
G37*
G36*
X136560000Y-88958100D02*
G01*
X134558000Y-88958100D01*
X134558000Y-87610599D01*
X134555598Y-87586213D01*
X134548485Y-87562764D01*
X134536934Y-87541153D01*
X134521389Y-87522211D01*
X134502447Y-87506666D01*
X134480836Y-87495115D01*
X134457387Y-87488002D01*
X134433001Y-87485600D01*
X133764999Y-87485600D01*
X133740613Y-87488002D01*
X133717164Y-87495115D01*
X133695553Y-87506666D01*
X133676611Y-87522211D01*
X133661066Y-87541153D01*
X133649515Y-87562764D01*
X133642402Y-87586213D01*
X133640000Y-87610599D01*
X133640000Y-90708601D01*
X133642402Y-90732987D01*
X133649515Y-90756436D01*
X133661066Y-90778047D01*
X133676611Y-90796989D01*
X133695553Y-90812534D01*
X133717164Y-90824085D01*
X133740613Y-90831198D01*
X133764999Y-90833600D01*
X134433001Y-90833600D01*
X134457387Y-90831198D01*
X134480836Y-90824085D01*
X134502447Y-90812534D01*
X134521389Y-90796989D01*
X134536934Y-90778047D01*
X134548485Y-90756436D01*
X134555598Y-90732987D01*
X134558000Y-90708601D01*
X134558000Y-89361100D01*
X136560000Y-89361100D01*
X136560000Y-93308100D01*
X134558000Y-93308100D01*
X134558000Y-92535599D01*
X134555598Y-92511213D01*
X134548485Y-92487764D01*
X134536934Y-92466153D01*
X134521389Y-92447211D01*
X134502447Y-92431666D01*
X134480836Y-92420115D01*
X134457387Y-92413002D01*
X134433001Y-92410600D01*
X132158000Y-92410600D01*
X132158000Y-85908600D01*
X134433001Y-85908600D01*
X134457387Y-85906198D01*
X134480836Y-85899085D01*
X134502447Y-85887534D01*
X134521389Y-85871989D01*
X134536934Y-85853047D01*
X134548485Y-85831436D01*
X134555598Y-85807987D01*
X134558000Y-85783601D01*
X134558000Y-85011100D01*
X136560000Y-85011100D01*
X136560000Y-88958100D01*
X136560000Y-88958100D01*
G37*
G36*
X62726794Y-91059333D02*
G01*
X62899195Y-91111631D01*
X63058083Y-91196558D01*
X63197349Y-91310851D01*
X63311642Y-91450117D01*
X63396569Y-91609005D01*
X63448867Y-91781406D01*
X63466525Y-91960700D01*
X63448867Y-92139994D01*
X63396569Y-92312395D01*
X63311642Y-92471283D01*
X63197349Y-92610549D01*
X63058083Y-92724842D01*
X62899195Y-92809769D01*
X62726794Y-92862067D01*
X62592431Y-92875300D01*
X62502569Y-92875300D01*
X62368206Y-92862067D01*
X62195805Y-92809769D01*
X62036917Y-92724842D01*
X61897651Y-92610549D01*
X61783358Y-92471283D01*
X61698431Y-92312395D01*
X61646133Y-92139994D01*
X61628475Y-91960700D01*
X61646133Y-91781406D01*
X61698431Y-91609005D01*
X61783358Y-91450117D01*
X61897651Y-91310851D01*
X62036917Y-91196558D01*
X62195805Y-91111631D01*
X62368206Y-91059333D01*
X62502569Y-91046100D01*
X62592431Y-91046100D01*
X62726794Y-91059333D01*
X62726794Y-91059333D01*
G37*
G36*
X65266794Y-91059333D02*
G01*
X65439195Y-91111631D01*
X65598083Y-91196558D01*
X65737349Y-91310851D01*
X65851642Y-91450117D01*
X65936569Y-91609005D01*
X65988867Y-91781406D01*
X66006525Y-91960700D01*
X65988867Y-92139994D01*
X65936569Y-92312395D01*
X65851642Y-92471283D01*
X65737349Y-92610549D01*
X65598083Y-92724842D01*
X65439195Y-92809769D01*
X65266794Y-92862067D01*
X65132431Y-92875300D01*
X65042569Y-92875300D01*
X64908206Y-92862067D01*
X64735805Y-92809769D01*
X64576917Y-92724842D01*
X64437651Y-92610549D01*
X64323358Y-92471283D01*
X64238431Y-92312395D01*
X64186133Y-92139994D01*
X64168475Y-91960700D01*
X64186133Y-91781406D01*
X64238431Y-91609005D01*
X64323358Y-91450117D01*
X64437651Y-91310851D01*
X64576917Y-91196558D01*
X64735805Y-91111631D01*
X64908206Y-91059333D01*
X65042569Y-91046100D01*
X65132431Y-91046100D01*
X65266794Y-91059333D01*
X65266794Y-91059333D01*
G37*
G36*
X102365823Y-90936313D02*
G01*
X102526242Y-90984976D01*
X102640597Y-91046100D01*
X102674078Y-91063996D01*
X102803659Y-91170341D01*
X102910004Y-91299922D01*
X102910005Y-91299924D01*
X102989024Y-91447758D01*
X103037687Y-91608177D01*
X103054117Y-91775000D01*
X103037687Y-91941823D01*
X102989024Y-92102242D01*
X102968845Y-92139994D01*
X102910004Y-92250078D01*
X102803659Y-92379659D01*
X102674078Y-92486004D01*
X102674076Y-92486005D01*
X102526242Y-92565024D01*
X102365823Y-92613687D01*
X102240804Y-92626000D01*
X102157196Y-92626000D01*
X102032177Y-92613687D01*
X101871758Y-92565024D01*
X101723924Y-92486005D01*
X101723922Y-92486004D01*
X101594341Y-92379659D01*
X101487996Y-92250078D01*
X101429155Y-92139994D01*
X101408976Y-92102242D01*
X101360313Y-91941823D01*
X101343883Y-91775000D01*
X101360313Y-91608177D01*
X101408976Y-91447758D01*
X101487995Y-91299924D01*
X101487996Y-91299922D01*
X101594341Y-91170341D01*
X101723922Y-91063996D01*
X101757403Y-91046100D01*
X101871758Y-90984976D01*
X102032177Y-90936313D01*
X102157196Y-90924000D01*
X102240804Y-90924000D01*
X102365823Y-90936313D01*
X102365823Y-90936313D01*
G37*
G36*
X94745823Y-90936313D02*
G01*
X94906242Y-90984976D01*
X95020597Y-91046100D01*
X95054078Y-91063996D01*
X95183659Y-91170341D01*
X95290004Y-91299922D01*
X95290005Y-91299924D01*
X95369024Y-91447758D01*
X95417687Y-91608177D01*
X95434117Y-91775000D01*
X95417687Y-91941823D01*
X95369024Y-92102242D01*
X95348845Y-92139994D01*
X95290004Y-92250078D01*
X95183659Y-92379659D01*
X95054078Y-92486004D01*
X95054076Y-92486005D01*
X94906242Y-92565024D01*
X94745823Y-92613687D01*
X94620804Y-92626000D01*
X94537196Y-92626000D01*
X94412177Y-92613687D01*
X94251758Y-92565024D01*
X94103924Y-92486005D01*
X94103922Y-92486004D01*
X93974341Y-92379659D01*
X93867996Y-92250078D01*
X93809155Y-92139994D01*
X93788976Y-92102242D01*
X93740313Y-91941823D01*
X93723883Y-91775000D01*
X93740313Y-91608177D01*
X93788976Y-91447758D01*
X93867995Y-91299924D01*
X93867996Y-91299922D01*
X93974341Y-91170341D01*
X94103922Y-91063996D01*
X94137403Y-91046100D01*
X94251758Y-90984976D01*
X94412177Y-90936313D01*
X94537196Y-90924000D01*
X94620804Y-90924000D01*
X94745823Y-90936313D01*
X94745823Y-90936313D01*
G37*
G36*
X62726794Y-88519333D02*
G01*
X62899195Y-88571631D01*
X63058083Y-88656558D01*
X63197349Y-88770851D01*
X63311642Y-88910117D01*
X63396569Y-89069005D01*
X63448867Y-89241406D01*
X63466525Y-89420700D01*
X63448867Y-89599994D01*
X63396569Y-89772395D01*
X63311642Y-89931283D01*
X63197349Y-90070549D01*
X63058083Y-90184842D01*
X62899195Y-90269769D01*
X62726794Y-90322067D01*
X62592431Y-90335300D01*
X62502569Y-90335300D01*
X62368206Y-90322067D01*
X62195805Y-90269769D01*
X62036917Y-90184842D01*
X61897651Y-90070549D01*
X61783358Y-89931283D01*
X61698431Y-89772395D01*
X61646133Y-89599994D01*
X61628475Y-89420700D01*
X61646133Y-89241406D01*
X61698431Y-89069005D01*
X61783358Y-88910117D01*
X61897651Y-88770851D01*
X62036917Y-88656558D01*
X62195805Y-88571631D01*
X62368206Y-88519333D01*
X62502569Y-88506100D01*
X62592431Y-88506100D01*
X62726794Y-88519333D01*
X62726794Y-88519333D01*
G37*
G36*
X65266794Y-88519333D02*
G01*
X65439195Y-88571631D01*
X65598083Y-88656558D01*
X65737349Y-88770851D01*
X65851642Y-88910117D01*
X65936569Y-89069005D01*
X65988867Y-89241406D01*
X66006525Y-89420700D01*
X65988867Y-89599994D01*
X65936569Y-89772395D01*
X65851642Y-89931283D01*
X65737349Y-90070549D01*
X65598083Y-90184842D01*
X65439195Y-90269769D01*
X65266794Y-90322067D01*
X65132431Y-90335300D01*
X65042569Y-90335300D01*
X64908206Y-90322067D01*
X64735805Y-90269769D01*
X64576917Y-90184842D01*
X64437651Y-90070549D01*
X64323358Y-89931283D01*
X64238431Y-89772395D01*
X64186133Y-89599994D01*
X64168475Y-89420700D01*
X64186133Y-89241406D01*
X64238431Y-89069005D01*
X64323358Y-88910117D01*
X64437651Y-88770851D01*
X64576917Y-88656558D01*
X64735805Y-88571631D01*
X64908206Y-88519333D01*
X65042569Y-88506100D01*
X65132431Y-88506100D01*
X65266794Y-88519333D01*
X65266794Y-88519333D01*
G37*
G36*
X109751642Y-88697481D02*
G01*
X109897414Y-88757862D01*
X109897416Y-88757863D01*
X110028608Y-88845522D01*
X110140178Y-88957092D01*
X110214955Y-89069005D01*
X110227838Y-89088286D01*
X110288219Y-89234058D01*
X110319000Y-89388807D01*
X110319000Y-89546593D01*
X110288219Y-89701342D01*
X110258787Y-89772396D01*
X110227837Y-89847116D01*
X110140178Y-89978308D01*
X110028608Y-90089878D01*
X109897416Y-90177537D01*
X109897415Y-90177538D01*
X109897414Y-90177538D01*
X109751642Y-90237919D01*
X109596893Y-90268700D01*
X109439107Y-90268700D01*
X109284358Y-90237919D01*
X109138586Y-90177538D01*
X109138585Y-90177538D01*
X109138584Y-90177537D01*
X109007392Y-90089878D01*
X108895822Y-89978308D01*
X108808163Y-89847116D01*
X108777213Y-89772396D01*
X108747781Y-89701342D01*
X108717000Y-89546593D01*
X108717000Y-89388807D01*
X108747781Y-89234058D01*
X108808162Y-89088286D01*
X108821045Y-89069005D01*
X108895822Y-88957092D01*
X109007392Y-88845522D01*
X109138584Y-88757863D01*
X109138586Y-88757862D01*
X109284358Y-88697481D01*
X109439107Y-88666700D01*
X109596893Y-88666700D01*
X109751642Y-88697481D01*
X109751642Y-88697481D01*
G37*
G36*
X115415228Y-88549103D02*
G01*
X115570100Y-88613253D01*
X115709481Y-88706385D01*
X115828015Y-88824919D01*
X115921147Y-88964300D01*
X115985297Y-89119172D01*
X116018000Y-89283584D01*
X116018000Y-89451216D01*
X115985297Y-89615628D01*
X115921147Y-89770500D01*
X115828015Y-89909881D01*
X115709481Y-90028415D01*
X115570100Y-90121547D01*
X115415228Y-90185697D01*
X115250816Y-90218400D01*
X115083184Y-90218400D01*
X114918772Y-90185697D01*
X114763900Y-90121547D01*
X114624519Y-90028415D01*
X114505985Y-89909881D01*
X114412853Y-89770500D01*
X114348703Y-89615628D01*
X114316000Y-89451216D01*
X114316000Y-89283584D01*
X114348703Y-89119172D01*
X114412853Y-88964300D01*
X114505985Y-88824919D01*
X114624519Y-88706385D01*
X114763900Y-88613253D01*
X114918772Y-88549103D01*
X115083184Y-88516400D01*
X115250816Y-88516400D01*
X115415228Y-88549103D01*
X115415228Y-88549103D01*
G37*
G36*
X120415228Y-88549103D02*
G01*
X120570100Y-88613253D01*
X120709481Y-88706385D01*
X120828015Y-88824919D01*
X120921147Y-88964300D01*
X120985297Y-89119172D01*
X121018000Y-89283584D01*
X121018000Y-89451216D01*
X120985297Y-89615628D01*
X120921147Y-89770500D01*
X120828015Y-89909881D01*
X120709481Y-90028415D01*
X120570100Y-90121547D01*
X120415228Y-90185697D01*
X120250816Y-90218400D01*
X120083184Y-90218400D01*
X119918772Y-90185697D01*
X119763900Y-90121547D01*
X119624519Y-90028415D01*
X119505985Y-89909881D01*
X119412853Y-89770500D01*
X119348703Y-89615628D01*
X119316000Y-89451216D01*
X119316000Y-89283584D01*
X119348703Y-89119172D01*
X119412853Y-88964300D01*
X119505985Y-88824919D01*
X119624519Y-88706385D01*
X119763900Y-88613253D01*
X119918772Y-88549103D01*
X120083184Y-88516400D01*
X120250816Y-88516400D01*
X120415228Y-88549103D01*
X120415228Y-88549103D01*
G37*
G36*
X102365823Y-88396313D02*
G01*
X102526242Y-88444976D01*
X102640597Y-88506100D01*
X102674078Y-88523996D01*
X102803659Y-88630341D01*
X102910004Y-88759922D01*
X102910005Y-88759924D01*
X102989024Y-88907758D01*
X103037687Y-89068177D01*
X103054117Y-89235000D01*
X103037687Y-89401823D01*
X102989024Y-89562242D01*
X102960488Y-89615629D01*
X102910004Y-89710078D01*
X102803659Y-89839659D01*
X102674078Y-89946004D01*
X102674076Y-89946005D01*
X102526242Y-90025024D01*
X102526239Y-90025025D01*
X102496380Y-90034083D01*
X102365823Y-90073687D01*
X102240804Y-90086000D01*
X102157196Y-90086000D01*
X102032177Y-90073687D01*
X101901620Y-90034083D01*
X101871761Y-90025025D01*
X101871758Y-90025024D01*
X101723924Y-89946005D01*
X101723922Y-89946004D01*
X101594341Y-89839659D01*
X101487996Y-89710078D01*
X101437512Y-89615629D01*
X101408976Y-89562242D01*
X101360313Y-89401823D01*
X101343883Y-89235000D01*
X101360313Y-89068177D01*
X101408976Y-88907758D01*
X101487995Y-88759924D01*
X101487996Y-88759922D01*
X101594341Y-88630341D01*
X101723922Y-88523996D01*
X101757403Y-88506100D01*
X101871758Y-88444976D01*
X102032177Y-88396313D01*
X102157196Y-88384000D01*
X102240804Y-88384000D01*
X102365823Y-88396313D01*
X102365823Y-88396313D01*
G37*
G36*
X94745823Y-88396313D02*
G01*
X94906242Y-88444976D01*
X95020597Y-88506100D01*
X95054078Y-88523996D01*
X95183659Y-88630341D01*
X95290004Y-88759922D01*
X95290005Y-88759924D01*
X95369024Y-88907758D01*
X95417687Y-89068177D01*
X95434117Y-89235000D01*
X95417687Y-89401823D01*
X95369024Y-89562242D01*
X95340488Y-89615629D01*
X95290004Y-89710078D01*
X95183659Y-89839659D01*
X95054078Y-89946004D01*
X95054076Y-89946005D01*
X94906242Y-90025024D01*
X94906239Y-90025025D01*
X94876380Y-90034083D01*
X94745823Y-90073687D01*
X94620804Y-90086000D01*
X94537196Y-90086000D01*
X94412177Y-90073687D01*
X94281620Y-90034083D01*
X94251761Y-90025025D01*
X94251758Y-90025024D01*
X94103924Y-89946005D01*
X94103922Y-89946004D01*
X93974341Y-89839659D01*
X93867996Y-89710078D01*
X93817512Y-89615629D01*
X93788976Y-89562242D01*
X93740313Y-89401823D01*
X93723883Y-89235000D01*
X93740313Y-89068177D01*
X93788976Y-88907758D01*
X93867995Y-88759924D01*
X93867996Y-88759922D01*
X93974341Y-88630341D01*
X94103922Y-88523996D01*
X94137403Y-88506100D01*
X94251758Y-88444976D01*
X94412177Y-88396313D01*
X94537196Y-88384000D01*
X94620804Y-88384000D01*
X94745823Y-88396313D01*
X94745823Y-88396313D01*
G37*
G36*
X62726794Y-85979333D02*
G01*
X62899195Y-86031631D01*
X63058083Y-86116558D01*
X63197349Y-86230851D01*
X63311642Y-86370117D01*
X63396569Y-86529005D01*
X63448867Y-86701406D01*
X63466525Y-86880700D01*
X63448867Y-87059994D01*
X63396569Y-87232395D01*
X63311642Y-87391283D01*
X63197349Y-87530549D01*
X63058083Y-87644842D01*
X62899195Y-87729769D01*
X62726794Y-87782067D01*
X62592431Y-87795300D01*
X62502569Y-87795300D01*
X62368206Y-87782067D01*
X62195805Y-87729769D01*
X62036917Y-87644842D01*
X61897651Y-87530549D01*
X61783358Y-87391283D01*
X61698431Y-87232395D01*
X61646133Y-87059994D01*
X61628475Y-86880700D01*
X61646133Y-86701406D01*
X61698431Y-86529005D01*
X61783358Y-86370117D01*
X61897651Y-86230851D01*
X62036917Y-86116558D01*
X62195805Y-86031631D01*
X62368206Y-85979333D01*
X62502569Y-85966100D01*
X62592431Y-85966100D01*
X62726794Y-85979333D01*
X62726794Y-85979333D01*
G37*
G36*
X65266794Y-85979333D02*
G01*
X65439195Y-86031631D01*
X65598083Y-86116558D01*
X65737349Y-86230851D01*
X65851642Y-86370117D01*
X65936569Y-86529005D01*
X65988867Y-86701406D01*
X66006525Y-86880700D01*
X65988867Y-87059994D01*
X65936569Y-87232395D01*
X65851642Y-87391283D01*
X65737349Y-87530549D01*
X65598083Y-87644842D01*
X65439195Y-87729769D01*
X65266794Y-87782067D01*
X65132431Y-87795300D01*
X65042569Y-87795300D01*
X64908206Y-87782067D01*
X64735805Y-87729769D01*
X64576917Y-87644842D01*
X64437651Y-87530549D01*
X64323358Y-87391283D01*
X64238431Y-87232395D01*
X64186133Y-87059994D01*
X64168475Y-86880700D01*
X64186133Y-86701406D01*
X64238431Y-86529005D01*
X64323358Y-86370117D01*
X64437651Y-86230851D01*
X64576917Y-86116558D01*
X64735805Y-86031631D01*
X64908206Y-85979333D01*
X65042569Y-85966100D01*
X65132431Y-85966100D01*
X65266794Y-85979333D01*
X65266794Y-85979333D01*
G37*
G36*
X94745823Y-85856313D02*
G01*
X94906242Y-85904976D01*
X95020597Y-85966100D01*
X95054078Y-85983996D01*
X95183659Y-86090341D01*
X95290004Y-86219922D01*
X95290005Y-86219924D01*
X95369024Y-86367758D01*
X95417687Y-86528177D01*
X95434117Y-86695000D01*
X95417687Y-86861823D01*
X95369024Y-87022242D01*
X95348845Y-87059994D01*
X95290004Y-87170078D01*
X95183659Y-87299659D01*
X95054078Y-87406004D01*
X95054076Y-87406005D01*
X94906242Y-87485024D01*
X94745823Y-87533687D01*
X94620804Y-87546000D01*
X94537196Y-87546000D01*
X94412177Y-87533687D01*
X94251758Y-87485024D01*
X94103924Y-87406005D01*
X94103922Y-87406004D01*
X93974341Y-87299659D01*
X93867996Y-87170078D01*
X93809155Y-87059994D01*
X93788976Y-87022242D01*
X93740313Y-86861823D01*
X93723883Y-86695000D01*
X93740313Y-86528177D01*
X93788976Y-86367758D01*
X93867995Y-86219924D01*
X93867996Y-86219922D01*
X93974341Y-86090341D01*
X94103922Y-85983996D01*
X94137403Y-85966100D01*
X94251758Y-85904976D01*
X94412177Y-85856313D01*
X94537196Y-85844000D01*
X94620804Y-85844000D01*
X94745823Y-85856313D01*
X94745823Y-85856313D01*
G37*
G36*
X102365823Y-85856313D02*
G01*
X102526242Y-85904976D01*
X102640597Y-85966100D01*
X102674078Y-85983996D01*
X102803659Y-86090341D01*
X102910004Y-86219922D01*
X102910005Y-86219924D01*
X102989024Y-86367758D01*
X103037687Y-86528177D01*
X103054117Y-86695000D01*
X103037687Y-86861823D01*
X102989024Y-87022242D01*
X102968845Y-87059994D01*
X102910004Y-87170078D01*
X102803659Y-87299659D01*
X102674078Y-87406004D01*
X102674076Y-87406005D01*
X102526242Y-87485024D01*
X102365823Y-87533687D01*
X102240804Y-87546000D01*
X102157196Y-87546000D01*
X102032177Y-87533687D01*
X101871758Y-87485024D01*
X101723924Y-87406005D01*
X101723922Y-87406004D01*
X101594341Y-87299659D01*
X101487996Y-87170078D01*
X101429155Y-87059994D01*
X101408976Y-87022242D01*
X101360313Y-86861823D01*
X101343883Y-86695000D01*
X101360313Y-86528177D01*
X101408976Y-86367758D01*
X101487995Y-86219924D01*
X101487996Y-86219922D01*
X101594341Y-86090341D01*
X101723922Y-85983996D01*
X101757403Y-85966100D01*
X101871758Y-85904976D01*
X102032177Y-85856313D01*
X102157196Y-85844000D01*
X102240804Y-85844000D01*
X102365823Y-85856313D01*
X102365823Y-85856313D01*
G37*
G36*
X65266794Y-83439333D02*
G01*
X65439195Y-83491631D01*
X65598083Y-83576558D01*
X65737349Y-83690851D01*
X65851642Y-83830117D01*
X65936569Y-83989005D01*
X65988867Y-84161406D01*
X66006525Y-84340700D01*
X65988867Y-84519994D01*
X65936569Y-84692395D01*
X65851642Y-84851283D01*
X65737349Y-84990549D01*
X65598083Y-85104842D01*
X65439195Y-85189769D01*
X65266794Y-85242067D01*
X65132431Y-85255300D01*
X65042569Y-85255300D01*
X64908206Y-85242067D01*
X64735805Y-85189769D01*
X64576917Y-85104842D01*
X64437651Y-84990549D01*
X64323358Y-84851283D01*
X64238431Y-84692395D01*
X64186133Y-84519994D01*
X64168475Y-84340700D01*
X64186133Y-84161406D01*
X64238431Y-83989005D01*
X64323358Y-83830117D01*
X64437651Y-83690851D01*
X64576917Y-83576558D01*
X64735805Y-83491631D01*
X64908206Y-83439333D01*
X65042569Y-83426100D01*
X65132431Y-83426100D01*
X65266794Y-83439333D01*
X65266794Y-83439333D01*
G37*
G36*
X62726794Y-83439333D02*
G01*
X62899195Y-83491631D01*
X63058083Y-83576558D01*
X63197349Y-83690851D01*
X63311642Y-83830117D01*
X63396569Y-83989005D01*
X63448867Y-84161406D01*
X63466525Y-84340700D01*
X63448867Y-84519994D01*
X63396569Y-84692395D01*
X63311642Y-84851283D01*
X63197349Y-84990549D01*
X63058083Y-85104842D01*
X62899195Y-85189769D01*
X62726794Y-85242067D01*
X62592431Y-85255300D01*
X62502569Y-85255300D01*
X62368206Y-85242067D01*
X62195805Y-85189769D01*
X62036917Y-85104842D01*
X61897651Y-84990549D01*
X61783358Y-84851283D01*
X61698431Y-84692395D01*
X61646133Y-84519994D01*
X61628475Y-84340700D01*
X61646133Y-84161406D01*
X61698431Y-83989005D01*
X61783358Y-83830117D01*
X61897651Y-83690851D01*
X62036917Y-83576558D01*
X62195805Y-83491631D01*
X62368206Y-83439333D01*
X62502569Y-83426100D01*
X62592431Y-83426100D01*
X62726794Y-83439333D01*
X62726794Y-83439333D01*
G37*
G36*
X94745823Y-83316313D02*
G01*
X94906242Y-83364976D01*
X95020597Y-83426100D01*
X95054078Y-83443996D01*
X95183659Y-83550341D01*
X95290004Y-83679922D01*
X95290005Y-83679924D01*
X95369024Y-83827758D01*
X95417687Y-83988177D01*
X95434117Y-84155000D01*
X95417687Y-84321823D01*
X95369024Y-84482242D01*
X95348845Y-84519994D01*
X95290004Y-84630078D01*
X95183659Y-84759659D01*
X95054078Y-84866004D01*
X95054076Y-84866005D01*
X94906242Y-84945024D01*
X94745823Y-84993687D01*
X94620804Y-85006000D01*
X94537196Y-85006000D01*
X94412177Y-84993687D01*
X94251758Y-84945024D01*
X94103924Y-84866005D01*
X94103922Y-84866004D01*
X93974341Y-84759659D01*
X93867996Y-84630078D01*
X93809155Y-84519994D01*
X93788976Y-84482242D01*
X93740313Y-84321823D01*
X93723883Y-84155000D01*
X93740313Y-83988177D01*
X93788976Y-83827758D01*
X93867995Y-83679924D01*
X93867996Y-83679922D01*
X93974341Y-83550341D01*
X94103922Y-83443996D01*
X94137403Y-83426100D01*
X94251758Y-83364976D01*
X94412177Y-83316313D01*
X94537196Y-83304000D01*
X94620804Y-83304000D01*
X94745823Y-83316313D01*
X94745823Y-83316313D01*
G37*
G36*
X102365823Y-83316313D02*
G01*
X102526242Y-83364976D01*
X102640597Y-83426100D01*
X102674078Y-83443996D01*
X102803659Y-83550341D01*
X102910004Y-83679922D01*
X102910005Y-83679924D01*
X102989024Y-83827758D01*
X103037687Y-83988177D01*
X103054117Y-84155000D01*
X103037687Y-84321823D01*
X102989024Y-84482242D01*
X102968845Y-84519994D01*
X102910004Y-84630078D01*
X102803659Y-84759659D01*
X102674078Y-84866004D01*
X102674076Y-84866005D01*
X102526242Y-84945024D01*
X102365823Y-84993687D01*
X102240804Y-85006000D01*
X102157196Y-85006000D01*
X102032177Y-84993687D01*
X101871758Y-84945024D01*
X101723924Y-84866005D01*
X101723922Y-84866004D01*
X101594341Y-84759659D01*
X101487996Y-84630078D01*
X101429155Y-84519994D01*
X101408976Y-84482242D01*
X101360313Y-84321823D01*
X101343883Y-84155000D01*
X101360313Y-83988177D01*
X101408976Y-83827758D01*
X101487995Y-83679924D01*
X101487996Y-83679922D01*
X101594341Y-83550341D01*
X101723922Y-83443996D01*
X101757403Y-83426100D01*
X101871758Y-83364976D01*
X102032177Y-83316313D01*
X102157196Y-83304000D01*
X102240804Y-83304000D01*
X102365823Y-83316313D01*
X102365823Y-83316313D01*
G37*
G36*
X77422800Y-83711500D02*
G01*
X75520800Y-83711500D01*
X75520800Y-81809500D01*
X77422800Y-81809500D01*
X77422800Y-83711500D01*
X77422800Y-83711500D01*
G37*
G36*
X84550800Y-83711500D02*
G01*
X82648800Y-83711500D01*
X82648800Y-81809500D01*
X84550800Y-81809500D01*
X84550800Y-83711500D01*
X84550800Y-83711500D01*
G37*
G36*
X63462100Y-82715300D02*
G01*
X61632900Y-82715300D01*
X61632900Y-80886100D01*
X63462100Y-80886100D01*
X63462100Y-82715300D01*
X63462100Y-82715300D01*
G37*
G36*
X65266794Y-80899333D02*
G01*
X65439195Y-80951631D01*
X65598083Y-81036558D01*
X65737349Y-81150851D01*
X65851642Y-81290117D01*
X65936569Y-81449005D01*
X65988867Y-81621406D01*
X66006525Y-81800700D01*
X65988867Y-81979994D01*
X65936569Y-82152395D01*
X65851642Y-82311283D01*
X65737349Y-82450549D01*
X65598083Y-82564842D01*
X65439195Y-82649769D01*
X65266794Y-82702067D01*
X65132431Y-82715300D01*
X65042569Y-82715300D01*
X64908206Y-82702067D01*
X64735805Y-82649769D01*
X64576917Y-82564842D01*
X64437651Y-82450549D01*
X64323358Y-82311283D01*
X64238431Y-82152395D01*
X64186133Y-81979994D01*
X64168475Y-81800700D01*
X64186133Y-81621406D01*
X64238431Y-81449005D01*
X64323358Y-81290117D01*
X64437651Y-81150851D01*
X64576917Y-81036558D01*
X64735805Y-80951631D01*
X64908206Y-80899333D01*
X65042569Y-80886100D01*
X65132431Y-80886100D01*
X65266794Y-80899333D01*
X65266794Y-80899333D01*
G37*
G36*
X94745823Y-80776313D02*
G01*
X94906242Y-80824976D01*
X95011287Y-80881124D01*
X95054078Y-80903996D01*
X95183659Y-81010341D01*
X95290004Y-81139922D01*
X95290005Y-81139924D01*
X95369024Y-81287758D01*
X95417687Y-81448177D01*
X95434117Y-81615000D01*
X95417687Y-81781823D01*
X95369024Y-81942242D01*
X95348845Y-81979994D01*
X95290004Y-82090078D01*
X95183659Y-82219659D01*
X95054078Y-82326004D01*
X95054076Y-82326005D01*
X94906242Y-82405024D01*
X94745823Y-82453687D01*
X94620804Y-82466000D01*
X94537196Y-82466000D01*
X94412177Y-82453687D01*
X94251758Y-82405024D01*
X94103924Y-82326005D01*
X94103922Y-82326004D01*
X93974341Y-82219659D01*
X93867996Y-82090078D01*
X93809155Y-81979994D01*
X93788976Y-81942242D01*
X93740313Y-81781823D01*
X93723883Y-81615000D01*
X93740313Y-81448177D01*
X93788976Y-81287758D01*
X93867995Y-81139924D01*
X93867996Y-81139922D01*
X93974341Y-81010341D01*
X94103922Y-80903996D01*
X94146713Y-80881124D01*
X94251758Y-80824976D01*
X94412177Y-80776313D01*
X94537196Y-80764000D01*
X94620804Y-80764000D01*
X94745823Y-80776313D01*
X94745823Y-80776313D01*
G37*
G36*
X102365823Y-80776313D02*
G01*
X102526242Y-80824976D01*
X102631287Y-80881124D01*
X102674078Y-80903996D01*
X102803659Y-81010341D01*
X102910004Y-81139922D01*
X102910005Y-81139924D01*
X102989024Y-81287758D01*
X103037687Y-81448177D01*
X103054117Y-81615000D01*
X103037687Y-81781823D01*
X102989024Y-81942242D01*
X102968845Y-81979994D01*
X102910004Y-82090078D01*
X102803659Y-82219659D01*
X102674078Y-82326004D01*
X102674076Y-82326005D01*
X102526242Y-82405024D01*
X102365823Y-82453687D01*
X102240804Y-82466000D01*
X102157196Y-82466000D01*
X102032177Y-82453687D01*
X101871758Y-82405024D01*
X101723924Y-82326005D01*
X101723922Y-82326004D01*
X101594341Y-82219659D01*
X101487996Y-82090078D01*
X101429155Y-81979994D01*
X101408976Y-81942242D01*
X101360313Y-81781823D01*
X101343883Y-81615000D01*
X101360313Y-81448177D01*
X101408976Y-81287758D01*
X101487995Y-81139924D01*
X101487996Y-81139922D01*
X101594341Y-81010341D01*
X101723922Y-80903996D01*
X101766713Y-80881124D01*
X101871758Y-80824976D01*
X102032177Y-80776313D01*
X102157196Y-80764000D01*
X102240804Y-80764000D01*
X102365823Y-80776313D01*
X102365823Y-80776313D01*
G37*
G36*
X117210228Y-80537903D02*
G01*
X117365100Y-80602053D01*
X117504481Y-80695185D01*
X117623015Y-80813719D01*
X117716147Y-80953100D01*
X117780297Y-81107972D01*
X117813000Y-81272384D01*
X117813000Y-81440016D01*
X117780297Y-81604428D01*
X117716147Y-81759300D01*
X117623015Y-81898681D01*
X117504481Y-82017215D01*
X117365100Y-82110347D01*
X117210228Y-82174497D01*
X117045816Y-82207200D01*
X116878184Y-82207200D01*
X116713772Y-82174497D01*
X116558900Y-82110347D01*
X116419519Y-82017215D01*
X116300985Y-81898681D01*
X116207853Y-81759300D01*
X116143703Y-81604428D01*
X116111000Y-81440016D01*
X116111000Y-81272384D01*
X116143703Y-81107972D01*
X116207853Y-80953100D01*
X116300985Y-80813719D01*
X116419519Y-80695185D01*
X116558900Y-80602053D01*
X116713772Y-80537903D01*
X116878184Y-80505200D01*
X117045816Y-80505200D01*
X117210228Y-80537903D01*
X117210228Y-80537903D01*
G37*
G36*
X124748823Y-80517513D02*
G01*
X124909242Y-80566176D01*
X124976361Y-80602052D01*
X125057078Y-80645196D01*
X125186659Y-80751541D01*
X125293004Y-80881122D01*
X125293005Y-80881124D01*
X125372024Y-81028958D01*
X125372025Y-81028961D01*
X125374330Y-81036559D01*
X125420687Y-81189377D01*
X125437117Y-81356200D01*
X125420687Y-81523023D01*
X125372024Y-81683442D01*
X125301114Y-81816106D01*
X125293004Y-81831278D01*
X125186659Y-81960859D01*
X125057078Y-82067204D01*
X125057076Y-82067205D01*
X124909242Y-82146224D01*
X124748823Y-82194887D01*
X124623804Y-82207200D01*
X124540196Y-82207200D01*
X124415177Y-82194887D01*
X124254758Y-82146224D01*
X124106924Y-82067205D01*
X124106922Y-82067204D01*
X123977341Y-81960859D01*
X123870996Y-81831278D01*
X123862886Y-81816106D01*
X123791976Y-81683442D01*
X123743313Y-81523023D01*
X123726883Y-81356200D01*
X123743313Y-81189377D01*
X123789670Y-81036559D01*
X123791975Y-81028961D01*
X123791976Y-81028958D01*
X123870995Y-80881124D01*
X123870996Y-80881122D01*
X123977341Y-80751541D01*
X124106922Y-80645196D01*
X124187639Y-80602052D01*
X124254758Y-80566176D01*
X124415177Y-80517513D01*
X124540196Y-80505200D01*
X124623804Y-80505200D01*
X124748823Y-80517513D01*
X124748823Y-80517513D01*
G37*
G36*
X83877195Y-79306046D02*
G01*
X84050266Y-79377734D01*
X84127618Y-79429419D01*
X84206027Y-79481810D01*
X84338490Y-79614273D01*
X84338491Y-79614275D01*
X84442566Y-79770034D01*
X84514254Y-79943105D01*
X84550800Y-80126833D01*
X84550800Y-80314167D01*
X84514254Y-80497895D01*
X84442566Y-80670966D01*
X84442565Y-80670967D01*
X84338490Y-80826727D01*
X84206027Y-80959190D01*
X84129474Y-81010341D01*
X84050266Y-81063266D01*
X83877195Y-81134954D01*
X83693467Y-81171500D01*
X83506133Y-81171500D01*
X83322405Y-81134954D01*
X83149334Y-81063266D01*
X83070126Y-81010341D01*
X82993573Y-80959190D01*
X82861110Y-80826727D01*
X82757035Y-80670967D01*
X82757034Y-80670966D01*
X82685346Y-80497895D01*
X82648800Y-80314167D01*
X82648800Y-80126833D01*
X82685346Y-79943105D01*
X82757034Y-79770034D01*
X82861109Y-79614275D01*
X82861110Y-79614273D01*
X82993573Y-79481810D01*
X83071982Y-79429419D01*
X83149334Y-79377734D01*
X83322405Y-79306046D01*
X83506133Y-79269500D01*
X83693467Y-79269500D01*
X83877195Y-79306046D01*
X83877195Y-79306046D01*
G37*
G36*
X76749195Y-79306046D02*
G01*
X76922266Y-79377734D01*
X76999618Y-79429419D01*
X77078027Y-79481810D01*
X77210490Y-79614273D01*
X77210491Y-79614275D01*
X77314566Y-79770034D01*
X77386254Y-79943105D01*
X77422800Y-80126833D01*
X77422800Y-80314167D01*
X77386254Y-80497895D01*
X77314566Y-80670966D01*
X77314565Y-80670967D01*
X77210490Y-80826727D01*
X77078027Y-80959190D01*
X77001474Y-81010341D01*
X76922266Y-81063266D01*
X76749195Y-81134954D01*
X76565467Y-81171500D01*
X76378133Y-81171500D01*
X76194405Y-81134954D01*
X76021334Y-81063266D01*
X75942126Y-81010341D01*
X75865573Y-80959190D01*
X75733110Y-80826727D01*
X75629035Y-80670967D01*
X75629034Y-80670966D01*
X75557346Y-80497895D01*
X75520800Y-80314167D01*
X75520800Y-80126833D01*
X75557346Y-79943105D01*
X75629034Y-79770034D01*
X75733109Y-79614275D01*
X75733110Y-79614273D01*
X75865573Y-79481810D01*
X75943982Y-79429419D01*
X76021334Y-79377734D01*
X76194405Y-79306046D01*
X76378133Y-79269500D01*
X76565467Y-79269500D01*
X76749195Y-79306046D01*
X76749195Y-79306046D01*
G37*
G36*
X102365823Y-78236313D02*
G01*
X102526242Y-78284976D01*
X102658906Y-78355886D01*
X102674078Y-78363996D01*
X102803659Y-78470341D01*
X102910004Y-78599922D01*
X102910005Y-78599924D01*
X102989024Y-78747758D01*
X103037687Y-78908177D01*
X103054117Y-79075000D01*
X103037687Y-79241823D01*
X102998083Y-79372380D01*
X102996459Y-79377734D01*
X102989024Y-79402242D01*
X102946494Y-79481810D01*
X102910004Y-79550078D01*
X102803659Y-79679659D01*
X102674078Y-79786004D01*
X102674076Y-79786005D01*
X102526242Y-79865024D01*
X102365823Y-79913687D01*
X102240804Y-79926000D01*
X102157196Y-79926000D01*
X102032177Y-79913687D01*
X101871758Y-79865024D01*
X101723924Y-79786005D01*
X101723922Y-79786004D01*
X101594341Y-79679659D01*
X101487996Y-79550078D01*
X101451506Y-79481810D01*
X101408976Y-79402242D01*
X101401542Y-79377734D01*
X101399917Y-79372380D01*
X101360313Y-79241823D01*
X101343883Y-79075000D01*
X101360313Y-78908177D01*
X101408976Y-78747758D01*
X101487995Y-78599924D01*
X101487996Y-78599922D01*
X101594341Y-78470341D01*
X101723922Y-78363996D01*
X101739094Y-78355886D01*
X101871758Y-78284976D01*
X102032177Y-78236313D01*
X102157196Y-78224000D01*
X102240804Y-78224000D01*
X102365823Y-78236313D01*
X102365823Y-78236313D01*
G37*
G36*
X94745823Y-78236313D02*
G01*
X94906242Y-78284976D01*
X95038906Y-78355886D01*
X95054078Y-78363996D01*
X95183659Y-78470341D01*
X95290004Y-78599922D01*
X95290005Y-78599924D01*
X95369024Y-78747758D01*
X95417687Y-78908177D01*
X95434117Y-79075000D01*
X95417687Y-79241823D01*
X95378083Y-79372380D01*
X95376459Y-79377734D01*
X95369024Y-79402242D01*
X95326494Y-79481810D01*
X95290004Y-79550078D01*
X95183659Y-79679659D01*
X95054078Y-79786004D01*
X95054076Y-79786005D01*
X94906242Y-79865024D01*
X94745823Y-79913687D01*
X94620804Y-79926000D01*
X94537196Y-79926000D01*
X94412177Y-79913687D01*
X94251758Y-79865024D01*
X94103924Y-79786005D01*
X94103922Y-79786004D01*
X93974341Y-79679659D01*
X93867996Y-79550078D01*
X93831506Y-79481810D01*
X93788976Y-79402242D01*
X93781542Y-79377734D01*
X93779917Y-79372380D01*
X93740313Y-79241823D01*
X93723883Y-79075000D01*
X93740313Y-78908177D01*
X93788976Y-78747758D01*
X93867995Y-78599924D01*
X93867996Y-78599922D01*
X93974341Y-78470341D01*
X94103922Y-78363996D01*
X94119094Y-78355886D01*
X94251758Y-78284976D01*
X94412177Y-78236313D01*
X94537196Y-78224000D01*
X94620804Y-78224000D01*
X94745823Y-78236313D01*
X94745823Y-78236313D01*
G37*
G36*
X113438823Y-75821113D02*
G01*
X113599242Y-75869776D01*
X113666361Y-75905652D01*
X113747078Y-75948796D01*
X113876659Y-76055141D01*
X113983004Y-76184722D01*
X113983005Y-76184724D01*
X114062024Y-76332558D01*
X114110687Y-76492977D01*
X114127117Y-76659800D01*
X114110687Y-76826623D01*
X114062024Y-76987042D01*
X114021477Y-77062900D01*
X113983004Y-77134878D01*
X113876659Y-77264459D01*
X113747078Y-77370804D01*
X113747076Y-77370805D01*
X113599242Y-77449824D01*
X113438823Y-77498487D01*
X113313804Y-77510800D01*
X113230196Y-77510800D01*
X113105177Y-77498487D01*
X112944758Y-77449824D01*
X112796924Y-77370805D01*
X112796922Y-77370804D01*
X112667341Y-77264459D01*
X112560996Y-77134878D01*
X112522523Y-77062900D01*
X112481976Y-76987042D01*
X112433313Y-76826623D01*
X112416883Y-76659800D01*
X112433313Y-76492977D01*
X112481976Y-76332558D01*
X112560995Y-76184724D01*
X112560996Y-76184722D01*
X112667341Y-76055141D01*
X112796922Y-75948796D01*
X112877639Y-75905652D01*
X112944758Y-75869776D01*
X113105177Y-75821113D01*
X113230196Y-75808800D01*
X113313804Y-75808800D01*
X113438823Y-75821113D01*
X113438823Y-75821113D01*
G37*
G36*
X125414000Y-77510800D02*
G01*
X123712000Y-77510800D01*
X123712000Y-75808800D01*
X125414000Y-75808800D01*
X125414000Y-77510800D01*
X125414000Y-77510800D01*
G37*
G36*
X76638623Y-75821113D02*
G01*
X76799042Y-75869776D01*
X76866161Y-75905652D01*
X76946878Y-75948796D01*
X77076459Y-76055141D01*
X77182804Y-76184722D01*
X77182805Y-76184724D01*
X77261824Y-76332558D01*
X77310487Y-76492977D01*
X77326917Y-76659800D01*
X77310487Y-76826623D01*
X77261824Y-76987042D01*
X77221277Y-77062900D01*
X77182804Y-77134878D01*
X77076459Y-77264459D01*
X76946878Y-77370804D01*
X76946876Y-77370805D01*
X76799042Y-77449824D01*
X76638623Y-77498487D01*
X76513604Y-77510800D01*
X76429996Y-77510800D01*
X76304977Y-77498487D01*
X76144558Y-77449824D01*
X75996724Y-77370805D01*
X75996722Y-77370804D01*
X75867141Y-77264459D01*
X75760796Y-77134878D01*
X75722323Y-77062900D01*
X75681776Y-76987042D01*
X75633113Y-76826623D01*
X75616683Y-76659800D01*
X75633113Y-76492977D01*
X75681776Y-76332558D01*
X75760795Y-76184724D01*
X75760796Y-76184722D01*
X75867141Y-76055141D01*
X75996722Y-75948796D01*
X76077439Y-75905652D01*
X76144558Y-75869776D01*
X76304977Y-75821113D01*
X76429996Y-75808800D01*
X76513604Y-75808800D01*
X76638623Y-75821113D01*
X76638623Y-75821113D01*
G37*
G36*
X83766623Y-75821113D02*
G01*
X83927042Y-75869776D01*
X83994161Y-75905652D01*
X84074878Y-75948796D01*
X84204459Y-76055141D01*
X84310804Y-76184722D01*
X84310805Y-76184724D01*
X84389824Y-76332558D01*
X84438487Y-76492977D01*
X84454917Y-76659800D01*
X84438487Y-76826623D01*
X84389824Y-76987042D01*
X84349277Y-77062900D01*
X84310804Y-77134878D01*
X84204459Y-77264459D01*
X84074878Y-77370804D01*
X84074876Y-77370805D01*
X83927042Y-77449824D01*
X83766623Y-77498487D01*
X83641604Y-77510800D01*
X83557996Y-77510800D01*
X83432977Y-77498487D01*
X83272558Y-77449824D01*
X83124724Y-77370805D01*
X83124722Y-77370804D01*
X82995141Y-77264459D01*
X82888796Y-77134878D01*
X82850323Y-77062900D01*
X82809776Y-76987042D01*
X82761113Y-76826623D01*
X82744683Y-76659800D01*
X82761113Y-76492977D01*
X82809776Y-76332558D01*
X82888795Y-76184724D01*
X82888796Y-76184722D01*
X82995141Y-76055141D01*
X83124722Y-75948796D01*
X83205439Y-75905652D01*
X83272558Y-75869776D01*
X83432977Y-75821113D01*
X83557996Y-75808800D01*
X83641604Y-75808800D01*
X83766623Y-75821113D01*
X83766623Y-75821113D01*
G37*
G36*
X107500228Y-75841503D02*
G01*
X107655100Y-75905653D01*
X107794481Y-75998785D01*
X107913015Y-76117319D01*
X108006147Y-76256700D01*
X108070297Y-76411572D01*
X108103000Y-76575984D01*
X108103000Y-76743616D01*
X108070297Y-76908028D01*
X108006147Y-77062900D01*
X107913015Y-77202281D01*
X107794481Y-77320815D01*
X107655100Y-77413947D01*
X107500228Y-77478097D01*
X107335816Y-77510800D01*
X107168184Y-77510800D01*
X107003772Y-77478097D01*
X106848900Y-77413947D01*
X106709519Y-77320815D01*
X106590985Y-77202281D01*
X106497853Y-77062900D01*
X106433703Y-76908028D01*
X106401000Y-76743616D01*
X106401000Y-76575984D01*
X106433703Y-76411572D01*
X106497853Y-76256700D01*
X106590985Y-76117319D01*
X106709519Y-75998785D01*
X106848900Y-75905653D01*
X107003772Y-75841503D01*
X107168184Y-75808800D01*
X107335816Y-75808800D01*
X107500228Y-75841503D01*
X107500228Y-75841503D01*
G37*
G36*
X119894000Y-77510800D02*
G01*
X118192000Y-77510800D01*
X118192000Y-75808800D01*
X119894000Y-75808800D01*
X119894000Y-77510800D01*
X119894000Y-77510800D01*
G37*
G36*
X102365823Y-75696313D02*
G01*
X102526242Y-75744976D01*
X102645648Y-75808800D01*
X102674078Y-75823996D01*
X102803659Y-75930341D01*
X102910004Y-76059922D01*
X102910005Y-76059924D01*
X102989024Y-76207758D01*
X103037687Y-76368177D01*
X103054117Y-76535000D01*
X103037687Y-76701823D01*
X102989024Y-76862242D01*
X102964550Y-76908029D01*
X102910004Y-77010078D01*
X102803659Y-77139659D01*
X102674078Y-77246004D01*
X102674076Y-77246005D01*
X102526242Y-77325024D01*
X102365823Y-77373687D01*
X102240804Y-77386000D01*
X102157196Y-77386000D01*
X102032177Y-77373687D01*
X101871758Y-77325024D01*
X101723924Y-77246005D01*
X101723922Y-77246004D01*
X101594341Y-77139659D01*
X101487996Y-77010078D01*
X101433450Y-76908029D01*
X101408976Y-76862242D01*
X101360313Y-76701823D01*
X101343883Y-76535000D01*
X101360313Y-76368177D01*
X101408976Y-76207758D01*
X101487995Y-76059924D01*
X101487996Y-76059922D01*
X101594341Y-75930341D01*
X101723922Y-75823996D01*
X101752352Y-75808800D01*
X101871758Y-75744976D01*
X102032177Y-75696313D01*
X102157196Y-75684000D01*
X102240804Y-75684000D01*
X102365823Y-75696313D01*
X102365823Y-75696313D01*
G37*
G36*
X94745823Y-75696313D02*
G01*
X94906242Y-75744976D01*
X95025648Y-75808800D01*
X95054078Y-75823996D01*
X95183659Y-75930341D01*
X95290004Y-76059922D01*
X95290005Y-76059924D01*
X95369024Y-76207758D01*
X95417687Y-76368177D01*
X95434117Y-76535000D01*
X95417687Y-76701823D01*
X95369024Y-76862242D01*
X95344550Y-76908029D01*
X95290004Y-77010078D01*
X95183659Y-77139659D01*
X95054078Y-77246004D01*
X95054076Y-77246005D01*
X94906242Y-77325024D01*
X94745823Y-77373687D01*
X94620804Y-77386000D01*
X94537196Y-77386000D01*
X94412177Y-77373687D01*
X94251758Y-77325024D01*
X94103924Y-77246005D01*
X94103922Y-77246004D01*
X93974341Y-77139659D01*
X93867996Y-77010078D01*
X93813450Y-76908029D01*
X93788976Y-76862242D01*
X93740313Y-76701823D01*
X93723883Y-76535000D01*
X93740313Y-76368177D01*
X93788976Y-76207758D01*
X93867995Y-76059924D01*
X93867996Y-76059922D01*
X93974341Y-75930341D01*
X94103922Y-75823996D01*
X94132352Y-75808800D01*
X94251758Y-75744976D01*
X94412177Y-75696313D01*
X94537196Y-75684000D01*
X94620804Y-75684000D01*
X94745823Y-75696313D01*
X94745823Y-75696313D01*
G37*
G36*
X130581228Y-73421503D02*
G01*
X130736100Y-73485653D01*
X130875481Y-73578785D01*
X130994015Y-73697319D01*
X131087147Y-73836700D01*
X131151297Y-73991572D01*
X131184000Y-74155984D01*
X131184000Y-74323616D01*
X131151297Y-74488028D01*
X131087147Y-74642900D01*
X130994015Y-74782281D01*
X130875481Y-74900815D01*
X130736100Y-74993947D01*
X130581228Y-75058097D01*
X130416816Y-75090800D01*
X130249184Y-75090800D01*
X130084772Y-75058097D01*
X129929900Y-74993947D01*
X129790519Y-74900815D01*
X129671985Y-74782281D01*
X129578853Y-74642900D01*
X129514703Y-74488028D01*
X129482000Y-74323616D01*
X129482000Y-74155984D01*
X129514703Y-73991572D01*
X129578853Y-73836700D01*
X129671985Y-73697319D01*
X129790519Y-73578785D01*
X129929900Y-73485653D01*
X130084772Y-73421503D01*
X130249184Y-73388800D01*
X130416816Y-73388800D01*
X130581228Y-73421503D01*
X130581228Y-73421503D01*
G37*
G36*
X94745823Y-73156313D02*
G01*
X94906242Y-73204976D01*
X95038906Y-73275886D01*
X95054078Y-73283996D01*
X95183659Y-73390341D01*
X95290004Y-73519922D01*
X95290005Y-73519924D01*
X95369024Y-73667758D01*
X95417687Y-73828177D01*
X95434117Y-73995000D01*
X95417687Y-74161823D01*
X95369024Y-74322242D01*
X95298114Y-74454906D01*
X95290004Y-74470078D01*
X95183659Y-74599659D01*
X95054078Y-74706004D01*
X95054076Y-74706005D01*
X94906242Y-74785024D01*
X94745823Y-74833687D01*
X94620804Y-74846000D01*
X94537196Y-74846000D01*
X94412177Y-74833687D01*
X94251758Y-74785024D01*
X94103924Y-74706005D01*
X94103922Y-74706004D01*
X93974341Y-74599659D01*
X93867996Y-74470078D01*
X93859886Y-74454906D01*
X93788976Y-74322242D01*
X93740313Y-74161823D01*
X93723883Y-73995000D01*
X93740313Y-73828177D01*
X93788976Y-73667758D01*
X93867995Y-73519924D01*
X93867996Y-73519922D01*
X93974341Y-73390341D01*
X94103922Y-73283996D01*
X94119094Y-73275886D01*
X94251758Y-73204976D01*
X94412177Y-73156313D01*
X94537196Y-73144000D01*
X94620804Y-73144000D01*
X94745823Y-73156313D01*
X94745823Y-73156313D01*
G37*
G36*
X102365823Y-73156313D02*
G01*
X102526242Y-73204976D01*
X102658906Y-73275886D01*
X102674078Y-73283996D01*
X102803659Y-73390341D01*
X102910004Y-73519922D01*
X102910005Y-73519924D01*
X102989024Y-73667758D01*
X103037687Y-73828177D01*
X103054117Y-73995000D01*
X103037687Y-74161823D01*
X102989024Y-74322242D01*
X102918114Y-74454906D01*
X102910004Y-74470078D01*
X102803659Y-74599659D01*
X102674078Y-74706004D01*
X102674076Y-74706005D01*
X102526242Y-74785024D01*
X102365823Y-74833687D01*
X102240804Y-74846000D01*
X102157196Y-74846000D01*
X102032177Y-74833687D01*
X101871758Y-74785024D01*
X101723924Y-74706005D01*
X101723922Y-74706004D01*
X101594341Y-74599659D01*
X101487996Y-74470078D01*
X101479886Y-74454906D01*
X101408976Y-74322242D01*
X101360313Y-74161823D01*
X101343883Y-73995000D01*
X101360313Y-73828177D01*
X101408976Y-73667758D01*
X101487995Y-73519924D01*
X101487996Y-73519922D01*
X101594341Y-73390341D01*
X101723922Y-73283996D01*
X101739094Y-73275886D01*
X101871758Y-73204976D01*
X102032177Y-73156313D01*
X102157196Y-73144000D01*
X102240804Y-73144000D01*
X102365823Y-73156313D01*
X102365823Y-73156313D01*
G37*
G36*
X102365823Y-70616313D02*
G01*
X102526242Y-70664976D01*
X102658906Y-70735886D01*
X102674078Y-70743996D01*
X102803659Y-70850341D01*
X102910004Y-70979922D01*
X102910005Y-70979924D01*
X102989024Y-71127758D01*
X103037687Y-71288177D01*
X103054117Y-71455000D01*
X103037687Y-71621823D01*
X102989024Y-71782242D01*
X102918114Y-71914906D01*
X102910004Y-71930078D01*
X102803659Y-72059659D01*
X102674078Y-72166004D01*
X102674076Y-72166005D01*
X102526242Y-72245024D01*
X102365823Y-72293687D01*
X102240804Y-72306000D01*
X102157196Y-72306000D01*
X102032177Y-72293687D01*
X101871758Y-72245024D01*
X101723924Y-72166005D01*
X101723922Y-72166004D01*
X101594341Y-72059659D01*
X101487996Y-71930078D01*
X101479886Y-71914906D01*
X101408976Y-71782242D01*
X101360313Y-71621823D01*
X101343883Y-71455000D01*
X101360313Y-71288177D01*
X101408976Y-71127758D01*
X101487995Y-70979924D01*
X101487996Y-70979922D01*
X101594341Y-70850341D01*
X101723922Y-70743996D01*
X101739094Y-70735886D01*
X101871758Y-70664976D01*
X102032177Y-70616313D01*
X102157196Y-70604000D01*
X102240804Y-70604000D01*
X102365823Y-70616313D01*
X102365823Y-70616313D01*
G37*
G36*
X94745823Y-70616313D02*
G01*
X94906242Y-70664976D01*
X95038906Y-70735886D01*
X95054078Y-70743996D01*
X95183659Y-70850341D01*
X95290004Y-70979922D01*
X95290005Y-70979924D01*
X95369024Y-71127758D01*
X95417687Y-71288177D01*
X95434117Y-71455000D01*
X95417687Y-71621823D01*
X95369024Y-71782242D01*
X95298114Y-71914906D01*
X95290004Y-71930078D01*
X95183659Y-72059659D01*
X95054078Y-72166004D01*
X95054076Y-72166005D01*
X94906242Y-72245024D01*
X94745823Y-72293687D01*
X94620804Y-72306000D01*
X94537196Y-72306000D01*
X94412177Y-72293687D01*
X94251758Y-72245024D01*
X94103924Y-72166005D01*
X94103922Y-72166004D01*
X93974341Y-72059659D01*
X93867996Y-71930078D01*
X93859886Y-71914906D01*
X93788976Y-71782242D01*
X93740313Y-71621823D01*
X93723883Y-71455000D01*
X93740313Y-71288177D01*
X93788976Y-71127758D01*
X93867995Y-70979924D01*
X93867996Y-70979922D01*
X93974341Y-70850341D01*
X94103922Y-70743996D01*
X94119094Y-70735886D01*
X94251758Y-70664976D01*
X94412177Y-70616313D01*
X94537196Y-70604000D01*
X94620804Y-70604000D01*
X94745823Y-70616313D01*
X94745823Y-70616313D01*
G37*
G36*
X130581228Y-68421503D02*
G01*
X130736100Y-68485653D01*
X130875481Y-68578785D01*
X130994015Y-68697319D01*
X131087147Y-68836700D01*
X131151297Y-68991572D01*
X131184000Y-69155984D01*
X131184000Y-69323616D01*
X131151297Y-69488028D01*
X131087147Y-69642900D01*
X130994015Y-69782281D01*
X130875481Y-69900815D01*
X130736100Y-69993947D01*
X130581228Y-70058097D01*
X130416816Y-70090800D01*
X130249184Y-70090800D01*
X130084772Y-70058097D01*
X129929900Y-69993947D01*
X129790519Y-69900815D01*
X129671985Y-69782281D01*
X129578853Y-69642900D01*
X129514703Y-69488028D01*
X129482000Y-69323616D01*
X129482000Y-69155984D01*
X129514703Y-68991572D01*
X129578853Y-68836700D01*
X129671985Y-68697319D01*
X129790519Y-68578785D01*
X129929900Y-68485653D01*
X130084772Y-68421503D01*
X130249184Y-68388800D01*
X130416816Y-68388800D01*
X130581228Y-68421503D01*
X130581228Y-68421503D01*
G37*
G36*
X83848028Y-68221503D02*
G01*
X84002900Y-68285653D01*
X84142281Y-68378785D01*
X84260815Y-68497319D01*
X84353947Y-68636700D01*
X84418097Y-68791572D01*
X84450800Y-68955984D01*
X84450800Y-69123616D01*
X84418097Y-69288028D01*
X84353947Y-69442900D01*
X84260815Y-69582281D01*
X84142281Y-69700815D01*
X84002900Y-69793947D01*
X83848028Y-69858097D01*
X83683616Y-69890800D01*
X83515984Y-69890800D01*
X83351572Y-69858097D01*
X83196700Y-69793947D01*
X83057319Y-69700815D01*
X82938785Y-69582281D01*
X82845653Y-69442900D01*
X82781503Y-69288028D01*
X82748800Y-69123616D01*
X82748800Y-68955984D01*
X82781503Y-68791572D01*
X82845653Y-68636700D01*
X82938785Y-68497319D01*
X83057319Y-68378785D01*
X83196700Y-68285653D01*
X83351572Y-68221503D01*
X83515984Y-68188800D01*
X83683616Y-68188800D01*
X83848028Y-68221503D01*
X83848028Y-68221503D01*
G37*
G36*
X76720028Y-68221503D02*
G01*
X76874900Y-68285653D01*
X77014281Y-68378785D01*
X77132815Y-68497319D01*
X77225947Y-68636700D01*
X77290097Y-68791572D01*
X77322800Y-68955984D01*
X77322800Y-69123616D01*
X77290097Y-69288028D01*
X77225947Y-69442900D01*
X77132815Y-69582281D01*
X77014281Y-69700815D01*
X76874900Y-69793947D01*
X76720028Y-69858097D01*
X76555616Y-69890800D01*
X76387984Y-69890800D01*
X76223572Y-69858097D01*
X76068700Y-69793947D01*
X75929319Y-69700815D01*
X75810785Y-69582281D01*
X75717653Y-69442900D01*
X75653503Y-69288028D01*
X75620800Y-69123616D01*
X75620800Y-68955984D01*
X75653503Y-68791572D01*
X75717653Y-68636700D01*
X75810785Y-68497319D01*
X75929319Y-68378785D01*
X76068700Y-68285653D01*
X76223572Y-68221503D01*
X76387984Y-68188800D01*
X76555616Y-68188800D01*
X76720028Y-68221503D01*
X76720028Y-68221503D01*
G37*
G36*
X113520228Y-68221503D02*
G01*
X113675100Y-68285653D01*
X113814481Y-68378785D01*
X113933015Y-68497319D01*
X114026147Y-68636700D01*
X114090297Y-68791572D01*
X114123000Y-68955984D01*
X114123000Y-69123616D01*
X114090297Y-69288028D01*
X114026147Y-69442900D01*
X113933015Y-69582281D01*
X113814481Y-69700815D01*
X113675100Y-69793947D01*
X113520228Y-69858097D01*
X113355816Y-69890800D01*
X113188184Y-69890800D01*
X113023772Y-69858097D01*
X112868900Y-69793947D01*
X112729519Y-69700815D01*
X112610985Y-69582281D01*
X112517853Y-69442900D01*
X112453703Y-69288028D01*
X112421000Y-69123616D01*
X112421000Y-68955984D01*
X112453703Y-68791572D01*
X112517853Y-68636700D01*
X112610985Y-68497319D01*
X112729519Y-68378785D01*
X112868900Y-68285653D01*
X113023772Y-68221503D01*
X113188184Y-68188800D01*
X113355816Y-68188800D01*
X113520228Y-68221503D01*
X113520228Y-68221503D01*
G37*
G36*
X119209823Y-68201113D02*
G01*
X119370242Y-68249776D01*
X119437361Y-68285652D01*
X119518078Y-68328796D01*
X119647659Y-68435141D01*
X119754004Y-68564722D01*
X119754005Y-68564724D01*
X119833024Y-68712558D01*
X119881687Y-68872977D01*
X119898117Y-69039800D01*
X119881687Y-69206623D01*
X119833024Y-69367042D01*
X119792477Y-69442900D01*
X119754004Y-69514878D01*
X119647659Y-69644459D01*
X119518078Y-69750804D01*
X119518076Y-69750805D01*
X119370242Y-69829824D01*
X119209823Y-69878487D01*
X119084804Y-69890800D01*
X119001196Y-69890800D01*
X118876177Y-69878487D01*
X118715758Y-69829824D01*
X118567924Y-69750805D01*
X118567922Y-69750804D01*
X118438341Y-69644459D01*
X118331996Y-69514878D01*
X118293523Y-69442900D01*
X118252976Y-69367042D01*
X118204313Y-69206623D01*
X118187883Y-69039800D01*
X118204313Y-68872977D01*
X118252976Y-68712558D01*
X118331995Y-68564724D01*
X118331996Y-68564722D01*
X118438341Y-68435141D01*
X118567922Y-68328796D01*
X118648639Y-68285652D01*
X118715758Y-68249776D01*
X118876177Y-68201113D01*
X119001196Y-68188800D01*
X119084804Y-68188800D01*
X119209823Y-68201113D01*
X119209823Y-68201113D01*
G37*
G36*
X107418823Y-68201113D02*
G01*
X107579242Y-68249776D01*
X107646361Y-68285652D01*
X107727078Y-68328796D01*
X107856659Y-68435141D01*
X107963004Y-68564722D01*
X107963005Y-68564724D01*
X108042024Y-68712558D01*
X108090687Y-68872977D01*
X108107117Y-69039800D01*
X108090687Y-69206623D01*
X108042024Y-69367042D01*
X108001477Y-69442900D01*
X107963004Y-69514878D01*
X107856659Y-69644459D01*
X107727078Y-69750804D01*
X107727076Y-69750805D01*
X107579242Y-69829824D01*
X107418823Y-69878487D01*
X107293804Y-69890800D01*
X107210196Y-69890800D01*
X107085177Y-69878487D01*
X106924758Y-69829824D01*
X106776924Y-69750805D01*
X106776922Y-69750804D01*
X106647341Y-69644459D01*
X106540996Y-69514878D01*
X106502523Y-69442900D01*
X106461976Y-69367042D01*
X106413313Y-69206623D01*
X106396883Y-69039800D01*
X106413313Y-68872977D01*
X106461976Y-68712558D01*
X106540995Y-68564724D01*
X106540996Y-68564722D01*
X106647341Y-68435141D01*
X106776922Y-68328796D01*
X106857639Y-68285652D01*
X106924758Y-68249776D01*
X107085177Y-68201113D01*
X107210196Y-68188800D01*
X107293804Y-68188800D01*
X107418823Y-68201113D01*
X107418823Y-68201113D01*
G37*
G36*
X124729823Y-68201113D02*
G01*
X124890242Y-68249776D01*
X124957361Y-68285652D01*
X125038078Y-68328796D01*
X125167659Y-68435141D01*
X125274004Y-68564722D01*
X125274005Y-68564724D01*
X125353024Y-68712558D01*
X125401687Y-68872977D01*
X125418117Y-69039800D01*
X125401687Y-69206623D01*
X125353024Y-69367042D01*
X125312477Y-69442900D01*
X125274004Y-69514878D01*
X125167659Y-69644459D01*
X125038078Y-69750804D01*
X125038076Y-69750805D01*
X124890242Y-69829824D01*
X124729823Y-69878487D01*
X124604804Y-69890800D01*
X124521196Y-69890800D01*
X124396177Y-69878487D01*
X124235758Y-69829824D01*
X124087924Y-69750805D01*
X124087922Y-69750804D01*
X123958341Y-69644459D01*
X123851996Y-69514878D01*
X123813523Y-69442900D01*
X123772976Y-69367042D01*
X123724313Y-69206623D01*
X123707883Y-69039800D01*
X123724313Y-68872977D01*
X123772976Y-68712558D01*
X123851995Y-68564724D01*
X123851996Y-68564722D01*
X123958341Y-68435141D01*
X124087922Y-68328796D01*
X124168639Y-68285652D01*
X124235758Y-68249776D01*
X124396177Y-68201113D01*
X124521196Y-68188800D01*
X124604804Y-68188800D01*
X124729823Y-68201113D01*
X124729823Y-68201113D01*
G37*
M02*
