G04 #@! TF.GenerationSoftware,KiCad,Pcbnew,5.1.4-3.fc30*
G04 #@! TF.CreationDate,2019-09-17T14:13:59+02:00*
G04 #@! TF.ProjectId,usbasp,75736261-7370-42e6-9b69-6361645f7063,2.0*
G04 #@! TF.SameCoordinates,Original*
G04 #@! TF.FileFunction,Legend,Bot*
G04 #@! TF.FilePolarity,Positive*
%FSLAX46Y46*%
G04 Gerber Fmt 4.6, Leading zero omitted, Abs format (unit mm)*
G04 Created by KiCad (PCBNEW 5.1.4-3.fc30) date 2019-09-17 14:13:59*
%MOMM*%
%LPD*%
G04 APERTURE LIST*
%ADD10C,1.602000*%
%ADD11C,2.102000*%
%ADD12C,1.702000*%
%ADD13R,1.702000X1.702000*%
%ADD14O,1.702000X1.702000*%
%ADD15R,1.902000X1.902000*%
%ADD16C,1.902000*%
%ADD17O,1.802000X1.802000*%
%ADD18R,1.802000X1.802000*%
%ADD19R,1.829200X1.829200*%
%ADD20O,1.829200X1.829200*%
G04 APERTURE END LIST*
%LPC*%
D10*
X109518000Y-89467700D03*
X109518000Y-94467700D03*
D11*
X64516000Y-103405000D03*
X69016000Y-103405000D03*
X64516000Y-109905000D03*
X69016000Y-109905000D03*
D12*
X115056000Y-94401600D03*
X120056000Y-94401600D03*
X120167000Y-89367400D03*
X115167000Y-89367400D03*
X130333000Y-74239800D03*
X130333000Y-69239800D03*
D13*
X121183000Y-110130000D03*
D12*
X121183000Y-107630000D03*
X96545000Y-110380000D03*
X101545000Y-110380000D03*
D14*
X119043000Y-69039800D03*
D13*
X119043000Y-76659800D03*
X124563000Y-76659800D03*
D14*
X124563000Y-69039800D03*
D15*
X76471800Y-82760500D03*
D16*
X76471800Y-80220500D03*
X83599800Y-80220500D03*
D15*
X83599800Y-82760500D03*
D13*
X105943000Y-110130000D03*
D14*
X113563000Y-110130000D03*
D17*
X74853800Y-108915000D03*
D18*
X74853800Y-106375000D03*
D19*
X62547500Y-81800700D03*
D20*
X65087500Y-81800700D03*
X62547500Y-84340700D03*
X65087500Y-84340700D03*
X62547500Y-86880700D03*
X65087500Y-86880700D03*
X62547500Y-89420700D03*
X65087500Y-89420700D03*
X62547500Y-91960700D03*
X65087500Y-91960700D03*
D18*
X73395100Y-95946100D03*
D17*
X73395100Y-98486100D03*
X88331000Y-95956100D03*
D18*
X88331000Y-98496100D03*
X80863100Y-98496100D03*
D17*
X80863100Y-95956100D03*
D12*
X84861400Y-110380000D03*
D14*
X92481400Y-110380000D03*
X107252000Y-69039800D03*
D12*
X107252000Y-76659800D03*
D14*
X124582000Y-81356200D03*
D12*
X116962000Y-81356200D03*
X113272000Y-69039800D03*
D14*
X113272000Y-76659800D03*
X76471800Y-76659800D03*
D12*
X76471800Y-69039800D03*
X83599800Y-69039800D03*
D14*
X83599800Y-76659800D03*
D12*
X78740000Y-106261000D03*
D14*
X86360000Y-106261000D03*
D13*
X102199000Y-104475000D03*
D14*
X94579000Y-71455000D03*
X102199000Y-101935000D03*
X94579000Y-73995000D03*
X102199000Y-99395000D03*
X94579000Y-76535000D03*
X102199000Y-96855000D03*
X94579000Y-79075000D03*
X102199000Y-94315000D03*
X94579000Y-81615000D03*
X102199000Y-91775000D03*
X94579000Y-84155000D03*
X102199000Y-89235000D03*
X94579000Y-86695000D03*
X102199000Y-86695000D03*
X94579000Y-89235000D03*
X102199000Y-84155000D03*
X94579000Y-91775000D03*
X102199000Y-81615000D03*
X94579000Y-94315000D03*
X102199000Y-79075000D03*
X94579000Y-96855000D03*
X102199000Y-76535000D03*
X94579000Y-99395000D03*
X102199000Y-73995000D03*
X94579000Y-101935000D03*
X102199000Y-71455000D03*
X94579000Y-104475000D03*
M02*
