M48
; DRILL file {KiCad 5.1.2-1.fc30} date pon, 8 lip 2019, 04:49:50
; FORMAT={-:-/ absolute / inch / decimal}
; #@! TF.CreationDate,2019-07-08T04:49:50+02:00
; #@! TF.GenerationSoftware,Kicad,Pcbnew,5.1.2-1.fc30
; #@! TF.FileFunction,Plated,1,2,PTH
FMAT,2
INCH
T1C0.0315
T2C0.0354
T3C0.0362
T4C0.0394
T5C0.0400
T6C0.0906
%
G90
G05
T1
X7.32Y-2.89
X7.32Y-3.0396
X9.65Y-2.76
X9.95Y-2.76
X8.28Y-2.66
X8.58Y-2.66
X9.13Y-3.91
X9.43Y-3.91
X7.1231Y-3.3
X7.32Y-3.3
X8.74Y-3.61
X8.74Y-3.8069
X9.02Y-2.24
X9.32Y-2.24
X9.6531Y-3.01
X9.85Y-3.01
X9.65Y-2.55
X9.95Y-2.55
X8.46Y-3.8216
X8.46Y-3.92
X7.1231Y-2.61
X7.32Y-2.61
X9.13Y-3.42
X9.43Y-3.42
X9.13Y-3.67
X9.43Y-3.67
X9.13Y-3.26
X9.43Y-3.26
X7.96Y-2.24
X8.26Y-2.24
X7.71Y-2.55
X7.71Y-2.65
X7.71Y-2.75
X7.71Y-2.85
X7.71Y-2.95
X7.71Y-3.05
X7.71Y-3.15
X7.71Y-3.25
X7.71Y-3.35
X7.71Y-3.45
X7.71Y-3.55
X7.71Y-3.65
X7.71Y-3.75
X7.71Y-3.85
X8.01Y-2.55
X8.01Y-2.65
X8.01Y-2.75
X8.01Y-2.85
X8.01Y-2.95
X8.01Y-3.05
X8.01Y-3.15
X8.01Y-3.25
X8.01Y-3.35
X8.01Y-3.45
X8.01Y-3.55
X8.01Y-3.65
X8.01Y-3.75
X8.01Y-3.85
X9.66Y-2.36
X9.96Y-2.36
T2
X8.75Y-2.24
X8.85Y-2.24
X8.45Y-2.24
X8.55Y-2.24
T3
X9.7033Y-3.4538
X9.7033Y-3.5522
X9.8293Y-3.4538
X9.8293Y-3.5522
T4
X9.31Y-2.55
X9.31Y-2.65
X7.33Y-3.8
X7.33Y-3.9
X9.31Y-2.92
X9.31Y-3.02
T5
X8.82Y-3.06
X8.82Y-3.16
X8.82Y-3.26
X8.92Y-3.06
X8.92Y-3.16
X8.92Y-3.26
X8.37Y-3.06
X8.37Y-3.16
X8.37Y-3.26
X8.37Y-3.36
X8.37Y-3.46
X8.47Y-3.06
X8.47Y-3.16
X8.47Y-3.26
X8.47Y-3.36
X8.47Y-3.46
T6
X9.81Y-3.266
X9.81Y-3.74
T0
M30
