G04 #@! TF.GenerationSoftware,KiCad,Pcbnew,5.1.2-1.fc30*
G04 #@! TF.CreationDate,2019-07-08T04:49:55+02:00*
G04 #@! TF.ProjectId,usbasp,75736261-7370-42e6-9b69-6361645f7063,1.0*
G04 #@! TF.SameCoordinates,Original*
G04 #@! TF.FileFunction,Soldermask,Top*
G04 #@! TF.FilePolarity,Negative*
%FSLAX46Y46*%
G04 Gerber Fmt 4.6, Leading zero omitted, Abs format (unit mm)*
G04 Created by KiCad (PCBNEW 5.1.2-1.fc30) date 2019-07-08 04:49:55*
%MOMM*%
%LPD*%
G04 APERTURE LIST*
%ADD10C,0.100000*%
G04 APERTURE END LIST*
D10*
G36*
X215735000Y-100419000D02*
G01*
X214033000Y-100419000D01*
X214033000Y-98717000D01*
X215735000Y-98717000D01*
X215735000Y-100419000D01*
X215735000Y-100419000D01*
G37*
G36*
X239688823Y-98475313D02*
G01*
X239849242Y-98523976D01*
X239916361Y-98559852D01*
X239997078Y-98602996D01*
X240126659Y-98709341D01*
X240233004Y-98838922D01*
X240233005Y-98838924D01*
X240312024Y-98986758D01*
X240360687Y-99147177D01*
X240377117Y-99314000D01*
X240360687Y-99480823D01*
X240312024Y-99641242D01*
X240271477Y-99717100D01*
X240233004Y-99789078D01*
X240126659Y-99918659D01*
X239997078Y-100025004D01*
X239997076Y-100025005D01*
X239849242Y-100104024D01*
X239688823Y-100152687D01*
X239563804Y-100165000D01*
X239480196Y-100165000D01*
X239355177Y-100152687D01*
X239194758Y-100104024D01*
X239046924Y-100025005D01*
X239046922Y-100025004D01*
X238917341Y-99918659D01*
X238810996Y-99789078D01*
X238772523Y-99717100D01*
X238731976Y-99641242D01*
X238683313Y-99480823D01*
X238666883Y-99314000D01*
X238683313Y-99147177D01*
X238731976Y-98986758D01*
X238810995Y-98838924D01*
X238810996Y-98838922D01*
X238917341Y-98709341D01*
X239046922Y-98602996D01*
X239127639Y-98559852D01*
X239194758Y-98523976D01*
X239355177Y-98475313D01*
X239480196Y-98463000D01*
X239563804Y-98463000D01*
X239688823Y-98475313D01*
X239688823Y-98475313D01*
G37*
G36*
X232150228Y-98495703D02*
G01*
X232305100Y-98559853D01*
X232444481Y-98652985D01*
X232563015Y-98771519D01*
X232656147Y-98910900D01*
X232720297Y-99065772D01*
X232753000Y-99230184D01*
X232753000Y-99397816D01*
X232720297Y-99562228D01*
X232656147Y-99717100D01*
X232563015Y-99856481D01*
X232444481Y-99975015D01*
X232305100Y-100068147D01*
X232150228Y-100132297D01*
X231985816Y-100165000D01*
X231818184Y-100165000D01*
X231653772Y-100132297D01*
X231498900Y-100068147D01*
X231359519Y-99975015D01*
X231240985Y-99856481D01*
X231147853Y-99717100D01*
X231083703Y-99562228D01*
X231051000Y-99397816D01*
X231051000Y-99230184D01*
X231083703Y-99065772D01*
X231147853Y-98910900D01*
X231240985Y-98771519D01*
X231359519Y-98652985D01*
X231498900Y-98559853D01*
X231653772Y-98495703D01*
X231818184Y-98463000D01*
X231985816Y-98463000D01*
X232150228Y-98495703D01*
X232150228Y-98495703D01*
G37*
G36*
X187083000Y-99961000D02*
G01*
X185281000Y-99961000D01*
X185281000Y-98159000D01*
X187083000Y-98159000D01*
X187083000Y-99961000D01*
X187083000Y-99961000D01*
G37*
G36*
X196000823Y-96951313D02*
G01*
X196161242Y-96999976D01*
X196293906Y-97070886D01*
X196309078Y-97078996D01*
X196438659Y-97185341D01*
X196545004Y-97314922D01*
X196545005Y-97314924D01*
X196624024Y-97462758D01*
X196672687Y-97623177D01*
X196689117Y-97790000D01*
X196672687Y-97956823D01*
X196624024Y-98117242D01*
X196553114Y-98249906D01*
X196545004Y-98265078D01*
X196438659Y-98394659D01*
X196309078Y-98501004D01*
X196309076Y-98501005D01*
X196161242Y-98580024D01*
X196000823Y-98628687D01*
X195875804Y-98641000D01*
X195792196Y-98641000D01*
X195667177Y-98628687D01*
X195506758Y-98580024D01*
X195358924Y-98501005D01*
X195358922Y-98501004D01*
X195229341Y-98394659D01*
X195122996Y-98265078D01*
X195114886Y-98249906D01*
X195043976Y-98117242D01*
X194995313Y-97956823D01*
X194978883Y-97790000D01*
X194995313Y-97623177D01*
X195043976Y-97462758D01*
X195122995Y-97314924D01*
X195122996Y-97314922D01*
X195229341Y-97185341D01*
X195358922Y-97078996D01*
X195374094Y-97070886D01*
X195506758Y-96999976D01*
X195667177Y-96951313D01*
X195792196Y-96939000D01*
X195875804Y-96939000D01*
X196000823Y-96951313D01*
X196000823Y-96951313D01*
G37*
G36*
X203620823Y-96951313D02*
G01*
X203781242Y-96999976D01*
X203913906Y-97070886D01*
X203929078Y-97078996D01*
X204058659Y-97185341D01*
X204165004Y-97314922D01*
X204165005Y-97314924D01*
X204244024Y-97462758D01*
X204292687Y-97623177D01*
X204309117Y-97790000D01*
X204292687Y-97956823D01*
X204244024Y-98117242D01*
X204173114Y-98249906D01*
X204165004Y-98265078D01*
X204058659Y-98394659D01*
X203929078Y-98501004D01*
X203929076Y-98501005D01*
X203781242Y-98580024D01*
X203620823Y-98628687D01*
X203495804Y-98641000D01*
X203412196Y-98641000D01*
X203287177Y-98628687D01*
X203126758Y-98580024D01*
X202978924Y-98501005D01*
X202978922Y-98501004D01*
X202849341Y-98394659D01*
X202742996Y-98265078D01*
X202734886Y-98249906D01*
X202663976Y-98117242D01*
X202615313Y-97956823D01*
X202598883Y-97790000D01*
X202615313Y-97623177D01*
X202663976Y-97462758D01*
X202742995Y-97314924D01*
X202742996Y-97314922D01*
X202849341Y-97185341D01*
X202978922Y-97078996D01*
X202994094Y-97070886D01*
X203126758Y-96999976D01*
X203287177Y-96951313D01*
X203412196Y-96939000D01*
X203495804Y-96939000D01*
X203620823Y-96951313D01*
X203620823Y-96951313D01*
G37*
G36*
X215132228Y-96249703D02*
G01*
X215287100Y-96313853D01*
X215426481Y-96406985D01*
X215545015Y-96525519D01*
X215638147Y-96664900D01*
X215702297Y-96819772D01*
X215735000Y-96984184D01*
X215735000Y-97151816D01*
X215702297Y-97316228D01*
X215638147Y-97471100D01*
X215545015Y-97610481D01*
X215426481Y-97729015D01*
X215287100Y-97822147D01*
X215132228Y-97886297D01*
X214967816Y-97919000D01*
X214800184Y-97919000D01*
X214635772Y-97886297D01*
X214480900Y-97822147D01*
X214341519Y-97729015D01*
X214222985Y-97610481D01*
X214129853Y-97471100D01*
X214065703Y-97316228D01*
X214033000Y-97151816D01*
X214033000Y-96984184D01*
X214065703Y-96819772D01*
X214129853Y-96664900D01*
X214222985Y-96525519D01*
X214341519Y-96406985D01*
X214480900Y-96313853D01*
X214635772Y-96249703D01*
X214800184Y-96217000D01*
X214967816Y-96217000D01*
X215132228Y-96249703D01*
X215132228Y-96249703D01*
G37*
G36*
X222244228Y-95875703D02*
G01*
X222399100Y-95939853D01*
X222538481Y-96032985D01*
X222657015Y-96151519D01*
X222750147Y-96290900D01*
X222814297Y-96445772D01*
X222847000Y-96610184D01*
X222847000Y-96777816D01*
X222814297Y-96942228D01*
X222750147Y-97097100D01*
X222657015Y-97236481D01*
X222538481Y-97355015D01*
X222399100Y-97448147D01*
X222244228Y-97512297D01*
X222079816Y-97545000D01*
X221912184Y-97545000D01*
X221747772Y-97512297D01*
X221592900Y-97448147D01*
X221453519Y-97355015D01*
X221334985Y-97236481D01*
X221241853Y-97097100D01*
X221177703Y-96942228D01*
X221145000Y-96777816D01*
X221145000Y-96610184D01*
X221177703Y-96445772D01*
X221241853Y-96290900D01*
X221334985Y-96151519D01*
X221453519Y-96032985D01*
X221592900Y-95939853D01*
X221747772Y-95875703D01*
X221912184Y-95843000D01*
X222079816Y-95843000D01*
X222244228Y-95875703D01*
X222244228Y-95875703D01*
G37*
G36*
X186292442Y-95625518D02*
G01*
X186358627Y-95632037D01*
X186528466Y-95683557D01*
X186684991Y-95767222D01*
X186720729Y-95796552D01*
X186822186Y-95879814D01*
X186905448Y-95981271D01*
X186934778Y-96017009D01*
X187018443Y-96173534D01*
X187069963Y-96343373D01*
X187087359Y-96520000D01*
X187069963Y-96696627D01*
X187018443Y-96866466D01*
X186934778Y-97022991D01*
X186905448Y-97058729D01*
X186822186Y-97160186D01*
X186729220Y-97236480D01*
X186684991Y-97272778D01*
X186528466Y-97356443D01*
X186358627Y-97407963D01*
X186292442Y-97414482D01*
X186226260Y-97421000D01*
X186137740Y-97421000D01*
X186071558Y-97414482D01*
X186005373Y-97407963D01*
X185835534Y-97356443D01*
X185679009Y-97272778D01*
X185634780Y-97236480D01*
X185541814Y-97160186D01*
X185458552Y-97058729D01*
X185429222Y-97022991D01*
X185345557Y-96866466D01*
X185294037Y-96696627D01*
X185276641Y-96520000D01*
X185294037Y-96343373D01*
X185345557Y-96173534D01*
X185429222Y-96017009D01*
X185458552Y-95981271D01*
X185541814Y-95879814D01*
X185643271Y-95796552D01*
X185679009Y-95767222D01*
X185835534Y-95683557D01*
X186005373Y-95632037D01*
X186071558Y-95625518D01*
X186137740Y-95619000D01*
X186226260Y-95619000D01*
X186292442Y-95625518D01*
X186292442Y-95625518D01*
G37*
G36*
X249433481Y-93466228D02*
G01*
X249626410Y-93504604D01*
X249908674Y-93621521D01*
X250162705Y-93791259D01*
X250378741Y-94007295D01*
X250548479Y-94261326D01*
X250665396Y-94543590D01*
X250725000Y-94843240D01*
X250725000Y-95148760D01*
X250665396Y-95448410D01*
X250548479Y-95730674D01*
X250378741Y-95984705D01*
X250162705Y-96200741D01*
X249908674Y-96370479D01*
X249626410Y-96487396D01*
X249476585Y-96517198D01*
X249326761Y-96547000D01*
X249021239Y-96547000D01*
X248871415Y-96517198D01*
X248721590Y-96487396D01*
X248439326Y-96370479D01*
X248185295Y-96200741D01*
X247969259Y-95984705D01*
X247799521Y-95730674D01*
X247682604Y-95448410D01*
X247623000Y-95148760D01*
X247623000Y-94843240D01*
X247682604Y-94543590D01*
X247799521Y-94261326D01*
X247969259Y-94007295D01*
X248185295Y-93791259D01*
X248439326Y-93621521D01*
X248721590Y-93504604D01*
X248914519Y-93466228D01*
X249021239Y-93445000D01*
X249326761Y-93445000D01*
X249433481Y-93466228D01*
X249433481Y-93466228D01*
G37*
G36*
X196000823Y-94411313D02*
G01*
X196161242Y-94459976D01*
X196293906Y-94530886D01*
X196309078Y-94538996D01*
X196438659Y-94645341D01*
X196545004Y-94774922D01*
X196545005Y-94774924D01*
X196624024Y-94922758D01*
X196672687Y-95083177D01*
X196689117Y-95250000D01*
X196672687Y-95416823D01*
X196624024Y-95577242D01*
X196594735Y-95632037D01*
X196545004Y-95725078D01*
X196438659Y-95854659D01*
X196309078Y-95961004D01*
X196309076Y-95961005D01*
X196161242Y-96040024D01*
X196000823Y-96088687D01*
X195875804Y-96101000D01*
X195792196Y-96101000D01*
X195667177Y-96088687D01*
X195506758Y-96040024D01*
X195358924Y-95961005D01*
X195358922Y-95961004D01*
X195229341Y-95854659D01*
X195122996Y-95725078D01*
X195073265Y-95632037D01*
X195043976Y-95577242D01*
X194995313Y-95416823D01*
X194978883Y-95250000D01*
X194995313Y-95083177D01*
X195043976Y-94922758D01*
X195122995Y-94774924D01*
X195122996Y-94774922D01*
X195229341Y-94645341D01*
X195358922Y-94538996D01*
X195374094Y-94530886D01*
X195506758Y-94459976D01*
X195667177Y-94411313D01*
X195792196Y-94399000D01*
X195875804Y-94399000D01*
X196000823Y-94411313D01*
X196000823Y-94411313D01*
G37*
G36*
X203620823Y-94411313D02*
G01*
X203781242Y-94459976D01*
X203913906Y-94530886D01*
X203929078Y-94538996D01*
X204058659Y-94645341D01*
X204165004Y-94774922D01*
X204165005Y-94774924D01*
X204244024Y-94922758D01*
X204292687Y-95083177D01*
X204309117Y-95250000D01*
X204292687Y-95416823D01*
X204244024Y-95577242D01*
X204214735Y-95632037D01*
X204165004Y-95725078D01*
X204058659Y-95854659D01*
X203929078Y-95961004D01*
X203929076Y-95961005D01*
X203781242Y-96040024D01*
X203620823Y-96088687D01*
X203495804Y-96101000D01*
X203412196Y-96101000D01*
X203287177Y-96088687D01*
X203126758Y-96040024D01*
X202978924Y-95961005D01*
X202978922Y-95961004D01*
X202849341Y-95854659D01*
X202742996Y-95725078D01*
X202693265Y-95632037D01*
X202663976Y-95577242D01*
X202615313Y-95416823D01*
X202598883Y-95250000D01*
X202615313Y-95083177D01*
X202663976Y-94922758D01*
X202742995Y-94774924D01*
X202742996Y-94774922D01*
X202849341Y-94645341D01*
X202978922Y-94538996D01*
X202994094Y-94530886D01*
X203126758Y-94459976D01*
X203287177Y-94411313D01*
X203412196Y-94399000D01*
X203495804Y-94399000D01*
X203620823Y-94411313D01*
X203620823Y-94411313D01*
G37*
G36*
X232150228Y-92399703D02*
G01*
X232305100Y-92463853D01*
X232444481Y-92556985D01*
X232563015Y-92675519D01*
X232656147Y-92814900D01*
X232720297Y-92969772D01*
X232753000Y-93134184D01*
X232753000Y-93301816D01*
X232720297Y-93466228D01*
X232656147Y-93621100D01*
X232563015Y-93760481D01*
X232444481Y-93879015D01*
X232305100Y-93972147D01*
X232150228Y-94036297D01*
X231985816Y-94069000D01*
X231818184Y-94069000D01*
X231653772Y-94036297D01*
X231498900Y-93972147D01*
X231359519Y-93879015D01*
X231240985Y-93760481D01*
X231147853Y-93621100D01*
X231083703Y-93466228D01*
X231051000Y-93301816D01*
X231051000Y-93134184D01*
X231083703Y-92969772D01*
X231147853Y-92814900D01*
X231240985Y-92675519D01*
X231359519Y-92556985D01*
X231498900Y-92463853D01*
X231653772Y-92399703D01*
X231818184Y-92367000D01*
X231985816Y-92367000D01*
X232150228Y-92399703D01*
X232150228Y-92399703D01*
G37*
G36*
X239688823Y-92379313D02*
G01*
X239849242Y-92427976D01*
X239916361Y-92463852D01*
X239997078Y-92506996D01*
X240126659Y-92613341D01*
X240233004Y-92742922D01*
X240233005Y-92742924D01*
X240312024Y-92890758D01*
X240360687Y-93051177D01*
X240377117Y-93218000D01*
X240360687Y-93384823D01*
X240312024Y-93545242D01*
X240271477Y-93621100D01*
X240233004Y-93693078D01*
X240126659Y-93822659D01*
X239997078Y-93929004D01*
X239997076Y-93929005D01*
X239849242Y-94008024D01*
X239688823Y-94056687D01*
X239563804Y-94069000D01*
X239480196Y-94069000D01*
X239355177Y-94056687D01*
X239194758Y-94008024D01*
X239046924Y-93929005D01*
X239046922Y-93929004D01*
X238917341Y-93822659D01*
X238810996Y-93693078D01*
X238772523Y-93621100D01*
X238731976Y-93545242D01*
X238683313Y-93384823D01*
X238666883Y-93218000D01*
X238683313Y-93051177D01*
X238731976Y-92890758D01*
X238810995Y-92742924D01*
X238810996Y-92742922D01*
X238917341Y-92613341D01*
X239046922Y-92506996D01*
X239127639Y-92463852D01*
X239194758Y-92427976D01*
X239355177Y-92379313D01*
X239480196Y-92367000D01*
X239563804Y-92367000D01*
X239688823Y-92379313D01*
X239688823Y-92379313D01*
G37*
G36*
X196000823Y-91871313D02*
G01*
X196161242Y-91919976D01*
X196202874Y-91942229D01*
X196309078Y-91998996D01*
X196438659Y-92105341D01*
X196545004Y-92234922D01*
X196545005Y-92234924D01*
X196624024Y-92382758D01*
X196672687Y-92543177D01*
X196689117Y-92710000D01*
X196672687Y-92876823D01*
X196624024Y-93037242D01*
X196572207Y-93134184D01*
X196545004Y-93185078D01*
X196438659Y-93314659D01*
X196309078Y-93421004D01*
X196309076Y-93421005D01*
X196161242Y-93500024D01*
X196000823Y-93548687D01*
X195875804Y-93561000D01*
X195792196Y-93561000D01*
X195667177Y-93548687D01*
X195506758Y-93500024D01*
X195358924Y-93421005D01*
X195358922Y-93421004D01*
X195229341Y-93314659D01*
X195122996Y-93185078D01*
X195095793Y-93134184D01*
X195043976Y-93037242D01*
X194995313Y-92876823D01*
X194978883Y-92710000D01*
X194995313Y-92543177D01*
X195043976Y-92382758D01*
X195122995Y-92234924D01*
X195122996Y-92234922D01*
X195229341Y-92105341D01*
X195358922Y-91998996D01*
X195465126Y-91942229D01*
X195506758Y-91919976D01*
X195667177Y-91871313D01*
X195792196Y-91859000D01*
X195875804Y-91859000D01*
X196000823Y-91871313D01*
X196000823Y-91871313D01*
G37*
G36*
X203620823Y-91871313D02*
G01*
X203781242Y-91919976D01*
X203822874Y-91942229D01*
X203929078Y-91998996D01*
X204058659Y-92105341D01*
X204165004Y-92234922D01*
X204165005Y-92234924D01*
X204244024Y-92382758D01*
X204292687Y-92543177D01*
X204309117Y-92710000D01*
X204292687Y-92876823D01*
X204244024Y-93037242D01*
X204192207Y-93134184D01*
X204165004Y-93185078D01*
X204058659Y-93314659D01*
X203929078Y-93421004D01*
X203929076Y-93421005D01*
X203781242Y-93500024D01*
X203620823Y-93548687D01*
X203495804Y-93561000D01*
X203412196Y-93561000D01*
X203287177Y-93548687D01*
X203126758Y-93500024D01*
X202978924Y-93421005D01*
X202978922Y-93421004D01*
X202849341Y-93314659D01*
X202742996Y-93185078D01*
X202715793Y-93134184D01*
X202663976Y-93037242D01*
X202615313Y-92876823D01*
X202598883Y-92710000D01*
X202615313Y-92543177D01*
X202663976Y-92382758D01*
X202742995Y-92234924D01*
X202742996Y-92234922D01*
X202849341Y-92105341D01*
X202978922Y-91998996D01*
X203085126Y-91942229D01*
X203126758Y-91919976D01*
X203287177Y-91871313D01*
X203412196Y-91859000D01*
X203495804Y-91859000D01*
X203620823Y-91871313D01*
X203620823Y-91871313D01*
G37*
G36*
X222244228Y-90875703D02*
G01*
X222399100Y-90939853D01*
X222538481Y-91032985D01*
X222657015Y-91151519D01*
X222750147Y-91290900D01*
X222814297Y-91445772D01*
X222847000Y-91610184D01*
X222847000Y-91777816D01*
X222814297Y-91942228D01*
X222750147Y-92097100D01*
X222657015Y-92236481D01*
X222538481Y-92355015D01*
X222399100Y-92448147D01*
X222244228Y-92512297D01*
X222079816Y-92545000D01*
X221912184Y-92545000D01*
X221747772Y-92512297D01*
X221592900Y-92448147D01*
X221453519Y-92355015D01*
X221334985Y-92236481D01*
X221241853Y-92097100D01*
X221177703Y-91942228D01*
X221145000Y-91777816D01*
X221145000Y-91610184D01*
X221177703Y-91445772D01*
X221241853Y-91290900D01*
X221334985Y-91151519D01*
X221453519Y-91032985D01*
X221592900Y-90939853D01*
X221747772Y-90875703D01*
X221912184Y-90843000D01*
X222079816Y-90843000D01*
X222244228Y-90875703D01*
X222244228Y-90875703D01*
G37*
G36*
X203620823Y-89331313D02*
G01*
X203781242Y-89379976D01*
X203913906Y-89450886D01*
X203929078Y-89458996D01*
X204058659Y-89565341D01*
X204165004Y-89694922D01*
X204165005Y-89694924D01*
X204244024Y-89842758D01*
X204292687Y-90003177D01*
X204309117Y-90170000D01*
X204292687Y-90336823D01*
X204244024Y-90497242D01*
X204198864Y-90581730D01*
X204165004Y-90645078D01*
X204058659Y-90774659D01*
X203929078Y-90881004D01*
X203929076Y-90881005D01*
X203781242Y-90960024D01*
X203620823Y-91008687D01*
X203495804Y-91021000D01*
X203412196Y-91021000D01*
X203287177Y-91008687D01*
X203126758Y-90960024D01*
X202978924Y-90881005D01*
X202978922Y-90881004D01*
X202849341Y-90774659D01*
X202742996Y-90645078D01*
X202709136Y-90581730D01*
X202663976Y-90497242D01*
X202615313Y-90336823D01*
X202598883Y-90170000D01*
X202615313Y-90003177D01*
X202663976Y-89842758D01*
X202742995Y-89694924D01*
X202742996Y-89694922D01*
X202849341Y-89565341D01*
X202978922Y-89458996D01*
X202994094Y-89450886D01*
X203126758Y-89379976D01*
X203287177Y-89331313D01*
X203412196Y-89319000D01*
X203495804Y-89319000D01*
X203620823Y-89331313D01*
X203620823Y-89331313D01*
G37*
G36*
X196000823Y-89331313D02*
G01*
X196161242Y-89379976D01*
X196293906Y-89450886D01*
X196309078Y-89458996D01*
X196438659Y-89565341D01*
X196545004Y-89694922D01*
X196545005Y-89694924D01*
X196624024Y-89842758D01*
X196672687Y-90003177D01*
X196689117Y-90170000D01*
X196672687Y-90336823D01*
X196624024Y-90497242D01*
X196578864Y-90581730D01*
X196545004Y-90645078D01*
X196438659Y-90774659D01*
X196309078Y-90881004D01*
X196309076Y-90881005D01*
X196161242Y-90960024D01*
X196000823Y-91008687D01*
X195875804Y-91021000D01*
X195792196Y-91021000D01*
X195667177Y-91008687D01*
X195506758Y-90960024D01*
X195358924Y-90881005D01*
X195358922Y-90881004D01*
X195229341Y-90774659D01*
X195122996Y-90645078D01*
X195089136Y-90581730D01*
X195043976Y-90497242D01*
X194995313Y-90336823D01*
X194978883Y-90170000D01*
X194995313Y-90003177D01*
X195043976Y-89842758D01*
X195122995Y-89694924D01*
X195122996Y-89694922D01*
X195229341Y-89565341D01*
X195358922Y-89458996D01*
X195374094Y-89450886D01*
X195506758Y-89379976D01*
X195667177Y-89331313D01*
X195792196Y-89319000D01*
X195875804Y-89319000D01*
X196000823Y-89331313D01*
X196000823Y-89331313D01*
G37*
G36*
X246683059Y-89503860D02*
G01*
X246819732Y-89560472D01*
X246942735Y-89642660D01*
X247047340Y-89747265D01*
X247129528Y-89870268D01*
X247186140Y-90006941D01*
X247215000Y-90152033D01*
X247215000Y-90299967D01*
X247186140Y-90445059D01*
X247129528Y-90581732D01*
X247047340Y-90704735D01*
X246942735Y-90809340D01*
X246819732Y-90891528D01*
X246819731Y-90891529D01*
X246819730Y-90891529D01*
X246683059Y-90948140D01*
X246537968Y-90977000D01*
X246390032Y-90977000D01*
X246244941Y-90948140D01*
X246108270Y-90891529D01*
X246108269Y-90891529D01*
X246108268Y-90891528D01*
X245985265Y-90809340D01*
X245880660Y-90704735D01*
X245798472Y-90581732D01*
X245741860Y-90445059D01*
X245713000Y-90299967D01*
X245713000Y-90152033D01*
X245741860Y-90006941D01*
X245798472Y-89870268D01*
X245880660Y-89747265D01*
X245985265Y-89642660D01*
X246108268Y-89560472D01*
X246244941Y-89503860D01*
X246390032Y-89475000D01*
X246537968Y-89475000D01*
X246683059Y-89503860D01*
X246683059Y-89503860D01*
G37*
G36*
X249883059Y-89503860D02*
G01*
X250019732Y-89560472D01*
X250142735Y-89642660D01*
X250247340Y-89747265D01*
X250329528Y-89870268D01*
X250386140Y-90006941D01*
X250415000Y-90152033D01*
X250415000Y-90299967D01*
X250386140Y-90445059D01*
X250329528Y-90581732D01*
X250247340Y-90704735D01*
X250142735Y-90809340D01*
X250019732Y-90891528D01*
X250019731Y-90891529D01*
X250019730Y-90891529D01*
X249883059Y-90948140D01*
X249737968Y-90977000D01*
X249590032Y-90977000D01*
X249444941Y-90948140D01*
X249308270Y-90891529D01*
X249308269Y-90891529D01*
X249308268Y-90891528D01*
X249185265Y-90809340D01*
X249080660Y-90704735D01*
X248998472Y-90581732D01*
X248941860Y-90445059D01*
X248913000Y-90299967D01*
X248913000Y-90152033D01*
X248941860Y-90006941D01*
X248998472Y-89870268D01*
X249080660Y-89747265D01*
X249185265Y-89642660D01*
X249308268Y-89560472D01*
X249444941Y-89503860D01*
X249590032Y-89475000D01*
X249737968Y-89475000D01*
X249883059Y-89503860D01*
X249883059Y-89503860D01*
G37*
G36*
X212777294Y-86982633D02*
G01*
X212949695Y-87034931D01*
X213108583Y-87119858D01*
X213247849Y-87234151D01*
X213362142Y-87373417D01*
X213447069Y-87532305D01*
X213499367Y-87704706D01*
X213517025Y-87884000D01*
X213499367Y-88063294D01*
X213447069Y-88235695D01*
X213362142Y-88394583D01*
X213247849Y-88533849D01*
X213108583Y-88648142D01*
X212949695Y-88733069D01*
X212777294Y-88785367D01*
X212642931Y-88798600D01*
X212553069Y-88798600D01*
X212418706Y-88785367D01*
X212246305Y-88733069D01*
X212087417Y-88648142D01*
X211948151Y-88533849D01*
X211833858Y-88394583D01*
X211748931Y-88235695D01*
X211696633Y-88063294D01*
X211678975Y-87884000D01*
X211696633Y-87704706D01*
X211748931Y-87532305D01*
X211833858Y-87373417D01*
X211948151Y-87234151D01*
X212087417Y-87119858D01*
X212246305Y-87034931D01*
X212418706Y-86982633D01*
X212553069Y-86969400D01*
X212642931Y-86969400D01*
X212777294Y-86982633D01*
X212777294Y-86982633D01*
G37*
G36*
X215317294Y-86982633D02*
G01*
X215489695Y-87034931D01*
X215648583Y-87119858D01*
X215787849Y-87234151D01*
X215902142Y-87373417D01*
X215987069Y-87532305D01*
X216039367Y-87704706D01*
X216057025Y-87884000D01*
X216039367Y-88063294D01*
X215987069Y-88235695D01*
X215902142Y-88394583D01*
X215787849Y-88533849D01*
X215648583Y-88648142D01*
X215489695Y-88733069D01*
X215317294Y-88785367D01*
X215182931Y-88798600D01*
X215093069Y-88798600D01*
X214958706Y-88785367D01*
X214786305Y-88733069D01*
X214627417Y-88648142D01*
X214488151Y-88533849D01*
X214373858Y-88394583D01*
X214288931Y-88235695D01*
X214236633Y-88063294D01*
X214218975Y-87884000D01*
X214236633Y-87704706D01*
X214288931Y-87532305D01*
X214373858Y-87373417D01*
X214488151Y-87234151D01*
X214627417Y-87119858D01*
X214786305Y-87034931D01*
X214958706Y-86982633D01*
X215093069Y-86969400D01*
X215182931Y-86969400D01*
X215317294Y-86982633D01*
X215317294Y-86982633D01*
G37*
G36*
X203620823Y-86791313D02*
G01*
X203781242Y-86839976D01*
X203913906Y-86910886D01*
X203929078Y-86918996D01*
X204058659Y-87025341D01*
X204165004Y-87154922D01*
X204165005Y-87154924D01*
X204244024Y-87302758D01*
X204292687Y-87463177D01*
X204309117Y-87630000D01*
X204292687Y-87796823D01*
X204244024Y-87957242D01*
X204187338Y-88063294D01*
X204165004Y-88105078D01*
X204058659Y-88234659D01*
X203929078Y-88341004D01*
X203929076Y-88341005D01*
X203781242Y-88420024D01*
X203620823Y-88468687D01*
X203495804Y-88481000D01*
X203412196Y-88481000D01*
X203287177Y-88468687D01*
X203126758Y-88420024D01*
X202978924Y-88341005D01*
X202978922Y-88341004D01*
X202849341Y-88234659D01*
X202742996Y-88105078D01*
X202720662Y-88063294D01*
X202663976Y-87957242D01*
X202615313Y-87796823D01*
X202598883Y-87630000D01*
X202615313Y-87463177D01*
X202663976Y-87302758D01*
X202742995Y-87154924D01*
X202742996Y-87154922D01*
X202849341Y-87025341D01*
X202978922Y-86918996D01*
X202994094Y-86910886D01*
X203126758Y-86839976D01*
X203287177Y-86791313D01*
X203412196Y-86779000D01*
X203495804Y-86779000D01*
X203620823Y-86791313D01*
X203620823Y-86791313D01*
G37*
G36*
X196000823Y-86791313D02*
G01*
X196161242Y-86839976D01*
X196293906Y-86910886D01*
X196309078Y-86918996D01*
X196438659Y-87025341D01*
X196545004Y-87154922D01*
X196545005Y-87154924D01*
X196624024Y-87302758D01*
X196672687Y-87463177D01*
X196689117Y-87630000D01*
X196672687Y-87796823D01*
X196624024Y-87957242D01*
X196567338Y-88063294D01*
X196545004Y-88105078D01*
X196438659Y-88234659D01*
X196309078Y-88341004D01*
X196309076Y-88341005D01*
X196161242Y-88420024D01*
X196000823Y-88468687D01*
X195875804Y-88481000D01*
X195792196Y-88481000D01*
X195667177Y-88468687D01*
X195506758Y-88420024D01*
X195358924Y-88341005D01*
X195358922Y-88341004D01*
X195229341Y-88234659D01*
X195122996Y-88105078D01*
X195100662Y-88063294D01*
X195043976Y-87957242D01*
X194995313Y-87796823D01*
X194978883Y-87630000D01*
X194995313Y-87463177D01*
X195043976Y-87302758D01*
X195122995Y-87154924D01*
X195122996Y-87154922D01*
X195229341Y-87025341D01*
X195358922Y-86918996D01*
X195374094Y-86910886D01*
X195506758Y-86839976D01*
X195667177Y-86791313D01*
X195792196Y-86779000D01*
X195875804Y-86779000D01*
X196000823Y-86791313D01*
X196000823Y-86791313D01*
G37*
G36*
X247215000Y-88477000D02*
G01*
X245713000Y-88477000D01*
X245713000Y-86975000D01*
X247215000Y-86975000D01*
X247215000Y-88477000D01*
X247215000Y-88477000D01*
G37*
G36*
X249883059Y-87003860D02*
G01*
X250019732Y-87060472D01*
X250142735Y-87142660D01*
X250247340Y-87247265D01*
X250247341Y-87247267D01*
X250329529Y-87370270D01*
X250386140Y-87506941D01*
X250410618Y-87630000D01*
X250415000Y-87652033D01*
X250415000Y-87799967D01*
X250386140Y-87945059D01*
X250329528Y-88081732D01*
X250247340Y-88204735D01*
X250142735Y-88309340D01*
X250019732Y-88391528D01*
X250019731Y-88391529D01*
X250019730Y-88391529D01*
X249883059Y-88448140D01*
X249737968Y-88477000D01*
X249590032Y-88477000D01*
X249444941Y-88448140D01*
X249308270Y-88391529D01*
X249308269Y-88391529D01*
X249308268Y-88391528D01*
X249185265Y-88309340D01*
X249080660Y-88204735D01*
X248998472Y-88081732D01*
X248941860Y-87945059D01*
X248913000Y-87799967D01*
X248913000Y-87652033D01*
X248917383Y-87630000D01*
X248941860Y-87506941D01*
X248998471Y-87370270D01*
X249080659Y-87247267D01*
X249080660Y-87247265D01*
X249185265Y-87142660D01*
X249308268Y-87060472D01*
X249444941Y-87003860D01*
X249590032Y-86975000D01*
X249737968Y-86975000D01*
X249883059Y-87003860D01*
X249883059Y-87003860D01*
G37*
G36*
X232068823Y-86029313D02*
G01*
X232229242Y-86077976D01*
X232361906Y-86148886D01*
X232377078Y-86156996D01*
X232506659Y-86263341D01*
X232613004Y-86392922D01*
X232613005Y-86392924D01*
X232692024Y-86540758D01*
X232740687Y-86701177D01*
X232757117Y-86868000D01*
X232740687Y-87034823D01*
X232692024Y-87195242D01*
X232664217Y-87247265D01*
X232613004Y-87343078D01*
X232506659Y-87472659D01*
X232377078Y-87579004D01*
X232377076Y-87579005D01*
X232229242Y-87658024D01*
X232068823Y-87706687D01*
X231943804Y-87719000D01*
X231860196Y-87719000D01*
X231735177Y-87706687D01*
X231574758Y-87658024D01*
X231426924Y-87579005D01*
X231426922Y-87579004D01*
X231297341Y-87472659D01*
X231190996Y-87343078D01*
X231139783Y-87247265D01*
X231111976Y-87195242D01*
X231063313Y-87034823D01*
X231046883Y-86868000D01*
X231063313Y-86701177D01*
X231111976Y-86540758D01*
X231190995Y-86392924D01*
X231190996Y-86392922D01*
X231297341Y-86263341D01*
X231426922Y-86156996D01*
X231442094Y-86148886D01*
X231574758Y-86077976D01*
X231735177Y-86029313D01*
X231860196Y-86017000D01*
X231943804Y-86017000D01*
X232068823Y-86029313D01*
X232068823Y-86029313D01*
G37*
G36*
X240373000Y-87719000D02*
G01*
X238671000Y-87719000D01*
X238671000Y-86017000D01*
X240373000Y-86017000D01*
X240373000Y-87719000D01*
X240373000Y-87719000D01*
G37*
G36*
X212777294Y-84442633D02*
G01*
X212949695Y-84494931D01*
X213108583Y-84579858D01*
X213247849Y-84694151D01*
X213362142Y-84833417D01*
X213447069Y-84992305D01*
X213499367Y-85164706D01*
X213517025Y-85344000D01*
X213499367Y-85523294D01*
X213447069Y-85695695D01*
X213362142Y-85854583D01*
X213247849Y-85993849D01*
X213108583Y-86108142D01*
X212949695Y-86193069D01*
X212777294Y-86245367D01*
X212642931Y-86258600D01*
X212553069Y-86258600D01*
X212418706Y-86245367D01*
X212246305Y-86193069D01*
X212087417Y-86108142D01*
X211948151Y-85993849D01*
X211833858Y-85854583D01*
X211748931Y-85695695D01*
X211696633Y-85523294D01*
X211678975Y-85344000D01*
X211696633Y-85164706D01*
X211748931Y-84992305D01*
X211833858Y-84833417D01*
X211948151Y-84694151D01*
X212087417Y-84579858D01*
X212246305Y-84494931D01*
X212418706Y-84442633D01*
X212553069Y-84429400D01*
X212642931Y-84429400D01*
X212777294Y-84442633D01*
X212777294Y-84442633D01*
G37*
G36*
X215317294Y-84442633D02*
G01*
X215489695Y-84494931D01*
X215648583Y-84579858D01*
X215787849Y-84694151D01*
X215902142Y-84833417D01*
X215987069Y-84992305D01*
X216039367Y-85164706D01*
X216057025Y-85344000D01*
X216039367Y-85523294D01*
X215987069Y-85695695D01*
X215902142Y-85854583D01*
X215787849Y-85993849D01*
X215648583Y-86108142D01*
X215489695Y-86193069D01*
X215317294Y-86245367D01*
X215182931Y-86258600D01*
X215093069Y-86258600D01*
X214958706Y-86245367D01*
X214786305Y-86193069D01*
X214627417Y-86108142D01*
X214488151Y-85993849D01*
X214373858Y-85854583D01*
X214288931Y-85695695D01*
X214236633Y-85523294D01*
X214218975Y-85344000D01*
X214236633Y-85164706D01*
X214288931Y-84992305D01*
X214373858Y-84833417D01*
X214488151Y-84694151D01*
X214627417Y-84579858D01*
X214786305Y-84494931D01*
X214958706Y-84442633D01*
X215093069Y-84429400D01*
X215182931Y-84429400D01*
X215317294Y-84442633D01*
X215317294Y-84442633D01*
G37*
G36*
X203620823Y-84251313D02*
G01*
X203781242Y-84299976D01*
X203913906Y-84370886D01*
X203929078Y-84378996D01*
X204058659Y-84485341D01*
X204165004Y-84614922D01*
X204165005Y-84614924D01*
X204244024Y-84762758D01*
X204292687Y-84923177D01*
X204309117Y-85090000D01*
X204292687Y-85256823D01*
X204244024Y-85417242D01*
X204187338Y-85523294D01*
X204165004Y-85565078D01*
X204058659Y-85694659D01*
X203929078Y-85801004D01*
X203929076Y-85801005D01*
X203781242Y-85880024D01*
X203620823Y-85928687D01*
X203495804Y-85941000D01*
X203412196Y-85941000D01*
X203287177Y-85928687D01*
X203126758Y-85880024D01*
X202978924Y-85801005D01*
X202978922Y-85801004D01*
X202849341Y-85694659D01*
X202742996Y-85565078D01*
X202720662Y-85523294D01*
X202663976Y-85417242D01*
X202615313Y-85256823D01*
X202598883Y-85090000D01*
X202615313Y-84923177D01*
X202663976Y-84762758D01*
X202742995Y-84614924D01*
X202742996Y-84614922D01*
X202849341Y-84485341D01*
X202978922Y-84378996D01*
X202994094Y-84370886D01*
X203126758Y-84299976D01*
X203287177Y-84251313D01*
X203412196Y-84239000D01*
X203495804Y-84239000D01*
X203620823Y-84251313D01*
X203620823Y-84251313D01*
G37*
G36*
X196000823Y-84251313D02*
G01*
X196161242Y-84299976D01*
X196293906Y-84370886D01*
X196309078Y-84378996D01*
X196438659Y-84485341D01*
X196545004Y-84614922D01*
X196545005Y-84614924D01*
X196624024Y-84762758D01*
X196672687Y-84923177D01*
X196689117Y-85090000D01*
X196672687Y-85256823D01*
X196624024Y-85417242D01*
X196567338Y-85523294D01*
X196545004Y-85565078D01*
X196438659Y-85694659D01*
X196309078Y-85801004D01*
X196309076Y-85801005D01*
X196161242Y-85880024D01*
X196000823Y-85928687D01*
X195875804Y-85941000D01*
X195792196Y-85941000D01*
X195667177Y-85928687D01*
X195506758Y-85880024D01*
X195358924Y-85801005D01*
X195358922Y-85801004D01*
X195229341Y-85694659D01*
X195122996Y-85565078D01*
X195100662Y-85523294D01*
X195043976Y-85417242D01*
X194995313Y-85256823D01*
X194978883Y-85090000D01*
X194995313Y-84923177D01*
X195043976Y-84762758D01*
X195122995Y-84614924D01*
X195122996Y-84614922D01*
X195229341Y-84485341D01*
X195358922Y-84378996D01*
X195374094Y-84370886D01*
X195506758Y-84299976D01*
X195667177Y-84251313D01*
X195792196Y-84239000D01*
X195875804Y-84239000D01*
X196000823Y-84251313D01*
X196000823Y-84251313D01*
G37*
G36*
X181176228Y-83001703D02*
G01*
X181331100Y-83065853D01*
X181470481Y-83158985D01*
X181589015Y-83277519D01*
X181682147Y-83416900D01*
X181746297Y-83571772D01*
X181779000Y-83736184D01*
X181779000Y-83903816D01*
X181746297Y-84068228D01*
X181682147Y-84223100D01*
X181589015Y-84362481D01*
X181470481Y-84481015D01*
X181331100Y-84574147D01*
X181176228Y-84638297D01*
X181011816Y-84671000D01*
X180844184Y-84671000D01*
X180679772Y-84638297D01*
X180524900Y-84574147D01*
X180385519Y-84481015D01*
X180266985Y-84362481D01*
X180173853Y-84223100D01*
X180109703Y-84068228D01*
X180077000Y-83903816D01*
X180077000Y-83736184D01*
X180109703Y-83571772D01*
X180173853Y-83416900D01*
X180266985Y-83277519D01*
X180385519Y-83158985D01*
X180524900Y-83065853D01*
X180679772Y-83001703D01*
X180844184Y-82969000D01*
X181011816Y-82969000D01*
X181176228Y-83001703D01*
X181176228Y-83001703D01*
G37*
G36*
X186176228Y-83001703D02*
G01*
X186331100Y-83065853D01*
X186470481Y-83158985D01*
X186589015Y-83277519D01*
X186682147Y-83416900D01*
X186746297Y-83571772D01*
X186779000Y-83736184D01*
X186779000Y-83903816D01*
X186746297Y-84068228D01*
X186682147Y-84223100D01*
X186589015Y-84362481D01*
X186470481Y-84481015D01*
X186331100Y-84574147D01*
X186176228Y-84638297D01*
X186011816Y-84671000D01*
X185844184Y-84671000D01*
X185679772Y-84638297D01*
X185524900Y-84574147D01*
X185385519Y-84481015D01*
X185266985Y-84362481D01*
X185173853Y-84223100D01*
X185109703Y-84068228D01*
X185077000Y-83903816D01*
X185077000Y-83736184D01*
X185109703Y-83571772D01*
X185173853Y-83416900D01*
X185266985Y-83277519D01*
X185385519Y-83158985D01*
X185524900Y-83065853D01*
X185679772Y-83001703D01*
X185844184Y-82969000D01*
X186011816Y-82969000D01*
X186176228Y-83001703D01*
X186176228Y-83001703D01*
G37*
G36*
X249476585Y-81434802D02*
G01*
X249626410Y-81464604D01*
X249908674Y-81581521D01*
X250162705Y-81751259D01*
X250378741Y-81967295D01*
X250548479Y-82221326D01*
X250665396Y-82503590D01*
X250725000Y-82803240D01*
X250725000Y-83108760D01*
X250665396Y-83408410D01*
X250548479Y-83690674D01*
X250378741Y-83944705D01*
X250162705Y-84160741D01*
X249908674Y-84330479D01*
X249626410Y-84447396D01*
X249476585Y-84477198D01*
X249326761Y-84507000D01*
X249021239Y-84507000D01*
X248871415Y-84477198D01*
X248721590Y-84447396D01*
X248439326Y-84330479D01*
X248185295Y-84160741D01*
X247969259Y-83944705D01*
X247799521Y-83690674D01*
X247682604Y-83408410D01*
X247623000Y-83108760D01*
X247623000Y-82803240D01*
X247682604Y-82503590D01*
X247799521Y-82221326D01*
X247969259Y-81967295D01*
X248185295Y-81751259D01*
X248439326Y-81581521D01*
X248721590Y-81464604D01*
X248871415Y-81434802D01*
X249021239Y-81405000D01*
X249326761Y-81405000D01*
X249476585Y-81434802D01*
X249476585Y-81434802D01*
G37*
G36*
X224207294Y-81902633D02*
G01*
X224379695Y-81954931D01*
X224538583Y-82039858D01*
X224677849Y-82154151D01*
X224792142Y-82293417D01*
X224877069Y-82452305D01*
X224929367Y-82624706D01*
X224947025Y-82804000D01*
X224929367Y-82983294D01*
X224877069Y-83155695D01*
X224792142Y-83314583D01*
X224677849Y-83453849D01*
X224538583Y-83568142D01*
X224379695Y-83653069D01*
X224207294Y-83705367D01*
X224072931Y-83718600D01*
X223983069Y-83718600D01*
X223848706Y-83705367D01*
X223676305Y-83653069D01*
X223517417Y-83568142D01*
X223378151Y-83453849D01*
X223263858Y-83314583D01*
X223178931Y-83155695D01*
X223126633Y-82983294D01*
X223108975Y-82804000D01*
X223126633Y-82624706D01*
X223178931Y-82452305D01*
X223263858Y-82293417D01*
X223378151Y-82154151D01*
X223517417Y-82039858D01*
X223676305Y-81954931D01*
X223848706Y-81902633D01*
X223983069Y-81889400D01*
X224072931Y-81889400D01*
X224207294Y-81902633D01*
X224207294Y-81902633D01*
G37*
G36*
X226747294Y-81902633D02*
G01*
X226919695Y-81954931D01*
X227078583Y-82039858D01*
X227217849Y-82154151D01*
X227332142Y-82293417D01*
X227417069Y-82452305D01*
X227469367Y-82624706D01*
X227487025Y-82804000D01*
X227469367Y-82983294D01*
X227417069Y-83155695D01*
X227332142Y-83314583D01*
X227217849Y-83453849D01*
X227078583Y-83568142D01*
X226919695Y-83653069D01*
X226747294Y-83705367D01*
X226612931Y-83718600D01*
X226523069Y-83718600D01*
X226388706Y-83705367D01*
X226216305Y-83653069D01*
X226057417Y-83568142D01*
X225918151Y-83453849D01*
X225803858Y-83314583D01*
X225718931Y-83155695D01*
X225666633Y-82983294D01*
X225648975Y-82804000D01*
X225666633Y-82624706D01*
X225718931Y-82452305D01*
X225803858Y-82293417D01*
X225918151Y-82154151D01*
X226057417Y-82039858D01*
X226216305Y-81954931D01*
X226388706Y-81902633D01*
X226523069Y-81889400D01*
X226612931Y-81889400D01*
X226747294Y-81902633D01*
X226747294Y-81902633D01*
G37*
G36*
X212777294Y-81902633D02*
G01*
X212949695Y-81954931D01*
X213108583Y-82039858D01*
X213247849Y-82154151D01*
X213362142Y-82293417D01*
X213447069Y-82452305D01*
X213499367Y-82624706D01*
X213517025Y-82804000D01*
X213499367Y-82983294D01*
X213447069Y-83155695D01*
X213362142Y-83314583D01*
X213247849Y-83453849D01*
X213108583Y-83568142D01*
X212949695Y-83653069D01*
X212777294Y-83705367D01*
X212642931Y-83718600D01*
X212553069Y-83718600D01*
X212418706Y-83705367D01*
X212246305Y-83653069D01*
X212087417Y-83568142D01*
X211948151Y-83453849D01*
X211833858Y-83314583D01*
X211748931Y-83155695D01*
X211696633Y-82983294D01*
X211678975Y-82804000D01*
X211696633Y-82624706D01*
X211748931Y-82452305D01*
X211833858Y-82293417D01*
X211948151Y-82154151D01*
X212087417Y-82039858D01*
X212246305Y-81954931D01*
X212418706Y-81902633D01*
X212553069Y-81889400D01*
X212642931Y-81889400D01*
X212777294Y-81902633D01*
X212777294Y-81902633D01*
G37*
G36*
X215317294Y-81902633D02*
G01*
X215489695Y-81954931D01*
X215648583Y-82039858D01*
X215787849Y-82154151D01*
X215902142Y-82293417D01*
X215987069Y-82452305D01*
X216039367Y-82624706D01*
X216057025Y-82804000D01*
X216039367Y-82983294D01*
X215987069Y-83155695D01*
X215902142Y-83314583D01*
X215787849Y-83453849D01*
X215648583Y-83568142D01*
X215489695Y-83653069D01*
X215317294Y-83705367D01*
X215182931Y-83718600D01*
X215093069Y-83718600D01*
X214958706Y-83705367D01*
X214786305Y-83653069D01*
X214627417Y-83568142D01*
X214488151Y-83453849D01*
X214373858Y-83314583D01*
X214288931Y-83155695D01*
X214236633Y-82983294D01*
X214218975Y-82804000D01*
X214236633Y-82624706D01*
X214288931Y-82452305D01*
X214373858Y-82293417D01*
X214488151Y-82154151D01*
X214627417Y-82039858D01*
X214786305Y-81954931D01*
X214958706Y-81902633D01*
X215093069Y-81889400D01*
X215182931Y-81889400D01*
X215317294Y-81902633D01*
X215317294Y-81902633D01*
G37*
G36*
X240373000Y-83655000D02*
G01*
X238671000Y-83655000D01*
X238671000Y-81953000D01*
X240373000Y-81953000D01*
X240373000Y-83655000D01*
X240373000Y-83655000D01*
G37*
G36*
X232068823Y-81965313D02*
G01*
X232229242Y-82013976D01*
X232361906Y-82084886D01*
X232377078Y-82092996D01*
X232506659Y-82199341D01*
X232613004Y-82328922D01*
X232613005Y-82328924D01*
X232692024Y-82476758D01*
X232740687Y-82637177D01*
X232757117Y-82804000D01*
X232740687Y-82970823D01*
X232692024Y-83131242D01*
X232678953Y-83155696D01*
X232613004Y-83279078D01*
X232506659Y-83408659D01*
X232377078Y-83515004D01*
X232377076Y-83515005D01*
X232229242Y-83594024D01*
X232068823Y-83642687D01*
X231943804Y-83655000D01*
X231860196Y-83655000D01*
X231735177Y-83642687D01*
X231574758Y-83594024D01*
X231426924Y-83515005D01*
X231426922Y-83515004D01*
X231297341Y-83408659D01*
X231190996Y-83279078D01*
X231125047Y-83155696D01*
X231111976Y-83131242D01*
X231063313Y-82970823D01*
X231046883Y-82804000D01*
X231063313Y-82637177D01*
X231111976Y-82476758D01*
X231190995Y-82328924D01*
X231190996Y-82328922D01*
X231297341Y-82199341D01*
X231426922Y-82092996D01*
X231442094Y-82084886D01*
X231574758Y-82013976D01*
X231735177Y-81965313D01*
X231860196Y-81953000D01*
X231943804Y-81953000D01*
X232068823Y-81965313D01*
X232068823Y-81965313D01*
G37*
G36*
X196000823Y-81711313D02*
G01*
X196161242Y-81759976D01*
X196293906Y-81830886D01*
X196309078Y-81838996D01*
X196438659Y-81945341D01*
X196545004Y-82074922D01*
X196545005Y-82074924D01*
X196624024Y-82222758D01*
X196672687Y-82383177D01*
X196689117Y-82550000D01*
X196672687Y-82716823D01*
X196624024Y-82877242D01*
X196567338Y-82983294D01*
X196545004Y-83025078D01*
X196438659Y-83154659D01*
X196309078Y-83261004D01*
X196309076Y-83261005D01*
X196161242Y-83340024D01*
X196000823Y-83388687D01*
X195875804Y-83401000D01*
X195792196Y-83401000D01*
X195667177Y-83388687D01*
X195506758Y-83340024D01*
X195358924Y-83261005D01*
X195358922Y-83261004D01*
X195229341Y-83154659D01*
X195122996Y-83025078D01*
X195100662Y-82983294D01*
X195043976Y-82877242D01*
X194995313Y-82716823D01*
X194978883Y-82550000D01*
X194995313Y-82383177D01*
X195043976Y-82222758D01*
X195122995Y-82074924D01*
X195122996Y-82074922D01*
X195229341Y-81945341D01*
X195358922Y-81838996D01*
X195374094Y-81830886D01*
X195506758Y-81759976D01*
X195667177Y-81711313D01*
X195792196Y-81699000D01*
X195875804Y-81699000D01*
X196000823Y-81711313D01*
X196000823Y-81711313D01*
G37*
G36*
X203620823Y-81711313D02*
G01*
X203781242Y-81759976D01*
X203913906Y-81830886D01*
X203929078Y-81838996D01*
X204058659Y-81945341D01*
X204165004Y-82074922D01*
X204165005Y-82074924D01*
X204244024Y-82222758D01*
X204292687Y-82383177D01*
X204309117Y-82550000D01*
X204292687Y-82716823D01*
X204244024Y-82877242D01*
X204187338Y-82983294D01*
X204165004Y-83025078D01*
X204058659Y-83154659D01*
X203929078Y-83261004D01*
X203929076Y-83261005D01*
X203781242Y-83340024D01*
X203620823Y-83388687D01*
X203495804Y-83401000D01*
X203412196Y-83401000D01*
X203287177Y-83388687D01*
X203126758Y-83340024D01*
X202978924Y-83261005D01*
X202978922Y-83261004D01*
X202849341Y-83154659D01*
X202742996Y-83025078D01*
X202720662Y-82983294D01*
X202663976Y-82877242D01*
X202615313Y-82716823D01*
X202598883Y-82550000D01*
X202615313Y-82383177D01*
X202663976Y-82222758D01*
X202742995Y-82074924D01*
X202742996Y-82074922D01*
X202849341Y-81945341D01*
X202978922Y-81838996D01*
X202994094Y-81830886D01*
X203126758Y-81759976D01*
X203287177Y-81711313D01*
X203412196Y-81699000D01*
X203495804Y-81699000D01*
X203620823Y-81711313D01*
X203620823Y-81711313D01*
G37*
G36*
X224207294Y-79362633D02*
G01*
X224379695Y-79414931D01*
X224538583Y-79499858D01*
X224677849Y-79614151D01*
X224792142Y-79753417D01*
X224877069Y-79912305D01*
X224929367Y-80084706D01*
X224947025Y-80264000D01*
X224929367Y-80443294D01*
X224877069Y-80615695D01*
X224792142Y-80774583D01*
X224677849Y-80913849D01*
X224538583Y-81028142D01*
X224379695Y-81113069D01*
X224207294Y-81165367D01*
X224072931Y-81178600D01*
X223983069Y-81178600D01*
X223848706Y-81165367D01*
X223676305Y-81113069D01*
X223517417Y-81028142D01*
X223378151Y-80913849D01*
X223263858Y-80774583D01*
X223178931Y-80615695D01*
X223126633Y-80443294D01*
X223108975Y-80264000D01*
X223126633Y-80084706D01*
X223178931Y-79912305D01*
X223263858Y-79753417D01*
X223378151Y-79614151D01*
X223517417Y-79499858D01*
X223676305Y-79414931D01*
X223848706Y-79362633D01*
X223983069Y-79349400D01*
X224072931Y-79349400D01*
X224207294Y-79362633D01*
X224207294Y-79362633D01*
G37*
G36*
X226747294Y-79362633D02*
G01*
X226919695Y-79414931D01*
X227078583Y-79499858D01*
X227217849Y-79614151D01*
X227332142Y-79753417D01*
X227417069Y-79912305D01*
X227469367Y-80084706D01*
X227487025Y-80264000D01*
X227469367Y-80443294D01*
X227417069Y-80615695D01*
X227332142Y-80774583D01*
X227217849Y-80913849D01*
X227078583Y-81028142D01*
X226919695Y-81113069D01*
X226747294Y-81165367D01*
X226612931Y-81178600D01*
X226523069Y-81178600D01*
X226388706Y-81165367D01*
X226216305Y-81113069D01*
X226057417Y-81028142D01*
X225918151Y-80913849D01*
X225803858Y-80774583D01*
X225718931Y-80615695D01*
X225666633Y-80443294D01*
X225648975Y-80264000D01*
X225666633Y-80084706D01*
X225718931Y-79912305D01*
X225803858Y-79753417D01*
X225918151Y-79614151D01*
X226057417Y-79499858D01*
X226216305Y-79414931D01*
X226388706Y-79362633D01*
X226523069Y-79349400D01*
X226612931Y-79349400D01*
X226747294Y-79362633D01*
X226747294Y-79362633D01*
G37*
G36*
X212777294Y-79362633D02*
G01*
X212949695Y-79414931D01*
X213108583Y-79499858D01*
X213247849Y-79614151D01*
X213362142Y-79753417D01*
X213447069Y-79912305D01*
X213499367Y-80084706D01*
X213517025Y-80264000D01*
X213499367Y-80443294D01*
X213447069Y-80615695D01*
X213362142Y-80774583D01*
X213247849Y-80913849D01*
X213108583Y-81028142D01*
X212949695Y-81113069D01*
X212777294Y-81165367D01*
X212642931Y-81178600D01*
X212553069Y-81178600D01*
X212418706Y-81165367D01*
X212246305Y-81113069D01*
X212087417Y-81028142D01*
X211948151Y-80913849D01*
X211833858Y-80774583D01*
X211748931Y-80615695D01*
X211696633Y-80443294D01*
X211678975Y-80264000D01*
X211696633Y-80084706D01*
X211748931Y-79912305D01*
X211833858Y-79753417D01*
X211948151Y-79614151D01*
X212087417Y-79499858D01*
X212246305Y-79414931D01*
X212418706Y-79362633D01*
X212553069Y-79349400D01*
X212642931Y-79349400D01*
X212777294Y-79362633D01*
X212777294Y-79362633D01*
G37*
G36*
X215317294Y-79362633D02*
G01*
X215489695Y-79414931D01*
X215648583Y-79499858D01*
X215787849Y-79614151D01*
X215902142Y-79753417D01*
X215987069Y-79912305D01*
X216039367Y-80084706D01*
X216057025Y-80264000D01*
X216039367Y-80443294D01*
X215987069Y-80615695D01*
X215902142Y-80774583D01*
X215787849Y-80913849D01*
X215648583Y-81028142D01*
X215489695Y-81113069D01*
X215317294Y-81165367D01*
X215182931Y-81178600D01*
X215093069Y-81178600D01*
X214958706Y-81165367D01*
X214786305Y-81113069D01*
X214627417Y-81028142D01*
X214488151Y-80913849D01*
X214373858Y-80774583D01*
X214288931Y-80615695D01*
X214236633Y-80443294D01*
X214218975Y-80264000D01*
X214236633Y-80084706D01*
X214288931Y-79912305D01*
X214373858Y-79753417D01*
X214488151Y-79614151D01*
X214627417Y-79499858D01*
X214786305Y-79414931D01*
X214958706Y-79362633D01*
X215093069Y-79349400D01*
X215182931Y-79349400D01*
X215317294Y-79362633D01*
X215317294Y-79362633D01*
G37*
G36*
X196000823Y-79171313D02*
G01*
X196161242Y-79219976D01*
X196293906Y-79290886D01*
X196309078Y-79298996D01*
X196438659Y-79405341D01*
X196545004Y-79534922D01*
X196545005Y-79534924D01*
X196624024Y-79682758D01*
X196672687Y-79843177D01*
X196689117Y-80010000D01*
X196672687Y-80176823D01*
X196624024Y-80337242D01*
X196567338Y-80443294D01*
X196545004Y-80485078D01*
X196438659Y-80614659D01*
X196309078Y-80721004D01*
X196309076Y-80721005D01*
X196161242Y-80800024D01*
X196000823Y-80848687D01*
X195875804Y-80861000D01*
X195792196Y-80861000D01*
X195667177Y-80848687D01*
X195506758Y-80800024D01*
X195358924Y-80721005D01*
X195358922Y-80721004D01*
X195229341Y-80614659D01*
X195122996Y-80485078D01*
X195100662Y-80443294D01*
X195043976Y-80337242D01*
X194995313Y-80176823D01*
X194978883Y-80010000D01*
X194995313Y-79843177D01*
X195043976Y-79682758D01*
X195122995Y-79534924D01*
X195122996Y-79534922D01*
X195229341Y-79405341D01*
X195358922Y-79298996D01*
X195374094Y-79290886D01*
X195506758Y-79219976D01*
X195667177Y-79171313D01*
X195792196Y-79159000D01*
X195875804Y-79159000D01*
X196000823Y-79171313D01*
X196000823Y-79171313D01*
G37*
G36*
X203620823Y-79171313D02*
G01*
X203781242Y-79219976D01*
X203913906Y-79290886D01*
X203929078Y-79298996D01*
X204058659Y-79405341D01*
X204165004Y-79534922D01*
X204165005Y-79534924D01*
X204244024Y-79682758D01*
X204292687Y-79843177D01*
X204309117Y-80010000D01*
X204292687Y-80176823D01*
X204244024Y-80337242D01*
X204187338Y-80443294D01*
X204165004Y-80485078D01*
X204058659Y-80614659D01*
X203929078Y-80721004D01*
X203929076Y-80721005D01*
X203781242Y-80800024D01*
X203620823Y-80848687D01*
X203495804Y-80861000D01*
X203412196Y-80861000D01*
X203287177Y-80848687D01*
X203126758Y-80800024D01*
X202978924Y-80721005D01*
X202978922Y-80721004D01*
X202849341Y-80614659D01*
X202742996Y-80485078D01*
X202720662Y-80443294D01*
X202663976Y-80337242D01*
X202615313Y-80176823D01*
X202598883Y-80010000D01*
X202615313Y-79843177D01*
X202663976Y-79682758D01*
X202742995Y-79534924D01*
X202742996Y-79534922D01*
X202849341Y-79405341D01*
X202978922Y-79298996D01*
X202994094Y-79290886D01*
X203126758Y-79219976D01*
X203287177Y-79171313D01*
X203412196Y-79159000D01*
X203495804Y-79159000D01*
X203620823Y-79171313D01*
X203620823Y-79171313D01*
G37*
G36*
X213512600Y-78638600D02*
G01*
X211683400Y-78638600D01*
X211683400Y-76809400D01*
X213512600Y-76809400D01*
X213512600Y-78638600D01*
X213512600Y-78638600D01*
G37*
G36*
X226747294Y-76822633D02*
G01*
X226919695Y-76874931D01*
X227078583Y-76959858D01*
X227217849Y-77074151D01*
X227332142Y-77213417D01*
X227417069Y-77372305D01*
X227469367Y-77544706D01*
X227487025Y-77724000D01*
X227469367Y-77903294D01*
X227417069Y-78075695D01*
X227332142Y-78234583D01*
X227217849Y-78373849D01*
X227078583Y-78488142D01*
X226919695Y-78573069D01*
X226747294Y-78625367D01*
X226612931Y-78638600D01*
X226523069Y-78638600D01*
X226388706Y-78625367D01*
X226216305Y-78573069D01*
X226057417Y-78488142D01*
X225918151Y-78373849D01*
X225803858Y-78234583D01*
X225718931Y-78075695D01*
X225666633Y-77903294D01*
X225648975Y-77724000D01*
X225666633Y-77544706D01*
X225718931Y-77372305D01*
X225803858Y-77213417D01*
X225918151Y-77074151D01*
X226057417Y-76959858D01*
X226216305Y-76874931D01*
X226388706Y-76822633D01*
X226523069Y-76809400D01*
X226612931Y-76809400D01*
X226747294Y-76822633D01*
X226747294Y-76822633D01*
G37*
G36*
X224942600Y-78638600D02*
G01*
X223113400Y-78638600D01*
X223113400Y-76809400D01*
X224942600Y-76809400D01*
X224942600Y-78638600D01*
X224942600Y-78638600D01*
G37*
G36*
X215317294Y-76822633D02*
G01*
X215489695Y-76874931D01*
X215648583Y-76959858D01*
X215787849Y-77074151D01*
X215902142Y-77213417D01*
X215987069Y-77372305D01*
X216039367Y-77544706D01*
X216057025Y-77724000D01*
X216039367Y-77903294D01*
X215987069Y-78075695D01*
X215902142Y-78234583D01*
X215787849Y-78373849D01*
X215648583Y-78488142D01*
X215489695Y-78573069D01*
X215317294Y-78625367D01*
X215182931Y-78638600D01*
X215093069Y-78638600D01*
X214958706Y-78625367D01*
X214786305Y-78573069D01*
X214627417Y-78488142D01*
X214488151Y-78373849D01*
X214373858Y-78234583D01*
X214288931Y-78075695D01*
X214236633Y-77903294D01*
X214218975Y-77724000D01*
X214236633Y-77544706D01*
X214288931Y-77372305D01*
X214373858Y-77213417D01*
X214488151Y-77074151D01*
X214627417Y-76959858D01*
X214786305Y-76874931D01*
X214958706Y-76822633D01*
X215093069Y-76809400D01*
X215182931Y-76809400D01*
X215317294Y-76822633D01*
X215317294Y-76822633D01*
G37*
G36*
X203620823Y-76631313D02*
G01*
X203781242Y-76679976D01*
X203913906Y-76750886D01*
X203929078Y-76758996D01*
X204058659Y-76865341D01*
X204165004Y-76994922D01*
X204165005Y-76994924D01*
X204244024Y-77142758D01*
X204292687Y-77303177D01*
X204309117Y-77470000D01*
X204292687Y-77636823D01*
X204244024Y-77797242D01*
X204187338Y-77903294D01*
X204165004Y-77945078D01*
X204058659Y-78074659D01*
X203929078Y-78181004D01*
X203929076Y-78181005D01*
X203781242Y-78260024D01*
X203620823Y-78308687D01*
X203495804Y-78321000D01*
X203412196Y-78321000D01*
X203287177Y-78308687D01*
X203126758Y-78260024D01*
X202978924Y-78181005D01*
X202978922Y-78181004D01*
X202849341Y-78074659D01*
X202742996Y-77945078D01*
X202720662Y-77903294D01*
X202663976Y-77797242D01*
X202615313Y-77636823D01*
X202598883Y-77470000D01*
X202615313Y-77303177D01*
X202663976Y-77142758D01*
X202742995Y-76994924D01*
X202742996Y-76994922D01*
X202849341Y-76865341D01*
X202978922Y-76758996D01*
X202994094Y-76750886D01*
X203126758Y-76679976D01*
X203287177Y-76631313D01*
X203412196Y-76619000D01*
X203495804Y-76619000D01*
X203620823Y-76631313D01*
X203620823Y-76631313D01*
G37*
G36*
X196000823Y-76631313D02*
G01*
X196161242Y-76679976D01*
X196293906Y-76750886D01*
X196309078Y-76758996D01*
X196438659Y-76865341D01*
X196545004Y-76994922D01*
X196545005Y-76994924D01*
X196624024Y-77142758D01*
X196672687Y-77303177D01*
X196689117Y-77470000D01*
X196672687Y-77636823D01*
X196624024Y-77797242D01*
X196567338Y-77903294D01*
X196545004Y-77945078D01*
X196438659Y-78074659D01*
X196309078Y-78181004D01*
X196309076Y-78181005D01*
X196161242Y-78260024D01*
X196000823Y-78308687D01*
X195875804Y-78321000D01*
X195792196Y-78321000D01*
X195667177Y-78308687D01*
X195506758Y-78260024D01*
X195358924Y-78181005D01*
X195358922Y-78181004D01*
X195229341Y-78074659D01*
X195122996Y-77945078D01*
X195100662Y-77903294D01*
X195043976Y-77797242D01*
X194995313Y-77636823D01*
X194978883Y-77470000D01*
X194995313Y-77303177D01*
X195043976Y-77142758D01*
X195122995Y-76994924D01*
X195122996Y-76994922D01*
X195229341Y-76865341D01*
X195358922Y-76758996D01*
X195374094Y-76750886D01*
X195506758Y-76679976D01*
X195667177Y-76631313D01*
X195792196Y-76619000D01*
X195875804Y-76619000D01*
X196000823Y-76631313D01*
X196000823Y-76631313D01*
G37*
G36*
X186161642Y-76435781D02*
G01*
X186307414Y-76496162D01*
X186307416Y-76496163D01*
X186438608Y-76583822D01*
X186550178Y-76695392D01*
X186637837Y-76826584D01*
X186637838Y-76826586D01*
X186698219Y-76972358D01*
X186729000Y-77127107D01*
X186729000Y-77284893D01*
X186698219Y-77439642D01*
X186685644Y-77470000D01*
X186637837Y-77585416D01*
X186550178Y-77716608D01*
X186438608Y-77828178D01*
X186307416Y-77915837D01*
X186307415Y-77915838D01*
X186307414Y-77915838D01*
X186161642Y-77976219D01*
X186006893Y-78007000D01*
X185849107Y-78007000D01*
X185694358Y-77976219D01*
X185548586Y-77915838D01*
X185548585Y-77915838D01*
X185548584Y-77915837D01*
X185417392Y-77828178D01*
X185305822Y-77716608D01*
X185218163Y-77585416D01*
X185170356Y-77470000D01*
X185157781Y-77439642D01*
X185127000Y-77284893D01*
X185127000Y-77127107D01*
X185157781Y-76972358D01*
X185218162Y-76826586D01*
X185218163Y-76826584D01*
X185305822Y-76695392D01*
X185417392Y-76583822D01*
X185548584Y-76496163D01*
X185548586Y-76496162D01*
X185694358Y-76435781D01*
X185849107Y-76405000D01*
X186006893Y-76405000D01*
X186161642Y-76435781D01*
X186161642Y-76435781D01*
G37*
G36*
X236584442Y-75813518D02*
G01*
X236650627Y-75820037D01*
X236820466Y-75871557D01*
X236976991Y-75955222D01*
X237012729Y-75984552D01*
X237114186Y-76067814D01*
X237197448Y-76169271D01*
X237226778Y-76205009D01*
X237310443Y-76361534D01*
X237361963Y-76531373D01*
X237379359Y-76708000D01*
X237361963Y-76884627D01*
X237310443Y-77054466D01*
X237226778Y-77210991D01*
X237197448Y-77246729D01*
X237114186Y-77348186D01*
X237012729Y-77431448D01*
X236976991Y-77460778D01*
X236820466Y-77544443D01*
X236650627Y-77595963D01*
X236584443Y-77602481D01*
X236518260Y-77609000D01*
X236429740Y-77609000D01*
X236363557Y-77602481D01*
X236297373Y-77595963D01*
X236127534Y-77544443D01*
X235971009Y-77460778D01*
X235935271Y-77431448D01*
X235833814Y-77348186D01*
X235750552Y-77246729D01*
X235721222Y-77210991D01*
X235637557Y-77054466D01*
X235586037Y-76884627D01*
X235568641Y-76708000D01*
X235586037Y-76531373D01*
X235637557Y-76361534D01*
X235721222Y-76205009D01*
X235750552Y-76169271D01*
X235833814Y-76067814D01*
X235935271Y-75984552D01*
X235971009Y-75955222D01*
X236127534Y-75871557D01*
X236297373Y-75820037D01*
X236363558Y-75813518D01*
X236429740Y-75807000D01*
X236518260Y-75807000D01*
X236584442Y-75813518D01*
X236584442Y-75813518D01*
G37*
G36*
X250438228Y-75635703D02*
G01*
X250593100Y-75699853D01*
X250732481Y-75792985D01*
X250851015Y-75911519D01*
X250944147Y-76050900D01*
X251008297Y-76205772D01*
X251041000Y-76370184D01*
X251041000Y-76537816D01*
X251008297Y-76702228D01*
X250944147Y-76857100D01*
X250851015Y-76996481D01*
X250732481Y-77115015D01*
X250593100Y-77208147D01*
X250438228Y-77272297D01*
X250273816Y-77305000D01*
X250106184Y-77305000D01*
X249941772Y-77272297D01*
X249786900Y-77208147D01*
X249647519Y-77115015D01*
X249528985Y-76996481D01*
X249435853Y-76857100D01*
X249371703Y-76702228D01*
X249339000Y-76537816D01*
X249339000Y-76370184D01*
X249371703Y-76205772D01*
X249435853Y-76050900D01*
X249528985Y-75911519D01*
X249647519Y-75792985D01*
X249786900Y-75699853D01*
X249941772Y-75635703D01*
X250106184Y-75603000D01*
X250273816Y-75603000D01*
X250438228Y-75635703D01*
X250438228Y-75635703D01*
G37*
G36*
X245438228Y-75635703D02*
G01*
X245593100Y-75699853D01*
X245732481Y-75792985D01*
X245851015Y-75911519D01*
X245944147Y-76050900D01*
X246008297Y-76205772D01*
X246041000Y-76370184D01*
X246041000Y-76537816D01*
X246008297Y-76702228D01*
X245944147Y-76857100D01*
X245851015Y-76996481D01*
X245732481Y-77115015D01*
X245593100Y-77208147D01*
X245438228Y-77272297D01*
X245273816Y-77305000D01*
X245106184Y-77305000D01*
X244941772Y-77272297D01*
X244786900Y-77208147D01*
X244647519Y-77115015D01*
X244528985Y-76996481D01*
X244435853Y-76857100D01*
X244371703Y-76702228D01*
X244339000Y-76537816D01*
X244339000Y-76370184D01*
X244371703Y-76205772D01*
X244435853Y-76050900D01*
X244528985Y-75911519D01*
X244647519Y-75792985D01*
X244786900Y-75699853D01*
X244941772Y-75635703D01*
X245106184Y-75603000D01*
X245273816Y-75603000D01*
X245438228Y-75635703D01*
X245438228Y-75635703D01*
G37*
G36*
X203620823Y-74091313D02*
G01*
X203781242Y-74139976D01*
X203906635Y-74207000D01*
X203929078Y-74218996D01*
X204058659Y-74325341D01*
X204165004Y-74454922D01*
X204165005Y-74454924D01*
X204244024Y-74602758D01*
X204292687Y-74763177D01*
X204309117Y-74930000D01*
X204292687Y-75096823D01*
X204244024Y-75257242D01*
X204173114Y-75389906D01*
X204165004Y-75405078D01*
X204058659Y-75534659D01*
X203929078Y-75641004D01*
X203929076Y-75641005D01*
X203781242Y-75720024D01*
X203620823Y-75768687D01*
X203495804Y-75781000D01*
X203412196Y-75781000D01*
X203287177Y-75768687D01*
X203126758Y-75720024D01*
X202978924Y-75641005D01*
X202978922Y-75641004D01*
X202849341Y-75534659D01*
X202742996Y-75405078D01*
X202734886Y-75389906D01*
X202663976Y-75257242D01*
X202615313Y-75096823D01*
X202598883Y-74930000D01*
X202615313Y-74763177D01*
X202663976Y-74602758D01*
X202742995Y-74454924D01*
X202742996Y-74454922D01*
X202849341Y-74325341D01*
X202978922Y-74218996D01*
X203001365Y-74207000D01*
X203126758Y-74139976D01*
X203287177Y-74091313D01*
X203412196Y-74079000D01*
X203495804Y-74079000D01*
X203620823Y-74091313D01*
X203620823Y-74091313D01*
G37*
G36*
X196000823Y-74091313D02*
G01*
X196161242Y-74139976D01*
X196286635Y-74207000D01*
X196309078Y-74218996D01*
X196438659Y-74325341D01*
X196545004Y-74454922D01*
X196545005Y-74454924D01*
X196624024Y-74602758D01*
X196672687Y-74763177D01*
X196689117Y-74930000D01*
X196672687Y-75096823D01*
X196624024Y-75257242D01*
X196553114Y-75389906D01*
X196545004Y-75405078D01*
X196438659Y-75534659D01*
X196309078Y-75641004D01*
X196309076Y-75641005D01*
X196161242Y-75720024D01*
X196000823Y-75768687D01*
X195875804Y-75781000D01*
X195792196Y-75781000D01*
X195667177Y-75768687D01*
X195506758Y-75720024D01*
X195358924Y-75641005D01*
X195358922Y-75641004D01*
X195229341Y-75534659D01*
X195122996Y-75405078D01*
X195114886Y-75389906D01*
X195043976Y-75257242D01*
X194995313Y-75096823D01*
X194978883Y-74930000D01*
X194995313Y-74763177D01*
X195043976Y-74602758D01*
X195122995Y-74454924D01*
X195122996Y-74454922D01*
X195229341Y-74325341D01*
X195358922Y-74218996D01*
X195381365Y-74207000D01*
X195506758Y-74139976D01*
X195667177Y-74091313D01*
X195792196Y-74079000D01*
X195875804Y-74079000D01*
X196000823Y-74091313D01*
X196000823Y-74091313D01*
G37*
G36*
X237375000Y-75069000D02*
G01*
X235573000Y-75069000D01*
X235573000Y-73267000D01*
X237375000Y-73267000D01*
X237375000Y-75069000D01*
X237375000Y-75069000D01*
G37*
G36*
X186161642Y-72635781D02*
G01*
X186307414Y-72696162D01*
X186307416Y-72696163D01*
X186438608Y-72783822D01*
X186550178Y-72895392D01*
X186637837Y-73026584D01*
X186637838Y-73026586D01*
X186698219Y-73172358D01*
X186729000Y-73327107D01*
X186729000Y-73484893D01*
X186698219Y-73639642D01*
X186637838Y-73785414D01*
X186637837Y-73785416D01*
X186550178Y-73916608D01*
X186438608Y-74028178D01*
X186307416Y-74115837D01*
X186307415Y-74115838D01*
X186307414Y-74115838D01*
X186161642Y-74176219D01*
X186006893Y-74207000D01*
X185849107Y-74207000D01*
X185694358Y-74176219D01*
X185548586Y-74115838D01*
X185548585Y-74115838D01*
X185548584Y-74115837D01*
X185417392Y-74028178D01*
X185305822Y-73916608D01*
X185218163Y-73785416D01*
X185218162Y-73785414D01*
X185157781Y-73639642D01*
X185127000Y-73484893D01*
X185127000Y-73327107D01*
X185157781Y-73172358D01*
X185218162Y-73026586D01*
X185218163Y-73026584D01*
X185305822Y-72895392D01*
X185417392Y-72783822D01*
X185548584Y-72696163D01*
X185548586Y-72696162D01*
X185694358Y-72635781D01*
X185849107Y-72605000D01*
X186006893Y-72605000D01*
X186161642Y-72635781D01*
X186161642Y-72635781D01*
G37*
G36*
X203620823Y-71551313D02*
G01*
X203781242Y-71599976D01*
X203913906Y-71670886D01*
X203929078Y-71678996D01*
X204058659Y-71785341D01*
X204165004Y-71914922D01*
X204165005Y-71914924D01*
X204244024Y-72062758D01*
X204292687Y-72223177D01*
X204309117Y-72390000D01*
X204292687Y-72556823D01*
X204244024Y-72717242D01*
X204208436Y-72783822D01*
X204165004Y-72865078D01*
X204058659Y-72994659D01*
X203929078Y-73101004D01*
X203929076Y-73101005D01*
X203781242Y-73180024D01*
X203620823Y-73228687D01*
X203495804Y-73241000D01*
X203412196Y-73241000D01*
X203287177Y-73228687D01*
X203126758Y-73180024D01*
X202978924Y-73101005D01*
X202978922Y-73101004D01*
X202849341Y-72994659D01*
X202742996Y-72865078D01*
X202699564Y-72783822D01*
X202663976Y-72717242D01*
X202615313Y-72556823D01*
X202598883Y-72390000D01*
X202615313Y-72223177D01*
X202663976Y-72062758D01*
X202742995Y-71914924D01*
X202742996Y-71914922D01*
X202849341Y-71785341D01*
X202978922Y-71678996D01*
X202994094Y-71670886D01*
X203126758Y-71599976D01*
X203287177Y-71551313D01*
X203412196Y-71539000D01*
X203495804Y-71539000D01*
X203620823Y-71551313D01*
X203620823Y-71551313D01*
G37*
G36*
X196000823Y-71551313D02*
G01*
X196161242Y-71599976D01*
X196293906Y-71670886D01*
X196309078Y-71678996D01*
X196438659Y-71785341D01*
X196545004Y-71914922D01*
X196545005Y-71914924D01*
X196624024Y-72062758D01*
X196672687Y-72223177D01*
X196689117Y-72390000D01*
X196672687Y-72556823D01*
X196624024Y-72717242D01*
X196588436Y-72783822D01*
X196545004Y-72865078D01*
X196438659Y-72994659D01*
X196309078Y-73101004D01*
X196309076Y-73101005D01*
X196161242Y-73180024D01*
X196000823Y-73228687D01*
X195875804Y-73241000D01*
X195792196Y-73241000D01*
X195667177Y-73228687D01*
X195506758Y-73180024D01*
X195358924Y-73101005D01*
X195358922Y-73101004D01*
X195229341Y-72994659D01*
X195122996Y-72865078D01*
X195079564Y-72783822D01*
X195043976Y-72717242D01*
X194995313Y-72556823D01*
X194978883Y-72390000D01*
X194995313Y-72223177D01*
X195043976Y-72062758D01*
X195122995Y-71914924D01*
X195122996Y-71914922D01*
X195229341Y-71785341D01*
X195358922Y-71678996D01*
X195374094Y-71670886D01*
X195506758Y-71599976D01*
X195667177Y-71551313D01*
X195792196Y-71539000D01*
X195875804Y-71539000D01*
X196000823Y-71551313D01*
X196000823Y-71551313D01*
G37*
G36*
X253581000Y-70955000D02*
G01*
X251879000Y-70955000D01*
X251879000Y-69253000D01*
X253581000Y-69253000D01*
X253581000Y-70955000D01*
X253581000Y-70955000D01*
G37*
G36*
X245276823Y-69265313D02*
G01*
X245437242Y-69313976D01*
X245569906Y-69384886D01*
X245585078Y-69392996D01*
X245714659Y-69499341D01*
X245821004Y-69628922D01*
X245821005Y-69628924D01*
X245900024Y-69776758D01*
X245948687Y-69937177D01*
X245965117Y-70104000D01*
X245948687Y-70270823D01*
X245900024Y-70431242D01*
X245887507Y-70454659D01*
X245821004Y-70579078D01*
X245714659Y-70708659D01*
X245585078Y-70815004D01*
X245585076Y-70815005D01*
X245437242Y-70894024D01*
X245276823Y-70942687D01*
X245151804Y-70955000D01*
X245068196Y-70955000D01*
X244943177Y-70942687D01*
X244782758Y-70894024D01*
X244634924Y-70815005D01*
X244634922Y-70815004D01*
X244505341Y-70708659D01*
X244398996Y-70579078D01*
X244332493Y-70454659D01*
X244319976Y-70431242D01*
X244271313Y-70270823D01*
X244254883Y-70104000D01*
X244271313Y-69937177D01*
X244319976Y-69776758D01*
X244398995Y-69628924D01*
X244398996Y-69628922D01*
X244505341Y-69499341D01*
X244634922Y-69392996D01*
X244650094Y-69384886D01*
X244782758Y-69313976D01*
X244943177Y-69265313D01*
X245068196Y-69253000D01*
X245151804Y-69253000D01*
X245276823Y-69265313D01*
X245276823Y-69265313D01*
G37*
G36*
X203620823Y-69011313D02*
G01*
X203781242Y-69059976D01*
X203913906Y-69130886D01*
X203929078Y-69138996D01*
X204058659Y-69245341D01*
X204165004Y-69374922D01*
X204165005Y-69374924D01*
X204244024Y-69522758D01*
X204292687Y-69683177D01*
X204309117Y-69850000D01*
X204292687Y-70016823D01*
X204244024Y-70177242D01*
X204194004Y-70270823D01*
X204165004Y-70325078D01*
X204058659Y-70454659D01*
X203929078Y-70561004D01*
X203929076Y-70561005D01*
X203781242Y-70640024D01*
X203620823Y-70688687D01*
X203495804Y-70701000D01*
X203412196Y-70701000D01*
X203287177Y-70688687D01*
X203126758Y-70640024D01*
X202978924Y-70561005D01*
X202978922Y-70561004D01*
X202849341Y-70454659D01*
X202742996Y-70325078D01*
X202713996Y-70270823D01*
X202663976Y-70177242D01*
X202615313Y-70016823D01*
X202598883Y-69850000D01*
X202615313Y-69683177D01*
X202663976Y-69522758D01*
X202742995Y-69374924D01*
X202742996Y-69374922D01*
X202849341Y-69245341D01*
X202978922Y-69138996D01*
X202994094Y-69130886D01*
X203126758Y-69059976D01*
X203287177Y-69011313D01*
X203412196Y-68999000D01*
X203495804Y-68999000D01*
X203620823Y-69011313D01*
X203620823Y-69011313D01*
G37*
G36*
X196000823Y-69011313D02*
G01*
X196161242Y-69059976D01*
X196293906Y-69130886D01*
X196309078Y-69138996D01*
X196438659Y-69245341D01*
X196545004Y-69374922D01*
X196545005Y-69374924D01*
X196624024Y-69522758D01*
X196672687Y-69683177D01*
X196689117Y-69850000D01*
X196672687Y-70016823D01*
X196624024Y-70177242D01*
X196574004Y-70270823D01*
X196545004Y-70325078D01*
X196438659Y-70454659D01*
X196309078Y-70561004D01*
X196309076Y-70561005D01*
X196161242Y-70640024D01*
X196000823Y-70688687D01*
X195875804Y-70701000D01*
X195792196Y-70701000D01*
X195667177Y-70688687D01*
X195506758Y-70640024D01*
X195358924Y-70561005D01*
X195358922Y-70561004D01*
X195229341Y-70454659D01*
X195122996Y-70325078D01*
X195093996Y-70270823D01*
X195043976Y-70177242D01*
X194995313Y-70016823D01*
X194978883Y-69850000D01*
X194995313Y-69683177D01*
X195043976Y-69522758D01*
X195122995Y-69374924D01*
X195122996Y-69374922D01*
X195229341Y-69245341D01*
X195358922Y-69138996D01*
X195374094Y-69130886D01*
X195506758Y-69059976D01*
X195667177Y-69011313D01*
X195792196Y-68999000D01*
X195875804Y-68999000D01*
X196000823Y-69011313D01*
X196000823Y-69011313D01*
G37*
G36*
X218180228Y-66745703D02*
G01*
X218335100Y-66809853D01*
X218474481Y-66902985D01*
X218593015Y-67021519D01*
X218686147Y-67160900D01*
X218750297Y-67315772D01*
X218783000Y-67480184D01*
X218783000Y-67647816D01*
X218750297Y-67812228D01*
X218686147Y-67967100D01*
X218593015Y-68106481D01*
X218474481Y-68225015D01*
X218335100Y-68318147D01*
X218180228Y-68382297D01*
X218015816Y-68415000D01*
X217848184Y-68415000D01*
X217683772Y-68382297D01*
X217528900Y-68318147D01*
X217389519Y-68225015D01*
X217270985Y-68106481D01*
X217177853Y-67967100D01*
X217113703Y-67812228D01*
X217081000Y-67647816D01*
X217081000Y-67480184D01*
X217113703Y-67315772D01*
X217177853Y-67160900D01*
X217270985Y-67021519D01*
X217389519Y-66902985D01*
X217528900Y-66809853D01*
X217683772Y-66745703D01*
X217848184Y-66713000D01*
X218015816Y-66713000D01*
X218180228Y-66745703D01*
X218180228Y-66745703D01*
G37*
G36*
X210478823Y-66725313D02*
G01*
X210639242Y-66773976D01*
X210771906Y-66844886D01*
X210787078Y-66852996D01*
X210916659Y-66959341D01*
X211023004Y-67088922D01*
X211023005Y-67088924D01*
X211102024Y-67236758D01*
X211150687Y-67397177D01*
X211167117Y-67564000D01*
X211150687Y-67730823D01*
X211102024Y-67891242D01*
X211061477Y-67967100D01*
X211023004Y-68039078D01*
X210916659Y-68168659D01*
X210787078Y-68275004D01*
X210787076Y-68275005D01*
X210639242Y-68354024D01*
X210478823Y-68402687D01*
X210353804Y-68415000D01*
X210270196Y-68415000D01*
X210145177Y-68402687D01*
X209984758Y-68354024D01*
X209836924Y-68275005D01*
X209836922Y-68275004D01*
X209707341Y-68168659D01*
X209600996Y-68039078D01*
X209562523Y-67967100D01*
X209521976Y-67891242D01*
X209473313Y-67730823D01*
X209456883Y-67564000D01*
X209473313Y-67397177D01*
X209521976Y-67236758D01*
X209600995Y-67088924D01*
X209600996Y-67088922D01*
X209707341Y-66959341D01*
X209836922Y-66852996D01*
X209852094Y-66844886D01*
X209984758Y-66773976D01*
X210145177Y-66725313D01*
X210270196Y-66713000D01*
X210353804Y-66713000D01*
X210478823Y-66725313D01*
X210478823Y-66725313D01*
G37*
G36*
X236584443Y-66415519D02*
G01*
X236650627Y-66422037D01*
X236820466Y-66473557D01*
X236976991Y-66557222D01*
X237012729Y-66586552D01*
X237114186Y-66669814D01*
X237176467Y-66745705D01*
X237226778Y-66807009D01*
X237226779Y-66807011D01*
X237305890Y-66955015D01*
X237310443Y-66963534D01*
X237361963Y-67133373D01*
X237379359Y-67310000D01*
X237361963Y-67486627D01*
X237310443Y-67656466D01*
X237226778Y-67812991D01*
X237197448Y-67848729D01*
X237114186Y-67950186D01*
X237012729Y-68033448D01*
X236976991Y-68062778D01*
X236820466Y-68146443D01*
X236650627Y-68197963D01*
X236584443Y-68204481D01*
X236518260Y-68211000D01*
X236429740Y-68211000D01*
X236363557Y-68204481D01*
X236297373Y-68197963D01*
X236127534Y-68146443D01*
X235971009Y-68062778D01*
X235935271Y-68033448D01*
X235833814Y-67950186D01*
X235750552Y-67848729D01*
X235721222Y-67812991D01*
X235637557Y-67656466D01*
X235586037Y-67486627D01*
X235568641Y-67310000D01*
X235586037Y-67133373D01*
X235637557Y-66963534D01*
X235642111Y-66955015D01*
X235721221Y-66807011D01*
X235721222Y-66807009D01*
X235771533Y-66745705D01*
X235833814Y-66669814D01*
X235935271Y-66586552D01*
X235971009Y-66557222D01*
X236127534Y-66473557D01*
X236297373Y-66422037D01*
X236363557Y-66415519D01*
X236429740Y-66409000D01*
X236518260Y-66409000D01*
X236584443Y-66415519D01*
X236584443Y-66415519D01*
G37*
G36*
X196000823Y-66471313D02*
G01*
X196161242Y-66519976D01*
X196202874Y-66542229D01*
X196309078Y-66598996D01*
X196438659Y-66705341D01*
X196545004Y-66834922D01*
X196545005Y-66834924D01*
X196624024Y-66982758D01*
X196672687Y-67143177D01*
X196689117Y-67310000D01*
X196672687Y-67476823D01*
X196624024Y-67637242D01*
X196613747Y-67656468D01*
X196545004Y-67785078D01*
X196438659Y-67914659D01*
X196309078Y-68021004D01*
X196309076Y-68021005D01*
X196161242Y-68100024D01*
X196000823Y-68148687D01*
X195875804Y-68161000D01*
X195792196Y-68161000D01*
X195667177Y-68148687D01*
X195506758Y-68100024D01*
X195358924Y-68021005D01*
X195358922Y-68021004D01*
X195229341Y-67914659D01*
X195122996Y-67785078D01*
X195054253Y-67656468D01*
X195043976Y-67637242D01*
X194995313Y-67476823D01*
X194978883Y-67310000D01*
X194995313Y-67143177D01*
X195043976Y-66982758D01*
X195122995Y-66834924D01*
X195122996Y-66834922D01*
X195229341Y-66705341D01*
X195358922Y-66598996D01*
X195465126Y-66542229D01*
X195506758Y-66519976D01*
X195667177Y-66471313D01*
X195792196Y-66459000D01*
X195875804Y-66459000D01*
X196000823Y-66471313D01*
X196000823Y-66471313D01*
G37*
G36*
X203620823Y-66471313D02*
G01*
X203781242Y-66519976D01*
X203822874Y-66542229D01*
X203929078Y-66598996D01*
X204058659Y-66705341D01*
X204165004Y-66834922D01*
X204165005Y-66834924D01*
X204244024Y-66982758D01*
X204292687Y-67143177D01*
X204309117Y-67310000D01*
X204292687Y-67476823D01*
X204244024Y-67637242D01*
X204233747Y-67656468D01*
X204165004Y-67785078D01*
X204058659Y-67914659D01*
X203929078Y-68021004D01*
X203929076Y-68021005D01*
X203781242Y-68100024D01*
X203620823Y-68148687D01*
X203495804Y-68161000D01*
X203412196Y-68161000D01*
X203287177Y-68148687D01*
X203126758Y-68100024D01*
X202978924Y-68021005D01*
X202978922Y-68021004D01*
X202849341Y-67914659D01*
X202742996Y-67785078D01*
X202674253Y-67656468D01*
X202663976Y-67637242D01*
X202615313Y-67476823D01*
X202598883Y-67310000D01*
X202615313Y-67143177D01*
X202663976Y-66982758D01*
X202742995Y-66834924D01*
X202742996Y-66834922D01*
X202849341Y-66705341D01*
X202978922Y-66598996D01*
X203085126Y-66542229D01*
X203126758Y-66519976D01*
X203287177Y-66471313D01*
X203412196Y-66459000D01*
X203495804Y-66459000D01*
X203620823Y-66471313D01*
X203620823Y-66471313D01*
G37*
G36*
X181176228Y-65475703D02*
G01*
X181331100Y-65539853D01*
X181470481Y-65632985D01*
X181589015Y-65751519D01*
X181682147Y-65890900D01*
X181746297Y-66045772D01*
X181779000Y-66210184D01*
X181779000Y-66377816D01*
X181746297Y-66542228D01*
X181682147Y-66697100D01*
X181589015Y-66836481D01*
X181470481Y-66955015D01*
X181331100Y-67048147D01*
X181176228Y-67112297D01*
X181011816Y-67145000D01*
X180844184Y-67145000D01*
X180679772Y-67112297D01*
X180524900Y-67048147D01*
X180385519Y-66955015D01*
X180266985Y-66836481D01*
X180173853Y-66697100D01*
X180109703Y-66542228D01*
X180077000Y-66377816D01*
X180077000Y-66210184D01*
X180109703Y-66045772D01*
X180173853Y-65890900D01*
X180266985Y-65751519D01*
X180385519Y-65632985D01*
X180524900Y-65539853D01*
X180679772Y-65475703D01*
X180844184Y-65443000D01*
X181011816Y-65443000D01*
X181176228Y-65475703D01*
X181176228Y-65475703D01*
G37*
G36*
X186176228Y-65475703D02*
G01*
X186331100Y-65539853D01*
X186470481Y-65632985D01*
X186589015Y-65751519D01*
X186682147Y-65890900D01*
X186746297Y-66045772D01*
X186779000Y-66210184D01*
X186779000Y-66377816D01*
X186746297Y-66542228D01*
X186682147Y-66697100D01*
X186589015Y-66836481D01*
X186470481Y-66955015D01*
X186331100Y-67048147D01*
X186176228Y-67112297D01*
X186011816Y-67145000D01*
X185844184Y-67145000D01*
X185679772Y-67112297D01*
X185524900Y-67048147D01*
X185385519Y-66955015D01*
X185266985Y-66836481D01*
X185173853Y-66697100D01*
X185109703Y-66542228D01*
X185077000Y-66377816D01*
X185077000Y-66210184D01*
X185109703Y-66045772D01*
X185173853Y-65890900D01*
X185266985Y-65751519D01*
X185385519Y-65632985D01*
X185524900Y-65539853D01*
X185679772Y-65475703D01*
X185844184Y-65443000D01*
X186011816Y-65443000D01*
X186176228Y-65475703D01*
X186176228Y-65475703D01*
G37*
G36*
X237375000Y-65671000D02*
G01*
X235573000Y-65671000D01*
X235573000Y-63869000D01*
X237375000Y-63869000D01*
X237375000Y-65671000D01*
X237375000Y-65671000D01*
G37*
G36*
X196685000Y-65621000D02*
G01*
X194983000Y-65621000D01*
X194983000Y-63919000D01*
X196685000Y-63919000D01*
X196685000Y-65621000D01*
X196685000Y-65621000D01*
G37*
G36*
X252978228Y-63951703D02*
G01*
X253133100Y-64015853D01*
X253272481Y-64108985D01*
X253391015Y-64227519D01*
X253484147Y-64366900D01*
X253548297Y-64521772D01*
X253581000Y-64686184D01*
X253581000Y-64853816D01*
X253548297Y-65018228D01*
X253484147Y-65173100D01*
X253391015Y-65312481D01*
X253272481Y-65431015D01*
X253133100Y-65524147D01*
X252978228Y-65588297D01*
X252813816Y-65621000D01*
X252646184Y-65621000D01*
X252481772Y-65588297D01*
X252326900Y-65524147D01*
X252187519Y-65431015D01*
X252068985Y-65312481D01*
X251975853Y-65173100D01*
X251911703Y-65018228D01*
X251879000Y-64853816D01*
X251879000Y-64686184D01*
X251911703Y-64521772D01*
X251975853Y-64366900D01*
X252068985Y-64227519D01*
X252187519Y-64108985D01*
X252326900Y-64015853D01*
X252481772Y-63951703D01*
X252646184Y-63919000D01*
X252813816Y-63919000D01*
X252978228Y-63951703D01*
X252978228Y-63951703D01*
G37*
G36*
X245276823Y-63931313D02*
G01*
X245437242Y-63979976D01*
X245504361Y-64015852D01*
X245585078Y-64058996D01*
X245714659Y-64165341D01*
X245821004Y-64294922D01*
X245821005Y-64294924D01*
X245900024Y-64442758D01*
X245948687Y-64603177D01*
X245965117Y-64770000D01*
X245948687Y-64936823D01*
X245900024Y-65097242D01*
X245859477Y-65173100D01*
X245821004Y-65245078D01*
X245714659Y-65374659D01*
X245585078Y-65481004D01*
X245585076Y-65481005D01*
X245437242Y-65560024D01*
X245276823Y-65608687D01*
X245151804Y-65621000D01*
X245068196Y-65621000D01*
X244943177Y-65608687D01*
X244782758Y-65560024D01*
X244634924Y-65481005D01*
X244634922Y-65481004D01*
X244505341Y-65374659D01*
X244398996Y-65245078D01*
X244360523Y-65173100D01*
X244319976Y-65097242D01*
X244271313Y-64936823D01*
X244254883Y-64770000D01*
X244271313Y-64603177D01*
X244319976Y-64442758D01*
X244398995Y-64294924D01*
X244398996Y-64294922D01*
X244505341Y-64165341D01*
X244634922Y-64058996D01*
X244715639Y-64015852D01*
X244782758Y-63979976D01*
X244943177Y-63931313D01*
X245068196Y-63919000D01*
X245151804Y-63919000D01*
X245276823Y-63931313D01*
X245276823Y-63931313D01*
G37*
G36*
X203620823Y-63931313D02*
G01*
X203781242Y-63979976D01*
X203848361Y-64015852D01*
X203929078Y-64058996D01*
X204058659Y-64165341D01*
X204165004Y-64294922D01*
X204165005Y-64294924D01*
X204244024Y-64442758D01*
X204292687Y-64603177D01*
X204309117Y-64770000D01*
X204292687Y-64936823D01*
X204244024Y-65097242D01*
X204203477Y-65173100D01*
X204165004Y-65245078D01*
X204058659Y-65374659D01*
X203929078Y-65481004D01*
X203929076Y-65481005D01*
X203781242Y-65560024D01*
X203620823Y-65608687D01*
X203495804Y-65621000D01*
X203412196Y-65621000D01*
X203287177Y-65608687D01*
X203126758Y-65560024D01*
X202978924Y-65481005D01*
X202978922Y-65481004D01*
X202849341Y-65374659D01*
X202742996Y-65245078D01*
X202704523Y-65173100D01*
X202663976Y-65097242D01*
X202615313Y-64936823D01*
X202598883Y-64770000D01*
X202615313Y-64603177D01*
X202663976Y-64442758D01*
X202742995Y-64294924D01*
X202742996Y-64294922D01*
X202849341Y-64165341D01*
X202978922Y-64058996D01*
X203059639Y-64015852D01*
X203126758Y-63979976D01*
X203287177Y-63931313D01*
X203412196Y-63919000D01*
X203495804Y-63919000D01*
X203620823Y-63931313D01*
X203620823Y-63931313D01*
G37*
G36*
X245612228Y-59125703D02*
G01*
X245767100Y-59189853D01*
X245906481Y-59282985D01*
X246025015Y-59401519D01*
X246118147Y-59540900D01*
X246182297Y-59695772D01*
X246215000Y-59860184D01*
X246215000Y-60027816D01*
X246182297Y-60192228D01*
X246118147Y-60347100D01*
X246025015Y-60486481D01*
X245906481Y-60605015D01*
X245767100Y-60698147D01*
X245612228Y-60762297D01*
X245447816Y-60795000D01*
X245280184Y-60795000D01*
X245115772Y-60762297D01*
X244960900Y-60698147D01*
X244821519Y-60605015D01*
X244702985Y-60486481D01*
X244609853Y-60347100D01*
X244545703Y-60192228D01*
X244513000Y-60027816D01*
X244513000Y-59860184D01*
X244545703Y-59695772D01*
X244609853Y-59540900D01*
X244702985Y-59401519D01*
X244821519Y-59282985D01*
X244960900Y-59189853D01*
X245115772Y-59125703D01*
X245280184Y-59093000D01*
X245447816Y-59093000D01*
X245612228Y-59125703D01*
X245612228Y-59125703D01*
G37*
G36*
X253150823Y-59105313D02*
G01*
X253311242Y-59153976D01*
X253378361Y-59189852D01*
X253459078Y-59232996D01*
X253588659Y-59339341D01*
X253695004Y-59468922D01*
X253695005Y-59468924D01*
X253774024Y-59616758D01*
X253822687Y-59777177D01*
X253839117Y-59944000D01*
X253822687Y-60110823D01*
X253774024Y-60271242D01*
X253733477Y-60347100D01*
X253695004Y-60419078D01*
X253588659Y-60548659D01*
X253459078Y-60655004D01*
X253459076Y-60655005D01*
X253311242Y-60734024D01*
X253150823Y-60782687D01*
X253025804Y-60795000D01*
X252942196Y-60795000D01*
X252817177Y-60782687D01*
X252656758Y-60734024D01*
X252508924Y-60655005D01*
X252508922Y-60655004D01*
X252379341Y-60548659D01*
X252272996Y-60419078D01*
X252234523Y-60347100D01*
X252193976Y-60271242D01*
X252145313Y-60110823D01*
X252128883Y-59944000D01*
X252145313Y-59777177D01*
X252193976Y-59616758D01*
X252272995Y-59468924D01*
X252272996Y-59468922D01*
X252379341Y-59339341D01*
X252508922Y-59232996D01*
X252589639Y-59189852D01*
X252656758Y-59153976D01*
X252817177Y-59105313D01*
X252942196Y-59093000D01*
X253025804Y-59093000D01*
X253150823Y-59105313D01*
X253150823Y-59105313D01*
G37*
G36*
X225067395Y-55981546D02*
G01*
X225240466Y-56053234D01*
X225246572Y-56057314D01*
X225396227Y-56157310D01*
X225528690Y-56289773D01*
X225571284Y-56353520D01*
X225632766Y-56445534D01*
X225704454Y-56618605D01*
X225741000Y-56802333D01*
X225741000Y-56989667D01*
X225704454Y-57173395D01*
X225632766Y-57346466D01*
X225632765Y-57346467D01*
X225528690Y-57502227D01*
X225396227Y-57634690D01*
X225373092Y-57650148D01*
X225240466Y-57738766D01*
X225067395Y-57810454D01*
X224883667Y-57847000D01*
X224696333Y-57847000D01*
X224512605Y-57810454D01*
X224339534Y-57738766D01*
X224206908Y-57650148D01*
X224183773Y-57634690D01*
X224051310Y-57502227D01*
X223947235Y-57346467D01*
X223947234Y-57346466D01*
X223875546Y-57173395D01*
X223839000Y-56989667D01*
X223839000Y-56802333D01*
X223875546Y-56618605D01*
X223947234Y-56445534D01*
X224008716Y-56353520D01*
X224051310Y-56289773D01*
X224183773Y-56157310D01*
X224333428Y-56057314D01*
X224339534Y-56053234D01*
X224512605Y-55981546D01*
X224696333Y-55945000D01*
X224883667Y-55945000D01*
X225067395Y-55981546D01*
X225067395Y-55981546D01*
G37*
G36*
X223201000Y-57847000D02*
G01*
X221299000Y-57847000D01*
X221299000Y-55945000D01*
X223201000Y-55945000D01*
X223201000Y-57847000D01*
X223201000Y-57847000D01*
G37*
G36*
X218121000Y-57847000D02*
G01*
X216219000Y-57847000D01*
X216219000Y-55945000D01*
X218121000Y-55945000D01*
X218121000Y-57847000D01*
X218121000Y-57847000D01*
G37*
G36*
X214907395Y-55981546D02*
G01*
X215080466Y-56053234D01*
X215086572Y-56057314D01*
X215236227Y-56157310D01*
X215368690Y-56289773D01*
X215411284Y-56353520D01*
X215472766Y-56445534D01*
X215544454Y-56618605D01*
X215581000Y-56802333D01*
X215581000Y-56989667D01*
X215544454Y-57173395D01*
X215472766Y-57346466D01*
X215472765Y-57346467D01*
X215368690Y-57502227D01*
X215236227Y-57634690D01*
X215213092Y-57650148D01*
X215080466Y-57738766D01*
X214907395Y-57810454D01*
X214723667Y-57847000D01*
X214536333Y-57847000D01*
X214352605Y-57810454D01*
X214179534Y-57738766D01*
X214046908Y-57650148D01*
X214023773Y-57634690D01*
X213891310Y-57502227D01*
X213787235Y-57346467D01*
X213787234Y-57346466D01*
X213715546Y-57173395D01*
X213679000Y-56989667D01*
X213679000Y-56802333D01*
X213715546Y-56618605D01*
X213787234Y-56445534D01*
X213848716Y-56353520D01*
X213891310Y-56289773D01*
X214023773Y-56157310D01*
X214173428Y-56057314D01*
X214179534Y-56053234D01*
X214352605Y-55981546D01*
X214536333Y-55945000D01*
X214723667Y-55945000D01*
X214907395Y-55981546D01*
X214907395Y-55981546D01*
G37*
G36*
X202432228Y-56077703D02*
G01*
X202587100Y-56141853D01*
X202726481Y-56234985D01*
X202845015Y-56353519D01*
X202938147Y-56492900D01*
X203002297Y-56647772D01*
X203035000Y-56812184D01*
X203035000Y-56979816D01*
X203002297Y-57144228D01*
X202938147Y-57299100D01*
X202845015Y-57438481D01*
X202726481Y-57557015D01*
X202587100Y-57650147D01*
X202432228Y-57714297D01*
X202267816Y-57747000D01*
X202100184Y-57747000D01*
X201935772Y-57714297D01*
X201780900Y-57650147D01*
X201641519Y-57557015D01*
X201522985Y-57438481D01*
X201429853Y-57299100D01*
X201365703Y-57144228D01*
X201333000Y-56979816D01*
X201333000Y-56812184D01*
X201365703Y-56647772D01*
X201429853Y-56492900D01*
X201522985Y-56353519D01*
X201641519Y-56234985D01*
X201780900Y-56141853D01*
X201935772Y-56077703D01*
X202100184Y-56045000D01*
X202267816Y-56045000D01*
X202432228Y-56077703D01*
X202432228Y-56077703D01*
G37*
G36*
X229274823Y-56057313D02*
G01*
X229435242Y-56105976D01*
X229502361Y-56141852D01*
X229583078Y-56184996D01*
X229712659Y-56291341D01*
X229819004Y-56420922D01*
X229819005Y-56420924D01*
X229898024Y-56568758D01*
X229946687Y-56729177D01*
X229963117Y-56896000D01*
X229946687Y-57062823D01*
X229898024Y-57223242D01*
X229857477Y-57299100D01*
X229819004Y-57371078D01*
X229712659Y-57500659D01*
X229583078Y-57607004D01*
X229583076Y-57607005D01*
X229435242Y-57686024D01*
X229274823Y-57734687D01*
X229149804Y-57747000D01*
X229066196Y-57747000D01*
X228941177Y-57734687D01*
X228780758Y-57686024D01*
X228632924Y-57607005D01*
X228632922Y-57607004D01*
X228503341Y-57500659D01*
X228396996Y-57371078D01*
X228358523Y-57299100D01*
X228317976Y-57223242D01*
X228269313Y-57062823D01*
X228252883Y-56896000D01*
X228269313Y-56729177D01*
X228317976Y-56568758D01*
X228396995Y-56420924D01*
X228396996Y-56420922D01*
X228503341Y-56291341D01*
X228632922Y-56184996D01*
X228713639Y-56141852D01*
X228780758Y-56105976D01*
X228941177Y-56057313D01*
X229066196Y-56045000D01*
X229149804Y-56045000D01*
X229274823Y-56057313D01*
X229274823Y-56057313D01*
G37*
G36*
X209970823Y-56057313D02*
G01*
X210131242Y-56105976D01*
X210198361Y-56141852D01*
X210279078Y-56184996D01*
X210408659Y-56291341D01*
X210515004Y-56420922D01*
X210515005Y-56420924D01*
X210594024Y-56568758D01*
X210642687Y-56729177D01*
X210659117Y-56896000D01*
X210642687Y-57062823D01*
X210594024Y-57223242D01*
X210553477Y-57299100D01*
X210515004Y-57371078D01*
X210408659Y-57500659D01*
X210279078Y-57607004D01*
X210279076Y-57607005D01*
X210131242Y-57686024D01*
X209970823Y-57734687D01*
X209845804Y-57747000D01*
X209762196Y-57747000D01*
X209637177Y-57734687D01*
X209476758Y-57686024D01*
X209328924Y-57607005D01*
X209328922Y-57607004D01*
X209199341Y-57500659D01*
X209092996Y-57371078D01*
X209054523Y-57299100D01*
X209013976Y-57223242D01*
X208965313Y-57062823D01*
X208948883Y-56896000D01*
X208965313Y-56729177D01*
X209013976Y-56568758D01*
X209092995Y-56420924D01*
X209092996Y-56420922D01*
X209199341Y-56291341D01*
X209328922Y-56184996D01*
X209409639Y-56141852D01*
X209476758Y-56105976D01*
X209637177Y-56057313D01*
X209762196Y-56045000D01*
X209845804Y-56045000D01*
X209970823Y-56057313D01*
X209970823Y-56057313D01*
G37*
G36*
X236976228Y-56077703D02*
G01*
X237131100Y-56141853D01*
X237270481Y-56234985D01*
X237389015Y-56353519D01*
X237482147Y-56492900D01*
X237546297Y-56647772D01*
X237579000Y-56812184D01*
X237579000Y-56979816D01*
X237546297Y-57144228D01*
X237482147Y-57299100D01*
X237389015Y-57438481D01*
X237270481Y-57557015D01*
X237131100Y-57650147D01*
X236976228Y-57714297D01*
X236811816Y-57747000D01*
X236644184Y-57747000D01*
X236479772Y-57714297D01*
X236324900Y-57650147D01*
X236185519Y-57557015D01*
X236066985Y-57438481D01*
X235973853Y-57299100D01*
X235909703Y-57144228D01*
X235877000Y-56979816D01*
X235877000Y-56812184D01*
X235909703Y-56647772D01*
X235973853Y-56492900D01*
X236066985Y-56353519D01*
X236185519Y-56234985D01*
X236324900Y-56141853D01*
X236479772Y-56077703D01*
X236644184Y-56045000D01*
X236811816Y-56045000D01*
X236976228Y-56077703D01*
X236976228Y-56077703D01*
G37*
M02*
