%TF.GenerationSoftware,KiCad,Pcbnew,5.1.4-3.fc30*%
%TF.CreationDate,2019-10-13T14:14:48+02:00*%
%TF.ProjectId,usbasp,75736261-7370-42e6-9b69-6361645f7063,2.0*%
%TF.SameCoordinates,PX36f6758PY6c779b8*%
%TF.FileFunction,Other,Fab,Top*%
%FSLAX46Y46*%
G04 Gerber Fmt 4.6, Leading zero omitted, Abs format (unit mm)*
G04 Created by KiCad (PCBNEW 5.1.4-3.fc30) date 2019-10-13 14:14:48*
%MOMM*%
%LPD*%
G04 APERTURE LIST*
%ADD10C,0.100000*%
%ADD11C,0.150000*%
%ADD12C,0.120000*%
G04 APERTURE END LIST*
D10*
%TO.C,J1*%
X79376400Y21326520D02*
X79376400Y27826520D01*
X80076400Y20826520D02*
X75076400Y20826520D01*
X75076400Y20826520D02*
X75076400Y28326520D01*
X75076400Y28326520D02*
X80076400Y28326520D01*
X80076400Y28326520D02*
X80076400Y20826520D01*
%TO.C,Y1*%
X54385400Y24268420D02*
G75*
G03X49385400Y24268420I-2500000J0D01*
G01*
X54385400Y19268420D02*
G75*
G02X49385400Y19268420I-2500000J0D01*
G01*
X54385400Y24268420D02*
G75*
G03X49385400Y24268420I-2500000J0D01*
G01*
X54385400Y19268420D02*
G75*
G02X49385400Y19268420I-2500000J0D01*
G01*
X54385400Y19268420D02*
X54385400Y24268420D01*
X49385400Y19268420D02*
X49385400Y24268420D01*
X54385400Y19268420D02*
X54385400Y24268420D01*
X49385400Y19268420D02*
X49385400Y24268420D01*
%TO.C,SW1*%
X11148964Y7081120D02*
G75*
G03X11148964Y7081120I-2015564J0D01*
G01*
X6133400Y4081120D02*
X6133400Y7081120D01*
X12133400Y4081120D02*
X6133400Y4081120D01*
X12133400Y10081120D02*
X12133400Y4081120D01*
X6133400Y10081120D02*
X12133400Y10081120D01*
X6133400Y7081120D02*
X6133400Y10081120D01*
%TO.C,C1*%
X57423400Y20584520D02*
X57423400Y18084520D01*
X57423400Y18084520D02*
X62423400Y18084520D01*
X62423400Y18084520D02*
X62423400Y20584520D01*
X62423400Y20584520D02*
X57423400Y20584520D01*
%TO.C,C2*%
X62534400Y25618720D02*
X57534400Y25618720D01*
X62534400Y23118720D02*
X62534400Y25618720D01*
X57534400Y23118720D02*
X62534400Y23118720D01*
X57534400Y25618720D02*
X57534400Y23118720D01*
%TO.C,C3*%
X71450400Y38496320D02*
X73950400Y38496320D01*
X73950400Y38496320D02*
X73950400Y45496320D01*
X73950400Y45496320D02*
X71450400Y45496320D01*
X71450400Y45496320D02*
X71450400Y38496320D01*
%TO.C,C4*%
X66050400Y4856120D02*
G75*
G03X66050400Y4856120I-2500000J0D01*
G01*
X62462900Y2722515D02*
X62462900Y3222515D01*
X62212900Y2972515D02*
X62712900Y2972515D01*
%TO.C,C5*%
X37912400Y2106120D02*
X44912400Y2106120D01*
X37912400Y4606120D02*
X37912400Y2106120D01*
X44912400Y4606120D02*
X37912400Y4606120D01*
X44912400Y2106120D02*
X44912400Y4606120D01*
%TO.C,D1*%
X60410400Y39386320D02*
X62410400Y39386320D01*
X60410400Y39586320D02*
X62410400Y39586320D01*
X60410400Y39486320D02*
X62410400Y39486320D01*
X61410400Y44696320D02*
X61410400Y42886320D01*
X61410400Y37076320D02*
X61410400Y38886320D01*
X60410400Y42886320D02*
X60410400Y38886320D01*
X62410400Y42886320D02*
X60410400Y42886320D01*
X62410400Y38886320D02*
X62410400Y42886320D01*
X60410400Y38886320D02*
X62410400Y38886320D01*
%TO.C,D2*%
X65930400Y38886320D02*
X67930400Y38886320D01*
X67930400Y38886320D02*
X67930400Y42886320D01*
X67930400Y42886320D02*
X65930400Y42886320D01*
X65930400Y42886320D02*
X65930400Y38886320D01*
X66930400Y37076320D02*
X66930400Y38886320D01*
X66930400Y44696320D02*
X66930400Y42886320D01*
X65930400Y39486320D02*
X67930400Y39486320D01*
X65930400Y39586320D02*
X67930400Y39586320D01*
X65930400Y39386320D02*
X67930400Y39386320D01*
%TO.C,D3*%
X20004676Y30745065D02*
G75*
G03X17673010Y30745620I-1165476J1500555D01*
G01*
X20339200Y32245620D02*
G75*
G03X20339200Y32245620I-1500000J0D01*
G01*
X17673010Y30745620D02*
X20005390Y30745620D01*
%TO.C,D4*%
X24801010Y30745620D02*
X27133390Y30745620D01*
X27467200Y32245620D02*
G75*
G03X27467200Y32245620I-1500000J0D01*
G01*
X27132676Y30745065D02*
G75*
G03X24801010Y30745620I-1165476J1500555D01*
G01*
%TO.C,D5*%
X50120400Y4606120D02*
X50120400Y2606120D01*
X50120400Y2606120D02*
X54120400Y2606120D01*
X54120400Y2606120D02*
X54120400Y4606120D01*
X54120400Y4606120D02*
X50120400Y4606120D01*
X48310400Y3606120D02*
X50120400Y3606120D01*
X55930400Y3606120D02*
X54120400Y3606120D01*
X50720400Y4606120D02*
X50720400Y2606120D01*
X50820400Y4606120D02*
X50820400Y2606120D01*
X50620400Y4606120D02*
X50620400Y2606120D01*
%TO.C,J2*%
X15951200Y7996120D02*
X16586200Y8631120D01*
X15951200Y3551120D02*
X15951200Y7996120D01*
X18491200Y3551120D02*
X15951200Y3551120D01*
X18491200Y8631120D02*
X18491200Y3551120D01*
X16586200Y8631120D02*
X18491200Y8631120D01*
%TO.C,J3*%
X10609900Y37035420D02*
X10609900Y16675420D01*
X10059900Y36495420D02*
X10059900Y17235420D01*
X1759900Y37035420D02*
X1759900Y16675420D01*
X2309900Y36495420D02*
X2309900Y29105420D01*
X2309900Y24605420D02*
X2309900Y17235420D01*
X2309900Y29105420D02*
X1759900Y29105420D01*
X2309900Y24605420D02*
X1759900Y24605420D01*
X10609900Y37035420D02*
X1759900Y37035420D01*
X10059900Y36495420D02*
X2309900Y36495420D01*
X10609900Y16675420D02*
X1759900Y16675420D01*
X10059900Y17235420D02*
X2309900Y17235420D01*
X10609900Y37035420D02*
X10059900Y36495420D01*
X10609900Y16675420D02*
X10059900Y17235420D01*
X1759900Y37035420D02*
X2309900Y36495420D01*
X1759900Y16675420D02*
X2309900Y17235420D01*
%TO.C,JP1*%
X15127500Y19060020D02*
X17032500Y19060020D01*
X17032500Y19060020D02*
X17032500Y13980020D01*
X17032500Y13980020D02*
X14492500Y13980020D01*
X14492500Y13980020D02*
X14492500Y18425020D01*
X14492500Y18425020D02*
X15127500Y19060020D01*
%TO.C,JP2*%
X31968400Y14605020D02*
X31333400Y13970020D01*
X31968400Y19050020D02*
X31968400Y14605020D01*
X29428400Y19050020D02*
X31968400Y19050020D01*
X29428400Y13970020D02*
X29428400Y19050020D01*
X31333400Y13970020D02*
X29428400Y13970020D01*
%TO.C,JP3*%
X23865500Y13970020D02*
X21960500Y13970020D01*
X21960500Y13970020D02*
X21960500Y19050020D01*
X21960500Y19050020D02*
X24500500Y19050020D01*
X24500500Y19050020D02*
X24500500Y14605020D01*
X24500500Y14605020D02*
X23865500Y13970020D01*
%TO.C,R1*%
X27888800Y4606120D02*
X27888800Y2106120D01*
X27888800Y2106120D02*
X34188800Y2106120D01*
X34188800Y2106120D02*
X34188800Y4606120D01*
X34188800Y4606120D02*
X27888800Y4606120D01*
X27228800Y3356120D02*
X27888800Y3356120D01*
X34848800Y3356120D02*
X34188800Y3356120D01*
%TO.C,R2*%
X49619400Y44696320D02*
X49619400Y44036320D01*
X49619400Y37076320D02*
X49619400Y37736320D01*
X48369400Y44036320D02*
X48369400Y37736320D01*
X50869400Y44036320D02*
X48369400Y44036320D01*
X50869400Y37736320D02*
X50869400Y44036320D01*
X48369400Y37736320D02*
X50869400Y37736320D01*
%TO.C,R3*%
X66949400Y32379920D02*
X66289400Y32379920D01*
X59329400Y32379920D02*
X59989400Y32379920D01*
X66289400Y33629920D02*
X59989400Y33629920D01*
X66289400Y31129920D02*
X66289400Y33629920D01*
X59989400Y31129920D02*
X66289400Y31129920D01*
X59989400Y33629920D02*
X59989400Y31129920D01*
%TO.C,R4*%
X56889400Y44036320D02*
X54389400Y44036320D01*
X54389400Y44036320D02*
X54389400Y37736320D01*
X54389400Y37736320D02*
X56889400Y37736320D01*
X56889400Y37736320D02*
X56889400Y44036320D01*
X55639400Y44696320D02*
X55639400Y44036320D01*
X55639400Y37076320D02*
X55639400Y37736320D01*
%TO.C,R5*%
X18839200Y37076320D02*
X18839200Y37736320D01*
X18839200Y44696320D02*
X18839200Y44036320D01*
X20089200Y37736320D02*
X20089200Y44036320D01*
X17589200Y37736320D02*
X20089200Y37736320D01*
X17589200Y44036320D02*
X17589200Y37736320D01*
X20089200Y44036320D02*
X17589200Y44036320D01*
%TO.C,R6*%
X27217200Y44036320D02*
X24717200Y44036320D01*
X24717200Y44036320D02*
X24717200Y37736320D01*
X24717200Y37736320D02*
X27217200Y37736320D01*
X27217200Y37736320D02*
X27217200Y44036320D01*
X25967200Y44696320D02*
X25967200Y44036320D01*
X25967200Y37076320D02*
X25967200Y37736320D01*
%TO.C,R7*%
X21767400Y8725120D02*
X21767400Y6225120D01*
X21767400Y6225120D02*
X28067400Y6225120D01*
X28067400Y6225120D02*
X28067400Y8725120D01*
X28067400Y8725120D02*
X21767400Y8725120D01*
X21107400Y7475120D02*
X21767400Y7475120D01*
X28727400Y7475120D02*
X28067400Y7475120D01*
%TO.C,U1*%
X42931400Y7991120D02*
X37581400Y7991120D01*
X37581400Y7991120D02*
X37581400Y43551120D01*
X37581400Y43551120D02*
X43931400Y43551120D01*
X43931400Y43551120D02*
X43931400Y8991120D01*
X43931400Y8991120D02*
X42931400Y7991120D01*
%TD*%
%TO.C,J1*%
D11*
X72628260Y25669623D02*
X73437784Y25669623D01*
X73533022Y25717242D01*
X73580641Y25764861D01*
X73628260Y25860100D01*
X73628260Y26050576D01*
X73580641Y26145814D01*
X73533022Y26193433D01*
X73437784Y26241052D01*
X72628260Y26241052D01*
X73580641Y26669623D02*
X73628260Y26812480D01*
X73628260Y27050576D01*
X73580641Y27145814D01*
X73533022Y27193433D01*
X73437784Y27241052D01*
X73342546Y27241052D01*
X73247308Y27193433D01*
X73199689Y27145814D01*
X73152070Y27050576D01*
X73104451Y26860100D01*
X73056832Y26764861D01*
X73009213Y26717242D01*
X72913975Y26669623D01*
X72818737Y26669623D01*
X72723499Y26717242D01*
X72675880Y26764861D01*
X72628260Y26860100D01*
X72628260Y27098195D01*
X72675880Y27241052D01*
X73104451Y28002957D02*
X73152070Y28145814D01*
X73199689Y28193433D01*
X73294927Y28241052D01*
X73437784Y28241052D01*
X73533022Y28193433D01*
X73580641Y28145814D01*
X73628260Y28050576D01*
X73628260Y27669623D01*
X72628260Y27669623D01*
X72628260Y28002957D01*
X72675880Y28098195D01*
X72723499Y28145814D01*
X72818737Y28193433D01*
X72913975Y28193433D01*
X73009213Y28145814D01*
X73056832Y28098195D01*
X73104451Y28002957D01*
X73104451Y27669623D01*
X73723499Y28431528D02*
X73723499Y29193433D01*
X73104451Y29764861D02*
X73152070Y29907719D01*
X73199689Y29955338D01*
X73294927Y30002957D01*
X73437784Y30002957D01*
X73533022Y29955338D01*
X73580641Y29907719D01*
X73628260Y29812480D01*
X73628260Y29431528D01*
X72628260Y29431528D01*
X72628260Y29764861D01*
X72675880Y29860100D01*
X72723499Y29907719D01*
X72818737Y29955338D01*
X72913975Y29955338D01*
X73009213Y29907719D01*
X73056832Y29860100D01*
X73104451Y29764861D01*
X73104451Y29431528D01*
X77378780Y24243187D02*
X78093066Y24243187D01*
X78235923Y24195568D01*
X78331161Y24100330D01*
X78378780Y23957473D01*
X78378780Y23862235D01*
X78378780Y25243187D02*
X78378780Y24671759D01*
X78378780Y24957473D02*
X77378780Y24957473D01*
X77521638Y24862235D01*
X77616876Y24766997D01*
X77664495Y24671759D01*
%TO.C,Y1*%
X56037780Y20077944D02*
X56037780Y19506516D01*
X56037780Y19792230D02*
X55037780Y19792230D01*
X55180638Y19696992D01*
X55275876Y19601754D01*
X55323495Y19506516D01*
X55133019Y20458897D02*
X55085400Y20506516D01*
X55037780Y20601754D01*
X55037780Y20839849D01*
X55085400Y20935087D01*
X55133019Y20982706D01*
X55228257Y21030325D01*
X55323495Y21030325D01*
X55466352Y20982706D01*
X56037780Y20411278D01*
X56037780Y21030325D01*
X56037780Y21458897D02*
X55037780Y21458897D01*
X55752066Y21792230D01*
X55037780Y22125563D01*
X56037780Y22125563D01*
X56037780Y22601754D02*
X55037780Y22601754D01*
X55513971Y22601754D02*
X55513971Y23173182D01*
X56037780Y23173182D02*
X55037780Y23173182D01*
X55371114Y23554135D02*
X55371114Y24077944D01*
X56037780Y23554135D01*
X56037780Y24077944D01*
X51861590Y21292230D02*
X52337780Y21292230D01*
X51337780Y20958897D02*
X51861590Y21292230D01*
X51337780Y21625563D01*
X52337780Y22482706D02*
X52337780Y21911278D01*
X52337780Y22196992D02*
X51337780Y22196992D01*
X51480638Y22101754D01*
X51575876Y22006516D01*
X51623495Y21911278D01*
%TO.C,SW1*%
X14035780Y6128740D02*
X13559590Y5795406D01*
X14035780Y5557311D02*
X13035780Y5557311D01*
X13035780Y5938263D01*
X13083400Y6033501D01*
X13131019Y6081120D01*
X13226257Y6128740D01*
X13369114Y6128740D01*
X13464352Y6081120D01*
X13511971Y6033501D01*
X13559590Y5938263D01*
X13559590Y5557311D01*
X13511971Y6557311D02*
X13511971Y6890644D01*
X14035780Y7033501D02*
X14035780Y6557311D01*
X13035780Y6557311D01*
X13035780Y7033501D01*
X13988161Y7414454D02*
X14035780Y7557311D01*
X14035780Y7795406D01*
X13988161Y7890644D01*
X13940542Y7938263D01*
X13845304Y7985882D01*
X13750066Y7985882D01*
X13654828Y7938263D01*
X13607209Y7890644D01*
X13559590Y7795406D01*
X13511971Y7604930D01*
X13464352Y7509692D01*
X13416733Y7462073D01*
X13321495Y7414454D01*
X13226257Y7414454D01*
X13131019Y7462073D01*
X13083400Y7509692D01*
X13035780Y7604930D01*
X13035780Y7843025D01*
X13083400Y7985882D01*
X13511971Y8414454D02*
X13511971Y8747787D01*
X14035780Y8890644D02*
X14035780Y8414454D01*
X13035780Y8414454D01*
X13035780Y8890644D01*
X13035780Y9176359D02*
X13035780Y9747787D01*
X14035780Y9462073D02*
X13035780Y9462073D01*
X9538161Y5747787D02*
X9585780Y5890644D01*
X9585780Y6128740D01*
X9538161Y6223978D01*
X9490542Y6271597D01*
X9395304Y6319216D01*
X9300066Y6319216D01*
X9204828Y6271597D01*
X9157209Y6223978D01*
X9109590Y6128740D01*
X9061971Y5938263D01*
X9014352Y5843025D01*
X8966733Y5795406D01*
X8871495Y5747787D01*
X8776257Y5747787D01*
X8681019Y5795406D01*
X8633400Y5843025D01*
X8585780Y5938263D01*
X8585780Y6176359D01*
X8633400Y6319216D01*
X8585780Y6652549D02*
X9585780Y6890644D01*
X8871495Y7081120D01*
X9585780Y7271597D01*
X8585780Y7509692D01*
X9585780Y8414454D02*
X9585780Y7843025D01*
X9585780Y8128740D02*
X8585780Y8128740D01*
X8728638Y8033501D01*
X8823876Y7938263D01*
X8871495Y7843025D01*
%TO.C,C1*%
X58280542Y17286901D02*
X58328161Y17334520D01*
X58423400Y17382140D01*
X58661495Y17382140D01*
X58756733Y17334520D01*
X58804352Y17286901D01*
X58851971Y17191663D01*
X58851971Y17096425D01*
X58804352Y16953568D01*
X58232923Y16382140D01*
X58851971Y16382140D01*
X59232923Y17286901D02*
X59280542Y17334520D01*
X59375780Y17382140D01*
X59613876Y17382140D01*
X59709114Y17334520D01*
X59756733Y17286901D01*
X59804352Y17191663D01*
X59804352Y17096425D01*
X59756733Y16953568D01*
X59185304Y16382140D01*
X59804352Y16382140D01*
X60232923Y17048806D02*
X60232923Y16048806D01*
X60232923Y17001187D02*
X60328161Y17048806D01*
X60518638Y17048806D01*
X60613876Y17001187D01*
X60661495Y16953568D01*
X60709114Y16858330D01*
X60709114Y16572616D01*
X60661495Y16477378D01*
X60613876Y16429759D01*
X60518638Y16382140D01*
X60328161Y16382140D01*
X60232923Y16429759D01*
X61471019Y16905949D02*
X61137685Y16905949D01*
X61137685Y16382140D02*
X61137685Y17382140D01*
X61613876Y17382140D01*
X59756733Y18977378D02*
X59709114Y18929759D01*
X59566257Y18882140D01*
X59471019Y18882140D01*
X59328161Y18929759D01*
X59232923Y19024997D01*
X59185304Y19120235D01*
X59137685Y19310711D01*
X59137685Y19453568D01*
X59185304Y19644044D01*
X59232923Y19739282D01*
X59328161Y19834520D01*
X59471019Y19882140D01*
X59566257Y19882140D01*
X59709114Y19834520D01*
X59756733Y19786901D01*
X60709114Y18882140D02*
X60137685Y18882140D01*
X60423400Y18882140D02*
X60423400Y19882140D01*
X60328161Y19739282D01*
X60232923Y19644044D01*
X60137685Y19596425D01*
%TO.C,C2*%
X58391542Y22321101D02*
X58439161Y22368720D01*
X58534400Y22416340D01*
X58772495Y22416340D01*
X58867733Y22368720D01*
X58915352Y22321101D01*
X58962971Y22225863D01*
X58962971Y22130625D01*
X58915352Y21987768D01*
X58343923Y21416340D01*
X58962971Y21416340D01*
X59343923Y22321101D02*
X59391542Y22368720D01*
X59486780Y22416340D01*
X59724876Y22416340D01*
X59820114Y22368720D01*
X59867733Y22321101D01*
X59915352Y22225863D01*
X59915352Y22130625D01*
X59867733Y21987768D01*
X59296304Y21416340D01*
X59915352Y21416340D01*
X60343923Y22083006D02*
X60343923Y21083006D01*
X60343923Y22035387D02*
X60439161Y22083006D01*
X60629638Y22083006D01*
X60724876Y22035387D01*
X60772495Y21987768D01*
X60820114Y21892530D01*
X60820114Y21606816D01*
X60772495Y21511578D01*
X60724876Y21463959D01*
X60629638Y21416340D01*
X60439161Y21416340D01*
X60343923Y21463959D01*
X61582019Y21940149D02*
X61248685Y21940149D01*
X61248685Y21416340D02*
X61248685Y22416340D01*
X61724876Y22416340D01*
X59867733Y24011578D02*
X59820114Y23963959D01*
X59677257Y23916340D01*
X59582019Y23916340D01*
X59439161Y23963959D01*
X59343923Y24059197D01*
X59296304Y24154435D01*
X59248685Y24344911D01*
X59248685Y24487768D01*
X59296304Y24678244D01*
X59343923Y24773482D01*
X59439161Y24868720D01*
X59582019Y24916340D01*
X59677257Y24916340D01*
X59820114Y24868720D01*
X59867733Y24821101D01*
X60248685Y24821101D02*
X60296304Y24868720D01*
X60391542Y24916340D01*
X60629638Y24916340D01*
X60724876Y24868720D01*
X60772495Y24821101D01*
X60820114Y24725863D01*
X60820114Y24630625D01*
X60772495Y24487768D01*
X60201066Y23916340D01*
X60820114Y23916340D01*
%TO.C,C3*%
X75652780Y40877273D02*
X75652780Y40305844D01*
X75652780Y40591559D02*
X74652780Y40591559D01*
X74795638Y40496320D01*
X74890876Y40401082D01*
X74938495Y40305844D01*
X74652780Y41496320D02*
X74652780Y41591559D01*
X74700400Y41686797D01*
X74748019Y41734416D01*
X74843257Y41782035D01*
X75033733Y41829654D01*
X75271828Y41829654D01*
X75462304Y41782035D01*
X75557542Y41734416D01*
X75605161Y41686797D01*
X75652780Y41591559D01*
X75652780Y41496320D01*
X75605161Y41401082D01*
X75557542Y41353463D01*
X75462304Y41305844D01*
X75271828Y41258225D01*
X75033733Y41258225D01*
X74843257Y41305844D01*
X74748019Y41353463D01*
X74700400Y41401082D01*
X74652780Y41496320D01*
X74652780Y42448701D02*
X74652780Y42543940D01*
X74700400Y42639178D01*
X74748019Y42686797D01*
X74843257Y42734416D01*
X75033733Y42782035D01*
X75271828Y42782035D01*
X75462304Y42734416D01*
X75557542Y42686797D01*
X75605161Y42639178D01*
X75652780Y42543940D01*
X75652780Y42448701D01*
X75605161Y42353463D01*
X75557542Y42305844D01*
X75462304Y42258225D01*
X75271828Y42210606D01*
X75033733Y42210606D01*
X74843257Y42258225D01*
X74748019Y42305844D01*
X74700400Y42353463D01*
X74652780Y42448701D01*
X74986114Y43210606D02*
X75652780Y43210606D01*
X75081352Y43210606D02*
X75033733Y43258225D01*
X74986114Y43353463D01*
X74986114Y43496320D01*
X75033733Y43591559D01*
X75128971Y43639178D01*
X75652780Y43639178D01*
X73057542Y41829654D02*
X73105161Y41782035D01*
X73152780Y41639178D01*
X73152780Y41543940D01*
X73105161Y41401082D01*
X73009923Y41305844D01*
X72914685Y41258225D01*
X72724209Y41210606D01*
X72581352Y41210606D01*
X72390876Y41258225D01*
X72295638Y41305844D01*
X72200400Y41401082D01*
X72152780Y41543940D01*
X72152780Y41639178D01*
X72200400Y41782035D01*
X72248019Y41829654D01*
X72152780Y42162987D02*
X72152780Y42782035D01*
X72533733Y42448701D01*
X72533733Y42591559D01*
X72581352Y42686797D01*
X72628971Y42734416D01*
X72724209Y42782035D01*
X72962304Y42782035D01*
X73057542Y42734416D01*
X73105161Y42686797D01*
X73152780Y42591559D01*
X73152780Y42305844D01*
X73105161Y42210606D01*
X73057542Y42162987D01*
%TO.C,C4*%
X67086114Y4118025D02*
X67752780Y4118025D01*
X66705161Y3879930D02*
X67419447Y3641835D01*
X67419447Y4260882D01*
X67086114Y5070406D02*
X67752780Y5070406D01*
X67086114Y4641835D02*
X67609923Y4641835D01*
X67705161Y4689454D01*
X67752780Y4784692D01*
X67752780Y4927549D01*
X67705161Y5022787D01*
X67657542Y5070406D01*
X66752780Y5451359D02*
X66752780Y6118025D01*
X67752780Y5689454D01*
X63907542Y4689454D02*
X63955161Y4641835D01*
X64002780Y4498978D01*
X64002780Y4403740D01*
X63955161Y4260882D01*
X63859923Y4165644D01*
X63764685Y4118025D01*
X63574209Y4070406D01*
X63431352Y4070406D01*
X63240876Y4118025D01*
X63145638Y4165644D01*
X63050400Y4260882D01*
X63002780Y4403740D01*
X63002780Y4498978D01*
X63050400Y4641835D01*
X63098019Y4689454D01*
X63336114Y5546597D02*
X64002780Y5546597D01*
X62955161Y5308501D02*
X63669447Y5070406D01*
X63669447Y5689454D01*
%TO.C,C5*%
X40293352Y5403740D02*
X39721923Y5403740D01*
X40007638Y5403740D02*
X40007638Y6403740D01*
X39912400Y6260882D01*
X39817161Y6165644D01*
X39721923Y6118025D01*
X40912400Y6403740D02*
X41007638Y6403740D01*
X41102876Y6356120D01*
X41150495Y6308501D01*
X41198114Y6213263D01*
X41245733Y6022787D01*
X41245733Y5784692D01*
X41198114Y5594216D01*
X41150495Y5498978D01*
X41102876Y5451359D01*
X41007638Y5403740D01*
X40912400Y5403740D01*
X40817161Y5451359D01*
X40769542Y5498978D01*
X40721923Y5594216D01*
X40674304Y5784692D01*
X40674304Y6022787D01*
X40721923Y6213263D01*
X40769542Y6308501D01*
X40817161Y6356120D01*
X40912400Y6403740D01*
X41864780Y6403740D02*
X41960019Y6403740D01*
X42055257Y6356120D01*
X42102876Y6308501D01*
X42150495Y6213263D01*
X42198114Y6022787D01*
X42198114Y5784692D01*
X42150495Y5594216D01*
X42102876Y5498978D01*
X42055257Y5451359D01*
X41960019Y5403740D01*
X41864780Y5403740D01*
X41769542Y5451359D01*
X41721923Y5498978D01*
X41674304Y5594216D01*
X41626685Y5784692D01*
X41626685Y6022787D01*
X41674304Y6213263D01*
X41721923Y6308501D01*
X41769542Y6356120D01*
X41864780Y6403740D01*
X42626685Y6070406D02*
X42626685Y5403740D01*
X42626685Y5975168D02*
X42674304Y6022787D01*
X42769542Y6070406D01*
X42912400Y6070406D01*
X43007638Y6022787D01*
X43055257Y5927549D01*
X43055257Y5403740D01*
X41245733Y2998978D02*
X41198114Y2951359D01*
X41055257Y2903740D01*
X40960019Y2903740D01*
X40817161Y2951359D01*
X40721923Y3046597D01*
X40674304Y3141835D01*
X40626685Y3332311D01*
X40626685Y3475168D01*
X40674304Y3665644D01*
X40721923Y3760882D01*
X40817161Y3856120D01*
X40960019Y3903740D01*
X41055257Y3903740D01*
X41198114Y3856120D01*
X41245733Y3808501D01*
X42150495Y3903740D02*
X41674304Y3903740D01*
X41626685Y3427549D01*
X41674304Y3475168D01*
X41769542Y3522787D01*
X42007638Y3522787D01*
X42102876Y3475168D01*
X42150495Y3427549D01*
X42198114Y3332311D01*
X42198114Y3094216D01*
X42150495Y2998978D01*
X42102876Y2951359D01*
X42007638Y2903740D01*
X41769542Y2903740D01*
X41674304Y2951359D01*
X41626685Y2998978D01*
%TO.C,D1*%
X62982780Y39648225D02*
X62982780Y40267273D01*
X63363733Y39933940D01*
X63363733Y40076797D01*
X63411352Y40172035D01*
X63458971Y40219654D01*
X63554209Y40267273D01*
X63792304Y40267273D01*
X63887542Y40219654D01*
X63935161Y40172035D01*
X63982780Y40076797D01*
X63982780Y39791082D01*
X63935161Y39695844D01*
X63887542Y39648225D01*
X62982780Y40552987D02*
X63982780Y40886320D01*
X62982780Y41219654D01*
X62982780Y41981559D02*
X62982780Y41791082D01*
X63030400Y41695844D01*
X63078019Y41648225D01*
X63220876Y41552987D01*
X63411352Y41505368D01*
X63792304Y41505368D01*
X63887542Y41552987D01*
X63935161Y41600606D01*
X63982780Y41695844D01*
X63982780Y41886320D01*
X63935161Y41981559D01*
X63887542Y42029178D01*
X63792304Y42076797D01*
X63554209Y42076797D01*
X63458971Y42029178D01*
X63411352Y41981559D01*
X63363733Y41886320D01*
X63363733Y41695844D01*
X63411352Y41600606D01*
X63458971Y41552987D01*
X63554209Y41505368D01*
X60062780Y36814416D02*
X59062780Y36814416D01*
X60062780Y37385844D02*
X59491352Y36957273D01*
X59062780Y37385844D02*
X59634209Y36814416D01*
D12*
X61772304Y40595844D02*
X60972304Y40595844D01*
X60972304Y40786320D01*
X61010400Y40900606D01*
X61086590Y40976797D01*
X61162780Y41014892D01*
X61315161Y41052987D01*
X61429447Y41052987D01*
X61581828Y41014892D01*
X61658019Y40976797D01*
X61734209Y40900606D01*
X61772304Y40786320D01*
X61772304Y40595844D01*
X61772304Y41814892D02*
X61772304Y41357749D01*
X61772304Y41586320D02*
X60972304Y41586320D01*
X61086590Y41510130D01*
X61162780Y41433940D01*
X61200876Y41357749D01*
%TO.C,D2*%
D11*
X68502780Y39648225D02*
X68502780Y40267273D01*
X68883733Y39933940D01*
X68883733Y40076797D01*
X68931352Y40172035D01*
X68978971Y40219654D01*
X69074209Y40267273D01*
X69312304Y40267273D01*
X69407542Y40219654D01*
X69455161Y40172035D01*
X69502780Y40076797D01*
X69502780Y39791082D01*
X69455161Y39695844D01*
X69407542Y39648225D01*
X68502780Y40552987D02*
X69502780Y40886320D01*
X68502780Y41219654D01*
X68502780Y41981559D02*
X68502780Y41791082D01*
X68550400Y41695844D01*
X68598019Y41648225D01*
X68740876Y41552987D01*
X68931352Y41505368D01*
X69312304Y41505368D01*
X69407542Y41552987D01*
X69455161Y41600606D01*
X69502780Y41695844D01*
X69502780Y41886320D01*
X69455161Y41981559D01*
X69407542Y42029178D01*
X69312304Y42076797D01*
X69074209Y42076797D01*
X68978971Y42029178D01*
X68931352Y41981559D01*
X68883733Y41886320D01*
X68883733Y41695844D01*
X68931352Y41600606D01*
X68978971Y41552987D01*
X69074209Y41505368D01*
D12*
X66339923Y40824416D02*
X66339923Y41624416D01*
X66530400Y41624416D01*
X66644685Y41586320D01*
X66720876Y41510130D01*
X66758971Y41433940D01*
X66797066Y41281559D01*
X66797066Y41167273D01*
X66758971Y41014892D01*
X66720876Y40938701D01*
X66644685Y40862511D01*
X66530400Y40824416D01*
X66339923Y40824416D01*
X67101828Y41548225D02*
X67139923Y41586320D01*
X67216114Y41624416D01*
X67406590Y41624416D01*
X67482780Y41586320D01*
X67520876Y41548225D01*
X67558971Y41472035D01*
X67558971Y41395844D01*
X67520876Y41281559D01*
X67063733Y40824416D01*
X67558971Y40824416D01*
D11*
X65582780Y36814416D02*
X64582780Y36814416D01*
X65582780Y37385844D02*
X65011352Y36957273D01*
X64582780Y37385844D02*
X65154209Y36814416D01*
%TO.C,D3*%
X22251580Y31293240D02*
X21584914Y31293240D01*
X21775390Y31293240D02*
X21680152Y31340859D01*
X21632533Y31388478D01*
X21584914Y31483716D01*
X21584914Y31578954D01*
X22203961Y32293240D02*
X22251580Y32198001D01*
X22251580Y32007525D01*
X22203961Y31912287D01*
X22108723Y31864668D01*
X21727771Y31864668D01*
X21632533Y31912287D01*
X21584914Y32007525D01*
X21584914Y32198001D01*
X21632533Y32293240D01*
X21727771Y32340859D01*
X21823009Y32340859D01*
X21918247Y31864668D01*
X22251580Y33198001D02*
X21251580Y33198001D01*
X22203961Y33198001D02*
X22251580Y33102763D01*
X22251580Y32912287D01*
X22203961Y32817049D01*
X22156342Y32769430D01*
X22061104Y32721811D01*
X21775390Y32721811D01*
X21680152Y32769430D01*
X21632533Y32817049D01*
X21584914Y32912287D01*
X21584914Y33102763D01*
X21632533Y33198001D01*
%TO.C,D4*%
X28712914Y30840859D02*
X29522438Y30840859D01*
X29617676Y30793240D01*
X29665295Y30745620D01*
X29712914Y30650382D01*
X29712914Y30507525D01*
X29665295Y30412287D01*
X29331961Y30840859D02*
X29379580Y30745620D01*
X29379580Y30555144D01*
X29331961Y30459906D01*
X29284342Y30412287D01*
X29189104Y30364668D01*
X28903390Y30364668D01*
X28808152Y30412287D01*
X28760533Y30459906D01*
X28712914Y30555144D01*
X28712914Y30745620D01*
X28760533Y30840859D01*
X29379580Y31317049D02*
X28712914Y31317049D01*
X28903390Y31317049D02*
X28808152Y31364668D01*
X28760533Y31412287D01*
X28712914Y31507525D01*
X28712914Y31602763D01*
X29331961Y32317049D02*
X29379580Y32221811D01*
X29379580Y32031335D01*
X29331961Y31936097D01*
X29236723Y31888478D01*
X28855771Y31888478D01*
X28760533Y31936097D01*
X28712914Y32031335D01*
X28712914Y32221811D01*
X28760533Y32317049D01*
X28855771Y32364668D01*
X28951009Y32364668D01*
X29046247Y31888478D01*
X29331961Y33174192D02*
X29379580Y33078954D01*
X29379580Y32888478D01*
X29331961Y32793240D01*
X29236723Y32745620D01*
X28855771Y32745620D01*
X28760533Y32793240D01*
X28712914Y32888478D01*
X28712914Y33078954D01*
X28760533Y33174192D01*
X28855771Y33221811D01*
X28951009Y33221811D01*
X29046247Y32745620D01*
X28712914Y33650382D02*
X29379580Y33650382D01*
X28808152Y33650382D02*
X28760533Y33698001D01*
X28712914Y33793240D01*
X28712914Y33936097D01*
X28760533Y34031335D01*
X28855771Y34078954D01*
X29379580Y34078954D01*
%TO.C,D5*%
X49977542Y1033740D02*
X49406114Y1033740D01*
X49691828Y1033740D02*
X49691828Y2033740D01*
X49596590Y1890882D01*
X49501352Y1795644D01*
X49406114Y1748025D01*
X50406114Y1033740D02*
X50406114Y2033740D01*
X50977542Y1033740D01*
X50977542Y2033740D01*
X51882304Y1700406D02*
X51882304Y1033740D01*
X51644209Y2081359D02*
X51406114Y1367073D01*
X52025161Y1367073D01*
X52929923Y1033740D02*
X52358495Y1033740D01*
X52644209Y1033740D02*
X52644209Y2033740D01*
X52548971Y1890882D01*
X52453733Y1795644D01*
X52358495Y1748025D01*
X53787066Y1700406D02*
X53787066Y1033740D01*
X53548971Y2081359D02*
X53310876Y1367073D01*
X53929923Y1367073D01*
X54453733Y1605168D02*
X54358495Y1652787D01*
X54310876Y1700406D01*
X54263257Y1795644D01*
X54263257Y1843263D01*
X54310876Y1938501D01*
X54358495Y1986120D01*
X54453733Y2033740D01*
X54644209Y2033740D01*
X54739447Y1986120D01*
X54787066Y1938501D01*
X54834685Y1843263D01*
X54834685Y1795644D01*
X54787066Y1700406D01*
X54739447Y1652787D01*
X54644209Y1605168D01*
X54453733Y1605168D01*
X54358495Y1557549D01*
X54310876Y1509930D01*
X54263257Y1414692D01*
X54263257Y1224216D01*
X54310876Y1128978D01*
X54358495Y1081359D01*
X54453733Y1033740D01*
X54644209Y1033740D01*
X54739447Y1081359D01*
X54787066Y1128978D01*
X54834685Y1224216D01*
X54834685Y1414692D01*
X54787066Y1509930D01*
X54739447Y1557549D01*
X54644209Y1605168D01*
D12*
X51829923Y3244216D02*
X51829923Y4044216D01*
X52020400Y4044216D01*
X52134685Y4006120D01*
X52210876Y3929930D01*
X52248971Y3853740D01*
X52287066Y3701359D01*
X52287066Y3587073D01*
X52248971Y3434692D01*
X52210876Y3358501D01*
X52134685Y3282311D01*
X52020400Y3244216D01*
X51829923Y3244216D01*
X53010876Y4044216D02*
X52629923Y4044216D01*
X52591828Y3663263D01*
X52629923Y3701359D01*
X52706114Y3739454D01*
X52896590Y3739454D01*
X52972780Y3701359D01*
X53010876Y3663263D01*
X53048971Y3587073D01*
X53048971Y3396597D01*
X53010876Y3320406D01*
X52972780Y3282311D01*
X52896590Y3244216D01*
X52706114Y3244216D01*
X52629923Y3282311D01*
X52591828Y3320406D01*
D11*
X48048495Y4953740D02*
X48048495Y5953740D01*
X48619923Y4953740D02*
X48191352Y5525168D01*
X48619923Y5953740D02*
X48048495Y5382311D01*
%TO.C,J2*%
X14245009Y3038740D02*
X14816438Y3038740D01*
X14530723Y2038740D02*
X14530723Y3038740D01*
X15054533Y2038740D02*
X15578342Y2705406D01*
X15054533Y2705406D02*
X15578342Y2038740D01*
X15959295Y2038740D02*
X15959295Y3038740D01*
X16197390Y3038740D01*
X16340247Y2991120D01*
X16435485Y2895882D01*
X16483104Y2800644D01*
X16530723Y2610168D01*
X16530723Y2467311D01*
X16483104Y2276835D01*
X16435485Y2181597D01*
X16340247Y2086359D01*
X16197390Y2038740D01*
X15959295Y2038740D01*
X18292628Y2038740D02*
X17959295Y2514930D01*
X17721200Y2038740D02*
X17721200Y3038740D01*
X18102152Y3038740D01*
X18197390Y2991120D01*
X18245009Y2943501D01*
X18292628Y2848263D01*
X18292628Y2705406D01*
X18245009Y2610168D01*
X18197390Y2562549D01*
X18102152Y2514930D01*
X17721200Y2514930D01*
X18625961Y2038740D02*
X19149771Y2705406D01*
X18625961Y2705406D02*
X19149771Y2038740D01*
X19530723Y2038740D02*
X19530723Y3038740D01*
X19768819Y3038740D01*
X19911676Y2991120D01*
X20006914Y2895882D01*
X20054533Y2800644D01*
X20102152Y2610168D01*
X20102152Y2467311D01*
X20054533Y2276835D01*
X20006914Y2181597D01*
X19911676Y2086359D01*
X19768819Y2038740D01*
X19530723Y2038740D01*
X17768819Y6424454D02*
X17054533Y6424454D01*
X16911676Y6472073D01*
X16816438Y6567311D01*
X16768819Y6710168D01*
X16768819Y6805406D01*
X17673580Y5995882D02*
X17721200Y5948263D01*
X17768819Y5853025D01*
X17768819Y5614930D01*
X17721200Y5519692D01*
X17673580Y5472073D01*
X17578342Y5424454D01*
X17483104Y5424454D01*
X17340247Y5472073D01*
X16768819Y6043501D01*
X16768819Y5424454D01*
%TO.C,J3*%
X1613471Y15004754D02*
X2089661Y15004754D01*
X1518233Y14719040D02*
X1851566Y15719040D01*
X2184900Y14719040D01*
X2375376Y15719040D02*
X2708709Y14719040D01*
X3042042Y15719040D01*
X3946804Y14719040D02*
X3613471Y15195230D01*
X3375376Y14719040D02*
X3375376Y15719040D01*
X3756328Y15719040D01*
X3851566Y15671420D01*
X3899185Y15623801D01*
X3946804Y15528563D01*
X3946804Y15385706D01*
X3899185Y15290468D01*
X3851566Y15242849D01*
X3756328Y15195230D01*
X3375376Y15195230D01*
X4375376Y15099992D02*
X5137280Y15099992D01*
X5613471Y14719040D02*
X5613471Y15719040D01*
X6042042Y14766659D02*
X6184900Y14719040D01*
X6422995Y14719040D01*
X6518233Y14766659D01*
X6565852Y14814278D01*
X6613471Y14909516D01*
X6613471Y15004754D01*
X6565852Y15099992D01*
X6518233Y15147611D01*
X6422995Y15195230D01*
X6232519Y15242849D01*
X6137280Y15290468D01*
X6089661Y15338087D01*
X6042042Y15433325D01*
X6042042Y15528563D01*
X6089661Y15623801D01*
X6137280Y15671420D01*
X6232519Y15719040D01*
X6470614Y15719040D01*
X6613471Y15671420D01*
X7042042Y14719040D02*
X7042042Y15719040D01*
X7422995Y15719040D01*
X7518233Y15671420D01*
X7565852Y15623801D01*
X7613471Y15528563D01*
X7613471Y15385706D01*
X7565852Y15290468D01*
X7518233Y15242849D01*
X7422995Y15195230D01*
X7042042Y15195230D01*
X8042042Y15099992D02*
X8803947Y15099992D01*
X9803947Y14719040D02*
X9232519Y14719040D01*
X9518233Y14719040D02*
X9518233Y15719040D01*
X9422995Y15576182D01*
X9327757Y15480944D01*
X9232519Y15433325D01*
X10422995Y15719040D02*
X10518233Y15719040D01*
X10613471Y15671420D01*
X10661090Y15623801D01*
X10708709Y15528563D01*
X10756328Y15338087D01*
X10756328Y15099992D01*
X10708709Y14909516D01*
X10661090Y14814278D01*
X10613471Y14766659D01*
X10518233Y14719040D01*
X10422995Y14719040D01*
X10327757Y14766659D01*
X10280138Y14814278D01*
X10232519Y14909516D01*
X10184900Y15099992D01*
X10184900Y15338087D01*
X10232519Y15528563D01*
X10280138Y15623801D01*
X10327757Y15671420D01*
X10422995Y15719040D01*
X5851566Y27403040D02*
X5851566Y26688754D01*
X5803947Y26545897D01*
X5708709Y26450659D01*
X5565852Y26403040D01*
X5470614Y26403040D01*
X6232519Y27403040D02*
X6851566Y27403040D01*
X6518233Y27022087D01*
X6661090Y27022087D01*
X6756328Y26974468D01*
X6803947Y26926849D01*
X6851566Y26831611D01*
X6851566Y26593516D01*
X6803947Y26498278D01*
X6756328Y26450659D01*
X6661090Y26403040D01*
X6375376Y26403040D01*
X6280138Y26450659D01*
X6232519Y26498278D01*
%TO.C,JP1*%
X13418981Y12294697D02*
X13466600Y12389935D01*
X13466600Y12580411D01*
X13418981Y12675649D01*
X13323743Y12723268D01*
X13276124Y12723268D01*
X13180886Y12675649D01*
X13133267Y12580411D01*
X13133267Y12437554D01*
X13085648Y12342316D01*
X12990410Y12294697D01*
X12942791Y12294697D01*
X12847553Y12342316D01*
X12799934Y12437554D01*
X12799934Y12580411D01*
X12847553Y12675649D01*
X12799934Y13580411D02*
X13466600Y13580411D01*
X12799934Y13151840D02*
X13323743Y13151840D01*
X13418981Y13199459D01*
X13466600Y13294697D01*
X13466600Y13437554D01*
X13418981Y13532792D01*
X13371362Y13580411D01*
X12799934Y14056601D02*
X13799934Y14056601D01*
X12847553Y14056601D02*
X12799934Y14151840D01*
X12799934Y14342316D01*
X12847553Y14437554D01*
X12895172Y14485173D01*
X12990410Y14532792D01*
X13276124Y14532792D01*
X13371362Y14485173D01*
X13418981Y14437554D01*
X13466600Y14342316D01*
X13466600Y14151840D01*
X13418981Y14056601D01*
X12799934Y14961363D02*
X13799934Y14961363D01*
X12847553Y14961363D02*
X12799934Y15056601D01*
X12799934Y15247078D01*
X12847553Y15342316D01*
X12895172Y15389935D01*
X12990410Y15437554D01*
X13276124Y15437554D01*
X13371362Y15389935D01*
X13418981Y15342316D01*
X13466600Y15247078D01*
X13466600Y15056601D01*
X13418981Y14961363D01*
X13466600Y16008982D02*
X13418981Y15913744D01*
X13323743Y15866125D01*
X12466600Y15866125D01*
X12799934Y16294697D02*
X13466600Y16532792D01*
X12799934Y16770887D02*
X13466600Y16532792D01*
X13704696Y16437554D01*
X13752315Y16389935D01*
X13799934Y16294697D01*
X12799934Y17770887D02*
X12799934Y18151840D01*
X12466600Y17913744D02*
X13323743Y17913744D01*
X13418981Y17961363D01*
X13466600Y18056601D01*
X13466600Y18151840D01*
X13466600Y18913744D02*
X12942791Y18913744D01*
X12847553Y18866125D01*
X12799934Y18770887D01*
X12799934Y18580411D01*
X12847553Y18485173D01*
X13418981Y18913744D02*
X13466600Y18818506D01*
X13466600Y18580411D01*
X13418981Y18485173D01*
X13323743Y18437554D01*
X13228505Y18437554D01*
X13133267Y18485173D01*
X13085648Y18580411D01*
X13085648Y18818506D01*
X13038029Y18913744D01*
X13466600Y19389935D02*
X12799934Y19389935D01*
X12990410Y19389935D02*
X12895172Y19437554D01*
X12847553Y19485173D01*
X12799934Y19580411D01*
X12799934Y19675649D01*
X12799934Y20437554D02*
X13609458Y20437554D01*
X13704696Y20389935D01*
X13752315Y20342316D01*
X13799934Y20247078D01*
X13799934Y20104220D01*
X13752315Y20008982D01*
X13418981Y20437554D02*
X13466600Y20342316D01*
X13466600Y20151840D01*
X13418981Y20056601D01*
X13371362Y20008982D01*
X13276124Y19961363D01*
X12990410Y19961363D01*
X12895172Y20008982D01*
X12847553Y20056601D01*
X12799934Y20151840D01*
X12799934Y20342316D01*
X12847553Y20437554D01*
X13418981Y21294697D02*
X13466600Y21199459D01*
X13466600Y21008982D01*
X13418981Y20913744D01*
X13323743Y20866125D01*
X12942791Y20866125D01*
X12847553Y20913744D01*
X12799934Y21008982D01*
X12799934Y21199459D01*
X12847553Y21294697D01*
X12942791Y21342316D01*
X13038029Y21342316D01*
X13133267Y20866125D01*
X12799934Y21628030D02*
X12799934Y22008982D01*
X12466600Y21770887D02*
X13323743Y21770887D01*
X13418981Y21818506D01*
X13466600Y21913744D01*
X13466600Y22008982D01*
X15214880Y15686687D02*
X15929166Y15686687D01*
X16072023Y15639068D01*
X16167261Y15543830D01*
X16214880Y15400973D01*
X16214880Y15305735D01*
X16214880Y16162878D02*
X15214880Y16162878D01*
X15214880Y16543830D01*
X15262500Y16639068D01*
X15310119Y16686687D01*
X15405357Y16734306D01*
X15548214Y16734306D01*
X15643452Y16686687D01*
X15691071Y16639068D01*
X15738690Y16543830D01*
X15738690Y16162878D01*
X16214880Y17686687D02*
X16214880Y17115259D01*
X16214880Y17400973D02*
X15214880Y17400973D01*
X15357738Y17305735D01*
X15452976Y17210497D01*
X15500595Y17115259D01*
%TO.C,JP2*%
X27806241Y12753457D02*
X27853860Y12848695D01*
X27853860Y13039171D01*
X27806241Y13134409D01*
X27711003Y13182028D01*
X27663384Y13182028D01*
X27568146Y13134409D01*
X27520527Y13039171D01*
X27520527Y12896314D01*
X27472908Y12801076D01*
X27377670Y12753457D01*
X27330051Y12753457D01*
X27234813Y12801076D01*
X27187194Y12896314D01*
X27187194Y13039171D01*
X27234813Y13134409D01*
X27853860Y13753457D02*
X27806241Y13658219D01*
X27711003Y13610600D01*
X26853860Y13610600D01*
X27853860Y14277266D02*
X27806241Y14182028D01*
X27758622Y14134409D01*
X27663384Y14086790D01*
X27377670Y14086790D01*
X27282432Y14134409D01*
X27234813Y14182028D01*
X27187194Y14277266D01*
X27187194Y14420123D01*
X27234813Y14515361D01*
X27282432Y14562980D01*
X27377670Y14610600D01*
X27663384Y14610600D01*
X27758622Y14562980D01*
X27806241Y14515361D01*
X27853860Y14420123D01*
X27853860Y14277266D01*
X27187194Y14943933D02*
X27853860Y15134409D01*
X27377670Y15324885D01*
X27853860Y15515361D01*
X27187194Y15705838D01*
X27806241Y16801076D02*
X27853860Y16943933D01*
X27853860Y17182028D01*
X27806241Y17277266D01*
X27758622Y17324885D01*
X27663384Y17372504D01*
X27568146Y17372504D01*
X27472908Y17324885D01*
X27425289Y17277266D01*
X27377670Y17182028D01*
X27330051Y16991552D01*
X27282432Y16896314D01*
X27234813Y16848695D01*
X27139575Y16801076D01*
X27044337Y16801076D01*
X26949099Y16848695D01*
X26901480Y16896314D01*
X26853860Y16991552D01*
X26853860Y17229647D01*
X26901480Y17372504D01*
X27758622Y18372504D02*
X27806241Y18324885D01*
X27853860Y18182028D01*
X27853860Y18086790D01*
X27806241Y17943933D01*
X27711003Y17848695D01*
X27615765Y17801076D01*
X27425289Y17753457D01*
X27282432Y17753457D01*
X27091956Y17801076D01*
X26996718Y17848695D01*
X26901480Y17943933D01*
X26853860Y18086790D01*
X26853860Y18182028D01*
X26901480Y18324885D01*
X26949099Y18372504D01*
X27853860Y18801076D02*
X26853860Y18801076D01*
X27853860Y19372504D02*
X27282432Y18943933D01*
X26853860Y19372504D02*
X27425289Y18801076D01*
X30150780Y15676687D02*
X30865066Y15676687D01*
X31007923Y15629068D01*
X31103161Y15533830D01*
X31150780Y15390973D01*
X31150780Y15295735D01*
X31150780Y16152878D02*
X30150780Y16152878D01*
X30150780Y16533830D01*
X30198400Y16629068D01*
X30246019Y16676687D01*
X30341257Y16724306D01*
X30484114Y16724306D01*
X30579352Y16676687D01*
X30626971Y16629068D01*
X30674590Y16533830D01*
X30674590Y16152878D01*
X30246019Y17105259D02*
X30198400Y17152878D01*
X30150780Y17248116D01*
X30150780Y17486211D01*
X30198400Y17581449D01*
X30246019Y17629068D01*
X30341257Y17676687D01*
X30436495Y17676687D01*
X30579352Y17629068D01*
X31150780Y17057640D01*
X31150780Y17676687D01*
%TO.C,JP3*%
X20539181Y9861110D02*
X20586800Y9956348D01*
X20586800Y10146824D01*
X20539181Y10242062D01*
X20443943Y10289681D01*
X20396324Y10289681D01*
X20301086Y10242062D01*
X20253467Y10146824D01*
X20253467Y10003967D01*
X20205848Y9908729D01*
X20110610Y9861110D01*
X20062991Y9861110D01*
X19967753Y9908729D01*
X19920134Y10003967D01*
X19920134Y10146824D01*
X19967753Y10242062D01*
X20539181Y11099205D02*
X20586800Y11003967D01*
X20586800Y10813491D01*
X20539181Y10718253D01*
X20443943Y10670634D01*
X20062991Y10670634D01*
X19967753Y10718253D01*
X19920134Y10813491D01*
X19920134Y11003967D01*
X19967753Y11099205D01*
X20062991Y11146824D01*
X20158229Y11146824D01*
X20253467Y10670634D01*
X20586800Y11718253D02*
X20539181Y11623015D01*
X20443943Y11575396D01*
X19586800Y11575396D01*
X19920134Y11956348D02*
X19920134Y12337300D01*
X20586800Y12099205D02*
X19729658Y12099205D01*
X19634420Y12146824D01*
X19586800Y12242062D01*
X19586800Y12337300D01*
X19920134Y13432539D02*
X20920134Y13432539D01*
X19967753Y13432539D02*
X19920134Y13527777D01*
X19920134Y13718253D01*
X19967753Y13813491D01*
X20015372Y13861110D01*
X20110610Y13908729D01*
X20396324Y13908729D01*
X20491562Y13861110D01*
X20539181Y13813491D01*
X20586800Y13718253D01*
X20586800Y13527777D01*
X20539181Y13432539D01*
X20586800Y14337300D02*
X19920134Y14337300D01*
X20110610Y14337300D02*
X20015372Y14384920D01*
X19967753Y14432539D01*
X19920134Y14527777D01*
X19920134Y14623015D01*
X20586800Y15099205D02*
X20539181Y15003967D01*
X20491562Y14956348D01*
X20396324Y14908729D01*
X20110610Y14908729D01*
X20015372Y14956348D01*
X19967753Y15003967D01*
X19920134Y15099205D01*
X19920134Y15242062D01*
X19967753Y15337300D01*
X20015372Y15384920D01*
X20110610Y15432539D01*
X20396324Y15432539D01*
X20491562Y15384920D01*
X20539181Y15337300D01*
X20586800Y15242062D01*
X20586800Y15099205D01*
X19920134Y16289681D02*
X20729658Y16289681D01*
X20824896Y16242062D01*
X20872515Y16194443D01*
X20920134Y16099205D01*
X20920134Y15956348D01*
X20872515Y15861110D01*
X20539181Y16289681D02*
X20586800Y16194443D01*
X20586800Y16003967D01*
X20539181Y15908729D01*
X20491562Y15861110D01*
X20396324Y15813491D01*
X20110610Y15813491D01*
X20015372Y15861110D01*
X19967753Y15908729D01*
X19920134Y16003967D01*
X19920134Y16194443D01*
X19967753Y16289681D01*
X20586800Y16765872D02*
X19920134Y16765872D01*
X20110610Y16765872D02*
X20015372Y16813491D01*
X19967753Y16861110D01*
X19920134Y16956348D01*
X19920134Y17051586D01*
X20586800Y17813491D02*
X20062991Y17813491D01*
X19967753Y17765872D01*
X19920134Y17670634D01*
X19920134Y17480158D01*
X19967753Y17384920D01*
X20539181Y17813491D02*
X20586800Y17718253D01*
X20586800Y17480158D01*
X20539181Y17384920D01*
X20443943Y17337300D01*
X20348705Y17337300D01*
X20253467Y17384920D01*
X20205848Y17480158D01*
X20205848Y17718253D01*
X20158229Y17813491D01*
X20586800Y18289681D02*
X19920134Y18289681D01*
X20015372Y18289681D02*
X19967753Y18337300D01*
X19920134Y18432539D01*
X19920134Y18575396D01*
X19967753Y18670634D01*
X20062991Y18718253D01*
X20586800Y18718253D01*
X20062991Y18718253D02*
X19967753Y18765872D01*
X19920134Y18861110D01*
X19920134Y19003967D01*
X19967753Y19099205D01*
X20062991Y19146824D01*
X20586800Y19146824D01*
X20586800Y19623015D02*
X19920134Y19623015D01*
X20015372Y19623015D02*
X19967753Y19670634D01*
X19920134Y19765872D01*
X19920134Y19908729D01*
X19967753Y20003967D01*
X20062991Y20051586D01*
X20586800Y20051586D01*
X20062991Y20051586D02*
X19967753Y20099205D01*
X19920134Y20194443D01*
X19920134Y20337300D01*
X19967753Y20432539D01*
X20062991Y20480158D01*
X20586800Y20480158D01*
X20586800Y20956348D02*
X19920134Y20956348D01*
X19586800Y20956348D02*
X19634420Y20908729D01*
X19682039Y20956348D01*
X19634420Y21003967D01*
X19586800Y20956348D01*
X19682039Y20956348D01*
X19920134Y21432539D02*
X20586800Y21432539D01*
X20015372Y21432539D02*
X19967753Y21480158D01*
X19920134Y21575396D01*
X19920134Y21718253D01*
X19967753Y21813491D01*
X20062991Y21861110D01*
X20586800Y21861110D01*
X19920134Y22765872D02*
X20729658Y22765872D01*
X20824896Y22718253D01*
X20872515Y22670634D01*
X20920134Y22575396D01*
X20920134Y22432539D01*
X20872515Y22337300D01*
X20539181Y22765872D02*
X20586800Y22670634D01*
X20586800Y22480158D01*
X20539181Y22384920D01*
X20491562Y22337300D01*
X20396324Y22289681D01*
X20110610Y22289681D01*
X20015372Y22337300D01*
X19967753Y22384920D01*
X19920134Y22480158D01*
X19920134Y22670634D01*
X19967753Y22765872D01*
X22682880Y15676687D02*
X23397166Y15676687D01*
X23540023Y15629068D01*
X23635261Y15533830D01*
X23682880Y15390973D01*
X23682880Y15295735D01*
X23682880Y16152878D02*
X22682880Y16152878D01*
X22682880Y16533830D01*
X22730500Y16629068D01*
X22778119Y16676687D01*
X22873357Y16724306D01*
X23016214Y16724306D01*
X23111452Y16676687D01*
X23159071Y16629068D01*
X23206690Y16533830D01*
X23206690Y16152878D01*
X22682880Y17057640D02*
X22682880Y17676687D01*
X23063833Y17343354D01*
X23063833Y17486211D01*
X23111452Y17581449D01*
X23159071Y17629068D01*
X23254309Y17676687D01*
X23492404Y17676687D01*
X23587642Y17629068D01*
X23635261Y17581449D01*
X23682880Y17486211D01*
X23682880Y17200497D01*
X23635261Y17105259D01*
X23587642Y17057640D01*
%TO.C,R1*%
X30348323Y1200406D02*
X30348323Y533740D01*
X30110228Y1581359D02*
X29872133Y867073D01*
X30491180Y867073D01*
X30872133Y533740D02*
X30872133Y1533740D01*
X30967371Y914692D02*
X31253085Y533740D01*
X31253085Y1200406D02*
X30872133Y819454D01*
X31586419Y1533740D02*
X32253085Y1533740D01*
X31824514Y533740D01*
X30872133Y2903740D02*
X30538800Y3379930D01*
X30300704Y2903740D02*
X30300704Y3903740D01*
X30681657Y3903740D01*
X30776895Y3856120D01*
X30824514Y3808501D01*
X30872133Y3713263D01*
X30872133Y3570406D01*
X30824514Y3475168D01*
X30776895Y3427549D01*
X30681657Y3379930D01*
X30300704Y3379930D01*
X31824514Y2903740D02*
X31253085Y2903740D01*
X31538800Y2903740D02*
X31538800Y3903740D01*
X31443561Y3760882D01*
X31348323Y3665644D01*
X31253085Y3618025D01*
%TO.C,R2*%
X51537019Y39719654D02*
X51489400Y39767273D01*
X51441780Y39862511D01*
X51441780Y40100606D01*
X51489400Y40195844D01*
X51537019Y40243463D01*
X51632257Y40291082D01*
X51727495Y40291082D01*
X51870352Y40243463D01*
X52441780Y39672035D01*
X52441780Y40291082D01*
X52441780Y40719654D02*
X51441780Y40719654D01*
X52060828Y40814892D02*
X52441780Y41100606D01*
X51775114Y41100606D02*
X52156066Y40719654D01*
X51537019Y41481559D02*
X51489400Y41529178D01*
X51441780Y41624416D01*
X51441780Y41862511D01*
X51489400Y41957749D01*
X51537019Y42005368D01*
X51632257Y42052987D01*
X51727495Y42052987D01*
X51870352Y42005368D01*
X52441780Y41433940D01*
X52441780Y42052987D01*
X50071780Y40719654D02*
X49595590Y40386320D01*
X50071780Y40148225D02*
X49071780Y40148225D01*
X49071780Y40529178D01*
X49119400Y40624416D01*
X49167019Y40672035D01*
X49262257Y40719654D01*
X49405114Y40719654D01*
X49500352Y40672035D01*
X49547971Y40624416D01*
X49595590Y40529178D01*
X49595590Y40148225D01*
X49167019Y41100606D02*
X49119400Y41148225D01*
X49071780Y41243463D01*
X49071780Y41481559D01*
X49119400Y41576797D01*
X49167019Y41624416D01*
X49262257Y41672035D01*
X49357495Y41672035D01*
X49500352Y41624416D01*
X50071780Y41052987D01*
X50071780Y41672035D01*
%TO.C,R3*%
X62853685Y30557540D02*
X62663209Y30557540D01*
X62567971Y30509920D01*
X62520352Y30462301D01*
X62425114Y30319444D01*
X62377495Y30128968D01*
X62377495Y29748016D01*
X62425114Y29652778D01*
X62472733Y29605159D01*
X62567971Y29557540D01*
X62758447Y29557540D01*
X62853685Y29605159D01*
X62901304Y29652778D01*
X62948923Y29748016D01*
X62948923Y29986111D01*
X62901304Y30081349D01*
X62853685Y30128968D01*
X62758447Y30176587D01*
X62567971Y30176587D01*
X62472733Y30128968D01*
X62425114Y30081349D01*
X62377495Y29986111D01*
X63520352Y30128968D02*
X63425114Y30176587D01*
X63377495Y30224206D01*
X63329876Y30319444D01*
X63329876Y30367063D01*
X63377495Y30462301D01*
X63425114Y30509920D01*
X63520352Y30557540D01*
X63710828Y30557540D01*
X63806066Y30509920D01*
X63853685Y30462301D01*
X63901304Y30367063D01*
X63901304Y30319444D01*
X63853685Y30224206D01*
X63806066Y30176587D01*
X63710828Y30128968D01*
X63520352Y30128968D01*
X63425114Y30081349D01*
X63377495Y30033730D01*
X63329876Y29938492D01*
X63329876Y29748016D01*
X63377495Y29652778D01*
X63425114Y29605159D01*
X63520352Y29557540D01*
X63710828Y29557540D01*
X63806066Y29605159D01*
X63853685Y29652778D01*
X63901304Y29748016D01*
X63901304Y29938492D01*
X63853685Y30033730D01*
X63806066Y30081349D01*
X63710828Y30128968D01*
X62972733Y31927540D02*
X62639400Y32403730D01*
X62401304Y31927540D02*
X62401304Y32927540D01*
X62782257Y32927540D01*
X62877495Y32879920D01*
X62925114Y32832301D01*
X62972733Y32737063D01*
X62972733Y32594206D01*
X62925114Y32498968D01*
X62877495Y32451349D01*
X62782257Y32403730D01*
X62401304Y32403730D01*
X63306066Y32927540D02*
X63925114Y32927540D01*
X63591780Y32546587D01*
X63734638Y32546587D01*
X63829876Y32498968D01*
X63877495Y32451349D01*
X63925114Y32356111D01*
X63925114Y32118016D01*
X63877495Y32022778D01*
X63829876Y31975159D01*
X63734638Y31927540D01*
X63448923Y31927540D01*
X63353685Y31975159D01*
X63306066Y32022778D01*
%TO.C,R4*%
X52721780Y40600606D02*
X52721780Y40410130D01*
X52769400Y40314892D01*
X52817019Y40267273D01*
X52959876Y40172035D01*
X53150352Y40124416D01*
X53531304Y40124416D01*
X53626542Y40172035D01*
X53674161Y40219654D01*
X53721780Y40314892D01*
X53721780Y40505368D01*
X53674161Y40600606D01*
X53626542Y40648225D01*
X53531304Y40695844D01*
X53293209Y40695844D01*
X53197971Y40648225D01*
X53150352Y40600606D01*
X53102733Y40505368D01*
X53102733Y40314892D01*
X53150352Y40219654D01*
X53197971Y40172035D01*
X53293209Y40124416D01*
X53150352Y41267273D02*
X53102733Y41172035D01*
X53055114Y41124416D01*
X52959876Y41076797D01*
X52912257Y41076797D01*
X52817019Y41124416D01*
X52769400Y41172035D01*
X52721780Y41267273D01*
X52721780Y41457749D01*
X52769400Y41552987D01*
X52817019Y41600606D01*
X52912257Y41648225D01*
X52959876Y41648225D01*
X53055114Y41600606D01*
X53102733Y41552987D01*
X53150352Y41457749D01*
X53150352Y41267273D01*
X53197971Y41172035D01*
X53245590Y41124416D01*
X53340828Y41076797D01*
X53531304Y41076797D01*
X53626542Y41124416D01*
X53674161Y41172035D01*
X53721780Y41267273D01*
X53721780Y41457749D01*
X53674161Y41552987D01*
X53626542Y41600606D01*
X53531304Y41648225D01*
X53340828Y41648225D01*
X53245590Y41600606D01*
X53197971Y41552987D01*
X53150352Y41457749D01*
X56091780Y40719654D02*
X55615590Y40386320D01*
X56091780Y40148225D02*
X55091780Y40148225D01*
X55091780Y40529178D01*
X55139400Y40624416D01*
X55187019Y40672035D01*
X55282257Y40719654D01*
X55425114Y40719654D01*
X55520352Y40672035D01*
X55567971Y40624416D01*
X55615590Y40529178D01*
X55615590Y40148225D01*
X55425114Y41576797D02*
X56091780Y41576797D01*
X55044161Y41338701D02*
X55758447Y41100606D01*
X55758447Y41719654D01*
%TO.C,R5*%
X16921580Y40767273D02*
X16921580Y40195844D01*
X16921580Y40481559D02*
X15921580Y40481559D01*
X16064438Y40386320D01*
X16159676Y40291082D01*
X16207295Y40195844D01*
X16921580Y41195844D02*
X15921580Y41195844D01*
X16540628Y41291082D02*
X16921580Y41576797D01*
X16254914Y41576797D02*
X16635866Y41195844D01*
X19060400Y40724714D02*
X18584210Y40391380D01*
X19060400Y40153285D02*
X18060400Y40153285D01*
X18060400Y40534238D01*
X18108020Y40629476D01*
X18155639Y40677095D01*
X18250877Y40724714D01*
X18393734Y40724714D01*
X18488972Y40677095D01*
X18536591Y40629476D01*
X18584210Y40534238D01*
X18584210Y40153285D01*
X18060400Y41629476D02*
X18060400Y41153285D01*
X18536591Y41105666D01*
X18488972Y41153285D01*
X18441353Y41248523D01*
X18441353Y41486619D01*
X18488972Y41581857D01*
X18536591Y41629476D01*
X18631829Y41677095D01*
X18869924Y41677095D01*
X18965162Y41629476D01*
X19012781Y41581857D01*
X19060400Y41486619D01*
X19060400Y41248523D01*
X19012781Y41153285D01*
X18965162Y41105666D01*
%TO.C,R6*%
X24049580Y40767273D02*
X24049580Y40195844D01*
X24049580Y40481559D02*
X23049580Y40481559D01*
X23192438Y40386320D01*
X23287676Y40291082D01*
X23335295Y40195844D01*
X24049580Y41195844D02*
X23049580Y41195844D01*
X23668628Y41291082D02*
X24049580Y41576797D01*
X23382914Y41576797D02*
X23763866Y41195844D01*
X26419580Y40719654D02*
X25943390Y40386320D01*
X26419580Y40148225D02*
X25419580Y40148225D01*
X25419580Y40529178D01*
X25467200Y40624416D01*
X25514819Y40672035D01*
X25610057Y40719654D01*
X25752914Y40719654D01*
X25848152Y40672035D01*
X25895771Y40624416D01*
X25943390Y40529178D01*
X25943390Y40148225D01*
X25419580Y41576797D02*
X25419580Y41386320D01*
X25467200Y41291082D01*
X25514819Y41243463D01*
X25657676Y41148225D01*
X25848152Y41100606D01*
X26229104Y41100606D01*
X26324342Y41148225D01*
X26371961Y41195844D01*
X26419580Y41291082D01*
X26419580Y41481559D01*
X26371961Y41576797D01*
X26324342Y41624416D01*
X26229104Y41672035D01*
X25991009Y41672035D01*
X25895771Y41624416D01*
X25848152Y41576797D01*
X25800533Y41481559D01*
X25800533Y41291082D01*
X25848152Y41195844D01*
X25895771Y41148225D01*
X25991009Y41100606D01*
%TO.C,R7*%
X24798352Y4652740D02*
X24226923Y4652740D01*
X24512638Y4652740D02*
X24512638Y5652740D01*
X24417400Y5509882D01*
X24322161Y5414644D01*
X24226923Y5367025D01*
X25226923Y4652740D02*
X25226923Y5652740D01*
X25322161Y5033692D02*
X25607876Y4652740D01*
X25607876Y5319406D02*
X25226923Y4938454D01*
X24750733Y7022740D02*
X24417400Y7498930D01*
X24179304Y7022740D02*
X24179304Y8022740D01*
X24560257Y8022740D01*
X24655495Y7975120D01*
X24703114Y7927501D01*
X24750733Y7832263D01*
X24750733Y7689406D01*
X24703114Y7594168D01*
X24655495Y7546549D01*
X24560257Y7498930D01*
X24179304Y7498930D01*
X25084066Y8022740D02*
X25750733Y8022740D01*
X25322161Y7022740D01*
%TO.C,U1*%
X35065923Y44444454D02*
X35542114Y44444454D01*
X34970685Y44158740D02*
X35304019Y45158740D01*
X35637352Y44158740D01*
X35827828Y45158740D02*
X36399257Y45158740D01*
X36113542Y44158740D02*
X36113542Y45158740D01*
X36732590Y44158740D02*
X36732590Y44825406D01*
X36732590Y44730168D02*
X36780209Y44777787D01*
X36875447Y44825406D01*
X37018304Y44825406D01*
X37113542Y44777787D01*
X37161161Y44682549D01*
X37161161Y44158740D01*
X37161161Y44682549D02*
X37208780Y44777787D01*
X37304019Y44825406D01*
X37446876Y44825406D01*
X37542114Y44777787D01*
X37589733Y44682549D01*
X37589733Y44158740D01*
X38446876Y44206359D02*
X38351638Y44158740D01*
X38161161Y44158740D01*
X38065923Y44206359D01*
X38018304Y44301597D01*
X38018304Y44682549D01*
X38065923Y44777787D01*
X38161161Y44825406D01*
X38351638Y44825406D01*
X38446876Y44777787D01*
X38494495Y44682549D01*
X38494495Y44587311D01*
X38018304Y44492073D01*
X39351638Y44825406D02*
X39351638Y44015882D01*
X39304019Y43920644D01*
X39256400Y43873025D01*
X39161161Y43825406D01*
X39018304Y43825406D01*
X38923066Y43873025D01*
X39351638Y44206359D02*
X39256400Y44158740D01*
X39065923Y44158740D01*
X38970685Y44206359D01*
X38923066Y44253978D01*
X38875447Y44349216D01*
X38875447Y44634930D01*
X38923066Y44730168D01*
X38970685Y44777787D01*
X39065923Y44825406D01*
X39256400Y44825406D01*
X39351638Y44777787D01*
X40256400Y44158740D02*
X40256400Y44682549D01*
X40208780Y44777787D01*
X40113542Y44825406D01*
X39923066Y44825406D01*
X39827828Y44777787D01*
X40256400Y44206359D02*
X40161161Y44158740D01*
X39923066Y44158740D01*
X39827828Y44206359D01*
X39780209Y44301597D01*
X39780209Y44396835D01*
X39827828Y44492073D01*
X39923066Y44539692D01*
X40161161Y44539692D01*
X40256400Y44587311D01*
X40875447Y44730168D02*
X40780209Y44777787D01*
X40732590Y44825406D01*
X40684971Y44920644D01*
X40684971Y44968263D01*
X40732590Y45063501D01*
X40780209Y45111120D01*
X40875447Y45158740D01*
X41065923Y45158740D01*
X41161161Y45111120D01*
X41208780Y45063501D01*
X41256400Y44968263D01*
X41256400Y44920644D01*
X41208780Y44825406D01*
X41161161Y44777787D01*
X41065923Y44730168D01*
X40875447Y44730168D01*
X40780209Y44682549D01*
X40732590Y44634930D01*
X40684971Y44539692D01*
X40684971Y44349216D01*
X40732590Y44253978D01*
X40780209Y44206359D01*
X40875447Y44158740D01*
X41065923Y44158740D01*
X41161161Y44206359D01*
X41208780Y44253978D01*
X41256400Y44349216D01*
X41256400Y44539692D01*
X41208780Y44634930D01*
X41161161Y44682549D01*
X41065923Y44730168D01*
X41684971Y44539692D02*
X42446876Y44539692D01*
X43446876Y44158740D02*
X42875447Y44158740D01*
X43161161Y44158740D02*
X43161161Y45158740D01*
X43065923Y45015882D01*
X42970685Y44920644D01*
X42875447Y44873025D01*
X44304019Y45158740D02*
X44113542Y45158740D01*
X44018304Y45111120D01*
X43970685Y45063501D01*
X43875447Y44920644D01*
X43827828Y44730168D01*
X43827828Y44349216D01*
X43875447Y44253978D01*
X43923066Y44206359D01*
X44018304Y44158740D01*
X44208780Y44158740D01*
X44304019Y44206359D01*
X44351638Y44253978D01*
X44399257Y44349216D01*
X44399257Y44587311D01*
X44351638Y44682549D01*
X44304019Y44730168D01*
X44208780Y44777787D01*
X44018304Y44777787D01*
X43923066Y44730168D01*
X43875447Y44682549D01*
X43827828Y44587311D01*
X44827828Y44158740D02*
X44827828Y45158740D01*
X45208780Y45158740D01*
X45304019Y45111120D01*
X45351638Y45063501D01*
X45399257Y44968263D01*
X45399257Y44825406D01*
X45351638Y44730168D01*
X45304019Y44682549D01*
X45208780Y44634930D01*
X44827828Y44634930D01*
X45827828Y45158740D02*
X45827828Y44349216D01*
X45875447Y44253978D01*
X45923066Y44206359D01*
X46018304Y44158740D01*
X46208780Y44158740D01*
X46304019Y44206359D01*
X46351638Y44253978D01*
X46399257Y44349216D01*
X46399257Y45158740D01*
X39994495Y26318740D02*
X39994495Y25509216D01*
X40042114Y25413978D01*
X40089733Y25366359D01*
X40184971Y25318740D01*
X40375447Y25318740D01*
X40470685Y25366359D01*
X40518304Y25413978D01*
X40565923Y25509216D01*
X40565923Y26318740D01*
X41565923Y25318740D02*
X40994495Y25318740D01*
X41280209Y25318740D02*
X41280209Y26318740D01*
X41184971Y26175882D01*
X41089733Y26080644D01*
X40994495Y26033025D01*
%TD*%
M02*
