%TF.GenerationSoftware,KiCad,Pcbnew,5.1.4-3.fc31*%
%TF.CreationDate,2019-11-11T15:40:02+01:00*%
%TF.ProjectId,usbasp,75736261-7370-42e6-9b69-6361645f7063,2.0*%
%TF.SameCoordinates,PX36f6758PY6c779b8*%
%TF.FileFunction,Legend,Bot*%
%TF.FilePolarity,Positive*%
%FSLAX46Y46*%
G04 Gerber Fmt 4.6, Leading zero omitted, Abs format (unit mm)*
G04 Created by KiCad (PCBNEW 5.1.4-3.fc31) date 2019-11-11 15:40:02*
%MOMM*%
%LPD*%
G04 APERTURE LIST*
%ADD10C,1.602000*%
%ADD11C,2.102000*%
%ADD12C,1.702000*%
%ADD13R,1.702000X1.702000*%
%ADD14O,1.702000X1.702000*%
%ADD15R,1.902000X1.902000*%
%ADD16C,1.902000*%
%ADD17O,1.802000X1.802000*%
%ADD18R,1.802000X1.802000*%
%ADD19R,1.829200X1.829200*%
%ADD20O,1.829200X1.829200*%
G04 APERTURE END LIST*
%LPC*%
D10*
%TO.C,Y1*%
X51885400Y24148420D03*
X51885400Y19268420D03*
%TD*%
D11*
%TO.C,SW1*%
X6883400Y10331120D03*
X11383400Y10331120D03*
X6883400Y3831120D03*
X11383400Y3831120D03*
%TD*%
D12*
%TO.C,C1*%
X57534400Y18486120D03*
X62534400Y18486120D03*
%TD*%
%TO.C,C2*%
X62534400Y24836120D03*
X57534400Y24836120D03*
%TD*%
%TO.C,C3*%
X72923400Y39648120D03*
X72923400Y44648120D03*
%TD*%
D13*
%TO.C,C4*%
X63550400Y3606120D03*
D12*
X63550400Y6106120D03*
%TD*%
%TO.C,C5*%
X38912400Y3356120D03*
X43912400Y3356120D03*
%TD*%
D14*
%TO.C,D1*%
X61410400Y44696320D03*
D13*
X61410400Y37076320D03*
%TD*%
%TO.C,D2*%
X66930400Y37076320D03*
D14*
X66930400Y44696320D03*
%TD*%
D15*
%TO.C,D3*%
X18839200Y30975620D03*
D16*
X18839200Y33515620D03*
%TD*%
%TO.C,D4*%
X25967200Y33515620D03*
D15*
X25967200Y30975620D03*
%TD*%
D13*
%TO.C,D5*%
X48310400Y3606120D03*
D14*
X55930400Y3606120D03*
%TD*%
D17*
%TO.C,J2*%
X17221200Y4821120D03*
D18*
X17221200Y7361120D03*
%TD*%
D19*
%TO.C,J3*%
X4914900Y31935420D03*
D20*
X7454900Y31935420D03*
X4914900Y29395420D03*
X7454900Y29395420D03*
X4914900Y26855420D03*
X7454900Y26855420D03*
X4914900Y24315420D03*
X7454900Y24315420D03*
X4914900Y21775420D03*
X7454900Y21775420D03*
%TD*%
D18*
%TO.C,JP1*%
X15762500Y17790020D03*
D17*
X15762500Y15250020D03*
%TD*%
%TO.C,JP2*%
X30698400Y17780020D03*
D18*
X30698400Y15240020D03*
%TD*%
%TO.C,JP3*%
X23230500Y15240020D03*
D17*
X23230500Y17780020D03*
%TD*%
D12*
%TO.C,R1*%
X27228800Y3356120D03*
D14*
X34848800Y3356120D03*
%TD*%
%TO.C,R2*%
X55651400Y44648120D03*
D12*
X55651400Y37028120D03*
%TD*%
D14*
%TO.C,R3*%
X66949400Y32379920D03*
D12*
X59329400Y32379920D03*
%TD*%
%TO.C,R4*%
X49555400Y44648120D03*
D14*
X49555400Y37028120D03*
%TD*%
%TO.C,R5*%
X18839200Y37076320D03*
D12*
X18839200Y44696320D03*
%TD*%
%TO.C,R6*%
X25967200Y44696320D03*
D14*
X25967200Y37076320D03*
%TD*%
D12*
%TO.C,R7*%
X21107400Y7475120D03*
D14*
X28727400Y7475120D03*
%TD*%
D13*
%TO.C,U1*%
X44566400Y9261120D03*
D14*
X36946400Y42281120D03*
X44566400Y11801120D03*
X36946400Y39741120D03*
X44566400Y14341120D03*
X36946400Y37201120D03*
X44566400Y16881120D03*
X36946400Y34661120D03*
X44566400Y19421120D03*
X36946400Y32121120D03*
X44566400Y21961120D03*
X36946400Y29581120D03*
X44566400Y24501120D03*
X36946400Y27041120D03*
X44566400Y27041120D03*
X36946400Y24501120D03*
X44566400Y29581120D03*
X36946400Y21961120D03*
X44566400Y32121120D03*
X36946400Y19421120D03*
X44566400Y34661120D03*
X36946400Y16881120D03*
X44566400Y37201120D03*
X36946400Y14341120D03*
X44566400Y39741120D03*
X36946400Y11801120D03*
X44566400Y42281120D03*
X36946400Y9261120D03*
%TD*%
M02*
