%TF.GenerationSoftware,KiCad,Pcbnew,5.1.4-3.fc30*%
%TF.CreationDate,2019-10-13T14:14:48+02:00*%
%TF.ProjectId,usbasp,75736261-7370-42e6-9b69-6361645f7063,2.0*%
%TF.SameCoordinates,PX36f6758PY6c779b8*%
%TF.FileFunction,Copper,L2,Bot*%
%TF.FilePolarity,Positive*%
%FSLAX46Y46*%
G04 Gerber Fmt 4.6, Leading zero omitted, Abs format (unit mm)*
G04 Created by KiCad (PCBNEW 5.1.4-3.fc30) date 2019-10-13 14:14:48*
%MOMM*%
%LPD*%
G04 APERTURE LIST*
%TA.AperFunction,ComponentPad*%
%ADD10C,1.500000*%
%TD*%
%TA.AperFunction,ComponentPad*%
%ADD11C,2.000000*%
%TD*%
%TA.AperFunction,ComponentPad*%
%ADD12C,1.600000*%
%TD*%
%TA.AperFunction,ComponentPad*%
%ADD13R,1.600000X1.600000*%
%TD*%
%TA.AperFunction,ComponentPad*%
%ADD14O,1.600000X1.600000*%
%TD*%
%TA.AperFunction,ComponentPad*%
%ADD15R,1.800000X1.800000*%
%TD*%
%TA.AperFunction,ComponentPad*%
%ADD16C,1.800000*%
%TD*%
%TA.AperFunction,ComponentPad*%
%ADD17O,1.700000X1.700000*%
%TD*%
%TA.AperFunction,ComponentPad*%
%ADD18R,1.700000X1.700000*%
%TD*%
%TA.AperFunction,ComponentPad*%
%ADD19R,1.727200X1.727200*%
%TD*%
%TA.AperFunction,ComponentPad*%
%ADD20O,1.727200X1.727200*%
%TD*%
%TA.AperFunction,Conductor*%
%ADD21C,0.350000*%
%TD*%
%TA.AperFunction,Conductor*%
%ADD22C,0.300000*%
%TD*%
G04 APERTURE END LIST*
D10*
%TO.P,Y1,2*%
%TO.N,Net-(C2-Pad1)*%
X51885400Y24268420D03*
%TO.P,Y1,1*%
%TO.N,Net-(C1-Pad1)*%
X51885400Y19268420D03*
%TD*%
D11*
%TO.P,SW1,1*%
%TO.N,GND*%
X6883400Y10331120D03*
%TO.P,SW1,2*%
%TO.N,Net-(C5-Pad2)*%
X11383400Y10331120D03*
%TO.P,SW1,1*%
%TO.N,GND*%
X6883400Y3831120D03*
%TO.P,SW1,2*%
%TO.N,Net-(C5-Pad2)*%
X11383400Y3831120D03*
%TD*%
D12*
%TO.P,C1,1*%
%TO.N,Net-(C1-Pad1)*%
X57423400Y19334520D03*
%TO.P,C1,2*%
%TO.N,GND*%
X62423400Y19334520D03*
%TD*%
%TO.P,C2,2*%
%TO.N,GND*%
X62534400Y24368720D03*
%TO.P,C2,1*%
%TO.N,Net-(C2-Pad1)*%
X57534400Y24368720D03*
%TD*%
%TO.P,C3,1*%
%TO.N,+5V*%
X72700400Y39496320D03*
%TO.P,C3,2*%
%TO.N,GND*%
X72700400Y44496320D03*
%TD*%
D13*
%TO.P,C4,1*%
%TO.N,+5V*%
X63550400Y3606120D03*
D12*
%TO.P,C4,2*%
%TO.N,GND*%
X63550400Y6106120D03*
%TD*%
%TO.P,C5,2*%
%TO.N,Net-(C5-Pad2)*%
X38912400Y3356120D03*
%TO.P,C5,1*%
%TO.N,GND*%
X43912400Y3356120D03*
%TD*%
D14*
%TO.P,D1,2*%
%TO.N,GND*%
X61410400Y44696320D03*
D13*
%TO.P,D1,1*%
%TO.N,Net-(D1-Pad1)*%
X61410400Y37076320D03*
%TD*%
%TO.P,D2,1*%
%TO.N,Net-(D2-Pad1)*%
X66930400Y37076320D03*
D14*
%TO.P,D2,2*%
%TO.N,GND*%
X66930400Y44696320D03*
%TD*%
D15*
%TO.P,D3,1*%
%TO.N,Net-(D3-Pad1)*%
X18839200Y30975620D03*
D16*
%TO.P,D3,2*%
%TO.N,Net-(D3-Pad2)*%
X18839200Y33515620D03*
%TD*%
%TO.P,D4,2*%
%TO.N,Net-(D4-Pad2)*%
X25967200Y33515620D03*
D15*
%TO.P,D4,1*%
%TO.N,Net-(D4-Pad1)*%
X25967200Y30975620D03*
%TD*%
D13*
%TO.P,D5,1*%
%TO.N,+5V*%
X48310400Y3606120D03*
D14*
%TO.P,D5,2*%
%TO.N,Net-(C5-Pad2)*%
X55930400Y3606120D03*
%TD*%
D17*
%TO.P,J2,2*%
%TO.N,Net-(J2-Pad2)*%
X17221200Y4821120D03*
D18*
%TO.P,J2,1*%
%TO.N,Net-(J2-Pad1)*%
X17221200Y7361120D03*
%TD*%
D19*
%TO.P,J3,1*%
%TO.N,Net-(J3-Pad1)*%
X4914900Y31935420D03*
D20*
%TO.P,J3,2*%
%TO.N,VCCINT*%
X7454900Y31935420D03*
%TO.P,J3,3*%
%TO.N,Net-(J3-Pad3)*%
X4914900Y29395420D03*
%TO.P,J3,4*%
%TO.N,GND*%
X7454900Y29395420D03*
%TO.P,J3,5*%
%TO.N,Net-(J3-Pad5)*%
X4914900Y26855420D03*
%TO.P,J3,6*%
%TO.N,GND*%
X7454900Y26855420D03*
%TO.P,J3,7*%
%TO.N,Net-(J3-Pad7)*%
X4914900Y24315420D03*
%TO.P,J3,8*%
%TO.N,GND*%
X7454900Y24315420D03*
%TO.P,J3,9*%
%TO.N,Net-(J3-Pad9)*%
X4914900Y21775420D03*
%TO.P,J3,10*%
%TO.N,GND*%
X7454900Y21775420D03*
%TD*%
D18*
%TO.P,JP1,1*%
%TO.N,VCCINT*%
X15762500Y17790020D03*
D17*
%TO.P,JP1,2*%
%TO.N,+5V*%
X15762500Y15250020D03*
%TD*%
%TO.P,JP2,2*%
%TO.N,GND*%
X30698400Y17780020D03*
D18*
%TO.P,JP2,1*%
%TO.N,Net-(JP2-Pad1)*%
X30698400Y15240020D03*
%TD*%
%TO.P,JP3,1*%
%TO.N,Net-(C5-Pad2)*%
X23230500Y15240020D03*
D17*
%TO.P,JP3,2*%
%TO.N,Net-(J3-Pad5)*%
X23230500Y17780020D03*
%TD*%
D12*
%TO.P,R1,1*%
%TO.N,+5V*%
X27228800Y3356120D03*
D14*
%TO.P,R1,2*%
%TO.N,Net-(C5-Pad2)*%
X34848800Y3356120D03*
%TD*%
%TO.P,R2,2*%
%TO.N,+5V*%
X49619400Y44696320D03*
D12*
%TO.P,R2,1*%
%TO.N,Net-(D1-Pad1)*%
X49619400Y37076320D03*
%TD*%
D14*
%TO.P,R3,2*%
%TO.N,Net-(D2-Pad1)*%
X66949400Y32379920D03*
D12*
%TO.P,R3,1*%
%TO.N,Net-(R3-Pad1)*%
X59329400Y32379920D03*
%TD*%
%TO.P,R4,1*%
%TO.N,Net-(R4-Pad1)*%
X55639400Y44696320D03*
D14*
%TO.P,R4,2*%
%TO.N,Net-(D1-Pad1)*%
X55639400Y37076320D03*
%TD*%
%TO.P,R5,2*%
%TO.N,Net-(D3-Pad2)*%
X18839200Y37076320D03*
D12*
%TO.P,R5,1*%
%TO.N,+5V*%
X18839200Y44696320D03*
%TD*%
%TO.P,R6,1*%
%TO.N,+5V*%
X25967200Y44696320D03*
D14*
%TO.P,R6,2*%
%TO.N,Net-(D4-Pad2)*%
X25967200Y37076320D03*
%TD*%
D12*
%TO.P,R7,1*%
%TO.N,Net-(J2-Pad1)*%
X21107400Y7475120D03*
D14*
%TO.P,R7,2*%
%TO.N,Net-(R7-Pad2)*%
X28727400Y7475120D03*
%TD*%
D13*
%TO.P,U1,1*%
%TO.N,Net-(C5-Pad2)*%
X44566400Y9261120D03*
D14*
%TO.P,U1,15*%
%TO.N,Net-(R3-Pad1)*%
X36946400Y42281120D03*
%TO.P,U1,2*%
%TO.N,Net-(J2-Pad2)*%
X44566400Y11801120D03*
%TO.P,U1,16*%
%TO.N,Net-(J3-Pad5)*%
X36946400Y39741120D03*
%TO.P,U1,3*%
%TO.N,Net-(R7-Pad2)*%
X44566400Y14341120D03*
%TO.P,U1,17*%
%TO.N,Net-(J3-Pad1)*%
X36946400Y37201120D03*
%TO.P,U1,4*%
%TO.N,Net-(R3-Pad1)*%
X44566400Y16881120D03*
%TO.P,U1,18*%
%TO.N,Net-(J3-Pad9)*%
X36946400Y34661120D03*
%TO.P,U1,5*%
%TO.N,Net-(U1-Pad5)*%
X44566400Y19421120D03*
%TO.P,U1,19*%
%TO.N,Net-(J3-Pad7)*%
X36946400Y32121120D03*
%TO.P,U1,6*%
%TO.N,Net-(U1-Pad6)*%
X44566400Y21961120D03*
%TO.P,U1,20*%
%TO.N,+5V*%
X36946400Y29581120D03*
%TO.P,U1,7*%
X44566400Y24501120D03*
%TO.P,U1,21*%
%TO.N,Net-(U1-Pad21)*%
X36946400Y27041120D03*
%TO.P,U1,8*%
%TO.N,GND*%
X44566400Y27041120D03*
%TO.P,U1,22*%
X36946400Y24501120D03*
%TO.P,U1,9*%
%TO.N,Net-(C1-Pad1)*%
X44566400Y29581120D03*
%TO.P,U1,23*%
%TO.N,Net-(D3-Pad1)*%
X36946400Y21961120D03*
%TO.P,U1,10*%
%TO.N,Net-(C2-Pad1)*%
X44566400Y32121120D03*
%TO.P,U1,24*%
%TO.N,Net-(D4-Pad1)*%
X36946400Y19421120D03*
%TO.P,U1,11*%
%TO.N,Net-(U1-Pad11)*%
X44566400Y34661120D03*
%TO.P,U1,25*%
%TO.N,Net-(JP2-Pad1)*%
X36946400Y16881120D03*
%TO.P,U1,12*%
%TO.N,Net-(U1-Pad12)*%
X44566400Y37201120D03*
%TO.P,U1,26*%
%TO.N,Net-(U1-Pad26)*%
X36946400Y14341120D03*
%TO.P,U1,13*%
%TO.N,Net-(U1-Pad13)*%
X44566400Y39741120D03*
%TO.P,U1,27*%
%TO.N,Net-(U1-Pad27)*%
X36946400Y11801120D03*
%TO.P,U1,14*%
%TO.N,Net-(R4-Pad1)*%
X44566400Y42281120D03*
%TO.P,U1,28*%
%TO.N,Net-(U1-Pad28)*%
X36946400Y9261120D03*
%TD*%
D21*
%TO.N,Net-(C1-Pad1)*%
X51885400Y19334520D02*
X51885400Y19268420D01*
X44566400Y28405820D02*
X44933700Y28405820D01*
X44933700Y28405820D02*
X51885400Y21454120D01*
X51885400Y21454120D02*
X51885400Y19334520D01*
X51885400Y19334520D02*
X57423400Y19334520D01*
X44566400Y29581120D02*
X44566400Y28405820D01*
%TO.N,GND*%
X7454900Y21775420D02*
X7454900Y10902620D01*
X7454900Y10902620D02*
X6883400Y10331120D01*
X62585800Y42345620D02*
X61410400Y43521020D01*
X62534400Y24368720D02*
X62585800Y24420120D01*
X62585800Y24420120D02*
X62585800Y42345620D01*
X66930400Y44696320D02*
X64936500Y44696320D01*
X64936500Y44696320D02*
X62585800Y42345620D01*
X61410400Y44696320D02*
X61410400Y43521020D01*
X62423400Y19334520D02*
X62423400Y24257720D01*
X62423400Y24257720D02*
X62534400Y24368720D01*
X6883400Y10331120D02*
X6883400Y3831120D01*
%TO.N,Net-(C2-Pad1)*%
X44566400Y32121120D02*
X44566400Y30945820D01*
X44566400Y30945820D02*
X45208000Y30945820D01*
X45208000Y30945820D02*
X51885400Y24268420D01*
D22*
%TO.N,+5V*%
X36946400Y29581120D02*
X38096700Y29581120D01*
X44566400Y24501120D02*
X43176700Y24501120D01*
X43176700Y24501120D02*
X38096700Y29581120D01*
X27228800Y3356120D02*
X16978000Y3356120D01*
X16978000Y3356120D02*
X15762500Y4571620D01*
X15762500Y4571620D02*
X15762500Y15250020D01*
D21*
%TO.N,Net-(C5-Pad2)*%
X44566400Y8673520D02*
X39249000Y3356120D01*
X39249000Y3356120D02*
X38912400Y3356120D01*
X44566400Y8673520D02*
X49687700Y8673520D01*
X49687700Y8673520D02*
X54755100Y3606120D01*
X55930400Y3606120D02*
X54755100Y3606120D01*
X44566400Y9261120D02*
X44566400Y8673520D01*
X11383400Y3831120D02*
X11383400Y10331120D01*
%TO.N,Net-(D2-Pad1)*%
X66949400Y32379920D02*
X66949400Y33555220D01*
X66949400Y33555220D02*
X66930400Y33574220D01*
X66930400Y33574220D02*
X66930400Y37076320D01*
%TO.N,Net-(D3-Pad2)*%
X18839200Y37076320D02*
X18839200Y33515620D01*
%TO.N,Net-(D4-Pad2)*%
X25967200Y37076320D02*
X25967200Y33515620D01*
%TO.N,Net-(D4-Pad1)*%
X25967200Y30975620D02*
X27242500Y30975620D01*
X36946400Y19421120D02*
X36946400Y20596420D01*
X36946400Y20596420D02*
X36646400Y20596420D01*
X36646400Y20596420D02*
X27242500Y30000320D01*
X27242500Y30000320D02*
X27242500Y30975620D01*
D22*
%TO.N,VCCINT*%
X7454900Y31935420D02*
X7454900Y30721520D01*
X15762500Y17790020D02*
X15762500Y22916920D01*
X15762500Y22916920D02*
X7957900Y30721520D01*
X7957900Y30721520D02*
X7454900Y30721520D01*
D21*
%TO.N,Net-(R3-Pad1)*%
X43363100Y33327920D02*
X58381400Y33327920D01*
X58381400Y33327920D02*
X59329400Y32379920D01*
X36946400Y41105820D02*
X37311700Y41105820D01*
X37311700Y41105820D02*
X43363100Y35054420D01*
X43363100Y35054420D02*
X43363100Y33327920D01*
X44566400Y18056420D02*
X44933700Y18056420D01*
X44933700Y18056420D02*
X45746000Y18868720D01*
X45746000Y18868720D02*
X45746000Y25020420D01*
X45746000Y25020420D02*
X44995300Y25771120D01*
X44995300Y25771120D02*
X44093000Y25771120D01*
X44093000Y25771120D02*
X43363100Y26501020D01*
X43363100Y26501020D02*
X43363100Y33327920D01*
X36946400Y42281120D02*
X36946400Y41105820D01*
X44566400Y16881120D02*
X44566400Y18056420D01*
%TO.N,Net-(R7-Pad2)*%
X44566400Y14341120D02*
X43391100Y14341120D01*
X43391100Y14341120D02*
X43391100Y13973820D01*
X43391100Y13973820D02*
X36892400Y7475120D01*
X36892400Y7475120D02*
X28727400Y7475120D01*
%TO.N,Net-(J2-Pad2)*%
X44566400Y11801120D02*
X43391100Y11801120D01*
X43391100Y11801120D02*
X36411100Y4821120D01*
X36411100Y4821120D02*
X17221200Y4821120D01*
%TO.N,Net-(J3-Pad5)*%
X23230500Y29691820D02*
X12264900Y29691820D01*
X12264900Y29691820D02*
X8743600Y33213120D01*
X8743600Y33213120D02*
X6935500Y33213120D01*
X6935500Y33213120D02*
X6184900Y32462520D01*
X6184900Y32462520D02*
X6184900Y28850920D01*
X6184900Y28850920D02*
X5428300Y28094320D01*
X5428300Y28094320D02*
X4914900Y28094320D01*
X36946400Y39741120D02*
X26963500Y39741120D01*
X26963500Y39741120D02*
X23230600Y36008220D01*
X23230600Y36008220D02*
X23230600Y29691820D01*
X23230600Y29691820D02*
X23230500Y29691820D01*
X23230500Y29691820D02*
X23230500Y19005320D01*
X23230500Y17780020D02*
X23230500Y19005320D01*
X4914900Y26855420D02*
X4914900Y28094320D01*
%TO.N,Net-(J3-Pad7)*%
X4914900Y24315420D02*
X6153800Y24315420D01*
X36946400Y32121120D02*
X36946400Y30945820D01*
X36946400Y30945820D02*
X36579100Y30945820D01*
X36579100Y30945820D02*
X35771000Y30137720D01*
X35771000Y30137720D02*
X35771000Y29057620D01*
X35771000Y29057620D02*
X36517500Y28311120D01*
X36517500Y28311120D02*
X37419900Y28311120D01*
X37419900Y28311120D02*
X38172000Y27559020D01*
X38172000Y27559020D02*
X38172000Y18921520D01*
X38172000Y18921520D02*
X37401600Y18151120D01*
X37401600Y18151120D02*
X35165700Y18151120D01*
X35165700Y18151120D02*
X33534600Y16520020D01*
X33534600Y16520020D02*
X14637700Y16520020D01*
X14637700Y16520020D02*
X8112300Y23045420D01*
X8112300Y23045420D02*
X6910400Y23045420D01*
X6910400Y23045420D02*
X6153800Y23802020D01*
X6153800Y23802020D02*
X6153800Y24315420D01*
%TD*%
M02*
