%TF.GenerationSoftware,KiCad,Pcbnew,5.1.4-3.fc30*%
%TF.CreationDate,2019-10-13T14:14:48+02:00*%
%TF.ProjectId,usbasp,75736261-7370-42e6-9b69-6361645f7063,2.0*%
%TF.SameCoordinates,PX36f6758PY6c779b8*%
%TF.FileFunction,Other,User*%
%FSLAX46Y46*%
G04 Gerber Fmt 4.6, Leading zero omitted, Abs format (unit mm)*
G04 Created by KiCad (PCBNEW 5.1.4-3.fc30) date 2019-10-13 14:14:48*
%MOMM*%
%LPD*%
G04 APERTURE LIST*
%ADD10C,0.050000*%
G04 APERTURE END LIST*
D10*
%TO.C,J1*%
X80626400Y19976520D02*
X74026400Y19976520D01*
X74026400Y19976520D02*
X74026400Y29176520D01*
X74026400Y29176520D02*
X80626400Y29176520D01*
X80626400Y29176520D02*
X80626400Y19976520D01*
%TO.C,Y1*%
X48885400Y27268420D02*
X48885400Y16268420D01*
X54885400Y27268420D02*
X48885400Y27268420D01*
X54885400Y16268420D02*
X54885400Y27268420D01*
X48885400Y16268420D02*
X54885400Y16268420D01*
%TO.C,SW1*%
X5633400Y11831120D02*
X12633400Y11831120D01*
X12883400Y11581120D02*
X12883400Y2581120D01*
X12633400Y2331120D02*
X5633400Y2331120D01*
X5383400Y2581120D02*
X5383400Y11581120D01*
X12883400Y2331120D02*
X12883400Y2581120D01*
X12633400Y2331120D02*
X12883400Y2331120D01*
X5383400Y2331120D02*
X5383400Y2581120D01*
X5633400Y2331120D02*
X5383400Y2331120D01*
X5383400Y11831120D02*
X5633400Y11831120D01*
X5383400Y11581120D02*
X5383400Y11831120D01*
X12883400Y11831120D02*
X12633400Y11831120D01*
X12883400Y11581120D02*
X12883400Y11831120D01*
%TO.C,C1*%
X56373400Y20834520D02*
X56373400Y17834520D01*
X56373400Y17834520D02*
X63473400Y17834520D01*
X63473400Y17834520D02*
X63473400Y20834520D01*
X63473400Y20834520D02*
X56373400Y20834520D01*
%TO.C,C2*%
X63584400Y25868720D02*
X56484400Y25868720D01*
X63584400Y22868720D02*
X63584400Y25868720D01*
X56484400Y22868720D02*
X63584400Y22868720D01*
X56484400Y25868720D02*
X56484400Y22868720D01*
%TO.C,C3*%
X71200400Y38246320D02*
X74200400Y38246320D01*
X74200400Y38246320D02*
X74200400Y45746320D01*
X74200400Y45746320D02*
X71200400Y45746320D01*
X71200400Y45746320D02*
X71200400Y38246320D01*
%TO.C,C4*%
X66300400Y4856120D02*
G75*
G03X66300400Y4856120I-2750000J0D01*
G01*
%TO.C,C5*%
X37662400Y1856120D02*
X45162400Y1856120D01*
X37662400Y4856120D02*
X37662400Y1856120D01*
X45162400Y4856120D02*
X37662400Y4856120D01*
X45162400Y1856120D02*
X45162400Y4856120D01*
%TO.C,D1*%
X60160400Y45746320D02*
X60160400Y36026320D01*
X62660400Y45746320D02*
X60160400Y45746320D01*
X62660400Y36026320D02*
X62660400Y45746320D01*
X60160400Y36026320D02*
X62660400Y36026320D01*
%TO.C,D2*%
X65680400Y36026320D02*
X68180400Y36026320D01*
X68180400Y36026320D02*
X68180400Y45746320D01*
X68180400Y45746320D02*
X65680400Y45746320D01*
X65680400Y45746320D02*
X65680400Y36026320D01*
%TO.C,D3*%
X16589200Y29825620D02*
X21089200Y29825620D01*
X21089200Y29825620D02*
X21089200Y34675620D01*
X21089200Y34675620D02*
X16589200Y34675620D01*
X16589200Y34675620D02*
X16589200Y29825620D01*
%TO.C,D4*%
X23717200Y34675620D02*
X23717200Y29825620D01*
X28217200Y34675620D02*
X23717200Y34675620D01*
X28217200Y29825620D02*
X28217200Y34675620D01*
X23717200Y29825620D02*
X28217200Y29825620D01*
%TO.C,D5*%
X47260400Y4856120D02*
X47260400Y2356120D01*
X47260400Y2356120D02*
X56980400Y2356120D01*
X56980400Y2356120D02*
X56980400Y4856120D01*
X56980400Y4856120D02*
X47260400Y4856120D01*
%TO.C,J2*%
X19021200Y9161120D02*
X15421200Y9161120D01*
X19021200Y3011120D02*
X19021200Y9161120D01*
X15421200Y3011120D02*
X19021200Y3011120D01*
X15421200Y9161120D02*
X15421200Y3011120D01*
%TO.C,J3*%
X10864900Y37285420D02*
X10864900Y16425420D01*
X10864900Y16425420D02*
X1504900Y16425420D01*
X1504900Y16425420D02*
X1504900Y37285420D01*
X1504900Y37285420D02*
X10864900Y37285420D01*
%TO.C,JP1*%
X13962500Y19590020D02*
X13962500Y13440020D01*
X13962500Y13440020D02*
X17562500Y13440020D01*
X17562500Y13440020D02*
X17562500Y19590020D01*
X17562500Y19590020D02*
X13962500Y19590020D01*
%TO.C,JP2*%
X28898400Y13440020D02*
X32498400Y13440020D01*
X28898400Y19590020D02*
X28898400Y13440020D01*
X32498400Y19590020D02*
X28898400Y19590020D01*
X32498400Y13440020D02*
X32498400Y19590020D01*
%TO.C,JP3*%
X25030500Y13440020D02*
X25030500Y19590020D01*
X25030500Y19590020D02*
X21430500Y19590020D01*
X21430500Y19590020D02*
X21430500Y13440020D01*
X21430500Y13440020D02*
X25030500Y13440020D01*
%TO.C,R1*%
X26178800Y4856120D02*
X26178800Y1856120D01*
X26178800Y1856120D02*
X35898800Y1856120D01*
X35898800Y1856120D02*
X35898800Y4856120D01*
X35898800Y4856120D02*
X26178800Y4856120D01*
%TO.C,R2*%
X48119400Y45746320D02*
X48119400Y36026320D01*
X51119400Y45746320D02*
X48119400Y45746320D01*
X51119400Y36026320D02*
X51119400Y45746320D01*
X48119400Y36026320D02*
X51119400Y36026320D01*
%TO.C,R3*%
X67999400Y33879920D02*
X58279400Y33879920D01*
X67999400Y30879920D02*
X67999400Y33879920D01*
X58279400Y30879920D02*
X67999400Y30879920D01*
X58279400Y33879920D02*
X58279400Y30879920D01*
%TO.C,R4*%
X57139400Y45746320D02*
X54139400Y45746320D01*
X54139400Y45746320D02*
X54139400Y36026320D01*
X54139400Y36026320D02*
X57139400Y36026320D01*
X57139400Y36026320D02*
X57139400Y45746320D01*
%TO.C,R5*%
X20339200Y36026320D02*
X20339200Y45746320D01*
X17339200Y36026320D02*
X20339200Y36026320D01*
X17339200Y45746320D02*
X17339200Y36026320D01*
X20339200Y45746320D02*
X17339200Y45746320D01*
%TO.C,R6*%
X27467200Y45746320D02*
X24467200Y45746320D01*
X24467200Y45746320D02*
X24467200Y36026320D01*
X24467200Y36026320D02*
X27467200Y36026320D01*
X27467200Y36026320D02*
X27467200Y45746320D01*
%TO.C,R7*%
X20057400Y8975120D02*
X20057400Y5975120D01*
X20057400Y5975120D02*
X29777400Y5975120D01*
X29777400Y5975120D02*
X29777400Y8975120D01*
X29777400Y8975120D02*
X20057400Y8975120D01*
%TO.C,U1*%
X45666400Y7711120D02*
X45666400Y43811120D01*
X45666400Y43811120D02*
X35866400Y43811120D01*
X35866400Y43811120D02*
X35866400Y7711120D01*
X35866400Y7711120D02*
X45666400Y7711120D01*
%TD*%
M02*
