M48
; DRILL file {KiCad 5.1.2-1.fc30} date nie, 21 lip 2019, 03:59:47
; FORMAT={-:-/ absolute / inch / decimal}
; #@! TF.CreationDate,2019-07-21T03:59:47+02:00
; #@! TF.GenerationSoftware,Kicad,Pcbnew,5.1.2-1.fc30
; #@! TF.FileFunction,Plated,1,2,PTH
FMAT,2
INCH
T1C0.0315
T2C0.0354
T3C0.0394
T4C0.0400
%
G90
G05
T1
X4.64Y-2.54
X5.04Y-2.54
X4.64Y-2.07
X5.04Y-2.07
X5.82Y-3.85
X5.9184Y-3.85
X5.97Y-3.05
X5.97Y-3.45
X4.64Y-1.87
X5.04Y-1.87
T2
X5.22Y-3.05
X5.72Y-3.05
X5.22Y-3.51
X5.72Y-3.51
X4.56Y-3.51
X5.06Y-3.51
X4.58Y-3.05
X5.08Y-3.05
X4.56Y-3.31
X5.06Y-3.31
X4.64Y-2.28
X5.14Y-2.28
X4.56Y-3.79
X5.06Y-3.79
X5.22Y-3.3
X5.72Y-3.3
T3
X5.59Y-1.9538
X5.59Y-2.0628
X5.59Y-2.1719
X5.59Y-2.2809
X5.59Y-2.39
X5.69Y-2.0083
X5.69Y-2.1174
X5.69Y-2.2264
X5.69Y-2.3355
T4
X5.4Y-4.25
X5.4Y-4.35
X5.5Y-4.25
X5.5Y-4.35
X5.6Y-4.25
X5.6Y-4.35
X5.7Y-4.25
X5.7Y-4.35
X5.8Y-4.25
X5.8Y-4.35
T3
G00X4.5206Y-4.09
M15
G01X4.5994Y-4.09
M16
G05
G00X4.5206Y-4.3262
M15
G01X4.5994Y-4.3262
M16
G05
G00X4.745Y-4.2475
M15
G01X4.745Y-4.1687
M16
G05
T0
M30
