G04 #@! TF.GenerationSoftware,KiCad,Pcbnew,5.1.2-1.fc30*
G04 #@! TF.CreationDate,2019-07-21T03:59:41+02:00*
G04 #@! TF.ProjectId,dasa,64617361-2e6b-4696-9361-645f70636258,rev?*
G04 #@! TF.SameCoordinates,Original*
G04 #@! TF.FileFunction,Drawing*
%FSLAX46Y46*%
G04 Gerber Fmt 4.6, Leading zero omitted, Abs format (unit mm)*
G04 Created by KiCad (PCBNEW 5.1.2-1.fc30) date 2019-07-21 03:59:41*
%MOMM*%
%LPD*%
G04 APERTURE LIST*
%ADD10C,0.150000*%
G04 APERTURE END LIST*
D10*
X113713047Y-41854380D02*
X113713047Y-41330571D01*
X113665428Y-41235333D01*
X113570190Y-41187714D01*
X113379714Y-41187714D01*
X113284476Y-41235333D01*
X113713047Y-41806761D02*
X113617809Y-41854380D01*
X113379714Y-41854380D01*
X113284476Y-41806761D01*
X113236857Y-41711523D01*
X113236857Y-41616285D01*
X113284476Y-41521047D01*
X113379714Y-41473428D01*
X113617809Y-41473428D01*
X113713047Y-41425809D01*
X114094000Y-41187714D02*
X114332095Y-41854380D01*
X114570190Y-41187714D01*
X114951142Y-41854380D02*
X114951142Y-41187714D01*
X114951142Y-41378190D02*
X114998761Y-41282952D01*
X115046380Y-41235333D01*
X115141619Y-41187714D01*
X115236857Y-41187714D01*
X116284476Y-40854380D02*
X116284476Y-41044857D01*
X116665428Y-40854380D02*
X116665428Y-41044857D01*
X117522571Y-41854380D02*
X117522571Y-40854380D01*
X117522571Y-41806761D02*
X117427333Y-41854380D01*
X117236857Y-41854380D01*
X117141619Y-41806761D01*
X117094000Y-41759142D01*
X117046380Y-41663904D01*
X117046380Y-41378190D01*
X117094000Y-41282952D01*
X117141619Y-41235333D01*
X117236857Y-41187714D01*
X117427333Y-41187714D01*
X117522571Y-41235333D01*
X118427333Y-41854380D02*
X118427333Y-41330571D01*
X118379714Y-41235333D01*
X118284476Y-41187714D01*
X118094000Y-41187714D01*
X117998761Y-41235333D01*
X118427333Y-41806761D02*
X118332095Y-41854380D01*
X118094000Y-41854380D01*
X117998761Y-41806761D01*
X117951142Y-41711523D01*
X117951142Y-41616285D01*
X117998761Y-41521047D01*
X118094000Y-41473428D01*
X118332095Y-41473428D01*
X118427333Y-41425809D01*
X118855904Y-41806761D02*
X118951142Y-41854380D01*
X119141619Y-41854380D01*
X119236857Y-41806761D01*
X119284476Y-41711523D01*
X119284476Y-41663904D01*
X119236857Y-41568666D01*
X119141619Y-41521047D01*
X118998761Y-41521047D01*
X118903523Y-41473428D01*
X118855904Y-41378190D01*
X118855904Y-41330571D01*
X118903523Y-41235333D01*
X118998761Y-41187714D01*
X119141619Y-41187714D01*
X119236857Y-41235333D01*
X120141619Y-41854380D02*
X120141619Y-41330571D01*
X120094000Y-41235333D01*
X119998761Y-41187714D01*
X119808285Y-41187714D01*
X119713047Y-41235333D01*
X120141619Y-41806761D02*
X120046380Y-41854380D01*
X119808285Y-41854380D01*
X119713047Y-41806761D01*
X119665428Y-41711523D01*
X119665428Y-41616285D01*
X119713047Y-41521047D01*
X119808285Y-41473428D01*
X120046380Y-41473428D01*
X120141619Y-41425809D01*
X120570190Y-40854380D02*
X120570190Y-41044857D01*
X120951142Y-40854380D02*
X120951142Y-41044857D01*
M02*
