G04 #@! TF.GenerationSoftware,KiCad,Pcbnew,5.1.2-1.fc30*
G04 #@! TF.CreationDate,2019-07-21T03:59:41+02:00*
G04 #@! TF.ProjectId,dasa,64617361-2e6b-4696-9361-645f70636258,rev?*
G04 #@! TF.SameCoordinates,Original*
G04 #@! TF.FileFunction,Soldermask,Top*
G04 #@! TF.FilePolarity,Negative*
%FSLAX46Y46*%
G04 Gerber Fmt 4.6, Leading zero omitted, Abs format (unit mm)*
G04 Created by KiCad (PCBNEW 5.1.2-1.fc30) date 2019-07-21 03:59:41*
%MOMM*%
%LPD*%
G04 APERTURE LIST*
%ADD10C,0.100000*%
G04 APERTURE END LIST*
D10*
G36*
X117050979Y-108349293D02*
G01*
X117184625Y-108389834D01*
X117307784Y-108455664D01*
X117415740Y-108544260D01*
X117504336Y-108652216D01*
X117570166Y-108775375D01*
X117610707Y-108909021D01*
X117625000Y-109054140D01*
X117625000Y-110717860D01*
X117610707Y-110862979D01*
X117570166Y-110996625D01*
X117504336Y-111119784D01*
X117415740Y-111227740D01*
X117307784Y-111316336D01*
X117184625Y-111382166D01*
X117050979Y-111422707D01*
X116905860Y-111437000D01*
X114742140Y-111437000D01*
X114597021Y-111422707D01*
X114463375Y-111382166D01*
X114340216Y-111316336D01*
X114232260Y-111227740D01*
X114143664Y-111119784D01*
X114077834Y-110996625D01*
X114037293Y-110862979D01*
X114023000Y-110717860D01*
X114023000Y-109054140D01*
X114037293Y-108909021D01*
X114077834Y-108775375D01*
X114143664Y-108652216D01*
X114232260Y-108544260D01*
X114340216Y-108455664D01*
X114463375Y-108389834D01*
X114597021Y-108349293D01*
X114742140Y-108335000D01*
X116905860Y-108335000D01*
X117050979Y-108349293D01*
X117050979Y-108349293D01*
G37*
G36*
X147499294Y-109588633D02*
G01*
X147671695Y-109640931D01*
X147830583Y-109725858D01*
X147969849Y-109840151D01*
X148084142Y-109979417D01*
X148169069Y-110138305D01*
X148221367Y-110310706D01*
X148239025Y-110490000D01*
X148221367Y-110669294D01*
X148169069Y-110841695D01*
X148084142Y-111000583D01*
X147969849Y-111139849D01*
X147830583Y-111254142D01*
X147671695Y-111339069D01*
X147499294Y-111391367D01*
X147364931Y-111404600D01*
X147275069Y-111404600D01*
X147140706Y-111391367D01*
X146968305Y-111339069D01*
X146809417Y-111254142D01*
X146670151Y-111139849D01*
X146555858Y-111000583D01*
X146470931Y-110841695D01*
X146418633Y-110669294D01*
X146400975Y-110490000D01*
X146418633Y-110310706D01*
X146470931Y-110138305D01*
X146555858Y-109979417D01*
X146670151Y-109840151D01*
X146809417Y-109725858D01*
X146968305Y-109640931D01*
X147140706Y-109588633D01*
X147275069Y-109575400D01*
X147364931Y-109575400D01*
X147499294Y-109588633D01*
X147499294Y-109588633D01*
G37*
G36*
X138074600Y-111404600D02*
G01*
X136245400Y-111404600D01*
X136245400Y-109575400D01*
X138074600Y-109575400D01*
X138074600Y-111404600D01*
X138074600Y-111404600D01*
G37*
G36*
X139879294Y-109588633D02*
G01*
X140051695Y-109640931D01*
X140210583Y-109725858D01*
X140349849Y-109840151D01*
X140464142Y-109979417D01*
X140549069Y-110138305D01*
X140601367Y-110310706D01*
X140619025Y-110490000D01*
X140601367Y-110669294D01*
X140549069Y-110841695D01*
X140464142Y-111000583D01*
X140349849Y-111139849D01*
X140210583Y-111254142D01*
X140051695Y-111339069D01*
X139879294Y-111391367D01*
X139744931Y-111404600D01*
X139655069Y-111404600D01*
X139520706Y-111391367D01*
X139348305Y-111339069D01*
X139189417Y-111254142D01*
X139050151Y-111139849D01*
X138935858Y-111000583D01*
X138850931Y-110841695D01*
X138798633Y-110669294D01*
X138780975Y-110490000D01*
X138798633Y-110310706D01*
X138850931Y-110138305D01*
X138935858Y-109979417D01*
X139050151Y-109840151D01*
X139189417Y-109725858D01*
X139348305Y-109640931D01*
X139520706Y-109588633D01*
X139655069Y-109575400D01*
X139744931Y-109575400D01*
X139879294Y-109588633D01*
X139879294Y-109588633D01*
G37*
G36*
X144959294Y-109588633D02*
G01*
X145131695Y-109640931D01*
X145290583Y-109725858D01*
X145429849Y-109840151D01*
X145544142Y-109979417D01*
X145629069Y-110138305D01*
X145681367Y-110310706D01*
X145699025Y-110490000D01*
X145681367Y-110669294D01*
X145629069Y-110841695D01*
X145544142Y-111000583D01*
X145429849Y-111139849D01*
X145290583Y-111254142D01*
X145131695Y-111339069D01*
X144959294Y-111391367D01*
X144824931Y-111404600D01*
X144735069Y-111404600D01*
X144600706Y-111391367D01*
X144428305Y-111339069D01*
X144269417Y-111254142D01*
X144130151Y-111139849D01*
X144015858Y-111000583D01*
X143930931Y-110841695D01*
X143878633Y-110669294D01*
X143860975Y-110490000D01*
X143878633Y-110310706D01*
X143930931Y-110138305D01*
X144015858Y-109979417D01*
X144130151Y-109840151D01*
X144269417Y-109725858D01*
X144428305Y-109640931D01*
X144600706Y-109588633D01*
X144735069Y-109575400D01*
X144824931Y-109575400D01*
X144959294Y-109588633D01*
X144959294Y-109588633D01*
G37*
G36*
X142419294Y-109588633D02*
G01*
X142591695Y-109640931D01*
X142750583Y-109725858D01*
X142889849Y-109840151D01*
X143004142Y-109979417D01*
X143089069Y-110138305D01*
X143141367Y-110310706D01*
X143159025Y-110490000D01*
X143141367Y-110669294D01*
X143089069Y-110841695D01*
X143004142Y-111000583D01*
X142889849Y-111139849D01*
X142750583Y-111254142D01*
X142591695Y-111339069D01*
X142419294Y-111391367D01*
X142284931Y-111404600D01*
X142195069Y-111404600D01*
X142060706Y-111391367D01*
X141888305Y-111339069D01*
X141729417Y-111254142D01*
X141590151Y-111139849D01*
X141475858Y-111000583D01*
X141390931Y-110841695D01*
X141338633Y-110669294D01*
X141320975Y-110490000D01*
X141338633Y-110310706D01*
X141390931Y-110138305D01*
X141475858Y-109979417D01*
X141590151Y-109840151D01*
X141729417Y-109725858D01*
X141888305Y-109640931D01*
X142060706Y-109588633D01*
X142195069Y-109575400D01*
X142284931Y-109575400D01*
X142419294Y-109588633D01*
X142419294Y-109588633D01*
G37*
G36*
X142419294Y-107048633D02*
G01*
X142591695Y-107100931D01*
X142750583Y-107185858D01*
X142889849Y-107300151D01*
X143004142Y-107439417D01*
X143089069Y-107598305D01*
X143141367Y-107770706D01*
X143159025Y-107950000D01*
X143141367Y-108129294D01*
X143089069Y-108301695D01*
X143004142Y-108460583D01*
X142889849Y-108599849D01*
X142750583Y-108714142D01*
X142591695Y-108799069D01*
X142419294Y-108851367D01*
X142284931Y-108864600D01*
X142195069Y-108864600D01*
X142060706Y-108851367D01*
X141888305Y-108799069D01*
X141729417Y-108714142D01*
X141590151Y-108599849D01*
X141475858Y-108460583D01*
X141390931Y-108301695D01*
X141338633Y-108129294D01*
X141320975Y-107950000D01*
X141338633Y-107770706D01*
X141390931Y-107598305D01*
X141475858Y-107439417D01*
X141590151Y-107300151D01*
X141729417Y-107185858D01*
X141888305Y-107100931D01*
X142060706Y-107048633D01*
X142195069Y-107035400D01*
X142284931Y-107035400D01*
X142419294Y-107048633D01*
X142419294Y-107048633D01*
G37*
G36*
X139879294Y-107048633D02*
G01*
X140051695Y-107100931D01*
X140210583Y-107185858D01*
X140349849Y-107300151D01*
X140464142Y-107439417D01*
X140549069Y-107598305D01*
X140601367Y-107770706D01*
X140619025Y-107950000D01*
X140601367Y-108129294D01*
X140549069Y-108301695D01*
X140464142Y-108460583D01*
X140349849Y-108599849D01*
X140210583Y-108714142D01*
X140051695Y-108799069D01*
X139879294Y-108851367D01*
X139744931Y-108864600D01*
X139655069Y-108864600D01*
X139520706Y-108851367D01*
X139348305Y-108799069D01*
X139189417Y-108714142D01*
X139050151Y-108599849D01*
X138935858Y-108460583D01*
X138850931Y-108301695D01*
X138798633Y-108129294D01*
X138780975Y-107950000D01*
X138798633Y-107770706D01*
X138850931Y-107598305D01*
X138935858Y-107439417D01*
X139050151Y-107300151D01*
X139189417Y-107185858D01*
X139348305Y-107100931D01*
X139520706Y-107048633D01*
X139655069Y-107035400D01*
X139744931Y-107035400D01*
X139879294Y-107048633D01*
X139879294Y-107048633D01*
G37*
G36*
X137339294Y-107048633D02*
G01*
X137511695Y-107100931D01*
X137670583Y-107185858D01*
X137809849Y-107300151D01*
X137924142Y-107439417D01*
X138009069Y-107598305D01*
X138061367Y-107770706D01*
X138079025Y-107950000D01*
X138061367Y-108129294D01*
X138009069Y-108301695D01*
X137924142Y-108460583D01*
X137809849Y-108599849D01*
X137670583Y-108714142D01*
X137511695Y-108799069D01*
X137339294Y-108851367D01*
X137204931Y-108864600D01*
X137115069Y-108864600D01*
X136980706Y-108851367D01*
X136808305Y-108799069D01*
X136649417Y-108714142D01*
X136510151Y-108599849D01*
X136395858Y-108460583D01*
X136310931Y-108301695D01*
X136258633Y-108129294D01*
X136240975Y-107950000D01*
X136258633Y-107770706D01*
X136310931Y-107598305D01*
X136395858Y-107439417D01*
X136510151Y-107300151D01*
X136649417Y-107185858D01*
X136808305Y-107100931D01*
X136980706Y-107048633D01*
X137115069Y-107035400D01*
X137204931Y-107035400D01*
X137339294Y-107048633D01*
X137339294Y-107048633D01*
G37*
G36*
X144959294Y-107048633D02*
G01*
X145131695Y-107100931D01*
X145290583Y-107185858D01*
X145429849Y-107300151D01*
X145544142Y-107439417D01*
X145629069Y-107598305D01*
X145681367Y-107770706D01*
X145699025Y-107950000D01*
X145681367Y-108129294D01*
X145629069Y-108301695D01*
X145544142Y-108460583D01*
X145429849Y-108599849D01*
X145290583Y-108714142D01*
X145131695Y-108799069D01*
X144959294Y-108851367D01*
X144824931Y-108864600D01*
X144735069Y-108864600D01*
X144600706Y-108851367D01*
X144428305Y-108799069D01*
X144269417Y-108714142D01*
X144130151Y-108599849D01*
X144015858Y-108460583D01*
X143930931Y-108301695D01*
X143878633Y-108129294D01*
X143860975Y-107950000D01*
X143878633Y-107770706D01*
X143930931Y-107598305D01*
X144015858Y-107439417D01*
X144130151Y-107300151D01*
X144269417Y-107185858D01*
X144428305Y-107100931D01*
X144600706Y-107048633D01*
X144735069Y-107035400D01*
X144824931Y-107035400D01*
X144959294Y-107048633D01*
X144959294Y-107048633D01*
G37*
G36*
X147499294Y-107048633D02*
G01*
X147671695Y-107100931D01*
X147830583Y-107185858D01*
X147969849Y-107300151D01*
X148084142Y-107439417D01*
X148169069Y-107598305D01*
X148221367Y-107770706D01*
X148239025Y-107950000D01*
X148221367Y-108129294D01*
X148169069Y-108301695D01*
X148084142Y-108460583D01*
X147969849Y-108599849D01*
X147830583Y-108714142D01*
X147671695Y-108799069D01*
X147499294Y-108851367D01*
X147364931Y-108864600D01*
X147275069Y-108864600D01*
X147140706Y-108851367D01*
X146968305Y-108799069D01*
X146809417Y-108714142D01*
X146670151Y-108599849D01*
X146555858Y-108460583D01*
X146470931Y-108301695D01*
X146418633Y-108129294D01*
X146400975Y-107950000D01*
X146418633Y-107770706D01*
X146470931Y-107598305D01*
X146555858Y-107439417D01*
X146670151Y-107300151D01*
X146809417Y-107185858D01*
X146968305Y-107100931D01*
X147140706Y-107048633D01*
X147275069Y-107035400D01*
X147364931Y-107035400D01*
X147499294Y-107048633D01*
X147499294Y-107048633D01*
G37*
G36*
X121650366Y-105101695D02*
G01*
X121807460Y-105149349D01*
X121952231Y-105226731D01*
X122079128Y-105330872D01*
X122183269Y-105457769D01*
X122260651Y-105602540D01*
X122308305Y-105759634D01*
X122325000Y-105929140D01*
X122325000Y-107842860D01*
X122308305Y-108012366D01*
X122260651Y-108169460D01*
X122183269Y-108314231D01*
X122079128Y-108441128D01*
X121952231Y-108545269D01*
X121807460Y-108622651D01*
X121650366Y-108670305D01*
X121480860Y-108687000D01*
X119567140Y-108687000D01*
X119397634Y-108670305D01*
X119240540Y-108622651D01*
X119095769Y-108545269D01*
X118968872Y-108441128D01*
X118864731Y-108314231D01*
X118787349Y-108169460D01*
X118739695Y-108012366D01*
X118723000Y-107842860D01*
X118723000Y-105929140D01*
X118739695Y-105759634D01*
X118787349Y-105602540D01*
X118864731Y-105457769D01*
X118968872Y-105330872D01*
X119095769Y-105226731D01*
X119240540Y-105149349D01*
X119397634Y-105101695D01*
X119567140Y-105085000D01*
X121480860Y-105085000D01*
X121650366Y-105101695D01*
X121650366Y-105101695D01*
G37*
G36*
X117625000Y-105687000D02*
G01*
X114023000Y-105687000D01*
X114023000Y-102085000D01*
X117625000Y-102085000D01*
X117625000Y-105687000D01*
X117625000Y-105687000D01*
G37*
G36*
X148679000Y-98641000D02*
G01*
X146977000Y-98641000D01*
X146977000Y-96939000D01*
X148679000Y-96939000D01*
X148679000Y-98641000D01*
X148679000Y-98641000D01*
G37*
G36*
X150576228Y-96971703D02*
G01*
X150731100Y-97035853D01*
X150870481Y-97128985D01*
X150989015Y-97247519D01*
X151082147Y-97386900D01*
X151146297Y-97541772D01*
X151179000Y-97706184D01*
X151179000Y-97873816D01*
X151146297Y-98038228D01*
X151082147Y-98193100D01*
X150989015Y-98332481D01*
X150870481Y-98451015D01*
X150731100Y-98544147D01*
X150576228Y-98608297D01*
X150411816Y-98641000D01*
X150244184Y-98641000D01*
X150079772Y-98608297D01*
X149924900Y-98544147D01*
X149785519Y-98451015D01*
X149666985Y-98332481D01*
X149573853Y-98193100D01*
X149509703Y-98038228D01*
X149477000Y-97873816D01*
X149477000Y-97706184D01*
X149509703Y-97541772D01*
X149573853Y-97386900D01*
X149666985Y-97247519D01*
X149785519Y-97128985D01*
X149924900Y-97035853D01*
X150079772Y-96971703D01*
X150244184Y-96939000D01*
X150411816Y-96939000D01*
X150576228Y-96971703D01*
X150576228Y-96971703D01*
G37*
G36*
X116775000Y-97217000D02*
G01*
X114873000Y-97217000D01*
X114873000Y-95315000D01*
X116775000Y-95315000D01*
X116775000Y-97217000D01*
X116775000Y-97217000D01*
G37*
G36*
X128710425Y-95328760D02*
G01*
X128710428Y-95328761D01*
X128710429Y-95328761D01*
X128889693Y-95383140D01*
X128889696Y-95383142D01*
X128889697Y-95383142D01*
X129054903Y-95471446D01*
X129199712Y-95590288D01*
X129318554Y-95735097D01*
X129406858Y-95900303D01*
X129406860Y-95900307D01*
X129461239Y-96079571D01*
X129461240Y-96079575D01*
X129479601Y-96266000D01*
X129461240Y-96452425D01*
X129461239Y-96452428D01*
X129461239Y-96452429D01*
X129406860Y-96631693D01*
X129406858Y-96631696D01*
X129406858Y-96631697D01*
X129318554Y-96796903D01*
X129199712Y-96941712D01*
X129054903Y-97060554D01*
X128889697Y-97148858D01*
X128889693Y-97148860D01*
X128710429Y-97203239D01*
X128710428Y-97203239D01*
X128710425Y-97203240D01*
X128570718Y-97217000D01*
X128477282Y-97217000D01*
X128337575Y-97203240D01*
X128337572Y-97203239D01*
X128337571Y-97203239D01*
X128158307Y-97148860D01*
X128158303Y-97148858D01*
X127993097Y-97060554D01*
X127848288Y-96941712D01*
X127729446Y-96796903D01*
X127641142Y-96631697D01*
X127641142Y-96631696D01*
X127641140Y-96631693D01*
X127586761Y-96452429D01*
X127586761Y-96452428D01*
X127586760Y-96452425D01*
X127568399Y-96266000D01*
X127586760Y-96079575D01*
X127586761Y-96079571D01*
X127641140Y-95900307D01*
X127641142Y-95900303D01*
X127729446Y-95735097D01*
X127848288Y-95590288D01*
X127993097Y-95471446D01*
X128158303Y-95383142D01*
X128158304Y-95383142D01*
X128158307Y-95383140D01*
X128337571Y-95328761D01*
X128337572Y-95328761D01*
X128337575Y-95328760D01*
X128477282Y-95315000D01*
X128570718Y-95315000D01*
X128710425Y-95328760D01*
X128710425Y-95328760D01*
G37*
G36*
X133539000Y-90105000D02*
G01*
X131637000Y-90105000D01*
X131637000Y-88203000D01*
X133539000Y-88203000D01*
X133539000Y-90105000D01*
X133539000Y-90105000D01*
G37*
G36*
X145474425Y-88216760D02*
G01*
X145474428Y-88216761D01*
X145474429Y-88216761D01*
X145653693Y-88271140D01*
X145653696Y-88271142D01*
X145653697Y-88271142D01*
X145818903Y-88359446D01*
X145963712Y-88478288D01*
X146082554Y-88623097D01*
X146170858Y-88788303D01*
X146170860Y-88788307D01*
X146225239Y-88967571D01*
X146225240Y-88967575D01*
X146243601Y-89154000D01*
X146225240Y-89340425D01*
X146225239Y-89340428D01*
X146225239Y-89340429D01*
X146170860Y-89519693D01*
X146170858Y-89519696D01*
X146170858Y-89519697D01*
X146082554Y-89684903D01*
X145963712Y-89829712D01*
X145818903Y-89948554D01*
X145653697Y-90036858D01*
X145653693Y-90036860D01*
X145474429Y-90091239D01*
X145474428Y-90091239D01*
X145474425Y-90091240D01*
X145334718Y-90105000D01*
X145241282Y-90105000D01*
X145101575Y-90091240D01*
X145101572Y-90091239D01*
X145101571Y-90091239D01*
X144922307Y-90036860D01*
X144922303Y-90036858D01*
X144757097Y-89948554D01*
X144612288Y-89829712D01*
X144493446Y-89684903D01*
X144405142Y-89519697D01*
X144405142Y-89519696D01*
X144405140Y-89519693D01*
X144350761Y-89340429D01*
X144350761Y-89340428D01*
X144350760Y-89340425D01*
X144332399Y-89154000D01*
X144350760Y-88967575D01*
X144350761Y-88967571D01*
X144405140Y-88788307D01*
X144405142Y-88788303D01*
X144493446Y-88623097D01*
X144612288Y-88478288D01*
X144757097Y-88359446D01*
X144922303Y-88271142D01*
X144922304Y-88271142D01*
X144922307Y-88271140D01*
X145101571Y-88216761D01*
X145101572Y-88216761D01*
X145101575Y-88216760D01*
X145241282Y-88203000D01*
X145334718Y-88203000D01*
X145474425Y-88216760D01*
X145474425Y-88216760D01*
G37*
G36*
X116775000Y-90105000D02*
G01*
X114873000Y-90105000D01*
X114873000Y-88203000D01*
X116775000Y-88203000D01*
X116775000Y-90105000D01*
X116775000Y-90105000D01*
G37*
G36*
X128710425Y-88216760D02*
G01*
X128710428Y-88216761D01*
X128710429Y-88216761D01*
X128889693Y-88271140D01*
X128889696Y-88271142D01*
X128889697Y-88271142D01*
X129054903Y-88359446D01*
X129199712Y-88478288D01*
X129318554Y-88623097D01*
X129406858Y-88788303D01*
X129406860Y-88788307D01*
X129461239Y-88967571D01*
X129461240Y-88967575D01*
X129479601Y-89154000D01*
X129461240Y-89340425D01*
X129461239Y-89340428D01*
X129461239Y-89340429D01*
X129406860Y-89519693D01*
X129406858Y-89519696D01*
X129406858Y-89519697D01*
X129318554Y-89684903D01*
X129199712Y-89829712D01*
X129054903Y-89948554D01*
X128889697Y-90036858D01*
X128889693Y-90036860D01*
X128710429Y-90091239D01*
X128710428Y-90091239D01*
X128710425Y-90091240D01*
X128570718Y-90105000D01*
X128477282Y-90105000D01*
X128337575Y-90091240D01*
X128337572Y-90091239D01*
X128337571Y-90091239D01*
X128158307Y-90036860D01*
X128158303Y-90036858D01*
X127993097Y-89948554D01*
X127848288Y-89829712D01*
X127729446Y-89684903D01*
X127641142Y-89519697D01*
X127641142Y-89519696D01*
X127641140Y-89519693D01*
X127586761Y-89340429D01*
X127586761Y-89340428D01*
X127586760Y-89340425D01*
X127568399Y-89154000D01*
X127586760Y-88967575D01*
X127586761Y-88967571D01*
X127641140Y-88788307D01*
X127641142Y-88788303D01*
X127729446Y-88623097D01*
X127848288Y-88478288D01*
X127993097Y-88359446D01*
X128158303Y-88271142D01*
X128158304Y-88271142D01*
X128158307Y-88271140D01*
X128337571Y-88216761D01*
X128337572Y-88216761D01*
X128337575Y-88216760D01*
X128477282Y-88203000D01*
X128570718Y-88203000D01*
X128710425Y-88216760D01*
X128710425Y-88216760D01*
G37*
G36*
X151804823Y-86791313D02*
G01*
X151965242Y-86839976D01*
X152097906Y-86910886D01*
X152113078Y-86918996D01*
X152242659Y-87025341D01*
X152349004Y-87154922D01*
X152349005Y-87154924D01*
X152428024Y-87302758D01*
X152476687Y-87463177D01*
X152493117Y-87630000D01*
X152476687Y-87796823D01*
X152428024Y-87957242D01*
X152357114Y-88089906D01*
X152349004Y-88105078D01*
X152242659Y-88234659D01*
X152113078Y-88341004D01*
X152113076Y-88341005D01*
X151965242Y-88420024D01*
X151804823Y-88468687D01*
X151679804Y-88481000D01*
X151596196Y-88481000D01*
X151471177Y-88468687D01*
X151310758Y-88420024D01*
X151162924Y-88341005D01*
X151162922Y-88341004D01*
X151033341Y-88234659D01*
X150926996Y-88105078D01*
X150918886Y-88089906D01*
X150847976Y-87957242D01*
X150799313Y-87796823D01*
X150782883Y-87630000D01*
X150799313Y-87463177D01*
X150847976Y-87302758D01*
X150926995Y-87154924D01*
X150926996Y-87154922D01*
X151033341Y-87025341D01*
X151162922Y-86918996D01*
X151178094Y-86910886D01*
X151310758Y-86839976D01*
X151471177Y-86791313D01*
X151596196Y-86779000D01*
X151679804Y-86779000D01*
X151804823Y-86791313D01*
X151804823Y-86791313D01*
G37*
G36*
X128710425Y-83136760D02*
G01*
X128710428Y-83136761D01*
X128710429Y-83136761D01*
X128889693Y-83191140D01*
X128889696Y-83191142D01*
X128889697Y-83191142D01*
X129054903Y-83279446D01*
X129199712Y-83398288D01*
X129318554Y-83543097D01*
X129366913Y-83633571D01*
X129406860Y-83708307D01*
X129461239Y-83887571D01*
X129461240Y-83887575D01*
X129479601Y-84074000D01*
X129461240Y-84260425D01*
X129461239Y-84260428D01*
X129461239Y-84260429D01*
X129406860Y-84439693D01*
X129406858Y-84439696D01*
X129406858Y-84439697D01*
X129318554Y-84604903D01*
X129199712Y-84749712D01*
X129054903Y-84868554D01*
X128889697Y-84956858D01*
X128889693Y-84956860D01*
X128710429Y-85011239D01*
X128710428Y-85011239D01*
X128710425Y-85011240D01*
X128570718Y-85025000D01*
X128477282Y-85025000D01*
X128337575Y-85011240D01*
X128337572Y-85011239D01*
X128337571Y-85011239D01*
X128158307Y-84956860D01*
X128158303Y-84956858D01*
X127993097Y-84868554D01*
X127848288Y-84749712D01*
X127729446Y-84604903D01*
X127641142Y-84439697D01*
X127641142Y-84439696D01*
X127641140Y-84439693D01*
X127586761Y-84260429D01*
X127586761Y-84260428D01*
X127586760Y-84260425D01*
X127568399Y-84074000D01*
X127586760Y-83887575D01*
X127586761Y-83887571D01*
X127641140Y-83708307D01*
X127681087Y-83633571D01*
X127729446Y-83543097D01*
X127848288Y-83398288D01*
X127993097Y-83279446D01*
X128158303Y-83191142D01*
X128158304Y-83191142D01*
X128158307Y-83191140D01*
X128337571Y-83136761D01*
X128337572Y-83136761D01*
X128337575Y-83136760D01*
X128477282Y-83123000D01*
X128570718Y-83123000D01*
X128710425Y-83136760D01*
X128710425Y-83136760D01*
G37*
G36*
X116775000Y-85025000D02*
G01*
X114873000Y-85025000D01*
X114873000Y-83123000D01*
X116775000Y-83123000D01*
X116775000Y-85025000D01*
X116775000Y-85025000D01*
G37*
G36*
X133539000Y-84771000D02*
G01*
X131637000Y-84771000D01*
X131637000Y-82869000D01*
X133539000Y-82869000D01*
X133539000Y-84771000D01*
X133539000Y-84771000D01*
G37*
G36*
X145474425Y-82882760D02*
G01*
X145474428Y-82882761D01*
X145474429Y-82882761D01*
X145653693Y-82937140D01*
X145653696Y-82937142D01*
X145653697Y-82937142D01*
X145818903Y-83025446D01*
X145963712Y-83144288D01*
X146082554Y-83289097D01*
X146170858Y-83454303D01*
X146170860Y-83454307D01*
X146197794Y-83543097D01*
X146225240Y-83633575D01*
X146243601Y-83820000D01*
X146225240Y-84006425D01*
X146225239Y-84006428D01*
X146225239Y-84006429D01*
X146170860Y-84185693D01*
X146170858Y-84185696D01*
X146170858Y-84185697D01*
X146082554Y-84350903D01*
X145963712Y-84495712D01*
X145818903Y-84614554D01*
X145653697Y-84702858D01*
X145653693Y-84702860D01*
X145474429Y-84757239D01*
X145474428Y-84757239D01*
X145474425Y-84757240D01*
X145334718Y-84771000D01*
X145241282Y-84771000D01*
X145101575Y-84757240D01*
X145101572Y-84757239D01*
X145101571Y-84757239D01*
X144922307Y-84702860D01*
X144922303Y-84702858D01*
X144757097Y-84614554D01*
X144612288Y-84495712D01*
X144493446Y-84350903D01*
X144405142Y-84185697D01*
X144405142Y-84185696D01*
X144405140Y-84185693D01*
X144350761Y-84006429D01*
X144350761Y-84006428D01*
X144350760Y-84006425D01*
X144332399Y-83820000D01*
X144350760Y-83633575D01*
X144378206Y-83543097D01*
X144405140Y-83454307D01*
X144405142Y-83454303D01*
X144493446Y-83289097D01*
X144612288Y-83144288D01*
X144757097Y-83025446D01*
X144922303Y-82937142D01*
X144922304Y-82937142D01*
X144922307Y-82937140D01*
X145101571Y-82882761D01*
X145101572Y-82882761D01*
X145101575Y-82882760D01*
X145241282Y-82869000D01*
X145334718Y-82869000D01*
X145474425Y-82882760D01*
X145474425Y-82882760D01*
G37*
G36*
X117283000Y-78421000D02*
G01*
X115381000Y-78421000D01*
X115381000Y-76519000D01*
X117283000Y-76519000D01*
X117283000Y-78421000D01*
X117283000Y-78421000D01*
G37*
G36*
X129218425Y-76532760D02*
G01*
X129218428Y-76532761D01*
X129218429Y-76532761D01*
X129397693Y-76587140D01*
X129397696Y-76587142D01*
X129397697Y-76587142D01*
X129562903Y-76675446D01*
X129707712Y-76794288D01*
X129826554Y-76939097D01*
X129894867Y-77066903D01*
X129914860Y-77104307D01*
X129969239Y-77283571D01*
X129969240Y-77283575D01*
X129987601Y-77470000D01*
X129969240Y-77656425D01*
X129969239Y-77656428D01*
X129969239Y-77656429D01*
X129914860Y-77835693D01*
X129914858Y-77835696D01*
X129914858Y-77835697D01*
X129826554Y-78000903D01*
X129707712Y-78145712D01*
X129562903Y-78264554D01*
X129457299Y-78321000D01*
X129397693Y-78352860D01*
X129218429Y-78407239D01*
X129218428Y-78407239D01*
X129218425Y-78407240D01*
X129078718Y-78421000D01*
X128985282Y-78421000D01*
X128845575Y-78407240D01*
X128845572Y-78407239D01*
X128845571Y-78407239D01*
X128666307Y-78352860D01*
X128606701Y-78321000D01*
X128501097Y-78264554D01*
X128356288Y-78145712D01*
X128237446Y-78000903D01*
X128149142Y-77835697D01*
X128149142Y-77835696D01*
X128149140Y-77835693D01*
X128094761Y-77656429D01*
X128094761Y-77656428D01*
X128094760Y-77656425D01*
X128076399Y-77470000D01*
X128094760Y-77283575D01*
X128094761Y-77283571D01*
X128149140Y-77104307D01*
X128169133Y-77066903D01*
X128237446Y-76939097D01*
X128356288Y-76794288D01*
X128501097Y-76675446D01*
X128666303Y-76587142D01*
X128666304Y-76587142D01*
X128666307Y-76587140D01*
X128845571Y-76532761D01*
X128845572Y-76532761D01*
X128845575Y-76532760D01*
X128985282Y-76519000D01*
X129078718Y-76519000D01*
X129218425Y-76532760D01*
X129218425Y-76532760D01*
G37*
G36*
X145474425Y-76532760D02*
G01*
X145474428Y-76532761D01*
X145474429Y-76532761D01*
X145653693Y-76587140D01*
X145653696Y-76587142D01*
X145653697Y-76587142D01*
X145818903Y-76675446D01*
X145963712Y-76794288D01*
X146082554Y-76939097D01*
X146150867Y-77066903D01*
X146170860Y-77104307D01*
X146225239Y-77283571D01*
X146225240Y-77283575D01*
X146243601Y-77470000D01*
X146225240Y-77656425D01*
X146225239Y-77656428D01*
X146225239Y-77656429D01*
X146170860Y-77835693D01*
X146170858Y-77835696D01*
X146170858Y-77835697D01*
X146082554Y-78000903D01*
X145963712Y-78145712D01*
X145818903Y-78264554D01*
X145713299Y-78321000D01*
X145653693Y-78352860D01*
X145474429Y-78407239D01*
X145474428Y-78407239D01*
X145474425Y-78407240D01*
X145334718Y-78421000D01*
X145241282Y-78421000D01*
X145101575Y-78407240D01*
X145101572Y-78407239D01*
X145101571Y-78407239D01*
X144922307Y-78352860D01*
X144862701Y-78321000D01*
X144757097Y-78264554D01*
X144612288Y-78145712D01*
X144493446Y-78000903D01*
X144405142Y-77835697D01*
X144405142Y-77835696D01*
X144405140Y-77835693D01*
X144350761Y-77656429D01*
X144350761Y-77656428D01*
X144350760Y-77656425D01*
X144332399Y-77470000D01*
X144350760Y-77283575D01*
X144350761Y-77283571D01*
X144405140Y-77104307D01*
X144425133Y-77066903D01*
X144493446Y-76939097D01*
X144612288Y-76794288D01*
X144757097Y-76675446D01*
X144922303Y-76587142D01*
X144922304Y-76587142D01*
X144922307Y-76587140D01*
X145101571Y-76532761D01*
X145101572Y-76532761D01*
X145101575Y-76532760D01*
X145241282Y-76519000D01*
X145334718Y-76519000D01*
X145474425Y-76532760D01*
X145474425Y-76532760D01*
G37*
G36*
X133539000Y-78421000D02*
G01*
X131637000Y-78421000D01*
X131637000Y-76519000D01*
X133539000Y-76519000D01*
X133539000Y-78421000D01*
X133539000Y-78421000D01*
G37*
G36*
X151886228Y-76651703D02*
G01*
X152041100Y-76715853D01*
X152180481Y-76808985D01*
X152299015Y-76927519D01*
X152392147Y-77066900D01*
X152456297Y-77221772D01*
X152489000Y-77386184D01*
X152489000Y-77553816D01*
X152456297Y-77718228D01*
X152392147Y-77873100D01*
X152299015Y-78012481D01*
X152180481Y-78131015D01*
X152041100Y-78224147D01*
X151886228Y-78288297D01*
X151721816Y-78321000D01*
X151554184Y-78321000D01*
X151389772Y-78288297D01*
X151234900Y-78224147D01*
X151095519Y-78131015D01*
X150976985Y-78012481D01*
X150883853Y-77873100D01*
X150819703Y-77718228D01*
X150787000Y-77553816D01*
X150787000Y-77386184D01*
X150819703Y-77221772D01*
X150883853Y-77066900D01*
X150976985Y-76927519D01*
X151095519Y-76808985D01*
X151234900Y-76715853D01*
X151389772Y-76651703D01*
X151554184Y-76619000D01*
X151721816Y-76619000D01*
X151886228Y-76651703D01*
X151886228Y-76651703D01*
G37*
G36*
X118104228Y-63697703D02*
G01*
X118259100Y-63761853D01*
X118398481Y-63854985D01*
X118517015Y-63973519D01*
X118610147Y-64112900D01*
X118674297Y-64267772D01*
X118707000Y-64432184D01*
X118707000Y-64599816D01*
X118674297Y-64764228D01*
X118610147Y-64919100D01*
X118517015Y-65058481D01*
X118398481Y-65177015D01*
X118259100Y-65270147D01*
X118104228Y-65334297D01*
X117939816Y-65367000D01*
X117772184Y-65367000D01*
X117607772Y-65334297D01*
X117452900Y-65270147D01*
X117313519Y-65177015D01*
X117194985Y-65058481D01*
X117101853Y-64919100D01*
X117037703Y-64764228D01*
X117005000Y-64599816D01*
X117005000Y-64432184D01*
X117037703Y-64267772D01*
X117101853Y-64112900D01*
X117194985Y-63973519D01*
X117313519Y-63854985D01*
X117452900Y-63761853D01*
X117607772Y-63697703D01*
X117772184Y-63665000D01*
X117939816Y-63665000D01*
X118104228Y-63697703D01*
X118104228Y-63697703D01*
G37*
G36*
X128182823Y-63677313D02*
G01*
X128343242Y-63725976D01*
X128410361Y-63761852D01*
X128491078Y-63804996D01*
X128620659Y-63911341D01*
X128727004Y-64040922D01*
X128727005Y-64040924D01*
X128806024Y-64188758D01*
X128854687Y-64349177D01*
X128871117Y-64516000D01*
X128854687Y-64682823D01*
X128806024Y-64843242D01*
X128765477Y-64919100D01*
X128727004Y-64991078D01*
X128620659Y-65120659D01*
X128491078Y-65227004D01*
X128491076Y-65227005D01*
X128343242Y-65306024D01*
X128182823Y-65354687D01*
X128057804Y-65367000D01*
X127974196Y-65367000D01*
X127849177Y-65354687D01*
X127688758Y-65306024D01*
X127540924Y-65227005D01*
X127540922Y-65227004D01*
X127411341Y-65120659D01*
X127304996Y-64991078D01*
X127266523Y-64919100D01*
X127225976Y-64843242D01*
X127177313Y-64682823D01*
X127160883Y-64516000D01*
X127177313Y-64349177D01*
X127225976Y-64188758D01*
X127304995Y-64040924D01*
X127304996Y-64040922D01*
X127411341Y-63911341D01*
X127540922Y-63804996D01*
X127621639Y-63761852D01*
X127688758Y-63725976D01*
X127849177Y-63677313D01*
X127974196Y-63665000D01*
X128057804Y-63665000D01*
X128182823Y-63677313D01*
X128182823Y-63677313D01*
G37*
G36*
X142837000Y-61557000D02*
G01*
X141135000Y-61557000D01*
X141135000Y-59855000D01*
X142837000Y-59855000D01*
X142837000Y-61557000D01*
X142837000Y-61557000D01*
G37*
G36*
X144774228Y-58502703D02*
G01*
X144929100Y-58566853D01*
X145068481Y-58659985D01*
X145187015Y-58778519D01*
X145280147Y-58917900D01*
X145344297Y-59072772D01*
X145377000Y-59237184D01*
X145377000Y-59404816D01*
X145344297Y-59569228D01*
X145280147Y-59724100D01*
X145187015Y-59863481D01*
X145068481Y-59982015D01*
X144929100Y-60075147D01*
X144774228Y-60139297D01*
X144609816Y-60172000D01*
X144442184Y-60172000D01*
X144277772Y-60139297D01*
X144122900Y-60075147D01*
X143983519Y-59982015D01*
X143864985Y-59863481D01*
X143771853Y-59724100D01*
X143707703Y-59569228D01*
X143675000Y-59404816D01*
X143675000Y-59237184D01*
X143707703Y-59072772D01*
X143771853Y-58917900D01*
X143864985Y-58778519D01*
X143983519Y-58659985D01*
X144122900Y-58566853D01*
X144277772Y-58502703D01*
X144442184Y-58470000D01*
X144609816Y-58470000D01*
X144774228Y-58502703D01*
X144774228Y-58502703D01*
G37*
G36*
X130742425Y-56974760D02*
G01*
X130742428Y-56974761D01*
X130742429Y-56974761D01*
X130921693Y-57029140D01*
X130921696Y-57029142D01*
X130921697Y-57029142D01*
X131086903Y-57117446D01*
X131231712Y-57236288D01*
X131350554Y-57381097D01*
X131438858Y-57546303D01*
X131438860Y-57546307D01*
X131493239Y-57725571D01*
X131493240Y-57725575D01*
X131511601Y-57912000D01*
X131493240Y-58098425D01*
X131493239Y-58098428D01*
X131493239Y-58098429D01*
X131438860Y-58277693D01*
X131438858Y-58277696D01*
X131438858Y-58277697D01*
X131350554Y-58442903D01*
X131231712Y-58587712D01*
X131086903Y-58706554D01*
X130952265Y-58778519D01*
X130921693Y-58794860D01*
X130742429Y-58849239D01*
X130742428Y-58849239D01*
X130742425Y-58849240D01*
X130602718Y-58863000D01*
X130509282Y-58863000D01*
X130369575Y-58849240D01*
X130369572Y-58849239D01*
X130369571Y-58849239D01*
X130190307Y-58794860D01*
X130159735Y-58778519D01*
X130025097Y-58706554D01*
X129880288Y-58587712D01*
X129761446Y-58442903D01*
X129673142Y-58277697D01*
X129673142Y-58277696D01*
X129673140Y-58277693D01*
X129618761Y-58098429D01*
X129618761Y-58098428D01*
X129618760Y-58098425D01*
X129600399Y-57912000D01*
X129618760Y-57725575D01*
X129618761Y-57725571D01*
X129673140Y-57546307D01*
X129673142Y-57546303D01*
X129761446Y-57381097D01*
X129880288Y-57236288D01*
X130025097Y-57117446D01*
X130190303Y-57029142D01*
X130190304Y-57029142D01*
X130190307Y-57029140D01*
X130369571Y-56974761D01*
X130369572Y-56974761D01*
X130369575Y-56974760D01*
X130509282Y-56961000D01*
X130602718Y-56961000D01*
X130742425Y-56974760D01*
X130742425Y-56974760D01*
G37*
G36*
X118807000Y-58863000D02*
G01*
X116905000Y-58863000D01*
X116905000Y-56961000D01*
X118807000Y-56961000D01*
X118807000Y-58863000D01*
X118807000Y-58863000D01*
G37*
G36*
X142234228Y-57117703D02*
G01*
X142389100Y-57181853D01*
X142528481Y-57274985D01*
X142647015Y-57393519D01*
X142740147Y-57532900D01*
X142804297Y-57687772D01*
X142837000Y-57852184D01*
X142837000Y-58019816D01*
X142804297Y-58184228D01*
X142740147Y-58339100D01*
X142647015Y-58478481D01*
X142528481Y-58597015D01*
X142389100Y-58690147D01*
X142234228Y-58754297D01*
X142069816Y-58787000D01*
X141902184Y-58787000D01*
X141737772Y-58754297D01*
X141582900Y-58690147D01*
X141443519Y-58597015D01*
X141324985Y-58478481D01*
X141231853Y-58339100D01*
X141167703Y-58184228D01*
X141135000Y-58019816D01*
X141135000Y-57852184D01*
X141167703Y-57687772D01*
X141231853Y-57532900D01*
X141324985Y-57393519D01*
X141443519Y-57274985D01*
X141582900Y-57181853D01*
X141737772Y-57117703D01*
X141902184Y-57085000D01*
X142069816Y-57085000D01*
X142234228Y-57117703D01*
X142234228Y-57117703D01*
G37*
G36*
X144774228Y-55732703D02*
G01*
X144929100Y-55796853D01*
X145068481Y-55889985D01*
X145187015Y-56008519D01*
X145280147Y-56147900D01*
X145344297Y-56302772D01*
X145377000Y-56467184D01*
X145377000Y-56634816D01*
X145344297Y-56799228D01*
X145280147Y-56954100D01*
X145187015Y-57093481D01*
X145068481Y-57212015D01*
X144929100Y-57305147D01*
X144774228Y-57369297D01*
X144609816Y-57402000D01*
X144442184Y-57402000D01*
X144277772Y-57369297D01*
X144122900Y-57305147D01*
X143983519Y-57212015D01*
X143864985Y-57093481D01*
X143771853Y-56954100D01*
X143707703Y-56799228D01*
X143675000Y-56634816D01*
X143675000Y-56467184D01*
X143707703Y-56302772D01*
X143771853Y-56147900D01*
X143864985Y-56008519D01*
X143983519Y-55889985D01*
X144122900Y-55796853D01*
X144277772Y-55732703D01*
X144442184Y-55700000D01*
X144609816Y-55700000D01*
X144774228Y-55732703D01*
X144774228Y-55732703D01*
G37*
G36*
X142234228Y-54347703D02*
G01*
X142389100Y-54411853D01*
X142528481Y-54504985D01*
X142647015Y-54623519D01*
X142740147Y-54762900D01*
X142804297Y-54917772D01*
X142837000Y-55082184D01*
X142837000Y-55249816D01*
X142804297Y-55414228D01*
X142740147Y-55569100D01*
X142647015Y-55708481D01*
X142528481Y-55827015D01*
X142389100Y-55920147D01*
X142234228Y-55984297D01*
X142069816Y-56017000D01*
X141902184Y-56017000D01*
X141737772Y-55984297D01*
X141582900Y-55920147D01*
X141443519Y-55827015D01*
X141324985Y-55708481D01*
X141231853Y-55569100D01*
X141167703Y-55414228D01*
X141135000Y-55249816D01*
X141135000Y-55082184D01*
X141167703Y-54917772D01*
X141231853Y-54762900D01*
X141324985Y-54623519D01*
X141443519Y-54504985D01*
X141582900Y-54411853D01*
X141737772Y-54347703D01*
X141902184Y-54315000D01*
X142069816Y-54315000D01*
X142234228Y-54347703D01*
X142234228Y-54347703D01*
G37*
G36*
X144774228Y-52962703D02*
G01*
X144929100Y-53026853D01*
X145068481Y-53119985D01*
X145187015Y-53238519D01*
X145280147Y-53377900D01*
X145344297Y-53532772D01*
X145377000Y-53697184D01*
X145377000Y-53864816D01*
X145344297Y-54029228D01*
X145280147Y-54184100D01*
X145187015Y-54323481D01*
X145068481Y-54442015D01*
X144929100Y-54535147D01*
X144774228Y-54599297D01*
X144609816Y-54632000D01*
X144442184Y-54632000D01*
X144277772Y-54599297D01*
X144122900Y-54535147D01*
X143983519Y-54442015D01*
X143864985Y-54323481D01*
X143771853Y-54184100D01*
X143707703Y-54029228D01*
X143675000Y-53864816D01*
X143675000Y-53697184D01*
X143707703Y-53532772D01*
X143771853Y-53377900D01*
X143864985Y-53238519D01*
X143983519Y-53119985D01*
X144122900Y-53026853D01*
X144277772Y-52962703D01*
X144442184Y-52930000D01*
X144609816Y-52930000D01*
X144774228Y-52962703D01*
X144774228Y-52962703D01*
G37*
G36*
X128182823Y-51739313D02*
G01*
X128343242Y-51787976D01*
X128410361Y-51823852D01*
X128491078Y-51866996D01*
X128620659Y-51973341D01*
X128727004Y-52102922D01*
X128727005Y-52102924D01*
X128806024Y-52250758D01*
X128854687Y-52411177D01*
X128871117Y-52578000D01*
X128854687Y-52744823D01*
X128806024Y-52905242D01*
X128765477Y-52981100D01*
X128727004Y-53053078D01*
X128620659Y-53182659D01*
X128491078Y-53289004D01*
X128491076Y-53289005D01*
X128343242Y-53368024D01*
X128182823Y-53416687D01*
X128057804Y-53429000D01*
X127974196Y-53429000D01*
X127849177Y-53416687D01*
X127688758Y-53368024D01*
X127540924Y-53289005D01*
X127540922Y-53289004D01*
X127411341Y-53182659D01*
X127304996Y-53053078D01*
X127266523Y-52981100D01*
X127225976Y-52905242D01*
X127177313Y-52744823D01*
X127160883Y-52578000D01*
X127177313Y-52411177D01*
X127225976Y-52250758D01*
X127304995Y-52102924D01*
X127304996Y-52102922D01*
X127411341Y-51973341D01*
X127540922Y-51866996D01*
X127621639Y-51823852D01*
X127688758Y-51787976D01*
X127849177Y-51739313D01*
X127974196Y-51727000D01*
X128057804Y-51727000D01*
X128182823Y-51739313D01*
X128182823Y-51739313D01*
G37*
G36*
X118104228Y-51759703D02*
G01*
X118259100Y-51823853D01*
X118398481Y-51916985D01*
X118517015Y-52035519D01*
X118610147Y-52174900D01*
X118674297Y-52329772D01*
X118707000Y-52494184D01*
X118707000Y-52661816D01*
X118674297Y-52826228D01*
X118610147Y-52981100D01*
X118517015Y-53120481D01*
X118398481Y-53239015D01*
X118259100Y-53332147D01*
X118104228Y-53396297D01*
X117939816Y-53429000D01*
X117772184Y-53429000D01*
X117607772Y-53396297D01*
X117452900Y-53332147D01*
X117313519Y-53239015D01*
X117194985Y-53120481D01*
X117101853Y-52981100D01*
X117037703Y-52826228D01*
X117005000Y-52661816D01*
X117005000Y-52494184D01*
X117037703Y-52329772D01*
X117101853Y-52174900D01*
X117194985Y-52035519D01*
X117313519Y-51916985D01*
X117452900Y-51823853D01*
X117607772Y-51759703D01*
X117772184Y-51727000D01*
X117939816Y-51727000D01*
X118104228Y-51759703D01*
X118104228Y-51759703D01*
G37*
G36*
X142234228Y-51577703D02*
G01*
X142389100Y-51641853D01*
X142528481Y-51734985D01*
X142647015Y-51853519D01*
X142740147Y-51992900D01*
X142804297Y-52147772D01*
X142837000Y-52312184D01*
X142837000Y-52479816D01*
X142804297Y-52644228D01*
X142740147Y-52799100D01*
X142647015Y-52938481D01*
X142528481Y-53057015D01*
X142389100Y-53150147D01*
X142234228Y-53214297D01*
X142069816Y-53247000D01*
X141902184Y-53247000D01*
X141737772Y-53214297D01*
X141582900Y-53150147D01*
X141443519Y-53057015D01*
X141324985Y-52938481D01*
X141231853Y-52799100D01*
X141167703Y-52644228D01*
X141135000Y-52479816D01*
X141135000Y-52312184D01*
X141167703Y-52147772D01*
X141231853Y-51992900D01*
X141324985Y-51853519D01*
X141443519Y-51734985D01*
X141582900Y-51641853D01*
X141737772Y-51577703D01*
X141902184Y-51545000D01*
X142069816Y-51545000D01*
X142234228Y-51577703D01*
X142234228Y-51577703D01*
G37*
G36*
X144774228Y-50192703D02*
G01*
X144929100Y-50256853D01*
X145068481Y-50349985D01*
X145187015Y-50468519D01*
X145280147Y-50607900D01*
X145344297Y-50762772D01*
X145377000Y-50927184D01*
X145377000Y-51094816D01*
X145344297Y-51259228D01*
X145280147Y-51414100D01*
X145187015Y-51553481D01*
X145068481Y-51672015D01*
X144929100Y-51765147D01*
X144774228Y-51829297D01*
X144609816Y-51862000D01*
X144442184Y-51862000D01*
X144277772Y-51829297D01*
X144122900Y-51765147D01*
X143983519Y-51672015D01*
X143864985Y-51553481D01*
X143771853Y-51414100D01*
X143707703Y-51259228D01*
X143675000Y-51094816D01*
X143675000Y-50927184D01*
X143707703Y-50762772D01*
X143771853Y-50607900D01*
X143864985Y-50468519D01*
X143983519Y-50349985D01*
X144122900Y-50256853D01*
X144277772Y-50192703D01*
X144442184Y-50160000D01*
X144609816Y-50160000D01*
X144774228Y-50192703D01*
X144774228Y-50192703D01*
G37*
G36*
X142234228Y-48807703D02*
G01*
X142389100Y-48871853D01*
X142528481Y-48964985D01*
X142647015Y-49083519D01*
X142740147Y-49222900D01*
X142804297Y-49377772D01*
X142837000Y-49542184D01*
X142837000Y-49709816D01*
X142804297Y-49874228D01*
X142740147Y-50029100D01*
X142647015Y-50168481D01*
X142528481Y-50287015D01*
X142389100Y-50380147D01*
X142234228Y-50444297D01*
X142069816Y-50477000D01*
X141902184Y-50477000D01*
X141737772Y-50444297D01*
X141582900Y-50380147D01*
X141443519Y-50287015D01*
X141324985Y-50168481D01*
X141231853Y-50029100D01*
X141167703Y-49874228D01*
X141135000Y-49709816D01*
X141135000Y-49542184D01*
X141167703Y-49377772D01*
X141231853Y-49222900D01*
X141324985Y-49083519D01*
X141443519Y-48964985D01*
X141582900Y-48871853D01*
X141737772Y-48807703D01*
X141902184Y-48775000D01*
X142069816Y-48775000D01*
X142234228Y-48807703D01*
X142234228Y-48807703D01*
G37*
G36*
X118104228Y-46679703D02*
G01*
X118259100Y-46743853D01*
X118398481Y-46836985D01*
X118517015Y-46955519D01*
X118610147Y-47094900D01*
X118674297Y-47249772D01*
X118707000Y-47414184D01*
X118707000Y-47581816D01*
X118674297Y-47746228D01*
X118610147Y-47901100D01*
X118517015Y-48040481D01*
X118398481Y-48159015D01*
X118259100Y-48252147D01*
X118104228Y-48316297D01*
X117939816Y-48349000D01*
X117772184Y-48349000D01*
X117607772Y-48316297D01*
X117452900Y-48252147D01*
X117313519Y-48159015D01*
X117194985Y-48040481D01*
X117101853Y-47901100D01*
X117037703Y-47746228D01*
X117005000Y-47581816D01*
X117005000Y-47414184D01*
X117037703Y-47249772D01*
X117101853Y-47094900D01*
X117194985Y-46955519D01*
X117313519Y-46836985D01*
X117452900Y-46743853D01*
X117607772Y-46679703D01*
X117772184Y-46647000D01*
X117939816Y-46647000D01*
X118104228Y-46679703D01*
X118104228Y-46679703D01*
G37*
G36*
X128182823Y-46659313D02*
G01*
X128343242Y-46707976D01*
X128410361Y-46743852D01*
X128491078Y-46786996D01*
X128620659Y-46893341D01*
X128727004Y-47022922D01*
X128727005Y-47022924D01*
X128806024Y-47170758D01*
X128854687Y-47331177D01*
X128871117Y-47498000D01*
X128854687Y-47664823D01*
X128806024Y-47825242D01*
X128765477Y-47901100D01*
X128727004Y-47973078D01*
X128620659Y-48102659D01*
X128491078Y-48209004D01*
X128491076Y-48209005D01*
X128343242Y-48288024D01*
X128182823Y-48336687D01*
X128057804Y-48349000D01*
X127974196Y-48349000D01*
X127849177Y-48336687D01*
X127688758Y-48288024D01*
X127540924Y-48209005D01*
X127540922Y-48209004D01*
X127411341Y-48102659D01*
X127304996Y-47973078D01*
X127266523Y-47901100D01*
X127225976Y-47825242D01*
X127177313Y-47664823D01*
X127160883Y-47498000D01*
X127177313Y-47331177D01*
X127225976Y-47170758D01*
X127304995Y-47022924D01*
X127304996Y-47022922D01*
X127411341Y-46893341D01*
X127540922Y-46786996D01*
X127621639Y-46743852D01*
X127688758Y-46707976D01*
X127849177Y-46659313D01*
X127974196Y-46647000D01*
X128057804Y-46647000D01*
X128182823Y-46659313D01*
X128182823Y-46659313D01*
G37*
M02*
