G04 #@! TF.GenerationSoftware,KiCad,Pcbnew,5.1.2-1.fc30*
G04 #@! TF.CreationDate,2019-07-21T03:59:41+02:00*
G04 #@! TF.ProjectId,dasa,64617361-2e6b-4696-9361-645f70636258,rev?*
G04 #@! TF.SameCoordinates,Original*
G04 #@! TF.FileFunction,Legend,Top*
G04 #@! TF.FilePolarity,Positive*
%FSLAX46Y46*%
G04 Gerber Fmt 4.6, Leading zero omitted, Abs format (unit mm)*
G04 Created by KiCad (PCBNEW 5.1.2-1.fc30) date 2019-07-21 03:59:41*
%MOMM*%
%LPD*%
G04 APERTURE LIST*
%ADD10C,0.120000*%
%ADD11C,0.150000*%
G04 APERTURE END LIST*
D10*
X151638000Y-86590000D02*
X151638000Y-85820000D01*
X151638000Y-78510000D02*
X151638000Y-79280000D01*
X153008000Y-85820000D02*
X153008000Y-79280000D01*
X150268000Y-85820000D02*
X153008000Y-85820000D01*
X150268000Y-79280000D02*
X150268000Y-85820000D01*
X153008000Y-79280000D02*
X150268000Y-79280000D01*
X126976000Y-47498000D02*
X126206000Y-47498000D01*
X118896000Y-47498000D02*
X119666000Y-47498000D01*
X126206000Y-46128000D02*
X119666000Y-46128000D01*
X126206000Y-48868000D02*
X126206000Y-46128000D01*
X119666000Y-48868000D02*
X126206000Y-48868000D01*
X119666000Y-46128000D02*
X119666000Y-48868000D01*
X126976000Y-52578000D02*
X126206000Y-52578000D01*
X118896000Y-52578000D02*
X119666000Y-52578000D01*
X126206000Y-51208000D02*
X119666000Y-51208000D01*
X126206000Y-53948000D02*
X126206000Y-51208000D01*
X119666000Y-53948000D02*
X126206000Y-53948000D01*
X119666000Y-51208000D02*
X119666000Y-53948000D01*
X126976000Y-64516000D02*
X126206000Y-64516000D01*
X118896000Y-64516000D02*
X119666000Y-64516000D01*
X126206000Y-63146000D02*
X119666000Y-63146000D01*
X126206000Y-65886000D02*
X126206000Y-63146000D01*
X119666000Y-65886000D02*
X126206000Y-65886000D01*
X119666000Y-63146000D02*
X119666000Y-65886000D01*
X111224000Y-102986000D02*
X113824000Y-102986000D01*
X111224000Y-117686000D02*
X111224000Y-102986000D01*
X120424000Y-102986000D02*
X120424000Y-104886000D01*
X117724000Y-102986000D02*
X120424000Y-102986000D01*
X120424000Y-117686000D02*
X111224000Y-117686000D01*
X120424000Y-108886000D02*
X120424000Y-117686000D01*
X111024000Y-103836000D02*
X111024000Y-102786000D01*
X112074000Y-102786000D02*
X111024000Y-102786000D01*
X131560000Y-114145000D02*
X131560000Y-111605000D01*
X131560000Y-114145000D02*
X134100000Y-114145000D01*
X131810000Y-113895000D02*
X131810000Y-104545000D01*
X152670000Y-113895000D02*
X131810000Y-113895000D01*
X152670000Y-104545000D02*
X152670000Y-113895000D01*
X131810000Y-104545000D02*
X152670000Y-104545000D01*
X140664675Y-60706000D02*
X140231662Y-60956000D01*
X140231662Y-60456000D02*
X140664675Y-60706000D01*
X140231662Y-60956000D02*
X140231662Y-60456000D01*
X149766000Y-46556000D02*
X153866000Y-46556000D01*
X149766000Y-48566000D02*
X149766000Y-46556000D01*
X140926000Y-48566000D02*
X149766000Y-48566000D01*
X140926000Y-61766000D02*
X140926000Y-48566000D01*
X149766000Y-61766000D02*
X140926000Y-61766000D01*
X149766000Y-63776000D02*
X149766000Y-61766000D01*
X153866000Y-63776000D02*
X149766000Y-63776000D01*
X120234000Y-87684000D02*
X120234000Y-90624000D01*
X120474000Y-87684000D02*
X120474000Y-90624000D01*
X120354000Y-87684000D02*
X120354000Y-90624000D01*
X127384000Y-89154000D02*
X124894000Y-89154000D01*
X116964000Y-89154000D02*
X119454000Y-89154000D01*
X124894000Y-87684000D02*
X119454000Y-87684000D01*
X124894000Y-90624000D02*
X124894000Y-87684000D01*
X119454000Y-90624000D02*
X124894000Y-90624000D01*
X119454000Y-87684000D02*
X119454000Y-90624000D01*
X136998000Y-87684000D02*
X136998000Y-90624000D01*
X137238000Y-87684000D02*
X137238000Y-90624000D01*
X137118000Y-87684000D02*
X137118000Y-90624000D01*
X144148000Y-89154000D02*
X141658000Y-89154000D01*
X133728000Y-89154000D02*
X136218000Y-89154000D01*
X141658000Y-87684000D02*
X136218000Y-87684000D01*
X141658000Y-90624000D02*
X141658000Y-87684000D01*
X136218000Y-90624000D02*
X141658000Y-90624000D01*
X136218000Y-87684000D02*
X136218000Y-90624000D01*
X120742000Y-76000000D02*
X120742000Y-78940000D01*
X120982000Y-76000000D02*
X120982000Y-78940000D01*
X120862000Y-76000000D02*
X120862000Y-78940000D01*
X127892000Y-77470000D02*
X125402000Y-77470000D01*
X117472000Y-77470000D02*
X119962000Y-77470000D01*
X125402000Y-76000000D02*
X119962000Y-76000000D01*
X125402000Y-78940000D02*
X125402000Y-76000000D01*
X119962000Y-78940000D02*
X125402000Y-78940000D01*
X119962000Y-76000000D02*
X119962000Y-78940000D01*
X136998000Y-76000000D02*
X136998000Y-78940000D01*
X137238000Y-76000000D02*
X137238000Y-78940000D01*
X137118000Y-76000000D02*
X137118000Y-78940000D01*
X144148000Y-77470000D02*
X141658000Y-77470000D01*
X133728000Y-77470000D02*
X136218000Y-77470000D01*
X141658000Y-76000000D02*
X136218000Y-76000000D01*
X141658000Y-78940000D02*
X141658000Y-76000000D01*
X136218000Y-78940000D02*
X141658000Y-78940000D01*
X136218000Y-76000000D02*
X136218000Y-78940000D01*
X120234000Y-82604000D02*
X120234000Y-85544000D01*
X120474000Y-82604000D02*
X120474000Y-85544000D01*
X120354000Y-82604000D02*
X120354000Y-85544000D01*
X127384000Y-84074000D02*
X124894000Y-84074000D01*
X116964000Y-84074000D02*
X119454000Y-84074000D01*
X124894000Y-82604000D02*
X119454000Y-82604000D01*
X124894000Y-85544000D02*
X124894000Y-82604000D01*
X119454000Y-85544000D02*
X124894000Y-85544000D01*
X119454000Y-82604000D02*
X119454000Y-85544000D01*
X136998000Y-82350000D02*
X136998000Y-85290000D01*
X137238000Y-82350000D02*
X137238000Y-85290000D01*
X137118000Y-82350000D02*
X137118000Y-85290000D01*
X144148000Y-83820000D02*
X141658000Y-83820000D01*
X133728000Y-83820000D02*
X136218000Y-83820000D01*
X141658000Y-82350000D02*
X136218000Y-82350000D01*
X141658000Y-85290000D02*
X141658000Y-82350000D01*
X136218000Y-85290000D02*
X141658000Y-85290000D01*
X136218000Y-82350000D02*
X136218000Y-85290000D01*
X120234000Y-94796000D02*
X120234000Y-97736000D01*
X120474000Y-94796000D02*
X120474000Y-97736000D01*
X120354000Y-94796000D02*
X120354000Y-97736000D01*
X127384000Y-96266000D02*
X124894000Y-96266000D01*
X116964000Y-96266000D02*
X119454000Y-96266000D01*
X124894000Y-94796000D02*
X119454000Y-94796000D01*
X124894000Y-97736000D02*
X124894000Y-94796000D01*
X119454000Y-97736000D02*
X124894000Y-97736000D01*
X119454000Y-94796000D02*
X119454000Y-97736000D01*
X122266000Y-56442000D02*
X122266000Y-59382000D01*
X122506000Y-56442000D02*
X122506000Y-59382000D01*
X122386000Y-56442000D02*
X122386000Y-59382000D01*
X129416000Y-57912000D02*
X126926000Y-57912000D01*
X118996000Y-57912000D02*
X121486000Y-57912000D01*
X126926000Y-56442000D02*
X121486000Y-56442000D01*
X126926000Y-59382000D02*
X126926000Y-56442000D01*
X121486000Y-59382000D02*
X126926000Y-59382000D01*
X121486000Y-56442000D02*
X121486000Y-59382000D01*
X145068302Y-95075000D02*
X145068302Y-95875000D01*
X144668302Y-95475000D02*
X145468302Y-95475000D01*
X153159000Y-97257000D02*
X153159000Y-98323000D01*
X153119000Y-97022000D02*
X153119000Y-98558000D01*
X153079000Y-96842000D02*
X153079000Y-98738000D01*
X153039000Y-96692000D02*
X153039000Y-98888000D01*
X152999000Y-96561000D02*
X152999000Y-99019000D01*
X152959000Y-96444000D02*
X152959000Y-99136000D01*
X152919000Y-96337000D02*
X152919000Y-99243000D01*
X152879000Y-96238000D02*
X152879000Y-99342000D01*
X152839000Y-96145000D02*
X152839000Y-99435000D01*
X152799000Y-96059000D02*
X152799000Y-99521000D01*
X152759000Y-95977000D02*
X152759000Y-99603000D01*
X152719000Y-95900000D02*
X152719000Y-99680000D01*
X152679000Y-95826000D02*
X152679000Y-99754000D01*
X152639000Y-95756000D02*
X152639000Y-99824000D01*
X152599000Y-95688000D02*
X152599000Y-99892000D01*
X152559000Y-95624000D02*
X152559000Y-99956000D01*
X152519000Y-95562000D02*
X152519000Y-100018000D01*
X152479000Y-95503000D02*
X152479000Y-100077000D01*
X152439000Y-95445000D02*
X152439000Y-100135000D01*
X152399000Y-95390000D02*
X152399000Y-100190000D01*
X152359000Y-95336000D02*
X152359000Y-100244000D01*
X152319000Y-95285000D02*
X152319000Y-100295000D01*
X152279000Y-95234000D02*
X152279000Y-100346000D01*
X152239000Y-95186000D02*
X152239000Y-100394000D01*
X152199000Y-95139000D02*
X152199000Y-100441000D01*
X152159000Y-95093000D02*
X152159000Y-100487000D01*
X152119000Y-95049000D02*
X152119000Y-100531000D01*
X152079000Y-95006000D02*
X152079000Y-100574000D01*
X152039000Y-94964000D02*
X152039000Y-100616000D01*
X151999000Y-94923000D02*
X151999000Y-100657000D01*
X151959000Y-94883000D02*
X151959000Y-100697000D01*
X151919000Y-94845000D02*
X151919000Y-100735000D01*
X151879000Y-94807000D02*
X151879000Y-100773000D01*
X151839000Y-94771000D02*
X151839000Y-100809000D01*
X151799000Y-94735000D02*
X151799000Y-100845000D01*
X151759000Y-94700000D02*
X151759000Y-100880000D01*
X151719000Y-94666000D02*
X151719000Y-100914000D01*
X151679000Y-94634000D02*
X151679000Y-100946000D01*
X151639000Y-94601000D02*
X151639000Y-100979000D01*
X151599000Y-94570000D02*
X151599000Y-101010000D01*
X151559000Y-94540000D02*
X151559000Y-101040000D01*
X151519000Y-94510000D02*
X151519000Y-101070000D01*
X151479000Y-94481000D02*
X151479000Y-101099000D01*
X151439000Y-94452000D02*
X151439000Y-101128000D01*
X151399000Y-94425000D02*
X151399000Y-101155000D01*
X151359000Y-98830000D02*
X151359000Y-101182000D01*
X151359000Y-94398000D02*
X151359000Y-96750000D01*
X151319000Y-98830000D02*
X151319000Y-101208000D01*
X151319000Y-94372000D02*
X151319000Y-96750000D01*
X151279000Y-98830000D02*
X151279000Y-101234000D01*
X151279000Y-94346000D02*
X151279000Y-96750000D01*
X151239000Y-98830000D02*
X151239000Y-101259000D01*
X151239000Y-94321000D02*
X151239000Y-96750000D01*
X151199000Y-98830000D02*
X151199000Y-101283000D01*
X151199000Y-94297000D02*
X151199000Y-96750000D01*
X151159000Y-98830000D02*
X151159000Y-101307000D01*
X151159000Y-94273000D02*
X151159000Y-96750000D01*
X151119000Y-98830000D02*
X151119000Y-101330000D01*
X151119000Y-94250000D02*
X151119000Y-96750000D01*
X151079000Y-98830000D02*
X151079000Y-101352000D01*
X151079000Y-94228000D02*
X151079000Y-96750000D01*
X151039000Y-98830000D02*
X151039000Y-101374000D01*
X151039000Y-94206000D02*
X151039000Y-96750000D01*
X150999000Y-98830000D02*
X150999000Y-101396000D01*
X150999000Y-94184000D02*
X150999000Y-96750000D01*
X150959000Y-98830000D02*
X150959000Y-101417000D01*
X150959000Y-94163000D02*
X150959000Y-96750000D01*
X150919000Y-98830000D02*
X150919000Y-101437000D01*
X150919000Y-94143000D02*
X150919000Y-96750000D01*
X150879000Y-98830000D02*
X150879000Y-101456000D01*
X150879000Y-94124000D02*
X150879000Y-96750000D01*
X150839000Y-98830000D02*
X150839000Y-101476000D01*
X150839000Y-94104000D02*
X150839000Y-96750000D01*
X150799000Y-98830000D02*
X150799000Y-101494000D01*
X150799000Y-94086000D02*
X150799000Y-96750000D01*
X150759000Y-98830000D02*
X150759000Y-101512000D01*
X150759000Y-94068000D02*
X150759000Y-96750000D01*
X150719000Y-98830000D02*
X150719000Y-101530000D01*
X150719000Y-94050000D02*
X150719000Y-96750000D01*
X150679000Y-98830000D02*
X150679000Y-101547000D01*
X150679000Y-94033000D02*
X150679000Y-96750000D01*
X150639000Y-98830000D02*
X150639000Y-101564000D01*
X150639000Y-94016000D02*
X150639000Y-96750000D01*
X150599000Y-98830000D02*
X150599000Y-101580000D01*
X150599000Y-94000000D02*
X150599000Y-96750000D01*
X150559000Y-98830000D02*
X150559000Y-101595000D01*
X150559000Y-93985000D02*
X150559000Y-96750000D01*
X150519000Y-98830000D02*
X150519000Y-101611000D01*
X150519000Y-93969000D02*
X150519000Y-96750000D01*
X150479000Y-98830000D02*
X150479000Y-101625000D01*
X150479000Y-93955000D02*
X150479000Y-96750000D01*
X150439000Y-98830000D02*
X150439000Y-101640000D01*
X150439000Y-93940000D02*
X150439000Y-96750000D01*
X150399000Y-98830000D02*
X150399000Y-101653000D01*
X150399000Y-93927000D02*
X150399000Y-96750000D01*
X150359000Y-98830000D02*
X150359000Y-101667000D01*
X150359000Y-93913000D02*
X150359000Y-96750000D01*
X150319000Y-98830000D02*
X150319000Y-101679000D01*
X150319000Y-93901000D02*
X150319000Y-96750000D01*
X150279000Y-98830000D02*
X150279000Y-101692000D01*
X150279000Y-93888000D02*
X150279000Y-96750000D01*
X150239000Y-98830000D02*
X150239000Y-101704000D01*
X150239000Y-93876000D02*
X150239000Y-96750000D01*
X150199000Y-98830000D02*
X150199000Y-101715000D01*
X150199000Y-93865000D02*
X150199000Y-96750000D01*
X150159000Y-98830000D02*
X150159000Y-101726000D01*
X150159000Y-93854000D02*
X150159000Y-96750000D01*
X150119000Y-98830000D02*
X150119000Y-101737000D01*
X150119000Y-93843000D02*
X150119000Y-96750000D01*
X150079000Y-98830000D02*
X150079000Y-101747000D01*
X150079000Y-93833000D02*
X150079000Y-96750000D01*
X150039000Y-98830000D02*
X150039000Y-101757000D01*
X150039000Y-93823000D02*
X150039000Y-96750000D01*
X149999000Y-98830000D02*
X149999000Y-101766000D01*
X149999000Y-93814000D02*
X149999000Y-96750000D01*
X149959000Y-98830000D02*
X149959000Y-101775000D01*
X149959000Y-93805000D02*
X149959000Y-96750000D01*
X149919000Y-98830000D02*
X149919000Y-101784000D01*
X149919000Y-93796000D02*
X149919000Y-96750000D01*
X149879000Y-98830000D02*
X149879000Y-101792000D01*
X149879000Y-93788000D02*
X149879000Y-96750000D01*
X149839000Y-98830000D02*
X149839000Y-101800000D01*
X149839000Y-93780000D02*
X149839000Y-96750000D01*
X149799000Y-98830000D02*
X149799000Y-101807000D01*
X149799000Y-93773000D02*
X149799000Y-96750000D01*
X149758000Y-98830000D02*
X149758000Y-101814000D01*
X149758000Y-93766000D02*
X149758000Y-96750000D01*
X149718000Y-98830000D02*
X149718000Y-101820000D01*
X149718000Y-93760000D02*
X149718000Y-96750000D01*
X149678000Y-98830000D02*
X149678000Y-101827000D01*
X149678000Y-93753000D02*
X149678000Y-96750000D01*
X149638000Y-98830000D02*
X149638000Y-101832000D01*
X149638000Y-93748000D02*
X149638000Y-96750000D01*
X149598000Y-98830000D02*
X149598000Y-101838000D01*
X149598000Y-93742000D02*
X149598000Y-96750000D01*
X149558000Y-98830000D02*
X149558000Y-101842000D01*
X149558000Y-93738000D02*
X149558000Y-96750000D01*
X149518000Y-98830000D02*
X149518000Y-101847000D01*
X149518000Y-93733000D02*
X149518000Y-96750000D01*
X149478000Y-98830000D02*
X149478000Y-101851000D01*
X149478000Y-93729000D02*
X149478000Y-96750000D01*
X149438000Y-98830000D02*
X149438000Y-101855000D01*
X149438000Y-93725000D02*
X149438000Y-96750000D01*
X149398000Y-98830000D02*
X149398000Y-101858000D01*
X149398000Y-93722000D02*
X149398000Y-96750000D01*
X149358000Y-98830000D02*
X149358000Y-101861000D01*
X149358000Y-93719000D02*
X149358000Y-96750000D01*
X149318000Y-98830000D02*
X149318000Y-101864000D01*
X149318000Y-93716000D02*
X149318000Y-96750000D01*
X149278000Y-93714000D02*
X149278000Y-101866000D01*
X149238000Y-93713000D02*
X149238000Y-101867000D01*
X149198000Y-93711000D02*
X149198000Y-101869000D01*
X149158000Y-93710000D02*
X149158000Y-101870000D01*
X149118000Y-93710000D02*
X149118000Y-101870000D01*
X149078000Y-93710000D02*
X149078000Y-101870000D01*
X153198000Y-97790000D02*
G75*
G03X153198000Y-97790000I-4120000J0D01*
G01*
D11*
X154460380Y-82716666D02*
X153984190Y-83050000D01*
X154460380Y-83288095D02*
X153460380Y-83288095D01*
X153460380Y-82907142D01*
X153508000Y-82811904D01*
X153555619Y-82764285D01*
X153650857Y-82716666D01*
X153793714Y-82716666D01*
X153888952Y-82764285D01*
X153936571Y-82811904D01*
X153984190Y-82907142D01*
X153984190Y-83288095D01*
X153793714Y-81859523D02*
X154460380Y-81859523D01*
X153412761Y-82097619D02*
X154127047Y-82335714D01*
X154127047Y-81716666D01*
X122769333Y-45580380D02*
X122436000Y-45104190D01*
X122197904Y-45580380D02*
X122197904Y-44580380D01*
X122578857Y-44580380D01*
X122674095Y-44628000D01*
X122721714Y-44675619D01*
X122769333Y-44770857D01*
X122769333Y-44913714D01*
X122721714Y-45008952D01*
X122674095Y-45056571D01*
X122578857Y-45104190D01*
X122197904Y-45104190D01*
X123102666Y-44580380D02*
X123721714Y-44580380D01*
X123388380Y-44961333D01*
X123531238Y-44961333D01*
X123626476Y-45008952D01*
X123674095Y-45056571D01*
X123721714Y-45151809D01*
X123721714Y-45389904D01*
X123674095Y-45485142D01*
X123626476Y-45532761D01*
X123531238Y-45580380D01*
X123245523Y-45580380D01*
X123150285Y-45532761D01*
X123102666Y-45485142D01*
X122769333Y-50660380D02*
X122436000Y-50184190D01*
X122197904Y-50660380D02*
X122197904Y-49660380D01*
X122578857Y-49660380D01*
X122674095Y-49708000D01*
X122721714Y-49755619D01*
X122769333Y-49850857D01*
X122769333Y-49993714D01*
X122721714Y-50088952D01*
X122674095Y-50136571D01*
X122578857Y-50184190D01*
X122197904Y-50184190D01*
X123150285Y-49755619D02*
X123197904Y-49708000D01*
X123293142Y-49660380D01*
X123531238Y-49660380D01*
X123626476Y-49708000D01*
X123674095Y-49755619D01*
X123721714Y-49850857D01*
X123721714Y-49946095D01*
X123674095Y-50088952D01*
X123102666Y-50660380D01*
X123721714Y-50660380D01*
X122769333Y-62598380D02*
X122436000Y-62122190D01*
X122197904Y-62598380D02*
X122197904Y-61598380D01*
X122578857Y-61598380D01*
X122674095Y-61646000D01*
X122721714Y-61693619D01*
X122769333Y-61788857D01*
X122769333Y-61931714D01*
X122721714Y-62026952D01*
X122674095Y-62074571D01*
X122578857Y-62122190D01*
X122197904Y-62122190D01*
X123721714Y-62598380D02*
X123150285Y-62598380D01*
X123436000Y-62598380D02*
X123436000Y-61598380D01*
X123340761Y-61741238D01*
X123245523Y-61836476D01*
X123150285Y-61884095D01*
X121026380Y-112669333D02*
X121740666Y-112669333D01*
X121883523Y-112716952D01*
X121978761Y-112812190D01*
X122026380Y-112955047D01*
X122026380Y-113050285D01*
X121026380Y-112288380D02*
X121026380Y-111669333D01*
X121407333Y-112002666D01*
X121407333Y-111859809D01*
X121454952Y-111764571D01*
X121502571Y-111716952D01*
X121597809Y-111669333D01*
X121835904Y-111669333D01*
X121931142Y-111716952D01*
X121978761Y-111764571D01*
X122026380Y-111859809D01*
X122026380Y-112145523D01*
X121978761Y-112240761D01*
X121931142Y-112288380D01*
X130008380Y-109553333D02*
X130722666Y-109553333D01*
X130865523Y-109600952D01*
X130960761Y-109696190D01*
X131008380Y-109839047D01*
X131008380Y-109934285D01*
X130103619Y-109124761D02*
X130056000Y-109077142D01*
X130008380Y-108981904D01*
X130008380Y-108743809D01*
X130056000Y-108648571D01*
X130103619Y-108600952D01*
X130198857Y-108553333D01*
X130294095Y-108553333D01*
X130436952Y-108600952D01*
X131008380Y-109172380D01*
X131008380Y-108553333D01*
X139638380Y-55499333D02*
X140352666Y-55499333D01*
X140495523Y-55546952D01*
X140590761Y-55642190D01*
X140638380Y-55785047D01*
X140638380Y-55880285D01*
X140638380Y-54499333D02*
X140638380Y-55070761D01*
X140638380Y-54785047D02*
X139638380Y-54785047D01*
X139781238Y-54880285D01*
X139876476Y-54975523D01*
X139924095Y-55070761D01*
X121435904Y-87136380D02*
X121435904Y-86136380D01*
X121674000Y-86136380D01*
X121816857Y-86184000D01*
X121912095Y-86279238D01*
X121959714Y-86374476D01*
X122007333Y-86564952D01*
X122007333Y-86707809D01*
X121959714Y-86898285D01*
X121912095Y-86993523D01*
X121816857Y-87088761D01*
X121674000Y-87136380D01*
X121435904Y-87136380D01*
X122578761Y-86564952D02*
X122483523Y-86517333D01*
X122435904Y-86469714D01*
X122388285Y-86374476D01*
X122388285Y-86326857D01*
X122435904Y-86231619D01*
X122483523Y-86184000D01*
X122578761Y-86136380D01*
X122769238Y-86136380D01*
X122864476Y-86184000D01*
X122912095Y-86231619D01*
X122959714Y-86326857D01*
X122959714Y-86374476D01*
X122912095Y-86469714D01*
X122864476Y-86517333D01*
X122769238Y-86564952D01*
X122578761Y-86564952D01*
X122483523Y-86612571D01*
X122435904Y-86660190D01*
X122388285Y-86755428D01*
X122388285Y-86945904D01*
X122435904Y-87041142D01*
X122483523Y-87088761D01*
X122578761Y-87136380D01*
X122769238Y-87136380D01*
X122864476Y-87088761D01*
X122912095Y-87041142D01*
X122959714Y-86945904D01*
X122959714Y-86755428D01*
X122912095Y-86660190D01*
X122864476Y-86612571D01*
X122769238Y-86564952D01*
X115562095Y-87706380D02*
X115562095Y-86706380D01*
X116133523Y-87706380D02*
X115704952Y-87134952D01*
X116133523Y-86706380D02*
X115562095Y-87277809D01*
X138199904Y-87136380D02*
X138199904Y-86136380D01*
X138438000Y-86136380D01*
X138580857Y-86184000D01*
X138676095Y-86279238D01*
X138723714Y-86374476D01*
X138771333Y-86564952D01*
X138771333Y-86707809D01*
X138723714Y-86898285D01*
X138676095Y-86993523D01*
X138580857Y-87088761D01*
X138438000Y-87136380D01*
X138199904Y-87136380D01*
X139104666Y-86136380D02*
X139771333Y-86136380D01*
X139342761Y-87136380D01*
X132326095Y-87706380D02*
X132326095Y-86706380D01*
X132897523Y-87706380D02*
X132468952Y-87134952D01*
X132897523Y-86706380D02*
X132326095Y-87277809D01*
X121943904Y-75452380D02*
X121943904Y-74452380D01*
X122182000Y-74452380D01*
X122324857Y-74500000D01*
X122420095Y-74595238D01*
X122467714Y-74690476D01*
X122515333Y-74880952D01*
X122515333Y-75023809D01*
X122467714Y-75214285D01*
X122420095Y-75309523D01*
X122324857Y-75404761D01*
X122182000Y-75452380D01*
X121943904Y-75452380D01*
X123372476Y-74452380D02*
X123182000Y-74452380D01*
X123086761Y-74500000D01*
X123039142Y-74547619D01*
X122943904Y-74690476D01*
X122896285Y-74880952D01*
X122896285Y-75261904D01*
X122943904Y-75357142D01*
X122991523Y-75404761D01*
X123086761Y-75452380D01*
X123277238Y-75452380D01*
X123372476Y-75404761D01*
X123420095Y-75357142D01*
X123467714Y-75261904D01*
X123467714Y-75023809D01*
X123420095Y-74928571D01*
X123372476Y-74880952D01*
X123277238Y-74833333D01*
X123086761Y-74833333D01*
X122991523Y-74880952D01*
X122943904Y-74928571D01*
X122896285Y-75023809D01*
X116070095Y-76022380D02*
X116070095Y-75022380D01*
X116641523Y-76022380D02*
X116212952Y-75450952D01*
X116641523Y-75022380D02*
X116070095Y-75593809D01*
X138199904Y-75452380D02*
X138199904Y-74452380D01*
X138438000Y-74452380D01*
X138580857Y-74500000D01*
X138676095Y-74595238D01*
X138723714Y-74690476D01*
X138771333Y-74880952D01*
X138771333Y-75023809D01*
X138723714Y-75214285D01*
X138676095Y-75309523D01*
X138580857Y-75404761D01*
X138438000Y-75452380D01*
X138199904Y-75452380D01*
X139676095Y-74452380D02*
X139199904Y-74452380D01*
X139152285Y-74928571D01*
X139199904Y-74880952D01*
X139295142Y-74833333D01*
X139533238Y-74833333D01*
X139628476Y-74880952D01*
X139676095Y-74928571D01*
X139723714Y-75023809D01*
X139723714Y-75261904D01*
X139676095Y-75357142D01*
X139628476Y-75404761D01*
X139533238Y-75452380D01*
X139295142Y-75452380D01*
X139199904Y-75404761D01*
X139152285Y-75357142D01*
X132326095Y-76022380D02*
X132326095Y-75022380D01*
X132897523Y-76022380D02*
X132468952Y-75450952D01*
X132897523Y-75022380D02*
X132326095Y-75593809D01*
X121435904Y-82056380D02*
X121435904Y-81056380D01*
X121674000Y-81056380D01*
X121816857Y-81104000D01*
X121912095Y-81199238D01*
X121959714Y-81294476D01*
X122007333Y-81484952D01*
X122007333Y-81627809D01*
X121959714Y-81818285D01*
X121912095Y-81913523D01*
X121816857Y-82008761D01*
X121674000Y-82056380D01*
X121435904Y-82056380D01*
X122864476Y-81389714D02*
X122864476Y-82056380D01*
X122626380Y-81008761D02*
X122388285Y-81723047D01*
X123007333Y-81723047D01*
X115562095Y-82626380D02*
X115562095Y-81626380D01*
X116133523Y-82626380D02*
X115704952Y-82054952D01*
X116133523Y-81626380D02*
X115562095Y-82197809D01*
X138199904Y-81802380D02*
X138199904Y-80802380D01*
X138438000Y-80802380D01*
X138580857Y-80850000D01*
X138676095Y-80945238D01*
X138723714Y-81040476D01*
X138771333Y-81230952D01*
X138771333Y-81373809D01*
X138723714Y-81564285D01*
X138676095Y-81659523D01*
X138580857Y-81754761D01*
X138438000Y-81802380D01*
X138199904Y-81802380D01*
X139104666Y-80802380D02*
X139723714Y-80802380D01*
X139390380Y-81183333D01*
X139533238Y-81183333D01*
X139628476Y-81230952D01*
X139676095Y-81278571D01*
X139723714Y-81373809D01*
X139723714Y-81611904D01*
X139676095Y-81707142D01*
X139628476Y-81754761D01*
X139533238Y-81802380D01*
X139247523Y-81802380D01*
X139152285Y-81754761D01*
X139104666Y-81707142D01*
X132326095Y-82372380D02*
X132326095Y-81372380D01*
X132897523Y-82372380D02*
X132468952Y-81800952D01*
X132897523Y-81372380D02*
X132326095Y-81943809D01*
X121435904Y-94248380D02*
X121435904Y-93248380D01*
X121674000Y-93248380D01*
X121816857Y-93296000D01*
X121912095Y-93391238D01*
X121959714Y-93486476D01*
X122007333Y-93676952D01*
X122007333Y-93819809D01*
X121959714Y-94010285D01*
X121912095Y-94105523D01*
X121816857Y-94200761D01*
X121674000Y-94248380D01*
X121435904Y-94248380D01*
X122388285Y-93343619D02*
X122435904Y-93296000D01*
X122531142Y-93248380D01*
X122769238Y-93248380D01*
X122864476Y-93296000D01*
X122912095Y-93343619D01*
X122959714Y-93438857D01*
X122959714Y-93534095D01*
X122912095Y-93676952D01*
X122340666Y-94248380D01*
X122959714Y-94248380D01*
X115562095Y-94818380D02*
X115562095Y-93818380D01*
X116133523Y-94818380D02*
X115704952Y-94246952D01*
X116133523Y-93818380D02*
X115562095Y-94389809D01*
X123467904Y-55894380D02*
X123467904Y-54894380D01*
X123706000Y-54894380D01*
X123848857Y-54942000D01*
X123944095Y-55037238D01*
X123991714Y-55132476D01*
X124039333Y-55322952D01*
X124039333Y-55465809D01*
X123991714Y-55656285D01*
X123944095Y-55751523D01*
X123848857Y-55846761D01*
X123706000Y-55894380D01*
X123467904Y-55894380D01*
X124991714Y-55894380D02*
X124420285Y-55894380D01*
X124706000Y-55894380D02*
X124706000Y-54894380D01*
X124610761Y-55037238D01*
X124515523Y-55132476D01*
X124420285Y-55180095D01*
X117594095Y-56464380D02*
X117594095Y-55464380D01*
X118165523Y-56464380D02*
X117736952Y-55892952D01*
X118165523Y-55464380D02*
X117594095Y-56035809D01*
X148911333Y-92897142D02*
X148863714Y-92944761D01*
X148720857Y-92992380D01*
X148625619Y-92992380D01*
X148482761Y-92944761D01*
X148387523Y-92849523D01*
X148339904Y-92754285D01*
X148292285Y-92563809D01*
X148292285Y-92420952D01*
X148339904Y-92230476D01*
X148387523Y-92135238D01*
X148482761Y-92040000D01*
X148625619Y-91992380D01*
X148720857Y-91992380D01*
X148863714Y-92040000D01*
X148911333Y-92087619D01*
X149863714Y-92992380D02*
X149292285Y-92992380D01*
X149578000Y-92992380D02*
X149578000Y-91992380D01*
X149482761Y-92135238D01*
X149387523Y-92230476D01*
X149292285Y-92278095D01*
M02*
