G04 #@! TF.GenerationSoftware,KiCad,Pcbnew,5.1.2-1.fc30*
G04 #@! TF.CreationDate,2019-07-22T18:24:24+02:00*
G04 #@! TF.ProjectId,dasa-3,64617361-2d33-42e6-9b69-6361645f7063,0.5*
G04 #@! TF.SameCoordinates,Original*
G04 #@! TF.FileFunction,Drawing*
%FSLAX46Y46*%
G04 Gerber Fmt 4.6, Leading zero omitted, Abs format (unit mm)*
G04 Created by KiCad (PCBNEW 5.1.2-1.fc30) date 2019-07-22 18:24:24*
%MOMM*%
%LPD*%
G04 APERTURE LIST*
%ADD10C,0.150000*%
G04 APERTURE END LIST*
D10*
X144470380Y-88605142D02*
X143946571Y-88605142D01*
X143851333Y-88652761D01*
X143803714Y-88748000D01*
X143803714Y-88938476D01*
X143851333Y-89033714D01*
X144422761Y-88605142D02*
X144470380Y-88700380D01*
X144470380Y-88938476D01*
X144422761Y-89033714D01*
X144327523Y-89081333D01*
X144232285Y-89081333D01*
X144137047Y-89033714D01*
X144089428Y-88938476D01*
X144089428Y-88700380D01*
X144041809Y-88605142D01*
X143803714Y-88224190D02*
X144470380Y-87986095D01*
X143803714Y-87748000D01*
X144470380Y-87367047D02*
X143803714Y-87367047D01*
X143994190Y-87367047D02*
X143898952Y-87319428D01*
X143851333Y-87271809D01*
X143803714Y-87176571D01*
X143803714Y-87081333D01*
X143470380Y-86033714D02*
X143660857Y-86033714D01*
X143470380Y-85652761D02*
X143660857Y-85652761D01*
X144470380Y-84795619D02*
X143470380Y-84795619D01*
X144422761Y-84795619D02*
X144470380Y-84890857D01*
X144470380Y-85081333D01*
X144422761Y-85176571D01*
X144375142Y-85224190D01*
X144279904Y-85271809D01*
X143994190Y-85271809D01*
X143898952Y-85224190D01*
X143851333Y-85176571D01*
X143803714Y-85081333D01*
X143803714Y-84890857D01*
X143851333Y-84795619D01*
X144470380Y-83890857D02*
X143946571Y-83890857D01*
X143851333Y-83938476D01*
X143803714Y-84033714D01*
X143803714Y-84224190D01*
X143851333Y-84319428D01*
X144422761Y-83890857D02*
X144470380Y-83986095D01*
X144470380Y-84224190D01*
X144422761Y-84319428D01*
X144327523Y-84367047D01*
X144232285Y-84367047D01*
X144137047Y-84319428D01*
X144089428Y-84224190D01*
X144089428Y-83986095D01*
X144041809Y-83890857D01*
X144422761Y-83462285D02*
X144470380Y-83367047D01*
X144470380Y-83176571D01*
X144422761Y-83081333D01*
X144327523Y-83033714D01*
X144279904Y-83033714D01*
X144184666Y-83081333D01*
X144137047Y-83176571D01*
X144137047Y-83319428D01*
X144089428Y-83414666D01*
X143994190Y-83462285D01*
X143946571Y-83462285D01*
X143851333Y-83414666D01*
X143803714Y-83319428D01*
X143803714Y-83176571D01*
X143851333Y-83081333D01*
X144470380Y-82176571D02*
X143946571Y-82176571D01*
X143851333Y-82224190D01*
X143803714Y-82319428D01*
X143803714Y-82509904D01*
X143851333Y-82605142D01*
X144422761Y-82176571D02*
X144470380Y-82271809D01*
X144470380Y-82509904D01*
X144422761Y-82605142D01*
X144327523Y-82652761D01*
X144232285Y-82652761D01*
X144137047Y-82605142D01*
X144089428Y-82509904D01*
X144089428Y-82271809D01*
X144041809Y-82176571D01*
X144089428Y-81700380D02*
X144089428Y-80938476D01*
X143470380Y-80557523D02*
X143470380Y-79938476D01*
X143851333Y-80271809D01*
X143851333Y-80128952D01*
X143898952Y-80033714D01*
X143946571Y-79986095D01*
X144041809Y-79938476D01*
X144279904Y-79938476D01*
X144375142Y-79986095D01*
X144422761Y-80033714D01*
X144470380Y-80128952D01*
X144470380Y-80414666D01*
X144422761Y-80509904D01*
X144375142Y-80557523D01*
X143470380Y-79557523D02*
X143660857Y-79557523D01*
X143470380Y-79176571D02*
X143660857Y-79176571D01*
X143803714Y-77986095D02*
X144803714Y-77986095D01*
X143851333Y-77986095D02*
X143803714Y-77890857D01*
X143803714Y-77700380D01*
X143851333Y-77605142D01*
X143898952Y-77557523D01*
X143994190Y-77509904D01*
X144279904Y-77509904D01*
X144375142Y-77557523D01*
X144422761Y-77605142D01*
X144470380Y-77700380D01*
X144470380Y-77890857D01*
X144422761Y-77986095D01*
X144470380Y-77081333D02*
X143803714Y-77081333D01*
X143994190Y-77081333D02*
X143898952Y-77033714D01*
X143851333Y-76986095D01*
X143803714Y-76890857D01*
X143803714Y-76795619D01*
X144470380Y-76319428D02*
X144422761Y-76414666D01*
X144375142Y-76462285D01*
X144279904Y-76509904D01*
X143994190Y-76509904D01*
X143898952Y-76462285D01*
X143851333Y-76414666D01*
X143803714Y-76319428D01*
X143803714Y-76176571D01*
X143851333Y-76081333D01*
X143898952Y-76033714D01*
X143994190Y-75986095D01*
X144279904Y-75986095D01*
X144375142Y-76033714D01*
X144422761Y-76081333D01*
X144470380Y-76176571D01*
X144470380Y-76319428D01*
X143803714Y-75128952D02*
X144613238Y-75128952D01*
X144708476Y-75176571D01*
X144756095Y-75224190D01*
X144803714Y-75319428D01*
X144803714Y-75462285D01*
X144756095Y-75557523D01*
X144422761Y-75128952D02*
X144470380Y-75224190D01*
X144470380Y-75414666D01*
X144422761Y-75509904D01*
X144375142Y-75557523D01*
X144279904Y-75605142D01*
X143994190Y-75605142D01*
X143898952Y-75557523D01*
X143851333Y-75509904D01*
X143803714Y-75414666D01*
X143803714Y-75224190D01*
X143851333Y-75128952D01*
X144470380Y-74652761D02*
X143803714Y-74652761D01*
X143994190Y-74652761D02*
X143898952Y-74605142D01*
X143851333Y-74557523D01*
X143803714Y-74462285D01*
X143803714Y-74367047D01*
X144470380Y-73605142D02*
X143946571Y-73605142D01*
X143851333Y-73652761D01*
X143803714Y-73748000D01*
X143803714Y-73938476D01*
X143851333Y-74033714D01*
X144422761Y-73605142D02*
X144470380Y-73700380D01*
X144470380Y-73938476D01*
X144422761Y-74033714D01*
X144327523Y-74081333D01*
X144232285Y-74081333D01*
X144137047Y-74033714D01*
X144089428Y-73938476D01*
X144089428Y-73700380D01*
X144041809Y-73605142D01*
X144470380Y-73128952D02*
X143803714Y-73128952D01*
X143898952Y-73128952D02*
X143851333Y-73081333D01*
X143803714Y-72986095D01*
X143803714Y-72843238D01*
X143851333Y-72748000D01*
X143946571Y-72700380D01*
X144470380Y-72700380D01*
X143946571Y-72700380D02*
X143851333Y-72652761D01*
X143803714Y-72557523D01*
X143803714Y-72414666D01*
X143851333Y-72319428D01*
X143946571Y-72271809D01*
X144470380Y-72271809D01*
X144470380Y-71795619D02*
X143803714Y-71795619D01*
X143898952Y-71795619D02*
X143851333Y-71748000D01*
X143803714Y-71652761D01*
X143803714Y-71509904D01*
X143851333Y-71414666D01*
X143946571Y-71367047D01*
X144470380Y-71367047D01*
X143946571Y-71367047D02*
X143851333Y-71319428D01*
X143803714Y-71224190D01*
X143803714Y-71081333D01*
X143851333Y-70986095D01*
X143946571Y-70938476D01*
X144470380Y-70938476D01*
X144422761Y-70081333D02*
X144470380Y-70176571D01*
X144470380Y-70367047D01*
X144422761Y-70462285D01*
X144327523Y-70509904D01*
X143946571Y-70509904D01*
X143851333Y-70462285D01*
X143803714Y-70367047D01*
X143803714Y-70176571D01*
X143851333Y-70081333D01*
X143946571Y-70033714D01*
X144041809Y-70033714D01*
X144137047Y-70509904D01*
X144470380Y-69605142D02*
X143803714Y-69605142D01*
X143994190Y-69605142D02*
X143898952Y-69557523D01*
X143851333Y-69509904D01*
X143803714Y-69414666D01*
X143803714Y-69319428D01*
M02*
