G04 #@! TF.GenerationSoftware,KiCad,Pcbnew,5.1.2-1.fc30*
G04 #@! TF.CreationDate,2019-07-22T18:24:24+02:00*
G04 #@! TF.ProjectId,dasa-3,64617361-2d33-42e6-9b69-6361645f7063,0.5*
G04 #@! TF.SameCoordinates,Original*
G04 #@! TF.FileFunction,Copper,L1,Top*
G04 #@! TF.FilePolarity,Positive*
%FSLAX46Y46*%
G04 Gerber Fmt 4.6, Leading zero omitted, Abs format (unit mm)*
G04 Created by KiCad (PCBNEW 5.1.2-1.fc30) date 2019-07-22 18:24:24*
%MOMM*%
%LPD*%
G04 APERTURE LIST*
%ADD10C,1.600000*%
%ADD11R,1.600000X1.600000*%
%ADD12O,1.600000X1.600000*%
%ADD13R,1.727200X1.727200*%
%ADD14O,1.727200X1.727200*%
%ADD15O,1.050000X1.500000*%
%ADD16R,1.050000X1.500000*%
%ADD17C,0.500000*%
%ADD18C,0.254000*%
G04 APERTURE END LIST*
D10*
X127973000Y-53594000D03*
X130743000Y-53594000D03*
X133513000Y-53594000D03*
X136283000Y-53594000D03*
X126588000Y-56134000D03*
X129358000Y-56134000D03*
X132128000Y-56134000D03*
X134898000Y-56134000D03*
D11*
X137668000Y-56134000D03*
D12*
X122936000Y-60706000D03*
D11*
X122936000Y-68326000D03*
X135382000Y-80010000D03*
D12*
X135382000Y-72390000D03*
D11*
X129286000Y-80010000D03*
D12*
X129286000Y-72390000D03*
D13*
X136906000Y-93218000D03*
D14*
X136906000Y-95758000D03*
X134366000Y-93218000D03*
X134366000Y-95758000D03*
X131826000Y-93218000D03*
X131826000Y-95758000D03*
X129286000Y-93218000D03*
X129286000Y-95758000D03*
X126746000Y-93218000D03*
X126746000Y-95758000D03*
D13*
X131826000Y-106426000D03*
D14*
X131826000Y-103886000D03*
X134366000Y-106426000D03*
X134366000Y-103886000D03*
X136906000Y-106426000D03*
X136906000Y-103886000D03*
D15*
X137414000Y-85344000D03*
X136144000Y-85344000D03*
D16*
X138684000Y-85344000D03*
D10*
X122936000Y-72644000D03*
D12*
X122936000Y-80264000D03*
X135382000Y-60452000D03*
D10*
X135382000Y-68072000D03*
D12*
X129286000Y-60452000D03*
D10*
X129286000Y-68072000D03*
X130556000Y-84836000D03*
D12*
X122936000Y-84836000D03*
D10*
X120396000Y-101346000D03*
D12*
X120396000Y-108966000D03*
D17*
X135382000Y-72390000D02*
X135382000Y-73640300D01*
X136144000Y-85344000D02*
X136144000Y-84143700D01*
X136144000Y-84143700D02*
X136696800Y-83590900D01*
X136696800Y-83590900D02*
X136696800Y-74955100D01*
X136696800Y-74955100D02*
X135382000Y-73640300D01*
X135913800Y-98619700D02*
X138219900Y-96313600D01*
X138219900Y-96313600D02*
X138219900Y-89239600D01*
X138219900Y-89239600D02*
X136144000Y-87163700D01*
X136144000Y-87163700D02*
X136144000Y-85344000D01*
X135913800Y-98619700D02*
X134366000Y-97071900D01*
X136906000Y-102747200D02*
X136906000Y-99611900D01*
X136906000Y-99611900D02*
X135913800Y-98619700D01*
X134366000Y-95758000D02*
X134366000Y-97071900D01*
X136906000Y-103886000D02*
X136906000Y-102747200D01*
X122936000Y-72644000D02*
X122936000Y-68326000D01*
X135382000Y-80010000D02*
X135382000Y-78759700D01*
X135382000Y-78759700D02*
X134131700Y-77509400D01*
X134131700Y-77509400D02*
X134131700Y-69322300D01*
X134131700Y-69322300D02*
X135382000Y-68072000D01*
X129286000Y-93218000D02*
X129286000Y-89806100D01*
X129286000Y-89806100D02*
X135382000Y-83710100D01*
X135382000Y-83710100D02*
X135382000Y-80010000D01*
X129286000Y-68072000D02*
X129286000Y-72390000D01*
X122936000Y-79013700D02*
X124476500Y-77473200D01*
X124476500Y-77473200D02*
X124476500Y-68850500D01*
X124476500Y-68850500D02*
X132128000Y-61199000D01*
X132128000Y-61199000D02*
X132128000Y-56134000D01*
X122936000Y-80264000D02*
X122936000Y-79013700D01*
X129286000Y-60452000D02*
X129286000Y-59201700D01*
X129286000Y-59201700D02*
X129358000Y-59129700D01*
X129358000Y-59129700D02*
X129358000Y-56134000D01*
X135382000Y-60452000D02*
X135382000Y-59201700D01*
X135382000Y-59201700D02*
X133513000Y-57332700D01*
X133513000Y-57332700D02*
X133513000Y-53594000D01*
X126746000Y-93218000D02*
X126746000Y-91904100D01*
X126746000Y-91904100D02*
X121685600Y-86843700D01*
X121685600Y-86843700D02*
X121685600Y-64768200D01*
X121685600Y-64768200D02*
X127838400Y-58615400D01*
X127838400Y-58615400D02*
X127838400Y-55845300D01*
X127838400Y-55845300D02*
X130089700Y-53594000D01*
X130089700Y-53594000D02*
X130743000Y-53594000D01*
X131826000Y-103886000D02*
X130512100Y-103886000D01*
X120396000Y-101346000D02*
X127972100Y-101346000D01*
X127972100Y-101346000D02*
X130512100Y-103886000D01*
X138684000Y-85344000D02*
X138684000Y-86544300D01*
X136906000Y-106426000D02*
X138928500Y-104403500D01*
X138928500Y-104403500D02*
X138928500Y-86788800D01*
X138928500Y-86788800D02*
X138684000Y-86544300D01*
D18*
G36*
X147422000Y-50525606D02*
G01*
X147422001Y-108986393D01*
X145562394Y-110846000D01*
X119105606Y-110846000D01*
X117246000Y-108986394D01*
X117246000Y-108966000D01*
X118954057Y-108966000D01*
X118981764Y-109247309D01*
X119063818Y-109517808D01*
X119197068Y-109767101D01*
X119376392Y-109985608D01*
X119594899Y-110164932D01*
X119844192Y-110298182D01*
X120114691Y-110380236D01*
X120325508Y-110401000D01*
X120466492Y-110401000D01*
X120677309Y-110380236D01*
X120947808Y-110298182D01*
X121197101Y-110164932D01*
X121415608Y-109985608D01*
X121594932Y-109767101D01*
X121728182Y-109517808D01*
X121810236Y-109247309D01*
X121837943Y-108966000D01*
X121810236Y-108684691D01*
X121728182Y-108414192D01*
X121594932Y-108164899D01*
X121415608Y-107946392D01*
X121197101Y-107767068D01*
X120947808Y-107633818D01*
X120677309Y-107551764D01*
X120466492Y-107531000D01*
X120325508Y-107531000D01*
X120114691Y-107551764D01*
X119844192Y-107633818D01*
X119594899Y-107767068D01*
X119376392Y-107946392D01*
X119197068Y-108164899D01*
X119063818Y-108414192D01*
X118981764Y-108684691D01*
X118954057Y-108966000D01*
X117246000Y-108966000D01*
X117246000Y-101204665D01*
X118961000Y-101204665D01*
X118961000Y-101487335D01*
X119016147Y-101764574D01*
X119124320Y-102025727D01*
X119281363Y-102260759D01*
X119481241Y-102460637D01*
X119716273Y-102617680D01*
X119977426Y-102725853D01*
X120254665Y-102781000D01*
X120537335Y-102781000D01*
X120814574Y-102725853D01*
X121075727Y-102617680D01*
X121310759Y-102460637D01*
X121510637Y-102260759D01*
X121530521Y-102231000D01*
X127605522Y-102231000D01*
X129855570Y-104481049D01*
X129883283Y-104514817D01*
X129917051Y-104542530D01*
X129917053Y-104542532D01*
X129988552Y-104601210D01*
X130018041Y-104625411D01*
X130171787Y-104707589D01*
X130338610Y-104758195D01*
X130468623Y-104771000D01*
X130468633Y-104771000D01*
X130512099Y-104775281D01*
X130555565Y-104771000D01*
X130613647Y-104771000D01*
X130761203Y-104950797D01*
X130769265Y-104957414D01*
X130718220Y-104972898D01*
X130607906Y-105031863D01*
X130511215Y-105111215D01*
X130431863Y-105207906D01*
X130372898Y-105318220D01*
X130336588Y-105437918D01*
X130324328Y-105562400D01*
X130324328Y-107289600D01*
X130336588Y-107414082D01*
X130372898Y-107533780D01*
X130431863Y-107644094D01*
X130511215Y-107740785D01*
X130607906Y-107820137D01*
X130718220Y-107879102D01*
X130837918Y-107915412D01*
X130962400Y-107927672D01*
X132689600Y-107927672D01*
X132814082Y-107915412D01*
X132933780Y-107879102D01*
X133044094Y-107820137D01*
X133140785Y-107740785D01*
X133220137Y-107644094D01*
X133279102Y-107533780D01*
X133294586Y-107482735D01*
X133301203Y-107490797D01*
X133529394Y-107678069D01*
X133789736Y-107817225D01*
X134072223Y-107902916D01*
X134292381Y-107924600D01*
X134439619Y-107924600D01*
X134659777Y-107902916D01*
X134942264Y-107817225D01*
X135202606Y-107678069D01*
X135430797Y-107490797D01*
X135618069Y-107262606D01*
X135636000Y-107229060D01*
X135653931Y-107262606D01*
X135841203Y-107490797D01*
X136069394Y-107678069D01*
X136329736Y-107817225D01*
X136612223Y-107902916D01*
X136832381Y-107924600D01*
X136979619Y-107924600D01*
X137199777Y-107902916D01*
X137482264Y-107817225D01*
X137742606Y-107678069D01*
X137970797Y-107490797D01*
X138158069Y-107262606D01*
X138297225Y-107002264D01*
X138382916Y-106719777D01*
X138411851Y-106426000D01*
X138389052Y-106194526D01*
X139523550Y-105060029D01*
X139557317Y-105032317D01*
X139606082Y-104972898D01*
X139667911Y-104897559D01*
X139735557Y-104771000D01*
X139750089Y-104743813D01*
X139800695Y-104576990D01*
X139813500Y-104446977D01*
X139813500Y-104446969D01*
X139817781Y-104403500D01*
X139813500Y-104360031D01*
X139813500Y-86832265D01*
X139817781Y-86788799D01*
X139813500Y-86745333D01*
X139813500Y-86745323D01*
X139800695Y-86615310D01*
X139750089Y-86448487D01*
X139744815Y-86438620D01*
X139798502Y-86338180D01*
X139834812Y-86218482D01*
X139847072Y-86094000D01*
X139847072Y-84594000D01*
X139834812Y-84469518D01*
X139798502Y-84349820D01*
X139739537Y-84239506D01*
X139660185Y-84142815D01*
X139563494Y-84063463D01*
X139453180Y-84004498D01*
X139333482Y-83968188D01*
X139209000Y-83955928D01*
X138159000Y-83955928D01*
X138034518Y-83968188D01*
X137914820Y-84004498D01*
X137850098Y-84039093D01*
X137641400Y-83975785D01*
X137414000Y-83953388D01*
X137186601Y-83975785D01*
X136967941Y-84042115D01*
X136779331Y-84142929D01*
X136720882Y-84101725D01*
X136511337Y-84008728D01*
X136449810Y-84000036D01*
X136271002Y-84125836D01*
X136271002Y-83959000D01*
X136231319Y-83959000D01*
X136254195Y-83883590D01*
X136267000Y-83753577D01*
X136267000Y-83753569D01*
X136271281Y-83710100D01*
X136267000Y-83666631D01*
X136267000Y-81439701D01*
X136306482Y-81435812D01*
X136426180Y-81399502D01*
X136536494Y-81340537D01*
X136633185Y-81261185D01*
X136712537Y-81164494D01*
X136771502Y-81054180D01*
X136807812Y-80934482D01*
X136820072Y-80810000D01*
X136820072Y-79210000D01*
X136807812Y-79085518D01*
X136771502Y-78965820D01*
X136712537Y-78855506D01*
X136633185Y-78758815D01*
X136536494Y-78679463D01*
X136426180Y-78620498D01*
X136306482Y-78584188D01*
X136251952Y-78578817D01*
X136203589Y-78419387D01*
X136121411Y-78265641D01*
X136010817Y-78130883D01*
X135977049Y-78103170D01*
X135016700Y-77142822D01*
X135016700Y-73776972D01*
X135032961Y-73781904D01*
X135255000Y-73659915D01*
X135255000Y-72517000D01*
X135509000Y-72517000D01*
X135509000Y-73659915D01*
X135731039Y-73781904D01*
X135865087Y-73741246D01*
X136119420Y-73621037D01*
X136345414Y-73453519D01*
X136534385Y-73245131D01*
X136679070Y-73003881D01*
X136773909Y-72739040D01*
X136652624Y-72517000D01*
X135509000Y-72517000D01*
X135255000Y-72517000D01*
X135235000Y-72517000D01*
X135235000Y-72263000D01*
X135255000Y-72263000D01*
X135255000Y-71120085D01*
X135509000Y-71120085D01*
X135509000Y-72263000D01*
X136652624Y-72263000D01*
X136773909Y-72040960D01*
X136679070Y-71776119D01*
X136534385Y-71534869D01*
X136345414Y-71326481D01*
X136119420Y-71158963D01*
X135865087Y-71038754D01*
X135731039Y-70998096D01*
X135509000Y-71120085D01*
X135255000Y-71120085D01*
X135032961Y-70998096D01*
X135016700Y-71003028D01*
X135016700Y-69688878D01*
X135205561Y-69500017D01*
X135240665Y-69507000D01*
X135523335Y-69507000D01*
X135800574Y-69451853D01*
X136061727Y-69343680D01*
X136296759Y-69186637D01*
X136496637Y-68986759D01*
X136653680Y-68751727D01*
X136761853Y-68490574D01*
X136817000Y-68213335D01*
X136817000Y-67930665D01*
X136761853Y-67653426D01*
X136653680Y-67392273D01*
X136496637Y-67157241D01*
X136296759Y-66957363D01*
X136061727Y-66800320D01*
X135800574Y-66692147D01*
X135523335Y-66637000D01*
X135240665Y-66637000D01*
X134963426Y-66692147D01*
X134702273Y-66800320D01*
X134467241Y-66957363D01*
X134267363Y-67157241D01*
X134110320Y-67392273D01*
X134002147Y-67653426D01*
X133947000Y-67930665D01*
X133947000Y-68213335D01*
X133953983Y-68248439D01*
X133536651Y-68665771D01*
X133502884Y-68693483D01*
X133475171Y-68727251D01*
X133475168Y-68727254D01*
X133392290Y-68828241D01*
X133310112Y-68981987D01*
X133259505Y-69148810D01*
X133242419Y-69322300D01*
X133246701Y-69365779D01*
X133246700Y-77465931D01*
X133242419Y-77509400D01*
X133246700Y-77552869D01*
X133246700Y-77552876D01*
X133259505Y-77682889D01*
X133310111Y-77849712D01*
X133392289Y-78003458D01*
X133502883Y-78138217D01*
X133536656Y-78165934D01*
X134130239Y-78759517D01*
X134051463Y-78855506D01*
X133992498Y-78965820D01*
X133956188Y-79085518D01*
X133943928Y-79210000D01*
X133943928Y-80810000D01*
X133956188Y-80934482D01*
X133992498Y-81054180D01*
X134051463Y-81164494D01*
X134130815Y-81261185D01*
X134227506Y-81340537D01*
X134337820Y-81399502D01*
X134457518Y-81435812D01*
X134497001Y-81439701D01*
X134497000Y-83343521D01*
X128690952Y-89149570D01*
X128657184Y-89177283D01*
X128629471Y-89211051D01*
X128629468Y-89211054D01*
X128546590Y-89312041D01*
X128464412Y-89465787D01*
X128413805Y-89632610D01*
X128396719Y-89806100D01*
X128401001Y-89849579D01*
X128401000Y-92005647D01*
X128221203Y-92153203D01*
X128033931Y-92381394D01*
X128016000Y-92414940D01*
X127998069Y-92381394D01*
X127810797Y-92153203D01*
X127631000Y-92005647D01*
X127631000Y-91947565D01*
X127635281Y-91904099D01*
X127631000Y-91860633D01*
X127631000Y-91860623D01*
X127618195Y-91730610D01*
X127567589Y-91563787D01*
X127485411Y-91410041D01*
X127374817Y-91275283D01*
X127341049Y-91247570D01*
X122570600Y-86477122D01*
X122570600Y-86224728D01*
X122654691Y-86250236D01*
X122865508Y-86271000D01*
X123006492Y-86271000D01*
X123217309Y-86250236D01*
X123487808Y-86168182D01*
X123737101Y-86034932D01*
X123955608Y-85855608D01*
X123977689Y-85828702D01*
X129742903Y-85828702D01*
X129814486Y-86072671D01*
X130069996Y-86193571D01*
X130344184Y-86262300D01*
X130626512Y-86276217D01*
X130906130Y-86234787D01*
X131172292Y-86139603D01*
X131297514Y-86072671D01*
X131369097Y-85828702D01*
X130556000Y-85015605D01*
X129742903Y-85828702D01*
X123977689Y-85828702D01*
X124134932Y-85637101D01*
X124268182Y-85387808D01*
X124350236Y-85117309D01*
X124370998Y-84906512D01*
X129115783Y-84906512D01*
X129157213Y-85186130D01*
X129252397Y-85452292D01*
X129319329Y-85577514D01*
X129563298Y-85649097D01*
X130376395Y-84836000D01*
X130735605Y-84836000D01*
X131548702Y-85649097D01*
X131792671Y-85577514D01*
X131913571Y-85322004D01*
X131982300Y-85047816D01*
X131996217Y-84765488D01*
X131954787Y-84485870D01*
X131859603Y-84219708D01*
X131792671Y-84094486D01*
X131548702Y-84022903D01*
X130735605Y-84836000D01*
X130376395Y-84836000D01*
X129563298Y-84022903D01*
X129319329Y-84094486D01*
X129198429Y-84349996D01*
X129129700Y-84624184D01*
X129115783Y-84906512D01*
X124370998Y-84906512D01*
X124377943Y-84836000D01*
X124350236Y-84554691D01*
X124268182Y-84284192D01*
X124134932Y-84034899D01*
X123977690Y-83843298D01*
X129742903Y-83843298D01*
X130556000Y-84656395D01*
X131369097Y-83843298D01*
X131297514Y-83599329D01*
X131042004Y-83478429D01*
X130767816Y-83409700D01*
X130485488Y-83395783D01*
X130205870Y-83437213D01*
X129939708Y-83532397D01*
X129814486Y-83599329D01*
X129742903Y-83843298D01*
X123977690Y-83843298D01*
X123955608Y-83816392D01*
X123737101Y-83637068D01*
X123487808Y-83503818D01*
X123217309Y-83421764D01*
X123006492Y-83401000D01*
X122865508Y-83401000D01*
X122654691Y-83421764D01*
X122570600Y-83447272D01*
X122570600Y-81652728D01*
X122654691Y-81678236D01*
X122865508Y-81699000D01*
X123006492Y-81699000D01*
X123217309Y-81678236D01*
X123487808Y-81596182D01*
X123737101Y-81462932D01*
X123955608Y-81283608D01*
X124134932Y-81065101D01*
X124268182Y-80815808D01*
X124350236Y-80545309D01*
X124377943Y-80264000D01*
X124350236Y-79982691D01*
X124268182Y-79712192D01*
X124134932Y-79462899D01*
X123956184Y-79245094D01*
X123991278Y-79210000D01*
X127847928Y-79210000D01*
X127847928Y-80810000D01*
X127860188Y-80934482D01*
X127896498Y-81054180D01*
X127955463Y-81164494D01*
X128034815Y-81261185D01*
X128131506Y-81340537D01*
X128241820Y-81399502D01*
X128361518Y-81435812D01*
X128486000Y-81448072D01*
X130086000Y-81448072D01*
X130210482Y-81435812D01*
X130330180Y-81399502D01*
X130440494Y-81340537D01*
X130537185Y-81261185D01*
X130616537Y-81164494D01*
X130675502Y-81054180D01*
X130711812Y-80934482D01*
X130724072Y-80810000D01*
X130724072Y-79210000D01*
X130711812Y-79085518D01*
X130675502Y-78965820D01*
X130616537Y-78855506D01*
X130537185Y-78758815D01*
X130440494Y-78679463D01*
X130330180Y-78620498D01*
X130210482Y-78584188D01*
X130086000Y-78571928D01*
X128486000Y-78571928D01*
X128361518Y-78584188D01*
X128241820Y-78620498D01*
X128131506Y-78679463D01*
X128034815Y-78758815D01*
X127955463Y-78855506D01*
X127896498Y-78965820D01*
X127860188Y-79085518D01*
X127847928Y-79210000D01*
X123991278Y-79210000D01*
X125071550Y-78129729D01*
X125105317Y-78102017D01*
X125215911Y-77967259D01*
X125298089Y-77813513D01*
X125348695Y-77646690D01*
X125361500Y-77516677D01*
X125361500Y-77516669D01*
X125365781Y-77473200D01*
X125361500Y-77429731D01*
X125361500Y-72390000D01*
X127844057Y-72390000D01*
X127871764Y-72671309D01*
X127953818Y-72941808D01*
X128087068Y-73191101D01*
X128266392Y-73409608D01*
X128484899Y-73588932D01*
X128734192Y-73722182D01*
X129004691Y-73804236D01*
X129215508Y-73825000D01*
X129356492Y-73825000D01*
X129567309Y-73804236D01*
X129837808Y-73722182D01*
X130087101Y-73588932D01*
X130305608Y-73409608D01*
X130484932Y-73191101D01*
X130618182Y-72941808D01*
X130700236Y-72671309D01*
X130727943Y-72390000D01*
X130700236Y-72108691D01*
X130618182Y-71838192D01*
X130484932Y-71588899D01*
X130305608Y-71370392D01*
X130171000Y-71259922D01*
X130171000Y-69206521D01*
X130200759Y-69186637D01*
X130400637Y-68986759D01*
X130557680Y-68751727D01*
X130665853Y-68490574D01*
X130721000Y-68213335D01*
X130721000Y-67930665D01*
X130665853Y-67653426D01*
X130557680Y-67392273D01*
X130400637Y-67157241D01*
X130200759Y-66957363D01*
X129965727Y-66800320D01*
X129704574Y-66692147D01*
X129427335Y-66637000D01*
X129144665Y-66637000D01*
X128867426Y-66692147D01*
X128606273Y-66800320D01*
X128371241Y-66957363D01*
X128171363Y-67157241D01*
X128014320Y-67392273D01*
X127906147Y-67653426D01*
X127851000Y-67930665D01*
X127851000Y-68213335D01*
X127906147Y-68490574D01*
X128014320Y-68751727D01*
X128171363Y-68986759D01*
X128371241Y-69186637D01*
X128401000Y-69206521D01*
X128401001Y-71259922D01*
X128266392Y-71370392D01*
X128087068Y-71588899D01*
X127953818Y-71838192D01*
X127871764Y-72108691D01*
X127844057Y-72390000D01*
X125361500Y-72390000D01*
X125361500Y-69217078D01*
X132723051Y-61855528D01*
X132756817Y-61827817D01*
X132804662Y-61769519D01*
X132867410Y-61693060D01*
X132867411Y-61693059D01*
X132949589Y-61539313D01*
X133000195Y-61372490D01*
X133013000Y-61242477D01*
X133013000Y-61242467D01*
X133017281Y-61199001D01*
X133013000Y-61155534D01*
X133013000Y-58084278D01*
X134361816Y-59433094D01*
X134183068Y-59650899D01*
X134049818Y-59900192D01*
X133967764Y-60170691D01*
X133940057Y-60452000D01*
X133967764Y-60733309D01*
X134049818Y-61003808D01*
X134183068Y-61253101D01*
X134362392Y-61471608D01*
X134580899Y-61650932D01*
X134830192Y-61784182D01*
X135100691Y-61866236D01*
X135311508Y-61887000D01*
X135452492Y-61887000D01*
X135663309Y-61866236D01*
X135933808Y-61784182D01*
X136183101Y-61650932D01*
X136401608Y-61471608D01*
X136580932Y-61253101D01*
X136714182Y-61003808D01*
X136796236Y-60733309D01*
X136823943Y-60452000D01*
X136796236Y-60170691D01*
X136714182Y-59900192D01*
X136580932Y-59650899D01*
X136401608Y-59432392D01*
X136267000Y-59321922D01*
X136267000Y-59245165D01*
X136271281Y-59201699D01*
X136267000Y-59158233D01*
X136267000Y-59158223D01*
X136254195Y-59028210D01*
X136203589Y-58861387D01*
X136121411Y-58707641D01*
X136081390Y-58658876D01*
X136038532Y-58606653D01*
X136038530Y-58606651D01*
X136010817Y-58572883D01*
X135977049Y-58545170D01*
X135000878Y-57569000D01*
X135039335Y-57569000D01*
X135316574Y-57513853D01*
X135577727Y-57405680D01*
X135812759Y-57248637D01*
X136012637Y-57048759D01*
X136169680Y-56813727D01*
X136229928Y-56668275D01*
X136229928Y-56934000D01*
X136242188Y-57058482D01*
X136278498Y-57178180D01*
X136337463Y-57288494D01*
X136416815Y-57385185D01*
X136513506Y-57464537D01*
X136623820Y-57523502D01*
X136743518Y-57559812D01*
X136868000Y-57572072D01*
X138468000Y-57572072D01*
X138592482Y-57559812D01*
X138712180Y-57523502D01*
X138822494Y-57464537D01*
X138919185Y-57385185D01*
X138998537Y-57288494D01*
X139057502Y-57178180D01*
X139093812Y-57058482D01*
X139106072Y-56934000D01*
X139106072Y-55334000D01*
X139093812Y-55209518D01*
X139057502Y-55089820D01*
X138998537Y-54979506D01*
X138919185Y-54882815D01*
X138822494Y-54803463D01*
X138712180Y-54744498D01*
X138592482Y-54708188D01*
X138468000Y-54695928D01*
X137210468Y-54695928D01*
X137397637Y-54508759D01*
X137554680Y-54273727D01*
X137662853Y-54012574D01*
X137718000Y-53735335D01*
X137718000Y-53452665D01*
X137662853Y-53175426D01*
X137554680Y-52914273D01*
X137397637Y-52679241D01*
X137197759Y-52479363D01*
X136962727Y-52322320D01*
X136701574Y-52214147D01*
X136424335Y-52159000D01*
X136141665Y-52159000D01*
X135864426Y-52214147D01*
X135603273Y-52322320D01*
X135368241Y-52479363D01*
X135168363Y-52679241D01*
X135011320Y-52914273D01*
X134903147Y-53175426D01*
X134898000Y-53201301D01*
X134892853Y-53175426D01*
X134784680Y-52914273D01*
X134627637Y-52679241D01*
X134427759Y-52479363D01*
X134192727Y-52322320D01*
X133931574Y-52214147D01*
X133654335Y-52159000D01*
X133371665Y-52159000D01*
X133094426Y-52214147D01*
X132833273Y-52322320D01*
X132598241Y-52479363D01*
X132398363Y-52679241D01*
X132241320Y-52914273D01*
X132133147Y-53175426D01*
X132128000Y-53201301D01*
X132122853Y-53175426D01*
X132014680Y-52914273D01*
X131857637Y-52679241D01*
X131657759Y-52479363D01*
X131422727Y-52322320D01*
X131161574Y-52214147D01*
X130884335Y-52159000D01*
X130601665Y-52159000D01*
X130324426Y-52214147D01*
X130063273Y-52322320D01*
X129828241Y-52479363D01*
X129628363Y-52679241D01*
X129471320Y-52914273D01*
X129439379Y-52991385D01*
X129433170Y-52998951D01*
X129324689Y-53107432D01*
X129244680Y-52914273D01*
X129087637Y-52679241D01*
X128887759Y-52479363D01*
X128652727Y-52322320D01*
X128391574Y-52214147D01*
X128114335Y-52159000D01*
X127831665Y-52159000D01*
X127554426Y-52214147D01*
X127293273Y-52322320D01*
X127058241Y-52479363D01*
X126858363Y-52679241D01*
X126701320Y-52914273D01*
X126593147Y-53175426D01*
X126538000Y-53452665D01*
X126538000Y-53735335D01*
X126593147Y-54012574D01*
X126701320Y-54273727D01*
X126858363Y-54508759D01*
X127058241Y-54708637D01*
X127293273Y-54865680D01*
X127486433Y-54945689D01*
X127376082Y-55056040D01*
X127329514Y-54897329D01*
X127074004Y-54776429D01*
X126799816Y-54707700D01*
X126517488Y-54693783D01*
X126237870Y-54735213D01*
X125971708Y-54830397D01*
X125846486Y-54897329D01*
X125774903Y-55141298D01*
X126588000Y-55954395D01*
X126602143Y-55940253D01*
X126781748Y-56119858D01*
X126767605Y-56134000D01*
X126781748Y-56148143D01*
X126602143Y-56327748D01*
X126588000Y-56313605D01*
X125774903Y-57126702D01*
X125846486Y-57370671D01*
X126101996Y-57491571D01*
X126376184Y-57560300D01*
X126658512Y-57574217D01*
X126938130Y-57532787D01*
X126953400Y-57527326D01*
X126953400Y-58248821D01*
X124264064Y-60938157D01*
X124206624Y-60833000D01*
X123063000Y-60833000D01*
X123063000Y-61975915D01*
X123168400Y-62033822D01*
X121090552Y-64111670D01*
X121056784Y-64139383D01*
X121029071Y-64173151D01*
X121029068Y-64173154D01*
X120946190Y-64274141D01*
X120864012Y-64427887D01*
X120813405Y-64594710D01*
X120796319Y-64768200D01*
X120800601Y-64811679D01*
X120800600Y-86800231D01*
X120796319Y-86843700D01*
X120800600Y-86887169D01*
X120800600Y-86887176D01*
X120813405Y-87017189D01*
X120864011Y-87184012D01*
X120946189Y-87337758D01*
X121056783Y-87472517D01*
X121090556Y-87500234D01*
X125715433Y-92125111D01*
X125681203Y-92153203D01*
X125493931Y-92381394D01*
X125354775Y-92641736D01*
X125269084Y-92924223D01*
X125240149Y-93218000D01*
X125269084Y-93511777D01*
X125354775Y-93794264D01*
X125493931Y-94054606D01*
X125681203Y-94282797D01*
X125909394Y-94470069D01*
X125949433Y-94491470D01*
X125735707Y-94651146D01*
X125539183Y-94869512D01*
X125389036Y-95122022D01*
X125291037Y-95398973D01*
X125411536Y-95631000D01*
X126619000Y-95631000D01*
X126619000Y-95611000D01*
X126873000Y-95611000D01*
X126873000Y-95631000D01*
X129159000Y-95631000D01*
X129159000Y-95611000D01*
X129413000Y-95611000D01*
X129413000Y-95631000D01*
X131699000Y-95631000D01*
X131699000Y-95611000D01*
X131953000Y-95611000D01*
X131953000Y-95631000D01*
X134239000Y-95631000D01*
X134239000Y-95611000D01*
X134493000Y-95611000D01*
X134493000Y-95631000D01*
X134513000Y-95631000D01*
X134513000Y-95885000D01*
X134493000Y-95885000D01*
X134493000Y-97091817D01*
X134725026Y-97212958D01*
X134875814Y-97167222D01*
X135140944Y-97040684D01*
X135376293Y-96864854D01*
X135572817Y-96646488D01*
X135630137Y-96550090D01*
X135653931Y-96594606D01*
X135841203Y-96822797D01*
X136069394Y-97010069D01*
X136329736Y-97149225D01*
X136612223Y-97234916D01*
X136832381Y-97256600D01*
X136979619Y-97256600D01*
X137199777Y-97234916D01*
X137482264Y-97149225D01*
X137742606Y-97010069D01*
X137970797Y-96822797D01*
X138043500Y-96734208D01*
X138043500Y-102920491D01*
X137916293Y-102779146D01*
X137680944Y-102603316D01*
X137415814Y-102476778D01*
X137265026Y-102431042D01*
X137033000Y-102552183D01*
X137033000Y-103759000D01*
X137053000Y-103759000D01*
X137053000Y-104013000D01*
X137033000Y-104013000D01*
X137033000Y-104033000D01*
X136779000Y-104033000D01*
X136779000Y-104013000D01*
X136759000Y-104013000D01*
X136759000Y-103759000D01*
X136779000Y-103759000D01*
X136779000Y-102552183D01*
X136546974Y-102431042D01*
X136396186Y-102476778D01*
X136131056Y-102603316D01*
X135895707Y-102779146D01*
X135699183Y-102997512D01*
X135641863Y-103093910D01*
X135618069Y-103049394D01*
X135430797Y-102821203D01*
X135202606Y-102633931D01*
X134942264Y-102494775D01*
X134659777Y-102409084D01*
X134439619Y-102387400D01*
X134292381Y-102387400D01*
X134072223Y-102409084D01*
X133789736Y-102494775D01*
X133529394Y-102633931D01*
X133301203Y-102821203D01*
X133113931Y-103049394D01*
X133096000Y-103082940D01*
X133078069Y-103049394D01*
X132890797Y-102821203D01*
X132662606Y-102633931D01*
X132402264Y-102494775D01*
X132119777Y-102409084D01*
X131899619Y-102387400D01*
X131752381Y-102387400D01*
X131532223Y-102409084D01*
X131249736Y-102494775D01*
X130989394Y-102633931D01*
X130761203Y-102821203D01*
X130733111Y-102855433D01*
X128628634Y-100750956D01*
X128600917Y-100717183D01*
X128466159Y-100606589D01*
X128312413Y-100524411D01*
X128145590Y-100473805D01*
X128015577Y-100461000D01*
X128015569Y-100461000D01*
X127972100Y-100456719D01*
X127928631Y-100461000D01*
X121530521Y-100461000D01*
X121510637Y-100431241D01*
X121310759Y-100231363D01*
X121075727Y-100074320D01*
X120814574Y-99966147D01*
X120537335Y-99911000D01*
X120254665Y-99911000D01*
X119977426Y-99966147D01*
X119716273Y-100074320D01*
X119481241Y-100231363D01*
X119281363Y-100431241D01*
X119124320Y-100666273D01*
X119016147Y-100927426D01*
X118961000Y-101204665D01*
X117246000Y-101204665D01*
X117246000Y-96117027D01*
X125291037Y-96117027D01*
X125389036Y-96393978D01*
X125539183Y-96646488D01*
X125735707Y-96864854D01*
X125971056Y-97040684D01*
X126236186Y-97167222D01*
X126386974Y-97212958D01*
X126619000Y-97091817D01*
X126619000Y-95885000D01*
X126873000Y-95885000D01*
X126873000Y-97091817D01*
X127105026Y-97212958D01*
X127255814Y-97167222D01*
X127520944Y-97040684D01*
X127756293Y-96864854D01*
X127952817Y-96646488D01*
X128016000Y-96540230D01*
X128079183Y-96646488D01*
X128275707Y-96864854D01*
X128511056Y-97040684D01*
X128776186Y-97167222D01*
X128926974Y-97212958D01*
X129159000Y-97091817D01*
X129159000Y-95885000D01*
X129413000Y-95885000D01*
X129413000Y-97091817D01*
X129645026Y-97212958D01*
X129795814Y-97167222D01*
X130060944Y-97040684D01*
X130296293Y-96864854D01*
X130492817Y-96646488D01*
X130556000Y-96540230D01*
X130619183Y-96646488D01*
X130815707Y-96864854D01*
X131051056Y-97040684D01*
X131316186Y-97167222D01*
X131466974Y-97212958D01*
X131699000Y-97091817D01*
X131699000Y-95885000D01*
X131953000Y-95885000D01*
X131953000Y-97091817D01*
X132185026Y-97212958D01*
X132335814Y-97167222D01*
X132600944Y-97040684D01*
X132836293Y-96864854D01*
X133032817Y-96646488D01*
X133096000Y-96540230D01*
X133159183Y-96646488D01*
X133355707Y-96864854D01*
X133591056Y-97040684D01*
X133856186Y-97167222D01*
X134006974Y-97212958D01*
X134239000Y-97091817D01*
X134239000Y-95885000D01*
X131953000Y-95885000D01*
X131699000Y-95885000D01*
X129413000Y-95885000D01*
X129159000Y-95885000D01*
X126873000Y-95885000D01*
X126619000Y-95885000D01*
X125411536Y-95885000D01*
X125291037Y-96117027D01*
X117246000Y-96117027D01*
X117246000Y-61055040D01*
X121544091Y-61055040D01*
X121638930Y-61319881D01*
X121783615Y-61561131D01*
X121972586Y-61769519D01*
X122198580Y-61937037D01*
X122452913Y-62057246D01*
X122586961Y-62097904D01*
X122809000Y-61975915D01*
X122809000Y-60833000D01*
X121665376Y-60833000D01*
X121544091Y-61055040D01*
X117246000Y-61055040D01*
X117246000Y-60356960D01*
X121544091Y-60356960D01*
X121665376Y-60579000D01*
X122809000Y-60579000D01*
X122809000Y-59436085D01*
X123063000Y-59436085D01*
X123063000Y-60579000D01*
X124206624Y-60579000D01*
X124327909Y-60356960D01*
X124233070Y-60092119D01*
X124088385Y-59850869D01*
X123899414Y-59642481D01*
X123673420Y-59474963D01*
X123419087Y-59354754D01*
X123285039Y-59314096D01*
X123063000Y-59436085D01*
X122809000Y-59436085D01*
X122586961Y-59314096D01*
X122452913Y-59354754D01*
X122198580Y-59474963D01*
X121972586Y-59642481D01*
X121783615Y-59850869D01*
X121638930Y-60092119D01*
X121544091Y-60356960D01*
X117246000Y-60356960D01*
X117246000Y-56204512D01*
X125147783Y-56204512D01*
X125189213Y-56484130D01*
X125284397Y-56750292D01*
X125351329Y-56875514D01*
X125595298Y-56947097D01*
X126408395Y-56134000D01*
X125595298Y-55320903D01*
X125351329Y-55392486D01*
X125230429Y-55647996D01*
X125161700Y-55922184D01*
X125147783Y-56204512D01*
X117246000Y-56204512D01*
X117246000Y-50525606D01*
X119111606Y-48660000D01*
X145556394Y-48660000D01*
X147422000Y-50525606D01*
X147422000Y-50525606D01*
G37*
X147422000Y-50525606D02*
X147422001Y-108986393D01*
X145562394Y-110846000D01*
X119105606Y-110846000D01*
X117246000Y-108986394D01*
X117246000Y-108966000D01*
X118954057Y-108966000D01*
X118981764Y-109247309D01*
X119063818Y-109517808D01*
X119197068Y-109767101D01*
X119376392Y-109985608D01*
X119594899Y-110164932D01*
X119844192Y-110298182D01*
X120114691Y-110380236D01*
X120325508Y-110401000D01*
X120466492Y-110401000D01*
X120677309Y-110380236D01*
X120947808Y-110298182D01*
X121197101Y-110164932D01*
X121415608Y-109985608D01*
X121594932Y-109767101D01*
X121728182Y-109517808D01*
X121810236Y-109247309D01*
X121837943Y-108966000D01*
X121810236Y-108684691D01*
X121728182Y-108414192D01*
X121594932Y-108164899D01*
X121415608Y-107946392D01*
X121197101Y-107767068D01*
X120947808Y-107633818D01*
X120677309Y-107551764D01*
X120466492Y-107531000D01*
X120325508Y-107531000D01*
X120114691Y-107551764D01*
X119844192Y-107633818D01*
X119594899Y-107767068D01*
X119376392Y-107946392D01*
X119197068Y-108164899D01*
X119063818Y-108414192D01*
X118981764Y-108684691D01*
X118954057Y-108966000D01*
X117246000Y-108966000D01*
X117246000Y-101204665D01*
X118961000Y-101204665D01*
X118961000Y-101487335D01*
X119016147Y-101764574D01*
X119124320Y-102025727D01*
X119281363Y-102260759D01*
X119481241Y-102460637D01*
X119716273Y-102617680D01*
X119977426Y-102725853D01*
X120254665Y-102781000D01*
X120537335Y-102781000D01*
X120814574Y-102725853D01*
X121075727Y-102617680D01*
X121310759Y-102460637D01*
X121510637Y-102260759D01*
X121530521Y-102231000D01*
X127605522Y-102231000D01*
X129855570Y-104481049D01*
X129883283Y-104514817D01*
X129917051Y-104542530D01*
X129917053Y-104542532D01*
X129988552Y-104601210D01*
X130018041Y-104625411D01*
X130171787Y-104707589D01*
X130338610Y-104758195D01*
X130468623Y-104771000D01*
X130468633Y-104771000D01*
X130512099Y-104775281D01*
X130555565Y-104771000D01*
X130613647Y-104771000D01*
X130761203Y-104950797D01*
X130769265Y-104957414D01*
X130718220Y-104972898D01*
X130607906Y-105031863D01*
X130511215Y-105111215D01*
X130431863Y-105207906D01*
X130372898Y-105318220D01*
X130336588Y-105437918D01*
X130324328Y-105562400D01*
X130324328Y-107289600D01*
X130336588Y-107414082D01*
X130372898Y-107533780D01*
X130431863Y-107644094D01*
X130511215Y-107740785D01*
X130607906Y-107820137D01*
X130718220Y-107879102D01*
X130837918Y-107915412D01*
X130962400Y-107927672D01*
X132689600Y-107927672D01*
X132814082Y-107915412D01*
X132933780Y-107879102D01*
X133044094Y-107820137D01*
X133140785Y-107740785D01*
X133220137Y-107644094D01*
X133279102Y-107533780D01*
X133294586Y-107482735D01*
X133301203Y-107490797D01*
X133529394Y-107678069D01*
X133789736Y-107817225D01*
X134072223Y-107902916D01*
X134292381Y-107924600D01*
X134439619Y-107924600D01*
X134659777Y-107902916D01*
X134942264Y-107817225D01*
X135202606Y-107678069D01*
X135430797Y-107490797D01*
X135618069Y-107262606D01*
X135636000Y-107229060D01*
X135653931Y-107262606D01*
X135841203Y-107490797D01*
X136069394Y-107678069D01*
X136329736Y-107817225D01*
X136612223Y-107902916D01*
X136832381Y-107924600D01*
X136979619Y-107924600D01*
X137199777Y-107902916D01*
X137482264Y-107817225D01*
X137742606Y-107678069D01*
X137970797Y-107490797D01*
X138158069Y-107262606D01*
X138297225Y-107002264D01*
X138382916Y-106719777D01*
X138411851Y-106426000D01*
X138389052Y-106194526D01*
X139523550Y-105060029D01*
X139557317Y-105032317D01*
X139606082Y-104972898D01*
X139667911Y-104897559D01*
X139735557Y-104771000D01*
X139750089Y-104743813D01*
X139800695Y-104576990D01*
X139813500Y-104446977D01*
X139813500Y-104446969D01*
X139817781Y-104403500D01*
X139813500Y-104360031D01*
X139813500Y-86832265D01*
X139817781Y-86788799D01*
X139813500Y-86745333D01*
X139813500Y-86745323D01*
X139800695Y-86615310D01*
X139750089Y-86448487D01*
X139744815Y-86438620D01*
X139798502Y-86338180D01*
X139834812Y-86218482D01*
X139847072Y-86094000D01*
X139847072Y-84594000D01*
X139834812Y-84469518D01*
X139798502Y-84349820D01*
X139739537Y-84239506D01*
X139660185Y-84142815D01*
X139563494Y-84063463D01*
X139453180Y-84004498D01*
X139333482Y-83968188D01*
X139209000Y-83955928D01*
X138159000Y-83955928D01*
X138034518Y-83968188D01*
X137914820Y-84004498D01*
X137850098Y-84039093D01*
X137641400Y-83975785D01*
X137414000Y-83953388D01*
X137186601Y-83975785D01*
X136967941Y-84042115D01*
X136779331Y-84142929D01*
X136720882Y-84101725D01*
X136511337Y-84008728D01*
X136449810Y-84000036D01*
X136271002Y-84125836D01*
X136271002Y-83959000D01*
X136231319Y-83959000D01*
X136254195Y-83883590D01*
X136267000Y-83753577D01*
X136267000Y-83753569D01*
X136271281Y-83710100D01*
X136267000Y-83666631D01*
X136267000Y-81439701D01*
X136306482Y-81435812D01*
X136426180Y-81399502D01*
X136536494Y-81340537D01*
X136633185Y-81261185D01*
X136712537Y-81164494D01*
X136771502Y-81054180D01*
X136807812Y-80934482D01*
X136820072Y-80810000D01*
X136820072Y-79210000D01*
X136807812Y-79085518D01*
X136771502Y-78965820D01*
X136712537Y-78855506D01*
X136633185Y-78758815D01*
X136536494Y-78679463D01*
X136426180Y-78620498D01*
X136306482Y-78584188D01*
X136251952Y-78578817D01*
X136203589Y-78419387D01*
X136121411Y-78265641D01*
X136010817Y-78130883D01*
X135977049Y-78103170D01*
X135016700Y-77142822D01*
X135016700Y-73776972D01*
X135032961Y-73781904D01*
X135255000Y-73659915D01*
X135255000Y-72517000D01*
X135509000Y-72517000D01*
X135509000Y-73659915D01*
X135731039Y-73781904D01*
X135865087Y-73741246D01*
X136119420Y-73621037D01*
X136345414Y-73453519D01*
X136534385Y-73245131D01*
X136679070Y-73003881D01*
X136773909Y-72739040D01*
X136652624Y-72517000D01*
X135509000Y-72517000D01*
X135255000Y-72517000D01*
X135235000Y-72517000D01*
X135235000Y-72263000D01*
X135255000Y-72263000D01*
X135255000Y-71120085D01*
X135509000Y-71120085D01*
X135509000Y-72263000D01*
X136652624Y-72263000D01*
X136773909Y-72040960D01*
X136679070Y-71776119D01*
X136534385Y-71534869D01*
X136345414Y-71326481D01*
X136119420Y-71158963D01*
X135865087Y-71038754D01*
X135731039Y-70998096D01*
X135509000Y-71120085D01*
X135255000Y-71120085D01*
X135032961Y-70998096D01*
X135016700Y-71003028D01*
X135016700Y-69688878D01*
X135205561Y-69500017D01*
X135240665Y-69507000D01*
X135523335Y-69507000D01*
X135800574Y-69451853D01*
X136061727Y-69343680D01*
X136296759Y-69186637D01*
X136496637Y-68986759D01*
X136653680Y-68751727D01*
X136761853Y-68490574D01*
X136817000Y-68213335D01*
X136817000Y-67930665D01*
X136761853Y-67653426D01*
X136653680Y-67392273D01*
X136496637Y-67157241D01*
X136296759Y-66957363D01*
X136061727Y-66800320D01*
X135800574Y-66692147D01*
X135523335Y-66637000D01*
X135240665Y-66637000D01*
X134963426Y-66692147D01*
X134702273Y-66800320D01*
X134467241Y-66957363D01*
X134267363Y-67157241D01*
X134110320Y-67392273D01*
X134002147Y-67653426D01*
X133947000Y-67930665D01*
X133947000Y-68213335D01*
X133953983Y-68248439D01*
X133536651Y-68665771D01*
X133502884Y-68693483D01*
X133475171Y-68727251D01*
X133475168Y-68727254D01*
X133392290Y-68828241D01*
X133310112Y-68981987D01*
X133259505Y-69148810D01*
X133242419Y-69322300D01*
X133246701Y-69365779D01*
X133246700Y-77465931D01*
X133242419Y-77509400D01*
X133246700Y-77552869D01*
X133246700Y-77552876D01*
X133259505Y-77682889D01*
X133310111Y-77849712D01*
X133392289Y-78003458D01*
X133502883Y-78138217D01*
X133536656Y-78165934D01*
X134130239Y-78759517D01*
X134051463Y-78855506D01*
X133992498Y-78965820D01*
X133956188Y-79085518D01*
X133943928Y-79210000D01*
X133943928Y-80810000D01*
X133956188Y-80934482D01*
X133992498Y-81054180D01*
X134051463Y-81164494D01*
X134130815Y-81261185D01*
X134227506Y-81340537D01*
X134337820Y-81399502D01*
X134457518Y-81435812D01*
X134497001Y-81439701D01*
X134497000Y-83343521D01*
X128690952Y-89149570D01*
X128657184Y-89177283D01*
X128629471Y-89211051D01*
X128629468Y-89211054D01*
X128546590Y-89312041D01*
X128464412Y-89465787D01*
X128413805Y-89632610D01*
X128396719Y-89806100D01*
X128401001Y-89849579D01*
X128401000Y-92005647D01*
X128221203Y-92153203D01*
X128033931Y-92381394D01*
X128016000Y-92414940D01*
X127998069Y-92381394D01*
X127810797Y-92153203D01*
X127631000Y-92005647D01*
X127631000Y-91947565D01*
X127635281Y-91904099D01*
X127631000Y-91860633D01*
X127631000Y-91860623D01*
X127618195Y-91730610D01*
X127567589Y-91563787D01*
X127485411Y-91410041D01*
X127374817Y-91275283D01*
X127341049Y-91247570D01*
X122570600Y-86477122D01*
X122570600Y-86224728D01*
X122654691Y-86250236D01*
X122865508Y-86271000D01*
X123006492Y-86271000D01*
X123217309Y-86250236D01*
X123487808Y-86168182D01*
X123737101Y-86034932D01*
X123955608Y-85855608D01*
X123977689Y-85828702D01*
X129742903Y-85828702D01*
X129814486Y-86072671D01*
X130069996Y-86193571D01*
X130344184Y-86262300D01*
X130626512Y-86276217D01*
X130906130Y-86234787D01*
X131172292Y-86139603D01*
X131297514Y-86072671D01*
X131369097Y-85828702D01*
X130556000Y-85015605D01*
X129742903Y-85828702D01*
X123977689Y-85828702D01*
X124134932Y-85637101D01*
X124268182Y-85387808D01*
X124350236Y-85117309D01*
X124370998Y-84906512D01*
X129115783Y-84906512D01*
X129157213Y-85186130D01*
X129252397Y-85452292D01*
X129319329Y-85577514D01*
X129563298Y-85649097D01*
X130376395Y-84836000D01*
X130735605Y-84836000D01*
X131548702Y-85649097D01*
X131792671Y-85577514D01*
X131913571Y-85322004D01*
X131982300Y-85047816D01*
X131996217Y-84765488D01*
X131954787Y-84485870D01*
X131859603Y-84219708D01*
X131792671Y-84094486D01*
X131548702Y-84022903D01*
X130735605Y-84836000D01*
X130376395Y-84836000D01*
X129563298Y-84022903D01*
X129319329Y-84094486D01*
X129198429Y-84349996D01*
X129129700Y-84624184D01*
X129115783Y-84906512D01*
X124370998Y-84906512D01*
X124377943Y-84836000D01*
X124350236Y-84554691D01*
X124268182Y-84284192D01*
X124134932Y-84034899D01*
X123977690Y-83843298D01*
X129742903Y-83843298D01*
X130556000Y-84656395D01*
X131369097Y-83843298D01*
X131297514Y-83599329D01*
X131042004Y-83478429D01*
X130767816Y-83409700D01*
X130485488Y-83395783D01*
X130205870Y-83437213D01*
X129939708Y-83532397D01*
X129814486Y-83599329D01*
X129742903Y-83843298D01*
X123977690Y-83843298D01*
X123955608Y-83816392D01*
X123737101Y-83637068D01*
X123487808Y-83503818D01*
X123217309Y-83421764D01*
X123006492Y-83401000D01*
X122865508Y-83401000D01*
X122654691Y-83421764D01*
X122570600Y-83447272D01*
X122570600Y-81652728D01*
X122654691Y-81678236D01*
X122865508Y-81699000D01*
X123006492Y-81699000D01*
X123217309Y-81678236D01*
X123487808Y-81596182D01*
X123737101Y-81462932D01*
X123955608Y-81283608D01*
X124134932Y-81065101D01*
X124268182Y-80815808D01*
X124350236Y-80545309D01*
X124377943Y-80264000D01*
X124350236Y-79982691D01*
X124268182Y-79712192D01*
X124134932Y-79462899D01*
X123956184Y-79245094D01*
X123991278Y-79210000D01*
X127847928Y-79210000D01*
X127847928Y-80810000D01*
X127860188Y-80934482D01*
X127896498Y-81054180D01*
X127955463Y-81164494D01*
X128034815Y-81261185D01*
X128131506Y-81340537D01*
X128241820Y-81399502D01*
X128361518Y-81435812D01*
X128486000Y-81448072D01*
X130086000Y-81448072D01*
X130210482Y-81435812D01*
X130330180Y-81399502D01*
X130440494Y-81340537D01*
X130537185Y-81261185D01*
X130616537Y-81164494D01*
X130675502Y-81054180D01*
X130711812Y-80934482D01*
X130724072Y-80810000D01*
X130724072Y-79210000D01*
X130711812Y-79085518D01*
X130675502Y-78965820D01*
X130616537Y-78855506D01*
X130537185Y-78758815D01*
X130440494Y-78679463D01*
X130330180Y-78620498D01*
X130210482Y-78584188D01*
X130086000Y-78571928D01*
X128486000Y-78571928D01*
X128361518Y-78584188D01*
X128241820Y-78620498D01*
X128131506Y-78679463D01*
X128034815Y-78758815D01*
X127955463Y-78855506D01*
X127896498Y-78965820D01*
X127860188Y-79085518D01*
X127847928Y-79210000D01*
X123991278Y-79210000D01*
X125071550Y-78129729D01*
X125105317Y-78102017D01*
X125215911Y-77967259D01*
X125298089Y-77813513D01*
X125348695Y-77646690D01*
X125361500Y-77516677D01*
X125361500Y-77516669D01*
X125365781Y-77473200D01*
X125361500Y-77429731D01*
X125361500Y-72390000D01*
X127844057Y-72390000D01*
X127871764Y-72671309D01*
X127953818Y-72941808D01*
X128087068Y-73191101D01*
X128266392Y-73409608D01*
X128484899Y-73588932D01*
X128734192Y-73722182D01*
X129004691Y-73804236D01*
X129215508Y-73825000D01*
X129356492Y-73825000D01*
X129567309Y-73804236D01*
X129837808Y-73722182D01*
X130087101Y-73588932D01*
X130305608Y-73409608D01*
X130484932Y-73191101D01*
X130618182Y-72941808D01*
X130700236Y-72671309D01*
X130727943Y-72390000D01*
X130700236Y-72108691D01*
X130618182Y-71838192D01*
X130484932Y-71588899D01*
X130305608Y-71370392D01*
X130171000Y-71259922D01*
X130171000Y-69206521D01*
X130200759Y-69186637D01*
X130400637Y-68986759D01*
X130557680Y-68751727D01*
X130665853Y-68490574D01*
X130721000Y-68213335D01*
X130721000Y-67930665D01*
X130665853Y-67653426D01*
X130557680Y-67392273D01*
X130400637Y-67157241D01*
X130200759Y-66957363D01*
X129965727Y-66800320D01*
X129704574Y-66692147D01*
X129427335Y-66637000D01*
X129144665Y-66637000D01*
X128867426Y-66692147D01*
X128606273Y-66800320D01*
X128371241Y-66957363D01*
X128171363Y-67157241D01*
X128014320Y-67392273D01*
X127906147Y-67653426D01*
X127851000Y-67930665D01*
X127851000Y-68213335D01*
X127906147Y-68490574D01*
X128014320Y-68751727D01*
X128171363Y-68986759D01*
X128371241Y-69186637D01*
X128401000Y-69206521D01*
X128401001Y-71259922D01*
X128266392Y-71370392D01*
X128087068Y-71588899D01*
X127953818Y-71838192D01*
X127871764Y-72108691D01*
X127844057Y-72390000D01*
X125361500Y-72390000D01*
X125361500Y-69217078D01*
X132723051Y-61855528D01*
X132756817Y-61827817D01*
X132804662Y-61769519D01*
X132867410Y-61693060D01*
X132867411Y-61693059D01*
X132949589Y-61539313D01*
X133000195Y-61372490D01*
X133013000Y-61242477D01*
X133013000Y-61242467D01*
X133017281Y-61199001D01*
X133013000Y-61155534D01*
X133013000Y-58084278D01*
X134361816Y-59433094D01*
X134183068Y-59650899D01*
X134049818Y-59900192D01*
X133967764Y-60170691D01*
X133940057Y-60452000D01*
X133967764Y-60733309D01*
X134049818Y-61003808D01*
X134183068Y-61253101D01*
X134362392Y-61471608D01*
X134580899Y-61650932D01*
X134830192Y-61784182D01*
X135100691Y-61866236D01*
X135311508Y-61887000D01*
X135452492Y-61887000D01*
X135663309Y-61866236D01*
X135933808Y-61784182D01*
X136183101Y-61650932D01*
X136401608Y-61471608D01*
X136580932Y-61253101D01*
X136714182Y-61003808D01*
X136796236Y-60733309D01*
X136823943Y-60452000D01*
X136796236Y-60170691D01*
X136714182Y-59900192D01*
X136580932Y-59650899D01*
X136401608Y-59432392D01*
X136267000Y-59321922D01*
X136267000Y-59245165D01*
X136271281Y-59201699D01*
X136267000Y-59158233D01*
X136267000Y-59158223D01*
X136254195Y-59028210D01*
X136203589Y-58861387D01*
X136121411Y-58707641D01*
X136081390Y-58658876D01*
X136038532Y-58606653D01*
X136038530Y-58606651D01*
X136010817Y-58572883D01*
X135977049Y-58545170D01*
X135000878Y-57569000D01*
X135039335Y-57569000D01*
X135316574Y-57513853D01*
X135577727Y-57405680D01*
X135812759Y-57248637D01*
X136012637Y-57048759D01*
X136169680Y-56813727D01*
X136229928Y-56668275D01*
X136229928Y-56934000D01*
X136242188Y-57058482D01*
X136278498Y-57178180D01*
X136337463Y-57288494D01*
X136416815Y-57385185D01*
X136513506Y-57464537D01*
X136623820Y-57523502D01*
X136743518Y-57559812D01*
X136868000Y-57572072D01*
X138468000Y-57572072D01*
X138592482Y-57559812D01*
X138712180Y-57523502D01*
X138822494Y-57464537D01*
X138919185Y-57385185D01*
X138998537Y-57288494D01*
X139057502Y-57178180D01*
X139093812Y-57058482D01*
X139106072Y-56934000D01*
X139106072Y-55334000D01*
X139093812Y-55209518D01*
X139057502Y-55089820D01*
X138998537Y-54979506D01*
X138919185Y-54882815D01*
X138822494Y-54803463D01*
X138712180Y-54744498D01*
X138592482Y-54708188D01*
X138468000Y-54695928D01*
X137210468Y-54695928D01*
X137397637Y-54508759D01*
X137554680Y-54273727D01*
X137662853Y-54012574D01*
X137718000Y-53735335D01*
X137718000Y-53452665D01*
X137662853Y-53175426D01*
X137554680Y-52914273D01*
X137397637Y-52679241D01*
X137197759Y-52479363D01*
X136962727Y-52322320D01*
X136701574Y-52214147D01*
X136424335Y-52159000D01*
X136141665Y-52159000D01*
X135864426Y-52214147D01*
X135603273Y-52322320D01*
X135368241Y-52479363D01*
X135168363Y-52679241D01*
X135011320Y-52914273D01*
X134903147Y-53175426D01*
X134898000Y-53201301D01*
X134892853Y-53175426D01*
X134784680Y-52914273D01*
X134627637Y-52679241D01*
X134427759Y-52479363D01*
X134192727Y-52322320D01*
X133931574Y-52214147D01*
X133654335Y-52159000D01*
X133371665Y-52159000D01*
X133094426Y-52214147D01*
X132833273Y-52322320D01*
X132598241Y-52479363D01*
X132398363Y-52679241D01*
X132241320Y-52914273D01*
X132133147Y-53175426D01*
X132128000Y-53201301D01*
X132122853Y-53175426D01*
X132014680Y-52914273D01*
X131857637Y-52679241D01*
X131657759Y-52479363D01*
X131422727Y-52322320D01*
X131161574Y-52214147D01*
X130884335Y-52159000D01*
X130601665Y-52159000D01*
X130324426Y-52214147D01*
X130063273Y-52322320D01*
X129828241Y-52479363D01*
X129628363Y-52679241D01*
X129471320Y-52914273D01*
X129439379Y-52991385D01*
X129433170Y-52998951D01*
X129324689Y-53107432D01*
X129244680Y-52914273D01*
X129087637Y-52679241D01*
X128887759Y-52479363D01*
X128652727Y-52322320D01*
X128391574Y-52214147D01*
X128114335Y-52159000D01*
X127831665Y-52159000D01*
X127554426Y-52214147D01*
X127293273Y-52322320D01*
X127058241Y-52479363D01*
X126858363Y-52679241D01*
X126701320Y-52914273D01*
X126593147Y-53175426D01*
X126538000Y-53452665D01*
X126538000Y-53735335D01*
X126593147Y-54012574D01*
X126701320Y-54273727D01*
X126858363Y-54508759D01*
X127058241Y-54708637D01*
X127293273Y-54865680D01*
X127486433Y-54945689D01*
X127376082Y-55056040D01*
X127329514Y-54897329D01*
X127074004Y-54776429D01*
X126799816Y-54707700D01*
X126517488Y-54693783D01*
X126237870Y-54735213D01*
X125971708Y-54830397D01*
X125846486Y-54897329D01*
X125774903Y-55141298D01*
X126588000Y-55954395D01*
X126602143Y-55940253D01*
X126781748Y-56119858D01*
X126767605Y-56134000D01*
X126781748Y-56148143D01*
X126602143Y-56327748D01*
X126588000Y-56313605D01*
X125774903Y-57126702D01*
X125846486Y-57370671D01*
X126101996Y-57491571D01*
X126376184Y-57560300D01*
X126658512Y-57574217D01*
X126938130Y-57532787D01*
X126953400Y-57527326D01*
X126953400Y-58248821D01*
X124264064Y-60938157D01*
X124206624Y-60833000D01*
X123063000Y-60833000D01*
X123063000Y-61975915D01*
X123168400Y-62033822D01*
X121090552Y-64111670D01*
X121056784Y-64139383D01*
X121029071Y-64173151D01*
X121029068Y-64173154D01*
X120946190Y-64274141D01*
X120864012Y-64427887D01*
X120813405Y-64594710D01*
X120796319Y-64768200D01*
X120800601Y-64811679D01*
X120800600Y-86800231D01*
X120796319Y-86843700D01*
X120800600Y-86887169D01*
X120800600Y-86887176D01*
X120813405Y-87017189D01*
X120864011Y-87184012D01*
X120946189Y-87337758D01*
X121056783Y-87472517D01*
X121090556Y-87500234D01*
X125715433Y-92125111D01*
X125681203Y-92153203D01*
X125493931Y-92381394D01*
X125354775Y-92641736D01*
X125269084Y-92924223D01*
X125240149Y-93218000D01*
X125269084Y-93511777D01*
X125354775Y-93794264D01*
X125493931Y-94054606D01*
X125681203Y-94282797D01*
X125909394Y-94470069D01*
X125949433Y-94491470D01*
X125735707Y-94651146D01*
X125539183Y-94869512D01*
X125389036Y-95122022D01*
X125291037Y-95398973D01*
X125411536Y-95631000D01*
X126619000Y-95631000D01*
X126619000Y-95611000D01*
X126873000Y-95611000D01*
X126873000Y-95631000D01*
X129159000Y-95631000D01*
X129159000Y-95611000D01*
X129413000Y-95611000D01*
X129413000Y-95631000D01*
X131699000Y-95631000D01*
X131699000Y-95611000D01*
X131953000Y-95611000D01*
X131953000Y-95631000D01*
X134239000Y-95631000D01*
X134239000Y-95611000D01*
X134493000Y-95611000D01*
X134493000Y-95631000D01*
X134513000Y-95631000D01*
X134513000Y-95885000D01*
X134493000Y-95885000D01*
X134493000Y-97091817D01*
X134725026Y-97212958D01*
X134875814Y-97167222D01*
X135140944Y-97040684D01*
X135376293Y-96864854D01*
X135572817Y-96646488D01*
X135630137Y-96550090D01*
X135653931Y-96594606D01*
X135841203Y-96822797D01*
X136069394Y-97010069D01*
X136329736Y-97149225D01*
X136612223Y-97234916D01*
X136832381Y-97256600D01*
X136979619Y-97256600D01*
X137199777Y-97234916D01*
X137482264Y-97149225D01*
X137742606Y-97010069D01*
X137970797Y-96822797D01*
X138043500Y-96734208D01*
X138043500Y-102920491D01*
X137916293Y-102779146D01*
X137680944Y-102603316D01*
X137415814Y-102476778D01*
X137265026Y-102431042D01*
X137033000Y-102552183D01*
X137033000Y-103759000D01*
X137053000Y-103759000D01*
X137053000Y-104013000D01*
X137033000Y-104013000D01*
X137033000Y-104033000D01*
X136779000Y-104033000D01*
X136779000Y-104013000D01*
X136759000Y-104013000D01*
X136759000Y-103759000D01*
X136779000Y-103759000D01*
X136779000Y-102552183D01*
X136546974Y-102431042D01*
X136396186Y-102476778D01*
X136131056Y-102603316D01*
X135895707Y-102779146D01*
X135699183Y-102997512D01*
X135641863Y-103093910D01*
X135618069Y-103049394D01*
X135430797Y-102821203D01*
X135202606Y-102633931D01*
X134942264Y-102494775D01*
X134659777Y-102409084D01*
X134439619Y-102387400D01*
X134292381Y-102387400D01*
X134072223Y-102409084D01*
X133789736Y-102494775D01*
X133529394Y-102633931D01*
X133301203Y-102821203D01*
X133113931Y-103049394D01*
X133096000Y-103082940D01*
X133078069Y-103049394D01*
X132890797Y-102821203D01*
X132662606Y-102633931D01*
X132402264Y-102494775D01*
X132119777Y-102409084D01*
X131899619Y-102387400D01*
X131752381Y-102387400D01*
X131532223Y-102409084D01*
X131249736Y-102494775D01*
X130989394Y-102633931D01*
X130761203Y-102821203D01*
X130733111Y-102855433D01*
X128628634Y-100750956D01*
X128600917Y-100717183D01*
X128466159Y-100606589D01*
X128312413Y-100524411D01*
X128145590Y-100473805D01*
X128015577Y-100461000D01*
X128015569Y-100461000D01*
X127972100Y-100456719D01*
X127928631Y-100461000D01*
X121530521Y-100461000D01*
X121510637Y-100431241D01*
X121310759Y-100231363D01*
X121075727Y-100074320D01*
X120814574Y-99966147D01*
X120537335Y-99911000D01*
X120254665Y-99911000D01*
X119977426Y-99966147D01*
X119716273Y-100074320D01*
X119481241Y-100231363D01*
X119281363Y-100431241D01*
X119124320Y-100666273D01*
X119016147Y-100927426D01*
X118961000Y-101204665D01*
X117246000Y-101204665D01*
X117246000Y-96117027D01*
X125291037Y-96117027D01*
X125389036Y-96393978D01*
X125539183Y-96646488D01*
X125735707Y-96864854D01*
X125971056Y-97040684D01*
X126236186Y-97167222D01*
X126386974Y-97212958D01*
X126619000Y-97091817D01*
X126619000Y-95885000D01*
X126873000Y-95885000D01*
X126873000Y-97091817D01*
X127105026Y-97212958D01*
X127255814Y-97167222D01*
X127520944Y-97040684D01*
X127756293Y-96864854D01*
X127952817Y-96646488D01*
X128016000Y-96540230D01*
X128079183Y-96646488D01*
X128275707Y-96864854D01*
X128511056Y-97040684D01*
X128776186Y-97167222D01*
X128926974Y-97212958D01*
X129159000Y-97091817D01*
X129159000Y-95885000D01*
X129413000Y-95885000D01*
X129413000Y-97091817D01*
X129645026Y-97212958D01*
X129795814Y-97167222D01*
X130060944Y-97040684D01*
X130296293Y-96864854D01*
X130492817Y-96646488D01*
X130556000Y-96540230D01*
X130619183Y-96646488D01*
X130815707Y-96864854D01*
X131051056Y-97040684D01*
X131316186Y-97167222D01*
X131466974Y-97212958D01*
X131699000Y-97091817D01*
X131699000Y-95885000D01*
X131953000Y-95885000D01*
X131953000Y-97091817D01*
X132185026Y-97212958D01*
X132335814Y-97167222D01*
X132600944Y-97040684D01*
X132836293Y-96864854D01*
X133032817Y-96646488D01*
X133096000Y-96540230D01*
X133159183Y-96646488D01*
X133355707Y-96864854D01*
X133591056Y-97040684D01*
X133856186Y-97167222D01*
X134006974Y-97212958D01*
X134239000Y-97091817D01*
X134239000Y-95885000D01*
X131953000Y-95885000D01*
X131699000Y-95885000D01*
X129413000Y-95885000D01*
X129159000Y-95885000D01*
X126873000Y-95885000D01*
X126619000Y-95885000D01*
X125411536Y-95885000D01*
X125291037Y-96117027D01*
X117246000Y-96117027D01*
X117246000Y-61055040D01*
X121544091Y-61055040D01*
X121638930Y-61319881D01*
X121783615Y-61561131D01*
X121972586Y-61769519D01*
X122198580Y-61937037D01*
X122452913Y-62057246D01*
X122586961Y-62097904D01*
X122809000Y-61975915D01*
X122809000Y-60833000D01*
X121665376Y-60833000D01*
X121544091Y-61055040D01*
X117246000Y-61055040D01*
X117246000Y-60356960D01*
X121544091Y-60356960D01*
X121665376Y-60579000D01*
X122809000Y-60579000D01*
X122809000Y-59436085D01*
X123063000Y-59436085D01*
X123063000Y-60579000D01*
X124206624Y-60579000D01*
X124327909Y-60356960D01*
X124233070Y-60092119D01*
X124088385Y-59850869D01*
X123899414Y-59642481D01*
X123673420Y-59474963D01*
X123419087Y-59354754D01*
X123285039Y-59314096D01*
X123063000Y-59436085D01*
X122809000Y-59436085D01*
X122586961Y-59314096D01*
X122452913Y-59354754D01*
X122198580Y-59474963D01*
X121972586Y-59642481D01*
X121783615Y-59850869D01*
X121638930Y-60092119D01*
X121544091Y-60356960D01*
X117246000Y-60356960D01*
X117246000Y-56204512D01*
X125147783Y-56204512D01*
X125189213Y-56484130D01*
X125284397Y-56750292D01*
X125351329Y-56875514D01*
X125595298Y-56947097D01*
X126408395Y-56134000D01*
X125595298Y-55320903D01*
X125351329Y-55392486D01*
X125230429Y-55647996D01*
X125161700Y-55922184D01*
X125147783Y-56204512D01*
X117246000Y-56204512D01*
X117246000Y-50525606D01*
X119111606Y-48660000D01*
X145556394Y-48660000D01*
X147422000Y-50525606D01*
G36*
X136254000Y-85625978D02*
G01*
X136270785Y-85796399D01*
X136271000Y-85797108D01*
X136271000Y-86562163D01*
X136449810Y-86687964D01*
X136511337Y-86679272D01*
X136720882Y-86586275D01*
X136779331Y-86545071D01*
X136967940Y-86645885D01*
X137186600Y-86712215D01*
X137414000Y-86734612D01*
X137641399Y-86712215D01*
X137806329Y-86662184D01*
X137811805Y-86717790D01*
X137862412Y-86884613D01*
X137944590Y-87038359D01*
X138027468Y-87139346D01*
X138027471Y-87139349D01*
X138043501Y-87158881D01*
X138043501Y-91780784D01*
X138013780Y-91764898D01*
X137894082Y-91728588D01*
X137769600Y-91716328D01*
X136042400Y-91716328D01*
X135917918Y-91728588D01*
X135798220Y-91764898D01*
X135687906Y-91823863D01*
X135591215Y-91903215D01*
X135511863Y-91999906D01*
X135452898Y-92110220D01*
X135437414Y-92161265D01*
X135430797Y-92153203D01*
X135202606Y-91965931D01*
X134942264Y-91826775D01*
X134659777Y-91741084D01*
X134439619Y-91719400D01*
X134292381Y-91719400D01*
X134072223Y-91741084D01*
X133789736Y-91826775D01*
X133529394Y-91965931D01*
X133301203Y-92153203D01*
X133113931Y-92381394D01*
X133096000Y-92414940D01*
X133078069Y-92381394D01*
X132890797Y-92153203D01*
X132662606Y-91965931D01*
X132402264Y-91826775D01*
X132119777Y-91741084D01*
X131899619Y-91719400D01*
X131752381Y-91719400D01*
X131532223Y-91741084D01*
X131249736Y-91826775D01*
X130989394Y-91965931D01*
X130761203Y-92153203D01*
X130573931Y-92381394D01*
X130556000Y-92414940D01*
X130538069Y-92381394D01*
X130350797Y-92153203D01*
X130171000Y-92005647D01*
X130171000Y-90172678D01*
X134984000Y-85359679D01*
X134984000Y-85471002D01*
X135137400Y-85471002D01*
X134977669Y-85654507D01*
X135016761Y-85880404D01*
X135099172Y-86094334D01*
X135221736Y-86288076D01*
X135379742Y-86454184D01*
X135567118Y-86586275D01*
X135776663Y-86679272D01*
X135838190Y-86687964D01*
X136017000Y-86562163D01*
X136017000Y-85471000D01*
X135997000Y-85471000D01*
X135997000Y-85217000D01*
X136017000Y-85217000D01*
X136017000Y-85197000D01*
X136254000Y-85197000D01*
X136254000Y-85625978D01*
X136254000Y-85625978D01*
G37*
X136254000Y-85625978D02*
X136270785Y-85796399D01*
X136271000Y-85797108D01*
X136271000Y-86562163D01*
X136449810Y-86687964D01*
X136511337Y-86679272D01*
X136720882Y-86586275D01*
X136779331Y-86545071D01*
X136967940Y-86645885D01*
X137186600Y-86712215D01*
X137414000Y-86734612D01*
X137641399Y-86712215D01*
X137806329Y-86662184D01*
X137811805Y-86717790D01*
X137862412Y-86884613D01*
X137944590Y-87038359D01*
X138027468Y-87139346D01*
X138027471Y-87139349D01*
X138043501Y-87158881D01*
X138043501Y-91780784D01*
X138013780Y-91764898D01*
X137894082Y-91728588D01*
X137769600Y-91716328D01*
X136042400Y-91716328D01*
X135917918Y-91728588D01*
X135798220Y-91764898D01*
X135687906Y-91823863D01*
X135591215Y-91903215D01*
X135511863Y-91999906D01*
X135452898Y-92110220D01*
X135437414Y-92161265D01*
X135430797Y-92153203D01*
X135202606Y-91965931D01*
X134942264Y-91826775D01*
X134659777Y-91741084D01*
X134439619Y-91719400D01*
X134292381Y-91719400D01*
X134072223Y-91741084D01*
X133789736Y-91826775D01*
X133529394Y-91965931D01*
X133301203Y-92153203D01*
X133113931Y-92381394D01*
X133096000Y-92414940D01*
X133078069Y-92381394D01*
X132890797Y-92153203D01*
X132662606Y-91965931D01*
X132402264Y-91826775D01*
X132119777Y-91741084D01*
X131899619Y-91719400D01*
X131752381Y-91719400D01*
X131532223Y-91741084D01*
X131249736Y-91826775D01*
X130989394Y-91965931D01*
X130761203Y-92153203D01*
X130573931Y-92381394D01*
X130556000Y-92414940D01*
X130538069Y-92381394D01*
X130350797Y-92153203D01*
X130171000Y-92005647D01*
X130171000Y-90172678D01*
X134984000Y-85359679D01*
X134984000Y-85471002D01*
X135137400Y-85471002D01*
X134977669Y-85654507D01*
X135016761Y-85880404D01*
X135099172Y-86094334D01*
X135221736Y-86288076D01*
X135379742Y-86454184D01*
X135567118Y-86586275D01*
X135776663Y-86679272D01*
X135838190Y-86687964D01*
X136017000Y-86562163D01*
X136017000Y-85471000D01*
X135997000Y-85471000D01*
X135997000Y-85217000D01*
X136017000Y-85217000D01*
X136017000Y-85197000D01*
X136254000Y-85197000D01*
X136254000Y-85625978D01*
M02*
