%TF.GenerationSoftware,KiCad,Pcbnew,5.1.4-3.fc30*%
%TF.CreationDate,2019-10-13T13:42:18+02:00*%
%TF.ProjectId,avr_prog_uno_shiled,6176725f-7072-46f6-975f-756e6f5f7368,1.0*%
%TF.SameCoordinates,PX69db1f0PY7882d48*%
%TF.FileFunction,Legend,Bot*%
%TF.FilePolarity,Positive*%
%FSLAX46Y46*%
G04 Gerber Fmt 4.6, Leading zero omitted, Abs format (unit mm)*
G04 Created by KiCad (PCBNEW 5.1.4-3.fc30) date 2019-10-13 13:42:18*
%MOMM*%
%LPD*%
G04 APERTURE LIST*
%ADD10C,0.120000*%
%ADD11C,0.150000*%
%ADD12O,1.727200X1.727200*%
%ADD13R,1.727200X1.727200*%
%ADD14O,1.700000X1.700000*%
%ADD15R,1.700000X1.700000*%
%ADD16C,1.600000*%
%ADD17R,1.600000X1.600000*%
%ADD18C,4.064000*%
%ADD19R,1.800000X1.800000*%
%ADD20C,1.800000*%
%ADD21O,1.600000X1.600000*%
G04 APERTURE END LIST*
D10*
%TO.C,P4*%
X44390000Y52130000D02*
X44390000Y50800000D01*
X45720000Y52130000D02*
X44390000Y52130000D01*
X46990000Y52130000D02*
X46990000Y49470000D01*
X46990000Y49470000D02*
X64830000Y49470000D01*
X46990000Y52130000D02*
X64830000Y52130000D01*
X64830000Y52130000D02*
X64830000Y49470000D01*
%TO.C,P3*%
X17466000Y52130000D02*
X17466000Y50800000D01*
X18796000Y52130000D02*
X17466000Y52130000D01*
X20066000Y52130000D02*
X20066000Y49470000D01*
X20066000Y49470000D02*
X42986000Y49470000D01*
X20066000Y52130000D02*
X42986000Y52130000D01*
X42986000Y52130000D02*
X42986000Y49470000D01*
%TO.C,P2*%
X49470000Y3870000D02*
X49470000Y2540000D01*
X50800000Y3870000D02*
X49470000Y3870000D01*
X52070000Y3870000D02*
X52070000Y1210000D01*
X52070000Y1210000D02*
X64830000Y1210000D01*
X52070000Y3870000D02*
X64830000Y3870000D01*
X64830000Y3870000D02*
X64830000Y1210000D01*
%TO.C,P1*%
X26610000Y3870000D02*
X26610000Y2540000D01*
X27940000Y3870000D02*
X26610000Y3870000D01*
X29210000Y3870000D02*
X29210000Y1210000D01*
X29210000Y1210000D02*
X47050000Y1210000D01*
X29210000Y3870000D02*
X47050000Y3870000D01*
X47050000Y3870000D02*
X47050000Y1210000D01*
%TO.C,P4*%
D11*
X43842380Y51538096D02*
X42842380Y51538096D01*
X42842380Y51157143D01*
X42890000Y51061905D01*
X42937619Y51014286D01*
X43032857Y50966667D01*
X43175714Y50966667D01*
X43270952Y51014286D01*
X43318571Y51061905D01*
X43366190Y51157143D01*
X43366190Y51538096D01*
X43175714Y50109524D02*
X43842380Y50109524D01*
X42794761Y50347620D02*
X43509047Y50585715D01*
X43509047Y49966667D01*
%TO.C,P3*%
X16918380Y51538096D02*
X15918380Y51538096D01*
X15918380Y51157143D01*
X15966000Y51061905D01*
X16013619Y51014286D01*
X16108857Y50966667D01*
X16251714Y50966667D01*
X16346952Y51014286D01*
X16394571Y51061905D01*
X16442190Y51157143D01*
X16442190Y51538096D01*
X15918380Y50633334D02*
X15918380Y50014286D01*
X16299333Y50347620D01*
X16299333Y50204762D01*
X16346952Y50109524D01*
X16394571Y50061905D01*
X16489809Y50014286D01*
X16727904Y50014286D01*
X16823142Y50061905D01*
X16870761Y50109524D01*
X16918380Y50204762D01*
X16918380Y50490477D01*
X16870761Y50585715D01*
X16823142Y50633334D01*
%TO.C,P2*%
X48922380Y3278096D02*
X47922380Y3278096D01*
X47922380Y2897143D01*
X47970000Y2801905D01*
X48017619Y2754286D01*
X48112857Y2706667D01*
X48255714Y2706667D01*
X48350952Y2754286D01*
X48398571Y2801905D01*
X48446190Y2897143D01*
X48446190Y3278096D01*
X48017619Y2325715D02*
X47970000Y2278096D01*
X47922380Y2182858D01*
X47922380Y1944762D01*
X47970000Y1849524D01*
X48017619Y1801905D01*
X48112857Y1754286D01*
X48208095Y1754286D01*
X48350952Y1801905D01*
X48922380Y2373334D01*
X48922380Y1754286D01*
%TO.C,P1*%
X26062380Y3278096D02*
X25062380Y3278096D01*
X25062380Y2897143D01*
X25110000Y2801905D01*
X25157619Y2754286D01*
X25252857Y2706667D01*
X25395714Y2706667D01*
X25490952Y2754286D01*
X25538571Y2801905D01*
X25586190Y2897143D01*
X25586190Y3278096D01*
X26062380Y1754286D02*
X26062380Y2325715D01*
X26062380Y2040000D02*
X25062380Y2040000D01*
X25205238Y2135239D01*
X25300476Y2230477D01*
X25348095Y2325715D01*
%TD*%
%LPC*%
D12*
%TO.C,J1*%
X21336000Y29464000D03*
X23876000Y29464000D03*
X21336000Y26924000D03*
X23876000Y26924000D03*
X21336000Y24384000D03*
X23876000Y24384000D03*
X21336000Y21844000D03*
X23876000Y21844000D03*
X21336000Y19304000D03*
D13*
X23876000Y19304000D03*
%TD*%
D14*
%TO.C,P4*%
X63500000Y50800000D03*
X60960000Y50800000D03*
X58420000Y50800000D03*
X55880000Y50800000D03*
X53340000Y50800000D03*
X50800000Y50800000D03*
X48260000Y50800000D03*
D15*
X45720000Y50800000D03*
%TD*%
D14*
%TO.C,P3*%
X41656000Y50800000D03*
X39116000Y50800000D03*
X36576000Y50800000D03*
X34036000Y50800000D03*
X31496000Y50800000D03*
X28956000Y50800000D03*
X26416000Y50800000D03*
X23876000Y50800000D03*
X21336000Y50800000D03*
D15*
X18796000Y50800000D03*
%TD*%
D14*
%TO.C,P2*%
X63500000Y2540000D03*
X60960000Y2540000D03*
X58420000Y2540000D03*
X55880000Y2540000D03*
X53340000Y2540000D03*
D15*
X50800000Y2540000D03*
%TD*%
D14*
%TO.C,P1*%
X45720000Y2540000D03*
X43180000Y2540000D03*
X40640000Y2540000D03*
X38100000Y2540000D03*
X35560000Y2540000D03*
X33020000Y2540000D03*
X30480000Y2540000D03*
D15*
X27940000Y2540000D03*
%TD*%
D16*
%TO.C,C1*%
X43688000Y9144000D03*
D17*
X41188000Y9144000D03*
%TD*%
D18*
%TO.C,P5*%
X13970000Y2540000D03*
%TD*%
%TO.C,P6*%
X66040000Y7620000D03*
%TD*%
%TO.C,P7*%
X15240000Y50800000D03*
%TD*%
%TO.C,P8*%
X66040000Y35560000D03*
%TD*%
D19*
%TO.C,D1*%
X56388000Y17018000D03*
D20*
X53848000Y17018000D03*
%TD*%
%TO.C,D2*%
X53848000Y28702000D03*
D19*
X56388000Y28702000D03*
%TD*%
%TO.C,D3*%
X56388000Y38862000D03*
D20*
X53848000Y38862000D03*
%TD*%
D16*
%TO.C,R1*%
X41402000Y17018000D03*
D21*
X49022000Y17018000D03*
%TD*%
%TO.C,R2*%
X48514000Y28702000D03*
D16*
X40894000Y28702000D03*
%TD*%
%TO.C,R3*%
X41148000Y38862000D03*
D21*
X48768000Y38862000D03*
%TD*%
M02*
