G04 #@! TF.GenerationSoftware,KiCad,Pcbnew,5.1.4-3.fc30*
G04 #@! TF.CreationDate,2019-09-14T16:13:18+02:00*
G04 #@! TF.ProjectId,avr_prog_uno_shiled,6176725f-7072-46f6-975f-756e6f5f7368,1.0*
G04 #@! TF.SameCoordinates,Original*
G04 #@! TF.FileFunction,Copper,L1,Top*
G04 #@! TF.FilePolarity,Positive*
%FSLAX46Y46*%
G04 Gerber Fmt 4.6, Leading zero omitted, Abs format (unit mm)*
G04 Created by KiCad (PCBNEW 5.1.4-3.fc30) date 2019-09-14 16:13:18*
%MOMM*%
%LPD*%
G04 APERTURE LIST*
%ADD10O,1.727200X1.727200*%
%ADD11R,1.727200X1.727200*%
%ADD12O,1.700000X1.700000*%
%ADD13R,1.700000X1.700000*%
%ADD14C,1.600000*%
%ADD15R,1.600000X1.600000*%
%ADD16C,4.064000*%
%ADD17R,1.800000X1.800000*%
%ADD18C,1.800000*%
%ADD19O,1.600000X1.600000*%
%ADD20C,0.600000*%
%ADD21C,0.500000*%
G04 APERTURE END LIST*
D10*
X132334000Y-96901000D03*
X134874000Y-96901000D03*
X132334000Y-99441000D03*
X134874000Y-99441000D03*
X132334000Y-101981000D03*
X134874000Y-101981000D03*
X132334000Y-104521000D03*
X134874000Y-104521000D03*
X132334000Y-107061000D03*
D11*
X134874000Y-107061000D03*
D12*
X174498000Y-75565000D03*
X171958000Y-75565000D03*
X169418000Y-75565000D03*
X166878000Y-75565000D03*
X164338000Y-75565000D03*
X161798000Y-75565000D03*
X159258000Y-75565000D03*
D13*
X156718000Y-75565000D03*
D12*
X152654000Y-75565000D03*
X150114000Y-75565000D03*
X147574000Y-75565000D03*
X145034000Y-75565000D03*
X142494000Y-75565000D03*
X139954000Y-75565000D03*
X137414000Y-75565000D03*
X134874000Y-75565000D03*
X132334000Y-75565000D03*
D13*
X129794000Y-75565000D03*
D12*
X174498000Y-123825000D03*
X171958000Y-123825000D03*
X169418000Y-123825000D03*
X166878000Y-123825000D03*
X164338000Y-123825000D03*
D13*
X161798000Y-123825000D03*
D12*
X156718000Y-123825000D03*
X154178000Y-123825000D03*
X151638000Y-123825000D03*
X149098000Y-123825000D03*
X146558000Y-123825000D03*
X144018000Y-123825000D03*
X141478000Y-123825000D03*
D13*
X138938000Y-123825000D03*
D14*
X154686000Y-117221000D03*
D15*
X152186000Y-117221000D03*
D16*
X124968000Y-123825000D03*
X177038000Y-118745000D03*
X126238000Y-75565000D03*
X177038000Y-90805000D03*
D17*
X167386000Y-109347000D03*
D18*
X164846000Y-109347000D03*
X164846000Y-97663000D03*
D17*
X167386000Y-97663000D03*
X167386000Y-87503000D03*
D18*
X164846000Y-87503000D03*
D14*
X152400000Y-109347000D03*
D19*
X160020000Y-109347000D03*
X159512000Y-97663000D03*
D14*
X151892000Y-97663000D03*
X152146000Y-87503000D03*
D19*
X159766000Y-87503000D03*
D20*
X137647100Y-96111800D03*
X139375100Y-95232700D03*
D21*
X151638000Y-123825000D02*
X140784200Y-112971200D01*
X140784200Y-112971200D02*
X136383400Y-112971200D01*
X136383400Y-112971200D02*
X131020000Y-107607800D01*
X131020000Y-107607800D02*
X131020000Y-105835000D01*
X131020000Y-105835000D02*
X132334000Y-104521000D01*
X151638000Y-123825000D02*
X154178000Y-123825000D01*
X137414000Y-75565000D02*
X137414000Y-76865300D01*
X137414000Y-76865300D02*
X132334000Y-81945300D01*
X132334000Y-81945300D02*
X132334000Y-96901000D01*
X167386000Y-109347000D02*
X159512000Y-117221000D01*
X159512000Y-117221000D02*
X154686000Y-117221000D01*
X134874000Y-99441000D02*
X137647100Y-96667900D01*
X137647100Y-96667900D02*
X137647100Y-96111800D01*
X142494000Y-75565000D02*
X142494000Y-87967100D01*
X142494000Y-87967100D02*
X134874000Y-95587100D01*
X134874000Y-96901000D02*
X134874000Y-95587100D01*
X160020000Y-109347000D02*
X164846000Y-109347000D01*
X159512000Y-97663000D02*
X164846000Y-97663000D01*
X159766000Y-87503000D02*
X164846000Y-87503000D01*
X145034000Y-75565000D02*
X145034000Y-96901000D01*
X145034000Y-96901000D02*
X134874000Y-107061000D01*
X139375100Y-95232700D02*
X139375100Y-97479900D01*
X139375100Y-97479900D02*
X134874000Y-101981000D01*
M02*
