%TF.GenerationSoftware,KiCad,Pcbnew,5.1.4-3.fc30*%
%TF.CreationDate,2019-10-13T13:42:18+02:00*%
%TF.ProjectId,avr_prog_uno_shiled,6176725f-7072-46f6-975f-756e6f5f7368,1.0*%
%TF.SameCoordinates,PX69db1f0PY7882d48*%
%TF.FileFunction,Other,Fab,Top*%
%FSLAX46Y46*%
G04 Gerber Fmt 4.6, Leading zero omitted, Abs format (unit mm)*
G04 Created by KiCad (PCBNEW 5.1.4-3.fc30) date 2019-10-13 13:42:18*
%MOMM*%
%LPD*%
G04 APERTURE LIST*
%ADD10C,0.100000*%
%ADD11C,0.150000*%
%ADD12C,0.200000*%
G04 APERTURE END LIST*
D10*
%TO.C,J1*%
X27031000Y34564000D02*
X26481000Y34004000D01*
X27031000Y14204000D02*
X26481000Y14744000D01*
X18181000Y34564000D02*
X18731000Y34004000D01*
X18181000Y14204000D02*
X18731000Y14744000D01*
X18731000Y34004000D02*
X26481000Y34004000D01*
X18181000Y34564000D02*
X27031000Y34564000D01*
X18731000Y14744000D02*
X26481000Y14744000D01*
X18181000Y14204000D02*
X27031000Y14204000D01*
X26481000Y26634000D02*
X27031000Y26634000D01*
X26481000Y22134000D02*
X27031000Y22134000D01*
X26481000Y26634000D02*
X26481000Y34004000D01*
X26481000Y14744000D02*
X26481000Y22134000D01*
X27031000Y14204000D02*
X27031000Y34564000D01*
X18731000Y14744000D02*
X18731000Y34004000D01*
X18181000Y14204000D02*
X18181000Y34564000D01*
%TO.C,C1*%
X40059028Y10832500D02*
X40059028Y10202500D01*
X39744028Y10517500D02*
X40374028Y10517500D01*
X45588000Y9144000D02*
G75*
G03X45588000Y9144000I-3150000J0D01*
G01*
%TO.C,D1*%
X57618016Y18487666D02*
G75*
G03X57618000Y15548306I-2500016J-1469666D01*
G01*
X57618000Y17018000D02*
G75*
G03X57618000Y17018000I-2500000J0D01*
G01*
X57618000Y15548306D02*
X57618000Y18487694D01*
%TO.C,D2*%
X57618000Y27232306D02*
X57618000Y30171694D01*
X57618000Y28702000D02*
G75*
G03X57618000Y28702000I-2500000J0D01*
G01*
X57618016Y30171666D02*
G75*
G03X57618000Y27232306I-2500016J-1469666D01*
G01*
%TO.C,D3*%
X57618016Y40331666D02*
G75*
G03X57618000Y37392306I-2500016J-1469666D01*
G01*
X57618000Y38862000D02*
G75*
G03X57618000Y38862000I-2500000J0D01*
G01*
X57618000Y37392306D02*
X57618000Y40331694D01*
%TO.C,R1*%
X42062000Y18268000D02*
X42062000Y15768000D01*
X42062000Y15768000D02*
X48362000Y15768000D01*
X48362000Y15768000D02*
X48362000Y18268000D01*
X48362000Y18268000D02*
X42062000Y18268000D01*
X41402000Y17018000D02*
X42062000Y17018000D01*
X49022000Y17018000D02*
X48362000Y17018000D01*
%TO.C,R2*%
X48514000Y28702000D02*
X47854000Y28702000D01*
X40894000Y28702000D02*
X41554000Y28702000D01*
X47854000Y29952000D02*
X41554000Y29952000D01*
X47854000Y27452000D02*
X47854000Y29952000D01*
X41554000Y27452000D02*
X47854000Y27452000D01*
X41554000Y29952000D02*
X41554000Y27452000D01*
%TO.C,R3*%
X41808000Y40112000D02*
X41808000Y37612000D01*
X41808000Y37612000D02*
X48108000Y37612000D01*
X48108000Y37612000D02*
X48108000Y40112000D01*
X48108000Y40112000D02*
X41808000Y40112000D01*
X41148000Y38862000D02*
X41808000Y38862000D01*
X48768000Y38862000D02*
X48108000Y38862000D01*
%TD*%
%TO.C,J1*%
D11*
X18034571Y35901334D02*
X18510761Y35901334D01*
X17939333Y35615620D02*
X18272666Y36615620D01*
X18606000Y35615620D01*
X18796476Y36615620D02*
X19129809Y35615620D01*
X19463142Y36615620D01*
X20367904Y35615620D02*
X20034571Y36091810D01*
X19796476Y35615620D02*
X19796476Y36615620D01*
X20177428Y36615620D01*
X20272666Y36568000D01*
X20320285Y36520381D01*
X20367904Y36425143D01*
X20367904Y36282286D01*
X20320285Y36187048D01*
X20272666Y36139429D01*
X20177428Y36091810D01*
X19796476Y36091810D01*
X20796476Y35996572D02*
X21558380Y35996572D01*
X22034571Y35615620D02*
X22034571Y36615620D01*
X22463142Y35663239D02*
X22606000Y35615620D01*
X22844095Y35615620D01*
X22939333Y35663239D01*
X22986952Y35710858D01*
X23034571Y35806096D01*
X23034571Y35901334D01*
X22986952Y35996572D01*
X22939333Y36044191D01*
X22844095Y36091810D01*
X22653619Y36139429D01*
X22558380Y36187048D01*
X22510761Y36234667D01*
X22463142Y36329905D01*
X22463142Y36425143D01*
X22510761Y36520381D01*
X22558380Y36568000D01*
X22653619Y36615620D01*
X22891714Y36615620D01*
X23034571Y36568000D01*
X23463142Y35615620D02*
X23463142Y36615620D01*
X23844095Y36615620D01*
X23939333Y36568000D01*
X23986952Y36520381D01*
X24034571Y36425143D01*
X24034571Y36282286D01*
X23986952Y36187048D01*
X23939333Y36139429D01*
X23844095Y36091810D01*
X23463142Y36091810D01*
X24463142Y35996572D02*
X25225047Y35996572D01*
X26225047Y35615620D02*
X25653619Y35615620D01*
X25939333Y35615620D02*
X25939333Y36615620D01*
X25844095Y36472762D01*
X25748857Y36377524D01*
X25653619Y36329905D01*
X26844095Y36615620D02*
X26939333Y36615620D01*
X27034571Y36568000D01*
X27082190Y36520381D01*
X27129809Y36425143D01*
X27177428Y36234667D01*
X27177428Y35996572D01*
X27129809Y35806096D01*
X27082190Y35710858D01*
X27034571Y35663239D01*
X26939333Y35615620D01*
X26844095Y35615620D01*
X26748857Y35663239D01*
X26701238Y35710858D01*
X26653619Y35806096D01*
X26606000Y35996572D01*
X26606000Y36234667D01*
X26653619Y36425143D01*
X26701238Y36520381D01*
X26748857Y36568000D01*
X26844095Y36615620D01*
X22272666Y24931620D02*
X22272666Y24217334D01*
X22225047Y24074477D01*
X22129809Y23979239D01*
X21986952Y23931620D01*
X21891714Y23931620D01*
X23272666Y23931620D02*
X22701238Y23931620D01*
X22986952Y23931620D02*
X22986952Y24931620D01*
X22891714Y24788762D01*
X22796476Y24693524D01*
X22701238Y24645905D01*
%TO.C,C1*%
X41795142Y4291620D02*
X41223714Y4291620D01*
X41509428Y4291620D02*
X41509428Y5291620D01*
X41414190Y5148762D01*
X41318952Y5053524D01*
X41223714Y5005905D01*
X42414190Y5291620D02*
X42509428Y5291620D01*
X42604666Y5244000D01*
X42652285Y5196381D01*
X42699904Y5101143D01*
X42747523Y4910667D01*
X42747523Y4672572D01*
X42699904Y4482096D01*
X42652285Y4386858D01*
X42604666Y4339239D01*
X42509428Y4291620D01*
X42414190Y4291620D01*
X42318952Y4339239D01*
X42271333Y4386858D01*
X42223714Y4482096D01*
X42176095Y4672572D01*
X42176095Y4910667D01*
X42223714Y5101143D01*
X42271333Y5196381D01*
X42318952Y5244000D01*
X42414190Y5291620D01*
X43604666Y4958286D02*
X43604666Y4291620D01*
X43176095Y4958286D02*
X43176095Y4434477D01*
X43223714Y4339239D01*
X43318952Y4291620D01*
X43461809Y4291620D01*
X43557047Y4339239D01*
X43604666Y4386858D01*
X42271333Y8786858D02*
X42223714Y8739239D01*
X42080857Y8691620D01*
X41985619Y8691620D01*
X41842761Y8739239D01*
X41747523Y8834477D01*
X41699904Y8929715D01*
X41652285Y9120191D01*
X41652285Y9263048D01*
X41699904Y9453524D01*
X41747523Y9548762D01*
X41842761Y9644000D01*
X41985619Y9691620D01*
X42080857Y9691620D01*
X42223714Y9644000D01*
X42271333Y9596381D01*
X43223714Y8691620D02*
X42652285Y8691620D01*
X42938000Y8691620D02*
X42938000Y9691620D01*
X42842761Y9548762D01*
X42747523Y9453524D01*
X42652285Y9405905D01*
%TO.C,D1*%
D12*
X55499904Y16427524D02*
X54699904Y16427524D01*
X54699904Y16618000D01*
X54738000Y16732286D01*
X54814190Y16808477D01*
X54890380Y16846572D01*
X55042761Y16884667D01*
X55157047Y16884667D01*
X55309428Y16846572D01*
X55385619Y16808477D01*
X55461809Y16732286D01*
X55499904Y16618000D01*
X55499904Y16427524D01*
X55499904Y17646572D02*
X55499904Y17189429D01*
X55499904Y17418000D02*
X54699904Y17418000D01*
X54814190Y17341810D01*
X54890380Y17265620D01*
X54928476Y17189429D01*
%TO.C,D2*%
X54547523Y28340096D02*
X54547523Y29140096D01*
X54738000Y29140096D01*
X54852285Y29102000D01*
X54928476Y29025810D01*
X54966571Y28949620D01*
X55004666Y28797239D01*
X55004666Y28682953D01*
X54966571Y28530572D01*
X54928476Y28454381D01*
X54852285Y28378191D01*
X54738000Y28340096D01*
X54547523Y28340096D01*
X55309428Y29063905D02*
X55347523Y29102000D01*
X55423714Y29140096D01*
X55614190Y29140096D01*
X55690380Y29102000D01*
X55728476Y29063905D01*
X55766571Y28987715D01*
X55766571Y28911524D01*
X55728476Y28797239D01*
X55271333Y28340096D01*
X55766571Y28340096D01*
%TO.C,D3*%
X54547523Y38500096D02*
X54547523Y39300096D01*
X54738000Y39300096D01*
X54852285Y39262000D01*
X54928476Y39185810D01*
X54966571Y39109620D01*
X55004666Y38957239D01*
X55004666Y38842953D01*
X54966571Y38690572D01*
X54928476Y38614381D01*
X54852285Y38538191D01*
X54738000Y38500096D01*
X54547523Y38500096D01*
X55271333Y39300096D02*
X55766571Y39300096D01*
X55499904Y38995334D01*
X55614190Y38995334D01*
X55690380Y38957239D01*
X55728476Y38919143D01*
X55766571Y38842953D01*
X55766571Y38652477D01*
X55728476Y38576286D01*
X55690380Y38538191D01*
X55614190Y38500096D01*
X55385619Y38500096D01*
X55309428Y38538191D01*
X55271333Y38576286D01*
%TO.C,R1*%
D11*
X45092952Y14195620D02*
X44521523Y14195620D01*
X44807238Y14195620D02*
X44807238Y15195620D01*
X44712000Y15052762D01*
X44616761Y14957524D01*
X44521523Y14909905D01*
X45521523Y14195620D02*
X45521523Y15195620D01*
X45616761Y14576572D02*
X45902476Y14195620D01*
X45902476Y14862286D02*
X45521523Y14481334D01*
X45045333Y16565620D02*
X44712000Y17041810D01*
X44473904Y16565620D02*
X44473904Y17565620D01*
X44854857Y17565620D01*
X44950095Y17518000D01*
X44997714Y17470381D01*
X45045333Y17375143D01*
X45045333Y17232286D01*
X44997714Y17137048D01*
X44950095Y17089429D01*
X44854857Y17041810D01*
X44473904Y17041810D01*
X45997714Y16565620D02*
X45426285Y16565620D01*
X45712000Y16565620D02*
X45712000Y17565620D01*
X45616761Y17422762D01*
X45521523Y17327524D01*
X45426285Y17279905D01*
%TO.C,R2*%
X44584952Y25879620D02*
X44013523Y25879620D01*
X44299238Y25879620D02*
X44299238Y26879620D01*
X44204000Y26736762D01*
X44108761Y26641524D01*
X44013523Y26593905D01*
X45013523Y25879620D02*
X45013523Y26879620D01*
X45108761Y26260572D02*
X45394476Y25879620D01*
X45394476Y26546286D02*
X45013523Y26165334D01*
X44537333Y28249620D02*
X44204000Y28725810D01*
X43965904Y28249620D02*
X43965904Y29249620D01*
X44346857Y29249620D01*
X44442095Y29202000D01*
X44489714Y29154381D01*
X44537333Y29059143D01*
X44537333Y28916286D01*
X44489714Y28821048D01*
X44442095Y28773429D01*
X44346857Y28725810D01*
X43965904Y28725810D01*
X44918285Y29154381D02*
X44965904Y29202000D01*
X45061142Y29249620D01*
X45299238Y29249620D01*
X45394476Y29202000D01*
X45442095Y29154381D01*
X45489714Y29059143D01*
X45489714Y28963905D01*
X45442095Y28821048D01*
X44870666Y28249620D01*
X45489714Y28249620D01*
%TO.C,R3*%
X44838952Y36039620D02*
X44267523Y36039620D01*
X44553238Y36039620D02*
X44553238Y37039620D01*
X44458000Y36896762D01*
X44362761Y36801524D01*
X44267523Y36753905D01*
X45267523Y36039620D02*
X45267523Y37039620D01*
X45362761Y36420572D02*
X45648476Y36039620D01*
X45648476Y36706286D02*
X45267523Y36325334D01*
X44791333Y38409620D02*
X44458000Y38885810D01*
X44219904Y38409620D02*
X44219904Y39409620D01*
X44600857Y39409620D01*
X44696095Y39362000D01*
X44743714Y39314381D01*
X44791333Y39219143D01*
X44791333Y39076286D01*
X44743714Y38981048D01*
X44696095Y38933429D01*
X44600857Y38885810D01*
X44219904Y38885810D01*
X45124666Y39409620D02*
X45743714Y39409620D01*
X45410380Y39028667D01*
X45553238Y39028667D01*
X45648476Y38981048D01*
X45696095Y38933429D01*
X45743714Y38838191D01*
X45743714Y38600096D01*
X45696095Y38504858D01*
X45648476Y38457239D01*
X45553238Y38409620D01*
X45267523Y38409620D01*
X45172285Y38457239D01*
X45124666Y38504858D01*
%TD*%
M02*
