%TF.GenerationSoftware,KiCad,Pcbnew,5.1.4-3.fc30*%
%TF.CreationDate,2019-10-13T13:42:18+02:00*%
%TF.ProjectId,avr_prog_uno_shiled,6176725f-7072-46f6-975f-756e6f5f7368,1.0*%
%TF.SameCoordinates,PX69db1f0PY7882d48*%
%TF.FileFunction,Copper,L1,Top*%
%TF.FilePolarity,Positive*%
%FSLAX46Y46*%
G04 Gerber Fmt 4.6, Leading zero omitted, Abs format (unit mm)*
G04 Created by KiCad (PCBNEW 5.1.4-3.fc30) date 2019-10-13 13:42:18*
%MOMM*%
%LPD*%
G04 APERTURE LIST*
%TA.AperFunction,ComponentPad*%
%ADD10O,1.727200X1.727200*%
%TD*%
%TA.AperFunction,ComponentPad*%
%ADD11R,1.727200X1.727200*%
%TD*%
%TA.AperFunction,ComponentPad*%
%ADD12O,1.700000X1.700000*%
%TD*%
%TA.AperFunction,ComponentPad*%
%ADD13R,1.700000X1.700000*%
%TD*%
%TA.AperFunction,ComponentPad*%
%ADD14C,1.600000*%
%TD*%
%TA.AperFunction,ComponentPad*%
%ADD15R,1.600000X1.600000*%
%TD*%
%TA.AperFunction,ComponentPad*%
%ADD16C,4.064000*%
%TD*%
%TA.AperFunction,ComponentPad*%
%ADD17R,1.800000X1.800000*%
%TD*%
%TA.AperFunction,ComponentPad*%
%ADD18C,1.800000*%
%TD*%
%TA.AperFunction,ComponentPad*%
%ADD19O,1.600000X1.600000*%
%TD*%
%TA.AperFunction,ViaPad*%
%ADD20C,0.600000*%
%TD*%
%TA.AperFunction,Conductor*%
%ADD21C,0.500000*%
%TD*%
G04 APERTURE END LIST*
D10*
%TO.P,J1,10*%
%TO.N,GND*%
X21336000Y29464000D03*
%TO.P,J1,9*%
%TO.N,/12(MISO)*%
X23876000Y29464000D03*
%TO.P,J1,8*%
%TO.N,GND*%
X21336000Y26924000D03*
%TO.P,J1,7*%
%TO.N,/13(SCK)*%
X23876000Y26924000D03*
%TO.P,J1,6*%
%TO.N,GND*%
X21336000Y24384000D03*
%TO.P,J1,5*%
%TO.N,/10(\002A\002ASS)*%
X23876000Y24384000D03*
%TO.P,J1,4*%
%TO.N,GND*%
X21336000Y21844000D03*
%TO.P,J1,3*%
%TO.N,Net-(J1-Pad3)*%
X23876000Y21844000D03*
%TO.P,J1,2*%
%TO.N,+5V*%
X21336000Y19304000D03*
D11*
%TO.P,J1,1*%
%TO.N,/11(\002A\002AMOSI)*%
X23876000Y19304000D03*
%TD*%
D12*
%TO.P,P4,8*%
%TO.N,/0(Rx)*%
X63500000Y50800000D03*
%TO.P,P4,7*%
%TO.N,/1(Tx)*%
X60960000Y50800000D03*
%TO.P,P4,6*%
%TO.N,/2*%
X58420000Y50800000D03*
%TO.P,P4,5*%
%TO.N,/3(\002A\002A)*%
X55880000Y50800000D03*
%TO.P,P4,4*%
%TO.N,/4*%
X53340000Y50800000D03*
%TO.P,P4,3*%
%TO.N,/5(\002A\002A)*%
X50800000Y50800000D03*
%TO.P,P4,2*%
%TO.N,/6(\002A\002A)*%
X48260000Y50800000D03*
D13*
%TO.P,P4,1*%
%TO.N,/7*%
X45720000Y50800000D03*
%TD*%
D12*
%TO.P,P3,10*%
%TO.N,/8*%
X41656000Y50800000D03*
%TO.P,P3,9*%
%TO.N,/9(\002A\002A)*%
X39116000Y50800000D03*
%TO.P,P3,8*%
%TO.N,/10(\002A\002ASS)*%
X36576000Y50800000D03*
%TO.P,P3,7*%
%TO.N,/11(\002A\002AMOSI)*%
X34036000Y50800000D03*
%TO.P,P3,6*%
%TO.N,/12(MISO)*%
X31496000Y50800000D03*
%TO.P,P3,5*%
%TO.N,/13(SCK)*%
X28956000Y50800000D03*
%TO.P,P3,4*%
%TO.N,GND*%
X26416000Y50800000D03*
%TO.P,P3,3*%
%TO.N,/AREF*%
X23876000Y50800000D03*
%TO.P,P3,2*%
%TO.N,/A4(SDA)*%
X21336000Y50800000D03*
D13*
%TO.P,P3,1*%
%TO.N,/A5(SCL)*%
X18796000Y50800000D03*
%TD*%
D12*
%TO.P,P2,6*%
%TO.N,/A5(SCL)*%
X63500000Y2540000D03*
%TO.P,P2,5*%
%TO.N,/A4(SDA)*%
X60960000Y2540000D03*
%TO.P,P2,4*%
%TO.N,/A3*%
X58420000Y2540000D03*
%TO.P,P2,3*%
%TO.N,/A2*%
X55880000Y2540000D03*
%TO.P,P2,2*%
%TO.N,/A1*%
X53340000Y2540000D03*
D13*
%TO.P,P2,1*%
%TO.N,/A0*%
X50800000Y2540000D03*
%TD*%
D12*
%TO.P,P1,8*%
%TO.N,/Vin*%
X45720000Y2540000D03*
%TO.P,P1,7*%
%TO.N,GND*%
X43180000Y2540000D03*
%TO.P,P1,6*%
X40640000Y2540000D03*
%TO.P,P1,5*%
%TO.N,+5V*%
X38100000Y2540000D03*
%TO.P,P1,4*%
%TO.N,+3V3*%
X35560000Y2540000D03*
%TO.P,P1,3*%
%TO.N,/Reset*%
X33020000Y2540000D03*
%TO.P,P1,2*%
%TO.N,/IOREF*%
X30480000Y2540000D03*
D13*
%TO.P,P1,1*%
%TO.N,Net-(P1-Pad1)*%
X27940000Y2540000D03*
%TD*%
D14*
%TO.P,C1,2*%
%TO.N,GND*%
X43688000Y9144000D03*
D15*
%TO.P,C1,1*%
%TO.N,/Reset*%
X41188000Y9144000D03*
%TD*%
D16*
%TO.P,P5,1*%
%TO.N,Net-(P5-Pad1)*%
X13970000Y2540000D03*
%TD*%
%TO.P,P6,1*%
%TO.N,Net-(P6-Pad1)*%
X66040000Y7620000D03*
%TD*%
%TO.P,P7,1*%
%TO.N,Net-(P7-Pad1)*%
X15240000Y50800000D03*
%TD*%
%TO.P,P8,1*%
%TO.N,Net-(P8-Pad1)*%
X66040000Y35560000D03*
%TD*%
D17*
%TO.P,D1,1*%
%TO.N,GND*%
X56388000Y17018000D03*
D18*
%TO.P,D1,2*%
%TO.N,Net-(D1-Pad2)*%
X53848000Y17018000D03*
%TD*%
%TO.P,D2,2*%
%TO.N,Net-(D2-Pad2)*%
X53848000Y28702000D03*
D17*
%TO.P,D2,1*%
%TO.N,GND*%
X56388000Y28702000D03*
%TD*%
%TO.P,D3,1*%
%TO.N,GND*%
X56388000Y38862000D03*
D18*
%TO.P,D3,2*%
%TO.N,Net-(D3-Pad2)*%
X53848000Y38862000D03*
%TD*%
D14*
%TO.P,R1,1*%
%TO.N,/9(\002A\002A)*%
X41402000Y17018000D03*
D19*
%TO.P,R1,2*%
%TO.N,Net-(D1-Pad2)*%
X49022000Y17018000D03*
%TD*%
%TO.P,R2,2*%
%TO.N,Net-(D2-Pad2)*%
X48514000Y28702000D03*
D14*
%TO.P,R2,1*%
%TO.N,/8*%
X40894000Y28702000D03*
%TD*%
%TO.P,R3,1*%
%TO.N,/7*%
X41148000Y38862000D03*
D19*
%TO.P,R3,2*%
%TO.N,Net-(D3-Pad2)*%
X48768000Y38862000D03*
%TD*%
D20*
%TO.N,/13(SCK)*%
X26649100Y30253200D03*
%TO.N,/10(\002A\002ASS)*%
X28377100Y31132300D03*
%TD*%
D21*
%TO.N,GND*%
X40640000Y2540000D02*
X29786200Y13393800D01*
X29786200Y13393800D02*
X25385400Y13393800D01*
X25385400Y13393800D02*
X20022000Y18757200D01*
X20022000Y18757200D02*
X20022000Y20530000D01*
X20022000Y20530000D02*
X21336000Y21844000D01*
X40640000Y2540000D02*
X43180000Y2540000D01*
X26416000Y50800000D02*
X26416000Y49499700D01*
X26416000Y49499700D02*
X21336000Y44419700D01*
X21336000Y44419700D02*
X21336000Y29464000D01*
X56388000Y17018000D02*
X48514000Y9144000D01*
X48514000Y9144000D02*
X43688000Y9144000D01*
%TO.N,/13(SCK)*%
X23876000Y26924000D02*
X26649100Y29697100D01*
X26649100Y29697100D02*
X26649100Y30253200D01*
%TO.N,/12(MISO)*%
X31496000Y50800000D02*
X31496000Y38397900D01*
X31496000Y38397900D02*
X23876000Y30777900D01*
X23876000Y29464000D02*
X23876000Y30777900D01*
%TO.N,Net-(D1-Pad2)*%
X49022000Y17018000D02*
X53848000Y17018000D01*
%TO.N,Net-(D2-Pad2)*%
X48514000Y28702000D02*
X53848000Y28702000D01*
%TO.N,Net-(D3-Pad2)*%
X48768000Y38862000D02*
X53848000Y38862000D01*
%TO.N,/11(\002A\002AMOSI)*%
X34036000Y50800000D02*
X34036000Y29464000D01*
X34036000Y29464000D02*
X23876000Y19304000D01*
%TO.N,/10(\002A\002ASS)*%
X28377100Y31132300D02*
X28377100Y28885100D01*
X28377100Y28885100D02*
X23876000Y24384000D01*
%TD*%
M02*
