M48
; DRILL file {KiCad 5.1.4-3.fc30} date sob, 14 wrz 2019, 16:13:21
; FORMAT={-:-/ absolute / inch / decimal}
; #@! TF.CreationDate,2019-09-14T16:13:21+02:00
; #@! TF.GenerationSoftware,Kicad,Pcbnew,5.1.4-3.fc30
; #@! TF.FileFunction,Plated,1,2,PTH
FMAT,2
INCH
T1C0.0157
T2C0.0315
T3C0.0354
T4C0.0394
T5C0.0400
T6C0.1200
%
G90
G05
T1
X5.4192Y-3.7839
X5.4872Y-3.7493
T2
X6.0Y-4.305
X6.3Y-4.305
X5.98Y-3.845
X6.28Y-3.845
X5.99Y-3.445
X6.29Y-3.445
X5.9916Y-4.615
X6.09Y-4.615
T3
X6.49Y-3.845
X6.59Y-3.845
X6.49Y-3.445
X6.59Y-3.445
X6.49Y-4.305
X6.59Y-4.305
T4
X6.17Y-2.975
X6.27Y-2.975
X6.37Y-2.975
X6.47Y-2.975
X6.57Y-2.975
X6.67Y-2.975
X6.77Y-2.975
X6.87Y-2.975
X6.37Y-4.875
X6.47Y-4.875
X6.57Y-4.875
X6.67Y-4.875
X6.77Y-4.875
X6.87Y-4.875
X5.11Y-2.975
X5.21Y-2.975
X5.31Y-2.975
X5.41Y-2.975
X5.51Y-2.975
X5.61Y-2.975
X5.71Y-2.975
X5.81Y-2.975
X5.91Y-2.975
X6.01Y-2.975
X5.47Y-4.875
X5.57Y-4.875
X5.67Y-4.875
X5.77Y-4.875
X5.87Y-4.875
X5.97Y-4.875
X6.07Y-4.875
X6.17Y-4.875
T5
X5.21Y-3.815
X5.21Y-3.915
X5.21Y-4.015
X5.21Y-4.115
X5.21Y-4.215
X5.31Y-3.815
X5.31Y-3.915
X5.31Y-4.015
X5.31Y-4.115
X5.31Y-4.215
T6
X4.97Y-2.975
X6.97Y-3.575
X6.97Y-4.675
X4.92Y-4.875
T0
M30
