G04 #@! TF.GenerationSoftware,KiCad,Pcbnew,5.1.4-3.fc30*
G04 #@! TF.CreationDate,2019-09-14T16:13:18+02:00*
G04 #@! TF.ProjectId,avr_prog_uno_shiled,6176725f-7072-46f6-975f-756e6f5f7368,1.0*
G04 #@! TF.SameCoordinates,Original*
G04 #@! TF.FileFunction,Legend,Bot*
G04 #@! TF.FilePolarity,Positive*
%FSLAX46Y46*%
G04 Gerber Fmt 4.6, Leading zero omitted, Abs format (unit mm)*
G04 Created by KiCad (PCBNEW 5.1.4-3.fc30) date 2019-09-14 16:13:18*
%MOMM*%
%LPD*%
G04 APERTURE LIST*
%ADD10C,0.120000*%
%ADD11C,0.150000*%
G04 APERTURE END LIST*
D10*
X155388000Y-74235000D02*
X155388000Y-75565000D01*
X156718000Y-74235000D02*
X155388000Y-74235000D01*
X157988000Y-74235000D02*
X157988000Y-76895000D01*
X157988000Y-76895000D02*
X175828000Y-76895000D01*
X157988000Y-74235000D02*
X175828000Y-74235000D01*
X175828000Y-74235000D02*
X175828000Y-76895000D01*
X128464000Y-74235000D02*
X128464000Y-75565000D01*
X129794000Y-74235000D02*
X128464000Y-74235000D01*
X131064000Y-74235000D02*
X131064000Y-76895000D01*
X131064000Y-76895000D02*
X153984000Y-76895000D01*
X131064000Y-74235000D02*
X153984000Y-74235000D01*
X153984000Y-74235000D02*
X153984000Y-76895000D01*
X160468000Y-122495000D02*
X160468000Y-123825000D01*
X161798000Y-122495000D02*
X160468000Y-122495000D01*
X163068000Y-122495000D02*
X163068000Y-125155000D01*
X163068000Y-125155000D02*
X175828000Y-125155000D01*
X163068000Y-122495000D02*
X175828000Y-122495000D01*
X175828000Y-122495000D02*
X175828000Y-125155000D01*
X137608000Y-122495000D02*
X137608000Y-123825000D01*
X138938000Y-122495000D02*
X137608000Y-122495000D01*
X140208000Y-122495000D02*
X140208000Y-125155000D01*
X140208000Y-125155000D02*
X158048000Y-125155000D01*
X140208000Y-122495000D02*
X158048000Y-122495000D01*
X158048000Y-122495000D02*
X158048000Y-125155000D01*
D11*
X154840380Y-74826904D02*
X153840380Y-74826904D01*
X153840380Y-75207857D01*
X153888000Y-75303095D01*
X153935619Y-75350714D01*
X154030857Y-75398333D01*
X154173714Y-75398333D01*
X154268952Y-75350714D01*
X154316571Y-75303095D01*
X154364190Y-75207857D01*
X154364190Y-74826904D01*
X154173714Y-76255476D02*
X154840380Y-76255476D01*
X153792761Y-76017380D02*
X154507047Y-75779285D01*
X154507047Y-76398333D01*
X127916380Y-74826904D02*
X126916380Y-74826904D01*
X126916380Y-75207857D01*
X126964000Y-75303095D01*
X127011619Y-75350714D01*
X127106857Y-75398333D01*
X127249714Y-75398333D01*
X127344952Y-75350714D01*
X127392571Y-75303095D01*
X127440190Y-75207857D01*
X127440190Y-74826904D01*
X126916380Y-75731666D02*
X126916380Y-76350714D01*
X127297333Y-76017380D01*
X127297333Y-76160238D01*
X127344952Y-76255476D01*
X127392571Y-76303095D01*
X127487809Y-76350714D01*
X127725904Y-76350714D01*
X127821142Y-76303095D01*
X127868761Y-76255476D01*
X127916380Y-76160238D01*
X127916380Y-75874523D01*
X127868761Y-75779285D01*
X127821142Y-75731666D01*
X159920380Y-123086904D02*
X158920380Y-123086904D01*
X158920380Y-123467857D01*
X158968000Y-123563095D01*
X159015619Y-123610714D01*
X159110857Y-123658333D01*
X159253714Y-123658333D01*
X159348952Y-123610714D01*
X159396571Y-123563095D01*
X159444190Y-123467857D01*
X159444190Y-123086904D01*
X159015619Y-124039285D02*
X158968000Y-124086904D01*
X158920380Y-124182142D01*
X158920380Y-124420238D01*
X158968000Y-124515476D01*
X159015619Y-124563095D01*
X159110857Y-124610714D01*
X159206095Y-124610714D01*
X159348952Y-124563095D01*
X159920380Y-123991666D01*
X159920380Y-124610714D01*
X137060380Y-123086904D02*
X136060380Y-123086904D01*
X136060380Y-123467857D01*
X136108000Y-123563095D01*
X136155619Y-123610714D01*
X136250857Y-123658333D01*
X136393714Y-123658333D01*
X136488952Y-123610714D01*
X136536571Y-123563095D01*
X136584190Y-123467857D01*
X136584190Y-123086904D01*
X137060380Y-124610714D02*
X137060380Y-124039285D01*
X137060380Y-124325000D02*
X136060380Y-124325000D01*
X136203238Y-124229761D01*
X136298476Y-124134523D01*
X136346095Y-124039285D01*
M02*
