G04 #@! TF.GenerationSoftware,KiCad,Pcbnew,5.1.4-3.fc30*
G04 #@! TF.CreationDate,2019-09-20T15:21:54+02:00*
G04 #@! TF.ProjectId,dasa-3,64617361-2d33-42e6-9b69-6361645f7063,0.5*
G04 #@! TF.SameCoordinates,Original*
G04 #@! TF.FileFunction,Copper,L1,Top*
G04 #@! TF.FilePolarity,Positive*
%FSLAX46Y46*%
G04 Gerber Fmt 4.6, Leading zero omitted, Abs format (unit mm)*
G04 Created by KiCad (PCBNEW 5.1.4-3.fc30) date 2019-09-20 15:21:54*
%MOMM*%
%LPD*%
G04 APERTURE LIST*
%ADD10C,1.600000*%
%ADD11R,1.600000X1.600000*%
%ADD12O,1.600000X1.600000*%
%ADD13R,1.727200X1.727200*%
%ADD14O,1.727200X1.727200*%
%ADD15O,1.050000X1.500000*%
%ADD16R,1.050000X1.500000*%
%ADD17C,0.500000*%
G04 APERTURE END LIST*
D10*
X127973000Y-53594000D03*
X130743000Y-53594000D03*
X133513000Y-53594000D03*
X136283000Y-53594000D03*
X126588000Y-56134000D03*
X129358000Y-56134000D03*
X132128000Y-56134000D03*
X134898000Y-56134000D03*
D11*
X137668000Y-56134000D03*
D12*
X122936000Y-60706000D03*
D11*
X122936000Y-68326000D03*
X135382000Y-80010000D03*
D12*
X135382000Y-72390000D03*
D11*
X129286000Y-80010000D03*
D12*
X129286000Y-72390000D03*
D13*
X136906000Y-93218000D03*
D14*
X136906000Y-95758000D03*
X134366000Y-93218000D03*
X134366000Y-95758000D03*
X131826000Y-93218000D03*
X131826000Y-95758000D03*
X129286000Y-93218000D03*
X129286000Y-95758000D03*
X126746000Y-93218000D03*
X126746000Y-95758000D03*
D13*
X131826000Y-106426000D03*
D14*
X131826000Y-103886000D03*
X134366000Y-106426000D03*
X134366000Y-103886000D03*
X136906000Y-106426000D03*
X136906000Y-103886000D03*
D15*
X137414000Y-85344000D03*
X136144000Y-85344000D03*
D16*
X138684000Y-85344000D03*
D10*
X122936000Y-72644000D03*
D12*
X122936000Y-80264000D03*
X135382000Y-60452000D03*
D10*
X135382000Y-68072000D03*
D12*
X129286000Y-60452000D03*
D10*
X129286000Y-68072000D03*
X130556000Y-84836000D03*
D12*
X122936000Y-84836000D03*
D10*
X120396000Y-101346000D03*
D12*
X120396000Y-108966000D03*
D17*
X135382000Y-72390000D02*
X135382000Y-73640300D01*
X136144000Y-85344000D02*
X136144000Y-84143700D01*
X136144000Y-84143700D02*
X136696800Y-83590900D01*
X136696800Y-83590900D02*
X136696800Y-74955100D01*
X136696800Y-74955100D02*
X135382000Y-73640300D01*
X135913800Y-98619700D02*
X138219900Y-96313600D01*
X138219900Y-96313600D02*
X138219900Y-89239600D01*
X138219900Y-89239600D02*
X136144000Y-87163700D01*
X136144000Y-87163700D02*
X136144000Y-85344000D01*
X135913800Y-98619700D02*
X134366000Y-97071900D01*
X136906000Y-102747200D02*
X136906000Y-99611900D01*
X136906000Y-99611900D02*
X135913800Y-98619700D01*
X134366000Y-95758000D02*
X134366000Y-97071900D01*
X136906000Y-103886000D02*
X136906000Y-102747200D01*
X122936000Y-72644000D02*
X122936000Y-68326000D01*
X135382000Y-80010000D02*
X135382000Y-78759700D01*
X135382000Y-78759700D02*
X134131700Y-77509400D01*
X134131700Y-77509400D02*
X134131700Y-69322300D01*
X134131700Y-69322300D02*
X135382000Y-68072000D01*
X129286000Y-93218000D02*
X129286000Y-89806100D01*
X129286000Y-89806100D02*
X135382000Y-83710100D01*
X135382000Y-83710100D02*
X135382000Y-80010000D01*
X129286000Y-68072000D02*
X129286000Y-72390000D01*
X122936000Y-79013700D02*
X124476500Y-77473200D01*
X124476500Y-77473200D02*
X124476500Y-68850500D01*
X124476500Y-68850500D02*
X132128000Y-61199000D01*
X132128000Y-61199000D02*
X132128000Y-56134000D01*
X122936000Y-80264000D02*
X122936000Y-79013700D01*
X129286000Y-60452000D02*
X129286000Y-59201700D01*
X129286000Y-59201700D02*
X129358000Y-59129700D01*
X129358000Y-59129700D02*
X129358000Y-56134000D01*
X135382000Y-60452000D02*
X135382000Y-59201700D01*
X135382000Y-59201700D02*
X133513000Y-57332700D01*
X133513000Y-57332700D02*
X133513000Y-53594000D01*
X126746000Y-93218000D02*
X126746000Y-91904100D01*
X126746000Y-91904100D02*
X121685600Y-86843700D01*
X121685600Y-86843700D02*
X121685600Y-64768200D01*
X121685600Y-64768200D02*
X127838400Y-58615400D01*
X127838400Y-58615400D02*
X127838400Y-55845300D01*
X127838400Y-55845300D02*
X130089700Y-53594000D01*
X130089700Y-53594000D02*
X130743000Y-53594000D01*
X131826000Y-103886000D02*
X130512100Y-103886000D01*
X120396000Y-101346000D02*
X127972100Y-101346000D01*
X127972100Y-101346000D02*
X130512100Y-103886000D01*
X138684000Y-85344000D02*
X138684000Y-86544300D01*
X136906000Y-106426000D02*
X138928500Y-104403500D01*
X138928500Y-104403500D02*
X138928500Y-86788800D01*
X138928500Y-86788800D02*
X138684000Y-86544300D01*
M02*
