G04 #@! TF.GenerationSoftware,KiCad,Pcbnew,5.1.4-3.fc30*
G04 #@! TF.CreationDate,2019-10-13T14:01:56+02:00*
G04 #@! TF.ProjectId,dasa-3,64617361-2d33-42e6-9b69-6361645f7063,1.0*
G04 #@! TF.SameCoordinates,PX6f2f610PY6a57250*
G04 #@! TF.FileFunction,Other,Fab,Top*
%FSLAX46Y46*%
G04 Gerber Fmt 4.6, Leading zero omitted, Abs format (unit mm)*
G04 Created by KiCad (PCBNEW 5.1.4-3.fc30) date 2019-10-13 14:01:56*
%MOMM*%
%LPD*%
G04 APERTURE LIST*
%ADD10C,0.100000*%
%ADD11C,0.150000*%
%ADD12C,0.120000*%
G04 APERTURE END LIST*
D10*
X7392000Y67712000D02*
X23692000Y67712000D01*
X7392000Y73712000D02*
X7392000Y67712000D01*
X23692000Y73712000D02*
X7392000Y73712000D01*
X23692000Y67712000D02*
X23692000Y73712000D01*
X117000Y67312000D02*
X30967000Y67312000D01*
X117000Y67712000D02*
X117000Y67312000D01*
X30967000Y67712000D02*
X117000Y67712000D01*
X30967000Y67312000D02*
X30967000Y67712000D01*
X6992000Y63212000D02*
X24092000Y63212000D01*
X6992000Y67312000D02*
X6992000Y63212000D01*
X24092000Y67312000D02*
X6992000Y67312000D01*
X24092000Y63212000D02*
X24092000Y67312000D01*
X11287000Y57912000D02*
X11287000Y63212000D01*
X11387000Y57912000D02*
X11387000Y63212000D01*
X11487000Y57912000D02*
X11487000Y63212000D01*
X14057000Y57912000D02*
X14057000Y63212000D01*
X14157000Y57912000D02*
X14157000Y63212000D01*
X14257000Y57912000D02*
X14257000Y63212000D01*
X16827000Y57912000D02*
X16827000Y63212000D01*
X16927000Y57912000D02*
X16927000Y63212000D01*
X17027000Y57912000D02*
X17027000Y63212000D01*
X19597000Y57912000D02*
X19597000Y63212000D01*
X19697000Y57912000D02*
X19697000Y63212000D01*
X19797000Y57912000D02*
X19797000Y63212000D01*
X9902000Y55372000D02*
X9902000Y63212000D01*
X10002000Y55372000D02*
X10002000Y63212000D01*
X10102000Y55372000D02*
X10102000Y63212000D01*
X12672000Y55372000D02*
X12672000Y63212000D01*
X12772000Y55372000D02*
X12772000Y63212000D01*
X12872000Y55372000D02*
X12872000Y63212000D01*
X15442000Y55372000D02*
X15442000Y63212000D01*
X15542000Y55372000D02*
X15542000Y63212000D01*
X15642000Y55372000D02*
X15642000Y63212000D01*
X18212000Y55372000D02*
X18212000Y63212000D01*
X18312000Y55372000D02*
X18312000Y63212000D01*
X18412000Y55372000D02*
X18412000Y63212000D01*
X20982000Y55372000D02*
X20982000Y63212000D01*
X21082000Y55372000D02*
X21082000Y63212000D01*
X21182000Y55372000D02*
X21182000Y63212000D01*
X5350000Y45490000D02*
X7350000Y45490000D01*
X5350000Y45690000D02*
X7350000Y45690000D01*
X5350000Y45590000D02*
X7350000Y45590000D01*
X6350000Y50800000D02*
X6350000Y48990000D01*
X6350000Y43180000D02*
X6350000Y44990000D01*
X5350000Y48990000D02*
X5350000Y44990000D01*
X7350000Y48990000D02*
X5350000Y48990000D01*
X7350000Y44990000D02*
X7350000Y48990000D01*
X5350000Y44990000D02*
X7350000Y44990000D01*
X17796000Y33306000D02*
X19796000Y33306000D01*
X19796000Y33306000D02*
X19796000Y37306000D01*
X19796000Y37306000D02*
X17796000Y37306000D01*
X17796000Y37306000D02*
X17796000Y33306000D01*
X18796000Y31496000D02*
X18796000Y33306000D01*
X18796000Y39116000D02*
X18796000Y37306000D01*
X17796000Y33906000D02*
X19796000Y33906000D01*
X17796000Y34006000D02*
X19796000Y34006000D01*
X17796000Y33806000D02*
X19796000Y33806000D01*
X11700000Y33306000D02*
X13700000Y33306000D01*
X13700000Y33306000D02*
X13700000Y37306000D01*
X13700000Y37306000D02*
X11700000Y37306000D01*
X11700000Y37306000D02*
X11700000Y33306000D01*
X12700000Y31496000D02*
X12700000Y33306000D01*
X12700000Y39116000D02*
X12700000Y37306000D01*
X11700000Y33906000D02*
X13700000Y33906000D01*
X11700000Y34006000D02*
X13700000Y34006000D01*
X11700000Y33806000D02*
X13700000Y33806000D01*
X25420000Y12593000D02*
X5060000Y12593000D01*
X24880000Y13143000D02*
X5620000Y13143000D01*
X25420000Y21443000D02*
X5060000Y21443000D01*
X24880000Y20893000D02*
X17490000Y20893000D01*
X12990000Y20893000D02*
X5620000Y20893000D01*
X17490000Y20893000D02*
X17490000Y21443000D01*
X12990000Y20893000D02*
X12990000Y21443000D01*
X25420000Y12593000D02*
X25420000Y21443000D01*
X24880000Y13143000D02*
X24880000Y20893000D01*
X5060000Y12593000D02*
X5060000Y21443000D01*
X5620000Y13143000D02*
X5620000Y20893000D01*
X25420000Y12593000D02*
X24880000Y13143000D01*
X5060000Y12593000D02*
X5620000Y13143000D01*
X25420000Y21443000D02*
X24880000Y20893000D01*
X5060000Y21443000D02*
X5620000Y20893000D01*
X10140000Y10775000D02*
X25420000Y10775000D01*
X10680000Y10225000D02*
X24860000Y10225000D01*
X10140000Y1925000D02*
X25420000Y1925000D01*
X10680000Y2475000D02*
X15530000Y2475000D01*
X20030000Y2475000D02*
X24860000Y2475000D01*
X15530000Y2475000D02*
X15530000Y1925000D01*
X20030000Y2475000D02*
X20030000Y1925000D01*
X10140000Y10775000D02*
X10140000Y1925000D01*
X10680000Y10225000D02*
X10680000Y2475000D01*
X25420000Y10775000D02*
X25420000Y1925000D01*
X24860000Y10225000D02*
X24860000Y2475000D01*
X10140000Y10775000D02*
X10680000Y10225000D01*
X25420000Y10775000D02*
X24860000Y10225000D01*
X10140000Y1925000D02*
X10680000Y2475000D01*
X25420000Y1925000D02*
X24860000Y2475000D01*
X22598000Y27912000D02*
X19098000Y27912000D01*
X19074375Y27915625D02*
G75*
G03X20828000Y23682000I1753625J-1753625D01*
G01*
X22581625Y27915625D02*
G75*
G02X20828000Y23682000I-1753625J-1753625D01*
G01*
X7600000Y38202000D02*
X5100000Y38202000D01*
X5100000Y38202000D02*
X5100000Y31902000D01*
X5100000Y31902000D02*
X7600000Y31902000D01*
X7600000Y31902000D02*
X7600000Y38202000D01*
X6350000Y38862000D02*
X6350000Y38202000D01*
X6350000Y31242000D02*
X6350000Y31902000D01*
X18796000Y51054000D02*
X18796000Y50394000D01*
X18796000Y43434000D02*
X18796000Y44094000D01*
X17546000Y50394000D02*
X17546000Y44094000D01*
X20046000Y50394000D02*
X17546000Y50394000D01*
X20046000Y44094000D02*
X20046000Y50394000D01*
X17546000Y44094000D02*
X20046000Y44094000D01*
X12700000Y51054000D02*
X12700000Y50394000D01*
X12700000Y43434000D02*
X12700000Y44094000D01*
X11450000Y50394000D02*
X11450000Y44094000D01*
X13950000Y50394000D02*
X11450000Y50394000D01*
X13950000Y44094000D02*
X13950000Y50394000D01*
X11450000Y44094000D02*
X13950000Y44094000D01*
X13310000Y25420000D02*
X13310000Y27920000D01*
X13310000Y27920000D02*
X7010000Y27920000D01*
X7010000Y27920000D02*
X7010000Y25420000D01*
X7010000Y25420000D02*
X13310000Y25420000D01*
X13970000Y26670000D02*
X13310000Y26670000D01*
X6350000Y26670000D02*
X7010000Y26670000D01*
X5060000Y9500000D02*
X2560000Y9500000D01*
X2560000Y9500000D02*
X2560000Y3200000D01*
X2560000Y3200000D02*
X5060000Y3200000D01*
X5060000Y3200000D02*
X5060000Y9500000D01*
X3810000Y10160000D02*
X3810000Y9500000D01*
X3810000Y2540000D02*
X3810000Y3200000D01*
D11*
X24606666Y59999620D02*
X24606666Y60999620D01*
X24844761Y60999620D01*
X24987619Y60952000D01*
X25082857Y60856762D01*
X25130476Y60761524D01*
X25178095Y60571048D01*
X25178095Y60428191D01*
X25130476Y60237715D01*
X25082857Y60142477D01*
X24987619Y60047239D01*
X24844761Y59999620D01*
X24606666Y59999620D01*
X25940000Y60523429D02*
X26082857Y60475810D01*
X26130476Y60428191D01*
X26178095Y60332953D01*
X26178095Y60190096D01*
X26130476Y60094858D01*
X26082857Y60047239D01*
X25987619Y59999620D01*
X25606666Y59999620D01*
X25606666Y60999620D01*
X25940000Y60999620D01*
X26035238Y60952000D01*
X26082857Y60904381D01*
X26130476Y60809143D01*
X26130476Y60713905D01*
X26082857Y60618667D01*
X26035238Y60571048D01*
X25940000Y60523429D01*
X25606666Y60523429D01*
X26654285Y59999620D02*
X26844761Y59999620D01*
X26940000Y60047239D01*
X26987619Y60094858D01*
X27082857Y60237715D01*
X27130476Y60428191D01*
X27130476Y60809143D01*
X27082857Y60904381D01*
X27035238Y60952000D01*
X26940000Y60999620D01*
X26749523Y60999620D01*
X26654285Y60952000D01*
X26606666Y60904381D01*
X26559047Y60809143D01*
X26559047Y60571048D01*
X26606666Y60475810D01*
X26654285Y60428191D01*
X26749523Y60380572D01*
X26940000Y60380572D01*
X27035238Y60428191D01*
X27082857Y60475810D01*
X27130476Y60571048D01*
X27320952Y59904381D02*
X28082857Y59904381D01*
X28320952Y59999620D02*
X28320952Y60999620D01*
X28654285Y60285334D01*
X28987619Y60999620D01*
X28987619Y59999620D01*
X29892380Y59999620D02*
X29892380Y60523429D01*
X29844761Y60618667D01*
X29749523Y60666286D01*
X29559047Y60666286D01*
X29463809Y60618667D01*
X29892380Y60047239D02*
X29797142Y59999620D01*
X29559047Y59999620D01*
X29463809Y60047239D01*
X29416190Y60142477D01*
X29416190Y60237715D01*
X29463809Y60332953D01*
X29559047Y60380572D01*
X29797142Y60380572D01*
X29892380Y60428191D01*
X30511428Y59999620D02*
X30416190Y60047239D01*
X30368571Y60142477D01*
X30368571Y60999620D01*
X31273333Y60047239D02*
X31178095Y59999620D01*
X30987619Y59999620D01*
X30892380Y60047239D01*
X30844761Y60142477D01*
X30844761Y60523429D01*
X30892380Y60618667D01*
X30987619Y60666286D01*
X31178095Y60666286D01*
X31273333Y60618667D01*
X31320952Y60523429D01*
X31320952Y60428191D01*
X30844761Y60332953D01*
X25320666Y55665620D02*
X25320666Y54951334D01*
X25273047Y54808477D01*
X25177809Y54713239D01*
X25034952Y54665620D01*
X24939714Y54665620D01*
X26320666Y54665620D02*
X25749238Y54665620D01*
X26034952Y54665620D02*
X26034952Y55665620D01*
X25939714Y55522762D01*
X25844476Y55427524D01*
X25749238Y55379905D01*
X8922380Y44418572D02*
X8922380Y43847143D01*
X8922380Y44132858D02*
X7922380Y44132858D01*
X8065238Y44037620D01*
X8160476Y43942381D01*
X8208095Y43847143D01*
X8922380Y44847143D02*
X7922380Y44847143D01*
X8922380Y45418572D01*
X7922380Y45418572D01*
X8255714Y46323334D02*
X8922380Y46323334D01*
X7874761Y46085239D02*
X8589047Y45847143D01*
X8589047Y46466191D01*
X7922380Y46751905D02*
X7922380Y47418572D01*
X8922380Y46990000D01*
X7922380Y47704286D02*
X7922380Y48323334D01*
X8303333Y47990000D01*
X8303333Y48132858D01*
X8350952Y48228096D01*
X8398571Y48275715D01*
X8493809Y48323334D01*
X8731904Y48323334D01*
X8827142Y48275715D01*
X8874761Y48228096D01*
X8922380Y48132858D01*
X8922380Y47847143D01*
X8874761Y47751905D01*
X8827142Y47704286D01*
X7922380Y48656667D02*
X7922380Y49275715D01*
X8303333Y48942381D01*
X8303333Y49085239D01*
X8350952Y49180477D01*
X8398571Y49228096D01*
X8493809Y49275715D01*
X8731904Y49275715D01*
X8827142Y49228096D01*
X8874761Y49180477D01*
X8922380Y49085239D01*
X8922380Y48799524D01*
X8874761Y48704286D01*
X8827142Y48656667D01*
X8636666Y49656667D02*
X8636666Y50132858D01*
X8922380Y49561429D02*
X7922380Y49894762D01*
X8922380Y50228096D01*
X5002380Y42918096D02*
X4002380Y42918096D01*
X5002380Y43489524D02*
X4430952Y43060953D01*
X4002380Y43489524D02*
X4573809Y42918096D01*
D12*
X6711904Y46699524D02*
X5911904Y46699524D01*
X5911904Y46890000D01*
X5950000Y47004286D01*
X6026190Y47080477D01*
X6102380Y47118572D01*
X6254761Y47156667D01*
X6369047Y47156667D01*
X6521428Y47118572D01*
X6597619Y47080477D01*
X6673809Y47004286D01*
X6711904Y46890000D01*
X6711904Y46699524D01*
X6711904Y47918572D02*
X6711904Y47461429D01*
X6711904Y47690000D02*
X5911904Y47690000D01*
X6026190Y47613810D01*
X6102380Y47537620D01*
X6140476Y47461429D01*
D11*
X21368380Y32734572D02*
X21368380Y32163143D01*
X21368380Y32448858D02*
X20368380Y32448858D01*
X20511238Y32353620D01*
X20606476Y32258381D01*
X20654095Y32163143D01*
X21368380Y33163143D02*
X20368380Y33163143D01*
X21368380Y33734572D01*
X20368380Y33734572D01*
X20701714Y34639334D02*
X21368380Y34639334D01*
X20320761Y34401239D02*
X21035047Y34163143D01*
X21035047Y34782191D01*
X20368380Y35067905D02*
X20368380Y35734572D01*
X21368380Y35306000D01*
X20368380Y36020286D02*
X20368380Y36639334D01*
X20749333Y36306000D01*
X20749333Y36448858D01*
X20796952Y36544096D01*
X20844571Y36591715D01*
X20939809Y36639334D01*
X21177904Y36639334D01*
X21273142Y36591715D01*
X21320761Y36544096D01*
X21368380Y36448858D01*
X21368380Y36163143D01*
X21320761Y36067905D01*
X21273142Y36020286D01*
X20368380Y36972667D02*
X20368380Y37591715D01*
X20749333Y37258381D01*
X20749333Y37401239D01*
X20796952Y37496477D01*
X20844571Y37544096D01*
X20939809Y37591715D01*
X21177904Y37591715D01*
X21273142Y37544096D01*
X21320761Y37496477D01*
X21368380Y37401239D01*
X21368380Y37115524D01*
X21320761Y37020286D01*
X21273142Y36972667D01*
X21082666Y37972667D02*
X21082666Y38448858D01*
X21368380Y37877429D02*
X20368380Y38210762D01*
X21368380Y38544096D01*
D12*
X19157904Y35015524D02*
X18357904Y35015524D01*
X18357904Y35206000D01*
X18396000Y35320286D01*
X18472190Y35396477D01*
X18548380Y35434572D01*
X18700761Y35472667D01*
X18815047Y35472667D01*
X18967428Y35434572D01*
X19043619Y35396477D01*
X19119809Y35320286D01*
X19157904Y35206000D01*
X19157904Y35015524D01*
X18434095Y35777429D02*
X18396000Y35815524D01*
X18357904Y35891715D01*
X18357904Y36082191D01*
X18396000Y36158381D01*
X18434095Y36196477D01*
X18510285Y36234572D01*
X18586476Y36234572D01*
X18700761Y36196477D01*
X19157904Y35739334D01*
X19157904Y36234572D01*
D11*
X17448380Y31234096D02*
X16448380Y31234096D01*
X17448380Y31805524D02*
X16876952Y31376953D01*
X16448380Y31805524D02*
X17019809Y31234096D01*
X15272380Y33163143D02*
X15272380Y32591715D01*
X15272380Y32877429D02*
X14272380Y32877429D01*
X14415238Y32782191D01*
X14510476Y32686953D01*
X14558095Y32591715D01*
X15272380Y33591715D02*
X14272380Y33591715D01*
X15272380Y34163143D01*
X14272380Y34163143D01*
X14605714Y35067905D02*
X15272380Y35067905D01*
X14224761Y34829810D02*
X14939047Y34591715D01*
X14939047Y35210762D01*
X15272380Y36115524D02*
X15272380Y35544096D01*
X15272380Y35829810D02*
X14272380Y35829810D01*
X14415238Y35734572D01*
X14510476Y35639334D01*
X14558095Y35544096D01*
X14605714Y36972667D02*
X15272380Y36972667D01*
X14224761Y36734572D02*
X14939047Y36496477D01*
X14939047Y37115524D01*
X14700952Y37639334D02*
X14653333Y37544096D01*
X14605714Y37496477D01*
X14510476Y37448858D01*
X14462857Y37448858D01*
X14367619Y37496477D01*
X14320000Y37544096D01*
X14272380Y37639334D01*
X14272380Y37829810D01*
X14320000Y37925048D01*
X14367619Y37972667D01*
X14462857Y38020286D01*
X14510476Y38020286D01*
X14605714Y37972667D01*
X14653333Y37925048D01*
X14700952Y37829810D01*
X14700952Y37639334D01*
X14748571Y37544096D01*
X14796190Y37496477D01*
X14891428Y37448858D01*
X15081904Y37448858D01*
X15177142Y37496477D01*
X15224761Y37544096D01*
X15272380Y37639334D01*
X15272380Y37829810D01*
X15224761Y37925048D01*
X15177142Y37972667D01*
X15081904Y38020286D01*
X14891428Y38020286D01*
X14796190Y37972667D01*
X14748571Y37925048D01*
X14700952Y37829810D01*
D12*
X13061904Y35015524D02*
X12261904Y35015524D01*
X12261904Y35206000D01*
X12300000Y35320286D01*
X12376190Y35396477D01*
X12452380Y35434572D01*
X12604761Y35472667D01*
X12719047Y35472667D01*
X12871428Y35434572D01*
X12947619Y35396477D01*
X13023809Y35320286D01*
X13061904Y35206000D01*
X13061904Y35015524D01*
X12261904Y35739334D02*
X12261904Y36234572D01*
X12566666Y35967905D01*
X12566666Y36082191D01*
X12604761Y36158381D01*
X12642857Y36196477D01*
X12719047Y36234572D01*
X12909523Y36234572D01*
X12985714Y36196477D01*
X13023809Y36158381D01*
X13061904Y36082191D01*
X13061904Y35853620D01*
X13023809Y35777429D01*
X12985714Y35739334D01*
D11*
X11352380Y31234096D02*
X10352380Y31234096D01*
X11352380Y31805524D02*
X10780952Y31376953D01*
X10352380Y31805524D02*
X10923809Y31234096D01*
X3722666Y12446572D02*
X3722666Y12922762D01*
X4008380Y12351334D02*
X3008380Y12684667D01*
X4008380Y13018000D01*
X3008380Y13208477D02*
X4008380Y13541810D01*
X3008380Y13875143D01*
X4008380Y14779905D02*
X3532190Y14446572D01*
X4008380Y14208477D02*
X3008380Y14208477D01*
X3008380Y14589429D01*
X3056000Y14684667D01*
X3103619Y14732286D01*
X3198857Y14779905D01*
X3341714Y14779905D01*
X3436952Y14732286D01*
X3484571Y14684667D01*
X3532190Y14589429D01*
X3532190Y14208477D01*
X3627428Y15208477D02*
X3627428Y15970381D01*
X4008380Y16446572D02*
X3008380Y16446572D01*
X3960761Y16875143D02*
X4008380Y17018000D01*
X4008380Y17256096D01*
X3960761Y17351334D01*
X3913142Y17398953D01*
X3817904Y17446572D01*
X3722666Y17446572D01*
X3627428Y17398953D01*
X3579809Y17351334D01*
X3532190Y17256096D01*
X3484571Y17065620D01*
X3436952Y16970381D01*
X3389333Y16922762D01*
X3294095Y16875143D01*
X3198857Y16875143D01*
X3103619Y16922762D01*
X3056000Y16970381D01*
X3008380Y17065620D01*
X3008380Y17303715D01*
X3056000Y17446572D01*
X4008380Y17875143D02*
X3008380Y17875143D01*
X3008380Y18256096D01*
X3056000Y18351334D01*
X3103619Y18398953D01*
X3198857Y18446572D01*
X3341714Y18446572D01*
X3436952Y18398953D01*
X3484571Y18351334D01*
X3532190Y18256096D01*
X3532190Y17875143D01*
X3627428Y18875143D02*
X3627428Y19637048D01*
X4008380Y20637048D02*
X4008380Y20065620D01*
X4008380Y20351334D02*
X3008380Y20351334D01*
X3151238Y20256096D01*
X3246476Y20160858D01*
X3294095Y20065620D01*
X3008380Y21256096D02*
X3008380Y21351334D01*
X3056000Y21446572D01*
X3103619Y21494191D01*
X3198857Y21541810D01*
X3389333Y21589429D01*
X3627428Y21589429D01*
X3817904Y21541810D01*
X3913142Y21494191D01*
X3960761Y21446572D01*
X4008380Y21351334D01*
X4008380Y21256096D01*
X3960761Y21160858D01*
X3913142Y21113239D01*
X3817904Y21065620D01*
X3627428Y21018000D01*
X3389333Y21018000D01*
X3198857Y21065620D01*
X3103619Y21113239D01*
X3056000Y21160858D01*
X3008380Y21256096D01*
X14692380Y16684667D02*
X15406666Y16684667D01*
X15549523Y16637048D01*
X15644761Y16541810D01*
X15692380Y16398953D01*
X15692380Y16303715D01*
X14787619Y17113239D02*
X14740000Y17160858D01*
X14692380Y17256096D01*
X14692380Y17494191D01*
X14740000Y17589429D01*
X14787619Y17637048D01*
X14882857Y17684667D01*
X14978095Y17684667D01*
X15120952Y17637048D01*
X15692380Y17065620D01*
X15692380Y17684667D01*
X27090666Y2254762D02*
X27090666Y2730953D01*
X27376380Y2159524D02*
X26376380Y2492858D01*
X27376380Y2826191D01*
X26376380Y3016667D02*
X27376380Y3350000D01*
X26376380Y3683334D01*
X27376380Y4588096D02*
X26900190Y4254762D01*
X27376380Y4016667D02*
X26376380Y4016667D01*
X26376380Y4397620D01*
X26424000Y4492858D01*
X26471619Y4540477D01*
X26566857Y4588096D01*
X26709714Y4588096D01*
X26804952Y4540477D01*
X26852571Y4492858D01*
X26900190Y4397620D01*
X26900190Y4016667D01*
X26995428Y5016667D02*
X26995428Y5778572D01*
X27376380Y6254762D02*
X26376380Y6254762D01*
X27328761Y6683334D02*
X27376380Y6826191D01*
X27376380Y7064286D01*
X27328761Y7159524D01*
X27281142Y7207143D01*
X27185904Y7254762D01*
X27090666Y7254762D01*
X26995428Y7207143D01*
X26947809Y7159524D01*
X26900190Y7064286D01*
X26852571Y6873810D01*
X26804952Y6778572D01*
X26757333Y6730953D01*
X26662095Y6683334D01*
X26566857Y6683334D01*
X26471619Y6730953D01*
X26424000Y6778572D01*
X26376380Y6873810D01*
X26376380Y7111905D01*
X26424000Y7254762D01*
X27376380Y7683334D02*
X26376380Y7683334D01*
X26376380Y8064286D01*
X26424000Y8159524D01*
X26471619Y8207143D01*
X26566857Y8254762D01*
X26709714Y8254762D01*
X26804952Y8207143D01*
X26852571Y8159524D01*
X26900190Y8064286D01*
X26900190Y7683334D01*
X26995428Y8683334D02*
X26995428Y9445239D01*
X26376380Y10350000D02*
X26376380Y10159524D01*
X26424000Y10064286D01*
X26471619Y10016667D01*
X26614476Y9921429D01*
X26804952Y9873810D01*
X27185904Y9873810D01*
X27281142Y9921429D01*
X27328761Y9969048D01*
X27376380Y10064286D01*
X27376380Y10254762D01*
X27328761Y10350000D01*
X27281142Y10397620D01*
X27185904Y10445239D01*
X26947809Y10445239D01*
X26852571Y10397620D01*
X26804952Y10350000D01*
X26757333Y10254762D01*
X26757333Y10064286D01*
X26804952Y9969048D01*
X26852571Y9921429D01*
X26947809Y9873810D01*
X17232380Y6016667D02*
X17946666Y6016667D01*
X18089523Y5969048D01*
X18184761Y5873810D01*
X18232380Y5730953D01*
X18232380Y5635715D01*
X17232380Y6397620D02*
X17232380Y7016667D01*
X17613333Y6683334D01*
X17613333Y6826191D01*
X17660952Y6921429D01*
X17708571Y6969048D01*
X17803809Y7016667D01*
X18041904Y7016667D01*
X18137142Y6969048D01*
X18184761Y6921429D01*
X18232380Y6826191D01*
X18232380Y6540477D01*
X18184761Y6445239D01*
X18137142Y6397620D01*
X18970857Y29023429D02*
X19113714Y28975810D01*
X19161333Y28928191D01*
X19208952Y28832953D01*
X19208952Y28690096D01*
X19161333Y28594858D01*
X19113714Y28547239D01*
X19018476Y28499620D01*
X18637523Y28499620D01*
X18637523Y29499620D01*
X18970857Y29499620D01*
X19066095Y29452000D01*
X19113714Y29404381D01*
X19161333Y29309143D01*
X19161333Y29213905D01*
X19113714Y29118667D01*
X19066095Y29071048D01*
X18970857Y29023429D01*
X18637523Y29023429D01*
X20208952Y28594858D02*
X20161333Y28547239D01*
X20018476Y28499620D01*
X19923238Y28499620D01*
X19780380Y28547239D01*
X19685142Y28642477D01*
X19637523Y28737715D01*
X19589904Y28928191D01*
X19589904Y29071048D01*
X19637523Y29261524D01*
X19685142Y29356762D01*
X19780380Y29452000D01*
X19923238Y29499620D01*
X20018476Y29499620D01*
X20161333Y29452000D01*
X20208952Y29404381D01*
X21113714Y29499620D02*
X20637523Y29499620D01*
X20589904Y29023429D01*
X20637523Y29071048D01*
X20732761Y29118667D01*
X20970857Y29118667D01*
X21066095Y29071048D01*
X21113714Y29023429D01*
X21161333Y28928191D01*
X21161333Y28690096D01*
X21113714Y28594858D01*
X21066095Y28547239D01*
X20970857Y28499620D01*
X20732761Y28499620D01*
X20637523Y28547239D01*
X20589904Y28594858D01*
X22018476Y29166286D02*
X22018476Y28499620D01*
X21780380Y29547239D02*
X21542285Y28832953D01*
X22161333Y28832953D01*
X22970857Y29499620D02*
X22780380Y29499620D01*
X22685142Y29452000D01*
X22637523Y29404381D01*
X22542285Y29261524D01*
X22494666Y29071048D01*
X22494666Y28690096D01*
X22542285Y28594858D01*
X22589904Y28547239D01*
X22685142Y28499620D01*
X22875619Y28499620D01*
X22970857Y28547239D01*
X23018476Y28594858D01*
X23066095Y28690096D01*
X23066095Y28928191D01*
X23018476Y29023429D01*
X22970857Y29071048D01*
X22875619Y29118667D01*
X22685142Y29118667D01*
X22589904Y29071048D01*
X22542285Y29023429D01*
X22494666Y28928191D01*
X20732761Y22054381D02*
X20637523Y22102000D01*
X20542285Y22197239D01*
X20399428Y22340096D01*
X20304190Y22387715D01*
X20208952Y22387715D01*
X20256571Y22149620D02*
X20161333Y22197239D01*
X20066095Y22292477D01*
X20018476Y22482953D01*
X20018476Y22816286D01*
X20066095Y23006762D01*
X20161333Y23102000D01*
X20256571Y23149620D01*
X20447047Y23149620D01*
X20542285Y23102000D01*
X20637523Y23006762D01*
X20685142Y22816286D01*
X20685142Y22482953D01*
X20637523Y22292477D01*
X20542285Y22197239D01*
X20447047Y22149620D01*
X20256571Y22149620D01*
X21637523Y22149620D02*
X21066095Y22149620D01*
X21351809Y22149620D02*
X21351809Y23149620D01*
X21256571Y23006762D01*
X21161333Y22911524D01*
X21066095Y22863905D01*
X3765714Y34361524D02*
X4432380Y34361524D01*
X3384761Y34123429D02*
X4099047Y33885334D01*
X4099047Y34504381D01*
X4432380Y34885334D02*
X3432380Y34885334D01*
X4051428Y34980572D02*
X4432380Y35266286D01*
X3765714Y35266286D02*
X4146666Y34885334D01*
X3432380Y35599620D02*
X3432380Y36266286D01*
X4432380Y35837715D01*
X6802380Y34885334D02*
X6326190Y34552000D01*
X6802380Y34313905D02*
X5802380Y34313905D01*
X5802380Y34694858D01*
X5850000Y34790096D01*
X5897619Y34837715D01*
X5992857Y34885334D01*
X6135714Y34885334D01*
X6230952Y34837715D01*
X6278571Y34790096D01*
X6326190Y34694858D01*
X6326190Y34313905D01*
X6802380Y35837715D02*
X6802380Y35266286D01*
X6802380Y35552000D02*
X5802380Y35552000D01*
X5945238Y35456762D01*
X6040476Y35361524D01*
X6088095Y35266286D01*
X20951714Y46553524D02*
X21618380Y46553524D01*
X20570761Y46315429D02*
X21285047Y46077334D01*
X21285047Y46696381D01*
X21618380Y47077334D02*
X20618380Y47077334D01*
X21237428Y47172572D02*
X21618380Y47458286D01*
X20951714Y47458286D02*
X21332666Y47077334D01*
X20618380Y47791620D02*
X20618380Y48458286D01*
X21618380Y48029715D01*
X19248380Y47077334D02*
X18772190Y46744000D01*
X19248380Y46505905D02*
X18248380Y46505905D01*
X18248380Y46886858D01*
X18296000Y46982096D01*
X18343619Y47029715D01*
X18438857Y47077334D01*
X18581714Y47077334D01*
X18676952Y47029715D01*
X18724571Y46982096D01*
X18772190Y46886858D01*
X18772190Y46505905D01*
X18343619Y47458286D02*
X18296000Y47505905D01*
X18248380Y47601143D01*
X18248380Y47839239D01*
X18296000Y47934477D01*
X18343619Y47982096D01*
X18438857Y48029715D01*
X18534095Y48029715D01*
X18676952Y47982096D01*
X19248380Y47410667D01*
X19248380Y48029715D01*
X15522380Y46648762D02*
X15522380Y46077334D01*
X15522380Y46363048D02*
X14522380Y46363048D01*
X14665238Y46267810D01*
X14760476Y46172572D01*
X14808095Y46077334D01*
X14522380Y47267810D02*
X14522380Y47363048D01*
X14570000Y47458286D01*
X14617619Y47505905D01*
X14712857Y47553524D01*
X14903333Y47601143D01*
X15141428Y47601143D01*
X15331904Y47553524D01*
X15427142Y47505905D01*
X15474761Y47458286D01*
X15522380Y47363048D01*
X15522380Y47267810D01*
X15474761Y47172572D01*
X15427142Y47124953D01*
X15331904Y47077334D01*
X15141428Y47029715D01*
X14903333Y47029715D01*
X14712857Y47077334D01*
X14617619Y47124953D01*
X14570000Y47172572D01*
X14522380Y47267810D01*
X15522380Y48029715D02*
X14522380Y48029715D01*
X15141428Y48124953D02*
X15522380Y48410667D01*
X14855714Y48410667D02*
X15236666Y48029715D01*
X13152380Y47077334D02*
X12676190Y46744000D01*
X13152380Y46505905D02*
X12152380Y46505905D01*
X12152380Y46886858D01*
X12200000Y46982096D01*
X12247619Y47029715D01*
X12342857Y47077334D01*
X12485714Y47077334D01*
X12580952Y47029715D01*
X12628571Y46982096D01*
X12676190Y46886858D01*
X12676190Y46505905D01*
X12152380Y47410667D02*
X12152380Y48029715D01*
X12533333Y47696381D01*
X12533333Y47839239D01*
X12580952Y47934477D01*
X12628571Y47982096D01*
X12723809Y48029715D01*
X12961904Y48029715D01*
X13057142Y47982096D01*
X13104761Y47934477D01*
X13152380Y47839239D01*
X13152380Y47553524D01*
X13104761Y47458286D01*
X13057142Y47410667D01*
X9469523Y29254286D02*
X9469523Y28587620D01*
X9231428Y29635239D02*
X8993333Y28920953D01*
X9612380Y28920953D01*
X9993333Y28587620D02*
X9993333Y29587620D01*
X10088571Y28968572D02*
X10374285Y28587620D01*
X10374285Y29254286D02*
X9993333Y28873334D01*
X10707619Y29587620D02*
X11374285Y29587620D01*
X10945714Y28587620D01*
X9993333Y26217620D02*
X9660000Y26693810D01*
X9421904Y26217620D02*
X9421904Y27217620D01*
X9802857Y27217620D01*
X9898095Y27170000D01*
X9945714Y27122381D01*
X9993333Y27027143D01*
X9993333Y26884286D01*
X9945714Y26789048D01*
X9898095Y26741429D01*
X9802857Y26693810D01*
X9421904Y26693810D01*
X10850476Y26884286D02*
X10850476Y26217620D01*
X10612380Y27265239D02*
X10374285Y26550953D01*
X10993333Y26550953D01*
X1892380Y5754762D02*
X1892380Y5183334D01*
X1892380Y5469048D02*
X892380Y5469048D01*
X1035238Y5373810D01*
X1130476Y5278572D01*
X1178095Y5183334D01*
X892380Y6373810D02*
X892380Y6469048D01*
X940000Y6564286D01*
X987619Y6611905D01*
X1082857Y6659524D01*
X1273333Y6707143D01*
X1511428Y6707143D01*
X1701904Y6659524D01*
X1797142Y6611905D01*
X1844761Y6564286D01*
X1892380Y6469048D01*
X1892380Y6373810D01*
X1844761Y6278572D01*
X1797142Y6230953D01*
X1701904Y6183334D01*
X1511428Y6135715D01*
X1273333Y6135715D01*
X1082857Y6183334D01*
X987619Y6230953D01*
X940000Y6278572D01*
X892380Y6373810D01*
X1892380Y7135715D02*
X892380Y7135715D01*
X1511428Y7230953D02*
X1892380Y7516667D01*
X1225714Y7516667D02*
X1606666Y7135715D01*
X4262380Y6183334D02*
X3786190Y5850000D01*
X4262380Y5611905D02*
X3262380Y5611905D01*
X3262380Y5992858D01*
X3310000Y6088096D01*
X3357619Y6135715D01*
X3452857Y6183334D01*
X3595714Y6183334D01*
X3690952Y6135715D01*
X3738571Y6088096D01*
X3786190Y5992858D01*
X3786190Y5611905D01*
X3262380Y7088096D02*
X3262380Y6611905D01*
X3738571Y6564286D01*
X3690952Y6611905D01*
X3643333Y6707143D01*
X3643333Y6945239D01*
X3690952Y7040477D01*
X3738571Y7088096D01*
X3833809Y7135715D01*
X4071904Y7135715D01*
X4167142Y7088096D01*
X4214761Y7040477D01*
X4262380Y6945239D01*
X4262380Y6707143D01*
X4214761Y6611905D01*
X4167142Y6564286D01*
M02*
