G04 #@! TF.GenerationSoftware,KiCad,Pcbnew,5.1.4-3.fc30*
G04 #@! TF.CreationDate,2019-10-13T14:01:56+02:00*
G04 #@! TF.ProjectId,dasa-3,64617361-2d33-42e6-9b69-6361645f7063,1.0*
G04 #@! TF.SameCoordinates,PX6f2f610PY6a57250*
G04 #@! TF.FileFunction,Soldermask,Bot*
G04 #@! TF.FilePolarity,Negative*
%FSLAX46Y46*%
G04 Gerber Fmt 4.6, Leading zero omitted, Abs format (unit mm)*
G04 Created by KiCad (PCBNEW 5.1.4-3.fc30) date 2019-10-13 14:01:56*
%MOMM*%
%LPD*%
G04 APERTURE LIST*
%ADD10C,0.100000*%
G04 APERTURE END LIST*
D10*
G36*
X3976823Y3378687D02*
G01*
X4137242Y3330024D01*
X4269906Y3259114D01*
X4285078Y3251004D01*
X4414659Y3144659D01*
X4521004Y3015078D01*
X4521005Y3015076D01*
X4600024Y2867242D01*
X4648687Y2706823D01*
X4665117Y2540000D01*
X4648687Y2373177D01*
X4600024Y2212758D01*
X4529114Y2080094D01*
X4521004Y2064922D01*
X4414659Y1935341D01*
X4285078Y1828996D01*
X4285076Y1828995D01*
X4137242Y1749976D01*
X3976823Y1701313D01*
X3851804Y1689000D01*
X3768196Y1689000D01*
X3643177Y1701313D01*
X3482758Y1749976D01*
X3334924Y1828995D01*
X3334922Y1828996D01*
X3205341Y1935341D01*
X3098996Y2064922D01*
X3090886Y2080094D01*
X3019976Y2212758D01*
X2971313Y2373177D01*
X2954883Y2540000D01*
X2971313Y2706823D01*
X3019976Y2867242D01*
X3098995Y3015076D01*
X3098996Y3015078D01*
X3205341Y3144659D01*
X3334922Y3251004D01*
X3350094Y3259114D01*
X3482758Y3330024D01*
X3643177Y3378687D01*
X3768196Y3391000D01*
X3851804Y3391000D01*
X3976823Y3378687D01*
X3976823Y3378687D01*
G37*
G36*
X20499294Y5981367D02*
G01*
X20671695Y5929069D01*
X20830583Y5844142D01*
X20969849Y5729849D01*
X21084142Y5590583D01*
X21169069Y5431695D01*
X21221367Y5259294D01*
X21239025Y5080000D01*
X21221367Y4900706D01*
X21169069Y4728305D01*
X21084142Y4569417D01*
X20969849Y4430151D01*
X20830583Y4315858D01*
X20671695Y4230931D01*
X20499294Y4178633D01*
X20364931Y4165400D01*
X20275069Y4165400D01*
X20140706Y4178633D01*
X19968305Y4230931D01*
X19809417Y4315858D01*
X19670151Y4430151D01*
X19555858Y4569417D01*
X19470931Y4728305D01*
X19418633Y4900706D01*
X19400975Y5080000D01*
X19418633Y5259294D01*
X19470931Y5431695D01*
X19555858Y5590583D01*
X19670151Y5729849D01*
X19809417Y5844142D01*
X19968305Y5929069D01*
X20140706Y5981367D01*
X20275069Y5994600D01*
X20364931Y5994600D01*
X20499294Y5981367D01*
X20499294Y5981367D01*
G37*
G36*
X16154600Y4165400D02*
G01*
X14325400Y4165400D01*
X14325400Y5994600D01*
X16154600Y5994600D01*
X16154600Y4165400D01*
X16154600Y4165400D01*
G37*
G36*
X17959294Y5981367D02*
G01*
X18131695Y5929069D01*
X18290583Y5844142D01*
X18429849Y5729849D01*
X18544142Y5590583D01*
X18629069Y5431695D01*
X18681367Y5259294D01*
X18699025Y5080000D01*
X18681367Y4900706D01*
X18629069Y4728305D01*
X18544142Y4569417D01*
X18429849Y4430151D01*
X18290583Y4315858D01*
X18131695Y4230931D01*
X17959294Y4178633D01*
X17824931Y4165400D01*
X17735069Y4165400D01*
X17600706Y4178633D01*
X17428305Y4230931D01*
X17269417Y4315858D01*
X17130151Y4430151D01*
X17015858Y4569417D01*
X16930931Y4728305D01*
X16878633Y4900706D01*
X16860975Y5080000D01*
X16878633Y5259294D01*
X16930931Y5431695D01*
X17015858Y5590583D01*
X17130151Y5729849D01*
X17269417Y5844142D01*
X17428305Y5929069D01*
X17600706Y5981367D01*
X17735069Y5994600D01*
X17824931Y5994600D01*
X17959294Y5981367D01*
X17959294Y5981367D01*
G37*
G36*
X15419294Y8521367D02*
G01*
X15591695Y8469069D01*
X15750583Y8384142D01*
X15889849Y8269849D01*
X16004142Y8130583D01*
X16089069Y7971695D01*
X16141367Y7799294D01*
X16159025Y7620000D01*
X16141367Y7440706D01*
X16089069Y7268305D01*
X16004142Y7109417D01*
X15889849Y6970151D01*
X15750583Y6855858D01*
X15591695Y6770931D01*
X15419294Y6718633D01*
X15284931Y6705400D01*
X15195069Y6705400D01*
X15060706Y6718633D01*
X14888305Y6770931D01*
X14729417Y6855858D01*
X14590151Y6970151D01*
X14475858Y7109417D01*
X14390931Y7268305D01*
X14338633Y7440706D01*
X14320975Y7620000D01*
X14338633Y7799294D01*
X14390931Y7971695D01*
X14475858Y8130583D01*
X14590151Y8269849D01*
X14729417Y8384142D01*
X14888305Y8469069D01*
X15060706Y8521367D01*
X15195069Y8534600D01*
X15284931Y8534600D01*
X15419294Y8521367D01*
X15419294Y8521367D01*
G37*
G36*
X20499294Y8521367D02*
G01*
X20671695Y8469069D01*
X20830583Y8384142D01*
X20969849Y8269849D01*
X21084142Y8130583D01*
X21169069Y7971695D01*
X21221367Y7799294D01*
X21239025Y7620000D01*
X21221367Y7440706D01*
X21169069Y7268305D01*
X21084142Y7109417D01*
X20969849Y6970151D01*
X20830583Y6855858D01*
X20671695Y6770931D01*
X20499294Y6718633D01*
X20364931Y6705400D01*
X20275069Y6705400D01*
X20140706Y6718633D01*
X19968305Y6770931D01*
X19809417Y6855858D01*
X19670151Y6970151D01*
X19555858Y7109417D01*
X19470931Y7268305D01*
X19418633Y7440706D01*
X19400975Y7620000D01*
X19418633Y7799294D01*
X19470931Y7971695D01*
X19555858Y8130583D01*
X19670151Y8269849D01*
X19809417Y8384142D01*
X19968305Y8469069D01*
X20140706Y8521367D01*
X20275069Y8534600D01*
X20364931Y8534600D01*
X20499294Y8521367D01*
X20499294Y8521367D01*
G37*
G36*
X17959294Y8521367D02*
G01*
X18131695Y8469069D01*
X18290583Y8384142D01*
X18429849Y8269849D01*
X18544142Y8130583D01*
X18629069Y7971695D01*
X18681367Y7799294D01*
X18699025Y7620000D01*
X18681367Y7440706D01*
X18629069Y7268305D01*
X18544142Y7109417D01*
X18429849Y6970151D01*
X18290583Y6855858D01*
X18131695Y6770931D01*
X17959294Y6718633D01*
X17824931Y6705400D01*
X17735069Y6705400D01*
X17600706Y6718633D01*
X17428305Y6770931D01*
X17269417Y6855858D01*
X17130151Y6970151D01*
X17015858Y7109417D01*
X16930931Y7268305D01*
X16878633Y7440706D01*
X16860975Y7620000D01*
X16878633Y7799294D01*
X16930931Y7971695D01*
X17015858Y8130583D01*
X17130151Y8269849D01*
X17269417Y8384142D01*
X17428305Y8469069D01*
X17600706Y8521367D01*
X17735069Y8534600D01*
X17824931Y8534600D01*
X17959294Y8521367D01*
X17959294Y8521367D01*
G37*
G36*
X4058228Y10978297D02*
G01*
X4213100Y10914147D01*
X4352481Y10821015D01*
X4471015Y10702481D01*
X4564147Y10563100D01*
X4628297Y10408228D01*
X4661000Y10243816D01*
X4661000Y10076184D01*
X4628297Y9911772D01*
X4564147Y9756900D01*
X4471015Y9617519D01*
X4352481Y9498985D01*
X4213100Y9405853D01*
X4058228Y9341703D01*
X3893816Y9309000D01*
X3726184Y9309000D01*
X3561772Y9341703D01*
X3406900Y9405853D01*
X3267519Y9498985D01*
X3148985Y9617519D01*
X3055853Y9756900D01*
X2991703Y9911772D01*
X2959000Y10076184D01*
X2959000Y10243816D01*
X2991703Y10408228D01*
X3055853Y10563100D01*
X3148985Y10702481D01*
X3267519Y10821015D01*
X3406900Y10914147D01*
X3561772Y10978297D01*
X3726184Y11011000D01*
X3893816Y11011000D01*
X4058228Y10978297D01*
X4058228Y10978297D01*
G37*
G36*
X20499294Y16649367D02*
G01*
X20671695Y16597069D01*
X20830583Y16512142D01*
X20969849Y16397849D01*
X21084142Y16258583D01*
X21169069Y16099695D01*
X21221367Y15927294D01*
X21239025Y15748000D01*
X21221367Y15568706D01*
X21169069Y15396305D01*
X21084142Y15237417D01*
X20969849Y15098151D01*
X20830583Y14983858D01*
X20671695Y14898931D01*
X20499294Y14846633D01*
X20364931Y14833400D01*
X20275069Y14833400D01*
X20140706Y14846633D01*
X19968305Y14898931D01*
X19809417Y14983858D01*
X19670151Y15098151D01*
X19555858Y15237417D01*
X19470931Y15396305D01*
X19418633Y15568706D01*
X19400975Y15748000D01*
X19418633Y15927294D01*
X19470931Y16099695D01*
X19555858Y16258583D01*
X19670151Y16397849D01*
X19809417Y16512142D01*
X19968305Y16597069D01*
X20140706Y16649367D01*
X20275069Y16662600D01*
X20364931Y16662600D01*
X20499294Y16649367D01*
X20499294Y16649367D01*
G37*
G36*
X17959294Y16649367D02*
G01*
X18131695Y16597069D01*
X18290583Y16512142D01*
X18429849Y16397849D01*
X18544142Y16258583D01*
X18629069Y16099695D01*
X18681367Y15927294D01*
X18699025Y15748000D01*
X18681367Y15568706D01*
X18629069Y15396305D01*
X18544142Y15237417D01*
X18429849Y15098151D01*
X18290583Y14983858D01*
X18131695Y14898931D01*
X17959294Y14846633D01*
X17824931Y14833400D01*
X17735069Y14833400D01*
X17600706Y14846633D01*
X17428305Y14898931D01*
X17269417Y14983858D01*
X17130151Y15098151D01*
X17015858Y15237417D01*
X16930931Y15396305D01*
X16878633Y15568706D01*
X16860975Y15748000D01*
X16878633Y15927294D01*
X16930931Y16099695D01*
X17015858Y16258583D01*
X17130151Y16397849D01*
X17269417Y16512142D01*
X17428305Y16597069D01*
X17600706Y16649367D01*
X17735069Y16662600D01*
X17824931Y16662600D01*
X17959294Y16649367D01*
X17959294Y16649367D01*
G37*
G36*
X15419294Y16649367D02*
G01*
X15591695Y16597069D01*
X15750583Y16512142D01*
X15889849Y16397849D01*
X16004142Y16258583D01*
X16089069Y16099695D01*
X16141367Y15927294D01*
X16159025Y15748000D01*
X16141367Y15568706D01*
X16089069Y15396305D01*
X16004142Y15237417D01*
X15889849Y15098151D01*
X15750583Y14983858D01*
X15591695Y14898931D01*
X15419294Y14846633D01*
X15284931Y14833400D01*
X15195069Y14833400D01*
X15060706Y14846633D01*
X14888305Y14898931D01*
X14729417Y14983858D01*
X14590151Y15098151D01*
X14475858Y15237417D01*
X14390931Y15396305D01*
X14338633Y15568706D01*
X14320975Y15748000D01*
X14338633Y15927294D01*
X14390931Y16099695D01*
X14475858Y16258583D01*
X14590151Y16397849D01*
X14729417Y16512142D01*
X14888305Y16597069D01*
X15060706Y16649367D01*
X15195069Y16662600D01*
X15284931Y16662600D01*
X15419294Y16649367D01*
X15419294Y16649367D01*
G37*
G36*
X12879294Y16649367D02*
G01*
X13051695Y16597069D01*
X13210583Y16512142D01*
X13349849Y16397849D01*
X13464142Y16258583D01*
X13549069Y16099695D01*
X13601367Y15927294D01*
X13619025Y15748000D01*
X13601367Y15568706D01*
X13549069Y15396305D01*
X13464142Y15237417D01*
X13349849Y15098151D01*
X13210583Y14983858D01*
X13051695Y14898931D01*
X12879294Y14846633D01*
X12744931Y14833400D01*
X12655069Y14833400D01*
X12520706Y14846633D01*
X12348305Y14898931D01*
X12189417Y14983858D01*
X12050151Y15098151D01*
X11935858Y15237417D01*
X11850931Y15396305D01*
X11798633Y15568706D01*
X11780975Y15748000D01*
X11798633Y15927294D01*
X11850931Y16099695D01*
X11935858Y16258583D01*
X12050151Y16397849D01*
X12189417Y16512142D01*
X12348305Y16597069D01*
X12520706Y16649367D01*
X12655069Y16662600D01*
X12744931Y16662600D01*
X12879294Y16649367D01*
X12879294Y16649367D01*
G37*
G36*
X10339294Y16649367D02*
G01*
X10511695Y16597069D01*
X10670583Y16512142D01*
X10809849Y16397849D01*
X10924142Y16258583D01*
X11009069Y16099695D01*
X11061367Y15927294D01*
X11079025Y15748000D01*
X11061367Y15568706D01*
X11009069Y15396305D01*
X10924142Y15237417D01*
X10809849Y15098151D01*
X10670583Y14983858D01*
X10511695Y14898931D01*
X10339294Y14846633D01*
X10204931Y14833400D01*
X10115069Y14833400D01*
X9980706Y14846633D01*
X9808305Y14898931D01*
X9649417Y14983858D01*
X9510151Y15098151D01*
X9395858Y15237417D01*
X9310931Y15396305D01*
X9258633Y15568706D01*
X9240975Y15748000D01*
X9258633Y15927294D01*
X9310931Y16099695D01*
X9395858Y16258583D01*
X9510151Y16397849D01*
X9649417Y16512142D01*
X9808305Y16597069D01*
X9980706Y16649367D01*
X10115069Y16662600D01*
X10204931Y16662600D01*
X10339294Y16649367D01*
X10339294Y16649367D01*
G37*
G36*
X21234600Y17373400D02*
G01*
X19405400Y17373400D01*
X19405400Y19202600D01*
X21234600Y19202600D01*
X21234600Y17373400D01*
X21234600Y17373400D01*
G37*
G36*
X12879294Y19189367D02*
G01*
X13051695Y19137069D01*
X13210583Y19052142D01*
X13349849Y18937849D01*
X13464142Y18798583D01*
X13549069Y18639695D01*
X13601367Y18467294D01*
X13619025Y18288000D01*
X13601367Y18108706D01*
X13549069Y17936305D01*
X13464142Y17777417D01*
X13349849Y17638151D01*
X13210583Y17523858D01*
X13051695Y17438931D01*
X12879294Y17386633D01*
X12744931Y17373400D01*
X12655069Y17373400D01*
X12520706Y17386633D01*
X12348305Y17438931D01*
X12189417Y17523858D01*
X12050151Y17638151D01*
X11935858Y17777417D01*
X11850931Y17936305D01*
X11798633Y18108706D01*
X11780975Y18288000D01*
X11798633Y18467294D01*
X11850931Y18639695D01*
X11935858Y18798583D01*
X12050151Y18937849D01*
X12189417Y19052142D01*
X12348305Y19137069D01*
X12520706Y19189367D01*
X12655069Y19202600D01*
X12744931Y19202600D01*
X12879294Y19189367D01*
X12879294Y19189367D01*
G37*
G36*
X10339294Y19189367D02*
G01*
X10511695Y19137069D01*
X10670583Y19052142D01*
X10809849Y18937849D01*
X10924142Y18798583D01*
X11009069Y18639695D01*
X11061367Y18467294D01*
X11079025Y18288000D01*
X11061367Y18108706D01*
X11009069Y17936305D01*
X10924142Y17777417D01*
X10809849Y17638151D01*
X10670583Y17523858D01*
X10511695Y17438931D01*
X10339294Y17386633D01*
X10204931Y17373400D01*
X10115069Y17373400D01*
X9980706Y17386633D01*
X9808305Y17438931D01*
X9649417Y17523858D01*
X9510151Y17638151D01*
X9395858Y17777417D01*
X9310931Y17936305D01*
X9258633Y18108706D01*
X9240975Y18288000D01*
X9258633Y18467294D01*
X9310931Y18639695D01*
X9395858Y18798583D01*
X9510151Y18937849D01*
X9649417Y19052142D01*
X9808305Y19137069D01*
X9980706Y19189367D01*
X10115069Y19202600D01*
X10204931Y19202600D01*
X10339294Y19189367D01*
X10339294Y19189367D01*
G37*
G36*
X15419294Y19189367D02*
G01*
X15591695Y19137069D01*
X15750583Y19052142D01*
X15889849Y18937849D01*
X16004142Y18798583D01*
X16089069Y18639695D01*
X16141367Y18467294D01*
X16159025Y18288000D01*
X16141367Y18108706D01*
X16089069Y17936305D01*
X16004142Y17777417D01*
X15889849Y17638151D01*
X15750583Y17523858D01*
X15591695Y17438931D01*
X15419294Y17386633D01*
X15284931Y17373400D01*
X15195069Y17373400D01*
X15060706Y17386633D01*
X14888305Y17438931D01*
X14729417Y17523858D01*
X14590151Y17638151D01*
X14475858Y17777417D01*
X14390931Y17936305D01*
X14338633Y18108706D01*
X14320975Y18288000D01*
X14338633Y18467294D01*
X14390931Y18639695D01*
X14475858Y18798583D01*
X14590151Y18937849D01*
X14729417Y19052142D01*
X14888305Y19137069D01*
X15060706Y19189367D01*
X15195069Y19202600D01*
X15284931Y19202600D01*
X15419294Y19189367D01*
X15419294Y19189367D01*
G37*
G36*
X17959294Y19189367D02*
G01*
X18131695Y19137069D01*
X18290583Y19052142D01*
X18429849Y18937849D01*
X18544142Y18798583D01*
X18629069Y18639695D01*
X18681367Y18467294D01*
X18699025Y18288000D01*
X18681367Y18108706D01*
X18629069Y17936305D01*
X18544142Y17777417D01*
X18429849Y17638151D01*
X18290583Y17523858D01*
X18131695Y17438931D01*
X17959294Y17386633D01*
X17824931Y17373400D01*
X17735069Y17373400D01*
X17600706Y17386633D01*
X17428305Y17438931D01*
X17269417Y17523858D01*
X17130151Y17638151D01*
X17015858Y17777417D01*
X16930931Y17936305D01*
X16878633Y18108706D01*
X16860975Y18288000D01*
X16878633Y18467294D01*
X16930931Y18639695D01*
X17015858Y18798583D01*
X17130151Y18937849D01*
X17269417Y19052142D01*
X17428305Y19137069D01*
X17600706Y19189367D01*
X17735069Y19202600D01*
X17824931Y19202600D01*
X17959294Y19189367D01*
X17959294Y19189367D01*
G37*
G36*
X20940916Y26954666D02*
G01*
X21049492Y26921729D01*
X21049495Y26921728D01*
X21085601Y26902429D01*
X21149557Y26868244D01*
X21237264Y26796264D01*
X21300383Y26719354D01*
X21317702Y26702035D01*
X21338077Y26688421D01*
X21360716Y26679043D01*
X21384749Y26674263D01*
X21409253Y26674263D01*
X21433286Y26679043D01*
X21455925Y26688421D01*
X21476299Y26702034D01*
X21493626Y26719361D01*
X21507240Y26739736D01*
X21516618Y26762375D01*
X21521398Y26786408D01*
X21522000Y26798660D01*
X21522000Y26963000D01*
X22674000Y26963000D01*
X22674000Y25361000D01*
X21522000Y25361000D01*
X21522000Y25525340D01*
X21519598Y25549726D01*
X21512485Y25573175D01*
X21500934Y25594786D01*
X21485389Y25613728D01*
X21466447Y25629273D01*
X21444836Y25640824D01*
X21421387Y25647937D01*
X21397001Y25650339D01*
X21372615Y25647937D01*
X21349166Y25640824D01*
X21327555Y25629273D01*
X21300381Y25604644D01*
X21237264Y25527736D01*
X21149556Y25455756D01*
X21085600Y25421571D01*
X21049494Y25402272D01*
X21049491Y25402271D01*
X20940915Y25369334D01*
X20828000Y25358213D01*
X20715084Y25369334D01*
X20606508Y25402271D01*
X20606505Y25402272D01*
X20570399Y25421571D01*
X20506443Y25455756D01*
X20418736Y25527736D01*
X20346756Y25615444D01*
X20303239Y25696860D01*
X20289625Y25717234D01*
X20272298Y25734561D01*
X20251924Y25748175D01*
X20229285Y25757552D01*
X20205251Y25762332D01*
X20180747Y25762332D01*
X20156714Y25757551D01*
X20134075Y25748174D01*
X20113701Y25734560D01*
X20096374Y25717233D01*
X20082762Y25696860D01*
X20039244Y25615443D01*
X19967264Y25527736D01*
X19879556Y25455756D01*
X19815600Y25421571D01*
X19779494Y25402272D01*
X19779491Y25402271D01*
X19670915Y25369334D01*
X19558000Y25358213D01*
X19445084Y25369334D01*
X19336508Y25402271D01*
X19336505Y25402272D01*
X19300399Y25421571D01*
X19236443Y25455756D01*
X19148736Y25527736D01*
X19076756Y25615444D01*
X19033239Y25696860D01*
X19023272Y25715506D01*
X19017492Y25734560D01*
X18990334Y25824085D01*
X18982000Y25908703D01*
X18982000Y26415298D01*
X18990334Y26499916D01*
X19023271Y26608492D01*
X19023272Y26608495D01*
X19076756Y26708555D01*
X19076757Y26708557D01*
X19148737Y26796264D01*
X19236444Y26868244D01*
X19300400Y26902429D01*
X19336506Y26921728D01*
X19336509Y26921729D01*
X19445085Y26954666D01*
X19558000Y26965787D01*
X19670916Y26954666D01*
X19779492Y26921729D01*
X19779495Y26921728D01*
X19815601Y26902429D01*
X19879557Y26868244D01*
X19967264Y26796264D01*
X20039244Y26708557D01*
X20082761Y26627141D01*
X20096375Y26606766D01*
X20113702Y26589439D01*
X20134076Y26575826D01*
X20156715Y26566448D01*
X20180748Y26561668D01*
X20205252Y26561668D01*
X20229285Y26566448D01*
X20251924Y26575826D01*
X20272299Y26589440D01*
X20289626Y26606767D01*
X20303239Y26627141D01*
X20346756Y26708555D01*
X20346757Y26708557D01*
X20418737Y26796264D01*
X20506444Y26868244D01*
X20570400Y26902429D01*
X20606506Y26921728D01*
X20606509Y26921729D01*
X20715085Y26954666D01*
X20828000Y26965787D01*
X20940916Y26954666D01*
X20940916Y26954666D01*
G37*
G36*
X14218228Y27488297D02*
G01*
X14373100Y27424147D01*
X14512481Y27331015D01*
X14631015Y27212481D01*
X14724147Y27073100D01*
X14788297Y26918228D01*
X14821000Y26753816D01*
X14821000Y26586184D01*
X14788297Y26421772D01*
X14724147Y26266900D01*
X14631015Y26127519D01*
X14512481Y26008985D01*
X14373100Y25915853D01*
X14218228Y25851703D01*
X14053816Y25819000D01*
X13886184Y25819000D01*
X13721772Y25851703D01*
X13566900Y25915853D01*
X13427519Y26008985D01*
X13308985Y26127519D01*
X13215853Y26266900D01*
X13151703Y26421772D01*
X13119000Y26586184D01*
X13119000Y26753816D01*
X13151703Y26918228D01*
X13215853Y27073100D01*
X13308985Y27212481D01*
X13427519Y27331015D01*
X13566900Y27424147D01*
X13721772Y27488297D01*
X13886184Y27521000D01*
X14053816Y27521000D01*
X14218228Y27488297D01*
X14218228Y27488297D01*
G37*
G36*
X6516823Y27508687D02*
G01*
X6677242Y27460024D01*
X6744361Y27424148D01*
X6825078Y27381004D01*
X6954659Y27274659D01*
X7061004Y27145078D01*
X7061005Y27145076D01*
X7140024Y26997242D01*
X7188687Y26836823D01*
X7205117Y26670000D01*
X7188687Y26503177D01*
X7140024Y26342758D01*
X7099477Y26266900D01*
X7061004Y26194922D01*
X6954659Y26065341D01*
X6825078Y25958996D01*
X6825076Y25958995D01*
X6677242Y25879976D01*
X6516823Y25831313D01*
X6391804Y25819000D01*
X6308196Y25819000D01*
X6183177Y25831313D01*
X6022758Y25879976D01*
X5874924Y25958995D01*
X5874922Y25958996D01*
X5745341Y26065341D01*
X5638996Y26194922D01*
X5600523Y26266900D01*
X5559976Y26342758D01*
X5511313Y26503177D01*
X5494883Y26670000D01*
X5511313Y26836823D01*
X5559976Y26997242D01*
X5638995Y27145076D01*
X5638996Y27145078D01*
X5745341Y27274659D01*
X5874922Y27381004D01*
X5955639Y27424148D01*
X6022758Y27460024D01*
X6183177Y27508687D01*
X6308196Y27521000D01*
X6391804Y27521000D01*
X6516823Y27508687D01*
X6516823Y27508687D01*
G37*
G36*
X6516823Y32080687D02*
G01*
X6677242Y32032024D01*
X6809906Y31961114D01*
X6825078Y31953004D01*
X6954659Y31846659D01*
X7061004Y31717078D01*
X7061005Y31717076D01*
X7140024Y31569242D01*
X7188687Y31408823D01*
X7205117Y31242000D01*
X7188687Y31075177D01*
X7140024Y30914758D01*
X7069114Y30782094D01*
X7061004Y30766922D01*
X6954659Y30637341D01*
X6825078Y30530996D01*
X6825076Y30530995D01*
X6677242Y30451976D01*
X6516823Y30403313D01*
X6391804Y30391000D01*
X6308196Y30391000D01*
X6183177Y30403313D01*
X6022758Y30451976D01*
X5874924Y30530995D01*
X5874922Y30530996D01*
X5745341Y30637341D01*
X5638996Y30766922D01*
X5630886Y30782094D01*
X5559976Y30914758D01*
X5511313Y31075177D01*
X5494883Y31242000D01*
X5511313Y31408823D01*
X5559976Y31569242D01*
X5638995Y31717076D01*
X5638996Y31717078D01*
X5745341Y31846659D01*
X5874922Y31953004D01*
X5890094Y31961114D01*
X6022758Y32032024D01*
X6183177Y32080687D01*
X6308196Y32093000D01*
X6391804Y32093000D01*
X6516823Y32080687D01*
X6516823Y32080687D01*
G37*
G36*
X19647000Y30645000D02*
G01*
X17945000Y30645000D01*
X17945000Y32347000D01*
X19647000Y32347000D01*
X19647000Y30645000D01*
X19647000Y30645000D01*
G37*
G36*
X13551000Y30645000D02*
G01*
X11849000Y30645000D01*
X11849000Y32347000D01*
X13551000Y32347000D01*
X13551000Y30645000D01*
X13551000Y30645000D01*
G37*
G36*
X6598228Y39680297D02*
G01*
X6753100Y39616147D01*
X6892481Y39523015D01*
X7011015Y39404481D01*
X7104147Y39265100D01*
X7168297Y39110228D01*
X7201000Y38945816D01*
X7201000Y38778184D01*
X7168297Y38613772D01*
X7104147Y38458900D01*
X7011015Y38319519D01*
X6892481Y38200985D01*
X6753100Y38107853D01*
X6598228Y38043703D01*
X6433816Y38011000D01*
X6266184Y38011000D01*
X6101772Y38043703D01*
X5946900Y38107853D01*
X5807519Y38200985D01*
X5688985Y38319519D01*
X5595853Y38458900D01*
X5531703Y38613772D01*
X5499000Y38778184D01*
X5499000Y38945816D01*
X5531703Y39110228D01*
X5595853Y39265100D01*
X5688985Y39404481D01*
X5807519Y39523015D01*
X5946900Y39616147D01*
X6101772Y39680297D01*
X6266184Y39713000D01*
X6433816Y39713000D01*
X6598228Y39680297D01*
X6598228Y39680297D01*
G37*
G36*
X12866823Y39954687D02*
G01*
X13027242Y39906024D01*
X13159906Y39835114D01*
X13175078Y39827004D01*
X13304659Y39720659D01*
X13411004Y39591078D01*
X13411005Y39591076D01*
X13490024Y39443242D01*
X13538687Y39282823D01*
X13555117Y39116000D01*
X13538687Y38949177D01*
X13490024Y38788758D01*
X13484372Y38778184D01*
X13411004Y38640922D01*
X13304659Y38511341D01*
X13175078Y38404996D01*
X13175076Y38404995D01*
X13027242Y38325976D01*
X12866823Y38277313D01*
X12741804Y38265000D01*
X12658196Y38265000D01*
X12533177Y38277313D01*
X12372758Y38325976D01*
X12224924Y38404995D01*
X12224922Y38404996D01*
X12095341Y38511341D01*
X11988996Y38640922D01*
X11915628Y38778184D01*
X11909976Y38788758D01*
X11861313Y38949177D01*
X11844883Y39116000D01*
X11861313Y39282823D01*
X11909976Y39443242D01*
X11988995Y39591076D01*
X11988996Y39591078D01*
X12095341Y39720659D01*
X12224922Y39827004D01*
X12240094Y39835114D01*
X12372758Y39906024D01*
X12533177Y39954687D01*
X12658196Y39967000D01*
X12741804Y39967000D01*
X12866823Y39954687D01*
X12866823Y39954687D01*
G37*
G36*
X18962823Y39954687D02*
G01*
X19123242Y39906024D01*
X19255906Y39835114D01*
X19271078Y39827004D01*
X19400659Y39720659D01*
X19507004Y39591078D01*
X19507005Y39591076D01*
X19586024Y39443242D01*
X19634687Y39282823D01*
X19651117Y39116000D01*
X19634687Y38949177D01*
X19586024Y38788758D01*
X19580372Y38778184D01*
X19507004Y38640922D01*
X19400659Y38511341D01*
X19271078Y38404996D01*
X19271076Y38404995D01*
X19123242Y38325976D01*
X18962823Y38277313D01*
X18837804Y38265000D01*
X18754196Y38265000D01*
X18629177Y38277313D01*
X18468758Y38325976D01*
X18320924Y38404995D01*
X18320922Y38404996D01*
X18191341Y38511341D01*
X18084996Y38640922D01*
X18011628Y38778184D01*
X18005976Y38788758D01*
X17957313Y38949177D01*
X17940883Y39116000D01*
X17957313Y39282823D01*
X18005976Y39443242D01*
X18084995Y39591076D01*
X18084996Y39591078D01*
X18191341Y39720659D01*
X18320922Y39827004D01*
X18336094Y39835114D01*
X18468758Y39906024D01*
X18629177Y39954687D01*
X18754196Y39967000D01*
X18837804Y39967000D01*
X18962823Y39954687D01*
X18962823Y39954687D01*
G37*
G36*
X7201000Y42329000D02*
G01*
X5499000Y42329000D01*
X5499000Y44031000D01*
X7201000Y44031000D01*
X7201000Y42329000D01*
X7201000Y42329000D01*
G37*
G36*
X12948228Y44252297D02*
G01*
X13103100Y44188147D01*
X13242481Y44095015D01*
X13361015Y43976481D01*
X13454147Y43837100D01*
X13518297Y43682228D01*
X13551000Y43517816D01*
X13551000Y43350184D01*
X13518297Y43185772D01*
X13454147Y43030900D01*
X13361015Y42891519D01*
X13242481Y42772985D01*
X13103100Y42679853D01*
X12948228Y42615703D01*
X12783816Y42583000D01*
X12616184Y42583000D01*
X12451772Y42615703D01*
X12296900Y42679853D01*
X12157519Y42772985D01*
X12038985Y42891519D01*
X11945853Y43030900D01*
X11881703Y43185772D01*
X11849000Y43350184D01*
X11849000Y43517816D01*
X11881703Y43682228D01*
X11945853Y43837100D01*
X12038985Y43976481D01*
X12157519Y44095015D01*
X12296900Y44188147D01*
X12451772Y44252297D01*
X12616184Y44285000D01*
X12783816Y44285000D01*
X12948228Y44252297D01*
X12948228Y44252297D01*
G37*
G36*
X19044228Y44252297D02*
G01*
X19199100Y44188147D01*
X19338481Y44095015D01*
X19457015Y43976481D01*
X19550147Y43837100D01*
X19614297Y43682228D01*
X19647000Y43517816D01*
X19647000Y43350184D01*
X19614297Y43185772D01*
X19550147Y43030900D01*
X19457015Y42891519D01*
X19338481Y42772985D01*
X19199100Y42679853D01*
X19044228Y42615703D01*
X18879816Y42583000D01*
X18712184Y42583000D01*
X18547772Y42615703D01*
X18392900Y42679853D01*
X18253519Y42772985D01*
X18134985Y42891519D01*
X18041853Y43030900D01*
X17977703Y43185772D01*
X17945000Y43350184D01*
X17945000Y43517816D01*
X17977703Y43682228D01*
X18041853Y43837100D01*
X18134985Y43976481D01*
X18253519Y44095015D01*
X18392900Y44188147D01*
X18547772Y44252297D01*
X18712184Y44285000D01*
X18879816Y44285000D01*
X19044228Y44252297D01*
X19044228Y44252297D01*
G37*
G36*
X6516823Y51638687D02*
G01*
X6677242Y51590024D01*
X6809906Y51519114D01*
X6825078Y51511004D01*
X6954659Y51404659D01*
X7061004Y51275078D01*
X7061005Y51275076D01*
X7140024Y51127242D01*
X7188687Y50966823D01*
X7205117Y50800000D01*
X7188687Y50633177D01*
X7140024Y50472758D01*
X7127507Y50449341D01*
X7061004Y50324922D01*
X6954659Y50195341D01*
X6825078Y50088996D01*
X6825076Y50088995D01*
X6677242Y50009976D01*
X6516823Y49961313D01*
X6391804Y49949000D01*
X6308196Y49949000D01*
X6183177Y49961313D01*
X6022758Y50009976D01*
X5874924Y50088995D01*
X5874922Y50088996D01*
X5745341Y50195341D01*
X5638996Y50324922D01*
X5572493Y50449341D01*
X5559976Y50472758D01*
X5511313Y50633177D01*
X5494883Y50800000D01*
X5511313Y50966823D01*
X5559976Y51127242D01*
X5638995Y51275076D01*
X5638996Y51275078D01*
X5745341Y51404659D01*
X5874922Y51511004D01*
X5890094Y51519114D01*
X6022758Y51590024D01*
X6183177Y51638687D01*
X6308196Y51651000D01*
X6391804Y51651000D01*
X6516823Y51638687D01*
X6516823Y51638687D01*
G37*
G36*
X18962823Y51892687D02*
G01*
X19123242Y51844024D01*
X19255906Y51773114D01*
X19271078Y51765004D01*
X19400659Y51658659D01*
X19507004Y51529078D01*
X19507005Y51529076D01*
X19586024Y51381242D01*
X19634687Y51220823D01*
X19651117Y51054000D01*
X19634687Y50887177D01*
X19586024Y50726758D01*
X19536004Y50633177D01*
X19507004Y50578922D01*
X19400659Y50449341D01*
X19271078Y50342996D01*
X19271076Y50342995D01*
X19123242Y50263976D01*
X18962823Y50215313D01*
X18837804Y50203000D01*
X18754196Y50203000D01*
X18629177Y50215313D01*
X18468758Y50263976D01*
X18320924Y50342995D01*
X18320922Y50342996D01*
X18191341Y50449341D01*
X18084996Y50578922D01*
X18055996Y50633177D01*
X18005976Y50726758D01*
X17957313Y50887177D01*
X17940883Y51054000D01*
X17957313Y51220823D01*
X18005976Y51381242D01*
X18084995Y51529076D01*
X18084996Y51529078D01*
X18191341Y51658659D01*
X18320922Y51765004D01*
X18336094Y51773114D01*
X18468758Y51844024D01*
X18629177Y51892687D01*
X18754196Y51905000D01*
X18837804Y51905000D01*
X18962823Y51892687D01*
X18962823Y51892687D01*
G37*
G36*
X12866823Y51892687D02*
G01*
X13027242Y51844024D01*
X13159906Y51773114D01*
X13175078Y51765004D01*
X13304659Y51658659D01*
X13411004Y51529078D01*
X13411005Y51529076D01*
X13490024Y51381242D01*
X13538687Y51220823D01*
X13555117Y51054000D01*
X13538687Y50887177D01*
X13490024Y50726758D01*
X13440004Y50633177D01*
X13411004Y50578922D01*
X13304659Y50449341D01*
X13175078Y50342996D01*
X13175076Y50342995D01*
X13027242Y50263976D01*
X12866823Y50215313D01*
X12741804Y50203000D01*
X12658196Y50203000D01*
X12533177Y50215313D01*
X12372758Y50263976D01*
X12224924Y50342995D01*
X12224922Y50342996D01*
X12095341Y50449341D01*
X11988996Y50578922D01*
X11959996Y50633177D01*
X11909976Y50726758D01*
X11861313Y50887177D01*
X11844883Y51054000D01*
X11861313Y51220823D01*
X11909976Y51381242D01*
X11988995Y51529076D01*
X11988996Y51529078D01*
X12095341Y51658659D01*
X12224922Y51765004D01*
X12240094Y51773114D01*
X12372758Y51844024D01*
X12533177Y51892687D01*
X12658196Y51905000D01*
X12741804Y51905000D01*
X12866823Y51892687D01*
X12866823Y51892687D01*
G37*
G36*
X10250228Y56190297D02*
G01*
X10405100Y56126147D01*
X10544481Y56033015D01*
X10663015Y55914481D01*
X10756147Y55775100D01*
X10820297Y55620228D01*
X10853000Y55455816D01*
X10853000Y55288184D01*
X10820297Y55123772D01*
X10756147Y54968900D01*
X10663015Y54829519D01*
X10544481Y54710985D01*
X10405100Y54617853D01*
X10250228Y54553703D01*
X10085816Y54521000D01*
X9918184Y54521000D01*
X9753772Y54553703D01*
X9598900Y54617853D01*
X9459519Y54710985D01*
X9340985Y54829519D01*
X9247853Y54968900D01*
X9183703Y55123772D01*
X9151000Y55288184D01*
X9151000Y55455816D01*
X9183703Y55620228D01*
X9247853Y55775100D01*
X9340985Y55914481D01*
X9459519Y56033015D01*
X9598900Y56126147D01*
X9753772Y56190297D01*
X9918184Y56223000D01*
X10085816Y56223000D01*
X10250228Y56190297D01*
X10250228Y56190297D01*
G37*
G36*
X21933000Y54521000D02*
G01*
X20231000Y54521000D01*
X20231000Y56223000D01*
X21933000Y56223000D01*
X21933000Y54521000D01*
X21933000Y54521000D01*
G37*
G36*
X18560228Y56190297D02*
G01*
X18715100Y56126147D01*
X18854481Y56033015D01*
X18973015Y55914481D01*
X19066147Y55775100D01*
X19130297Y55620228D01*
X19163000Y55455816D01*
X19163000Y55288184D01*
X19130297Y55123772D01*
X19066147Y54968900D01*
X18973015Y54829519D01*
X18854481Y54710985D01*
X18715100Y54617853D01*
X18560228Y54553703D01*
X18395816Y54521000D01*
X18228184Y54521000D01*
X18063772Y54553703D01*
X17908900Y54617853D01*
X17769519Y54710985D01*
X17650985Y54829519D01*
X17557853Y54968900D01*
X17493703Y55123772D01*
X17461000Y55288184D01*
X17461000Y55455816D01*
X17493703Y55620228D01*
X17557853Y55775100D01*
X17650985Y55914481D01*
X17769519Y56033015D01*
X17908900Y56126147D01*
X18063772Y56190297D01*
X18228184Y56223000D01*
X18395816Y56223000D01*
X18560228Y56190297D01*
X18560228Y56190297D01*
G37*
G36*
X15790228Y56190297D02*
G01*
X15945100Y56126147D01*
X16084481Y56033015D01*
X16203015Y55914481D01*
X16296147Y55775100D01*
X16360297Y55620228D01*
X16393000Y55455816D01*
X16393000Y55288184D01*
X16360297Y55123772D01*
X16296147Y54968900D01*
X16203015Y54829519D01*
X16084481Y54710985D01*
X15945100Y54617853D01*
X15790228Y54553703D01*
X15625816Y54521000D01*
X15458184Y54521000D01*
X15293772Y54553703D01*
X15138900Y54617853D01*
X14999519Y54710985D01*
X14880985Y54829519D01*
X14787853Y54968900D01*
X14723703Y55123772D01*
X14691000Y55288184D01*
X14691000Y55455816D01*
X14723703Y55620228D01*
X14787853Y55775100D01*
X14880985Y55914481D01*
X14999519Y56033015D01*
X15138900Y56126147D01*
X15293772Y56190297D01*
X15458184Y56223000D01*
X15625816Y56223000D01*
X15790228Y56190297D01*
X15790228Y56190297D01*
G37*
G36*
X13020228Y56190297D02*
G01*
X13175100Y56126147D01*
X13314481Y56033015D01*
X13433015Y55914481D01*
X13526147Y55775100D01*
X13590297Y55620228D01*
X13623000Y55455816D01*
X13623000Y55288184D01*
X13590297Y55123772D01*
X13526147Y54968900D01*
X13433015Y54829519D01*
X13314481Y54710985D01*
X13175100Y54617853D01*
X13020228Y54553703D01*
X12855816Y54521000D01*
X12688184Y54521000D01*
X12523772Y54553703D01*
X12368900Y54617853D01*
X12229519Y54710985D01*
X12110985Y54829519D01*
X12017853Y54968900D01*
X11953703Y55123772D01*
X11921000Y55288184D01*
X11921000Y55455816D01*
X11953703Y55620228D01*
X12017853Y55775100D01*
X12110985Y55914481D01*
X12229519Y56033015D01*
X12368900Y56126147D01*
X12523772Y56190297D01*
X12688184Y56223000D01*
X12855816Y56223000D01*
X13020228Y56190297D01*
X13020228Y56190297D01*
G37*
G36*
X19945228Y58730297D02*
G01*
X20100100Y58666147D01*
X20239481Y58573015D01*
X20358015Y58454481D01*
X20451147Y58315100D01*
X20515297Y58160228D01*
X20548000Y57995816D01*
X20548000Y57828184D01*
X20515297Y57663772D01*
X20451147Y57508900D01*
X20358015Y57369519D01*
X20239481Y57250985D01*
X20100100Y57157853D01*
X19945228Y57093703D01*
X19780816Y57061000D01*
X19613184Y57061000D01*
X19448772Y57093703D01*
X19293900Y57157853D01*
X19154519Y57250985D01*
X19035985Y57369519D01*
X18942853Y57508900D01*
X18878703Y57663772D01*
X18846000Y57828184D01*
X18846000Y57995816D01*
X18878703Y58160228D01*
X18942853Y58315100D01*
X19035985Y58454481D01*
X19154519Y58573015D01*
X19293900Y58666147D01*
X19448772Y58730297D01*
X19613184Y58763000D01*
X19780816Y58763000D01*
X19945228Y58730297D01*
X19945228Y58730297D01*
G37*
G36*
X17175228Y58730297D02*
G01*
X17330100Y58666147D01*
X17469481Y58573015D01*
X17588015Y58454481D01*
X17681147Y58315100D01*
X17745297Y58160228D01*
X17778000Y57995816D01*
X17778000Y57828184D01*
X17745297Y57663772D01*
X17681147Y57508900D01*
X17588015Y57369519D01*
X17469481Y57250985D01*
X17330100Y57157853D01*
X17175228Y57093703D01*
X17010816Y57061000D01*
X16843184Y57061000D01*
X16678772Y57093703D01*
X16523900Y57157853D01*
X16384519Y57250985D01*
X16265985Y57369519D01*
X16172853Y57508900D01*
X16108703Y57663772D01*
X16076000Y57828184D01*
X16076000Y57995816D01*
X16108703Y58160228D01*
X16172853Y58315100D01*
X16265985Y58454481D01*
X16384519Y58573015D01*
X16523900Y58666147D01*
X16678772Y58730297D01*
X16843184Y58763000D01*
X17010816Y58763000D01*
X17175228Y58730297D01*
X17175228Y58730297D01*
G37*
G36*
X14405228Y58730297D02*
G01*
X14560100Y58666147D01*
X14699481Y58573015D01*
X14818015Y58454481D01*
X14911147Y58315100D01*
X14975297Y58160228D01*
X15008000Y57995816D01*
X15008000Y57828184D01*
X14975297Y57663772D01*
X14911147Y57508900D01*
X14818015Y57369519D01*
X14699481Y57250985D01*
X14560100Y57157853D01*
X14405228Y57093703D01*
X14240816Y57061000D01*
X14073184Y57061000D01*
X13908772Y57093703D01*
X13753900Y57157853D01*
X13614519Y57250985D01*
X13495985Y57369519D01*
X13402853Y57508900D01*
X13338703Y57663772D01*
X13306000Y57828184D01*
X13306000Y57995816D01*
X13338703Y58160228D01*
X13402853Y58315100D01*
X13495985Y58454481D01*
X13614519Y58573015D01*
X13753900Y58666147D01*
X13908772Y58730297D01*
X14073184Y58763000D01*
X14240816Y58763000D01*
X14405228Y58730297D01*
X14405228Y58730297D01*
G37*
G36*
X11635228Y58730297D02*
G01*
X11790100Y58666147D01*
X11929481Y58573015D01*
X12048015Y58454481D01*
X12141147Y58315100D01*
X12205297Y58160228D01*
X12238000Y57995816D01*
X12238000Y57828184D01*
X12205297Y57663772D01*
X12141147Y57508900D01*
X12048015Y57369519D01*
X11929481Y57250985D01*
X11790100Y57157853D01*
X11635228Y57093703D01*
X11470816Y57061000D01*
X11303184Y57061000D01*
X11138772Y57093703D01*
X10983900Y57157853D01*
X10844519Y57250985D01*
X10725985Y57369519D01*
X10632853Y57508900D01*
X10568703Y57663772D01*
X10536000Y57828184D01*
X10536000Y57995816D01*
X10568703Y58160228D01*
X10632853Y58315100D01*
X10725985Y58454481D01*
X10844519Y58573015D01*
X10983900Y58666147D01*
X11138772Y58730297D01*
X11303184Y58763000D01*
X11470816Y58763000D01*
X11635228Y58730297D01*
X11635228Y58730297D01*
G37*
M02*
