G04 #@! TF.GenerationSoftware,KiCad,Pcbnew,5.1.4-3.fc30*
G04 #@! TF.CreationDate,2019-10-13T14:01:56+02:00*
G04 #@! TF.ProjectId,dasa-3,64617361-2d33-42e6-9b69-6361645f7063,1.0*
G04 #@! TF.SameCoordinates,PX6f2f610PY6a57250*
G04 #@! TF.FileFunction,Legend,Bot*
G04 #@! TF.FilePolarity,Positive*
%FSLAX46Y46*%
G04 Gerber Fmt 4.6, Leading zero omitted, Abs format (unit mm)*
G04 Created by KiCad (PCBNEW 5.1.4-3.fc30) date 2019-10-13 14:01:56*
%MOMM*%
%LPD*%
G04 APERTURE LIST*
%ADD10C,1.702000*%
%ADD11R,1.702000X1.702000*%
%ADD12O,1.702000X1.702000*%
%ADD13R,1.829200X1.829200*%
%ADD14O,1.829200X1.829200*%
%ADD15O,1.152000X1.602000*%
%ADD16R,1.152000X1.602000*%
G04 APERTURE END LIST*
%LPC*%
D10*
X11387000Y57912000D03*
X14157000Y57912000D03*
X16927000Y57912000D03*
X19697000Y57912000D03*
X10002000Y55372000D03*
X12772000Y55372000D03*
X15542000Y55372000D03*
X18312000Y55372000D03*
D11*
X21082000Y55372000D03*
D12*
X6350000Y50800000D03*
D11*
X6350000Y43180000D03*
X18796000Y31496000D03*
D12*
X18796000Y39116000D03*
D11*
X12700000Y31496000D03*
D12*
X12700000Y39116000D03*
D13*
X20320000Y18288000D03*
D14*
X20320000Y15748000D03*
X17780000Y18288000D03*
X17780000Y15748000D03*
X15240000Y18288000D03*
X15240000Y15748000D03*
X12700000Y18288000D03*
X12700000Y15748000D03*
X10160000Y18288000D03*
X10160000Y15748000D03*
D13*
X15240000Y5080000D03*
D14*
X15240000Y7620000D03*
X17780000Y5080000D03*
X17780000Y7620000D03*
X20320000Y5080000D03*
X20320000Y7620000D03*
D15*
X20828000Y26162000D03*
X19558000Y26162000D03*
D16*
X22098000Y26162000D03*
D10*
X6350000Y38862000D03*
D12*
X6350000Y31242000D03*
X18796000Y51054000D03*
D10*
X18796000Y43434000D03*
D12*
X12700000Y51054000D03*
D10*
X12700000Y43434000D03*
X13970000Y26670000D03*
D12*
X6350000Y26670000D03*
D10*
X3810000Y10160000D03*
D12*
X3810000Y2540000D03*
M02*
