G04 #@! TF.GenerationSoftware,KiCad,Pcbnew,5.1.4-3.fc30*
G04 #@! TF.CreationDate,2019-10-13T14:01:56+02:00*
G04 #@! TF.ProjectId,dasa-3,64617361-2d33-42e6-9b69-6361645f7063,1.0*
G04 #@! TF.SameCoordinates,PX6f2f610PY6a57250*
G04 #@! TF.FileFunction,Other,User*
%FSLAX46Y46*%
G04 Gerber Fmt 4.6, Leading zero omitted, Abs format (unit mm)*
G04 Created by KiCad (PCBNEW 5.1.4-3.fc30) date 2019-10-13 14:01:56*
%MOMM*%
%LPD*%
G04 APERTURE LIST*
%ADD10C,0.050000*%
G04 APERTURE END LIST*
D10*
X6882000Y74222000D02*
X24232000Y74222000D01*
X6882000Y68222000D02*
X6882000Y74222000D01*
X-418000Y68222000D02*
X6882000Y68222000D01*
X-418000Y66822000D02*
X-418000Y68222000D01*
X6482000Y66822000D02*
X-418000Y66822000D01*
X6482000Y62722000D02*
X6482000Y66822000D01*
X8682000Y62722000D02*
X6482000Y62722000D01*
X8682000Y54022000D02*
X8682000Y62722000D01*
X22382000Y54022000D02*
X8682000Y54022000D01*
X22382000Y62722000D02*
X22382000Y54022000D01*
X24632000Y62722000D02*
X22382000Y62722000D01*
X24632000Y66822000D02*
X24632000Y62722000D01*
X31482000Y66822000D02*
X24632000Y66822000D01*
X31482000Y68222000D02*
X31482000Y66822000D01*
X24232000Y68222000D02*
X31482000Y68222000D01*
X24232000Y74222000D02*
X24232000Y68222000D01*
X5100000Y51850000D02*
X5100000Y42130000D01*
X7600000Y51850000D02*
X5100000Y51850000D01*
X7600000Y42130000D02*
X7600000Y51850000D01*
X5100000Y42130000D02*
X7600000Y42130000D01*
X17546000Y30446000D02*
X20046000Y30446000D01*
X20046000Y30446000D02*
X20046000Y40166000D01*
X20046000Y40166000D02*
X17546000Y40166000D01*
X17546000Y40166000D02*
X17546000Y30446000D01*
X11450000Y30446000D02*
X13950000Y30446000D01*
X13950000Y30446000D02*
X13950000Y40166000D01*
X13950000Y40166000D02*
X11450000Y40166000D01*
X11450000Y40166000D02*
X11450000Y30446000D01*
X25670000Y12338000D02*
X4810000Y12338000D01*
X4810000Y12338000D02*
X4810000Y21698000D01*
X4810000Y21698000D02*
X25670000Y21698000D01*
X25670000Y21698000D02*
X25670000Y12338000D01*
X9890000Y11030000D02*
X25670000Y11030000D01*
X25670000Y11030000D02*
X25670000Y1670000D01*
X25670000Y1670000D02*
X9890000Y1670000D01*
X9890000Y1670000D02*
X9890000Y11030000D01*
X23558000Y23432000D02*
X18098000Y23432000D01*
X23558000Y23432000D02*
X23558000Y28172000D01*
X18098000Y28172000D02*
X18098000Y23432000D01*
X18098000Y28172000D02*
X23558000Y28172000D01*
X7850000Y39912000D02*
X4850000Y39912000D01*
X4850000Y39912000D02*
X4850000Y30192000D01*
X4850000Y30192000D02*
X7850000Y30192000D01*
X7850000Y30192000D02*
X7850000Y39912000D01*
X17296000Y52104000D02*
X17296000Y42384000D01*
X20296000Y52104000D02*
X17296000Y52104000D01*
X20296000Y42384000D02*
X20296000Y52104000D01*
X17296000Y42384000D02*
X20296000Y42384000D01*
X11200000Y52104000D02*
X11200000Y42384000D01*
X14200000Y52104000D02*
X11200000Y52104000D01*
X14200000Y42384000D02*
X14200000Y52104000D01*
X11200000Y42384000D02*
X14200000Y42384000D01*
X15020000Y25170000D02*
X15020000Y28170000D01*
X15020000Y28170000D02*
X5300000Y28170000D01*
X5300000Y28170000D02*
X5300000Y25170000D01*
X5300000Y25170000D02*
X15020000Y25170000D01*
X5310000Y11210000D02*
X2310000Y11210000D01*
X2310000Y11210000D02*
X2310000Y1490000D01*
X2310000Y1490000D02*
X5310000Y1490000D01*
X5310000Y1490000D02*
X5310000Y11210000D01*
M02*
