%TF.GenerationSoftware,KiCad,Pcbnew,5.1.4-3.fc30*%
%TF.CreationDate,2019-10-13T13:52:24+02:00*%
%TF.ProjectId,bsd_programmer,6273645f-7072-46f6-9772-616d6d65722e,1.0*%
%TF.SameCoordinates,PX7eea3c0PY70276d0*%
%TF.FileFunction,Legend,Top*%
%TF.FilePolarity,Positive*%
%FSLAX46Y46*%
G04 Gerber Fmt 4.6, Leading zero omitted, Abs format (unit mm)*
G04 Created by KiCad (PCBNEW 5.1.4-3.fc30) date 2019-10-13 13:52:24*
%MOMM*%
%LPD*%
G04 APERTURE LIST*
%ADD10C,0.120000*%
%ADD11C,0.150000*%
%ADD12C,2.602000*%
%ADD13R,1.702000X1.702000*%
%ADD14C,1.702000*%
%ADD15R,1.829200X1.829200*%
%ADD16O,1.829200X1.829200*%
%ADD17O,1.702000X1.702000*%
G04 APERTURE END LIST*
D10*
%TO.C,J1*%
X328000Y46932000D02*
X4428000Y46932000D01*
X4428000Y46932000D02*
X4428000Y45002000D01*
X4428000Y45002000D02*
X13268000Y45002000D01*
X13268000Y45002000D02*
X13268000Y9642000D01*
X13268000Y9642000D02*
X4428000Y9642000D01*
X4428000Y9642000D02*
X4428000Y7712000D01*
X4428000Y7712000D02*
X328000Y7712000D01*
X13962338Y44192000D02*
X13962338Y43692000D01*
X13962338Y43692000D02*
X13529325Y43942000D01*
X13529325Y43942000D02*
X13962338Y44192000D01*
%TO.C,J2*%
X49395000Y36338000D02*
X49395000Y15478000D01*
X49395000Y15478000D02*
X40045000Y15478000D01*
X40045000Y15478000D02*
X40045000Y36338000D01*
X40045000Y36338000D02*
X49395000Y36338000D01*
X39795000Y36588000D02*
X39795000Y34048000D01*
X39795000Y36588000D02*
X42335000Y36588000D01*
%TO.C,R1*%
X28432000Y47652000D02*
X28432000Y50392000D01*
X28432000Y50392000D02*
X21892000Y50392000D01*
X21892000Y50392000D02*
X21892000Y47652000D01*
X21892000Y47652000D02*
X28432000Y47652000D01*
X29202000Y49022000D02*
X28432000Y49022000D01*
X21122000Y49022000D02*
X21892000Y49022000D01*
%TO.C,R2*%
X20868000Y42926000D02*
X21638000Y42926000D01*
X28948000Y42926000D02*
X28178000Y42926000D01*
X21638000Y41556000D02*
X28178000Y41556000D01*
X21638000Y44296000D02*
X21638000Y41556000D01*
X28178000Y44296000D02*
X21638000Y44296000D01*
X28178000Y41556000D02*
X28178000Y44296000D01*
%TO.C,R3*%
X28178000Y35714000D02*
X28178000Y38454000D01*
X28178000Y38454000D02*
X21638000Y38454000D01*
X21638000Y38454000D02*
X21638000Y35714000D01*
X21638000Y35714000D02*
X28178000Y35714000D01*
X28948000Y37084000D02*
X28178000Y37084000D01*
X20868000Y37084000D02*
X21638000Y37084000D01*
%TO.C,R4*%
X20868000Y30988000D02*
X21638000Y30988000D01*
X28948000Y30988000D02*
X28178000Y30988000D01*
X21638000Y29618000D02*
X28178000Y29618000D01*
X21638000Y32358000D02*
X21638000Y29618000D01*
X28178000Y32358000D02*
X21638000Y32358000D01*
X28178000Y29618000D02*
X28178000Y32358000D01*
%TO.C,R5*%
X28178000Y5742000D02*
X28178000Y8482000D01*
X28178000Y8482000D02*
X21638000Y8482000D01*
X21638000Y8482000D02*
X21638000Y5742000D01*
X21638000Y5742000D02*
X28178000Y5742000D01*
X28948000Y7112000D02*
X28178000Y7112000D01*
X20868000Y7112000D02*
X21638000Y7112000D01*
%TO.C,R6*%
X20868000Y13208000D02*
X21638000Y13208000D01*
X28948000Y13208000D02*
X28178000Y13208000D01*
X21638000Y11838000D02*
X28178000Y11838000D01*
X21638000Y14578000D02*
X21638000Y11838000D01*
X28178000Y14578000D02*
X21638000Y14578000D01*
X28178000Y11838000D02*
X28178000Y14578000D01*
%TO.C,R7*%
X28178000Y17934000D02*
X28178000Y20674000D01*
X28178000Y20674000D02*
X21638000Y20674000D01*
X21638000Y20674000D02*
X21638000Y17934000D01*
X21638000Y17934000D02*
X28178000Y17934000D01*
X28948000Y19304000D02*
X28178000Y19304000D01*
X20868000Y19304000D02*
X21638000Y19304000D01*
%TO.C,R8*%
X20868000Y25400000D02*
X21638000Y25400000D01*
X28948000Y25400000D02*
X28178000Y25400000D01*
X21638000Y24030000D02*
X28178000Y24030000D01*
X21638000Y26770000D02*
X21638000Y24030000D01*
X28178000Y26770000D02*
X21638000Y26770000D01*
X28178000Y24030000D02*
X28178000Y26770000D01*
%TO.C,H1*%
D11*
X43958095Y8889620D02*
X43958095Y9889620D01*
X43958095Y9413429D02*
X44529523Y9413429D01*
X44529523Y8889620D02*
X44529523Y9889620D01*
X45529523Y8889620D02*
X44958095Y8889620D01*
X45243809Y8889620D02*
X45243809Y9889620D01*
X45148571Y9746762D01*
X45053333Y9651524D01*
X44958095Y9603905D01*
X43958095Y52069620D02*
X43958095Y53069620D01*
X43958095Y52593429D02*
X44529523Y52593429D01*
X44529523Y52069620D02*
X44529523Y53069620D01*
X45529523Y52069620D02*
X44958095Y52069620D01*
X45243809Y52069620D02*
X45243809Y53069620D01*
X45148571Y52926762D01*
X45053333Y52831524D01*
X44958095Y52783905D01*
%TO.C,J1*%
X13460380Y26988667D02*
X14174666Y26988667D01*
X14317523Y26941048D01*
X14412761Y26845810D01*
X14460380Y26702953D01*
X14460380Y26607715D01*
X14460380Y27988667D02*
X14460380Y27417239D01*
X14460380Y27702953D02*
X13460380Y27702953D01*
X13603238Y27607715D01*
X13698476Y27512477D01*
X13746095Y27417239D01*
%TO.C,J2*%
X44386666Y38139620D02*
X44386666Y37425334D01*
X44339047Y37282477D01*
X44243809Y37187239D01*
X44100952Y37139620D01*
X44005714Y37139620D01*
X44815238Y38044381D02*
X44862857Y38092000D01*
X44958095Y38139620D01*
X45196190Y38139620D01*
X45291428Y38092000D01*
X45339047Y38044381D01*
X45386666Y37949143D01*
X45386666Y37853905D01*
X45339047Y37711048D01*
X44767619Y37139620D01*
X45386666Y37139620D01*
%TO.C,R1*%
X24995333Y46199620D02*
X24662000Y46675810D01*
X24423904Y46199620D02*
X24423904Y47199620D01*
X24804857Y47199620D01*
X24900095Y47152000D01*
X24947714Y47104381D01*
X24995333Y47009143D01*
X24995333Y46866286D01*
X24947714Y46771048D01*
X24900095Y46723429D01*
X24804857Y46675810D01*
X24423904Y46675810D01*
X25947714Y46199620D02*
X25376285Y46199620D01*
X25662000Y46199620D02*
X25662000Y47199620D01*
X25566761Y47056762D01*
X25471523Y46961524D01*
X25376285Y46913905D01*
%TO.C,R2*%
X24741333Y40103620D02*
X24408000Y40579810D01*
X24169904Y40103620D02*
X24169904Y41103620D01*
X24550857Y41103620D01*
X24646095Y41056000D01*
X24693714Y41008381D01*
X24741333Y40913143D01*
X24741333Y40770286D01*
X24693714Y40675048D01*
X24646095Y40627429D01*
X24550857Y40579810D01*
X24169904Y40579810D01*
X25122285Y41008381D02*
X25169904Y41056000D01*
X25265142Y41103620D01*
X25503238Y41103620D01*
X25598476Y41056000D01*
X25646095Y41008381D01*
X25693714Y40913143D01*
X25693714Y40817905D01*
X25646095Y40675048D01*
X25074666Y40103620D01*
X25693714Y40103620D01*
%TO.C,R3*%
X24741333Y34261620D02*
X24408000Y34737810D01*
X24169904Y34261620D02*
X24169904Y35261620D01*
X24550857Y35261620D01*
X24646095Y35214000D01*
X24693714Y35166381D01*
X24741333Y35071143D01*
X24741333Y34928286D01*
X24693714Y34833048D01*
X24646095Y34785429D01*
X24550857Y34737810D01*
X24169904Y34737810D01*
X25074666Y35261620D02*
X25693714Y35261620D01*
X25360380Y34880667D01*
X25503238Y34880667D01*
X25598476Y34833048D01*
X25646095Y34785429D01*
X25693714Y34690191D01*
X25693714Y34452096D01*
X25646095Y34356858D01*
X25598476Y34309239D01*
X25503238Y34261620D01*
X25217523Y34261620D01*
X25122285Y34309239D01*
X25074666Y34356858D01*
%TO.C,R4*%
X24741333Y28165620D02*
X24408000Y28641810D01*
X24169904Y28165620D02*
X24169904Y29165620D01*
X24550857Y29165620D01*
X24646095Y29118000D01*
X24693714Y29070381D01*
X24741333Y28975143D01*
X24741333Y28832286D01*
X24693714Y28737048D01*
X24646095Y28689429D01*
X24550857Y28641810D01*
X24169904Y28641810D01*
X25598476Y28832286D02*
X25598476Y28165620D01*
X25360380Y29213239D02*
X25122285Y28498953D01*
X25741333Y28498953D01*
%TO.C,R5*%
X24741333Y4289620D02*
X24408000Y4765810D01*
X24169904Y4289620D02*
X24169904Y5289620D01*
X24550857Y5289620D01*
X24646095Y5242000D01*
X24693714Y5194381D01*
X24741333Y5099143D01*
X24741333Y4956286D01*
X24693714Y4861048D01*
X24646095Y4813429D01*
X24550857Y4765810D01*
X24169904Y4765810D01*
X25646095Y5289620D02*
X25169904Y5289620D01*
X25122285Y4813429D01*
X25169904Y4861048D01*
X25265142Y4908667D01*
X25503238Y4908667D01*
X25598476Y4861048D01*
X25646095Y4813429D01*
X25693714Y4718191D01*
X25693714Y4480096D01*
X25646095Y4384858D01*
X25598476Y4337239D01*
X25503238Y4289620D01*
X25265142Y4289620D01*
X25169904Y4337239D01*
X25122285Y4384858D01*
%TO.C,R6*%
X24741333Y10385620D02*
X24408000Y10861810D01*
X24169904Y10385620D02*
X24169904Y11385620D01*
X24550857Y11385620D01*
X24646095Y11338000D01*
X24693714Y11290381D01*
X24741333Y11195143D01*
X24741333Y11052286D01*
X24693714Y10957048D01*
X24646095Y10909429D01*
X24550857Y10861810D01*
X24169904Y10861810D01*
X25598476Y11385620D02*
X25408000Y11385620D01*
X25312761Y11338000D01*
X25265142Y11290381D01*
X25169904Y11147524D01*
X25122285Y10957048D01*
X25122285Y10576096D01*
X25169904Y10480858D01*
X25217523Y10433239D01*
X25312761Y10385620D01*
X25503238Y10385620D01*
X25598476Y10433239D01*
X25646095Y10480858D01*
X25693714Y10576096D01*
X25693714Y10814191D01*
X25646095Y10909429D01*
X25598476Y10957048D01*
X25503238Y11004667D01*
X25312761Y11004667D01*
X25217523Y10957048D01*
X25169904Y10909429D01*
X25122285Y10814191D01*
%TO.C,R7*%
X24741333Y16481620D02*
X24408000Y16957810D01*
X24169904Y16481620D02*
X24169904Y17481620D01*
X24550857Y17481620D01*
X24646095Y17434000D01*
X24693714Y17386381D01*
X24741333Y17291143D01*
X24741333Y17148286D01*
X24693714Y17053048D01*
X24646095Y17005429D01*
X24550857Y16957810D01*
X24169904Y16957810D01*
X25074666Y17481620D02*
X25741333Y17481620D01*
X25312761Y16481620D01*
%TO.C,R8*%
X24741333Y22577620D02*
X24408000Y23053810D01*
X24169904Y22577620D02*
X24169904Y23577620D01*
X24550857Y23577620D01*
X24646095Y23530000D01*
X24693714Y23482381D01*
X24741333Y23387143D01*
X24741333Y23244286D01*
X24693714Y23149048D01*
X24646095Y23101429D01*
X24550857Y23053810D01*
X24169904Y23053810D01*
X25312761Y23149048D02*
X25217523Y23196667D01*
X25169904Y23244286D01*
X25122285Y23339524D01*
X25122285Y23387143D01*
X25169904Y23482381D01*
X25217523Y23530000D01*
X25312761Y23577620D01*
X25503238Y23577620D01*
X25598476Y23530000D01*
X25646095Y23482381D01*
X25693714Y23387143D01*
X25693714Y23339524D01*
X25646095Y23244286D01*
X25598476Y23196667D01*
X25503238Y23149048D01*
X25312761Y23149048D01*
X25217523Y23101429D01*
X25169904Y23053810D01*
X25122285Y22958572D01*
X25122285Y22768096D01*
X25169904Y22672858D01*
X25217523Y22625239D01*
X25312761Y22577620D01*
X25503238Y22577620D01*
X25598476Y22625239D01*
X25646095Y22672858D01*
X25693714Y22768096D01*
X25693714Y22958572D01*
X25646095Y23053810D01*
X25598476Y23101429D01*
X25503238Y23149048D01*
%TD*%
%LPC*%
D12*
%TO.C,H1*%
X44720000Y5842000D03*
%TD*%
%TO.C,H1*%
X44720000Y49022000D03*
%TD*%
D13*
%TO.C,J1*%
X12208000Y43942000D03*
D14*
X12208000Y41172000D03*
X12208000Y38402000D03*
X12208000Y35632000D03*
X12208000Y32862000D03*
X12208000Y30092000D03*
X12208000Y27322000D03*
X12208000Y24552000D03*
X12208000Y21782000D03*
X12208000Y19012000D03*
X12208000Y16242000D03*
X12208000Y13472000D03*
X12208000Y10702000D03*
X9668000Y42557000D03*
X9668000Y39787000D03*
X9668000Y37017000D03*
X9668000Y34247000D03*
X9668000Y31477000D03*
X9668000Y28707000D03*
X9668000Y25937000D03*
X9668000Y23167000D03*
X9668000Y20397000D03*
X9668000Y17627000D03*
X9668000Y14857000D03*
X9668000Y12087000D03*
%TD*%
D15*
%TO.C,J2*%
X43450000Y30988000D03*
D16*
X45990000Y30988000D03*
X43450000Y28448000D03*
X45990000Y28448000D03*
X43450000Y25908000D03*
X45990000Y25908000D03*
X43450000Y23368000D03*
X45990000Y23368000D03*
X43450000Y20828000D03*
X45990000Y20828000D03*
%TD*%
D14*
%TO.C,R1*%
X30242000Y49022000D03*
D17*
X20082000Y49022000D03*
%TD*%
%TO.C,R2*%
X19828000Y42926000D03*
D14*
X29988000Y42926000D03*
%TD*%
%TO.C,R3*%
X29988000Y37084000D03*
D17*
X19828000Y37084000D03*
%TD*%
%TO.C,R4*%
X19828000Y30988000D03*
D14*
X29988000Y30988000D03*
%TD*%
%TO.C,R5*%
X29988000Y7112000D03*
D17*
X19828000Y7112000D03*
%TD*%
%TO.C,R6*%
X19828000Y13208000D03*
D14*
X29988000Y13208000D03*
%TD*%
%TO.C,R7*%
X29988000Y19304000D03*
D17*
X19828000Y19304000D03*
%TD*%
%TO.C,R8*%
X19828000Y25400000D03*
D14*
X29988000Y25400000D03*
%TD*%
M02*
