G04 #@! TF.GenerationSoftware,KiCad,Pcbnew,5.1.2-1.fc30*
G04 #@! TF.CreationDate,2019-07-17T03:16:36+02:00*
G04 #@! TF.ProjectId,bsd_programmer,6273645f-7072-46f6-9772-616d6d65722e,1.0*
G04 #@! TF.SameCoordinates,Original*
G04 #@! TF.FileFunction,Copper,L1,Top*
G04 #@! TF.FilePolarity,Positive*
%FSLAX46Y46*%
G04 Gerber Fmt 4.6, Leading zero omitted, Abs format (unit mm)*
G04 Created by KiCad (PCBNEW 5.1.2-1.fc30) date 2019-07-17 03:16:36*
%MOMM*%
%LPD*%
G04 APERTURE LIST*
%ADD10R,1.600000X1.600000*%
%ADD11C,1.600000*%
%ADD12R,1.727200X1.727200*%
%ADD13O,1.727200X1.727200*%
%ADD14O,1.600000X1.600000*%
G04 APERTURE END LIST*
D10*
X145288000Y-73660000D03*
D11*
X145288000Y-76430000D03*
X145288000Y-79200000D03*
X145288000Y-81970000D03*
X145288000Y-84740000D03*
X145288000Y-87510000D03*
X145288000Y-90280000D03*
X145288000Y-93050000D03*
X145288000Y-95820000D03*
X145288000Y-98590000D03*
X145288000Y-101360000D03*
X145288000Y-104130000D03*
X145288000Y-106900000D03*
X142748000Y-75045000D03*
X142748000Y-77815000D03*
X142748000Y-80585000D03*
X142748000Y-83355000D03*
X142748000Y-86125000D03*
X142748000Y-88895000D03*
X142748000Y-91665000D03*
X142748000Y-94435000D03*
X142748000Y-97205000D03*
X142748000Y-99975000D03*
X142748000Y-102745000D03*
X142748000Y-105515000D03*
D12*
X176530000Y-86614000D03*
D13*
X179070000Y-86614000D03*
X176530000Y-89154000D03*
X179070000Y-89154000D03*
X176530000Y-91694000D03*
X179070000Y-91694000D03*
X176530000Y-94234000D03*
X179070000Y-94234000D03*
X176530000Y-96774000D03*
X179070000Y-96774000D03*
D11*
X163322000Y-68580000D03*
D14*
X153162000Y-68580000D03*
X152908000Y-74676000D03*
D11*
X163068000Y-74676000D03*
X163068000Y-80518000D03*
D14*
X152908000Y-80518000D03*
X152908000Y-86614000D03*
D11*
X163068000Y-86614000D03*
X163068000Y-110490000D03*
D14*
X152908000Y-110490000D03*
X152908000Y-104394000D03*
D11*
X163068000Y-104394000D03*
X163068000Y-98298000D03*
D14*
X152908000Y-98298000D03*
X152908000Y-92202000D03*
D11*
X163068000Y-92202000D03*
M02*
