%TF.GenerationSoftware,KiCad,Pcbnew,5.1.4-3.fc30*%
%TF.CreationDate,2019-10-13T13:52:24+02:00*%
%TF.ProjectId,bsd_programmer,6273645f-7072-46f6-9772-616d6d65722e,1.0*%
%TF.SameCoordinates,PX7eea3c0PY70276d0*%
%TF.FileFunction,Copper,L2,Bot*%
%TF.FilePolarity,Positive*%
%FSLAX46Y46*%
G04 Gerber Fmt 4.6, Leading zero omitted, Abs format (unit mm)*
G04 Created by KiCad (PCBNEW 5.1.4-3.fc30) date 2019-10-13 13:52:24*
%MOMM*%
%LPD*%
G04 APERTURE LIST*
%TA.AperFunction,ComponentPad*%
%ADD10R,1.600000X1.600000*%
%TD*%
%TA.AperFunction,ComponentPad*%
%ADD11C,1.600000*%
%TD*%
%TA.AperFunction,ComponentPad*%
%ADD12R,1.727200X1.727200*%
%TD*%
%TA.AperFunction,ComponentPad*%
%ADD13O,1.727200X1.727200*%
%TD*%
%TA.AperFunction,ComponentPad*%
%ADD14O,1.600000X1.600000*%
%TD*%
%TA.AperFunction,Conductor*%
%ADD15C,1.000000*%
%TD*%
G04 APERTURE END LIST*
D10*
%TO.P,J1,1*%
%TO.N,Net-(J1-Pad1)*%
X12208000Y43942000D03*
D11*
%TO.P,J1,2*%
%TO.N,D0*%
X12208000Y41172000D03*
%TO.P,J1,3*%
%TO.N,D1*%
X12208000Y38402000D03*
%TO.P,J1,4*%
%TO.N,D2*%
X12208000Y35632000D03*
%TO.P,J1,5*%
%TO.N,D3*%
X12208000Y32862000D03*
%TO.P,J1,6*%
%TO.N,Net-(J1-Pad6)*%
X12208000Y30092000D03*
%TO.P,J1,7*%
%TO.N,D5*%
X12208000Y27322000D03*
%TO.P,J1,8*%
%TO.N,D6*%
X12208000Y24552000D03*
%TO.P,J1,9*%
%TO.N,D7*%
X12208000Y21782000D03*
%TO.P,J1,10*%
%TO.N,ACK*%
X12208000Y19012000D03*
%TO.P,J1,11*%
%TO.N,Net-(J1-Pad11)*%
X12208000Y16242000D03*
%TO.P,J1,12*%
%TO.N,Net-(J1-Pad12)*%
X12208000Y13472000D03*
%TO.P,J1,13*%
%TO.N,Net-(J1-Pad13)*%
X12208000Y10702000D03*
%TO.P,J1,14*%
%TO.N,Net-(J1-Pad14)*%
X9668000Y42557000D03*
%TO.P,J1,15*%
%TO.N,Net-(J1-Pad15)*%
X9668000Y39787000D03*
%TO.P,J1,16*%
%TO.N,Net-(J1-Pad16)*%
X9668000Y37017000D03*
%TO.P,J1,17*%
%TO.N,Net-(J1-Pad17)*%
X9668000Y34247000D03*
%TO.P,J1,18*%
%TO.N,Net-(J1-Pad18)*%
X9668000Y31477000D03*
%TO.P,J1,19*%
X9668000Y28707000D03*
%TO.P,J1,20*%
X9668000Y25937000D03*
%TO.P,J1,21*%
X9668000Y23167000D03*
%TO.P,J1,22*%
X9668000Y20397000D03*
%TO.P,J1,23*%
X9668000Y17627000D03*
%TO.P,J1,24*%
X9668000Y14857000D03*
%TO.P,J1,25*%
X9668000Y12087000D03*
%TD*%
D12*
%TO.P,J2,1*%
%TO.N,Net-(J2-Pad1)*%
X43450000Y30988000D03*
D13*
%TO.P,J2,2*%
%TO.N,Net-(J2-Pad2)*%
X45990000Y30988000D03*
%TO.P,J2,3*%
%TO.N,Net-(J2-Pad3)*%
X43450000Y28448000D03*
%TO.P,J2,4*%
%TO.N,Net-(J1-Pad18)*%
X45990000Y28448000D03*
%TO.P,J2,5*%
%TO.N,Net-(J2-Pad5)*%
X43450000Y25908000D03*
%TO.P,J2,6*%
%TO.N,Net-(J1-Pad18)*%
X45990000Y25908000D03*
%TO.P,J2,7*%
%TO.N,Net-(J2-Pad7)*%
X43450000Y23368000D03*
%TO.P,J2,8*%
%TO.N,Net-(J1-Pad18)*%
X45990000Y23368000D03*
%TO.P,J2,9*%
%TO.N,Net-(J2-Pad9)*%
X43450000Y20828000D03*
%TO.P,J2,10*%
%TO.N,Net-(J1-Pad18)*%
X45990000Y20828000D03*
%TD*%
D11*
%TO.P,R1,1*%
%TO.N,Net-(J2-Pad2)*%
X30242000Y49022000D03*
D14*
%TO.P,R1,2*%
%TO.N,D0*%
X20082000Y49022000D03*
%TD*%
%TO.P,R2,2*%
%TO.N,D1*%
X19828000Y42926000D03*
D11*
%TO.P,R2,1*%
%TO.N,Net-(J2-Pad2)*%
X29988000Y42926000D03*
%TD*%
%TO.P,R3,1*%
%TO.N,Net-(J2-Pad2)*%
X29988000Y37084000D03*
D14*
%TO.P,R3,2*%
%TO.N,D2*%
X19828000Y37084000D03*
%TD*%
%TO.P,R4,2*%
%TO.N,D3*%
X19828000Y30988000D03*
D11*
%TO.P,R4,1*%
%TO.N,Net-(J2-Pad2)*%
X29988000Y30988000D03*
%TD*%
%TO.P,R5,1*%
%TO.N,Net-(J2-Pad9)*%
X29988000Y7112000D03*
D14*
%TO.P,R5,2*%
%TO.N,ACK*%
X19828000Y7112000D03*
%TD*%
%TO.P,R6,2*%
%TO.N,D7*%
X19828000Y13208000D03*
D11*
%TO.P,R6,1*%
%TO.N,Net-(J2-Pad1)*%
X29988000Y13208000D03*
%TD*%
%TO.P,R7,1*%
%TO.N,Net-(J2-Pad7)*%
X29988000Y19304000D03*
D14*
%TO.P,R7,2*%
%TO.N,D6*%
X19828000Y19304000D03*
%TD*%
%TO.P,R8,2*%
%TO.N,D5*%
X19828000Y25400000D03*
D11*
%TO.P,R8,1*%
%TO.N,Net-(J2-Pad5)*%
X29988000Y25400000D03*
%TD*%
D15*
%TO.N,Net-(J1-Pad18)*%
X9668000Y28707000D02*
X9668000Y31477000D01*
X9668000Y25937000D02*
X9668000Y28707000D01*
X9668000Y23167000D02*
X9668000Y25937000D01*
X9668000Y20397000D02*
X9668000Y23167000D01*
X9668000Y17627000D02*
X9668000Y20397000D01*
X9668000Y14857000D02*
X9668000Y17627000D01*
X9668000Y12087000D02*
X9668000Y14857000D01*
X45990000Y19264100D02*
X32335500Y5609600D01*
X32335500Y5609600D02*
X15143800Y5609600D01*
X15143800Y5609600D02*
X9668000Y11085400D01*
X9668000Y11085400D02*
X9668000Y12087000D01*
X45990000Y20828000D02*
X45990000Y19264100D01*
X45990000Y23368000D02*
X45990000Y20828000D01*
X45990000Y25908000D02*
X45990000Y28448000D01*
X45990000Y23368000D02*
X45990000Y25908000D01*
%TO.N,Net-(J2-Pad1)*%
X29988000Y13208000D02*
X28477500Y14718500D01*
X28477500Y14718500D02*
X28477500Y26057000D01*
X28477500Y26057000D02*
X33408500Y30988000D01*
X33408500Y30988000D02*
X43450000Y30988000D01*
%TO.N,Net-(J2-Pad2)*%
X29988000Y32551900D02*
X29988000Y37084000D01*
X29988000Y30988000D02*
X29988000Y32551900D01*
X29988000Y32551900D02*
X45990000Y32551900D01*
X45990000Y30988000D02*
X45990000Y32551900D01*
X29988000Y42926000D02*
X30242000Y43180000D01*
X30242000Y43180000D02*
X30242000Y49022000D01*
X29988000Y42926000D02*
X29988000Y37084000D01*
%TO.N,Net-(J2-Pad5)*%
X43450000Y25908000D02*
X41886100Y25908000D01*
X29988000Y25400000D02*
X41378100Y25400000D01*
X41378100Y25400000D02*
X41886100Y25908000D01*
%TO.N,Net-(J2-Pad7)*%
X43450000Y23368000D02*
X41886100Y23368000D01*
X29988000Y19304000D02*
X37822100Y19304000D01*
X37822100Y19304000D02*
X41886100Y23368000D01*
%TO.N,Net-(J2-Pad9)*%
X43450000Y20828000D02*
X43450000Y19264100D01*
X29988000Y7112000D02*
X42140100Y19264100D01*
X42140100Y19264100D02*
X43450000Y19264100D01*
%TO.N,D0*%
X20082000Y49022000D02*
X18581700Y49022000D01*
X18581700Y49022000D02*
X18581700Y47545700D01*
X18581700Y47545700D02*
X12208000Y41172000D01*
%TO.N,D1*%
X19828000Y42926000D02*
X18327700Y42926000D01*
X18327700Y42926000D02*
X13803700Y38402000D01*
X13803700Y38402000D02*
X12208000Y38402000D01*
%TO.N,D2*%
X19828000Y37084000D02*
X18327700Y37084000D01*
X18327700Y37084000D02*
X16875700Y35632000D01*
X16875700Y35632000D02*
X12208000Y35632000D01*
%TO.N,D3*%
X19828000Y30988000D02*
X14082000Y30988000D01*
X14082000Y30988000D02*
X12208000Y32862000D01*
%TO.N,D5*%
X19828000Y25400000D02*
X14130000Y25400000D01*
X14130000Y25400000D02*
X12208000Y27322000D01*
%TO.N,D6*%
X19828000Y19304000D02*
X17456000Y19304000D01*
X17456000Y19304000D02*
X12208000Y24552000D01*
%TO.N,D7*%
X19828000Y13208000D02*
X19828000Y14708300D01*
X19828000Y14708300D02*
X19281700Y14708300D01*
X19281700Y14708300D02*
X12208000Y21782000D01*
%TO.N,ACK*%
X19828000Y7112000D02*
X19828000Y8612300D01*
X19828000Y8612300D02*
X18327700Y10112600D01*
X18327700Y10112600D02*
X18327700Y12892300D01*
X18327700Y12892300D02*
X12208000Y19012000D01*
%TD*%
M02*
