%TF.GenerationSoftware,KiCad,Pcbnew,5.1.4-3.fc30*%
%TF.CreationDate,2019-10-13T13:52:24+02:00*%
%TF.ProjectId,bsd_programmer,6273645f-7072-46f6-9772-616d6d65722e,1.0*%
%TF.SameCoordinates,PX7eea3c0PY70276d0*%
%TF.FileFunction,Other,Fab,Top*%
%FSLAX46Y46*%
G04 Gerber Fmt 4.6, Leading zero omitted, Abs format (unit mm)*
G04 Created by KiCad (PCBNEW 5.1.4-3.fc30) date 2019-10-13 13:52:24*
%MOMM*%
%LPD*%
G04 APERTURE LIST*
%ADD10C,0.100000*%
%ADD11C,0.150000*%
G04 APERTURE END LIST*
D10*
%TO.C,J1*%
X12208000Y44042000D02*
X4368000Y44042000D01*
X12208000Y43942000D02*
X4368000Y43942000D01*
X12208000Y43842000D02*
X4368000Y43842000D01*
X12208000Y41272000D02*
X4368000Y41272000D01*
X12208000Y41172000D02*
X4368000Y41172000D01*
X12208000Y41072000D02*
X4368000Y41072000D01*
X12208000Y38502000D02*
X4368000Y38502000D01*
X12208000Y38402000D02*
X4368000Y38402000D01*
X12208000Y38302000D02*
X4368000Y38302000D01*
X12208000Y35732000D02*
X4368000Y35732000D01*
X12208000Y35632000D02*
X4368000Y35632000D01*
X12208000Y35532000D02*
X4368000Y35532000D01*
X12208000Y32962000D02*
X4368000Y32962000D01*
X12208000Y32862000D02*
X4368000Y32862000D01*
X12208000Y32762000D02*
X4368000Y32762000D01*
X12208000Y30192000D02*
X4368000Y30192000D01*
X12208000Y30092000D02*
X4368000Y30092000D01*
X12208000Y29992000D02*
X4368000Y29992000D01*
X12208000Y27422000D02*
X4368000Y27422000D01*
X12208000Y27322000D02*
X4368000Y27322000D01*
X12208000Y27222000D02*
X4368000Y27222000D01*
X12208000Y24652000D02*
X4368000Y24652000D01*
X12208000Y24552000D02*
X4368000Y24552000D01*
X12208000Y24452000D02*
X4368000Y24452000D01*
X12208000Y21882000D02*
X4368000Y21882000D01*
X12208000Y21782000D02*
X4368000Y21782000D01*
X12208000Y21682000D02*
X4368000Y21682000D01*
X12208000Y19112000D02*
X4368000Y19112000D01*
X12208000Y19012000D02*
X4368000Y19012000D01*
X12208000Y18912000D02*
X4368000Y18912000D01*
X12208000Y16342000D02*
X4368000Y16342000D01*
X12208000Y16242000D02*
X4368000Y16242000D01*
X12208000Y16142000D02*
X4368000Y16142000D01*
X12208000Y13572000D02*
X4368000Y13572000D01*
X12208000Y13472000D02*
X4368000Y13472000D01*
X12208000Y13372000D02*
X4368000Y13372000D01*
X12208000Y10802000D02*
X4368000Y10802000D01*
X12208000Y10702000D02*
X4368000Y10702000D01*
X12208000Y10602000D02*
X4368000Y10602000D01*
X9668000Y42657000D02*
X4368000Y42657000D01*
X9668000Y42557000D02*
X4368000Y42557000D01*
X9668000Y42457000D02*
X4368000Y42457000D01*
X9668000Y39887000D02*
X4368000Y39887000D01*
X9668000Y39787000D02*
X4368000Y39787000D01*
X9668000Y39687000D02*
X4368000Y39687000D01*
X9668000Y37117000D02*
X4368000Y37117000D01*
X9668000Y37017000D02*
X4368000Y37017000D01*
X9668000Y36917000D02*
X4368000Y36917000D01*
X9668000Y34347000D02*
X4368000Y34347000D01*
X9668000Y34247000D02*
X4368000Y34247000D01*
X9668000Y34147000D02*
X4368000Y34147000D01*
X9668000Y31577000D02*
X4368000Y31577000D01*
X9668000Y31477000D02*
X4368000Y31477000D01*
X9668000Y31377000D02*
X4368000Y31377000D01*
X9668000Y28807000D02*
X4368000Y28807000D01*
X9668000Y28707000D02*
X4368000Y28707000D01*
X9668000Y28607000D02*
X4368000Y28607000D01*
X9668000Y26037000D02*
X4368000Y26037000D01*
X9668000Y25937000D02*
X4368000Y25937000D01*
X9668000Y25837000D02*
X4368000Y25837000D01*
X9668000Y23267000D02*
X4368000Y23267000D01*
X9668000Y23167000D02*
X4368000Y23167000D01*
X9668000Y23067000D02*
X4368000Y23067000D01*
X9668000Y20497000D02*
X4368000Y20497000D01*
X9668000Y20397000D02*
X4368000Y20397000D01*
X9668000Y20297000D02*
X4368000Y20297000D01*
X9668000Y17727000D02*
X4368000Y17727000D01*
X9668000Y17627000D02*
X4368000Y17627000D01*
X9668000Y17527000D02*
X4368000Y17527000D01*
X9668000Y14957000D02*
X4368000Y14957000D01*
X9668000Y14857000D02*
X4368000Y14857000D01*
X9668000Y14757000D02*
X4368000Y14757000D01*
X9668000Y12187000D02*
X4368000Y12187000D01*
X9668000Y12087000D02*
X4368000Y12087000D01*
X9668000Y11987000D02*
X4368000Y11987000D01*
X4368000Y46872000D02*
X268000Y46872000D01*
X268000Y46872000D02*
X268000Y7772000D01*
X268000Y7772000D02*
X4368000Y7772000D01*
X4368000Y7772000D02*
X4368000Y46872000D01*
X268000Y53872000D02*
X-132000Y53872000D01*
X-132000Y53872000D02*
X-132000Y772000D01*
X-132000Y772000D02*
X268000Y772000D01*
X268000Y772000D02*
X268000Y53872000D01*
X-132000Y46472000D02*
X-6132000Y46472000D01*
X-6132000Y46472000D02*
X-6132000Y8172000D01*
X-6132000Y8172000D02*
X-132000Y8172000D01*
X-132000Y8172000D02*
X-132000Y46472000D01*
%TO.C,J2*%
X49145000Y36088000D02*
X49145000Y15728000D01*
X48595000Y35548000D02*
X48595000Y16288000D01*
X40295000Y36088000D02*
X40295000Y15728000D01*
X40845000Y35548000D02*
X40845000Y28158000D01*
X40845000Y23658000D02*
X40845000Y16288000D01*
X40845000Y28158000D02*
X40295000Y28158000D01*
X40845000Y23658000D02*
X40295000Y23658000D01*
X49145000Y36088000D02*
X40295000Y36088000D01*
X48595000Y35548000D02*
X40845000Y35548000D01*
X49145000Y15728000D02*
X40295000Y15728000D01*
X48595000Y16288000D02*
X40845000Y16288000D01*
X49145000Y36088000D02*
X48595000Y35548000D01*
X49145000Y15728000D02*
X48595000Y16288000D01*
X40295000Y36088000D02*
X40845000Y35548000D01*
X40295000Y15728000D02*
X40845000Y16288000D01*
%TO.C,R1*%
X28312000Y47772000D02*
X28312000Y50272000D01*
X28312000Y50272000D02*
X22012000Y50272000D01*
X22012000Y50272000D02*
X22012000Y47772000D01*
X22012000Y47772000D02*
X28312000Y47772000D01*
X30242000Y49022000D02*
X28312000Y49022000D01*
X20082000Y49022000D02*
X22012000Y49022000D01*
%TO.C,R2*%
X19828000Y42926000D02*
X21758000Y42926000D01*
X29988000Y42926000D02*
X28058000Y42926000D01*
X21758000Y41676000D02*
X28058000Y41676000D01*
X21758000Y44176000D02*
X21758000Y41676000D01*
X28058000Y44176000D02*
X21758000Y44176000D01*
X28058000Y41676000D02*
X28058000Y44176000D01*
%TO.C,R3*%
X28058000Y35834000D02*
X28058000Y38334000D01*
X28058000Y38334000D02*
X21758000Y38334000D01*
X21758000Y38334000D02*
X21758000Y35834000D01*
X21758000Y35834000D02*
X28058000Y35834000D01*
X29988000Y37084000D02*
X28058000Y37084000D01*
X19828000Y37084000D02*
X21758000Y37084000D01*
%TO.C,R4*%
X19828000Y30988000D02*
X21758000Y30988000D01*
X29988000Y30988000D02*
X28058000Y30988000D01*
X21758000Y29738000D02*
X28058000Y29738000D01*
X21758000Y32238000D02*
X21758000Y29738000D01*
X28058000Y32238000D02*
X21758000Y32238000D01*
X28058000Y29738000D02*
X28058000Y32238000D01*
%TO.C,R5*%
X28058000Y5862000D02*
X28058000Y8362000D01*
X28058000Y8362000D02*
X21758000Y8362000D01*
X21758000Y8362000D02*
X21758000Y5862000D01*
X21758000Y5862000D02*
X28058000Y5862000D01*
X29988000Y7112000D02*
X28058000Y7112000D01*
X19828000Y7112000D02*
X21758000Y7112000D01*
%TO.C,R6*%
X19828000Y13208000D02*
X21758000Y13208000D01*
X29988000Y13208000D02*
X28058000Y13208000D01*
X21758000Y11958000D02*
X28058000Y11958000D01*
X21758000Y14458000D02*
X21758000Y11958000D01*
X28058000Y14458000D02*
X21758000Y14458000D01*
X28058000Y11958000D02*
X28058000Y14458000D01*
%TO.C,R7*%
X28058000Y18054000D02*
X28058000Y20554000D01*
X28058000Y20554000D02*
X21758000Y20554000D01*
X21758000Y20554000D02*
X21758000Y18054000D01*
X21758000Y18054000D02*
X28058000Y18054000D01*
X29988000Y19304000D02*
X28058000Y19304000D01*
X19828000Y19304000D02*
X21758000Y19304000D01*
%TO.C,R8*%
X19828000Y25400000D02*
X21758000Y25400000D01*
X29988000Y25400000D02*
X28058000Y25400000D01*
X21758000Y24150000D02*
X28058000Y24150000D01*
X21758000Y26650000D02*
X21758000Y24150000D01*
X28058000Y26650000D02*
X21758000Y26650000D01*
X28058000Y24150000D02*
X28058000Y26650000D01*
%TD*%
%TO.C,H1*%
D11*
X43196190Y1889620D02*
X43196190Y2889620D01*
X43529523Y2175334D01*
X43862857Y2889620D01*
X43862857Y1889620D01*
X44291428Y2794381D02*
X44339047Y2842000D01*
X44434285Y2889620D01*
X44672380Y2889620D01*
X44767619Y2842000D01*
X44815238Y2794381D01*
X44862857Y2699143D01*
X44862857Y2603905D01*
X44815238Y2461048D01*
X44243809Y1889620D01*
X44862857Y1889620D01*
X45291428Y1984858D02*
X45339047Y1937239D01*
X45291428Y1889620D01*
X45243809Y1937239D01*
X45291428Y1984858D01*
X45291428Y1889620D01*
X46243809Y2889620D02*
X45767619Y2889620D01*
X45720000Y2413429D01*
X45767619Y2461048D01*
X45862857Y2508667D01*
X46100952Y2508667D01*
X46196190Y2461048D01*
X46243809Y2413429D01*
X46291428Y2318191D01*
X46291428Y2080096D01*
X46243809Y1984858D01*
X46196190Y1937239D01*
X46100952Y1889620D01*
X45862857Y1889620D01*
X45767619Y1937239D01*
X45720000Y1984858D01*
X44258095Y5389620D02*
X44258095Y6389620D01*
X44258095Y5913429D02*
X44829523Y5913429D01*
X44829523Y5389620D02*
X44829523Y6389620D01*
X45829523Y5389620D02*
X45258095Y5389620D01*
X45543809Y5389620D02*
X45543809Y6389620D01*
X45448571Y6246762D01*
X45353333Y6151524D01*
X45258095Y6103905D01*
X43196190Y45069620D02*
X43196190Y46069620D01*
X43529523Y45355334D01*
X43862857Y46069620D01*
X43862857Y45069620D01*
X44291428Y45974381D02*
X44339047Y46022000D01*
X44434285Y46069620D01*
X44672380Y46069620D01*
X44767619Y46022000D01*
X44815238Y45974381D01*
X44862857Y45879143D01*
X44862857Y45783905D01*
X44815238Y45641048D01*
X44243809Y45069620D01*
X44862857Y45069620D01*
X45291428Y45164858D02*
X45339047Y45117239D01*
X45291428Y45069620D01*
X45243809Y45117239D01*
X45291428Y45164858D01*
X45291428Y45069620D01*
X46243809Y46069620D02*
X45767619Y46069620D01*
X45720000Y45593429D01*
X45767619Y45641048D01*
X45862857Y45688667D01*
X46100952Y45688667D01*
X46196190Y45641048D01*
X46243809Y45593429D01*
X46291428Y45498191D01*
X46291428Y45260096D01*
X46243809Y45164858D01*
X46196190Y45117239D01*
X46100952Y45069620D01*
X45862857Y45069620D01*
X45767619Y45117239D01*
X45720000Y45164858D01*
X44258095Y48569620D02*
X44258095Y49569620D01*
X44258095Y49093429D02*
X44829523Y49093429D01*
X44829523Y48569620D02*
X44829523Y49569620D01*
X45829523Y48569620D02*
X45258095Y48569620D01*
X45543809Y48569620D02*
X45543809Y49569620D01*
X45448571Y49426762D01*
X45353333Y49331524D01*
X45258095Y49283905D01*
%TO.C,J1*%
X-7179620Y23512477D02*
X-8179620Y23512477D01*
X-8179620Y23750572D01*
X-8132000Y23893429D01*
X-8036762Y23988667D01*
X-7941524Y24036286D01*
X-7751048Y24083905D01*
X-7608191Y24083905D01*
X-7417715Y24036286D01*
X-7322477Y23988667D01*
X-7227239Y23893429D01*
X-7179620Y23750572D01*
X-7179620Y23512477D01*
X-7703429Y24845810D02*
X-7655810Y24988667D01*
X-7608191Y25036286D01*
X-7512953Y25083905D01*
X-7370096Y25083905D01*
X-7274858Y25036286D01*
X-7227239Y24988667D01*
X-7179620Y24893429D01*
X-7179620Y24512477D01*
X-8179620Y24512477D01*
X-8179620Y24845810D01*
X-8132000Y24941048D01*
X-8084381Y24988667D01*
X-7989143Y25036286D01*
X-7893905Y25036286D01*
X-7798667Y24988667D01*
X-7751048Y24941048D01*
X-7703429Y24845810D01*
X-7703429Y24512477D01*
X-8084381Y25464858D02*
X-8132000Y25512477D01*
X-8179620Y25607715D01*
X-8179620Y25845810D01*
X-8132000Y25941048D01*
X-8084381Y25988667D01*
X-7989143Y26036286D01*
X-7893905Y26036286D01*
X-7751048Y25988667D01*
X-7179620Y25417239D01*
X-7179620Y26036286D01*
X-8179620Y26941048D02*
X-8179620Y26464858D01*
X-7703429Y26417239D01*
X-7751048Y26464858D01*
X-7798667Y26560096D01*
X-7798667Y26798191D01*
X-7751048Y26893429D01*
X-7703429Y26941048D01*
X-7608191Y26988667D01*
X-7370096Y26988667D01*
X-7274858Y26941048D01*
X-7227239Y26893429D01*
X-7179620Y26798191D01*
X-7179620Y26560096D01*
X-7227239Y26464858D01*
X-7274858Y26417239D01*
X-7084381Y27179143D02*
X-7084381Y27941048D01*
X-7179620Y28179143D02*
X-8179620Y28179143D01*
X-7465334Y28512477D01*
X-8179620Y28845810D01*
X-7179620Y28845810D01*
X-7179620Y29750572D02*
X-7703429Y29750572D01*
X-7798667Y29702953D01*
X-7846286Y29607715D01*
X-7846286Y29417239D01*
X-7798667Y29322000D01*
X-7227239Y29750572D02*
X-7179620Y29655334D01*
X-7179620Y29417239D01*
X-7227239Y29322000D01*
X-7322477Y29274381D01*
X-7417715Y29274381D01*
X-7512953Y29322000D01*
X-7560572Y29417239D01*
X-7560572Y29655334D01*
X-7608191Y29750572D01*
X-7179620Y30369620D02*
X-7227239Y30274381D01*
X-7322477Y30226762D01*
X-8179620Y30226762D01*
X-7227239Y31131524D02*
X-7179620Y31036286D01*
X-7179620Y30845810D01*
X-7227239Y30750572D01*
X-7322477Y30702953D01*
X-7703429Y30702953D01*
X-7798667Y30750572D01*
X-7846286Y30845810D01*
X-7846286Y31036286D01*
X-7798667Y31131524D01*
X-7703429Y31179143D01*
X-7608191Y31179143D01*
X-7512953Y30702953D01*
X-3679620Y26988667D02*
X-2965334Y26988667D01*
X-2822477Y26941048D01*
X-2727239Y26845810D01*
X-2679620Y26702953D01*
X-2679620Y26607715D01*
X-2679620Y27988667D02*
X-2679620Y27417239D01*
X-2679620Y27702953D02*
X-3679620Y27702953D01*
X-3536762Y27607715D01*
X-3441524Y27512477D01*
X-3393905Y27417239D01*
%TO.C,J2*%
X40148571Y14057334D02*
X40624761Y14057334D01*
X40053333Y13771620D02*
X40386666Y14771620D01*
X40720000Y13771620D01*
X40910476Y14771620D02*
X41243809Y13771620D01*
X41577142Y14771620D01*
X42481904Y13771620D02*
X42148571Y14247810D01*
X41910476Y13771620D02*
X41910476Y14771620D01*
X42291428Y14771620D01*
X42386666Y14724000D01*
X42434285Y14676381D01*
X42481904Y14581143D01*
X42481904Y14438286D01*
X42434285Y14343048D01*
X42386666Y14295429D01*
X42291428Y14247810D01*
X41910476Y14247810D01*
X42910476Y14152572D02*
X43672380Y14152572D01*
X44148571Y13771620D02*
X44148571Y14771620D01*
X44577142Y13819239D02*
X44720000Y13771620D01*
X44958095Y13771620D01*
X45053333Y13819239D01*
X45100952Y13866858D01*
X45148571Y13962096D01*
X45148571Y14057334D01*
X45100952Y14152572D01*
X45053333Y14200191D01*
X44958095Y14247810D01*
X44767619Y14295429D01*
X44672380Y14343048D01*
X44624761Y14390667D01*
X44577142Y14485905D01*
X44577142Y14581143D01*
X44624761Y14676381D01*
X44672380Y14724000D01*
X44767619Y14771620D01*
X45005714Y14771620D01*
X45148571Y14724000D01*
X45577142Y13771620D02*
X45577142Y14771620D01*
X45958095Y14771620D01*
X46053333Y14724000D01*
X46100952Y14676381D01*
X46148571Y14581143D01*
X46148571Y14438286D01*
X46100952Y14343048D01*
X46053333Y14295429D01*
X45958095Y14247810D01*
X45577142Y14247810D01*
X46577142Y14152572D02*
X47339047Y14152572D01*
X48339047Y13771620D02*
X47767619Y13771620D01*
X48053333Y13771620D02*
X48053333Y14771620D01*
X47958095Y14628762D01*
X47862857Y14533524D01*
X47767619Y14485905D01*
X48958095Y14771620D02*
X49053333Y14771620D01*
X49148571Y14724000D01*
X49196190Y14676381D01*
X49243809Y14581143D01*
X49291428Y14390667D01*
X49291428Y14152572D01*
X49243809Y13962096D01*
X49196190Y13866858D01*
X49148571Y13819239D01*
X49053333Y13771620D01*
X48958095Y13771620D01*
X48862857Y13819239D01*
X48815238Y13866858D01*
X48767619Y13962096D01*
X48720000Y14152572D01*
X48720000Y14390667D01*
X48767619Y14581143D01*
X48815238Y14676381D01*
X48862857Y14724000D01*
X48958095Y14771620D01*
X44386666Y26455620D02*
X44386666Y25741334D01*
X44339047Y25598477D01*
X44243809Y25503239D01*
X44100952Y25455620D01*
X44005714Y25455620D01*
X44815238Y26360381D02*
X44862857Y26408000D01*
X44958095Y26455620D01*
X45196190Y26455620D01*
X45291428Y26408000D01*
X45339047Y26360381D01*
X45386666Y26265143D01*
X45386666Y26169905D01*
X45339047Y26027048D01*
X44767619Y25455620D01*
X45386666Y25455620D01*
%TO.C,R1*%
X23923904Y51844381D02*
X23971523Y51892000D01*
X24066761Y51939620D01*
X24304857Y51939620D01*
X24400095Y51892000D01*
X24447714Y51844381D01*
X24495333Y51749143D01*
X24495333Y51653905D01*
X24447714Y51511048D01*
X23876285Y50939620D01*
X24495333Y50939620D01*
X24876285Y51844381D02*
X24923904Y51892000D01*
X25019142Y51939620D01*
X25257238Y51939620D01*
X25352476Y51892000D01*
X25400095Y51844381D01*
X25447714Y51749143D01*
X25447714Y51653905D01*
X25400095Y51511048D01*
X24828666Y50939620D01*
X25447714Y50939620D01*
X26066761Y51939620D02*
X26162000Y51939620D01*
X26257238Y51892000D01*
X26304857Y51844381D01*
X26352476Y51749143D01*
X26400095Y51558667D01*
X26400095Y51320572D01*
X26352476Y51130096D01*
X26304857Y51034858D01*
X26257238Y50987239D01*
X26162000Y50939620D01*
X26066761Y50939620D01*
X25971523Y50987239D01*
X25923904Y51034858D01*
X25876285Y51130096D01*
X25828666Y51320572D01*
X25828666Y51558667D01*
X25876285Y51749143D01*
X25923904Y51844381D01*
X25971523Y51892000D01*
X26066761Y51939620D01*
X24995333Y48569620D02*
X24662000Y49045810D01*
X24423904Y48569620D02*
X24423904Y49569620D01*
X24804857Y49569620D01*
X24900095Y49522000D01*
X24947714Y49474381D01*
X24995333Y49379143D01*
X24995333Y49236286D01*
X24947714Y49141048D01*
X24900095Y49093429D01*
X24804857Y49045810D01*
X24423904Y49045810D01*
X25947714Y48569620D02*
X25376285Y48569620D01*
X25662000Y48569620D02*
X25662000Y49569620D01*
X25566761Y49426762D01*
X25471523Y49331524D01*
X25376285Y49283905D01*
%TO.C,R2*%
X23669904Y45748381D02*
X23717523Y45796000D01*
X23812761Y45843620D01*
X24050857Y45843620D01*
X24146095Y45796000D01*
X24193714Y45748381D01*
X24241333Y45653143D01*
X24241333Y45557905D01*
X24193714Y45415048D01*
X23622285Y44843620D01*
X24241333Y44843620D01*
X24622285Y45748381D02*
X24669904Y45796000D01*
X24765142Y45843620D01*
X25003238Y45843620D01*
X25098476Y45796000D01*
X25146095Y45748381D01*
X25193714Y45653143D01*
X25193714Y45557905D01*
X25146095Y45415048D01*
X24574666Y44843620D01*
X25193714Y44843620D01*
X25812761Y45843620D02*
X25908000Y45843620D01*
X26003238Y45796000D01*
X26050857Y45748381D01*
X26098476Y45653143D01*
X26146095Y45462667D01*
X26146095Y45224572D01*
X26098476Y45034096D01*
X26050857Y44938858D01*
X26003238Y44891239D01*
X25908000Y44843620D01*
X25812761Y44843620D01*
X25717523Y44891239D01*
X25669904Y44938858D01*
X25622285Y45034096D01*
X25574666Y45224572D01*
X25574666Y45462667D01*
X25622285Y45653143D01*
X25669904Y45748381D01*
X25717523Y45796000D01*
X25812761Y45843620D01*
X24741333Y42473620D02*
X24408000Y42949810D01*
X24169904Y42473620D02*
X24169904Y43473620D01*
X24550857Y43473620D01*
X24646095Y43426000D01*
X24693714Y43378381D01*
X24741333Y43283143D01*
X24741333Y43140286D01*
X24693714Y43045048D01*
X24646095Y42997429D01*
X24550857Y42949810D01*
X24169904Y42949810D01*
X25122285Y43378381D02*
X25169904Y43426000D01*
X25265142Y43473620D01*
X25503238Y43473620D01*
X25598476Y43426000D01*
X25646095Y43378381D01*
X25693714Y43283143D01*
X25693714Y43187905D01*
X25646095Y43045048D01*
X25074666Y42473620D01*
X25693714Y42473620D01*
%TO.C,R3*%
X23669904Y39906381D02*
X23717523Y39954000D01*
X23812761Y40001620D01*
X24050857Y40001620D01*
X24146095Y39954000D01*
X24193714Y39906381D01*
X24241333Y39811143D01*
X24241333Y39715905D01*
X24193714Y39573048D01*
X23622285Y39001620D01*
X24241333Y39001620D01*
X24622285Y39906381D02*
X24669904Y39954000D01*
X24765142Y40001620D01*
X25003238Y40001620D01*
X25098476Y39954000D01*
X25146095Y39906381D01*
X25193714Y39811143D01*
X25193714Y39715905D01*
X25146095Y39573048D01*
X24574666Y39001620D01*
X25193714Y39001620D01*
X25812761Y40001620D02*
X25908000Y40001620D01*
X26003238Y39954000D01*
X26050857Y39906381D01*
X26098476Y39811143D01*
X26146095Y39620667D01*
X26146095Y39382572D01*
X26098476Y39192096D01*
X26050857Y39096858D01*
X26003238Y39049239D01*
X25908000Y39001620D01*
X25812761Y39001620D01*
X25717523Y39049239D01*
X25669904Y39096858D01*
X25622285Y39192096D01*
X25574666Y39382572D01*
X25574666Y39620667D01*
X25622285Y39811143D01*
X25669904Y39906381D01*
X25717523Y39954000D01*
X25812761Y40001620D01*
X24741333Y36631620D02*
X24408000Y37107810D01*
X24169904Y36631620D02*
X24169904Y37631620D01*
X24550857Y37631620D01*
X24646095Y37584000D01*
X24693714Y37536381D01*
X24741333Y37441143D01*
X24741333Y37298286D01*
X24693714Y37203048D01*
X24646095Y37155429D01*
X24550857Y37107810D01*
X24169904Y37107810D01*
X25074666Y37631620D02*
X25693714Y37631620D01*
X25360380Y37250667D01*
X25503238Y37250667D01*
X25598476Y37203048D01*
X25646095Y37155429D01*
X25693714Y37060191D01*
X25693714Y36822096D01*
X25646095Y36726858D01*
X25598476Y36679239D01*
X25503238Y36631620D01*
X25217523Y36631620D01*
X25122285Y36679239D01*
X25074666Y36726858D01*
%TO.C,R4*%
X23669904Y33810381D02*
X23717523Y33858000D01*
X23812761Y33905620D01*
X24050857Y33905620D01*
X24146095Y33858000D01*
X24193714Y33810381D01*
X24241333Y33715143D01*
X24241333Y33619905D01*
X24193714Y33477048D01*
X23622285Y32905620D01*
X24241333Y32905620D01*
X24622285Y33810381D02*
X24669904Y33858000D01*
X24765142Y33905620D01*
X25003238Y33905620D01*
X25098476Y33858000D01*
X25146095Y33810381D01*
X25193714Y33715143D01*
X25193714Y33619905D01*
X25146095Y33477048D01*
X24574666Y32905620D01*
X25193714Y32905620D01*
X25812761Y33905620D02*
X25908000Y33905620D01*
X26003238Y33858000D01*
X26050857Y33810381D01*
X26098476Y33715143D01*
X26146095Y33524667D01*
X26146095Y33286572D01*
X26098476Y33096096D01*
X26050857Y33000858D01*
X26003238Y32953239D01*
X25908000Y32905620D01*
X25812761Y32905620D01*
X25717523Y32953239D01*
X25669904Y33000858D01*
X25622285Y33096096D01*
X25574666Y33286572D01*
X25574666Y33524667D01*
X25622285Y33715143D01*
X25669904Y33810381D01*
X25717523Y33858000D01*
X25812761Y33905620D01*
X24741333Y30535620D02*
X24408000Y31011810D01*
X24169904Y30535620D02*
X24169904Y31535620D01*
X24550857Y31535620D01*
X24646095Y31488000D01*
X24693714Y31440381D01*
X24741333Y31345143D01*
X24741333Y31202286D01*
X24693714Y31107048D01*
X24646095Y31059429D01*
X24550857Y31011810D01*
X24169904Y31011810D01*
X25598476Y31202286D02*
X25598476Y30535620D01*
X25360380Y31583239D02*
X25122285Y30868953D01*
X25741333Y30868953D01*
%TO.C,R5*%
X23669904Y9934381D02*
X23717523Y9982000D01*
X23812761Y10029620D01*
X24050857Y10029620D01*
X24146095Y9982000D01*
X24193714Y9934381D01*
X24241333Y9839143D01*
X24241333Y9743905D01*
X24193714Y9601048D01*
X23622285Y9029620D01*
X24241333Y9029620D01*
X24622285Y9934381D02*
X24669904Y9982000D01*
X24765142Y10029620D01*
X25003238Y10029620D01*
X25098476Y9982000D01*
X25146095Y9934381D01*
X25193714Y9839143D01*
X25193714Y9743905D01*
X25146095Y9601048D01*
X24574666Y9029620D01*
X25193714Y9029620D01*
X25812761Y10029620D02*
X25908000Y10029620D01*
X26003238Y9982000D01*
X26050857Y9934381D01*
X26098476Y9839143D01*
X26146095Y9648667D01*
X26146095Y9410572D01*
X26098476Y9220096D01*
X26050857Y9124858D01*
X26003238Y9077239D01*
X25908000Y9029620D01*
X25812761Y9029620D01*
X25717523Y9077239D01*
X25669904Y9124858D01*
X25622285Y9220096D01*
X25574666Y9410572D01*
X25574666Y9648667D01*
X25622285Y9839143D01*
X25669904Y9934381D01*
X25717523Y9982000D01*
X25812761Y10029620D01*
X24741333Y6405620D02*
X24408000Y6881810D01*
X24169904Y6405620D02*
X24169904Y7405620D01*
X24550857Y7405620D01*
X24646095Y7358000D01*
X24693714Y7310381D01*
X24741333Y7215143D01*
X24741333Y7072286D01*
X24693714Y6977048D01*
X24646095Y6929429D01*
X24550857Y6881810D01*
X24169904Y6881810D01*
X25646095Y7405620D02*
X25169904Y7405620D01*
X25122285Y6929429D01*
X25169904Y6977048D01*
X25265142Y7024667D01*
X25503238Y7024667D01*
X25598476Y6977048D01*
X25646095Y6929429D01*
X25693714Y6834191D01*
X25693714Y6596096D01*
X25646095Y6500858D01*
X25598476Y6453239D01*
X25503238Y6405620D01*
X25265142Y6405620D01*
X25169904Y6453239D01*
X25122285Y6500858D01*
%TO.C,R6*%
X23669904Y16030381D02*
X23717523Y16078000D01*
X23812761Y16125620D01*
X24050857Y16125620D01*
X24146095Y16078000D01*
X24193714Y16030381D01*
X24241333Y15935143D01*
X24241333Y15839905D01*
X24193714Y15697048D01*
X23622285Y15125620D01*
X24241333Y15125620D01*
X24622285Y16030381D02*
X24669904Y16078000D01*
X24765142Y16125620D01*
X25003238Y16125620D01*
X25098476Y16078000D01*
X25146095Y16030381D01*
X25193714Y15935143D01*
X25193714Y15839905D01*
X25146095Y15697048D01*
X24574666Y15125620D01*
X25193714Y15125620D01*
X25812761Y16125620D02*
X25908000Y16125620D01*
X26003238Y16078000D01*
X26050857Y16030381D01*
X26098476Y15935143D01*
X26146095Y15744667D01*
X26146095Y15506572D01*
X26098476Y15316096D01*
X26050857Y15220858D01*
X26003238Y15173239D01*
X25908000Y15125620D01*
X25812761Y15125620D01*
X25717523Y15173239D01*
X25669904Y15220858D01*
X25622285Y15316096D01*
X25574666Y15506572D01*
X25574666Y15744667D01*
X25622285Y15935143D01*
X25669904Y16030381D01*
X25717523Y16078000D01*
X25812761Y16125620D01*
X24741333Y12755620D02*
X24408000Y13231810D01*
X24169904Y12755620D02*
X24169904Y13755620D01*
X24550857Y13755620D01*
X24646095Y13708000D01*
X24693714Y13660381D01*
X24741333Y13565143D01*
X24741333Y13422286D01*
X24693714Y13327048D01*
X24646095Y13279429D01*
X24550857Y13231810D01*
X24169904Y13231810D01*
X25598476Y13755620D02*
X25408000Y13755620D01*
X25312761Y13708000D01*
X25265142Y13660381D01*
X25169904Y13517524D01*
X25122285Y13327048D01*
X25122285Y12946096D01*
X25169904Y12850858D01*
X25217523Y12803239D01*
X25312761Y12755620D01*
X25503238Y12755620D01*
X25598476Y12803239D01*
X25646095Y12850858D01*
X25693714Y12946096D01*
X25693714Y13184191D01*
X25646095Y13279429D01*
X25598476Y13327048D01*
X25503238Y13374667D01*
X25312761Y13374667D01*
X25217523Y13327048D01*
X25169904Y13279429D01*
X25122285Y13184191D01*
%TO.C,R7*%
X23669904Y22126381D02*
X23717523Y22174000D01*
X23812761Y22221620D01*
X24050857Y22221620D01*
X24146095Y22174000D01*
X24193714Y22126381D01*
X24241333Y22031143D01*
X24241333Y21935905D01*
X24193714Y21793048D01*
X23622285Y21221620D01*
X24241333Y21221620D01*
X24622285Y22126381D02*
X24669904Y22174000D01*
X24765142Y22221620D01*
X25003238Y22221620D01*
X25098476Y22174000D01*
X25146095Y22126381D01*
X25193714Y22031143D01*
X25193714Y21935905D01*
X25146095Y21793048D01*
X24574666Y21221620D01*
X25193714Y21221620D01*
X25812761Y22221620D02*
X25908000Y22221620D01*
X26003238Y22174000D01*
X26050857Y22126381D01*
X26098476Y22031143D01*
X26146095Y21840667D01*
X26146095Y21602572D01*
X26098476Y21412096D01*
X26050857Y21316858D01*
X26003238Y21269239D01*
X25908000Y21221620D01*
X25812761Y21221620D01*
X25717523Y21269239D01*
X25669904Y21316858D01*
X25622285Y21412096D01*
X25574666Y21602572D01*
X25574666Y21840667D01*
X25622285Y22031143D01*
X25669904Y22126381D01*
X25717523Y22174000D01*
X25812761Y22221620D01*
X24741333Y18851620D02*
X24408000Y19327810D01*
X24169904Y18851620D02*
X24169904Y19851620D01*
X24550857Y19851620D01*
X24646095Y19804000D01*
X24693714Y19756381D01*
X24741333Y19661143D01*
X24741333Y19518286D01*
X24693714Y19423048D01*
X24646095Y19375429D01*
X24550857Y19327810D01*
X24169904Y19327810D01*
X25074666Y19851620D02*
X25741333Y19851620D01*
X25312761Y18851620D01*
%TO.C,R8*%
X23669904Y28222381D02*
X23717523Y28270000D01*
X23812761Y28317620D01*
X24050857Y28317620D01*
X24146095Y28270000D01*
X24193714Y28222381D01*
X24241333Y28127143D01*
X24241333Y28031905D01*
X24193714Y27889048D01*
X23622285Y27317620D01*
X24241333Y27317620D01*
X24622285Y28222381D02*
X24669904Y28270000D01*
X24765142Y28317620D01*
X25003238Y28317620D01*
X25098476Y28270000D01*
X25146095Y28222381D01*
X25193714Y28127143D01*
X25193714Y28031905D01*
X25146095Y27889048D01*
X24574666Y27317620D01*
X25193714Y27317620D01*
X25812761Y28317620D02*
X25908000Y28317620D01*
X26003238Y28270000D01*
X26050857Y28222381D01*
X26098476Y28127143D01*
X26146095Y27936667D01*
X26146095Y27698572D01*
X26098476Y27508096D01*
X26050857Y27412858D01*
X26003238Y27365239D01*
X25908000Y27317620D01*
X25812761Y27317620D01*
X25717523Y27365239D01*
X25669904Y27412858D01*
X25622285Y27508096D01*
X25574666Y27698572D01*
X25574666Y27936667D01*
X25622285Y28127143D01*
X25669904Y28222381D01*
X25717523Y28270000D01*
X25812761Y28317620D01*
X24741333Y24947620D02*
X24408000Y25423810D01*
X24169904Y24947620D02*
X24169904Y25947620D01*
X24550857Y25947620D01*
X24646095Y25900000D01*
X24693714Y25852381D01*
X24741333Y25757143D01*
X24741333Y25614286D01*
X24693714Y25519048D01*
X24646095Y25471429D01*
X24550857Y25423810D01*
X24169904Y25423810D01*
X25312761Y25519048D02*
X25217523Y25566667D01*
X25169904Y25614286D01*
X25122285Y25709524D01*
X25122285Y25757143D01*
X25169904Y25852381D01*
X25217523Y25900000D01*
X25312761Y25947620D01*
X25503238Y25947620D01*
X25598476Y25900000D01*
X25646095Y25852381D01*
X25693714Y25757143D01*
X25693714Y25709524D01*
X25646095Y25614286D01*
X25598476Y25566667D01*
X25503238Y25519048D01*
X25312761Y25519048D01*
X25217523Y25471429D01*
X25169904Y25423810D01*
X25122285Y25328572D01*
X25122285Y25138096D01*
X25169904Y25042858D01*
X25217523Y24995239D01*
X25312761Y24947620D01*
X25503238Y24947620D01*
X25598476Y24995239D01*
X25646095Y25042858D01*
X25693714Y25138096D01*
X25693714Y25328572D01*
X25646095Y25423810D01*
X25598476Y25471429D01*
X25503238Y25519048D01*
%TD*%
M02*
