G04 #@! TF.GenerationSoftware,KiCad,Pcbnew,5.1.2-1.fc30*
G04 #@! TF.CreationDate,2019-07-17T03:16:36+02:00*
G04 #@! TF.ProjectId,bsd_programmer,6273645f-7072-46f6-9772-616d6d65722e,1.0*
G04 #@! TF.SameCoordinates,Original*
G04 #@! TF.FileFunction,Soldermask,Top*
G04 #@! TF.FilePolarity,Negative*
%FSLAX46Y46*%
G04 Gerber Fmt 4.6, Leading zero omitted, Abs format (unit mm)*
G04 Created by KiCad (PCBNEW 5.1.2-1.fc30) date 2019-07-17 03:16:36*
%MOMM*%
%LPD*%
G04 APERTURE LIST*
%ADD10C,0.100000*%
G04 APERTURE END LIST*
D10*
G36*
X177671487Y-110762996D02*
G01*
X177908253Y-110861068D01*
X177908255Y-110861069D01*
X178063913Y-110965076D01*
X178121339Y-111003447D01*
X178302553Y-111184661D01*
X178444932Y-111397747D01*
X178543004Y-111634513D01*
X178593000Y-111885861D01*
X178593000Y-112142139D01*
X178543004Y-112393487D01*
X178444932Y-112630253D01*
X178444931Y-112630255D01*
X178302553Y-112843339D01*
X178121339Y-113024553D01*
X177908255Y-113166931D01*
X177908254Y-113166932D01*
X177908253Y-113166932D01*
X177671487Y-113265004D01*
X177420139Y-113315000D01*
X177163861Y-113315000D01*
X176912513Y-113265004D01*
X176675747Y-113166932D01*
X176675746Y-113166932D01*
X176675745Y-113166931D01*
X176462661Y-113024553D01*
X176281447Y-112843339D01*
X176139069Y-112630255D01*
X176139068Y-112630253D01*
X176040996Y-112393487D01*
X175991000Y-112142139D01*
X175991000Y-111885861D01*
X176040996Y-111634513D01*
X176139068Y-111397747D01*
X176281447Y-111184661D01*
X176462661Y-111003447D01*
X176520087Y-110965076D01*
X176675745Y-110861069D01*
X176675747Y-110861068D01*
X176912513Y-110762996D01*
X177163861Y-110713000D01*
X177420139Y-110713000D01*
X177671487Y-110762996D01*
X177671487Y-110762996D01*
G37*
G36*
X163316228Y-109671703D02*
G01*
X163471100Y-109735853D01*
X163610481Y-109828985D01*
X163729015Y-109947519D01*
X163822147Y-110086900D01*
X163886297Y-110241772D01*
X163919000Y-110406184D01*
X163919000Y-110573816D01*
X163886297Y-110738228D01*
X163822147Y-110893100D01*
X163729015Y-111032481D01*
X163610481Y-111151015D01*
X163471100Y-111244147D01*
X163316228Y-111308297D01*
X163151816Y-111341000D01*
X162984184Y-111341000D01*
X162819772Y-111308297D01*
X162664900Y-111244147D01*
X162525519Y-111151015D01*
X162406985Y-111032481D01*
X162313853Y-110893100D01*
X162249703Y-110738228D01*
X162217000Y-110573816D01*
X162217000Y-110406184D01*
X162249703Y-110241772D01*
X162313853Y-110086900D01*
X162406985Y-109947519D01*
X162525519Y-109828985D01*
X162664900Y-109735853D01*
X162819772Y-109671703D01*
X162984184Y-109639000D01*
X163151816Y-109639000D01*
X163316228Y-109671703D01*
X163316228Y-109671703D01*
G37*
G36*
X153074823Y-109651313D02*
G01*
X153235242Y-109699976D01*
X153302361Y-109735852D01*
X153383078Y-109778996D01*
X153512659Y-109885341D01*
X153619004Y-110014922D01*
X153619005Y-110014924D01*
X153698024Y-110162758D01*
X153746687Y-110323177D01*
X153763117Y-110490000D01*
X153746687Y-110656823D01*
X153698024Y-110817242D01*
X153657477Y-110893100D01*
X153619004Y-110965078D01*
X153512659Y-111094659D01*
X153383078Y-111201004D01*
X153383076Y-111201005D01*
X153235242Y-111280024D01*
X153074823Y-111328687D01*
X152949804Y-111341000D01*
X152866196Y-111341000D01*
X152741177Y-111328687D01*
X152580758Y-111280024D01*
X152432924Y-111201005D01*
X152432922Y-111201004D01*
X152303341Y-111094659D01*
X152196996Y-110965078D01*
X152158523Y-110893100D01*
X152117976Y-110817242D01*
X152069313Y-110656823D01*
X152052883Y-110490000D01*
X152069313Y-110323177D01*
X152117976Y-110162758D01*
X152196995Y-110014924D01*
X152196996Y-110014922D01*
X152303341Y-109885341D01*
X152432922Y-109778996D01*
X152513639Y-109735852D01*
X152580758Y-109699976D01*
X152741177Y-109651313D01*
X152866196Y-109639000D01*
X152949804Y-109639000D01*
X153074823Y-109651313D01*
X153074823Y-109651313D01*
G37*
G36*
X145536228Y-106081703D02*
G01*
X145691100Y-106145853D01*
X145830481Y-106238985D01*
X145949015Y-106357519D01*
X146042147Y-106496900D01*
X146106297Y-106651772D01*
X146139000Y-106816184D01*
X146139000Y-106983816D01*
X146106297Y-107148228D01*
X146042147Y-107303100D01*
X145949015Y-107442481D01*
X145830481Y-107561015D01*
X145691100Y-107654147D01*
X145536228Y-107718297D01*
X145371816Y-107751000D01*
X145204184Y-107751000D01*
X145039772Y-107718297D01*
X144884900Y-107654147D01*
X144745519Y-107561015D01*
X144626985Y-107442481D01*
X144533853Y-107303100D01*
X144469703Y-107148228D01*
X144437000Y-106983816D01*
X144437000Y-106816184D01*
X144469703Y-106651772D01*
X144533853Y-106496900D01*
X144626985Y-106357519D01*
X144745519Y-106238985D01*
X144884900Y-106145853D01*
X145039772Y-106081703D01*
X145204184Y-106049000D01*
X145371816Y-106049000D01*
X145536228Y-106081703D01*
X145536228Y-106081703D01*
G37*
G36*
X142996228Y-104696703D02*
G01*
X143151100Y-104760853D01*
X143290481Y-104853985D01*
X143409015Y-104972519D01*
X143502147Y-105111900D01*
X143566297Y-105266772D01*
X143599000Y-105431184D01*
X143599000Y-105598816D01*
X143566297Y-105763228D01*
X143502147Y-105918100D01*
X143409015Y-106057481D01*
X143290481Y-106176015D01*
X143151100Y-106269147D01*
X142996228Y-106333297D01*
X142831816Y-106366000D01*
X142664184Y-106366000D01*
X142499772Y-106333297D01*
X142344900Y-106269147D01*
X142205519Y-106176015D01*
X142086985Y-106057481D01*
X141993853Y-105918100D01*
X141929703Y-105763228D01*
X141897000Y-105598816D01*
X141897000Y-105431184D01*
X141929703Y-105266772D01*
X141993853Y-105111900D01*
X142086985Y-104972519D01*
X142205519Y-104853985D01*
X142344900Y-104760853D01*
X142499772Y-104696703D01*
X142664184Y-104664000D01*
X142831816Y-104664000D01*
X142996228Y-104696703D01*
X142996228Y-104696703D01*
G37*
G36*
X153074823Y-103555313D02*
G01*
X153235242Y-103603976D01*
X153302361Y-103639852D01*
X153383078Y-103682996D01*
X153512659Y-103789341D01*
X153619004Y-103918922D01*
X153619005Y-103918924D01*
X153698024Y-104066758D01*
X153746687Y-104227177D01*
X153763117Y-104394000D01*
X153746687Y-104560823D01*
X153698024Y-104721242D01*
X153657477Y-104797100D01*
X153619004Y-104869078D01*
X153512659Y-104998659D01*
X153383078Y-105105004D01*
X153383076Y-105105005D01*
X153235242Y-105184024D01*
X153074823Y-105232687D01*
X152949804Y-105245000D01*
X152866196Y-105245000D01*
X152741177Y-105232687D01*
X152580758Y-105184024D01*
X152432924Y-105105005D01*
X152432922Y-105105004D01*
X152303341Y-104998659D01*
X152196996Y-104869078D01*
X152158523Y-104797100D01*
X152117976Y-104721242D01*
X152069313Y-104560823D01*
X152052883Y-104394000D01*
X152069313Y-104227177D01*
X152117976Y-104066758D01*
X152196995Y-103918924D01*
X152196996Y-103918922D01*
X152303341Y-103789341D01*
X152432922Y-103682996D01*
X152513639Y-103639852D01*
X152580758Y-103603976D01*
X152741177Y-103555313D01*
X152866196Y-103543000D01*
X152949804Y-103543000D01*
X153074823Y-103555313D01*
X153074823Y-103555313D01*
G37*
G36*
X163316228Y-103575703D02*
G01*
X163471100Y-103639853D01*
X163610481Y-103732985D01*
X163729015Y-103851519D01*
X163822147Y-103990900D01*
X163886297Y-104145772D01*
X163919000Y-104310184D01*
X163919000Y-104477816D01*
X163886297Y-104642228D01*
X163822147Y-104797100D01*
X163729015Y-104936481D01*
X163610481Y-105055015D01*
X163471100Y-105148147D01*
X163316228Y-105212297D01*
X163151816Y-105245000D01*
X162984184Y-105245000D01*
X162819772Y-105212297D01*
X162664900Y-105148147D01*
X162525519Y-105055015D01*
X162406985Y-104936481D01*
X162313853Y-104797100D01*
X162249703Y-104642228D01*
X162217000Y-104477816D01*
X162217000Y-104310184D01*
X162249703Y-104145772D01*
X162313853Y-103990900D01*
X162406985Y-103851519D01*
X162525519Y-103732985D01*
X162664900Y-103639853D01*
X162819772Y-103575703D01*
X162984184Y-103543000D01*
X163151816Y-103543000D01*
X163316228Y-103575703D01*
X163316228Y-103575703D01*
G37*
G36*
X145536228Y-103311703D02*
G01*
X145691100Y-103375853D01*
X145830481Y-103468985D01*
X145949015Y-103587519D01*
X146042147Y-103726900D01*
X146106297Y-103881772D01*
X146139000Y-104046184D01*
X146139000Y-104213816D01*
X146106297Y-104378228D01*
X146042147Y-104533100D01*
X145949015Y-104672481D01*
X145830481Y-104791015D01*
X145691100Y-104884147D01*
X145536228Y-104948297D01*
X145371816Y-104981000D01*
X145204184Y-104981000D01*
X145039772Y-104948297D01*
X144884900Y-104884147D01*
X144745519Y-104791015D01*
X144626985Y-104672481D01*
X144533853Y-104533100D01*
X144469703Y-104378228D01*
X144437000Y-104213816D01*
X144437000Y-104046184D01*
X144469703Y-103881772D01*
X144533853Y-103726900D01*
X144626985Y-103587519D01*
X144745519Y-103468985D01*
X144884900Y-103375853D01*
X145039772Y-103311703D01*
X145204184Y-103279000D01*
X145371816Y-103279000D01*
X145536228Y-103311703D01*
X145536228Y-103311703D01*
G37*
G36*
X142996228Y-101926703D02*
G01*
X143151100Y-101990853D01*
X143290481Y-102083985D01*
X143409015Y-102202519D01*
X143502147Y-102341900D01*
X143566297Y-102496772D01*
X143599000Y-102661184D01*
X143599000Y-102828816D01*
X143566297Y-102993228D01*
X143502147Y-103148100D01*
X143409015Y-103287481D01*
X143290481Y-103406015D01*
X143151100Y-103499147D01*
X142996228Y-103563297D01*
X142831816Y-103596000D01*
X142664184Y-103596000D01*
X142499772Y-103563297D01*
X142344900Y-103499147D01*
X142205519Y-103406015D01*
X142086985Y-103287481D01*
X141993853Y-103148100D01*
X141929703Y-102993228D01*
X141897000Y-102828816D01*
X141897000Y-102661184D01*
X141929703Y-102496772D01*
X141993853Y-102341900D01*
X142086985Y-102202519D01*
X142205519Y-102083985D01*
X142344900Y-101990853D01*
X142499772Y-101926703D01*
X142664184Y-101894000D01*
X142831816Y-101894000D01*
X142996228Y-101926703D01*
X142996228Y-101926703D01*
G37*
G36*
X145536228Y-100541703D02*
G01*
X145691100Y-100605853D01*
X145830481Y-100698985D01*
X145949015Y-100817519D01*
X146042147Y-100956900D01*
X146106297Y-101111772D01*
X146139000Y-101276184D01*
X146139000Y-101443816D01*
X146106297Y-101608228D01*
X146042147Y-101763100D01*
X145949015Y-101902481D01*
X145830481Y-102021015D01*
X145691100Y-102114147D01*
X145536228Y-102178297D01*
X145371816Y-102211000D01*
X145204184Y-102211000D01*
X145039772Y-102178297D01*
X144884900Y-102114147D01*
X144745519Y-102021015D01*
X144626985Y-101902481D01*
X144533853Y-101763100D01*
X144469703Y-101608228D01*
X144437000Y-101443816D01*
X144437000Y-101276184D01*
X144469703Y-101111772D01*
X144533853Y-100956900D01*
X144626985Y-100817519D01*
X144745519Y-100698985D01*
X144884900Y-100605853D01*
X145039772Y-100541703D01*
X145204184Y-100509000D01*
X145371816Y-100509000D01*
X145536228Y-100541703D01*
X145536228Y-100541703D01*
G37*
G36*
X142996228Y-99156703D02*
G01*
X143151100Y-99220853D01*
X143290481Y-99313985D01*
X143409015Y-99432519D01*
X143502147Y-99571900D01*
X143566297Y-99726772D01*
X143599000Y-99891184D01*
X143599000Y-100058816D01*
X143566297Y-100223228D01*
X143502147Y-100378100D01*
X143409015Y-100517481D01*
X143290481Y-100636015D01*
X143151100Y-100729147D01*
X142996228Y-100793297D01*
X142831816Y-100826000D01*
X142664184Y-100826000D01*
X142499772Y-100793297D01*
X142344900Y-100729147D01*
X142205519Y-100636015D01*
X142086985Y-100517481D01*
X141993853Y-100378100D01*
X141929703Y-100223228D01*
X141897000Y-100058816D01*
X141897000Y-99891184D01*
X141929703Y-99726772D01*
X141993853Y-99571900D01*
X142086985Y-99432519D01*
X142205519Y-99313985D01*
X142344900Y-99220853D01*
X142499772Y-99156703D01*
X142664184Y-99124000D01*
X142831816Y-99124000D01*
X142996228Y-99156703D01*
X142996228Y-99156703D01*
G37*
G36*
X145536228Y-97771703D02*
G01*
X145691100Y-97835853D01*
X145830481Y-97928985D01*
X145949015Y-98047519D01*
X146042147Y-98186900D01*
X146106297Y-98341772D01*
X146139000Y-98506184D01*
X146139000Y-98673816D01*
X146106297Y-98838228D01*
X146042147Y-98993100D01*
X145949015Y-99132481D01*
X145830481Y-99251015D01*
X145691100Y-99344147D01*
X145536228Y-99408297D01*
X145371816Y-99441000D01*
X145204184Y-99441000D01*
X145039772Y-99408297D01*
X144884900Y-99344147D01*
X144745519Y-99251015D01*
X144626985Y-99132481D01*
X144533853Y-98993100D01*
X144469703Y-98838228D01*
X144437000Y-98673816D01*
X144437000Y-98506184D01*
X144469703Y-98341772D01*
X144533853Y-98186900D01*
X144626985Y-98047519D01*
X144745519Y-97928985D01*
X144884900Y-97835853D01*
X145039772Y-97771703D01*
X145204184Y-97739000D01*
X145371816Y-97739000D01*
X145536228Y-97771703D01*
X145536228Y-97771703D01*
G37*
G36*
X153074823Y-97459313D02*
G01*
X153235242Y-97507976D01*
X153302361Y-97543852D01*
X153383078Y-97586996D01*
X153512659Y-97693341D01*
X153619004Y-97822922D01*
X153619005Y-97822924D01*
X153698024Y-97970758D01*
X153746687Y-98131177D01*
X153763117Y-98298000D01*
X153746687Y-98464823D01*
X153698024Y-98625242D01*
X153657477Y-98701100D01*
X153619004Y-98773078D01*
X153512659Y-98902659D01*
X153383078Y-99009004D01*
X153383076Y-99009005D01*
X153235242Y-99088024D01*
X153074823Y-99136687D01*
X152949804Y-99149000D01*
X152866196Y-99149000D01*
X152741177Y-99136687D01*
X152580758Y-99088024D01*
X152432924Y-99009005D01*
X152432922Y-99009004D01*
X152303341Y-98902659D01*
X152196996Y-98773078D01*
X152158523Y-98701100D01*
X152117976Y-98625242D01*
X152069313Y-98464823D01*
X152052883Y-98298000D01*
X152069313Y-98131177D01*
X152117976Y-97970758D01*
X152196995Y-97822924D01*
X152196996Y-97822922D01*
X152303341Y-97693341D01*
X152432922Y-97586996D01*
X152513639Y-97543852D01*
X152580758Y-97507976D01*
X152741177Y-97459313D01*
X152866196Y-97447000D01*
X152949804Y-97447000D01*
X153074823Y-97459313D01*
X153074823Y-97459313D01*
G37*
G36*
X163316228Y-97479703D02*
G01*
X163471100Y-97543853D01*
X163610481Y-97636985D01*
X163729015Y-97755519D01*
X163822147Y-97894900D01*
X163886297Y-98049772D01*
X163919000Y-98214184D01*
X163919000Y-98381816D01*
X163886297Y-98546228D01*
X163822147Y-98701100D01*
X163729015Y-98840481D01*
X163610481Y-98959015D01*
X163471100Y-99052147D01*
X163316228Y-99116297D01*
X163151816Y-99149000D01*
X162984184Y-99149000D01*
X162819772Y-99116297D01*
X162664900Y-99052147D01*
X162525519Y-98959015D01*
X162406985Y-98840481D01*
X162313853Y-98701100D01*
X162249703Y-98546228D01*
X162217000Y-98381816D01*
X162217000Y-98214184D01*
X162249703Y-98049772D01*
X162313853Y-97894900D01*
X162406985Y-97755519D01*
X162525519Y-97636985D01*
X162664900Y-97543853D01*
X162819772Y-97479703D01*
X162984184Y-97447000D01*
X163151816Y-97447000D01*
X163316228Y-97479703D01*
X163316228Y-97479703D01*
G37*
G36*
X142996228Y-96386703D02*
G01*
X143151100Y-96450853D01*
X143290481Y-96543985D01*
X143409015Y-96662519D01*
X143502147Y-96801900D01*
X143566297Y-96956772D01*
X143599000Y-97121184D01*
X143599000Y-97288816D01*
X143566297Y-97453228D01*
X143502147Y-97608100D01*
X143409015Y-97747481D01*
X143290481Y-97866015D01*
X143151100Y-97959147D01*
X142996228Y-98023297D01*
X142831816Y-98056000D01*
X142664184Y-98056000D01*
X142499772Y-98023297D01*
X142344900Y-97959147D01*
X142205519Y-97866015D01*
X142086985Y-97747481D01*
X141993853Y-97608100D01*
X141929703Y-97453228D01*
X141897000Y-97288816D01*
X141897000Y-97121184D01*
X141929703Y-96956772D01*
X141993853Y-96801900D01*
X142086985Y-96662519D01*
X142205519Y-96543985D01*
X142344900Y-96450853D01*
X142499772Y-96386703D01*
X142664184Y-96354000D01*
X142831816Y-96354000D01*
X142996228Y-96386703D01*
X142996228Y-96386703D01*
G37*
G36*
X179249294Y-95872633D02*
G01*
X179421695Y-95924931D01*
X179580583Y-96009858D01*
X179719849Y-96124151D01*
X179834142Y-96263417D01*
X179919069Y-96422305D01*
X179971367Y-96594706D01*
X179989025Y-96774000D01*
X179971367Y-96953294D01*
X179919069Y-97125695D01*
X179834142Y-97284583D01*
X179719849Y-97423849D01*
X179580583Y-97538142D01*
X179421695Y-97623069D01*
X179249294Y-97675367D01*
X179114931Y-97688600D01*
X179025069Y-97688600D01*
X178890706Y-97675367D01*
X178718305Y-97623069D01*
X178559417Y-97538142D01*
X178420151Y-97423849D01*
X178305858Y-97284583D01*
X178220931Y-97125695D01*
X178168633Y-96953294D01*
X178150975Y-96774000D01*
X178168633Y-96594706D01*
X178220931Y-96422305D01*
X178305858Y-96263417D01*
X178420151Y-96124151D01*
X178559417Y-96009858D01*
X178718305Y-95924931D01*
X178890706Y-95872633D01*
X179025069Y-95859400D01*
X179114931Y-95859400D01*
X179249294Y-95872633D01*
X179249294Y-95872633D01*
G37*
G36*
X176709294Y-95872633D02*
G01*
X176881695Y-95924931D01*
X177040583Y-96009858D01*
X177179849Y-96124151D01*
X177294142Y-96263417D01*
X177379069Y-96422305D01*
X177431367Y-96594706D01*
X177449025Y-96774000D01*
X177431367Y-96953294D01*
X177379069Y-97125695D01*
X177294142Y-97284583D01*
X177179849Y-97423849D01*
X177040583Y-97538142D01*
X176881695Y-97623069D01*
X176709294Y-97675367D01*
X176574931Y-97688600D01*
X176485069Y-97688600D01*
X176350706Y-97675367D01*
X176178305Y-97623069D01*
X176019417Y-97538142D01*
X175880151Y-97423849D01*
X175765858Y-97284583D01*
X175680931Y-97125695D01*
X175628633Y-96953294D01*
X175610975Y-96774000D01*
X175628633Y-96594706D01*
X175680931Y-96422305D01*
X175765858Y-96263417D01*
X175880151Y-96124151D01*
X176019417Y-96009858D01*
X176178305Y-95924931D01*
X176350706Y-95872633D01*
X176485069Y-95859400D01*
X176574931Y-95859400D01*
X176709294Y-95872633D01*
X176709294Y-95872633D01*
G37*
G36*
X145536228Y-95001703D02*
G01*
X145691100Y-95065853D01*
X145830481Y-95158985D01*
X145949015Y-95277519D01*
X146042147Y-95416900D01*
X146106297Y-95571772D01*
X146139000Y-95736184D01*
X146139000Y-95903816D01*
X146106297Y-96068228D01*
X146042147Y-96223100D01*
X145949015Y-96362481D01*
X145830481Y-96481015D01*
X145691100Y-96574147D01*
X145536228Y-96638297D01*
X145371816Y-96671000D01*
X145204184Y-96671000D01*
X145039772Y-96638297D01*
X144884900Y-96574147D01*
X144745519Y-96481015D01*
X144626985Y-96362481D01*
X144533853Y-96223100D01*
X144469703Y-96068228D01*
X144437000Y-95903816D01*
X144437000Y-95736184D01*
X144469703Y-95571772D01*
X144533853Y-95416900D01*
X144626985Y-95277519D01*
X144745519Y-95158985D01*
X144884900Y-95065853D01*
X145039772Y-95001703D01*
X145204184Y-94969000D01*
X145371816Y-94969000D01*
X145536228Y-95001703D01*
X145536228Y-95001703D01*
G37*
G36*
X142996228Y-93616703D02*
G01*
X143151100Y-93680853D01*
X143290481Y-93773985D01*
X143409015Y-93892519D01*
X143502147Y-94031900D01*
X143566297Y-94186772D01*
X143599000Y-94351184D01*
X143599000Y-94518816D01*
X143566297Y-94683228D01*
X143502147Y-94838100D01*
X143409015Y-94977481D01*
X143290481Y-95096015D01*
X143151100Y-95189147D01*
X142996228Y-95253297D01*
X142831816Y-95286000D01*
X142664184Y-95286000D01*
X142499772Y-95253297D01*
X142344900Y-95189147D01*
X142205519Y-95096015D01*
X142086985Y-94977481D01*
X141993853Y-94838100D01*
X141929703Y-94683228D01*
X141897000Y-94518816D01*
X141897000Y-94351184D01*
X141929703Y-94186772D01*
X141993853Y-94031900D01*
X142086985Y-93892519D01*
X142205519Y-93773985D01*
X142344900Y-93680853D01*
X142499772Y-93616703D01*
X142664184Y-93584000D01*
X142831816Y-93584000D01*
X142996228Y-93616703D01*
X142996228Y-93616703D01*
G37*
G36*
X179249294Y-93332633D02*
G01*
X179421695Y-93384931D01*
X179580583Y-93469858D01*
X179719849Y-93584151D01*
X179834142Y-93723417D01*
X179919069Y-93882305D01*
X179971367Y-94054706D01*
X179989025Y-94234000D01*
X179971367Y-94413294D01*
X179919069Y-94585695D01*
X179834142Y-94744583D01*
X179719849Y-94883849D01*
X179580583Y-94998142D01*
X179421695Y-95083069D01*
X179249294Y-95135367D01*
X179114931Y-95148600D01*
X179025069Y-95148600D01*
X178890706Y-95135367D01*
X178718305Y-95083069D01*
X178559417Y-94998142D01*
X178420151Y-94883849D01*
X178305858Y-94744583D01*
X178220931Y-94585695D01*
X178168633Y-94413294D01*
X178150975Y-94234000D01*
X178168633Y-94054706D01*
X178220931Y-93882305D01*
X178305858Y-93723417D01*
X178420151Y-93584151D01*
X178559417Y-93469858D01*
X178718305Y-93384931D01*
X178890706Y-93332633D01*
X179025069Y-93319400D01*
X179114931Y-93319400D01*
X179249294Y-93332633D01*
X179249294Y-93332633D01*
G37*
G36*
X176709294Y-93332633D02*
G01*
X176881695Y-93384931D01*
X177040583Y-93469858D01*
X177179849Y-93584151D01*
X177294142Y-93723417D01*
X177379069Y-93882305D01*
X177431367Y-94054706D01*
X177449025Y-94234000D01*
X177431367Y-94413294D01*
X177379069Y-94585695D01*
X177294142Y-94744583D01*
X177179849Y-94883849D01*
X177040583Y-94998142D01*
X176881695Y-95083069D01*
X176709294Y-95135367D01*
X176574931Y-95148600D01*
X176485069Y-95148600D01*
X176350706Y-95135367D01*
X176178305Y-95083069D01*
X176019417Y-94998142D01*
X175880151Y-94883849D01*
X175765858Y-94744583D01*
X175680931Y-94585695D01*
X175628633Y-94413294D01*
X175610975Y-94234000D01*
X175628633Y-94054706D01*
X175680931Y-93882305D01*
X175765858Y-93723417D01*
X175880151Y-93584151D01*
X176019417Y-93469858D01*
X176178305Y-93384931D01*
X176350706Y-93332633D01*
X176485069Y-93319400D01*
X176574931Y-93319400D01*
X176709294Y-93332633D01*
X176709294Y-93332633D01*
G37*
G36*
X145536228Y-92231703D02*
G01*
X145691100Y-92295853D01*
X145830481Y-92388985D01*
X145949015Y-92507519D01*
X146042147Y-92646900D01*
X146106297Y-92801772D01*
X146139000Y-92966184D01*
X146139000Y-93133816D01*
X146106297Y-93298228D01*
X146042147Y-93453100D01*
X145949015Y-93592481D01*
X145830481Y-93711015D01*
X145691100Y-93804147D01*
X145536228Y-93868297D01*
X145371816Y-93901000D01*
X145204184Y-93901000D01*
X145039772Y-93868297D01*
X144884900Y-93804147D01*
X144745519Y-93711015D01*
X144626985Y-93592481D01*
X144533853Y-93453100D01*
X144469703Y-93298228D01*
X144437000Y-93133816D01*
X144437000Y-92966184D01*
X144469703Y-92801772D01*
X144533853Y-92646900D01*
X144626985Y-92507519D01*
X144745519Y-92388985D01*
X144884900Y-92295853D01*
X145039772Y-92231703D01*
X145204184Y-92199000D01*
X145371816Y-92199000D01*
X145536228Y-92231703D01*
X145536228Y-92231703D01*
G37*
G36*
X153074823Y-91363313D02*
G01*
X153235242Y-91411976D01*
X153302361Y-91447852D01*
X153383078Y-91490996D01*
X153512659Y-91597341D01*
X153619004Y-91726922D01*
X153619005Y-91726924D01*
X153698024Y-91874758D01*
X153746687Y-92035177D01*
X153763117Y-92202000D01*
X153746687Y-92368823D01*
X153698024Y-92529242D01*
X153657477Y-92605100D01*
X153619004Y-92677078D01*
X153512659Y-92806659D01*
X153383078Y-92913004D01*
X153383076Y-92913005D01*
X153235242Y-92992024D01*
X153074823Y-93040687D01*
X152949804Y-93053000D01*
X152866196Y-93053000D01*
X152741177Y-93040687D01*
X152580758Y-92992024D01*
X152432924Y-92913005D01*
X152432922Y-92913004D01*
X152303341Y-92806659D01*
X152196996Y-92677078D01*
X152158523Y-92605100D01*
X152117976Y-92529242D01*
X152069313Y-92368823D01*
X152052883Y-92202000D01*
X152069313Y-92035177D01*
X152117976Y-91874758D01*
X152196995Y-91726924D01*
X152196996Y-91726922D01*
X152303341Y-91597341D01*
X152432922Y-91490996D01*
X152513639Y-91447852D01*
X152580758Y-91411976D01*
X152741177Y-91363313D01*
X152866196Y-91351000D01*
X152949804Y-91351000D01*
X153074823Y-91363313D01*
X153074823Y-91363313D01*
G37*
G36*
X163316228Y-91383703D02*
G01*
X163471100Y-91447853D01*
X163610481Y-91540985D01*
X163729015Y-91659519D01*
X163822147Y-91798900D01*
X163886297Y-91953772D01*
X163919000Y-92118184D01*
X163919000Y-92285816D01*
X163886297Y-92450228D01*
X163822147Y-92605100D01*
X163729015Y-92744481D01*
X163610481Y-92863015D01*
X163471100Y-92956147D01*
X163316228Y-93020297D01*
X163151816Y-93053000D01*
X162984184Y-93053000D01*
X162819772Y-93020297D01*
X162664900Y-92956147D01*
X162525519Y-92863015D01*
X162406985Y-92744481D01*
X162313853Y-92605100D01*
X162249703Y-92450228D01*
X162217000Y-92285816D01*
X162217000Y-92118184D01*
X162249703Y-91953772D01*
X162313853Y-91798900D01*
X162406985Y-91659519D01*
X162525519Y-91540985D01*
X162664900Y-91447853D01*
X162819772Y-91383703D01*
X162984184Y-91351000D01*
X163151816Y-91351000D01*
X163316228Y-91383703D01*
X163316228Y-91383703D01*
G37*
G36*
X179249294Y-90792633D02*
G01*
X179421695Y-90844931D01*
X179580583Y-90929858D01*
X179719849Y-91044151D01*
X179834142Y-91183417D01*
X179919069Y-91342305D01*
X179971367Y-91514706D01*
X179989025Y-91694000D01*
X179971367Y-91873294D01*
X179919069Y-92045695D01*
X179834142Y-92204583D01*
X179719849Y-92343849D01*
X179580583Y-92458142D01*
X179421695Y-92543069D01*
X179249294Y-92595367D01*
X179114931Y-92608600D01*
X179025069Y-92608600D01*
X178890706Y-92595367D01*
X178718305Y-92543069D01*
X178559417Y-92458142D01*
X178420151Y-92343849D01*
X178305858Y-92204583D01*
X178220931Y-92045695D01*
X178168633Y-91873294D01*
X178150975Y-91694000D01*
X178168633Y-91514706D01*
X178220931Y-91342305D01*
X178305858Y-91183417D01*
X178420151Y-91044151D01*
X178559417Y-90929858D01*
X178718305Y-90844931D01*
X178890706Y-90792633D01*
X179025069Y-90779400D01*
X179114931Y-90779400D01*
X179249294Y-90792633D01*
X179249294Y-90792633D01*
G37*
G36*
X176709294Y-90792633D02*
G01*
X176881695Y-90844931D01*
X177040583Y-90929858D01*
X177179849Y-91044151D01*
X177294142Y-91183417D01*
X177379069Y-91342305D01*
X177431367Y-91514706D01*
X177449025Y-91694000D01*
X177431367Y-91873294D01*
X177379069Y-92045695D01*
X177294142Y-92204583D01*
X177179849Y-92343849D01*
X177040583Y-92458142D01*
X176881695Y-92543069D01*
X176709294Y-92595367D01*
X176574931Y-92608600D01*
X176485069Y-92608600D01*
X176350706Y-92595367D01*
X176178305Y-92543069D01*
X176019417Y-92458142D01*
X175880151Y-92343849D01*
X175765858Y-92204583D01*
X175680931Y-92045695D01*
X175628633Y-91873294D01*
X175610975Y-91694000D01*
X175628633Y-91514706D01*
X175680931Y-91342305D01*
X175765858Y-91183417D01*
X175880151Y-91044151D01*
X176019417Y-90929858D01*
X176178305Y-90844931D01*
X176350706Y-90792633D01*
X176485069Y-90779400D01*
X176574931Y-90779400D01*
X176709294Y-90792633D01*
X176709294Y-90792633D01*
G37*
G36*
X142996228Y-90846703D02*
G01*
X143151100Y-90910853D01*
X143290481Y-91003985D01*
X143409015Y-91122519D01*
X143502147Y-91261900D01*
X143566297Y-91416772D01*
X143599000Y-91581184D01*
X143599000Y-91748816D01*
X143566297Y-91913228D01*
X143502147Y-92068100D01*
X143409015Y-92207481D01*
X143290481Y-92326015D01*
X143151100Y-92419147D01*
X142996228Y-92483297D01*
X142831816Y-92516000D01*
X142664184Y-92516000D01*
X142499772Y-92483297D01*
X142344900Y-92419147D01*
X142205519Y-92326015D01*
X142086985Y-92207481D01*
X141993853Y-92068100D01*
X141929703Y-91913228D01*
X141897000Y-91748816D01*
X141897000Y-91581184D01*
X141929703Y-91416772D01*
X141993853Y-91261900D01*
X142086985Y-91122519D01*
X142205519Y-91003985D01*
X142344900Y-90910853D01*
X142499772Y-90846703D01*
X142664184Y-90814000D01*
X142831816Y-90814000D01*
X142996228Y-90846703D01*
X142996228Y-90846703D01*
G37*
G36*
X145536228Y-89461703D02*
G01*
X145691100Y-89525853D01*
X145830481Y-89618985D01*
X145949015Y-89737519D01*
X146042147Y-89876900D01*
X146106297Y-90031772D01*
X146139000Y-90196184D01*
X146139000Y-90363816D01*
X146106297Y-90528228D01*
X146042147Y-90683100D01*
X145949015Y-90822481D01*
X145830481Y-90941015D01*
X145691100Y-91034147D01*
X145536228Y-91098297D01*
X145371816Y-91131000D01*
X145204184Y-91131000D01*
X145039772Y-91098297D01*
X144884900Y-91034147D01*
X144745519Y-90941015D01*
X144626985Y-90822481D01*
X144533853Y-90683100D01*
X144469703Y-90528228D01*
X144437000Y-90363816D01*
X144437000Y-90196184D01*
X144469703Y-90031772D01*
X144533853Y-89876900D01*
X144626985Y-89737519D01*
X144745519Y-89618985D01*
X144884900Y-89525853D01*
X145039772Y-89461703D01*
X145204184Y-89429000D01*
X145371816Y-89429000D01*
X145536228Y-89461703D01*
X145536228Y-89461703D01*
G37*
G36*
X176709294Y-88252633D02*
G01*
X176881695Y-88304931D01*
X177040583Y-88389858D01*
X177179849Y-88504151D01*
X177294142Y-88643417D01*
X177379069Y-88802305D01*
X177431367Y-88974706D01*
X177449025Y-89154000D01*
X177431367Y-89333294D01*
X177379069Y-89505695D01*
X177294142Y-89664583D01*
X177179849Y-89803849D01*
X177040583Y-89918142D01*
X176881695Y-90003069D01*
X176709294Y-90055367D01*
X176574931Y-90068600D01*
X176485069Y-90068600D01*
X176350706Y-90055367D01*
X176178305Y-90003069D01*
X176019417Y-89918142D01*
X175880151Y-89803849D01*
X175765858Y-89664583D01*
X175680931Y-89505695D01*
X175628633Y-89333294D01*
X175610975Y-89154000D01*
X175628633Y-88974706D01*
X175680931Y-88802305D01*
X175765858Y-88643417D01*
X175880151Y-88504151D01*
X176019417Y-88389858D01*
X176178305Y-88304931D01*
X176350706Y-88252633D01*
X176485069Y-88239400D01*
X176574931Y-88239400D01*
X176709294Y-88252633D01*
X176709294Y-88252633D01*
G37*
G36*
X179249294Y-88252633D02*
G01*
X179421695Y-88304931D01*
X179580583Y-88389858D01*
X179719849Y-88504151D01*
X179834142Y-88643417D01*
X179919069Y-88802305D01*
X179971367Y-88974706D01*
X179989025Y-89154000D01*
X179971367Y-89333294D01*
X179919069Y-89505695D01*
X179834142Y-89664583D01*
X179719849Y-89803849D01*
X179580583Y-89918142D01*
X179421695Y-90003069D01*
X179249294Y-90055367D01*
X179114931Y-90068600D01*
X179025069Y-90068600D01*
X178890706Y-90055367D01*
X178718305Y-90003069D01*
X178559417Y-89918142D01*
X178420151Y-89803849D01*
X178305858Y-89664583D01*
X178220931Y-89505695D01*
X178168633Y-89333294D01*
X178150975Y-89154000D01*
X178168633Y-88974706D01*
X178220931Y-88802305D01*
X178305858Y-88643417D01*
X178420151Y-88504151D01*
X178559417Y-88389858D01*
X178718305Y-88304931D01*
X178890706Y-88252633D01*
X179025069Y-88239400D01*
X179114931Y-88239400D01*
X179249294Y-88252633D01*
X179249294Y-88252633D01*
G37*
G36*
X142996228Y-88076703D02*
G01*
X143151100Y-88140853D01*
X143290481Y-88233985D01*
X143409015Y-88352519D01*
X143502147Y-88491900D01*
X143566297Y-88646772D01*
X143599000Y-88811184D01*
X143599000Y-88978816D01*
X143566297Y-89143228D01*
X143502147Y-89298100D01*
X143409015Y-89437481D01*
X143290481Y-89556015D01*
X143151100Y-89649147D01*
X142996228Y-89713297D01*
X142831816Y-89746000D01*
X142664184Y-89746000D01*
X142499772Y-89713297D01*
X142344900Y-89649147D01*
X142205519Y-89556015D01*
X142086985Y-89437481D01*
X141993853Y-89298100D01*
X141929703Y-89143228D01*
X141897000Y-88978816D01*
X141897000Y-88811184D01*
X141929703Y-88646772D01*
X141993853Y-88491900D01*
X142086985Y-88352519D01*
X142205519Y-88233985D01*
X142344900Y-88140853D01*
X142499772Y-88076703D01*
X142664184Y-88044000D01*
X142831816Y-88044000D01*
X142996228Y-88076703D01*
X142996228Y-88076703D01*
G37*
G36*
X145536228Y-86691703D02*
G01*
X145691100Y-86755853D01*
X145830481Y-86848985D01*
X145949015Y-86967519D01*
X146042147Y-87106900D01*
X146106297Y-87261772D01*
X146139000Y-87426184D01*
X146139000Y-87593816D01*
X146106297Y-87758228D01*
X146042147Y-87913100D01*
X145949015Y-88052481D01*
X145830481Y-88171015D01*
X145691100Y-88264147D01*
X145536228Y-88328297D01*
X145371816Y-88361000D01*
X145204184Y-88361000D01*
X145039772Y-88328297D01*
X144884900Y-88264147D01*
X144745519Y-88171015D01*
X144626985Y-88052481D01*
X144533853Y-87913100D01*
X144469703Y-87758228D01*
X144437000Y-87593816D01*
X144437000Y-87426184D01*
X144469703Y-87261772D01*
X144533853Y-87106900D01*
X144626985Y-86967519D01*
X144745519Y-86848985D01*
X144884900Y-86755853D01*
X145039772Y-86691703D01*
X145204184Y-86659000D01*
X145371816Y-86659000D01*
X145536228Y-86691703D01*
X145536228Y-86691703D01*
G37*
G36*
X179249294Y-85712633D02*
G01*
X179421695Y-85764931D01*
X179580583Y-85849858D01*
X179719849Y-85964151D01*
X179834142Y-86103417D01*
X179919069Y-86262305D01*
X179971367Y-86434706D01*
X179989025Y-86614000D01*
X179971367Y-86793294D01*
X179919069Y-86965695D01*
X179834142Y-87124583D01*
X179719849Y-87263849D01*
X179580583Y-87378142D01*
X179421695Y-87463069D01*
X179249294Y-87515367D01*
X179114931Y-87528600D01*
X179025069Y-87528600D01*
X178890706Y-87515367D01*
X178718305Y-87463069D01*
X178559417Y-87378142D01*
X178420151Y-87263849D01*
X178305858Y-87124583D01*
X178220931Y-86965695D01*
X178168633Y-86793294D01*
X178150975Y-86614000D01*
X178168633Y-86434706D01*
X178220931Y-86262305D01*
X178305858Y-86103417D01*
X178420151Y-85964151D01*
X178559417Y-85849858D01*
X178718305Y-85764931D01*
X178890706Y-85712633D01*
X179025069Y-85699400D01*
X179114931Y-85699400D01*
X179249294Y-85712633D01*
X179249294Y-85712633D01*
G37*
G36*
X177444600Y-87528600D02*
G01*
X175615400Y-87528600D01*
X175615400Y-85699400D01*
X177444600Y-85699400D01*
X177444600Y-87528600D01*
X177444600Y-87528600D01*
G37*
G36*
X153074823Y-85775313D02*
G01*
X153235242Y-85823976D01*
X153302361Y-85859852D01*
X153383078Y-85902996D01*
X153512659Y-86009341D01*
X153619004Y-86138922D01*
X153619005Y-86138924D01*
X153698024Y-86286758D01*
X153746687Y-86447177D01*
X153763117Y-86614000D01*
X153746687Y-86780823D01*
X153698024Y-86941242D01*
X153657477Y-87017100D01*
X153619004Y-87089078D01*
X153512659Y-87218659D01*
X153383078Y-87325004D01*
X153383076Y-87325005D01*
X153235242Y-87404024D01*
X153074823Y-87452687D01*
X152949804Y-87465000D01*
X152866196Y-87465000D01*
X152741177Y-87452687D01*
X152580758Y-87404024D01*
X152432924Y-87325005D01*
X152432922Y-87325004D01*
X152303341Y-87218659D01*
X152196996Y-87089078D01*
X152158523Y-87017100D01*
X152117976Y-86941242D01*
X152069313Y-86780823D01*
X152052883Y-86614000D01*
X152069313Y-86447177D01*
X152117976Y-86286758D01*
X152196995Y-86138924D01*
X152196996Y-86138922D01*
X152303341Y-86009341D01*
X152432922Y-85902996D01*
X152513639Y-85859852D01*
X152580758Y-85823976D01*
X152741177Y-85775313D01*
X152866196Y-85763000D01*
X152949804Y-85763000D01*
X153074823Y-85775313D01*
X153074823Y-85775313D01*
G37*
G36*
X163316228Y-85795703D02*
G01*
X163471100Y-85859853D01*
X163610481Y-85952985D01*
X163729015Y-86071519D01*
X163822147Y-86210900D01*
X163886297Y-86365772D01*
X163919000Y-86530184D01*
X163919000Y-86697816D01*
X163886297Y-86862228D01*
X163822147Y-87017100D01*
X163729015Y-87156481D01*
X163610481Y-87275015D01*
X163471100Y-87368147D01*
X163316228Y-87432297D01*
X163151816Y-87465000D01*
X162984184Y-87465000D01*
X162819772Y-87432297D01*
X162664900Y-87368147D01*
X162525519Y-87275015D01*
X162406985Y-87156481D01*
X162313853Y-87017100D01*
X162249703Y-86862228D01*
X162217000Y-86697816D01*
X162217000Y-86530184D01*
X162249703Y-86365772D01*
X162313853Y-86210900D01*
X162406985Y-86071519D01*
X162525519Y-85952985D01*
X162664900Y-85859853D01*
X162819772Y-85795703D01*
X162984184Y-85763000D01*
X163151816Y-85763000D01*
X163316228Y-85795703D01*
X163316228Y-85795703D01*
G37*
G36*
X142996228Y-85306703D02*
G01*
X143151100Y-85370853D01*
X143290481Y-85463985D01*
X143409015Y-85582519D01*
X143502147Y-85721900D01*
X143566297Y-85876772D01*
X143599000Y-86041184D01*
X143599000Y-86208816D01*
X143566297Y-86373228D01*
X143502147Y-86528100D01*
X143409015Y-86667481D01*
X143290481Y-86786015D01*
X143151100Y-86879147D01*
X142996228Y-86943297D01*
X142831816Y-86976000D01*
X142664184Y-86976000D01*
X142499772Y-86943297D01*
X142344900Y-86879147D01*
X142205519Y-86786015D01*
X142086985Y-86667481D01*
X141993853Y-86528100D01*
X141929703Y-86373228D01*
X141897000Y-86208816D01*
X141897000Y-86041184D01*
X141929703Y-85876772D01*
X141993853Y-85721900D01*
X142086985Y-85582519D01*
X142205519Y-85463985D01*
X142344900Y-85370853D01*
X142499772Y-85306703D01*
X142664184Y-85274000D01*
X142831816Y-85274000D01*
X142996228Y-85306703D01*
X142996228Y-85306703D01*
G37*
G36*
X145536228Y-83921703D02*
G01*
X145691100Y-83985853D01*
X145830481Y-84078985D01*
X145949015Y-84197519D01*
X146042147Y-84336900D01*
X146106297Y-84491772D01*
X146139000Y-84656184D01*
X146139000Y-84823816D01*
X146106297Y-84988228D01*
X146042147Y-85143100D01*
X145949015Y-85282481D01*
X145830481Y-85401015D01*
X145691100Y-85494147D01*
X145536228Y-85558297D01*
X145371816Y-85591000D01*
X145204184Y-85591000D01*
X145039772Y-85558297D01*
X144884900Y-85494147D01*
X144745519Y-85401015D01*
X144626985Y-85282481D01*
X144533853Y-85143100D01*
X144469703Y-84988228D01*
X144437000Y-84823816D01*
X144437000Y-84656184D01*
X144469703Y-84491772D01*
X144533853Y-84336900D01*
X144626985Y-84197519D01*
X144745519Y-84078985D01*
X144884900Y-83985853D01*
X145039772Y-83921703D01*
X145204184Y-83889000D01*
X145371816Y-83889000D01*
X145536228Y-83921703D01*
X145536228Y-83921703D01*
G37*
G36*
X142996228Y-82536703D02*
G01*
X143151100Y-82600853D01*
X143290481Y-82693985D01*
X143409015Y-82812519D01*
X143502147Y-82951900D01*
X143566297Y-83106772D01*
X143599000Y-83271184D01*
X143599000Y-83438816D01*
X143566297Y-83603228D01*
X143502147Y-83758100D01*
X143409015Y-83897481D01*
X143290481Y-84016015D01*
X143151100Y-84109147D01*
X142996228Y-84173297D01*
X142831816Y-84206000D01*
X142664184Y-84206000D01*
X142499772Y-84173297D01*
X142344900Y-84109147D01*
X142205519Y-84016015D01*
X142086985Y-83897481D01*
X141993853Y-83758100D01*
X141929703Y-83603228D01*
X141897000Y-83438816D01*
X141897000Y-83271184D01*
X141929703Y-83106772D01*
X141993853Y-82951900D01*
X142086985Y-82812519D01*
X142205519Y-82693985D01*
X142344900Y-82600853D01*
X142499772Y-82536703D01*
X142664184Y-82504000D01*
X142831816Y-82504000D01*
X142996228Y-82536703D01*
X142996228Y-82536703D01*
G37*
G36*
X145536228Y-81151703D02*
G01*
X145691100Y-81215853D01*
X145830481Y-81308985D01*
X145949015Y-81427519D01*
X146042147Y-81566900D01*
X146106297Y-81721772D01*
X146139000Y-81886184D01*
X146139000Y-82053816D01*
X146106297Y-82218228D01*
X146042147Y-82373100D01*
X145949015Y-82512481D01*
X145830481Y-82631015D01*
X145691100Y-82724147D01*
X145536228Y-82788297D01*
X145371816Y-82821000D01*
X145204184Y-82821000D01*
X145039772Y-82788297D01*
X144884900Y-82724147D01*
X144745519Y-82631015D01*
X144626985Y-82512481D01*
X144533853Y-82373100D01*
X144469703Y-82218228D01*
X144437000Y-82053816D01*
X144437000Y-81886184D01*
X144469703Y-81721772D01*
X144533853Y-81566900D01*
X144626985Y-81427519D01*
X144745519Y-81308985D01*
X144884900Y-81215853D01*
X145039772Y-81151703D01*
X145204184Y-81119000D01*
X145371816Y-81119000D01*
X145536228Y-81151703D01*
X145536228Y-81151703D01*
G37*
G36*
X142996228Y-79766703D02*
G01*
X143151100Y-79830853D01*
X143290481Y-79923985D01*
X143409015Y-80042519D01*
X143502147Y-80181900D01*
X143566297Y-80336772D01*
X143599000Y-80501184D01*
X143599000Y-80668816D01*
X143566297Y-80833228D01*
X143502147Y-80988100D01*
X143409015Y-81127481D01*
X143290481Y-81246015D01*
X143151100Y-81339147D01*
X142996228Y-81403297D01*
X142831816Y-81436000D01*
X142664184Y-81436000D01*
X142499772Y-81403297D01*
X142344900Y-81339147D01*
X142205519Y-81246015D01*
X142086985Y-81127481D01*
X141993853Y-80988100D01*
X141929703Y-80833228D01*
X141897000Y-80668816D01*
X141897000Y-80501184D01*
X141929703Y-80336772D01*
X141993853Y-80181900D01*
X142086985Y-80042519D01*
X142205519Y-79923985D01*
X142344900Y-79830853D01*
X142499772Y-79766703D01*
X142664184Y-79734000D01*
X142831816Y-79734000D01*
X142996228Y-79766703D01*
X142996228Y-79766703D01*
G37*
G36*
X153074823Y-79679313D02*
G01*
X153235242Y-79727976D01*
X153367906Y-79798886D01*
X153383078Y-79806996D01*
X153512659Y-79913341D01*
X153619004Y-80042922D01*
X153619005Y-80042924D01*
X153698024Y-80190758D01*
X153746687Y-80351177D01*
X153763117Y-80518000D01*
X153746687Y-80684823D01*
X153698024Y-80845242D01*
X153657477Y-80921100D01*
X153619004Y-80993078D01*
X153512659Y-81122659D01*
X153383078Y-81229004D01*
X153383076Y-81229005D01*
X153235242Y-81308024D01*
X153074823Y-81356687D01*
X152949804Y-81369000D01*
X152866196Y-81369000D01*
X152741177Y-81356687D01*
X152580758Y-81308024D01*
X152432924Y-81229005D01*
X152432922Y-81229004D01*
X152303341Y-81122659D01*
X152196996Y-80993078D01*
X152158523Y-80921100D01*
X152117976Y-80845242D01*
X152069313Y-80684823D01*
X152052883Y-80518000D01*
X152069313Y-80351177D01*
X152117976Y-80190758D01*
X152196995Y-80042924D01*
X152196996Y-80042922D01*
X152303341Y-79913341D01*
X152432922Y-79806996D01*
X152448094Y-79798886D01*
X152580758Y-79727976D01*
X152741177Y-79679313D01*
X152866196Y-79667000D01*
X152949804Y-79667000D01*
X153074823Y-79679313D01*
X153074823Y-79679313D01*
G37*
G36*
X163316228Y-79699703D02*
G01*
X163471100Y-79763853D01*
X163610481Y-79856985D01*
X163729015Y-79975519D01*
X163822147Y-80114900D01*
X163886297Y-80269772D01*
X163919000Y-80434184D01*
X163919000Y-80601816D01*
X163886297Y-80766228D01*
X163822147Y-80921100D01*
X163729015Y-81060481D01*
X163610481Y-81179015D01*
X163471100Y-81272147D01*
X163316228Y-81336297D01*
X163151816Y-81369000D01*
X162984184Y-81369000D01*
X162819772Y-81336297D01*
X162664900Y-81272147D01*
X162525519Y-81179015D01*
X162406985Y-81060481D01*
X162313853Y-80921100D01*
X162249703Y-80766228D01*
X162217000Y-80601816D01*
X162217000Y-80434184D01*
X162249703Y-80269772D01*
X162313853Y-80114900D01*
X162406985Y-79975519D01*
X162525519Y-79856985D01*
X162664900Y-79763853D01*
X162819772Y-79699703D01*
X162984184Y-79667000D01*
X163151816Y-79667000D01*
X163316228Y-79699703D01*
X163316228Y-79699703D01*
G37*
G36*
X145536228Y-78381703D02*
G01*
X145691100Y-78445853D01*
X145830481Y-78538985D01*
X145949015Y-78657519D01*
X146042147Y-78796900D01*
X146106297Y-78951772D01*
X146139000Y-79116184D01*
X146139000Y-79283816D01*
X146106297Y-79448228D01*
X146042147Y-79603100D01*
X145949015Y-79742481D01*
X145830481Y-79861015D01*
X145691100Y-79954147D01*
X145536228Y-80018297D01*
X145371816Y-80051000D01*
X145204184Y-80051000D01*
X145039772Y-80018297D01*
X144884900Y-79954147D01*
X144745519Y-79861015D01*
X144626985Y-79742481D01*
X144533853Y-79603100D01*
X144469703Y-79448228D01*
X144437000Y-79283816D01*
X144437000Y-79116184D01*
X144469703Y-78951772D01*
X144533853Y-78796900D01*
X144626985Y-78657519D01*
X144745519Y-78538985D01*
X144884900Y-78445853D01*
X145039772Y-78381703D01*
X145204184Y-78349000D01*
X145371816Y-78349000D01*
X145536228Y-78381703D01*
X145536228Y-78381703D01*
G37*
G36*
X142996228Y-76996703D02*
G01*
X143151100Y-77060853D01*
X143290481Y-77153985D01*
X143409015Y-77272519D01*
X143502147Y-77411900D01*
X143566297Y-77566772D01*
X143599000Y-77731184D01*
X143599000Y-77898816D01*
X143566297Y-78063228D01*
X143502147Y-78218100D01*
X143409015Y-78357481D01*
X143290481Y-78476015D01*
X143151100Y-78569147D01*
X142996228Y-78633297D01*
X142831816Y-78666000D01*
X142664184Y-78666000D01*
X142499772Y-78633297D01*
X142344900Y-78569147D01*
X142205519Y-78476015D01*
X142086985Y-78357481D01*
X141993853Y-78218100D01*
X141929703Y-78063228D01*
X141897000Y-77898816D01*
X141897000Y-77731184D01*
X141929703Y-77566772D01*
X141993853Y-77411900D01*
X142086985Y-77272519D01*
X142205519Y-77153985D01*
X142344900Y-77060853D01*
X142499772Y-76996703D01*
X142664184Y-76964000D01*
X142831816Y-76964000D01*
X142996228Y-76996703D01*
X142996228Y-76996703D01*
G37*
G36*
X145536228Y-75611703D02*
G01*
X145691100Y-75675853D01*
X145830481Y-75768985D01*
X145949015Y-75887519D01*
X146042147Y-76026900D01*
X146106297Y-76181772D01*
X146139000Y-76346184D01*
X146139000Y-76513816D01*
X146106297Y-76678228D01*
X146042147Y-76833100D01*
X145949015Y-76972481D01*
X145830481Y-77091015D01*
X145691100Y-77184147D01*
X145536228Y-77248297D01*
X145371816Y-77281000D01*
X145204184Y-77281000D01*
X145039772Y-77248297D01*
X144884900Y-77184147D01*
X144745519Y-77091015D01*
X144626985Y-76972481D01*
X144533853Y-76833100D01*
X144469703Y-76678228D01*
X144437000Y-76513816D01*
X144437000Y-76346184D01*
X144469703Y-76181772D01*
X144533853Y-76026900D01*
X144626985Y-75887519D01*
X144745519Y-75768985D01*
X144884900Y-75675853D01*
X145039772Y-75611703D01*
X145204184Y-75579000D01*
X145371816Y-75579000D01*
X145536228Y-75611703D01*
X145536228Y-75611703D01*
G37*
G36*
X142996228Y-74226703D02*
G01*
X143151100Y-74290853D01*
X143290481Y-74383985D01*
X143409015Y-74502519D01*
X143502147Y-74641900D01*
X143566297Y-74796772D01*
X143599000Y-74961184D01*
X143599000Y-75128816D01*
X143566297Y-75293228D01*
X143502147Y-75448100D01*
X143409015Y-75587481D01*
X143290481Y-75706015D01*
X143151100Y-75799147D01*
X142996228Y-75863297D01*
X142831816Y-75896000D01*
X142664184Y-75896000D01*
X142499772Y-75863297D01*
X142344900Y-75799147D01*
X142205519Y-75706015D01*
X142086985Y-75587481D01*
X141993853Y-75448100D01*
X141929703Y-75293228D01*
X141897000Y-75128816D01*
X141897000Y-74961184D01*
X141929703Y-74796772D01*
X141993853Y-74641900D01*
X142086985Y-74502519D01*
X142205519Y-74383985D01*
X142344900Y-74290853D01*
X142499772Y-74226703D01*
X142664184Y-74194000D01*
X142831816Y-74194000D01*
X142996228Y-74226703D01*
X142996228Y-74226703D01*
G37*
G36*
X163316228Y-73857703D02*
G01*
X163471100Y-73921853D01*
X163610481Y-74014985D01*
X163729015Y-74133519D01*
X163822147Y-74272900D01*
X163886297Y-74427772D01*
X163919000Y-74592184D01*
X163919000Y-74759816D01*
X163886297Y-74924228D01*
X163822147Y-75079100D01*
X163729015Y-75218481D01*
X163610481Y-75337015D01*
X163471100Y-75430147D01*
X163316228Y-75494297D01*
X163151816Y-75527000D01*
X162984184Y-75527000D01*
X162819772Y-75494297D01*
X162664900Y-75430147D01*
X162525519Y-75337015D01*
X162406985Y-75218481D01*
X162313853Y-75079100D01*
X162249703Y-74924228D01*
X162217000Y-74759816D01*
X162217000Y-74592184D01*
X162249703Y-74427772D01*
X162313853Y-74272900D01*
X162406985Y-74133519D01*
X162525519Y-74014985D01*
X162664900Y-73921853D01*
X162819772Y-73857703D01*
X162984184Y-73825000D01*
X163151816Y-73825000D01*
X163316228Y-73857703D01*
X163316228Y-73857703D01*
G37*
G36*
X153074823Y-73837313D02*
G01*
X153235242Y-73885976D01*
X153302361Y-73921852D01*
X153383078Y-73964996D01*
X153512659Y-74071341D01*
X153619004Y-74200922D01*
X153619005Y-74200924D01*
X153698024Y-74348758D01*
X153746687Y-74509177D01*
X153763117Y-74676000D01*
X153746687Y-74842823D01*
X153698024Y-75003242D01*
X153657477Y-75079100D01*
X153619004Y-75151078D01*
X153512659Y-75280659D01*
X153383078Y-75387004D01*
X153383076Y-75387005D01*
X153235242Y-75466024D01*
X153074823Y-75514687D01*
X152949804Y-75527000D01*
X152866196Y-75527000D01*
X152741177Y-75514687D01*
X152580758Y-75466024D01*
X152432924Y-75387005D01*
X152432922Y-75387004D01*
X152303341Y-75280659D01*
X152196996Y-75151078D01*
X152158523Y-75079100D01*
X152117976Y-75003242D01*
X152069313Y-74842823D01*
X152052883Y-74676000D01*
X152069313Y-74509177D01*
X152117976Y-74348758D01*
X152196995Y-74200924D01*
X152196996Y-74200922D01*
X152303341Y-74071341D01*
X152432922Y-73964996D01*
X152513639Y-73921852D01*
X152580758Y-73885976D01*
X152741177Y-73837313D01*
X152866196Y-73825000D01*
X152949804Y-73825000D01*
X153074823Y-73837313D01*
X153074823Y-73837313D01*
G37*
G36*
X146139000Y-74511000D02*
G01*
X144437000Y-74511000D01*
X144437000Y-72809000D01*
X146139000Y-72809000D01*
X146139000Y-74511000D01*
X146139000Y-74511000D01*
G37*
G36*
X177417487Y-67582996D02*
G01*
X177654253Y-67681068D01*
X177654255Y-67681069D01*
X177867339Y-67823447D01*
X178048553Y-68004661D01*
X178115547Y-68104924D01*
X178190932Y-68217747D01*
X178289004Y-68454513D01*
X178339000Y-68705861D01*
X178339000Y-68962139D01*
X178289004Y-69213487D01*
X178204007Y-69418687D01*
X178190931Y-69450255D01*
X178048553Y-69663339D01*
X177867339Y-69844553D01*
X177654255Y-69986931D01*
X177654254Y-69986932D01*
X177654253Y-69986932D01*
X177417487Y-70085004D01*
X177166139Y-70135000D01*
X176909861Y-70135000D01*
X176658513Y-70085004D01*
X176421747Y-69986932D01*
X176421746Y-69986932D01*
X176421745Y-69986931D01*
X176208661Y-69844553D01*
X176027447Y-69663339D01*
X175885069Y-69450255D01*
X175871993Y-69418687D01*
X175786996Y-69213487D01*
X175737000Y-68962139D01*
X175737000Y-68705861D01*
X175786996Y-68454513D01*
X175885068Y-68217747D01*
X175960454Y-68104924D01*
X176027447Y-68004661D01*
X176208661Y-67823447D01*
X176421745Y-67681069D01*
X176421747Y-67681068D01*
X176658513Y-67582996D01*
X176909861Y-67533000D01*
X177166139Y-67533000D01*
X177417487Y-67582996D01*
X177417487Y-67582996D01*
G37*
G36*
X153328823Y-67741313D02*
G01*
X153489242Y-67789976D01*
X153556361Y-67825852D01*
X153637078Y-67868996D01*
X153766659Y-67975341D01*
X153873004Y-68104922D01*
X153873005Y-68104924D01*
X153952024Y-68252758D01*
X154000687Y-68413177D01*
X154017117Y-68580000D01*
X154000687Y-68746823D01*
X153952024Y-68907242D01*
X153911477Y-68983100D01*
X153873004Y-69055078D01*
X153766659Y-69184659D01*
X153637078Y-69291004D01*
X153637076Y-69291005D01*
X153489242Y-69370024D01*
X153328823Y-69418687D01*
X153203804Y-69431000D01*
X153120196Y-69431000D01*
X152995177Y-69418687D01*
X152834758Y-69370024D01*
X152686924Y-69291005D01*
X152686922Y-69291004D01*
X152557341Y-69184659D01*
X152450996Y-69055078D01*
X152412523Y-68983100D01*
X152371976Y-68907242D01*
X152323313Y-68746823D01*
X152306883Y-68580000D01*
X152323313Y-68413177D01*
X152371976Y-68252758D01*
X152450995Y-68104924D01*
X152450996Y-68104922D01*
X152557341Y-67975341D01*
X152686922Y-67868996D01*
X152767639Y-67825852D01*
X152834758Y-67789976D01*
X152995177Y-67741313D01*
X153120196Y-67729000D01*
X153203804Y-67729000D01*
X153328823Y-67741313D01*
X153328823Y-67741313D01*
G37*
G36*
X163570228Y-67761703D02*
G01*
X163725100Y-67825853D01*
X163864481Y-67918985D01*
X163983015Y-68037519D01*
X164076147Y-68176900D01*
X164140297Y-68331772D01*
X164173000Y-68496184D01*
X164173000Y-68663816D01*
X164140297Y-68828228D01*
X164076147Y-68983100D01*
X163983015Y-69122481D01*
X163864481Y-69241015D01*
X163725100Y-69334147D01*
X163570228Y-69398297D01*
X163405816Y-69431000D01*
X163238184Y-69431000D01*
X163073772Y-69398297D01*
X162918900Y-69334147D01*
X162779519Y-69241015D01*
X162660985Y-69122481D01*
X162567853Y-68983100D01*
X162503703Y-68828228D01*
X162471000Y-68663816D01*
X162471000Y-68496184D01*
X162503703Y-68331772D01*
X162567853Y-68176900D01*
X162660985Y-68037519D01*
X162779519Y-67918985D01*
X162918900Y-67825853D01*
X163073772Y-67761703D01*
X163238184Y-67729000D01*
X163405816Y-67729000D01*
X163570228Y-67761703D01*
X163570228Y-67761703D01*
G37*
M02*
