%TF.GenerationSoftware,KiCad,Pcbnew,5.1.4-3.fc30*%
%TF.CreationDate,2019-10-13T13:52:24+02:00*%
%TF.ProjectId,bsd_programmer,6273645f-7072-46f6-9772-616d6d65722e,1.0*%
%TF.SameCoordinates,PX7eea3c0PY70276d0*%
%TF.FileFunction,Other,Comment*%
%FSLAX46Y46*%
G04 Gerber Fmt 4.6, Leading zero omitted, Abs format (unit mm)*
G04 Created by KiCad (PCBNEW 5.1.4-3.fc30) date 2019-10-13 13:52:24*
%MOMM*%
%LPD*%
G04 APERTURE LIST*
%ADD10C,0.150000*%
G04 APERTURE END LIST*
D10*
X58172380Y23685953D02*
X58172380Y23209762D01*
X58648571Y23162143D01*
X58600952Y23209762D01*
X58553333Y23305000D01*
X58553333Y23543096D01*
X58600952Y23638334D01*
X58648571Y23685953D01*
X58743809Y23733572D01*
X58981904Y23733572D01*
X59077142Y23685953D01*
X59124761Y23638334D01*
X59172380Y23543096D01*
X59172380Y23305000D01*
X59124761Y23209762D01*
X59077142Y23162143D01*
X58505714Y24590715D02*
X59172380Y24590715D01*
X58124761Y24352620D02*
X58839047Y24114524D01*
X58839047Y24733572D01*
X59124761Y25162143D02*
X59172380Y25162143D01*
X59267619Y25114524D01*
X59315238Y25066905D01*
X58172380Y26019286D02*
X58172380Y25828810D01*
X58220000Y25733572D01*
X58267619Y25685953D01*
X58410476Y25590715D01*
X58600952Y25543096D01*
X58981904Y25543096D01*
X59077142Y25590715D01*
X59124761Y25638334D01*
X59172380Y25733572D01*
X59172380Y25924048D01*
X59124761Y26019286D01*
X59077142Y26066905D01*
X58981904Y26114524D01*
X58743809Y26114524D01*
X58648571Y26066905D01*
X58600952Y26019286D01*
X58553333Y25924048D01*
X58553333Y25733572D01*
X58600952Y25638334D01*
X58648571Y25590715D01*
X58743809Y25543096D01*
X59172380Y27066905D02*
X59172380Y26495477D01*
X59172380Y26781191D02*
X58172380Y26781191D01*
X58315238Y26685953D01*
X58410476Y26590715D01*
X58458095Y26495477D01*
X58172380Y27685953D02*
X58172380Y27781191D01*
X58220000Y27876429D01*
X58267619Y27924048D01*
X58362857Y27971667D01*
X58553333Y28019286D01*
X58791428Y28019286D01*
X58981904Y27971667D01*
X59077142Y27924048D01*
X59124761Y27876429D01*
X59172380Y27781191D01*
X59172380Y27685953D01*
X59124761Y27590715D01*
X59077142Y27543096D01*
X58981904Y27495477D01*
X58791428Y27447858D01*
X58553333Y27447858D01*
X58362857Y27495477D01*
X58267619Y27543096D01*
X58220000Y27590715D01*
X58172380Y27685953D01*
X59172380Y29209762D02*
X58505714Y29209762D01*
X58600952Y29209762D02*
X58553333Y29257381D01*
X58505714Y29352620D01*
X58505714Y29495477D01*
X58553333Y29590715D01*
X58648571Y29638334D01*
X59172380Y29638334D01*
X58648571Y29638334D02*
X58553333Y29685953D01*
X58505714Y29781191D01*
X58505714Y29924048D01*
X58553333Y30019286D01*
X58648571Y30066905D01*
X59172380Y30066905D01*
X59172380Y30543096D02*
X58505714Y30543096D01*
X58600952Y30543096D02*
X58553333Y30590715D01*
X58505714Y30685953D01*
X58505714Y30828810D01*
X58553333Y30924048D01*
X58648571Y30971667D01*
X59172380Y30971667D01*
X58648571Y30971667D02*
X58553333Y31019286D01*
X58505714Y31114524D01*
X58505714Y31257381D01*
X58553333Y31352620D01*
X58648571Y31400239D01*
X59172380Y31400239D01*
X57420000Y0D02*
X57420000Y54610000D01*
X50308000Y0D02*
X58006421Y0D01*
X50308000Y54610000D02*
X58006421Y54610000D01*
X57420000Y54610000D02*
X58006421Y53483496D01*
X57420000Y54610000D02*
X56833579Y53483496D01*
X57420000Y0D02*
X58006421Y1126504D01*
X57420000Y0D02*
X56833579Y1126504D01*
X21534952Y-5070380D02*
X21058761Y-5070380D01*
X21011142Y-5546571D01*
X21058761Y-5498952D01*
X21154000Y-5451333D01*
X21392095Y-5451333D01*
X21487333Y-5498952D01*
X21534952Y-5546571D01*
X21582571Y-5641809D01*
X21582571Y-5879904D01*
X21534952Y-5975142D01*
X21487333Y-6022761D01*
X21392095Y-6070380D01*
X21154000Y-6070380D01*
X21058761Y-6022761D01*
X21011142Y-5975142D01*
X22201619Y-5070380D02*
X22296857Y-5070380D01*
X22392095Y-5118000D01*
X22439714Y-5165619D01*
X22487333Y-5260857D01*
X22534952Y-5451333D01*
X22534952Y-5689428D01*
X22487333Y-5879904D01*
X22439714Y-5975142D01*
X22392095Y-6022761D01*
X22296857Y-6070380D01*
X22201619Y-6070380D01*
X22106380Y-6022761D01*
X22058761Y-5975142D01*
X22011142Y-5879904D01*
X21963523Y-5689428D01*
X21963523Y-5451333D01*
X22011142Y-5260857D01*
X22058761Y-5165619D01*
X22106380Y-5118000D01*
X22201619Y-5070380D01*
X23011142Y-6022761D02*
X23011142Y-6070380D01*
X22963523Y-6165619D01*
X22915904Y-6213238D01*
X23344476Y-5070380D02*
X23963523Y-5070380D01*
X23630190Y-5451333D01*
X23773047Y-5451333D01*
X23868285Y-5498952D01*
X23915904Y-5546571D01*
X23963523Y-5641809D01*
X23963523Y-5879904D01*
X23915904Y-5975142D01*
X23868285Y-6022761D01*
X23773047Y-6070380D01*
X23487333Y-6070380D01*
X23392095Y-6022761D01*
X23344476Y-5975142D01*
X24582571Y-5070380D02*
X24677809Y-5070380D01*
X24773047Y-5118000D01*
X24820666Y-5165619D01*
X24868285Y-5260857D01*
X24915904Y-5451333D01*
X24915904Y-5689428D01*
X24868285Y-5879904D01*
X24820666Y-5975142D01*
X24773047Y-6022761D01*
X24677809Y-6070380D01*
X24582571Y-6070380D01*
X24487333Y-6022761D01*
X24439714Y-5975142D01*
X24392095Y-5879904D01*
X24344476Y-5689428D01*
X24344476Y-5451333D01*
X24392095Y-5260857D01*
X24439714Y-5165619D01*
X24487333Y-5118000D01*
X24582571Y-5070380D01*
X25487333Y-5498952D02*
X25392095Y-5451333D01*
X25344476Y-5403714D01*
X25296857Y-5308476D01*
X25296857Y-5260857D01*
X25344476Y-5165619D01*
X25392095Y-5118000D01*
X25487333Y-5070380D01*
X25677809Y-5070380D01*
X25773047Y-5118000D01*
X25820666Y-5165619D01*
X25868285Y-5260857D01*
X25868285Y-5308476D01*
X25820666Y-5403714D01*
X25773047Y-5451333D01*
X25677809Y-5498952D01*
X25487333Y-5498952D01*
X25392095Y-5546571D01*
X25344476Y-5594190D01*
X25296857Y-5689428D01*
X25296857Y-5879904D01*
X25344476Y-5975142D01*
X25392095Y-6022761D01*
X25487333Y-6070380D01*
X25677809Y-6070380D01*
X25773047Y-6022761D01*
X25820666Y-5975142D01*
X25868285Y-5879904D01*
X25868285Y-5689428D01*
X25820666Y-5594190D01*
X25773047Y-5546571D01*
X25677809Y-5498952D01*
X27058761Y-6070380D02*
X27058761Y-5403714D01*
X27058761Y-5498952D02*
X27106380Y-5451333D01*
X27201619Y-5403714D01*
X27344476Y-5403714D01*
X27439714Y-5451333D01*
X27487333Y-5546571D01*
X27487333Y-6070380D01*
X27487333Y-5546571D02*
X27534952Y-5451333D01*
X27630190Y-5403714D01*
X27773047Y-5403714D01*
X27868285Y-5451333D01*
X27915904Y-5546571D01*
X27915904Y-6070380D01*
X28392095Y-6070380D02*
X28392095Y-5403714D01*
X28392095Y-5498952D02*
X28439714Y-5451333D01*
X28534952Y-5403714D01*
X28677809Y-5403714D01*
X28773047Y-5451333D01*
X28820666Y-5546571D01*
X28820666Y-6070380D01*
X28820666Y-5546571D02*
X28868285Y-5451333D01*
X28963523Y-5403714D01*
X29106380Y-5403714D01*
X29201619Y-5451333D01*
X29249238Y-5546571D01*
X29249238Y-6070380D01*
X0Y-4318000D02*
X50308000Y-4318000D01*
X0Y0D02*
X0Y-4904421D01*
X50308000Y0D02*
X50308000Y-4904421D01*
X50308000Y-4318000D02*
X49181496Y-4904421D01*
X50308000Y-4318000D02*
X49181496Y-3731579D01*
X0Y-4318000D02*
X1126504Y-4904421D01*
X0Y-4318000D02*
X1126504Y-3731579D01*
%TO.C,H1*%
X47220000Y5842000D02*
G75*
G03X47220000Y5842000I-2500000J0D01*
G01*
X47220000Y49022000D02*
G75*
G03X47220000Y49022000I-2500000J0D01*
G01*
%TD*%
M02*
