%TF.GenerationSoftware,KiCad,Pcbnew,5.1.4-3.fc30*%
%TF.CreationDate,2019-10-13T13:52:24+02:00*%
%TF.ProjectId,bsd_programmer,6273645f-7072-46f6-9772-616d6d65722e,1.0*%
%TF.SameCoordinates,PX7eea3c0PY70276d0*%
%TF.FileFunction,Other,User*%
%FSLAX46Y46*%
G04 Gerber Fmt 4.6, Leading zero omitted, Abs format (unit mm)*
G04 Created by KiCad (PCBNEW 5.1.4-3.fc30) date 2019-10-13 13:52:24*
%MOMM*%
%LPD*%
G04 APERTURE LIST*
%ADD10C,0.050000*%
G04 APERTURE END LIST*
D10*
%TO.C,H1*%
X47470000Y5842000D02*
G75*
G03X47470000Y5842000I-2750000J0D01*
G01*
X47470000Y49022000D02*
G75*
G03X47470000Y49022000I-2750000J0D01*
G01*
%TO.C,J1*%
X-6642000Y46992000D02*
X-642000Y46992000D01*
X-642000Y46992000D02*
X-642000Y54392000D01*
X-642000Y54392000D02*
X758000Y54392000D01*
X758000Y54392000D02*
X758000Y47392000D01*
X758000Y47392000D02*
X4858000Y47392000D01*
X4858000Y47392000D02*
X4858000Y45242000D01*
X4858000Y45242000D02*
X13558000Y45242000D01*
X13558000Y45242000D02*
X13558000Y9392000D01*
X13558000Y9392000D02*
X4858000Y9392000D01*
X4858000Y9392000D02*
X4858000Y7242000D01*
X4858000Y7242000D02*
X758000Y7242000D01*
X758000Y7242000D02*
X758000Y242000D01*
X758000Y242000D02*
X-642000Y242000D01*
X-642000Y242000D02*
X-642000Y7642000D01*
X-642000Y7642000D02*
X-6642000Y7642000D01*
X-6642000Y7642000D02*
X-6642000Y46992000D01*
%TO.C,J2*%
X49400000Y36338000D02*
X49400000Y15478000D01*
X49400000Y15478000D02*
X40040000Y15478000D01*
X40040000Y15478000D02*
X40040000Y36338000D01*
X40040000Y36338000D02*
X49400000Y36338000D01*
%TO.C,R1*%
X31292000Y47522000D02*
X31292000Y50522000D01*
X31292000Y50522000D02*
X19032000Y50522000D01*
X19032000Y50522000D02*
X19032000Y47522000D01*
X19032000Y47522000D02*
X31292000Y47522000D01*
%TO.C,R2*%
X18778000Y41426000D02*
X31038000Y41426000D01*
X18778000Y44426000D02*
X18778000Y41426000D01*
X31038000Y44426000D02*
X18778000Y44426000D01*
X31038000Y41426000D02*
X31038000Y44426000D01*
%TO.C,R3*%
X31038000Y35584000D02*
X31038000Y38584000D01*
X31038000Y38584000D02*
X18778000Y38584000D01*
X18778000Y38584000D02*
X18778000Y35584000D01*
X18778000Y35584000D02*
X31038000Y35584000D01*
%TO.C,R4*%
X18778000Y29488000D02*
X31038000Y29488000D01*
X18778000Y32488000D02*
X18778000Y29488000D01*
X31038000Y32488000D02*
X18778000Y32488000D01*
X31038000Y29488000D02*
X31038000Y32488000D01*
%TO.C,R5*%
X31038000Y5612000D02*
X31038000Y8612000D01*
X31038000Y8612000D02*
X18778000Y8612000D01*
X18778000Y8612000D02*
X18778000Y5612000D01*
X18778000Y5612000D02*
X31038000Y5612000D01*
%TO.C,R6*%
X18778000Y11708000D02*
X31038000Y11708000D01*
X18778000Y14708000D02*
X18778000Y11708000D01*
X31038000Y14708000D02*
X18778000Y14708000D01*
X31038000Y11708000D02*
X31038000Y14708000D01*
%TO.C,R7*%
X31038000Y17804000D02*
X31038000Y20804000D01*
X31038000Y20804000D02*
X18778000Y20804000D01*
X18778000Y20804000D02*
X18778000Y17804000D01*
X18778000Y17804000D02*
X31038000Y17804000D01*
%TO.C,R8*%
X18778000Y23900000D02*
X31038000Y23900000D01*
X18778000Y26900000D02*
X18778000Y23900000D01*
X31038000Y26900000D02*
X18778000Y26900000D01*
X31038000Y23900000D02*
X31038000Y26900000D01*
%TD*%
M02*
