%TF.GenerationSoftware,KiCad,Pcbnew,5.1.4-3.fc30*%
%TF.CreationDate,2019-10-13T14:02:28+02:00*%
%TF.ProjectId,dasa,64617361-2e6b-4696-9361-645f70636258,rev?*%
%TF.SameCoordinates,PX67eb070PY719b7f0*%
%TF.FileFunction,Other,Fab,Top*%
%FSLAX46Y46*%
G04 Gerber Fmt 4.6, Leading zero omitted, Abs format (unit mm)*
G04 Created by KiCad (PCBNEW 5.1.4-3.fc30) date 2019-10-13 14:02:28*
%MOMM*%
%LPD*%
G04 APERTURE LIST*
%ADD10C,0.100000*%
%ADD11C,0.150000*%
G04 APERTURE END LIST*
D10*
%TO.C,J3*%
X344000Y15946000D02*
X13344000Y15946000D01*
X344000Y5946000D02*
X344000Y15946000D01*
X13344000Y5946000D02*
X344000Y5946000D01*
X13344000Y9946000D02*
X13344000Y5946000D01*
X12344000Y10946000D02*
X13344000Y9946000D01*
X13344000Y11946000D02*
X12344000Y10946000D01*
X13344000Y15946000D02*
X13344000Y11946000D01*
%TO.C,R4*%
X42672000Y34496000D02*
X42672000Y36426000D01*
X42672000Y44656000D02*
X42672000Y42726000D01*
X43922000Y36426000D02*
X43922000Y42726000D01*
X41422000Y36426000D02*
X43922000Y36426000D01*
X41422000Y42726000D02*
X41422000Y36426000D01*
X43922000Y42726000D02*
X41422000Y42726000D01*
%TO.C,R3*%
X16918000Y71628000D02*
X14988000Y71628000D01*
X6758000Y71628000D02*
X8688000Y71628000D01*
X14988000Y72878000D02*
X8688000Y72878000D01*
X14988000Y70378000D02*
X14988000Y72878000D01*
X8688000Y70378000D02*
X14988000Y70378000D01*
X8688000Y72878000D02*
X8688000Y70378000D01*
%TO.C,R2*%
X16918000Y65355300D02*
X14988000Y65355300D01*
X6758000Y65355300D02*
X8688000Y65355300D01*
X14988000Y66605300D02*
X8688000Y66605300D01*
X14988000Y64105300D02*
X14988000Y66605300D01*
X8688000Y64105300D02*
X14988000Y64105300D01*
X8688000Y66605300D02*
X8688000Y64105300D01*
%TO.C,R1*%
X16918000Y52610000D02*
X14988000Y52610000D01*
X6758000Y52610000D02*
X8688000Y52610000D01*
X14988000Y53860000D02*
X8688000Y53860000D01*
X14988000Y51360000D02*
X14988000Y53860000D01*
X8688000Y51360000D02*
X14988000Y51360000D01*
X8688000Y53860000D02*
X8688000Y51360000D01*
%TO.C,J2*%
X43454000Y5481000D02*
X42894000Y6031000D01*
X23094000Y5481000D02*
X23634000Y6031000D01*
X43454000Y14331000D02*
X42894000Y13781000D01*
X23094000Y14331000D02*
X23634000Y13781000D01*
X42894000Y13781000D02*
X42894000Y6031000D01*
X43454000Y14331000D02*
X43454000Y5481000D01*
X23634000Y13781000D02*
X23634000Y6031000D01*
X23094000Y14331000D02*
X23094000Y5481000D01*
X35524000Y6031000D02*
X35524000Y5481000D01*
X31024000Y6031000D02*
X31024000Y5481000D01*
X35524000Y6031000D02*
X42894000Y6031000D01*
X23634000Y6031000D02*
X31024000Y6031000D01*
X23094000Y5481000D02*
X43454000Y5481000D01*
X23634000Y13781000D02*
X42894000Y13781000D01*
X23094000Y14331000D02*
X43454000Y14331000D01*
%TO.C,J1*%
X45360000Y72110000D02*
X45360000Y55810000D01*
X51360000Y72110000D02*
X45360000Y72110000D01*
X51360000Y55810000D02*
X51360000Y72110000D01*
X45360000Y55810000D02*
X51360000Y55810000D01*
X44960000Y79385000D02*
X44960000Y48535000D01*
X45360000Y79385000D02*
X44960000Y79385000D01*
X45360000Y48535000D02*
X45360000Y79385000D01*
X44960000Y48535000D02*
X45360000Y48535000D01*
X40860000Y72510000D02*
X40860000Y55410000D01*
X44960000Y72510000D02*
X40860000Y72510000D01*
X44960000Y55410000D02*
X44960000Y72510000D01*
X40860000Y55410000D02*
X44960000Y55410000D01*
X35560000Y68215000D02*
X40860000Y68215000D01*
X35560000Y68115000D02*
X40860000Y68115000D01*
X35560000Y68015000D02*
X40860000Y68015000D01*
X35560000Y65445000D02*
X40860000Y65445000D01*
X35560000Y65345000D02*
X40860000Y65345000D01*
X35560000Y65245000D02*
X40860000Y65245000D01*
X35560000Y62675000D02*
X40860000Y62675000D01*
X35560000Y62575000D02*
X40860000Y62575000D01*
X35560000Y62475000D02*
X40860000Y62475000D01*
X35560000Y59905000D02*
X40860000Y59905000D01*
X35560000Y59805000D02*
X40860000Y59805000D01*
X35560000Y59705000D02*
X40860000Y59705000D01*
X33020000Y69600000D02*
X40860000Y69600000D01*
X33020000Y69500000D02*
X40860000Y69500000D01*
X33020000Y69400000D02*
X40860000Y69400000D01*
X33020000Y66830000D02*
X40860000Y66830000D01*
X33020000Y66730000D02*
X40860000Y66730000D01*
X33020000Y66630000D02*
X40860000Y66630000D01*
X33020000Y64060000D02*
X40860000Y64060000D01*
X33020000Y63960000D02*
X40860000Y63960000D01*
X33020000Y63860000D02*
X40860000Y63860000D01*
X33020000Y61290000D02*
X40860000Y61290000D01*
X33020000Y61190000D02*
X40860000Y61190000D01*
X33020000Y61090000D02*
X40860000Y61090000D01*
X33020000Y58520000D02*
X40860000Y58520000D01*
X33020000Y58420000D02*
X40860000Y58420000D01*
X33020000Y58320000D02*
X40860000Y58320000D01*
%TO.C,D8*%
X11288000Y31475300D02*
X11288000Y28775300D01*
X11488000Y31475300D02*
X11488000Y28775300D01*
X11388000Y31475300D02*
X11388000Y28775300D01*
X19558000Y30125300D02*
X15808000Y30125300D01*
X6858000Y30125300D02*
X10608000Y30125300D01*
X15808000Y31475300D02*
X10608000Y31475300D01*
X15808000Y28775300D02*
X15808000Y31475300D01*
X10608000Y28775300D02*
X15808000Y28775300D01*
X10608000Y31475300D02*
X10608000Y28775300D01*
%TO.C,D7*%
X28052000Y31475300D02*
X28052000Y28775300D01*
X28252000Y31475300D02*
X28252000Y28775300D01*
X28152000Y31475300D02*
X28152000Y28775300D01*
X36322000Y30125300D02*
X32572000Y30125300D01*
X23622000Y30125300D02*
X27372000Y30125300D01*
X32572000Y31475300D02*
X27372000Y31475300D01*
X32572000Y28775300D02*
X32572000Y31475300D01*
X27372000Y28775300D02*
X32572000Y28775300D01*
X27372000Y31475300D02*
X27372000Y28775300D01*
%TO.C,D6*%
X11288000Y46006000D02*
X11288000Y43306000D01*
X11488000Y46006000D02*
X11488000Y43306000D01*
X11388000Y46006000D02*
X11388000Y43306000D01*
X19558000Y44656000D02*
X15808000Y44656000D01*
X6858000Y44656000D02*
X10608000Y44656000D01*
X15808000Y46006000D02*
X10608000Y46006000D01*
X15808000Y43306000D02*
X15808000Y46006000D01*
X10608000Y43306000D02*
X15808000Y43306000D01*
X10608000Y46006000D02*
X10608000Y43306000D01*
%TO.C,D5*%
X28052000Y46006000D02*
X28052000Y43306000D01*
X28252000Y46006000D02*
X28252000Y43306000D01*
X28152000Y46006000D02*
X28152000Y43306000D01*
X36322000Y44656000D02*
X32572000Y44656000D01*
X23622000Y44656000D02*
X27372000Y44656000D01*
X32572000Y46006000D02*
X27372000Y46006000D01*
X32572000Y43306000D02*
X32572000Y46006000D01*
X27372000Y43306000D02*
X32572000Y43306000D01*
X27372000Y46006000D02*
X27372000Y43306000D01*
%TO.C,D4*%
X11288000Y38740700D02*
X11288000Y36040700D01*
X11488000Y38740700D02*
X11488000Y36040700D01*
X11388000Y38740700D02*
X11388000Y36040700D01*
X19558000Y37390700D02*
X15808000Y37390700D01*
X6858000Y37390700D02*
X10608000Y37390700D01*
X15808000Y38740700D02*
X10608000Y38740700D01*
X15808000Y36040700D02*
X15808000Y38740700D01*
X10608000Y36040700D02*
X15808000Y36040700D01*
X10608000Y38740700D02*
X10608000Y36040700D01*
%TO.C,D3*%
X28052000Y38740700D02*
X28052000Y36040700D01*
X28252000Y38740700D02*
X28252000Y36040700D01*
X28152000Y38740700D02*
X28152000Y36040700D01*
X36322000Y37390700D02*
X32572000Y37390700D01*
X23622000Y37390700D02*
X27372000Y37390700D01*
X32572000Y38740700D02*
X27372000Y38740700D01*
X32572000Y36040700D02*
X32572000Y38740700D01*
X27372000Y36040700D02*
X32572000Y36040700D01*
X27372000Y38740700D02*
X27372000Y36040700D01*
%TO.C,D2*%
X11288000Y24210000D02*
X11288000Y21510000D01*
X11488000Y24210000D02*
X11488000Y21510000D01*
X11388000Y24210000D02*
X11388000Y21510000D01*
X19558000Y22860000D02*
X15808000Y22860000D01*
X6858000Y22860000D02*
X10608000Y22860000D01*
X15808000Y24210000D02*
X10608000Y24210000D01*
X15808000Y21510000D02*
X15808000Y24210000D01*
X10608000Y21510000D02*
X15808000Y21510000D01*
X10608000Y24210000D02*
X10608000Y21510000D01*
%TO.C,D1*%
X11288000Y60332700D02*
X11288000Y57632700D01*
X11488000Y60332700D02*
X11488000Y57632700D01*
X11388000Y60332700D02*
X11388000Y57632700D01*
X19558000Y58982700D02*
X15808000Y58982700D01*
X6858000Y58982700D02*
X10608000Y58982700D01*
X15808000Y60332700D02*
X10608000Y60332700D01*
X15808000Y57632700D02*
X15808000Y60332700D01*
X10608000Y57632700D02*
X15808000Y57632700D01*
X10608000Y60332700D02*
X10608000Y57632700D01*
%TO.C,C1*%
X34445241Y23483500D02*
X34445241Y22683500D01*
X34045241Y23083500D02*
X34845241Y23083500D01*
X41472000Y21336000D02*
G75*
G03X41472000Y21336000I-4000000J0D01*
G01*
%TD*%
%TO.C,J3*%
D11*
X-584572Y9660286D02*
X-584572Y10422191D01*
X-203620Y10041239D02*
X-965524Y10041239D01*
X-1203620Y11374572D02*
X-1203620Y10898381D01*
X-727429Y10850762D01*
X-775048Y10898381D01*
X-822667Y10993620D01*
X-822667Y11231715D01*
X-775048Y11326953D01*
X-727429Y11374572D01*
X-632191Y11422191D01*
X-394096Y11422191D01*
X-298858Y11374572D01*
X-251239Y11326953D01*
X-203620Y11231715D01*
X-203620Y10993620D01*
X-251239Y10898381D01*
X-298858Y10850762D01*
X-1203620Y11707905D02*
X-203620Y12041239D01*
X-1203620Y12374572D01*
X6296380Y10612667D02*
X7010666Y10612667D01*
X7153523Y10565048D01*
X7248761Y10469810D01*
X7296380Y10326953D01*
X7296380Y10231715D01*
X6296380Y10993620D02*
X6296380Y11612667D01*
X6677333Y11279334D01*
X6677333Y11422191D01*
X6724952Y11517429D01*
X6772571Y11565048D01*
X6867809Y11612667D01*
X7105904Y11612667D01*
X7201142Y11565048D01*
X7248761Y11517429D01*
X7296380Y11422191D01*
X7296380Y11136477D01*
X7248761Y11041239D01*
X7201142Y10993620D01*
%TO.C,R4*%
X40754380Y38909334D02*
X40754380Y38337905D01*
X40754380Y38623620D02*
X39754380Y38623620D01*
X39897238Y38528381D01*
X39992476Y38433143D01*
X40040095Y38337905D01*
X39754380Y39528381D02*
X39754380Y39623620D01*
X39802000Y39718858D01*
X39849619Y39766477D01*
X39944857Y39814096D01*
X40135333Y39861715D01*
X40373428Y39861715D01*
X40563904Y39814096D01*
X40659142Y39766477D01*
X40706761Y39718858D01*
X40754380Y39623620D01*
X40754380Y39528381D01*
X40706761Y39433143D01*
X40659142Y39385524D01*
X40563904Y39337905D01*
X40373428Y39290286D01*
X40135333Y39290286D01*
X39944857Y39337905D01*
X39849619Y39385524D01*
X39802000Y39433143D01*
X39754380Y39528381D01*
X39754380Y40480762D02*
X39754380Y40576000D01*
X39802000Y40671239D01*
X39849619Y40718858D01*
X39944857Y40766477D01*
X40135333Y40814096D01*
X40373428Y40814096D01*
X40563904Y40766477D01*
X40659142Y40718858D01*
X40706761Y40671239D01*
X40754380Y40576000D01*
X40754380Y40480762D01*
X40706761Y40385524D01*
X40659142Y40337905D01*
X40563904Y40290286D01*
X40373428Y40242667D01*
X40135333Y40242667D01*
X39944857Y40290286D01*
X39849619Y40337905D01*
X39802000Y40385524D01*
X39754380Y40480762D01*
X43124380Y39409334D02*
X42648190Y39076000D01*
X43124380Y38837905D02*
X42124380Y38837905D01*
X42124380Y39218858D01*
X42172000Y39314096D01*
X42219619Y39361715D01*
X42314857Y39409334D01*
X42457714Y39409334D01*
X42552952Y39361715D01*
X42600571Y39314096D01*
X42648190Y39218858D01*
X42648190Y38837905D01*
X42457714Y40266477D02*
X43124380Y40266477D01*
X42076761Y40028381D02*
X42791047Y39790286D01*
X42791047Y40409334D01*
%TO.C,R3*%
X10623714Y69805620D02*
X11242761Y69805620D01*
X10909428Y69424667D01*
X11052285Y69424667D01*
X11147523Y69377048D01*
X11195142Y69329429D01*
X11242761Y69234191D01*
X11242761Y68996096D01*
X11195142Y68900858D01*
X11147523Y68853239D01*
X11052285Y68805620D01*
X10766571Y68805620D01*
X10671333Y68853239D01*
X10623714Y68900858D01*
X11671333Y68805620D02*
X11671333Y69805620D01*
X11766571Y69186572D02*
X12052285Y68805620D01*
X12052285Y69472286D02*
X11671333Y69091334D01*
X12385619Y69805620D02*
X13004666Y69805620D01*
X12671333Y69424667D01*
X12814190Y69424667D01*
X12909428Y69377048D01*
X12957047Y69329429D01*
X13004666Y69234191D01*
X13004666Y68996096D01*
X12957047Y68900858D01*
X12909428Y68853239D01*
X12814190Y68805620D01*
X12528476Y68805620D01*
X12433238Y68853239D01*
X12385619Y68900858D01*
X11671333Y71175620D02*
X11338000Y71651810D01*
X11099904Y71175620D02*
X11099904Y72175620D01*
X11480857Y72175620D01*
X11576095Y72128000D01*
X11623714Y72080381D01*
X11671333Y71985143D01*
X11671333Y71842286D01*
X11623714Y71747048D01*
X11576095Y71699429D01*
X11480857Y71651810D01*
X11099904Y71651810D01*
X12004666Y72175620D02*
X12623714Y72175620D01*
X12290380Y71794667D01*
X12433238Y71794667D01*
X12528476Y71747048D01*
X12576095Y71699429D01*
X12623714Y71604191D01*
X12623714Y71366096D01*
X12576095Y71270858D01*
X12528476Y71223239D01*
X12433238Y71175620D01*
X12147523Y71175620D01*
X12052285Y71223239D01*
X12004666Y71270858D01*
%TO.C,R2*%
X10623714Y63532920D02*
X11242761Y63532920D01*
X10909428Y63151967D01*
X11052285Y63151967D01*
X11147523Y63104348D01*
X11195142Y63056729D01*
X11242761Y62961491D01*
X11242761Y62723396D01*
X11195142Y62628158D01*
X11147523Y62580539D01*
X11052285Y62532920D01*
X10766571Y62532920D01*
X10671333Y62580539D01*
X10623714Y62628158D01*
X11671333Y62532920D02*
X11671333Y63532920D01*
X11766571Y62913872D02*
X12052285Y62532920D01*
X12052285Y63199586D02*
X11671333Y62818634D01*
X12385619Y63532920D02*
X13004666Y63532920D01*
X12671333Y63151967D01*
X12814190Y63151967D01*
X12909428Y63104348D01*
X12957047Y63056729D01*
X13004666Y62961491D01*
X13004666Y62723396D01*
X12957047Y62628158D01*
X12909428Y62580539D01*
X12814190Y62532920D01*
X12528476Y62532920D01*
X12433238Y62580539D01*
X12385619Y62628158D01*
X11671333Y64902920D02*
X11338000Y65379110D01*
X11099904Y64902920D02*
X11099904Y65902920D01*
X11480857Y65902920D01*
X11576095Y65855300D01*
X11623714Y65807681D01*
X11671333Y65712443D01*
X11671333Y65569586D01*
X11623714Y65474348D01*
X11576095Y65426729D01*
X11480857Y65379110D01*
X11099904Y65379110D01*
X12052285Y65807681D02*
X12099904Y65855300D01*
X12195142Y65902920D01*
X12433238Y65902920D01*
X12528476Y65855300D01*
X12576095Y65807681D01*
X12623714Y65712443D01*
X12623714Y65617205D01*
X12576095Y65474348D01*
X12004666Y64902920D01*
X12623714Y64902920D01*
%TO.C,R1*%
X10623714Y50787620D02*
X11242761Y50787620D01*
X10909428Y50406667D01*
X11052285Y50406667D01*
X11147523Y50359048D01*
X11195142Y50311429D01*
X11242761Y50216191D01*
X11242761Y49978096D01*
X11195142Y49882858D01*
X11147523Y49835239D01*
X11052285Y49787620D01*
X10766571Y49787620D01*
X10671333Y49835239D01*
X10623714Y49882858D01*
X11671333Y49787620D02*
X11671333Y50787620D01*
X11766571Y50168572D02*
X12052285Y49787620D01*
X12052285Y50454286D02*
X11671333Y50073334D01*
X12385619Y50787620D02*
X13004666Y50787620D01*
X12671333Y50406667D01*
X12814190Y50406667D01*
X12909428Y50359048D01*
X12957047Y50311429D01*
X13004666Y50216191D01*
X13004666Y49978096D01*
X12957047Y49882858D01*
X12909428Y49835239D01*
X12814190Y49787620D01*
X12528476Y49787620D01*
X12433238Y49835239D01*
X12385619Y49882858D01*
X11671333Y52157620D02*
X11338000Y52633810D01*
X11099904Y52157620D02*
X11099904Y53157620D01*
X11480857Y53157620D01*
X11576095Y53110000D01*
X11623714Y53062381D01*
X11671333Y52967143D01*
X11671333Y52824286D01*
X11623714Y52729048D01*
X11576095Y52681429D01*
X11480857Y52633810D01*
X11099904Y52633810D01*
X12623714Y52157620D02*
X12052285Y52157620D01*
X12338000Y52157620D02*
X12338000Y53157620D01*
X12242761Y53014762D01*
X12147523Y52919524D01*
X12052285Y52871905D01*
%TO.C,J2*%
X45124666Y5334572D02*
X45124666Y5810762D01*
X45410380Y5239334D02*
X44410380Y5572667D01*
X45410380Y5906000D01*
X44410380Y6096477D02*
X45410380Y6429810D01*
X44410380Y6763143D01*
X45410380Y7667905D02*
X44934190Y7334572D01*
X45410380Y7096477D02*
X44410380Y7096477D01*
X44410380Y7477429D01*
X44458000Y7572667D01*
X44505619Y7620286D01*
X44600857Y7667905D01*
X44743714Y7667905D01*
X44838952Y7620286D01*
X44886571Y7572667D01*
X44934190Y7477429D01*
X44934190Y7096477D01*
X45029428Y8096477D02*
X45029428Y8858381D01*
X45410380Y9334572D02*
X44410380Y9334572D01*
X45362761Y9763143D02*
X45410380Y9906000D01*
X45410380Y10144096D01*
X45362761Y10239334D01*
X45315142Y10286953D01*
X45219904Y10334572D01*
X45124666Y10334572D01*
X45029428Y10286953D01*
X44981809Y10239334D01*
X44934190Y10144096D01*
X44886571Y9953620D01*
X44838952Y9858381D01*
X44791333Y9810762D01*
X44696095Y9763143D01*
X44600857Y9763143D01*
X44505619Y9810762D01*
X44458000Y9858381D01*
X44410380Y9953620D01*
X44410380Y10191715D01*
X44458000Y10334572D01*
X45410380Y10763143D02*
X44410380Y10763143D01*
X44410380Y11144096D01*
X44458000Y11239334D01*
X44505619Y11286953D01*
X44600857Y11334572D01*
X44743714Y11334572D01*
X44838952Y11286953D01*
X44886571Y11239334D01*
X44934190Y11144096D01*
X44934190Y10763143D01*
X45029428Y11763143D02*
X45029428Y12525048D01*
X45410380Y13525048D02*
X45410380Y12953620D01*
X45410380Y13239334D02*
X44410380Y13239334D01*
X44553238Y13144096D01*
X44648476Y13048858D01*
X44696095Y12953620D01*
X44410380Y14144096D02*
X44410380Y14239334D01*
X44458000Y14334572D01*
X44505619Y14382191D01*
X44600857Y14429810D01*
X44791333Y14477429D01*
X45029428Y14477429D01*
X45219904Y14429810D01*
X45315142Y14382191D01*
X45362761Y14334572D01*
X45410380Y14239334D01*
X45410380Y14144096D01*
X45362761Y14048858D01*
X45315142Y14001239D01*
X45219904Y13953620D01*
X45029428Y13906000D01*
X44791333Y13906000D01*
X44600857Y13953620D01*
X44505619Y14001239D01*
X44458000Y14048858D01*
X44410380Y14144096D01*
X32726380Y9572667D02*
X33440666Y9572667D01*
X33583523Y9525048D01*
X33678761Y9429810D01*
X33726380Y9286953D01*
X33726380Y9191715D01*
X32821619Y10001239D02*
X32774000Y10048858D01*
X32726380Y10144096D01*
X32726380Y10382191D01*
X32774000Y10477429D01*
X32821619Y10525048D01*
X32916857Y10572667D01*
X33012095Y10572667D01*
X33154952Y10525048D01*
X33726380Y9953620D01*
X33726380Y10572667D01*
%TO.C,J1*%
X53312380Y60626667D02*
X52312380Y60626667D01*
X52312380Y60864762D01*
X52360000Y61007620D01*
X52455238Y61102858D01*
X52550476Y61150477D01*
X52740952Y61198096D01*
X52883809Y61198096D01*
X53074285Y61150477D01*
X53169523Y61102858D01*
X53264761Y61007620D01*
X53312380Y60864762D01*
X53312380Y60626667D01*
X52788571Y61960000D02*
X52836190Y62102858D01*
X52883809Y62150477D01*
X52979047Y62198096D01*
X53121904Y62198096D01*
X53217142Y62150477D01*
X53264761Y62102858D01*
X53312380Y62007620D01*
X53312380Y61626667D01*
X52312380Y61626667D01*
X52312380Y61960000D01*
X52360000Y62055239D01*
X52407619Y62102858D01*
X52502857Y62150477D01*
X52598095Y62150477D01*
X52693333Y62102858D01*
X52740952Y62055239D01*
X52788571Y61960000D01*
X52788571Y61626667D01*
X53312380Y62674286D02*
X53312380Y62864762D01*
X53264761Y62960000D01*
X53217142Y63007620D01*
X53074285Y63102858D01*
X52883809Y63150477D01*
X52502857Y63150477D01*
X52407619Y63102858D01*
X52360000Y63055239D01*
X52312380Y62960000D01*
X52312380Y62769524D01*
X52360000Y62674286D01*
X52407619Y62626667D01*
X52502857Y62579048D01*
X52740952Y62579048D01*
X52836190Y62626667D01*
X52883809Y62674286D01*
X52931428Y62769524D01*
X52931428Y62960000D01*
X52883809Y63055239D01*
X52836190Y63102858D01*
X52740952Y63150477D01*
X53407619Y63340953D02*
X53407619Y64102858D01*
X53312380Y64340953D02*
X52312380Y64340953D01*
X53026666Y64674286D01*
X52312380Y65007620D01*
X53312380Y65007620D01*
X53312380Y65912381D02*
X52788571Y65912381D01*
X52693333Y65864762D01*
X52645714Y65769524D01*
X52645714Y65579048D01*
X52693333Y65483810D01*
X53264761Y65912381D02*
X53312380Y65817143D01*
X53312380Y65579048D01*
X53264761Y65483810D01*
X53169523Y65436191D01*
X53074285Y65436191D01*
X52979047Y65483810D01*
X52931428Y65579048D01*
X52931428Y65817143D01*
X52883809Y65912381D01*
X53312380Y66531429D02*
X53264761Y66436191D01*
X53169523Y66388572D01*
X52312380Y66388572D01*
X53264761Y67293334D02*
X53312380Y67198096D01*
X53312380Y67007620D01*
X53264761Y66912381D01*
X53169523Y66864762D01*
X52788571Y66864762D01*
X52693333Y66912381D01*
X52645714Y67007620D01*
X52645714Y67198096D01*
X52693333Y67293334D01*
X52788571Y67340953D01*
X52883809Y67340953D01*
X52979047Y66864762D01*
X47812380Y63626667D02*
X48526666Y63626667D01*
X48669523Y63579048D01*
X48764761Y63483810D01*
X48812380Y63340953D01*
X48812380Y63245715D01*
X48812380Y64626667D02*
X48812380Y64055239D01*
X48812380Y64340953D02*
X47812380Y64340953D01*
X47955238Y64245715D01*
X48050476Y64150477D01*
X48098095Y64055239D01*
%TO.C,D8*%
X11065142Y27202920D02*
X10493714Y27202920D01*
X10779428Y27202920D02*
X10779428Y28202920D01*
X10684190Y28060062D01*
X10588952Y27964824D01*
X10493714Y27917205D01*
X11493714Y27202920D02*
X11493714Y28202920D01*
X12065142Y27202920D01*
X12065142Y28202920D01*
X12969904Y27869586D02*
X12969904Y27202920D01*
X12731809Y28250539D02*
X12493714Y27536253D01*
X13112761Y27536253D01*
X14017523Y27202920D02*
X13446095Y27202920D01*
X13731809Y27202920D02*
X13731809Y28202920D01*
X13636571Y28060062D01*
X13541333Y27964824D01*
X13446095Y27917205D01*
X14922285Y28202920D02*
X14446095Y28202920D01*
X14398476Y27726729D01*
X14446095Y27774348D01*
X14541333Y27821967D01*
X14779428Y27821967D01*
X14874666Y27774348D01*
X14922285Y27726729D01*
X14969904Y27631491D01*
X14969904Y27393396D01*
X14922285Y27298158D01*
X14874666Y27250539D01*
X14779428Y27202920D01*
X14541333Y27202920D01*
X14446095Y27250539D01*
X14398476Y27298158D01*
X15922285Y27202920D02*
X15350857Y27202920D01*
X15636571Y27202920D02*
X15636571Y28202920D01*
X15541333Y28060062D01*
X15446095Y27964824D01*
X15350857Y27917205D01*
X6596095Y31572920D02*
X6596095Y32572920D01*
X7167523Y31572920D02*
X6738952Y32144348D01*
X7167523Y32572920D02*
X6596095Y32001491D01*
X12859904Y29672920D02*
X12859904Y30672920D01*
X13098000Y30672920D01*
X13240857Y30625300D01*
X13336095Y30530062D01*
X13383714Y30434824D01*
X13431333Y30244348D01*
X13431333Y30101491D01*
X13383714Y29911015D01*
X13336095Y29815777D01*
X13240857Y29720539D01*
X13098000Y29672920D01*
X12859904Y29672920D01*
X14002761Y30244348D02*
X13907523Y30291967D01*
X13859904Y30339586D01*
X13812285Y30434824D01*
X13812285Y30482443D01*
X13859904Y30577681D01*
X13907523Y30625300D01*
X14002761Y30672920D01*
X14193238Y30672920D01*
X14288476Y30625300D01*
X14336095Y30577681D01*
X14383714Y30482443D01*
X14383714Y30434824D01*
X14336095Y30339586D01*
X14288476Y30291967D01*
X14193238Y30244348D01*
X14002761Y30244348D01*
X13907523Y30196729D01*
X13859904Y30149110D01*
X13812285Y30053872D01*
X13812285Y29863396D01*
X13859904Y29768158D01*
X13907523Y29720539D01*
X14002761Y29672920D01*
X14193238Y29672920D01*
X14288476Y29720539D01*
X14336095Y29768158D01*
X14383714Y29863396D01*
X14383714Y30053872D01*
X14336095Y30149110D01*
X14288476Y30196729D01*
X14193238Y30244348D01*
%TO.C,D7*%
X27829142Y27202920D02*
X27257714Y27202920D01*
X27543428Y27202920D02*
X27543428Y28202920D01*
X27448190Y28060062D01*
X27352952Y27964824D01*
X27257714Y27917205D01*
X28257714Y27202920D02*
X28257714Y28202920D01*
X28829142Y27202920D01*
X28829142Y28202920D01*
X29733904Y27869586D02*
X29733904Y27202920D01*
X29495809Y28250539D02*
X29257714Y27536253D01*
X29876761Y27536253D01*
X30781523Y27202920D02*
X30210095Y27202920D01*
X30495809Y27202920D02*
X30495809Y28202920D01*
X30400571Y28060062D01*
X30305333Y27964824D01*
X30210095Y27917205D01*
X31686285Y28202920D02*
X31210095Y28202920D01*
X31162476Y27726729D01*
X31210095Y27774348D01*
X31305333Y27821967D01*
X31543428Y27821967D01*
X31638666Y27774348D01*
X31686285Y27726729D01*
X31733904Y27631491D01*
X31733904Y27393396D01*
X31686285Y27298158D01*
X31638666Y27250539D01*
X31543428Y27202920D01*
X31305333Y27202920D01*
X31210095Y27250539D01*
X31162476Y27298158D01*
X32686285Y27202920D02*
X32114857Y27202920D01*
X32400571Y27202920D02*
X32400571Y28202920D01*
X32305333Y28060062D01*
X32210095Y27964824D01*
X32114857Y27917205D01*
X23360095Y31572920D02*
X23360095Y32572920D01*
X23931523Y31572920D02*
X23502952Y32144348D01*
X23931523Y32572920D02*
X23360095Y32001491D01*
X29623904Y29672920D02*
X29623904Y30672920D01*
X29862000Y30672920D01*
X30004857Y30625300D01*
X30100095Y30530062D01*
X30147714Y30434824D01*
X30195333Y30244348D01*
X30195333Y30101491D01*
X30147714Y29911015D01*
X30100095Y29815777D01*
X30004857Y29720539D01*
X29862000Y29672920D01*
X29623904Y29672920D01*
X30528666Y30672920D02*
X31195333Y30672920D01*
X30766761Y29672920D01*
%TO.C,D6*%
X11065142Y41733620D02*
X10493714Y41733620D01*
X10779428Y41733620D02*
X10779428Y42733620D01*
X10684190Y42590762D01*
X10588952Y42495524D01*
X10493714Y42447905D01*
X11493714Y41733620D02*
X11493714Y42733620D01*
X12065142Y41733620D01*
X12065142Y42733620D01*
X12969904Y42400286D02*
X12969904Y41733620D01*
X12731809Y42781239D02*
X12493714Y42066953D01*
X13112761Y42066953D01*
X14017523Y41733620D02*
X13446095Y41733620D01*
X13731809Y41733620D02*
X13731809Y42733620D01*
X13636571Y42590762D01*
X13541333Y42495524D01*
X13446095Y42447905D01*
X14922285Y42733620D02*
X14446095Y42733620D01*
X14398476Y42257429D01*
X14446095Y42305048D01*
X14541333Y42352667D01*
X14779428Y42352667D01*
X14874666Y42305048D01*
X14922285Y42257429D01*
X14969904Y42162191D01*
X14969904Y41924096D01*
X14922285Y41828858D01*
X14874666Y41781239D01*
X14779428Y41733620D01*
X14541333Y41733620D01*
X14446095Y41781239D01*
X14398476Y41828858D01*
X15922285Y41733620D02*
X15350857Y41733620D01*
X15636571Y41733620D02*
X15636571Y42733620D01*
X15541333Y42590762D01*
X15446095Y42495524D01*
X15350857Y42447905D01*
X6596095Y46103620D02*
X6596095Y47103620D01*
X7167523Y46103620D02*
X6738952Y46675048D01*
X7167523Y47103620D02*
X6596095Y46532191D01*
X12859904Y44203620D02*
X12859904Y45203620D01*
X13098000Y45203620D01*
X13240857Y45156000D01*
X13336095Y45060762D01*
X13383714Y44965524D01*
X13431333Y44775048D01*
X13431333Y44632191D01*
X13383714Y44441715D01*
X13336095Y44346477D01*
X13240857Y44251239D01*
X13098000Y44203620D01*
X12859904Y44203620D01*
X14288476Y45203620D02*
X14098000Y45203620D01*
X14002761Y45156000D01*
X13955142Y45108381D01*
X13859904Y44965524D01*
X13812285Y44775048D01*
X13812285Y44394096D01*
X13859904Y44298858D01*
X13907523Y44251239D01*
X14002761Y44203620D01*
X14193238Y44203620D01*
X14288476Y44251239D01*
X14336095Y44298858D01*
X14383714Y44394096D01*
X14383714Y44632191D01*
X14336095Y44727429D01*
X14288476Y44775048D01*
X14193238Y44822667D01*
X14002761Y44822667D01*
X13907523Y44775048D01*
X13859904Y44727429D01*
X13812285Y44632191D01*
%TO.C,D5*%
X27829142Y41733620D02*
X27257714Y41733620D01*
X27543428Y41733620D02*
X27543428Y42733620D01*
X27448190Y42590762D01*
X27352952Y42495524D01*
X27257714Y42447905D01*
X28257714Y41733620D02*
X28257714Y42733620D01*
X28829142Y41733620D01*
X28829142Y42733620D01*
X29733904Y42400286D02*
X29733904Y41733620D01*
X29495809Y42781239D02*
X29257714Y42066953D01*
X29876761Y42066953D01*
X30781523Y41733620D02*
X30210095Y41733620D01*
X30495809Y41733620D02*
X30495809Y42733620D01*
X30400571Y42590762D01*
X30305333Y42495524D01*
X30210095Y42447905D01*
X31686285Y42733620D02*
X31210095Y42733620D01*
X31162476Y42257429D01*
X31210095Y42305048D01*
X31305333Y42352667D01*
X31543428Y42352667D01*
X31638666Y42305048D01*
X31686285Y42257429D01*
X31733904Y42162191D01*
X31733904Y41924096D01*
X31686285Y41828858D01*
X31638666Y41781239D01*
X31543428Y41733620D01*
X31305333Y41733620D01*
X31210095Y41781239D01*
X31162476Y41828858D01*
X32686285Y41733620D02*
X32114857Y41733620D01*
X32400571Y41733620D02*
X32400571Y42733620D01*
X32305333Y42590762D01*
X32210095Y42495524D01*
X32114857Y42447905D01*
X23360095Y46103620D02*
X23360095Y47103620D01*
X23931523Y46103620D02*
X23502952Y46675048D01*
X23931523Y47103620D02*
X23360095Y46532191D01*
X29623904Y44203620D02*
X29623904Y45203620D01*
X29862000Y45203620D01*
X30004857Y45156000D01*
X30100095Y45060762D01*
X30147714Y44965524D01*
X30195333Y44775048D01*
X30195333Y44632191D01*
X30147714Y44441715D01*
X30100095Y44346477D01*
X30004857Y44251239D01*
X29862000Y44203620D01*
X29623904Y44203620D01*
X31100095Y45203620D02*
X30623904Y45203620D01*
X30576285Y44727429D01*
X30623904Y44775048D01*
X30719142Y44822667D01*
X30957238Y44822667D01*
X31052476Y44775048D01*
X31100095Y44727429D01*
X31147714Y44632191D01*
X31147714Y44394096D01*
X31100095Y44298858D01*
X31052476Y44251239D01*
X30957238Y44203620D01*
X30719142Y44203620D01*
X30623904Y44251239D01*
X30576285Y44298858D01*
%TO.C,D4*%
X11065142Y34468320D02*
X10493714Y34468320D01*
X10779428Y34468320D02*
X10779428Y35468320D01*
X10684190Y35325462D01*
X10588952Y35230224D01*
X10493714Y35182605D01*
X11493714Y34468320D02*
X11493714Y35468320D01*
X12065142Y34468320D01*
X12065142Y35468320D01*
X12969904Y35134986D02*
X12969904Y34468320D01*
X12731809Y35515939D02*
X12493714Y34801653D01*
X13112761Y34801653D01*
X14017523Y34468320D02*
X13446095Y34468320D01*
X13731809Y34468320D02*
X13731809Y35468320D01*
X13636571Y35325462D01*
X13541333Y35230224D01*
X13446095Y35182605D01*
X14922285Y35468320D02*
X14446095Y35468320D01*
X14398476Y34992129D01*
X14446095Y35039748D01*
X14541333Y35087367D01*
X14779428Y35087367D01*
X14874666Y35039748D01*
X14922285Y34992129D01*
X14969904Y34896891D01*
X14969904Y34658796D01*
X14922285Y34563558D01*
X14874666Y34515939D01*
X14779428Y34468320D01*
X14541333Y34468320D01*
X14446095Y34515939D01*
X14398476Y34563558D01*
X15922285Y34468320D02*
X15350857Y34468320D01*
X15636571Y34468320D02*
X15636571Y35468320D01*
X15541333Y35325462D01*
X15446095Y35230224D01*
X15350857Y35182605D01*
X6596095Y38838320D02*
X6596095Y39838320D01*
X7167523Y38838320D02*
X6738952Y39409748D01*
X7167523Y39838320D02*
X6596095Y39266891D01*
X12859904Y36938320D02*
X12859904Y37938320D01*
X13098000Y37938320D01*
X13240857Y37890700D01*
X13336095Y37795462D01*
X13383714Y37700224D01*
X13431333Y37509748D01*
X13431333Y37366891D01*
X13383714Y37176415D01*
X13336095Y37081177D01*
X13240857Y36985939D01*
X13098000Y36938320D01*
X12859904Y36938320D01*
X14288476Y37604986D02*
X14288476Y36938320D01*
X14050380Y37985939D02*
X13812285Y37271653D01*
X14431333Y37271653D01*
%TO.C,D3*%
X27829142Y34468320D02*
X27257714Y34468320D01*
X27543428Y34468320D02*
X27543428Y35468320D01*
X27448190Y35325462D01*
X27352952Y35230224D01*
X27257714Y35182605D01*
X28257714Y34468320D02*
X28257714Y35468320D01*
X28829142Y34468320D01*
X28829142Y35468320D01*
X29733904Y35134986D02*
X29733904Y34468320D01*
X29495809Y35515939D02*
X29257714Y34801653D01*
X29876761Y34801653D01*
X30781523Y34468320D02*
X30210095Y34468320D01*
X30495809Y34468320D02*
X30495809Y35468320D01*
X30400571Y35325462D01*
X30305333Y35230224D01*
X30210095Y35182605D01*
X31686285Y35468320D02*
X31210095Y35468320D01*
X31162476Y34992129D01*
X31210095Y35039748D01*
X31305333Y35087367D01*
X31543428Y35087367D01*
X31638666Y35039748D01*
X31686285Y34992129D01*
X31733904Y34896891D01*
X31733904Y34658796D01*
X31686285Y34563558D01*
X31638666Y34515939D01*
X31543428Y34468320D01*
X31305333Y34468320D01*
X31210095Y34515939D01*
X31162476Y34563558D01*
X32686285Y34468320D02*
X32114857Y34468320D01*
X32400571Y34468320D02*
X32400571Y35468320D01*
X32305333Y35325462D01*
X32210095Y35230224D01*
X32114857Y35182605D01*
X23360095Y38838320D02*
X23360095Y39838320D01*
X23931523Y38838320D02*
X23502952Y39409748D01*
X23931523Y39838320D02*
X23360095Y39266891D01*
X29623904Y36938320D02*
X29623904Y37938320D01*
X29862000Y37938320D01*
X30004857Y37890700D01*
X30100095Y37795462D01*
X30147714Y37700224D01*
X30195333Y37509748D01*
X30195333Y37366891D01*
X30147714Y37176415D01*
X30100095Y37081177D01*
X30004857Y36985939D01*
X29862000Y36938320D01*
X29623904Y36938320D01*
X30528666Y37938320D02*
X31147714Y37938320D01*
X30814380Y37557367D01*
X30957238Y37557367D01*
X31052476Y37509748D01*
X31100095Y37462129D01*
X31147714Y37366891D01*
X31147714Y37128796D01*
X31100095Y37033558D01*
X31052476Y36985939D01*
X30957238Y36938320D01*
X30671523Y36938320D01*
X30576285Y36985939D01*
X30528666Y37033558D01*
%TO.C,D2*%
X11065142Y19937620D02*
X10493714Y19937620D01*
X10779428Y19937620D02*
X10779428Y20937620D01*
X10684190Y20794762D01*
X10588952Y20699524D01*
X10493714Y20651905D01*
X11493714Y19937620D02*
X11493714Y20937620D01*
X12065142Y19937620D01*
X12065142Y20937620D01*
X12969904Y20604286D02*
X12969904Y19937620D01*
X12731809Y20985239D02*
X12493714Y20270953D01*
X13112761Y20270953D01*
X14017523Y19937620D02*
X13446095Y19937620D01*
X13731809Y19937620D02*
X13731809Y20937620D01*
X13636571Y20794762D01*
X13541333Y20699524D01*
X13446095Y20651905D01*
X14922285Y20937620D02*
X14446095Y20937620D01*
X14398476Y20461429D01*
X14446095Y20509048D01*
X14541333Y20556667D01*
X14779428Y20556667D01*
X14874666Y20509048D01*
X14922285Y20461429D01*
X14969904Y20366191D01*
X14969904Y20128096D01*
X14922285Y20032858D01*
X14874666Y19985239D01*
X14779428Y19937620D01*
X14541333Y19937620D01*
X14446095Y19985239D01*
X14398476Y20032858D01*
X15922285Y19937620D02*
X15350857Y19937620D01*
X15636571Y19937620D02*
X15636571Y20937620D01*
X15541333Y20794762D01*
X15446095Y20699524D01*
X15350857Y20651905D01*
X6596095Y24307620D02*
X6596095Y25307620D01*
X7167523Y24307620D02*
X6738952Y24879048D01*
X7167523Y25307620D02*
X6596095Y24736191D01*
X12859904Y22407620D02*
X12859904Y23407620D01*
X13098000Y23407620D01*
X13240857Y23360000D01*
X13336095Y23264762D01*
X13383714Y23169524D01*
X13431333Y22979048D01*
X13431333Y22836191D01*
X13383714Y22645715D01*
X13336095Y22550477D01*
X13240857Y22455239D01*
X13098000Y22407620D01*
X12859904Y22407620D01*
X13812285Y23312381D02*
X13859904Y23360000D01*
X13955142Y23407620D01*
X14193238Y23407620D01*
X14288476Y23360000D01*
X14336095Y23312381D01*
X14383714Y23217143D01*
X14383714Y23121905D01*
X14336095Y22979048D01*
X13764666Y22407620D01*
X14383714Y22407620D01*
%TO.C,D1*%
X11065142Y56060320D02*
X10493714Y56060320D01*
X10779428Y56060320D02*
X10779428Y57060320D01*
X10684190Y56917462D01*
X10588952Y56822224D01*
X10493714Y56774605D01*
X11493714Y56060320D02*
X11493714Y57060320D01*
X12065142Y56060320D01*
X12065142Y57060320D01*
X12969904Y56726986D02*
X12969904Y56060320D01*
X12731809Y57107939D02*
X12493714Y56393653D01*
X13112761Y56393653D01*
X14017523Y56060320D02*
X13446095Y56060320D01*
X13731809Y56060320D02*
X13731809Y57060320D01*
X13636571Y56917462D01*
X13541333Y56822224D01*
X13446095Y56774605D01*
X14922285Y57060320D02*
X14446095Y57060320D01*
X14398476Y56584129D01*
X14446095Y56631748D01*
X14541333Y56679367D01*
X14779428Y56679367D01*
X14874666Y56631748D01*
X14922285Y56584129D01*
X14969904Y56488891D01*
X14969904Y56250796D01*
X14922285Y56155558D01*
X14874666Y56107939D01*
X14779428Y56060320D01*
X14541333Y56060320D01*
X14446095Y56107939D01*
X14398476Y56155558D01*
X15922285Y56060320D02*
X15350857Y56060320D01*
X15636571Y56060320D02*
X15636571Y57060320D01*
X15541333Y56917462D01*
X15446095Y56822224D01*
X15350857Y56774605D01*
X6596095Y60430320D02*
X6596095Y61430320D01*
X7167523Y60430320D02*
X6738952Y61001748D01*
X7167523Y61430320D02*
X6596095Y60858891D01*
X12859904Y58530320D02*
X12859904Y59530320D01*
X13098000Y59530320D01*
X13240857Y59482700D01*
X13336095Y59387462D01*
X13383714Y59292224D01*
X13431333Y59101748D01*
X13431333Y58958891D01*
X13383714Y58768415D01*
X13336095Y58673177D01*
X13240857Y58577939D01*
X13098000Y58530320D01*
X12859904Y58530320D01*
X14383714Y58530320D02*
X13812285Y58530320D01*
X14098000Y58530320D02*
X14098000Y59530320D01*
X14002761Y59387462D01*
X13907523Y59292224D01*
X13812285Y59244605D01*
%TO.C,C1*%
X34495809Y15633620D02*
X33924380Y15633620D01*
X34210095Y15633620D02*
X34210095Y16633620D01*
X34114857Y16490762D01*
X34019619Y16395524D01*
X33924380Y16347905D01*
X35114857Y16633620D02*
X35210095Y16633620D01*
X35305333Y16586000D01*
X35352952Y16538381D01*
X35400571Y16443143D01*
X35448190Y16252667D01*
X35448190Y16014572D01*
X35400571Y15824096D01*
X35352952Y15728858D01*
X35305333Y15681239D01*
X35210095Y15633620D01*
X35114857Y15633620D01*
X35019619Y15681239D01*
X34972000Y15728858D01*
X34924380Y15824096D01*
X34876761Y16014572D01*
X34876761Y16252667D01*
X34924380Y16443143D01*
X34972000Y16538381D01*
X35019619Y16586000D01*
X35114857Y16633620D01*
X36305333Y16300286D02*
X36305333Y15633620D01*
X35876761Y16300286D02*
X35876761Y15776477D01*
X35924380Y15681239D01*
X36019619Y15633620D01*
X36162476Y15633620D01*
X36257714Y15681239D01*
X36305333Y15728858D01*
X37114857Y16157429D02*
X36781523Y16157429D01*
X36781523Y15633620D02*
X36781523Y16633620D01*
X37257714Y16633620D01*
X38352952Y16681239D02*
X37495809Y15395524D01*
X39210095Y15633620D02*
X38638666Y15633620D01*
X38924380Y15633620D02*
X38924380Y16633620D01*
X38829142Y16490762D01*
X38733904Y16395524D01*
X38638666Y16347905D01*
X40067238Y16633620D02*
X39876761Y16633620D01*
X39781523Y16586000D01*
X39733904Y16538381D01*
X39638666Y16395524D01*
X39591047Y16205048D01*
X39591047Y15824096D01*
X39638666Y15728858D01*
X39686285Y15681239D01*
X39781523Y15633620D01*
X39972000Y15633620D01*
X40067238Y15681239D01*
X40114857Y15728858D01*
X40162476Y15824096D01*
X40162476Y16062191D01*
X40114857Y16157429D01*
X40067238Y16205048D01*
X39972000Y16252667D01*
X39781523Y16252667D01*
X39686285Y16205048D01*
X39638666Y16157429D01*
X39591047Y16062191D01*
X40448190Y16633620D02*
X40781523Y15633620D01*
X41114857Y16633620D01*
X37305333Y20978858D02*
X37257714Y20931239D01*
X37114857Y20883620D01*
X37019619Y20883620D01*
X36876761Y20931239D01*
X36781523Y21026477D01*
X36733904Y21121715D01*
X36686285Y21312191D01*
X36686285Y21455048D01*
X36733904Y21645524D01*
X36781523Y21740762D01*
X36876761Y21836000D01*
X37019619Y21883620D01*
X37114857Y21883620D01*
X37257714Y21836000D01*
X37305333Y21788381D01*
X38257714Y20883620D02*
X37686285Y20883620D01*
X37972000Y20883620D02*
X37972000Y21883620D01*
X37876761Y21740762D01*
X37781523Y21645524D01*
X37686285Y21597905D01*
%TD*%
M02*
