%TF.GenerationSoftware,KiCad,Pcbnew,5.1.4-3.fc30*%
%TF.CreationDate,2019-10-13T14:02:28+02:00*%
%TF.ProjectId,dasa,64617361-2e6b-4696-9361-645f70636258,rev?*%
%TF.SameCoordinates,PX67eb070PY719b7f0*%
%TF.FileFunction,Copper,L2,Bot*%
%TF.FilePolarity,Positive*%
%FSLAX46Y46*%
G04 Gerber Fmt 4.6, Leading zero omitted, Abs format (unit mm)*
G04 Created by KiCad (PCBNEW 5.1.4-3.fc30) date 2019-10-13 14:02:28*
%MOMM*%
%LPD*%
G04 APERTURE LIST*
%TA.AperFunction,ComponentPad*%
%ADD10O,3.500000X2.000000*%
%TD*%
%TA.AperFunction,ComponentPad*%
%ADD11O,2.000000X3.300000*%
%TD*%
%TA.AperFunction,ComponentPad*%
%ADD12R,2.000000X4.000000*%
%TD*%
%TA.AperFunction,ComponentPad*%
%ADD13O,1.600000X1.600000*%
%TD*%
%TA.AperFunction,ComponentPad*%
%ADD14C,1.600000*%
%TD*%
%TA.AperFunction,ComponentPad*%
%ADD15O,1.727200X1.727200*%
%TD*%
%TA.AperFunction,ComponentPad*%
%ADD16R,1.727200X1.727200*%
%TD*%
%TA.AperFunction,ComponentPad*%
%ADD17R,1.600000X1.600000*%
%TD*%
%TA.AperFunction,ComponentPad*%
%ADD18O,1.800000X1.800000*%
%TD*%
%TA.AperFunction,ComponentPad*%
%ADD19R,1.800000X1.800000*%
%TD*%
%TA.AperFunction,ViaPad*%
%ADD20C,0.800000*%
%TD*%
%TA.AperFunction,Conductor*%
%ADD21C,0.800000*%
%TD*%
G04 APERTURE END LIST*
D10*
%TO.P,J3,MP*%
%TO.N,N/C*%
X5344000Y6446000D03*
X5344000Y15446000D03*
D11*
%TO.P,J3,2*%
%TO.N,Net-(D8-Pad2)*%
X6344000Y10946000D03*
D12*
%TO.P,J3,1*%
%TO.N,Net-(D7-Pad1)*%
X12344000Y10946000D03*
%TD*%
D13*
%TO.P,R4,2*%
%TO.N,Net-(C1-Pad2)*%
X42672000Y34496000D03*
D14*
%TO.P,R4,1*%
%TO.N,Net-(C1-Pad1)*%
X42672000Y44656000D03*
%TD*%
D13*
%TO.P,R3,2*%
%TO.N,/DTR*%
X16918000Y71628000D03*
D14*
%TO.P,R3,1*%
%TO.N,Net-(D3-Pad1)*%
X6758000Y71628000D03*
%TD*%
D13*
%TO.P,R2,2*%
%TO.N,/TxD*%
X16918000Y65355300D03*
D14*
%TO.P,R2,1*%
%TO.N,Net-(D1-Pad1)*%
X6758000Y65355300D03*
%TD*%
D13*
%TO.P,R1,2*%
%TO.N,/RTS*%
X16918000Y52610000D03*
D14*
%TO.P,R1,1*%
%TO.N,/DSR*%
X6758000Y52610000D03*
%TD*%
D15*
%TO.P,J2,10*%
%TO.N,Net-(D8-Pad2)*%
X38354000Y11176000D03*
%TO.P,J2,9*%
%TO.N,/CTS*%
X38354000Y8636000D03*
%TO.P,J2,8*%
%TO.N,Net-(D8-Pad2)*%
X35814000Y11176000D03*
%TO.P,J2,7*%
%TO.N,Net-(D3-Pad1)*%
X35814000Y8636000D03*
%TO.P,J2,6*%
%TO.N,Net-(D8-Pad2)*%
X33274000Y11176000D03*
%TO.P,J2,5*%
%TO.N,/DSR*%
X33274000Y8636000D03*
%TO.P,J2,4*%
%TO.N,Net-(D8-Pad2)*%
X30734000Y11176000D03*
%TO.P,J2,3*%
%TO.N,Net-(J2-Pad3)*%
X30734000Y8636000D03*
%TO.P,J2,2*%
%TO.N,Net-(D7-Pad1)*%
X28194000Y11176000D03*
D16*
%TO.P,J2,1*%
%TO.N,Net-(D1-Pad1)*%
X28194000Y8636000D03*
%TD*%
D14*
%TO.P,J1,9*%
%TO.N,Net-(J1-Pad9)*%
X35560000Y68115000D03*
%TO.P,J1,8*%
%TO.N,/CTS*%
X35560000Y65345000D03*
%TO.P,J1,7*%
%TO.N,/RTS*%
X35560000Y62575000D03*
%TO.P,J1,6*%
%TO.N,/DSR*%
X35560000Y59805000D03*
%TO.P,J1,5*%
%TO.N,Net-(D8-Pad2)*%
X33020000Y69500000D03*
%TO.P,J1,4*%
%TO.N,/DTR*%
X33020000Y66730000D03*
%TO.P,J1,3*%
%TO.N,/TxD*%
X33020000Y63960000D03*
%TO.P,J1,2*%
%TO.N,Net-(J1-Pad2)*%
X33020000Y61190000D03*
D17*
%TO.P,J1,1*%
%TO.N,Net-(J1-Pad1)*%
X33020000Y58420000D03*
%TD*%
D18*
%TO.P,D8,2*%
%TO.N,Net-(D8-Pad2)*%
X19558000Y30125300D03*
D19*
%TO.P,D8,1*%
%TO.N,Net-(C1-Pad2)*%
X6858000Y30125300D03*
%TD*%
D18*
%TO.P,D7,2*%
%TO.N,Net-(C1-Pad1)*%
X36322000Y30125300D03*
D19*
%TO.P,D7,1*%
%TO.N,Net-(D7-Pad1)*%
X23622000Y30125300D03*
%TD*%
D18*
%TO.P,D6,2*%
%TO.N,/DSR*%
X19558000Y44656000D03*
D19*
%TO.P,D6,1*%
%TO.N,Net-(C1-Pad2)*%
X6858000Y44656000D03*
%TD*%
D18*
%TO.P,D5,2*%
%TO.N,Net-(C1-Pad1)*%
X36322000Y44656000D03*
D19*
%TO.P,D5,1*%
%TO.N,/DSR*%
X23622000Y44656000D03*
%TD*%
D18*
%TO.P,D4,2*%
%TO.N,Net-(D3-Pad1)*%
X19558000Y37390700D03*
D19*
%TO.P,D4,1*%
%TO.N,Net-(C1-Pad2)*%
X6858000Y37390700D03*
%TD*%
D18*
%TO.P,D3,2*%
%TO.N,Net-(C1-Pad1)*%
X36322000Y37390700D03*
D19*
%TO.P,D3,1*%
%TO.N,Net-(D3-Pad1)*%
X23622000Y37390700D03*
%TD*%
D18*
%TO.P,D2,2*%
%TO.N,Net-(D1-Pad1)*%
X19558000Y22860000D03*
D19*
%TO.P,D2,1*%
%TO.N,Net-(C1-Pad2)*%
X6858000Y22860000D03*
%TD*%
D18*
%TO.P,D1,2*%
%TO.N,Net-(C1-Pad1)*%
X19558000Y58982700D03*
D19*
%TO.P,D1,1*%
%TO.N,Net-(D1-Pad1)*%
X6858000Y58982700D03*
%TD*%
D14*
%TO.P,C1,2*%
%TO.N,Net-(C1-Pad2)*%
X38722000Y21336000D03*
D17*
%TO.P,C1,1*%
%TO.N,Net-(C1-Pad1)*%
X36222000Y21336000D03*
%TD*%
D20*
%TO.N,/DSR*%
X31611700Y47244500D03*
%TO.N,/RTS*%
X28523300Y55986000D03*
%TD*%
D21*
%TO.N,Net-(C1-Pad2)*%
X9858600Y24360300D02*
X8358300Y22860000D01*
X38722000Y21336000D02*
X35697700Y24360300D01*
X35697700Y24360300D02*
X9858600Y24360300D01*
X9858600Y24360300D02*
X9858600Y28625000D01*
X9858600Y28625000D02*
X8358300Y30125300D01*
X6858000Y30125300D02*
X8358300Y30125300D01*
X6858000Y22860000D02*
X8358300Y22860000D01*
%TO.N,Net-(C1-Pad1)*%
X36322000Y44656000D02*
X34821700Y44656000D01*
X34821700Y44656000D02*
X34821700Y45453500D01*
X34821700Y45453500D02*
X21292500Y58982700D01*
X21292500Y58982700D02*
X21058300Y58982700D01*
X36322000Y44656000D02*
X42672000Y44656000D01*
X19558000Y58982700D02*
X21058300Y58982700D01*
%TO.N,Net-(D1-Pad1)*%
X19558000Y22860000D02*
X19558000Y17272000D01*
X19558000Y17272000D02*
X28194000Y8636000D01*
%TO.N,Net-(D3-Pad1)*%
X23622000Y37390700D02*
X25122300Y37390700D01*
X25122300Y37390700D02*
X40162600Y22350400D01*
X40162600Y22350400D02*
X40162600Y8354400D01*
X40162600Y8354400D02*
X38960900Y7152700D01*
X38960900Y7152700D02*
X37297300Y7152700D01*
X37297300Y7152700D02*
X35814000Y8636000D01*
X21090000Y37390700D02*
X23622000Y37390700D01*
X21090000Y37390700D02*
X21090000Y53003800D01*
X21090000Y53003800D02*
X6758000Y67335800D01*
X6758000Y67335800D02*
X6758000Y71628000D01*
X21090000Y37390700D02*
X19558000Y37390700D01*
%TO.N,/DSR*%
X29023200Y44656000D02*
X23622000Y44656000D01*
X31611700Y47244500D02*
X29023200Y44656000D01*
X29023200Y44656000D02*
X29023200Y39551200D01*
X29023200Y39551200D02*
X41170500Y27403900D01*
X41170500Y27403900D02*
X41170500Y7904700D01*
X41170500Y7904700D02*
X39414200Y6148400D01*
X39414200Y6148400D02*
X35761600Y6148400D01*
X35761600Y6148400D02*
X33274000Y8636000D01*
X19558000Y44656000D02*
X14712000Y44656000D01*
X14712000Y44656000D02*
X6758000Y52610000D01*
%TO.N,Net-(D8-Pad2)*%
X35814000Y11176000D02*
X38354000Y11176000D01*
X33274000Y11176000D02*
X35814000Y11176000D01*
X30734000Y11176000D02*
X33274000Y11176000D01*
%TO.N,/RTS*%
X35560000Y62575000D02*
X36970800Y61164200D01*
X36970800Y61164200D02*
X36970800Y59235300D01*
X36970800Y59235300D02*
X33721500Y55986000D01*
X33721500Y55986000D02*
X28523300Y55986000D01*
%TO.N,/DTR*%
X16918000Y71628000D02*
X18318300Y71628000D01*
X33020000Y66730000D02*
X23216300Y66730000D01*
X23216300Y66730000D02*
X18318300Y71628000D01*
%TO.N,/TxD*%
X16918000Y65355300D02*
X18318300Y65355300D01*
X33020000Y63960000D02*
X19713600Y63960000D01*
X19713600Y63960000D02*
X18318300Y65355300D01*
%TD*%
M02*
