M48
; DRILL file {KiCad 5.1.4-3.fc30} date czw, 19 wrz 2019, 16:23:34
; FORMAT={-:-/ absolute / inch / decimal}
; #@! TF.CreationDate,2019-09-19T16:23:34+02:00
; #@! TF.GenerationSoftware,Kicad,Pcbnew,5.1.4-3.fc30
; #@! TF.FileFunction,Plated,1,2,PTH
FMAT,2
INCH
T1C0.0157
T2C0.0315
T3C0.0354
T4C0.0394
T5C0.0400
%
G90
G05
T1
X5.413Y-2.4858
X5.5346Y-2.83
T2
X5.7161Y-3.85
X5.8145Y-3.85
X4.5561Y-2.6187
X4.9561Y-2.6187
X4.5561Y-2.117
X4.9561Y-2.117
X4.5561Y-1.87
X4.9561Y-1.87
X5.97Y-2.9319
X5.97Y-3.3319
T3
X5.22Y-3.2179
X5.72Y-3.2179
X4.56Y-3.2179
X5.06Y-3.2179
X4.56Y-3.79
X5.06Y-3.79
X4.56Y-2.3678
X5.06Y-2.3678
X5.22Y-3.504
X5.72Y-3.504
X4.56Y-2.9319
X5.06Y-2.9319
X5.22Y-2.9319
X5.72Y-2.9319
X4.56Y-3.504
X5.06Y-3.504
T4
X5.59Y-1.9538
X5.59Y-2.0628
X5.59Y-2.1719
X5.59Y-2.2809
X5.59Y-2.39
X5.69Y-2.0083
X5.69Y-2.1174
X5.69Y-2.2264
X5.69Y-2.3355
T5
X5.4Y-4.25
X5.4Y-4.35
X5.5Y-4.25
X5.5Y-4.35
X5.6Y-4.25
X5.6Y-4.35
X5.7Y-4.25
X5.7Y-4.35
X5.8Y-4.25
X5.8Y-4.35
T4
G00X4.5299Y-4.0819
M15
G01X4.4709Y-4.0819
M16
G05
G00X4.5299Y-4.4362
M15
G01X4.4709Y-4.4362
M16
G05
G00X4.5398Y-4.2335
M15
G01X4.5398Y-4.2846
M16
G05
G00X4.776Y-4.2197
M15
G01X4.776Y-4.2984
M16
G05
T0
M30
