G04 #@! TF.GenerationSoftware,KiCad,Pcbnew,5.1.4-3.fc30*
G04 #@! TF.CreationDate,2019-09-19T16:23:22+02:00*
G04 #@! TF.ProjectId,dasa,64617361-2e6b-4696-9361-645f70636258,rev?*
G04 #@! TF.SameCoordinates,Original*
G04 #@! TF.FileFunction,Other,Fab,Top*
%FSLAX46Y46*%
G04 Gerber Fmt 4.6, Leading zero omitted, Abs format (unit mm)*
G04 Created by KiCad (PCBNEW 5.1.4-3.fc30) date 2019-09-19 16:23:22*
%MOMM*%
%LPD*%
G04 APERTURE LIST*
%ADD10C,0.100000*%
%ADD11C,0.150000*%
G04 APERTURE END LIST*
D10*
X109310000Y-103180000D02*
X122310000Y-103180000D01*
X109310000Y-113180000D02*
X109310000Y-103180000D01*
X122310000Y-113180000D02*
X109310000Y-113180000D01*
X122310000Y-109180000D02*
X122310000Y-113180000D01*
X121310000Y-108180000D02*
X122310000Y-109180000D01*
X122310000Y-107180000D02*
X121310000Y-108180000D01*
X122310000Y-103180000D02*
X122310000Y-107180000D01*
X151638000Y-84630000D02*
X151638000Y-82700000D01*
X151638000Y-74470000D02*
X151638000Y-76400000D01*
X152888000Y-82700000D02*
X152888000Y-76400000D01*
X150388000Y-82700000D02*
X152888000Y-82700000D01*
X150388000Y-76400000D02*
X150388000Y-82700000D01*
X152888000Y-76400000D02*
X150388000Y-76400000D01*
X125884000Y-47498000D02*
X123954000Y-47498000D01*
X115724000Y-47498000D02*
X117654000Y-47498000D01*
X123954000Y-46248000D02*
X117654000Y-46248000D01*
X123954000Y-48748000D02*
X123954000Y-46248000D01*
X117654000Y-48748000D02*
X123954000Y-48748000D01*
X117654000Y-46248000D02*
X117654000Y-48748000D01*
X125884000Y-53770700D02*
X123954000Y-53770700D01*
X115724000Y-53770700D02*
X117654000Y-53770700D01*
X123954000Y-52520700D02*
X117654000Y-52520700D01*
X123954000Y-55020700D02*
X123954000Y-52520700D01*
X117654000Y-55020700D02*
X123954000Y-55020700D01*
X117654000Y-52520700D02*
X117654000Y-55020700D01*
X125884000Y-66516000D02*
X123954000Y-66516000D01*
X115724000Y-66516000D02*
X117654000Y-66516000D01*
X123954000Y-65266000D02*
X117654000Y-65266000D01*
X123954000Y-67766000D02*
X123954000Y-65266000D01*
X117654000Y-67766000D02*
X123954000Y-67766000D01*
X117654000Y-65266000D02*
X117654000Y-67766000D01*
X152420000Y-113645000D02*
X151860000Y-113095000D01*
X132060000Y-113645000D02*
X132600000Y-113095000D01*
X152420000Y-104795000D02*
X151860000Y-105345000D01*
X132060000Y-104795000D02*
X132600000Y-105345000D01*
X151860000Y-105345000D02*
X151860000Y-113095000D01*
X152420000Y-104795000D02*
X152420000Y-113645000D01*
X132600000Y-105345000D02*
X132600000Y-113095000D01*
X132060000Y-104795000D02*
X132060000Y-113645000D01*
X144490000Y-113095000D02*
X144490000Y-113645000D01*
X139990000Y-113095000D02*
X139990000Y-113645000D01*
X144490000Y-113095000D02*
X151860000Y-113095000D01*
X132600000Y-113095000D02*
X139990000Y-113095000D01*
X132060000Y-113645000D02*
X152420000Y-113645000D01*
X132600000Y-105345000D02*
X151860000Y-105345000D01*
X132060000Y-104795000D02*
X152420000Y-104795000D01*
X154326000Y-47016000D02*
X154326000Y-63316000D01*
X160326000Y-47016000D02*
X154326000Y-47016000D01*
X160326000Y-63316000D02*
X160326000Y-47016000D01*
X154326000Y-63316000D02*
X160326000Y-63316000D01*
X153926000Y-39741000D02*
X153926000Y-70591000D01*
X154326000Y-39741000D02*
X153926000Y-39741000D01*
X154326000Y-70591000D02*
X154326000Y-39741000D01*
X153926000Y-70591000D02*
X154326000Y-70591000D01*
X149826000Y-46616000D02*
X149826000Y-63716000D01*
X153926000Y-46616000D02*
X149826000Y-46616000D01*
X153926000Y-63716000D02*
X153926000Y-46616000D01*
X149826000Y-63716000D02*
X153926000Y-63716000D01*
X144526000Y-50911000D02*
X149826000Y-50911000D01*
X144526000Y-51011000D02*
X149826000Y-51011000D01*
X144526000Y-51111000D02*
X149826000Y-51111000D01*
X144526000Y-53681000D02*
X149826000Y-53681000D01*
X144526000Y-53781000D02*
X149826000Y-53781000D01*
X144526000Y-53881000D02*
X149826000Y-53881000D01*
X144526000Y-56451000D02*
X149826000Y-56451000D01*
X144526000Y-56551000D02*
X149826000Y-56551000D01*
X144526000Y-56651000D02*
X149826000Y-56651000D01*
X144526000Y-59221000D02*
X149826000Y-59221000D01*
X144526000Y-59321000D02*
X149826000Y-59321000D01*
X144526000Y-59421000D02*
X149826000Y-59421000D01*
X141986000Y-49526000D02*
X149826000Y-49526000D01*
X141986000Y-49626000D02*
X149826000Y-49626000D01*
X141986000Y-49726000D02*
X149826000Y-49726000D01*
X141986000Y-52296000D02*
X149826000Y-52296000D01*
X141986000Y-52396000D02*
X149826000Y-52396000D01*
X141986000Y-52496000D02*
X149826000Y-52496000D01*
X141986000Y-55066000D02*
X149826000Y-55066000D01*
X141986000Y-55166000D02*
X149826000Y-55166000D01*
X141986000Y-55266000D02*
X149826000Y-55266000D01*
X141986000Y-57836000D02*
X149826000Y-57836000D01*
X141986000Y-57936000D02*
X149826000Y-57936000D01*
X141986000Y-58036000D02*
X149826000Y-58036000D01*
X141986000Y-60606000D02*
X149826000Y-60606000D01*
X141986000Y-60706000D02*
X149826000Y-60706000D01*
X141986000Y-60806000D02*
X149826000Y-60806000D01*
X120254000Y-87650700D02*
X120254000Y-90350700D01*
X120454000Y-87650700D02*
X120454000Y-90350700D01*
X120354000Y-87650700D02*
X120354000Y-90350700D01*
X128524000Y-89000700D02*
X124774000Y-89000700D01*
X115824000Y-89000700D02*
X119574000Y-89000700D01*
X124774000Y-87650700D02*
X119574000Y-87650700D01*
X124774000Y-90350700D02*
X124774000Y-87650700D01*
X119574000Y-90350700D02*
X124774000Y-90350700D01*
X119574000Y-87650700D02*
X119574000Y-90350700D01*
X137018000Y-87650700D02*
X137018000Y-90350700D01*
X137218000Y-87650700D02*
X137218000Y-90350700D01*
X137118000Y-87650700D02*
X137118000Y-90350700D01*
X145288000Y-89000700D02*
X141538000Y-89000700D01*
X132588000Y-89000700D02*
X136338000Y-89000700D01*
X141538000Y-87650700D02*
X136338000Y-87650700D01*
X141538000Y-90350700D02*
X141538000Y-87650700D01*
X136338000Y-90350700D02*
X141538000Y-90350700D01*
X136338000Y-87650700D02*
X136338000Y-90350700D01*
X120254000Y-73120000D02*
X120254000Y-75820000D01*
X120454000Y-73120000D02*
X120454000Y-75820000D01*
X120354000Y-73120000D02*
X120354000Y-75820000D01*
X128524000Y-74470000D02*
X124774000Y-74470000D01*
X115824000Y-74470000D02*
X119574000Y-74470000D01*
X124774000Y-73120000D02*
X119574000Y-73120000D01*
X124774000Y-75820000D02*
X124774000Y-73120000D01*
X119574000Y-75820000D02*
X124774000Y-75820000D01*
X119574000Y-73120000D02*
X119574000Y-75820000D01*
X137018000Y-73120000D02*
X137018000Y-75820000D01*
X137218000Y-73120000D02*
X137218000Y-75820000D01*
X137118000Y-73120000D02*
X137118000Y-75820000D01*
X145288000Y-74470000D02*
X141538000Y-74470000D01*
X132588000Y-74470000D02*
X136338000Y-74470000D01*
X141538000Y-73120000D02*
X136338000Y-73120000D01*
X141538000Y-75820000D02*
X141538000Y-73120000D01*
X136338000Y-75820000D02*
X141538000Y-75820000D01*
X136338000Y-73120000D02*
X136338000Y-75820000D01*
X120254000Y-80385300D02*
X120254000Y-83085300D01*
X120454000Y-80385300D02*
X120454000Y-83085300D01*
X120354000Y-80385300D02*
X120354000Y-83085300D01*
X128524000Y-81735300D02*
X124774000Y-81735300D01*
X115824000Y-81735300D02*
X119574000Y-81735300D01*
X124774000Y-80385300D02*
X119574000Y-80385300D01*
X124774000Y-83085300D02*
X124774000Y-80385300D01*
X119574000Y-83085300D02*
X124774000Y-83085300D01*
X119574000Y-80385300D02*
X119574000Y-83085300D01*
X137018000Y-80385300D02*
X137018000Y-83085300D01*
X137218000Y-80385300D02*
X137218000Y-83085300D01*
X137118000Y-80385300D02*
X137118000Y-83085300D01*
X145288000Y-81735300D02*
X141538000Y-81735300D01*
X132588000Y-81735300D02*
X136338000Y-81735300D01*
X141538000Y-80385300D02*
X136338000Y-80385300D01*
X141538000Y-83085300D02*
X141538000Y-80385300D01*
X136338000Y-83085300D02*
X141538000Y-83085300D01*
X136338000Y-80385300D02*
X136338000Y-83085300D01*
X120254000Y-94916000D02*
X120254000Y-97616000D01*
X120454000Y-94916000D02*
X120454000Y-97616000D01*
X120354000Y-94916000D02*
X120354000Y-97616000D01*
X128524000Y-96266000D02*
X124774000Y-96266000D01*
X115824000Y-96266000D02*
X119574000Y-96266000D01*
X124774000Y-94916000D02*
X119574000Y-94916000D01*
X124774000Y-97616000D02*
X124774000Y-94916000D01*
X119574000Y-97616000D02*
X124774000Y-97616000D01*
X119574000Y-94916000D02*
X119574000Y-97616000D01*
X120254000Y-58793300D02*
X120254000Y-61493300D01*
X120454000Y-58793300D02*
X120454000Y-61493300D01*
X120354000Y-58793300D02*
X120354000Y-61493300D01*
X128524000Y-60143300D02*
X124774000Y-60143300D01*
X115824000Y-60143300D02*
X119574000Y-60143300D01*
X124774000Y-58793300D02*
X119574000Y-58793300D01*
X124774000Y-61493300D02*
X124774000Y-58793300D01*
X119574000Y-61493300D02*
X124774000Y-61493300D01*
X119574000Y-58793300D02*
X119574000Y-61493300D01*
X143411241Y-95642500D02*
X143411241Y-96442500D01*
X143011241Y-96042500D02*
X143811241Y-96042500D01*
X150438000Y-97790000D02*
G75*
G03X150438000Y-97790000I-4000000J0D01*
G01*
D11*
X108381428Y-109465714D02*
X108381428Y-108703809D01*
X108762380Y-109084761D02*
X108000476Y-109084761D01*
X107762380Y-107751428D02*
X107762380Y-108227619D01*
X108238571Y-108275238D01*
X108190952Y-108227619D01*
X108143333Y-108132380D01*
X108143333Y-107894285D01*
X108190952Y-107799047D01*
X108238571Y-107751428D01*
X108333809Y-107703809D01*
X108571904Y-107703809D01*
X108667142Y-107751428D01*
X108714761Y-107799047D01*
X108762380Y-107894285D01*
X108762380Y-108132380D01*
X108714761Y-108227619D01*
X108667142Y-108275238D01*
X107762380Y-107418095D02*
X108762380Y-107084761D01*
X107762380Y-106751428D01*
X115262380Y-108513333D02*
X115976666Y-108513333D01*
X116119523Y-108560952D01*
X116214761Y-108656190D01*
X116262380Y-108799047D01*
X116262380Y-108894285D01*
X115262380Y-108132380D02*
X115262380Y-107513333D01*
X115643333Y-107846666D01*
X115643333Y-107703809D01*
X115690952Y-107608571D01*
X115738571Y-107560952D01*
X115833809Y-107513333D01*
X116071904Y-107513333D01*
X116167142Y-107560952D01*
X116214761Y-107608571D01*
X116262380Y-107703809D01*
X116262380Y-107989523D01*
X116214761Y-108084761D01*
X116167142Y-108132380D01*
X149720380Y-80216666D02*
X149720380Y-80788095D01*
X149720380Y-80502380D02*
X148720380Y-80502380D01*
X148863238Y-80597619D01*
X148958476Y-80692857D01*
X149006095Y-80788095D01*
X148720380Y-79597619D02*
X148720380Y-79502380D01*
X148768000Y-79407142D01*
X148815619Y-79359523D01*
X148910857Y-79311904D01*
X149101333Y-79264285D01*
X149339428Y-79264285D01*
X149529904Y-79311904D01*
X149625142Y-79359523D01*
X149672761Y-79407142D01*
X149720380Y-79502380D01*
X149720380Y-79597619D01*
X149672761Y-79692857D01*
X149625142Y-79740476D01*
X149529904Y-79788095D01*
X149339428Y-79835714D01*
X149101333Y-79835714D01*
X148910857Y-79788095D01*
X148815619Y-79740476D01*
X148768000Y-79692857D01*
X148720380Y-79597619D01*
X148720380Y-78645238D02*
X148720380Y-78550000D01*
X148768000Y-78454761D01*
X148815619Y-78407142D01*
X148910857Y-78359523D01*
X149101333Y-78311904D01*
X149339428Y-78311904D01*
X149529904Y-78359523D01*
X149625142Y-78407142D01*
X149672761Y-78454761D01*
X149720380Y-78550000D01*
X149720380Y-78645238D01*
X149672761Y-78740476D01*
X149625142Y-78788095D01*
X149529904Y-78835714D01*
X149339428Y-78883333D01*
X149101333Y-78883333D01*
X148910857Y-78835714D01*
X148815619Y-78788095D01*
X148768000Y-78740476D01*
X148720380Y-78645238D01*
X152090380Y-79716666D02*
X151614190Y-80050000D01*
X152090380Y-80288095D02*
X151090380Y-80288095D01*
X151090380Y-79907142D01*
X151138000Y-79811904D01*
X151185619Y-79764285D01*
X151280857Y-79716666D01*
X151423714Y-79716666D01*
X151518952Y-79764285D01*
X151566571Y-79811904D01*
X151614190Y-79907142D01*
X151614190Y-80288095D01*
X151423714Y-78859523D02*
X152090380Y-78859523D01*
X151042761Y-79097619D02*
X151757047Y-79335714D01*
X151757047Y-78716666D01*
X119589714Y-49320380D02*
X120208761Y-49320380D01*
X119875428Y-49701333D01*
X120018285Y-49701333D01*
X120113523Y-49748952D01*
X120161142Y-49796571D01*
X120208761Y-49891809D01*
X120208761Y-50129904D01*
X120161142Y-50225142D01*
X120113523Y-50272761D01*
X120018285Y-50320380D01*
X119732571Y-50320380D01*
X119637333Y-50272761D01*
X119589714Y-50225142D01*
X120637333Y-50320380D02*
X120637333Y-49320380D01*
X120732571Y-49939428D02*
X121018285Y-50320380D01*
X121018285Y-49653714D02*
X120637333Y-50034666D01*
X121351619Y-49320380D02*
X121970666Y-49320380D01*
X121637333Y-49701333D01*
X121780190Y-49701333D01*
X121875428Y-49748952D01*
X121923047Y-49796571D01*
X121970666Y-49891809D01*
X121970666Y-50129904D01*
X121923047Y-50225142D01*
X121875428Y-50272761D01*
X121780190Y-50320380D01*
X121494476Y-50320380D01*
X121399238Y-50272761D01*
X121351619Y-50225142D01*
X120637333Y-47950380D02*
X120304000Y-47474190D01*
X120065904Y-47950380D02*
X120065904Y-46950380D01*
X120446857Y-46950380D01*
X120542095Y-46998000D01*
X120589714Y-47045619D01*
X120637333Y-47140857D01*
X120637333Y-47283714D01*
X120589714Y-47378952D01*
X120542095Y-47426571D01*
X120446857Y-47474190D01*
X120065904Y-47474190D01*
X120970666Y-46950380D02*
X121589714Y-46950380D01*
X121256380Y-47331333D01*
X121399238Y-47331333D01*
X121494476Y-47378952D01*
X121542095Y-47426571D01*
X121589714Y-47521809D01*
X121589714Y-47759904D01*
X121542095Y-47855142D01*
X121494476Y-47902761D01*
X121399238Y-47950380D01*
X121113523Y-47950380D01*
X121018285Y-47902761D01*
X120970666Y-47855142D01*
X119589714Y-55593080D02*
X120208761Y-55593080D01*
X119875428Y-55974033D01*
X120018285Y-55974033D01*
X120113523Y-56021652D01*
X120161142Y-56069271D01*
X120208761Y-56164509D01*
X120208761Y-56402604D01*
X120161142Y-56497842D01*
X120113523Y-56545461D01*
X120018285Y-56593080D01*
X119732571Y-56593080D01*
X119637333Y-56545461D01*
X119589714Y-56497842D01*
X120637333Y-56593080D02*
X120637333Y-55593080D01*
X120732571Y-56212128D02*
X121018285Y-56593080D01*
X121018285Y-55926414D02*
X120637333Y-56307366D01*
X121351619Y-55593080D02*
X121970666Y-55593080D01*
X121637333Y-55974033D01*
X121780190Y-55974033D01*
X121875428Y-56021652D01*
X121923047Y-56069271D01*
X121970666Y-56164509D01*
X121970666Y-56402604D01*
X121923047Y-56497842D01*
X121875428Y-56545461D01*
X121780190Y-56593080D01*
X121494476Y-56593080D01*
X121399238Y-56545461D01*
X121351619Y-56497842D01*
X120637333Y-54223080D02*
X120304000Y-53746890D01*
X120065904Y-54223080D02*
X120065904Y-53223080D01*
X120446857Y-53223080D01*
X120542095Y-53270700D01*
X120589714Y-53318319D01*
X120637333Y-53413557D01*
X120637333Y-53556414D01*
X120589714Y-53651652D01*
X120542095Y-53699271D01*
X120446857Y-53746890D01*
X120065904Y-53746890D01*
X121018285Y-53318319D02*
X121065904Y-53270700D01*
X121161142Y-53223080D01*
X121399238Y-53223080D01*
X121494476Y-53270700D01*
X121542095Y-53318319D01*
X121589714Y-53413557D01*
X121589714Y-53508795D01*
X121542095Y-53651652D01*
X120970666Y-54223080D01*
X121589714Y-54223080D01*
X119589714Y-68338380D02*
X120208761Y-68338380D01*
X119875428Y-68719333D01*
X120018285Y-68719333D01*
X120113523Y-68766952D01*
X120161142Y-68814571D01*
X120208761Y-68909809D01*
X120208761Y-69147904D01*
X120161142Y-69243142D01*
X120113523Y-69290761D01*
X120018285Y-69338380D01*
X119732571Y-69338380D01*
X119637333Y-69290761D01*
X119589714Y-69243142D01*
X120637333Y-69338380D02*
X120637333Y-68338380D01*
X120732571Y-68957428D02*
X121018285Y-69338380D01*
X121018285Y-68671714D02*
X120637333Y-69052666D01*
X121351619Y-68338380D02*
X121970666Y-68338380D01*
X121637333Y-68719333D01*
X121780190Y-68719333D01*
X121875428Y-68766952D01*
X121923047Y-68814571D01*
X121970666Y-68909809D01*
X121970666Y-69147904D01*
X121923047Y-69243142D01*
X121875428Y-69290761D01*
X121780190Y-69338380D01*
X121494476Y-69338380D01*
X121399238Y-69290761D01*
X121351619Y-69243142D01*
X120637333Y-66968380D02*
X120304000Y-66492190D01*
X120065904Y-66968380D02*
X120065904Y-65968380D01*
X120446857Y-65968380D01*
X120542095Y-66016000D01*
X120589714Y-66063619D01*
X120637333Y-66158857D01*
X120637333Y-66301714D01*
X120589714Y-66396952D01*
X120542095Y-66444571D01*
X120446857Y-66492190D01*
X120065904Y-66492190D01*
X121589714Y-66968380D02*
X121018285Y-66968380D01*
X121304000Y-66968380D02*
X121304000Y-65968380D01*
X121208761Y-66111238D01*
X121113523Y-66206476D01*
X121018285Y-66254095D01*
X154090666Y-113791428D02*
X154090666Y-113315238D01*
X154376380Y-113886666D02*
X153376380Y-113553333D01*
X154376380Y-113220000D01*
X153376380Y-113029523D02*
X154376380Y-112696190D01*
X153376380Y-112362857D01*
X154376380Y-111458095D02*
X153900190Y-111791428D01*
X154376380Y-112029523D02*
X153376380Y-112029523D01*
X153376380Y-111648571D01*
X153424000Y-111553333D01*
X153471619Y-111505714D01*
X153566857Y-111458095D01*
X153709714Y-111458095D01*
X153804952Y-111505714D01*
X153852571Y-111553333D01*
X153900190Y-111648571D01*
X153900190Y-112029523D01*
X153995428Y-111029523D02*
X153995428Y-110267619D01*
X154376380Y-109791428D02*
X153376380Y-109791428D01*
X154328761Y-109362857D02*
X154376380Y-109220000D01*
X154376380Y-108981904D01*
X154328761Y-108886666D01*
X154281142Y-108839047D01*
X154185904Y-108791428D01*
X154090666Y-108791428D01*
X153995428Y-108839047D01*
X153947809Y-108886666D01*
X153900190Y-108981904D01*
X153852571Y-109172380D01*
X153804952Y-109267619D01*
X153757333Y-109315238D01*
X153662095Y-109362857D01*
X153566857Y-109362857D01*
X153471619Y-109315238D01*
X153424000Y-109267619D01*
X153376380Y-109172380D01*
X153376380Y-108934285D01*
X153424000Y-108791428D01*
X154376380Y-108362857D02*
X153376380Y-108362857D01*
X153376380Y-107981904D01*
X153424000Y-107886666D01*
X153471619Y-107839047D01*
X153566857Y-107791428D01*
X153709714Y-107791428D01*
X153804952Y-107839047D01*
X153852571Y-107886666D01*
X153900190Y-107981904D01*
X153900190Y-108362857D01*
X153995428Y-107362857D02*
X153995428Y-106600952D01*
X154376380Y-105600952D02*
X154376380Y-106172380D01*
X154376380Y-105886666D02*
X153376380Y-105886666D01*
X153519238Y-105981904D01*
X153614476Y-106077142D01*
X153662095Y-106172380D01*
X153376380Y-104981904D02*
X153376380Y-104886666D01*
X153424000Y-104791428D01*
X153471619Y-104743809D01*
X153566857Y-104696190D01*
X153757333Y-104648571D01*
X153995428Y-104648571D01*
X154185904Y-104696190D01*
X154281142Y-104743809D01*
X154328761Y-104791428D01*
X154376380Y-104886666D01*
X154376380Y-104981904D01*
X154328761Y-105077142D01*
X154281142Y-105124761D01*
X154185904Y-105172380D01*
X153995428Y-105220000D01*
X153757333Y-105220000D01*
X153566857Y-105172380D01*
X153471619Y-105124761D01*
X153424000Y-105077142D01*
X153376380Y-104981904D01*
X141692380Y-109553333D02*
X142406666Y-109553333D01*
X142549523Y-109600952D01*
X142644761Y-109696190D01*
X142692380Y-109839047D01*
X142692380Y-109934285D01*
X141787619Y-109124761D02*
X141740000Y-109077142D01*
X141692380Y-108981904D01*
X141692380Y-108743809D01*
X141740000Y-108648571D01*
X141787619Y-108600952D01*
X141882857Y-108553333D01*
X141978095Y-108553333D01*
X142120952Y-108600952D01*
X142692380Y-109172380D01*
X142692380Y-108553333D01*
X162278380Y-58499333D02*
X161278380Y-58499333D01*
X161278380Y-58261238D01*
X161326000Y-58118380D01*
X161421238Y-58023142D01*
X161516476Y-57975523D01*
X161706952Y-57927904D01*
X161849809Y-57927904D01*
X162040285Y-57975523D01*
X162135523Y-58023142D01*
X162230761Y-58118380D01*
X162278380Y-58261238D01*
X162278380Y-58499333D01*
X161754571Y-57166000D02*
X161802190Y-57023142D01*
X161849809Y-56975523D01*
X161945047Y-56927904D01*
X162087904Y-56927904D01*
X162183142Y-56975523D01*
X162230761Y-57023142D01*
X162278380Y-57118380D01*
X162278380Y-57499333D01*
X161278380Y-57499333D01*
X161278380Y-57166000D01*
X161326000Y-57070761D01*
X161373619Y-57023142D01*
X161468857Y-56975523D01*
X161564095Y-56975523D01*
X161659333Y-57023142D01*
X161706952Y-57070761D01*
X161754571Y-57166000D01*
X161754571Y-57499333D01*
X162278380Y-56451714D02*
X162278380Y-56261238D01*
X162230761Y-56166000D01*
X162183142Y-56118380D01*
X162040285Y-56023142D01*
X161849809Y-55975523D01*
X161468857Y-55975523D01*
X161373619Y-56023142D01*
X161326000Y-56070761D01*
X161278380Y-56166000D01*
X161278380Y-56356476D01*
X161326000Y-56451714D01*
X161373619Y-56499333D01*
X161468857Y-56546952D01*
X161706952Y-56546952D01*
X161802190Y-56499333D01*
X161849809Y-56451714D01*
X161897428Y-56356476D01*
X161897428Y-56166000D01*
X161849809Y-56070761D01*
X161802190Y-56023142D01*
X161706952Y-55975523D01*
X162373619Y-55785047D02*
X162373619Y-55023142D01*
X162278380Y-54785047D02*
X161278380Y-54785047D01*
X161992666Y-54451714D01*
X161278380Y-54118380D01*
X162278380Y-54118380D01*
X162278380Y-53213619D02*
X161754571Y-53213619D01*
X161659333Y-53261238D01*
X161611714Y-53356476D01*
X161611714Y-53546952D01*
X161659333Y-53642190D01*
X162230761Y-53213619D02*
X162278380Y-53308857D01*
X162278380Y-53546952D01*
X162230761Y-53642190D01*
X162135523Y-53689809D01*
X162040285Y-53689809D01*
X161945047Y-53642190D01*
X161897428Y-53546952D01*
X161897428Y-53308857D01*
X161849809Y-53213619D01*
X162278380Y-52594571D02*
X162230761Y-52689809D01*
X162135523Y-52737428D01*
X161278380Y-52737428D01*
X162230761Y-51832666D02*
X162278380Y-51927904D01*
X162278380Y-52118380D01*
X162230761Y-52213619D01*
X162135523Y-52261238D01*
X161754571Y-52261238D01*
X161659333Y-52213619D01*
X161611714Y-52118380D01*
X161611714Y-51927904D01*
X161659333Y-51832666D01*
X161754571Y-51785047D01*
X161849809Y-51785047D01*
X161945047Y-52261238D01*
X156778380Y-55499333D02*
X157492666Y-55499333D01*
X157635523Y-55546952D01*
X157730761Y-55642190D01*
X157778380Y-55785047D01*
X157778380Y-55880285D01*
X157778380Y-54499333D02*
X157778380Y-55070761D01*
X157778380Y-54785047D02*
X156778380Y-54785047D01*
X156921238Y-54880285D01*
X157016476Y-54975523D01*
X157064095Y-55070761D01*
X120031142Y-91923080D02*
X119459714Y-91923080D01*
X119745428Y-91923080D02*
X119745428Y-90923080D01*
X119650190Y-91065938D01*
X119554952Y-91161176D01*
X119459714Y-91208795D01*
X120459714Y-91923080D02*
X120459714Y-90923080D01*
X121031142Y-91923080D01*
X121031142Y-90923080D01*
X121935904Y-91256414D02*
X121935904Y-91923080D01*
X121697809Y-90875461D02*
X121459714Y-91589747D01*
X122078761Y-91589747D01*
X122983523Y-91923080D02*
X122412095Y-91923080D01*
X122697809Y-91923080D02*
X122697809Y-90923080D01*
X122602571Y-91065938D01*
X122507333Y-91161176D01*
X122412095Y-91208795D01*
X123888285Y-90923080D02*
X123412095Y-90923080D01*
X123364476Y-91399271D01*
X123412095Y-91351652D01*
X123507333Y-91304033D01*
X123745428Y-91304033D01*
X123840666Y-91351652D01*
X123888285Y-91399271D01*
X123935904Y-91494509D01*
X123935904Y-91732604D01*
X123888285Y-91827842D01*
X123840666Y-91875461D01*
X123745428Y-91923080D01*
X123507333Y-91923080D01*
X123412095Y-91875461D01*
X123364476Y-91827842D01*
X124888285Y-91923080D02*
X124316857Y-91923080D01*
X124602571Y-91923080D02*
X124602571Y-90923080D01*
X124507333Y-91065938D01*
X124412095Y-91161176D01*
X124316857Y-91208795D01*
X115562095Y-87553080D02*
X115562095Y-86553080D01*
X116133523Y-87553080D02*
X115704952Y-86981652D01*
X116133523Y-86553080D02*
X115562095Y-87124509D01*
X121825904Y-89453080D02*
X121825904Y-88453080D01*
X122064000Y-88453080D01*
X122206857Y-88500700D01*
X122302095Y-88595938D01*
X122349714Y-88691176D01*
X122397333Y-88881652D01*
X122397333Y-89024509D01*
X122349714Y-89214985D01*
X122302095Y-89310223D01*
X122206857Y-89405461D01*
X122064000Y-89453080D01*
X121825904Y-89453080D01*
X122968761Y-88881652D02*
X122873523Y-88834033D01*
X122825904Y-88786414D01*
X122778285Y-88691176D01*
X122778285Y-88643557D01*
X122825904Y-88548319D01*
X122873523Y-88500700D01*
X122968761Y-88453080D01*
X123159238Y-88453080D01*
X123254476Y-88500700D01*
X123302095Y-88548319D01*
X123349714Y-88643557D01*
X123349714Y-88691176D01*
X123302095Y-88786414D01*
X123254476Y-88834033D01*
X123159238Y-88881652D01*
X122968761Y-88881652D01*
X122873523Y-88929271D01*
X122825904Y-88976890D01*
X122778285Y-89072128D01*
X122778285Y-89262604D01*
X122825904Y-89357842D01*
X122873523Y-89405461D01*
X122968761Y-89453080D01*
X123159238Y-89453080D01*
X123254476Y-89405461D01*
X123302095Y-89357842D01*
X123349714Y-89262604D01*
X123349714Y-89072128D01*
X123302095Y-88976890D01*
X123254476Y-88929271D01*
X123159238Y-88881652D01*
X136795142Y-91923080D02*
X136223714Y-91923080D01*
X136509428Y-91923080D02*
X136509428Y-90923080D01*
X136414190Y-91065938D01*
X136318952Y-91161176D01*
X136223714Y-91208795D01*
X137223714Y-91923080D02*
X137223714Y-90923080D01*
X137795142Y-91923080D01*
X137795142Y-90923080D01*
X138699904Y-91256414D02*
X138699904Y-91923080D01*
X138461809Y-90875461D02*
X138223714Y-91589747D01*
X138842761Y-91589747D01*
X139747523Y-91923080D02*
X139176095Y-91923080D01*
X139461809Y-91923080D02*
X139461809Y-90923080D01*
X139366571Y-91065938D01*
X139271333Y-91161176D01*
X139176095Y-91208795D01*
X140652285Y-90923080D02*
X140176095Y-90923080D01*
X140128476Y-91399271D01*
X140176095Y-91351652D01*
X140271333Y-91304033D01*
X140509428Y-91304033D01*
X140604666Y-91351652D01*
X140652285Y-91399271D01*
X140699904Y-91494509D01*
X140699904Y-91732604D01*
X140652285Y-91827842D01*
X140604666Y-91875461D01*
X140509428Y-91923080D01*
X140271333Y-91923080D01*
X140176095Y-91875461D01*
X140128476Y-91827842D01*
X141652285Y-91923080D02*
X141080857Y-91923080D01*
X141366571Y-91923080D02*
X141366571Y-90923080D01*
X141271333Y-91065938D01*
X141176095Y-91161176D01*
X141080857Y-91208795D01*
X132326095Y-87553080D02*
X132326095Y-86553080D01*
X132897523Y-87553080D02*
X132468952Y-86981652D01*
X132897523Y-86553080D02*
X132326095Y-87124509D01*
X138589904Y-89453080D02*
X138589904Y-88453080D01*
X138828000Y-88453080D01*
X138970857Y-88500700D01*
X139066095Y-88595938D01*
X139113714Y-88691176D01*
X139161333Y-88881652D01*
X139161333Y-89024509D01*
X139113714Y-89214985D01*
X139066095Y-89310223D01*
X138970857Y-89405461D01*
X138828000Y-89453080D01*
X138589904Y-89453080D01*
X139494666Y-88453080D02*
X140161333Y-88453080D01*
X139732761Y-89453080D01*
X120031142Y-77392380D02*
X119459714Y-77392380D01*
X119745428Y-77392380D02*
X119745428Y-76392380D01*
X119650190Y-76535238D01*
X119554952Y-76630476D01*
X119459714Y-76678095D01*
X120459714Y-77392380D02*
X120459714Y-76392380D01*
X121031142Y-77392380D01*
X121031142Y-76392380D01*
X121935904Y-76725714D02*
X121935904Y-77392380D01*
X121697809Y-76344761D02*
X121459714Y-77059047D01*
X122078761Y-77059047D01*
X122983523Y-77392380D02*
X122412095Y-77392380D01*
X122697809Y-77392380D02*
X122697809Y-76392380D01*
X122602571Y-76535238D01*
X122507333Y-76630476D01*
X122412095Y-76678095D01*
X123888285Y-76392380D02*
X123412095Y-76392380D01*
X123364476Y-76868571D01*
X123412095Y-76820952D01*
X123507333Y-76773333D01*
X123745428Y-76773333D01*
X123840666Y-76820952D01*
X123888285Y-76868571D01*
X123935904Y-76963809D01*
X123935904Y-77201904D01*
X123888285Y-77297142D01*
X123840666Y-77344761D01*
X123745428Y-77392380D01*
X123507333Y-77392380D01*
X123412095Y-77344761D01*
X123364476Y-77297142D01*
X124888285Y-77392380D02*
X124316857Y-77392380D01*
X124602571Y-77392380D02*
X124602571Y-76392380D01*
X124507333Y-76535238D01*
X124412095Y-76630476D01*
X124316857Y-76678095D01*
X115562095Y-73022380D02*
X115562095Y-72022380D01*
X116133523Y-73022380D02*
X115704952Y-72450952D01*
X116133523Y-72022380D02*
X115562095Y-72593809D01*
X121825904Y-74922380D02*
X121825904Y-73922380D01*
X122064000Y-73922380D01*
X122206857Y-73970000D01*
X122302095Y-74065238D01*
X122349714Y-74160476D01*
X122397333Y-74350952D01*
X122397333Y-74493809D01*
X122349714Y-74684285D01*
X122302095Y-74779523D01*
X122206857Y-74874761D01*
X122064000Y-74922380D01*
X121825904Y-74922380D01*
X123254476Y-73922380D02*
X123064000Y-73922380D01*
X122968761Y-73970000D01*
X122921142Y-74017619D01*
X122825904Y-74160476D01*
X122778285Y-74350952D01*
X122778285Y-74731904D01*
X122825904Y-74827142D01*
X122873523Y-74874761D01*
X122968761Y-74922380D01*
X123159238Y-74922380D01*
X123254476Y-74874761D01*
X123302095Y-74827142D01*
X123349714Y-74731904D01*
X123349714Y-74493809D01*
X123302095Y-74398571D01*
X123254476Y-74350952D01*
X123159238Y-74303333D01*
X122968761Y-74303333D01*
X122873523Y-74350952D01*
X122825904Y-74398571D01*
X122778285Y-74493809D01*
X136795142Y-77392380D02*
X136223714Y-77392380D01*
X136509428Y-77392380D02*
X136509428Y-76392380D01*
X136414190Y-76535238D01*
X136318952Y-76630476D01*
X136223714Y-76678095D01*
X137223714Y-77392380D02*
X137223714Y-76392380D01*
X137795142Y-77392380D01*
X137795142Y-76392380D01*
X138699904Y-76725714D02*
X138699904Y-77392380D01*
X138461809Y-76344761D02*
X138223714Y-77059047D01*
X138842761Y-77059047D01*
X139747523Y-77392380D02*
X139176095Y-77392380D01*
X139461809Y-77392380D02*
X139461809Y-76392380D01*
X139366571Y-76535238D01*
X139271333Y-76630476D01*
X139176095Y-76678095D01*
X140652285Y-76392380D02*
X140176095Y-76392380D01*
X140128476Y-76868571D01*
X140176095Y-76820952D01*
X140271333Y-76773333D01*
X140509428Y-76773333D01*
X140604666Y-76820952D01*
X140652285Y-76868571D01*
X140699904Y-76963809D01*
X140699904Y-77201904D01*
X140652285Y-77297142D01*
X140604666Y-77344761D01*
X140509428Y-77392380D01*
X140271333Y-77392380D01*
X140176095Y-77344761D01*
X140128476Y-77297142D01*
X141652285Y-77392380D02*
X141080857Y-77392380D01*
X141366571Y-77392380D02*
X141366571Y-76392380D01*
X141271333Y-76535238D01*
X141176095Y-76630476D01*
X141080857Y-76678095D01*
X132326095Y-73022380D02*
X132326095Y-72022380D01*
X132897523Y-73022380D02*
X132468952Y-72450952D01*
X132897523Y-72022380D02*
X132326095Y-72593809D01*
X138589904Y-74922380D02*
X138589904Y-73922380D01*
X138828000Y-73922380D01*
X138970857Y-73970000D01*
X139066095Y-74065238D01*
X139113714Y-74160476D01*
X139161333Y-74350952D01*
X139161333Y-74493809D01*
X139113714Y-74684285D01*
X139066095Y-74779523D01*
X138970857Y-74874761D01*
X138828000Y-74922380D01*
X138589904Y-74922380D01*
X140066095Y-73922380D02*
X139589904Y-73922380D01*
X139542285Y-74398571D01*
X139589904Y-74350952D01*
X139685142Y-74303333D01*
X139923238Y-74303333D01*
X140018476Y-74350952D01*
X140066095Y-74398571D01*
X140113714Y-74493809D01*
X140113714Y-74731904D01*
X140066095Y-74827142D01*
X140018476Y-74874761D01*
X139923238Y-74922380D01*
X139685142Y-74922380D01*
X139589904Y-74874761D01*
X139542285Y-74827142D01*
X120031142Y-84657680D02*
X119459714Y-84657680D01*
X119745428Y-84657680D02*
X119745428Y-83657680D01*
X119650190Y-83800538D01*
X119554952Y-83895776D01*
X119459714Y-83943395D01*
X120459714Y-84657680D02*
X120459714Y-83657680D01*
X121031142Y-84657680D01*
X121031142Y-83657680D01*
X121935904Y-83991014D02*
X121935904Y-84657680D01*
X121697809Y-83610061D02*
X121459714Y-84324347D01*
X122078761Y-84324347D01*
X122983523Y-84657680D02*
X122412095Y-84657680D01*
X122697809Y-84657680D02*
X122697809Y-83657680D01*
X122602571Y-83800538D01*
X122507333Y-83895776D01*
X122412095Y-83943395D01*
X123888285Y-83657680D02*
X123412095Y-83657680D01*
X123364476Y-84133871D01*
X123412095Y-84086252D01*
X123507333Y-84038633D01*
X123745428Y-84038633D01*
X123840666Y-84086252D01*
X123888285Y-84133871D01*
X123935904Y-84229109D01*
X123935904Y-84467204D01*
X123888285Y-84562442D01*
X123840666Y-84610061D01*
X123745428Y-84657680D01*
X123507333Y-84657680D01*
X123412095Y-84610061D01*
X123364476Y-84562442D01*
X124888285Y-84657680D02*
X124316857Y-84657680D01*
X124602571Y-84657680D02*
X124602571Y-83657680D01*
X124507333Y-83800538D01*
X124412095Y-83895776D01*
X124316857Y-83943395D01*
X115562095Y-80287680D02*
X115562095Y-79287680D01*
X116133523Y-80287680D02*
X115704952Y-79716252D01*
X116133523Y-79287680D02*
X115562095Y-79859109D01*
X121825904Y-82187680D02*
X121825904Y-81187680D01*
X122064000Y-81187680D01*
X122206857Y-81235300D01*
X122302095Y-81330538D01*
X122349714Y-81425776D01*
X122397333Y-81616252D01*
X122397333Y-81759109D01*
X122349714Y-81949585D01*
X122302095Y-82044823D01*
X122206857Y-82140061D01*
X122064000Y-82187680D01*
X121825904Y-82187680D01*
X123254476Y-81521014D02*
X123254476Y-82187680D01*
X123016380Y-81140061D02*
X122778285Y-81854347D01*
X123397333Y-81854347D01*
X136795142Y-84657680D02*
X136223714Y-84657680D01*
X136509428Y-84657680D02*
X136509428Y-83657680D01*
X136414190Y-83800538D01*
X136318952Y-83895776D01*
X136223714Y-83943395D01*
X137223714Y-84657680D02*
X137223714Y-83657680D01*
X137795142Y-84657680D01*
X137795142Y-83657680D01*
X138699904Y-83991014D02*
X138699904Y-84657680D01*
X138461809Y-83610061D02*
X138223714Y-84324347D01*
X138842761Y-84324347D01*
X139747523Y-84657680D02*
X139176095Y-84657680D01*
X139461809Y-84657680D02*
X139461809Y-83657680D01*
X139366571Y-83800538D01*
X139271333Y-83895776D01*
X139176095Y-83943395D01*
X140652285Y-83657680D02*
X140176095Y-83657680D01*
X140128476Y-84133871D01*
X140176095Y-84086252D01*
X140271333Y-84038633D01*
X140509428Y-84038633D01*
X140604666Y-84086252D01*
X140652285Y-84133871D01*
X140699904Y-84229109D01*
X140699904Y-84467204D01*
X140652285Y-84562442D01*
X140604666Y-84610061D01*
X140509428Y-84657680D01*
X140271333Y-84657680D01*
X140176095Y-84610061D01*
X140128476Y-84562442D01*
X141652285Y-84657680D02*
X141080857Y-84657680D01*
X141366571Y-84657680D02*
X141366571Y-83657680D01*
X141271333Y-83800538D01*
X141176095Y-83895776D01*
X141080857Y-83943395D01*
X132326095Y-80287680D02*
X132326095Y-79287680D01*
X132897523Y-80287680D02*
X132468952Y-79716252D01*
X132897523Y-79287680D02*
X132326095Y-79859109D01*
X138589904Y-82187680D02*
X138589904Y-81187680D01*
X138828000Y-81187680D01*
X138970857Y-81235300D01*
X139066095Y-81330538D01*
X139113714Y-81425776D01*
X139161333Y-81616252D01*
X139161333Y-81759109D01*
X139113714Y-81949585D01*
X139066095Y-82044823D01*
X138970857Y-82140061D01*
X138828000Y-82187680D01*
X138589904Y-82187680D01*
X139494666Y-81187680D02*
X140113714Y-81187680D01*
X139780380Y-81568633D01*
X139923238Y-81568633D01*
X140018476Y-81616252D01*
X140066095Y-81663871D01*
X140113714Y-81759109D01*
X140113714Y-81997204D01*
X140066095Y-82092442D01*
X140018476Y-82140061D01*
X139923238Y-82187680D01*
X139637523Y-82187680D01*
X139542285Y-82140061D01*
X139494666Y-82092442D01*
X120031142Y-99188380D02*
X119459714Y-99188380D01*
X119745428Y-99188380D02*
X119745428Y-98188380D01*
X119650190Y-98331238D01*
X119554952Y-98426476D01*
X119459714Y-98474095D01*
X120459714Y-99188380D02*
X120459714Y-98188380D01*
X121031142Y-99188380D01*
X121031142Y-98188380D01*
X121935904Y-98521714D02*
X121935904Y-99188380D01*
X121697809Y-98140761D02*
X121459714Y-98855047D01*
X122078761Y-98855047D01*
X122983523Y-99188380D02*
X122412095Y-99188380D01*
X122697809Y-99188380D02*
X122697809Y-98188380D01*
X122602571Y-98331238D01*
X122507333Y-98426476D01*
X122412095Y-98474095D01*
X123888285Y-98188380D02*
X123412095Y-98188380D01*
X123364476Y-98664571D01*
X123412095Y-98616952D01*
X123507333Y-98569333D01*
X123745428Y-98569333D01*
X123840666Y-98616952D01*
X123888285Y-98664571D01*
X123935904Y-98759809D01*
X123935904Y-98997904D01*
X123888285Y-99093142D01*
X123840666Y-99140761D01*
X123745428Y-99188380D01*
X123507333Y-99188380D01*
X123412095Y-99140761D01*
X123364476Y-99093142D01*
X124888285Y-99188380D02*
X124316857Y-99188380D01*
X124602571Y-99188380D02*
X124602571Y-98188380D01*
X124507333Y-98331238D01*
X124412095Y-98426476D01*
X124316857Y-98474095D01*
X115562095Y-94818380D02*
X115562095Y-93818380D01*
X116133523Y-94818380D02*
X115704952Y-94246952D01*
X116133523Y-93818380D02*
X115562095Y-94389809D01*
X121825904Y-96718380D02*
X121825904Y-95718380D01*
X122064000Y-95718380D01*
X122206857Y-95766000D01*
X122302095Y-95861238D01*
X122349714Y-95956476D01*
X122397333Y-96146952D01*
X122397333Y-96289809D01*
X122349714Y-96480285D01*
X122302095Y-96575523D01*
X122206857Y-96670761D01*
X122064000Y-96718380D01*
X121825904Y-96718380D01*
X122778285Y-95813619D02*
X122825904Y-95766000D01*
X122921142Y-95718380D01*
X123159238Y-95718380D01*
X123254476Y-95766000D01*
X123302095Y-95813619D01*
X123349714Y-95908857D01*
X123349714Y-96004095D01*
X123302095Y-96146952D01*
X122730666Y-96718380D01*
X123349714Y-96718380D01*
X120031142Y-63065680D02*
X119459714Y-63065680D01*
X119745428Y-63065680D02*
X119745428Y-62065680D01*
X119650190Y-62208538D01*
X119554952Y-62303776D01*
X119459714Y-62351395D01*
X120459714Y-63065680D02*
X120459714Y-62065680D01*
X121031142Y-63065680D01*
X121031142Y-62065680D01*
X121935904Y-62399014D02*
X121935904Y-63065680D01*
X121697809Y-62018061D02*
X121459714Y-62732347D01*
X122078761Y-62732347D01*
X122983523Y-63065680D02*
X122412095Y-63065680D01*
X122697809Y-63065680D02*
X122697809Y-62065680D01*
X122602571Y-62208538D01*
X122507333Y-62303776D01*
X122412095Y-62351395D01*
X123888285Y-62065680D02*
X123412095Y-62065680D01*
X123364476Y-62541871D01*
X123412095Y-62494252D01*
X123507333Y-62446633D01*
X123745428Y-62446633D01*
X123840666Y-62494252D01*
X123888285Y-62541871D01*
X123935904Y-62637109D01*
X123935904Y-62875204D01*
X123888285Y-62970442D01*
X123840666Y-63018061D01*
X123745428Y-63065680D01*
X123507333Y-63065680D01*
X123412095Y-63018061D01*
X123364476Y-62970442D01*
X124888285Y-63065680D02*
X124316857Y-63065680D01*
X124602571Y-63065680D02*
X124602571Y-62065680D01*
X124507333Y-62208538D01*
X124412095Y-62303776D01*
X124316857Y-62351395D01*
X115562095Y-58695680D02*
X115562095Y-57695680D01*
X116133523Y-58695680D02*
X115704952Y-58124252D01*
X116133523Y-57695680D02*
X115562095Y-58267109D01*
X121825904Y-60595680D02*
X121825904Y-59595680D01*
X122064000Y-59595680D01*
X122206857Y-59643300D01*
X122302095Y-59738538D01*
X122349714Y-59833776D01*
X122397333Y-60024252D01*
X122397333Y-60167109D01*
X122349714Y-60357585D01*
X122302095Y-60452823D01*
X122206857Y-60548061D01*
X122064000Y-60595680D01*
X121825904Y-60595680D01*
X123349714Y-60595680D02*
X122778285Y-60595680D01*
X123064000Y-60595680D02*
X123064000Y-59595680D01*
X122968761Y-59738538D01*
X122873523Y-59833776D01*
X122778285Y-59881395D01*
X143461809Y-103492380D02*
X142890380Y-103492380D01*
X143176095Y-103492380D02*
X143176095Y-102492380D01*
X143080857Y-102635238D01*
X142985619Y-102730476D01*
X142890380Y-102778095D01*
X144080857Y-102492380D02*
X144176095Y-102492380D01*
X144271333Y-102540000D01*
X144318952Y-102587619D01*
X144366571Y-102682857D01*
X144414190Y-102873333D01*
X144414190Y-103111428D01*
X144366571Y-103301904D01*
X144318952Y-103397142D01*
X144271333Y-103444761D01*
X144176095Y-103492380D01*
X144080857Y-103492380D01*
X143985619Y-103444761D01*
X143938000Y-103397142D01*
X143890380Y-103301904D01*
X143842761Y-103111428D01*
X143842761Y-102873333D01*
X143890380Y-102682857D01*
X143938000Y-102587619D01*
X143985619Y-102540000D01*
X144080857Y-102492380D01*
X145271333Y-102825714D02*
X145271333Y-103492380D01*
X144842761Y-102825714D02*
X144842761Y-103349523D01*
X144890380Y-103444761D01*
X144985619Y-103492380D01*
X145128476Y-103492380D01*
X145223714Y-103444761D01*
X145271333Y-103397142D01*
X146080857Y-102968571D02*
X145747523Y-102968571D01*
X145747523Y-103492380D02*
X145747523Y-102492380D01*
X146223714Y-102492380D01*
X147318952Y-102444761D02*
X146461809Y-103730476D01*
X148176095Y-103492380D02*
X147604666Y-103492380D01*
X147890380Y-103492380D02*
X147890380Y-102492380D01*
X147795142Y-102635238D01*
X147699904Y-102730476D01*
X147604666Y-102778095D01*
X149033238Y-102492380D02*
X148842761Y-102492380D01*
X148747523Y-102540000D01*
X148699904Y-102587619D01*
X148604666Y-102730476D01*
X148557047Y-102920952D01*
X148557047Y-103301904D01*
X148604666Y-103397142D01*
X148652285Y-103444761D01*
X148747523Y-103492380D01*
X148938000Y-103492380D01*
X149033238Y-103444761D01*
X149080857Y-103397142D01*
X149128476Y-103301904D01*
X149128476Y-103063809D01*
X149080857Y-102968571D01*
X149033238Y-102920952D01*
X148938000Y-102873333D01*
X148747523Y-102873333D01*
X148652285Y-102920952D01*
X148604666Y-102968571D01*
X148557047Y-103063809D01*
X149414190Y-102492380D02*
X149747523Y-103492380D01*
X150080857Y-102492380D01*
X146271333Y-98147142D02*
X146223714Y-98194761D01*
X146080857Y-98242380D01*
X145985619Y-98242380D01*
X145842761Y-98194761D01*
X145747523Y-98099523D01*
X145699904Y-98004285D01*
X145652285Y-97813809D01*
X145652285Y-97670952D01*
X145699904Y-97480476D01*
X145747523Y-97385238D01*
X145842761Y-97290000D01*
X145985619Y-97242380D01*
X146080857Y-97242380D01*
X146223714Y-97290000D01*
X146271333Y-97337619D01*
X147223714Y-98242380D02*
X146652285Y-98242380D01*
X146938000Y-98242380D02*
X146938000Y-97242380D01*
X146842761Y-97385238D01*
X146747523Y-97480476D01*
X146652285Y-97528095D01*
M02*
