%TF.GenerationSoftware,KiCad,Pcbnew,5.1.4-3.fc30*%
%TF.CreationDate,2019-10-13T14:02:28+02:00*%
%TF.ProjectId,dasa,64617361-2e6b-4696-9361-645f70636258,rev?*%
%TF.SameCoordinates,PX67eb070PY719b7f0*%
%TF.FileFunction,Legend,Bot*%
%TF.FilePolarity,Positive*%
%FSLAX46Y46*%
G04 Gerber Fmt 4.6, Leading zero omitted, Abs format (unit mm)*
G04 Created by KiCad (PCBNEW 5.1.4-3.fc30) date 2019-10-13 14:02:28*
%MOMM*%
%LPD*%
G04 APERTURE LIST*
%ADD10C,1.702000*%
%ADD11O,3.602000X2.102000*%
%ADD12O,2.102000X3.402000*%
%ADD13R,2.102000X4.102000*%
%ADD14O,1.702000X1.702000*%
%ADD15O,1.829200X1.829200*%
%ADD16R,1.829200X1.829200*%
%ADD17R,1.702000X1.702000*%
%ADD18O,1.902000X1.902000*%
%ADD19R,1.902000X1.902000*%
G04 APERTURE END LIST*
%LPC*%
D10*
%TO.C,J3*%
X3344000Y10946000D03*
D11*
X5344000Y6446000D03*
X5344000Y15446000D03*
D12*
X6344000Y10946000D03*
D13*
X12344000Y10946000D03*
%TD*%
D14*
%TO.C,R4*%
X42672000Y34496000D03*
D10*
X42672000Y44656000D03*
%TD*%
D14*
%TO.C,R3*%
X16918000Y71628000D03*
D10*
X6758000Y71628000D03*
%TD*%
D14*
%TO.C,R2*%
X16918000Y65355300D03*
D10*
X6758000Y65355300D03*
%TD*%
D14*
%TO.C,R1*%
X16918000Y52610000D03*
D10*
X6758000Y52610000D03*
%TD*%
D15*
%TO.C,J2*%
X38354000Y11176000D03*
X38354000Y8636000D03*
X35814000Y11176000D03*
X35814000Y8636000D03*
X33274000Y11176000D03*
X33274000Y8636000D03*
X30734000Y11176000D03*
X30734000Y8636000D03*
X28194000Y11176000D03*
D16*
X28194000Y8636000D03*
%TD*%
D10*
%TO.C,J1*%
X35560000Y68115000D03*
X35560000Y65345000D03*
X35560000Y62575000D03*
X35560000Y59805000D03*
X33020000Y69500000D03*
X33020000Y66730000D03*
X33020000Y63960000D03*
X33020000Y61190000D03*
D17*
X33020000Y58420000D03*
%TD*%
D18*
%TO.C,D8*%
X19558000Y30125300D03*
D19*
X6858000Y30125300D03*
%TD*%
D18*
%TO.C,D7*%
X36322000Y30125300D03*
D19*
X23622000Y30125300D03*
%TD*%
D18*
%TO.C,D6*%
X19558000Y44656000D03*
D19*
X6858000Y44656000D03*
%TD*%
D18*
%TO.C,D5*%
X36322000Y44656000D03*
D19*
X23622000Y44656000D03*
%TD*%
D18*
%TO.C,D4*%
X19558000Y37390700D03*
D19*
X6858000Y37390700D03*
%TD*%
D18*
%TO.C,D3*%
X36322000Y37390700D03*
D19*
X23622000Y37390700D03*
%TD*%
D18*
%TO.C,D2*%
X19558000Y22860000D03*
D19*
X6858000Y22860000D03*
%TD*%
D18*
%TO.C,D1*%
X19558000Y58982700D03*
D19*
X6858000Y58982700D03*
%TD*%
D10*
%TO.C,C1*%
X38722000Y21336000D03*
D17*
X36222000Y21336000D03*
%TD*%
M02*
