G04 #@! TF.GenerationSoftware,KiCad,Pcbnew,5.1.4-3.fc30*
G04 #@! TF.CreationDate,2019-09-19T16:23:22+02:00*
G04 #@! TF.ProjectId,dasa,64617361-2e6b-4696-9361-645f70636258,rev?*
G04 #@! TF.SameCoordinates,Original*
G04 #@! TF.FileFunction,Copper,L1,Top*
G04 #@! TF.FilePolarity,Positive*
%FSLAX46Y46*%
G04 Gerber Fmt 4.6, Leading zero omitted, Abs format (unit mm)*
G04 Created by KiCad (PCBNEW 5.1.4-3.fc30) date 2019-09-19 16:23:22*
%MOMM*%
%LPD*%
G04 APERTURE LIST*
%ADD10O,3.500000X2.000000*%
%ADD11O,2.000000X3.300000*%
%ADD12R,2.000000X4.000000*%
%ADD13O,1.600000X1.600000*%
%ADD14C,1.600000*%
%ADD15O,1.727200X1.727200*%
%ADD16R,1.727200X1.727200*%
%ADD17R,1.600000X1.600000*%
%ADD18O,1.800000X1.800000*%
%ADD19R,1.800000X1.800000*%
%ADD20C,0.800000*%
%ADD21C,0.800000*%
G04 APERTURE END LIST*
D10*
X114310000Y-112680000D03*
X114310000Y-103680000D03*
D11*
X115310000Y-108180000D03*
D12*
X121310000Y-108180000D03*
D13*
X151638000Y-84630000D03*
D14*
X151638000Y-74470000D03*
D13*
X125884000Y-47498000D03*
D14*
X115724000Y-47498000D03*
D13*
X125884000Y-53770700D03*
D14*
X115724000Y-53770700D03*
D13*
X125884000Y-66516000D03*
D14*
X115724000Y-66516000D03*
D15*
X147320000Y-107950000D03*
X147320000Y-110490000D03*
X144780000Y-107950000D03*
X144780000Y-110490000D03*
X142240000Y-107950000D03*
X142240000Y-110490000D03*
X139700000Y-107950000D03*
X139700000Y-110490000D03*
X137160000Y-107950000D03*
D16*
X137160000Y-110490000D03*
D14*
X144526000Y-51011000D03*
X144526000Y-53781000D03*
X144526000Y-56551000D03*
X144526000Y-59321000D03*
X141986000Y-49626000D03*
X141986000Y-52396000D03*
X141986000Y-55166000D03*
X141986000Y-57936000D03*
D17*
X141986000Y-60706000D03*
D18*
X128524000Y-89000700D03*
D19*
X115824000Y-89000700D03*
D18*
X145288000Y-89000700D03*
D19*
X132588000Y-89000700D03*
D18*
X128524000Y-74470000D03*
D19*
X115824000Y-74470000D03*
D18*
X145288000Y-74470000D03*
D19*
X132588000Y-74470000D03*
D18*
X128524000Y-81735300D03*
D19*
X115824000Y-81735300D03*
D18*
X145288000Y-81735300D03*
D19*
X132588000Y-81735300D03*
D18*
X128524000Y-96266000D03*
D19*
X115824000Y-96266000D03*
D18*
X128524000Y-60143300D03*
D19*
X115824000Y-60143300D03*
D14*
X147688000Y-97790000D03*
D17*
X145188000Y-97790000D03*
D20*
X140577700Y-71881500D03*
X137489300Y-63140000D03*
D21*
X147688000Y-97790000D02*
X151638000Y-93840000D01*
X151638000Y-93840000D02*
X151638000Y-84630000D01*
X115824000Y-81735300D02*
X115824000Y-89000700D01*
X115824000Y-74470000D02*
X115824000Y-81735300D01*
X145288000Y-81735300D02*
X145288000Y-89000700D01*
X145288000Y-74470000D02*
X145288000Y-81735300D01*
X145288000Y-89000700D02*
X145288000Y-90501000D01*
X145188000Y-97790000D02*
X145188000Y-90601000D01*
X145188000Y-90601000D02*
X145288000Y-90501000D01*
X115824000Y-60143300D02*
X115824000Y-61643600D01*
X128524000Y-96266000D02*
X128524000Y-94765700D01*
X128524000Y-94765700D02*
X117324300Y-83566000D01*
X117324300Y-83566000D02*
X117324300Y-63143900D01*
X117324300Y-63143900D02*
X115824000Y-61643600D01*
X115824000Y-60143300D02*
X115824000Y-58643000D01*
X115824000Y-58643000D02*
X115724000Y-58543000D01*
X115724000Y-58543000D02*
X115724000Y-53770700D01*
X144526000Y-59321000D02*
X144526000Y-67933200D01*
X144526000Y-67933200D02*
X140577700Y-71881500D01*
X132588000Y-74470000D02*
X128524000Y-74470000D01*
X137160000Y-107950000D02*
X135696100Y-107950000D01*
X132588000Y-105579700D02*
X121310000Y-105579700D01*
X135696100Y-107950000D02*
X133325800Y-105579700D01*
X133325800Y-105579700D02*
X132588000Y-105579700D01*
X132588000Y-90501000D02*
X132588000Y-105579700D01*
X121310000Y-108180000D02*
X121310000Y-105579700D01*
X132588000Y-89000700D02*
X132588000Y-90501000D01*
X115310000Y-108180000D02*
X115310000Y-105929700D01*
X130024300Y-89000700D02*
X130024300Y-96916900D01*
X130024300Y-96916900D02*
X126247500Y-100693700D01*
X126247500Y-100693700D02*
X120546000Y-100693700D01*
X120546000Y-100693700D02*
X115310000Y-105929700D01*
X133763000Y-87500300D02*
X131430900Y-87500300D01*
X131430900Y-87500300D02*
X130024300Y-88906900D01*
X130024300Y-88906900D02*
X130024300Y-89000700D01*
X133763000Y-87500300D02*
X139700000Y-93437300D01*
X139700000Y-93437300D02*
X139700000Y-107950000D01*
X141986000Y-49626000D02*
X139577300Y-52034700D01*
X139577300Y-52034700D02*
X139577300Y-81686000D01*
X139577300Y-81686000D02*
X133763000Y-87500300D01*
X128524000Y-89000700D02*
X130024300Y-89000700D01*
X144526000Y-53781000D02*
X153079100Y-62334100D01*
X153079100Y-62334100D02*
X153079100Y-104730900D01*
X153079100Y-104730900D02*
X147320000Y-110490000D01*
X125884000Y-66516000D02*
X127284300Y-66516000D01*
X137489300Y-63140000D02*
X130660300Y-63140000D01*
X130660300Y-63140000D02*
X127284300Y-66516000D01*
M02*
