%TF.GenerationSoftware,KiCad,Pcbnew,5.1.4-3.fc30*%
%TF.CreationDate,2019-10-13T14:02:28+02:00*%
%TF.ProjectId,dasa,64617361-2e6b-4696-9361-645f70636258,rev?*%
%TF.SameCoordinates,PX67eb070PY719b7f0*%
%TF.FileFunction,Other,User*%
%FSLAX46Y46*%
G04 Gerber Fmt 4.6, Leading zero omitted, Abs format (unit mm)*
G04 Created by KiCad (PCBNEW 5.1.4-3.fc30) date 2019-10-13 14:02:28*
%MOMM*%
%LPD*%
G04 APERTURE LIST*
%ADD10C,0.050000*%
G04 APERTURE END LIST*
D10*
%TO.C,J3*%
X13844000Y4946000D02*
X13844000Y16946000D01*
X-156000Y4946000D02*
X13844000Y4946000D01*
X-156000Y16946000D02*
X-156000Y4946000D01*
X13844000Y16946000D02*
X-156000Y16946000D01*
%TO.C,R4*%
X44172000Y33446000D02*
X44172000Y45706000D01*
X41172000Y33446000D02*
X44172000Y33446000D01*
X41172000Y45706000D02*
X41172000Y33446000D01*
X44172000Y45706000D02*
X41172000Y45706000D01*
%TO.C,R3*%
X17968000Y73128000D02*
X5708000Y73128000D01*
X17968000Y70128000D02*
X17968000Y73128000D01*
X5708000Y70128000D02*
X17968000Y70128000D01*
X5708000Y73128000D02*
X5708000Y70128000D01*
%TO.C,R2*%
X17968000Y66855300D02*
X5708000Y66855300D01*
X17968000Y63855300D02*
X17968000Y66855300D01*
X5708000Y63855300D02*
X17968000Y63855300D01*
X5708000Y66855300D02*
X5708000Y63855300D01*
%TO.C,R1*%
X17968000Y54110000D02*
X5708000Y54110000D01*
X17968000Y51110000D02*
X17968000Y54110000D01*
X5708000Y51110000D02*
X17968000Y51110000D01*
X5708000Y54110000D02*
X5708000Y51110000D01*
%TO.C,J2*%
X22844000Y5226000D02*
X22844000Y14586000D01*
X43704000Y5226000D02*
X22844000Y5226000D01*
X43704000Y14586000D02*
X43704000Y5226000D01*
X22844000Y14586000D02*
X43704000Y14586000D01*
%TO.C,J1*%
X51870000Y72620000D02*
X51870000Y55270000D01*
X45870000Y72620000D02*
X51870000Y72620000D01*
X45870000Y79920000D02*
X45870000Y72620000D01*
X44470000Y79920000D02*
X45870000Y79920000D01*
X44470000Y73020000D02*
X44470000Y79920000D01*
X40370000Y73020000D02*
X44470000Y73020000D01*
X40370000Y70820000D02*
X40370000Y73020000D01*
X31670000Y70820000D02*
X40370000Y70820000D01*
X31670000Y57120000D02*
X31670000Y70820000D01*
X40370000Y57120000D02*
X31670000Y57120000D01*
X40370000Y54870000D02*
X40370000Y57120000D01*
X44470000Y54870000D02*
X40370000Y54870000D01*
X44470000Y48020000D02*
X44470000Y54870000D01*
X45870000Y48020000D02*
X44470000Y48020000D01*
X45870000Y55270000D02*
X45870000Y48020000D01*
X51870000Y55270000D02*
X45870000Y55270000D01*
%TO.C,D8*%
X20708000Y31725300D02*
X5708000Y31725300D01*
X20708000Y28525300D02*
X20708000Y31725300D01*
X5708000Y28525300D02*
X20708000Y28525300D01*
X5708000Y31725300D02*
X5708000Y28525300D01*
%TO.C,D7*%
X37472000Y31725300D02*
X22472000Y31725300D01*
X37472000Y28525300D02*
X37472000Y31725300D01*
X22472000Y28525300D02*
X37472000Y28525300D01*
X22472000Y31725300D02*
X22472000Y28525300D01*
%TO.C,D6*%
X20708000Y46256000D02*
X5708000Y46256000D01*
X20708000Y43056000D02*
X20708000Y46256000D01*
X5708000Y43056000D02*
X20708000Y43056000D01*
X5708000Y46256000D02*
X5708000Y43056000D01*
%TO.C,D5*%
X37472000Y46256000D02*
X22472000Y46256000D01*
X37472000Y43056000D02*
X37472000Y46256000D01*
X22472000Y43056000D02*
X37472000Y43056000D01*
X22472000Y46256000D02*
X22472000Y43056000D01*
%TO.C,D4*%
X20708000Y38990700D02*
X5708000Y38990700D01*
X20708000Y35790700D02*
X20708000Y38990700D01*
X5708000Y35790700D02*
X20708000Y35790700D01*
X5708000Y38990700D02*
X5708000Y35790700D01*
%TO.C,D3*%
X37472000Y38990700D02*
X22472000Y38990700D01*
X37472000Y35790700D02*
X37472000Y38990700D01*
X22472000Y35790700D02*
X37472000Y35790700D01*
X22472000Y38990700D02*
X22472000Y35790700D01*
%TO.C,D2*%
X20708000Y24460000D02*
X5708000Y24460000D01*
X20708000Y21260000D02*
X20708000Y24460000D01*
X5708000Y21260000D02*
X20708000Y21260000D01*
X5708000Y24460000D02*
X5708000Y21260000D01*
%TO.C,D1*%
X20708000Y60582700D02*
X5708000Y60582700D01*
X20708000Y57382700D02*
X20708000Y60582700D01*
X5708000Y57382700D02*
X20708000Y57382700D01*
X5708000Y60582700D02*
X5708000Y57382700D01*
%TO.C,C1*%
X41722000Y21336000D02*
G75*
G03X41722000Y21336000I-4250000J0D01*
G01*
%TD*%
M02*
