%TF.GenerationSoftware,KiCad,Pcbnew,5.1.4-3.fc30*%
%TF.CreationDate,2019-10-13T14:02:28+02:00*%
%TF.ProjectId,dasa,64617361-2e6b-4696-9361-645f70636258,rev?*%
%TF.SameCoordinates,PX67eb070PY719b7f0*%
%TF.FileFunction,Legend,Top*%
%TF.FilePolarity,Positive*%
%FSLAX46Y46*%
G04 Gerber Fmt 4.6, Leading zero omitted, Abs format (unit mm)*
G04 Created by KiCad (PCBNEW 5.1.4-3.fc30) date 2019-10-13 14:02:28*
%MOMM*%
%LPD*%
G04 APERTURE LIST*
%ADD10C,0.150000*%
%ADD11C,0.120000*%
%ADD12C,1.702000*%
%ADD13O,3.602000X2.102000*%
%ADD14O,2.102000X3.402000*%
%ADD15R,2.102000X4.102000*%
%ADD16O,1.702000X1.702000*%
%ADD17O,1.829200X1.829200*%
%ADD18R,1.829200X1.829200*%
%ADD19R,1.702000X1.702000*%
%ADD20O,1.902000X1.902000*%
%ADD21R,1.902000X1.902000*%
G04 APERTURE END LIST*
D10*
X7613047Y78096620D02*
X7613047Y78620429D01*
X7565428Y78715667D01*
X7470190Y78763286D01*
X7279714Y78763286D01*
X7184476Y78715667D01*
X7613047Y78144239D02*
X7517809Y78096620D01*
X7279714Y78096620D01*
X7184476Y78144239D01*
X7136857Y78239477D01*
X7136857Y78334715D01*
X7184476Y78429953D01*
X7279714Y78477572D01*
X7517809Y78477572D01*
X7613047Y78525191D01*
X7994000Y78763286D02*
X8232095Y78096620D01*
X8470190Y78763286D01*
X8851142Y78096620D02*
X8851142Y78763286D01*
X8851142Y78572810D02*
X8898761Y78668048D01*
X8946380Y78715667D01*
X9041619Y78763286D01*
X9136857Y78763286D01*
X10184476Y79096620D02*
X10184476Y78906143D01*
X10565428Y79096620D02*
X10565428Y78906143D01*
X11422571Y78096620D02*
X11422571Y79096620D01*
X11422571Y78144239D02*
X11327333Y78096620D01*
X11136857Y78096620D01*
X11041619Y78144239D01*
X10994000Y78191858D01*
X10946380Y78287096D01*
X10946380Y78572810D01*
X10994000Y78668048D01*
X11041619Y78715667D01*
X11136857Y78763286D01*
X11327333Y78763286D01*
X11422571Y78715667D01*
X12327333Y78096620D02*
X12327333Y78620429D01*
X12279714Y78715667D01*
X12184476Y78763286D01*
X11994000Y78763286D01*
X11898761Y78715667D01*
X12327333Y78144239D02*
X12232095Y78096620D01*
X11994000Y78096620D01*
X11898761Y78144239D01*
X11851142Y78239477D01*
X11851142Y78334715D01*
X11898761Y78429953D01*
X11994000Y78477572D01*
X12232095Y78477572D01*
X12327333Y78525191D01*
X12755904Y78144239D02*
X12851142Y78096620D01*
X13041619Y78096620D01*
X13136857Y78144239D01*
X13184476Y78239477D01*
X13184476Y78287096D01*
X13136857Y78382334D01*
X13041619Y78429953D01*
X12898761Y78429953D01*
X12803523Y78477572D01*
X12755904Y78572810D01*
X12755904Y78620429D01*
X12803523Y78715667D01*
X12898761Y78763286D01*
X13041619Y78763286D01*
X13136857Y78715667D01*
X14041619Y78096620D02*
X14041619Y78620429D01*
X13994000Y78715667D01*
X13898761Y78763286D01*
X13708285Y78763286D01*
X13613047Y78715667D01*
X14041619Y78144239D02*
X13946380Y78096620D01*
X13708285Y78096620D01*
X13613047Y78144239D01*
X13565428Y78239477D01*
X13565428Y78334715D01*
X13613047Y78429953D01*
X13708285Y78477572D01*
X13946380Y78477572D01*
X14041619Y78525191D01*
X14470190Y79096620D02*
X14470190Y78906143D01*
X14851142Y79096620D02*
X14851142Y78906143D01*
X16041619Y78096620D02*
X16041619Y79096620D01*
X16041619Y78715667D02*
X16136857Y78763286D01*
X16327333Y78763286D01*
X16422571Y78715667D01*
X16470190Y78668048D01*
X16517809Y78572810D01*
X16517809Y78287096D01*
X16470190Y78191858D01*
X16422571Y78144239D01*
X16327333Y78096620D01*
X16136857Y78096620D01*
X16041619Y78144239D01*
X16851142Y78763286D02*
X17089238Y78096620D01*
X17327333Y78763286D02*
X17089238Y78096620D01*
X16994000Y77858524D01*
X16946380Y77810905D01*
X16851142Y77763286D01*
X18422571Y78144239D02*
X18565428Y78096620D01*
X18803523Y78096620D01*
X18898761Y78144239D01*
X18946380Y78191858D01*
X18994000Y78287096D01*
X18994000Y78382334D01*
X18946380Y78477572D01*
X18898761Y78525191D01*
X18803523Y78572810D01*
X18613047Y78620429D01*
X18517809Y78668048D01*
X18470190Y78715667D01*
X18422571Y78810905D01*
X18422571Y78906143D01*
X18470190Y79001381D01*
X18517809Y79049000D01*
X18613047Y79096620D01*
X18851142Y79096620D01*
X18994000Y79049000D01*
X20089238Y78001381D02*
X19994000Y78049000D01*
X19898761Y78144239D01*
X19755904Y78287096D01*
X19660666Y78334715D01*
X19565428Y78334715D01*
X19613047Y78096620D02*
X19517809Y78144239D01*
X19422571Y78239477D01*
X19374952Y78429953D01*
X19374952Y78763286D01*
X19422571Y78953762D01*
X19517809Y79049000D01*
X19613047Y79096620D01*
X19803523Y79096620D01*
X19898761Y79049000D01*
X19994000Y78953762D01*
X20041619Y78763286D01*
X20041619Y78429953D01*
X19994000Y78239477D01*
X19898761Y78144239D01*
X19803523Y78096620D01*
X19613047Y78096620D01*
X20374952Y79096620D02*
X21041619Y79096620D01*
X20613047Y78096620D01*
X21422571Y78620429D02*
X21755904Y78620429D01*
X21898761Y78096620D02*
X21422571Y78096620D01*
X21422571Y79096620D01*
X21898761Y79096620D01*
X22994000Y78001381D02*
X22898761Y78049000D01*
X22803523Y78144239D01*
X22660666Y78287096D01*
X22565428Y78334715D01*
X22470190Y78334715D01*
X22517809Y78096620D02*
X22422571Y78144239D01*
X22327333Y78239477D01*
X22279714Y78429953D01*
X22279714Y78763286D01*
X22327333Y78953762D01*
X22422571Y79049000D01*
X22517809Y79096620D01*
X22708285Y79096620D01*
X22803523Y79049000D01*
X22898761Y78953762D01*
X22946380Y78763286D01*
X22946380Y78429953D01*
X22898761Y78239477D01*
X22803523Y78144239D01*
X22708285Y78096620D01*
X22517809Y78096620D01*
X23374952Y78620429D02*
X23708285Y78620429D01*
X23851142Y78096620D02*
X23374952Y78096620D01*
X23374952Y79096620D01*
X23851142Y79096620D01*
X9541619Y77399000D02*
X9446380Y77446620D01*
X9303523Y77446620D01*
X9160666Y77399000D01*
X9065428Y77303762D01*
X9017809Y77208524D01*
X8970190Y77018048D01*
X8970190Y76875191D01*
X9017809Y76684715D01*
X9065428Y76589477D01*
X9160666Y76494239D01*
X9303523Y76446620D01*
X9398761Y76446620D01*
X9541619Y76494239D01*
X9589238Y76541858D01*
X9589238Y76875191D01*
X9398761Y76875191D01*
X10017809Y76446620D02*
X10017809Y77446620D01*
X10589238Y76446620D01*
X10589238Y77446620D01*
X11065428Y77446620D02*
X11065428Y76637096D01*
X11113047Y76541858D01*
X11160666Y76494239D01*
X11255904Y76446620D01*
X11446380Y76446620D01*
X11541619Y76494239D01*
X11589238Y76541858D01*
X11636857Y76637096D01*
X11636857Y77446620D01*
X13398761Y77399000D02*
X13303523Y77446620D01*
X13160666Y77446620D01*
X13017809Y77399000D01*
X12922571Y77303762D01*
X12874952Y77208524D01*
X12827333Y77018048D01*
X12827333Y76875191D01*
X12874952Y76684715D01*
X12922571Y76589477D01*
X13017809Y76494239D01*
X13160666Y76446620D01*
X13255904Y76446620D01*
X13398761Y76494239D01*
X13446380Y76541858D01*
X13446380Y76875191D01*
X13255904Y76875191D01*
X13874952Y76446620D02*
X13874952Y77446620D01*
X14255904Y77446620D01*
X14351142Y77399000D01*
X14398761Y77351381D01*
X14446380Y77256143D01*
X14446380Y77113286D01*
X14398761Y77018048D01*
X14351142Y76970429D01*
X14255904Y76922810D01*
X13874952Y76922810D01*
X15351142Y76446620D02*
X14874952Y76446620D01*
X14874952Y77446620D01*
X15589238Y77113286D02*
X15827333Y76446620D01*
X16065428Y77113286D01*
X16351142Y77446620D02*
X16970190Y77446620D01*
X16636857Y77065667D01*
X16779714Y77065667D01*
X16874952Y77018048D01*
X16922571Y76970429D01*
X16970190Y76875191D01*
X16970190Y76637096D01*
X16922571Y76541858D01*
X16874952Y76494239D01*
X16779714Y76446620D01*
X16494000Y76446620D01*
X16398761Y76494239D01*
X16351142Y76541858D01*
X17446380Y76494239D02*
X17446380Y76446620D01*
X17398761Y76351381D01*
X17351142Y76303762D01*
X18589238Y77351381D02*
X18636857Y77399000D01*
X18732095Y77446620D01*
X18970190Y77446620D01*
X19065428Y77399000D01*
X19113047Y77351381D01*
X19160666Y77256143D01*
X19160666Y77160905D01*
X19113047Y77018048D01*
X18541619Y76446620D01*
X19160666Y76446620D01*
X19779714Y77446620D02*
X19874952Y77446620D01*
X19970190Y77399000D01*
X20017809Y77351381D01*
X20065428Y77256143D01*
X20113047Y77065667D01*
X20113047Y76827572D01*
X20065428Y76637096D01*
X20017809Y76541858D01*
X19970190Y76494239D01*
X19874952Y76446620D01*
X19779714Y76446620D01*
X19684476Y76494239D01*
X19636857Y76541858D01*
X19589238Y76637096D01*
X19541619Y76827572D01*
X19541619Y77065667D01*
X19589238Y77256143D01*
X19636857Y77351381D01*
X19684476Y77399000D01*
X19779714Y77446620D01*
X21065428Y76446620D02*
X20494000Y76446620D01*
X20779714Y76446620D02*
X20779714Y77446620D01*
X20684476Y77303762D01*
X20589238Y77208524D01*
X20494000Y77160905D01*
X21541619Y76446620D02*
X21732095Y76446620D01*
X21827333Y76494239D01*
X21874952Y76541858D01*
X21970190Y76684715D01*
X22017809Y76875191D01*
X22017809Y77256143D01*
X21970190Y77351381D01*
X21922571Y77399000D01*
X21827333Y77446620D01*
X21636857Y77446620D01*
X21541619Y77399000D01*
X21494000Y77351381D01*
X21446380Y77256143D01*
X21446380Y77018048D01*
X21494000Y76922810D01*
X21541619Y76875191D01*
X21636857Y76827572D01*
X21827333Y76827572D01*
X21922571Y76875191D01*
X21970190Y76922810D01*
X22017809Y77018048D01*
D11*
%TO.C,J3*%
X13644000Y11946000D02*
X13644000Y9946000D01*
X234000Y16056000D02*
X3294000Y16056000D01*
X234000Y5836000D02*
X234000Y16056000D01*
X3294000Y5836000D02*
X234000Y5836000D01*
X13454000Y5836000D02*
X7394000Y5836000D01*
X13454000Y8646000D02*
X13454000Y5836000D01*
X13454000Y16056000D02*
X13454000Y13246000D01*
X7394000Y16056000D02*
X13454000Y16056000D01*
%TO.C,R4*%
X42672000Y35536000D02*
X42672000Y36306000D01*
X42672000Y43616000D02*
X42672000Y42846000D01*
X44042000Y36306000D02*
X44042000Y42846000D01*
X41302000Y36306000D02*
X44042000Y36306000D01*
X41302000Y42846000D02*
X41302000Y36306000D01*
X44042000Y42846000D02*
X41302000Y42846000D01*
%TO.C,R3*%
X15878000Y71628000D02*
X15108000Y71628000D01*
X7798000Y71628000D02*
X8568000Y71628000D01*
X15108000Y72998000D02*
X8568000Y72998000D01*
X15108000Y70258000D02*
X15108000Y72998000D01*
X8568000Y70258000D02*
X15108000Y70258000D01*
X8568000Y72998000D02*
X8568000Y70258000D01*
%TO.C,R2*%
X15878000Y65355300D02*
X15108000Y65355300D01*
X7798000Y65355300D02*
X8568000Y65355300D01*
X15108000Y66725300D02*
X8568000Y66725300D01*
X15108000Y63985300D02*
X15108000Y66725300D01*
X8568000Y63985300D02*
X15108000Y63985300D01*
X8568000Y66725300D02*
X8568000Y63985300D01*
%TO.C,R1*%
X15878000Y52610000D02*
X15108000Y52610000D01*
X7798000Y52610000D02*
X8568000Y52610000D01*
X15108000Y53980000D02*
X8568000Y53980000D01*
X15108000Y51240000D02*
X15108000Y53980000D01*
X8568000Y51240000D02*
X15108000Y51240000D01*
X8568000Y53980000D02*
X8568000Y51240000D01*
%TO.C,J2*%
X22594000Y4981000D02*
X22594000Y7521000D01*
X22594000Y4981000D02*
X25134000Y4981000D01*
X22844000Y5231000D02*
X22844000Y14581000D01*
X43704000Y5231000D02*
X22844000Y5231000D01*
X43704000Y14581000D02*
X43704000Y5231000D01*
X22844000Y14581000D02*
X43704000Y14581000D01*
%TO.C,J1*%
X31698675Y58420000D02*
X31265662Y58170000D01*
X31265662Y58670000D02*
X31698675Y58420000D01*
X31265662Y58170000D02*
X31265662Y58670000D01*
X40800000Y72570000D02*
X44900000Y72570000D01*
X40800000Y70560000D02*
X40800000Y72570000D01*
X31960000Y70560000D02*
X40800000Y70560000D01*
X31960000Y57360000D02*
X31960000Y70560000D01*
X40800000Y57360000D02*
X31960000Y57360000D01*
X40800000Y55350000D02*
X40800000Y57360000D01*
X44900000Y55350000D02*
X40800000Y55350000D01*
%TO.C,D8*%
X11268000Y31595300D02*
X11268000Y28655300D01*
X11508000Y31595300D02*
X11508000Y28655300D01*
X11388000Y31595300D02*
X11388000Y28655300D01*
X18418000Y30125300D02*
X15928000Y30125300D01*
X7998000Y30125300D02*
X10488000Y30125300D01*
X15928000Y31595300D02*
X10488000Y31595300D01*
X15928000Y28655300D02*
X15928000Y31595300D01*
X10488000Y28655300D02*
X15928000Y28655300D01*
X10488000Y31595300D02*
X10488000Y28655300D01*
%TO.C,D7*%
X28032000Y31595300D02*
X28032000Y28655300D01*
X28272000Y31595300D02*
X28272000Y28655300D01*
X28152000Y31595300D02*
X28152000Y28655300D01*
X35182000Y30125300D02*
X32692000Y30125300D01*
X24762000Y30125300D02*
X27252000Y30125300D01*
X32692000Y31595300D02*
X27252000Y31595300D01*
X32692000Y28655300D02*
X32692000Y31595300D01*
X27252000Y28655300D02*
X32692000Y28655300D01*
X27252000Y31595300D02*
X27252000Y28655300D01*
%TO.C,D6*%
X11268000Y46126000D02*
X11268000Y43186000D01*
X11508000Y46126000D02*
X11508000Y43186000D01*
X11388000Y46126000D02*
X11388000Y43186000D01*
X18418000Y44656000D02*
X15928000Y44656000D01*
X7998000Y44656000D02*
X10488000Y44656000D01*
X15928000Y46126000D02*
X10488000Y46126000D01*
X15928000Y43186000D02*
X15928000Y46126000D01*
X10488000Y43186000D02*
X15928000Y43186000D01*
X10488000Y46126000D02*
X10488000Y43186000D01*
%TO.C,D5*%
X28032000Y46126000D02*
X28032000Y43186000D01*
X28272000Y46126000D02*
X28272000Y43186000D01*
X28152000Y46126000D02*
X28152000Y43186000D01*
X35182000Y44656000D02*
X32692000Y44656000D01*
X24762000Y44656000D02*
X27252000Y44656000D01*
X32692000Y46126000D02*
X27252000Y46126000D01*
X32692000Y43186000D02*
X32692000Y46126000D01*
X27252000Y43186000D02*
X32692000Y43186000D01*
X27252000Y46126000D02*
X27252000Y43186000D01*
%TO.C,D4*%
X11268000Y38860700D02*
X11268000Y35920700D01*
X11508000Y38860700D02*
X11508000Y35920700D01*
X11388000Y38860700D02*
X11388000Y35920700D01*
X18418000Y37390700D02*
X15928000Y37390700D01*
X7998000Y37390700D02*
X10488000Y37390700D01*
X15928000Y38860700D02*
X10488000Y38860700D01*
X15928000Y35920700D02*
X15928000Y38860700D01*
X10488000Y35920700D02*
X15928000Y35920700D01*
X10488000Y38860700D02*
X10488000Y35920700D01*
%TO.C,D3*%
X28032000Y38860700D02*
X28032000Y35920700D01*
X28272000Y38860700D02*
X28272000Y35920700D01*
X28152000Y38860700D02*
X28152000Y35920700D01*
X35182000Y37390700D02*
X32692000Y37390700D01*
X24762000Y37390700D02*
X27252000Y37390700D01*
X32692000Y38860700D02*
X27252000Y38860700D01*
X32692000Y35920700D02*
X32692000Y38860700D01*
X27252000Y35920700D02*
X32692000Y35920700D01*
X27252000Y38860700D02*
X27252000Y35920700D01*
%TO.C,D2*%
X11268000Y24330000D02*
X11268000Y21390000D01*
X11508000Y24330000D02*
X11508000Y21390000D01*
X11388000Y24330000D02*
X11388000Y21390000D01*
X18418000Y22860000D02*
X15928000Y22860000D01*
X7998000Y22860000D02*
X10488000Y22860000D01*
X15928000Y24330000D02*
X10488000Y24330000D01*
X15928000Y21390000D02*
X15928000Y24330000D01*
X10488000Y21390000D02*
X15928000Y21390000D01*
X10488000Y24330000D02*
X10488000Y21390000D01*
%TO.C,D1*%
X11268000Y60452700D02*
X11268000Y57512700D01*
X11508000Y60452700D02*
X11508000Y57512700D01*
X11388000Y60452700D02*
X11388000Y57512700D01*
X18418000Y58982700D02*
X15928000Y58982700D01*
X7998000Y58982700D02*
X10488000Y58982700D01*
X15928000Y60452700D02*
X10488000Y60452700D01*
X15928000Y57512700D02*
X15928000Y60452700D01*
X10488000Y57512700D02*
X15928000Y57512700D01*
X10488000Y60452700D02*
X10488000Y57512700D01*
%TO.C,C1*%
X33462302Y24051000D02*
X33462302Y23251000D01*
X33062302Y23651000D02*
X33862302Y23651000D01*
X41553000Y21869000D02*
X41553000Y20803000D01*
X41513000Y22104000D02*
X41513000Y20568000D01*
X41473000Y22284000D02*
X41473000Y20388000D01*
X41433000Y22434000D02*
X41433000Y20238000D01*
X41393000Y22565000D02*
X41393000Y20107000D01*
X41353000Y22682000D02*
X41353000Y19990000D01*
X41313000Y22789000D02*
X41313000Y19883000D01*
X41273000Y22888000D02*
X41273000Y19784000D01*
X41233000Y22981000D02*
X41233000Y19691000D01*
X41193000Y23067000D02*
X41193000Y19605000D01*
X41153000Y23149000D02*
X41153000Y19523000D01*
X41113000Y23226000D02*
X41113000Y19446000D01*
X41073000Y23300000D02*
X41073000Y19372000D01*
X41033000Y23370000D02*
X41033000Y19302000D01*
X40993000Y23438000D02*
X40993000Y19234000D01*
X40953000Y23502000D02*
X40953000Y19170000D01*
X40913000Y23564000D02*
X40913000Y19108000D01*
X40873000Y23623000D02*
X40873000Y19049000D01*
X40833000Y23681000D02*
X40833000Y18991000D01*
X40793000Y23736000D02*
X40793000Y18936000D01*
X40753000Y23790000D02*
X40753000Y18882000D01*
X40713000Y23841000D02*
X40713000Y18831000D01*
X40673000Y23892000D02*
X40673000Y18780000D01*
X40633000Y23940000D02*
X40633000Y18732000D01*
X40593000Y23987000D02*
X40593000Y18685000D01*
X40553000Y24033000D02*
X40553000Y18639000D01*
X40513000Y24077000D02*
X40513000Y18595000D01*
X40473000Y24120000D02*
X40473000Y18552000D01*
X40433000Y24162000D02*
X40433000Y18510000D01*
X40393000Y24203000D02*
X40393000Y18469000D01*
X40353000Y24243000D02*
X40353000Y18429000D01*
X40313000Y24281000D02*
X40313000Y18391000D01*
X40273000Y24319000D02*
X40273000Y18353000D01*
X40233000Y24355000D02*
X40233000Y18317000D01*
X40193000Y24391000D02*
X40193000Y18281000D01*
X40153000Y24426000D02*
X40153000Y18246000D01*
X40113000Y24460000D02*
X40113000Y18212000D01*
X40073000Y24492000D02*
X40073000Y18180000D01*
X40033000Y24525000D02*
X40033000Y18147000D01*
X39993000Y24556000D02*
X39993000Y18116000D01*
X39953000Y24586000D02*
X39953000Y18086000D01*
X39913000Y24616000D02*
X39913000Y18056000D01*
X39873000Y24645000D02*
X39873000Y18027000D01*
X39833000Y24674000D02*
X39833000Y17998000D01*
X39793000Y24701000D02*
X39793000Y17971000D01*
X39753000Y20296000D02*
X39753000Y17944000D01*
X39753000Y24728000D02*
X39753000Y22376000D01*
X39713000Y20296000D02*
X39713000Y17918000D01*
X39713000Y24754000D02*
X39713000Y22376000D01*
X39673000Y20296000D02*
X39673000Y17892000D01*
X39673000Y24780000D02*
X39673000Y22376000D01*
X39633000Y20296000D02*
X39633000Y17867000D01*
X39633000Y24805000D02*
X39633000Y22376000D01*
X39593000Y20296000D02*
X39593000Y17843000D01*
X39593000Y24829000D02*
X39593000Y22376000D01*
X39553000Y20296000D02*
X39553000Y17819000D01*
X39553000Y24853000D02*
X39553000Y22376000D01*
X39513000Y20296000D02*
X39513000Y17796000D01*
X39513000Y24876000D02*
X39513000Y22376000D01*
X39473000Y20296000D02*
X39473000Y17774000D01*
X39473000Y24898000D02*
X39473000Y22376000D01*
X39433000Y20296000D02*
X39433000Y17752000D01*
X39433000Y24920000D02*
X39433000Y22376000D01*
X39393000Y20296000D02*
X39393000Y17730000D01*
X39393000Y24942000D02*
X39393000Y22376000D01*
X39353000Y20296000D02*
X39353000Y17709000D01*
X39353000Y24963000D02*
X39353000Y22376000D01*
X39313000Y20296000D02*
X39313000Y17689000D01*
X39313000Y24983000D02*
X39313000Y22376000D01*
X39273000Y20296000D02*
X39273000Y17670000D01*
X39273000Y25002000D02*
X39273000Y22376000D01*
X39233000Y20296000D02*
X39233000Y17650000D01*
X39233000Y25022000D02*
X39233000Y22376000D01*
X39193000Y20296000D02*
X39193000Y17632000D01*
X39193000Y25040000D02*
X39193000Y22376000D01*
X39153000Y20296000D02*
X39153000Y17614000D01*
X39153000Y25058000D02*
X39153000Y22376000D01*
X39113000Y20296000D02*
X39113000Y17596000D01*
X39113000Y25076000D02*
X39113000Y22376000D01*
X39073000Y20296000D02*
X39073000Y17579000D01*
X39073000Y25093000D02*
X39073000Y22376000D01*
X39033000Y20296000D02*
X39033000Y17562000D01*
X39033000Y25110000D02*
X39033000Y22376000D01*
X38993000Y20296000D02*
X38993000Y17546000D01*
X38993000Y25126000D02*
X38993000Y22376000D01*
X38953000Y20296000D02*
X38953000Y17531000D01*
X38953000Y25141000D02*
X38953000Y22376000D01*
X38913000Y20296000D02*
X38913000Y17515000D01*
X38913000Y25157000D02*
X38913000Y22376000D01*
X38873000Y20296000D02*
X38873000Y17501000D01*
X38873000Y25171000D02*
X38873000Y22376000D01*
X38833000Y20296000D02*
X38833000Y17486000D01*
X38833000Y25186000D02*
X38833000Y22376000D01*
X38793000Y20296000D02*
X38793000Y17473000D01*
X38793000Y25199000D02*
X38793000Y22376000D01*
X38753000Y20296000D02*
X38753000Y17459000D01*
X38753000Y25213000D02*
X38753000Y22376000D01*
X38713000Y20296000D02*
X38713000Y17447000D01*
X38713000Y25225000D02*
X38713000Y22376000D01*
X38673000Y20296000D02*
X38673000Y17434000D01*
X38673000Y25238000D02*
X38673000Y22376000D01*
X38633000Y20296000D02*
X38633000Y17422000D01*
X38633000Y25250000D02*
X38633000Y22376000D01*
X38593000Y20296000D02*
X38593000Y17411000D01*
X38593000Y25261000D02*
X38593000Y22376000D01*
X38553000Y20296000D02*
X38553000Y17400000D01*
X38553000Y25272000D02*
X38553000Y22376000D01*
X38513000Y20296000D02*
X38513000Y17389000D01*
X38513000Y25283000D02*
X38513000Y22376000D01*
X38473000Y20296000D02*
X38473000Y17379000D01*
X38473000Y25293000D02*
X38473000Y22376000D01*
X38433000Y20296000D02*
X38433000Y17369000D01*
X38433000Y25303000D02*
X38433000Y22376000D01*
X38393000Y20296000D02*
X38393000Y17360000D01*
X38393000Y25312000D02*
X38393000Y22376000D01*
X38353000Y20296000D02*
X38353000Y17351000D01*
X38353000Y25321000D02*
X38353000Y22376000D01*
X38313000Y20296000D02*
X38313000Y17342000D01*
X38313000Y25330000D02*
X38313000Y22376000D01*
X38273000Y20296000D02*
X38273000Y17334000D01*
X38273000Y25338000D02*
X38273000Y22376000D01*
X38233000Y20296000D02*
X38233000Y17326000D01*
X38233000Y25346000D02*
X38233000Y22376000D01*
X38193000Y20296000D02*
X38193000Y17319000D01*
X38193000Y25353000D02*
X38193000Y22376000D01*
X38152000Y20296000D02*
X38152000Y17312000D01*
X38152000Y25360000D02*
X38152000Y22376000D01*
X38112000Y20296000D02*
X38112000Y17306000D01*
X38112000Y25366000D02*
X38112000Y22376000D01*
X38072000Y20296000D02*
X38072000Y17299000D01*
X38072000Y25373000D02*
X38072000Y22376000D01*
X38032000Y20296000D02*
X38032000Y17294000D01*
X38032000Y25378000D02*
X38032000Y22376000D01*
X37992000Y20296000D02*
X37992000Y17288000D01*
X37992000Y25384000D02*
X37992000Y22376000D01*
X37952000Y20296000D02*
X37952000Y17284000D01*
X37952000Y25388000D02*
X37952000Y22376000D01*
X37912000Y20296000D02*
X37912000Y17279000D01*
X37912000Y25393000D02*
X37912000Y22376000D01*
X37872000Y20296000D02*
X37872000Y17275000D01*
X37872000Y25397000D02*
X37872000Y22376000D01*
X37832000Y20296000D02*
X37832000Y17271000D01*
X37832000Y25401000D02*
X37832000Y22376000D01*
X37792000Y20296000D02*
X37792000Y17268000D01*
X37792000Y25404000D02*
X37792000Y22376000D01*
X37752000Y20296000D02*
X37752000Y17265000D01*
X37752000Y25407000D02*
X37752000Y22376000D01*
X37712000Y20296000D02*
X37712000Y17262000D01*
X37712000Y25410000D02*
X37712000Y22376000D01*
X37672000Y25412000D02*
X37672000Y17260000D01*
X37632000Y25413000D02*
X37632000Y17259000D01*
X37592000Y25415000D02*
X37592000Y17257000D01*
X37552000Y25416000D02*
X37552000Y17256000D01*
X37512000Y25416000D02*
X37512000Y17256000D01*
X37472000Y25416000D02*
X37472000Y17256000D01*
X41592000Y21336000D02*
G75*
G03X41592000Y21336000I-4120000J0D01*
G01*
%TO.C,J3*%
D10*
X14096380Y10612667D02*
X14810666Y10612667D01*
X14953523Y10565048D01*
X15048761Y10469810D01*
X15096380Y10326953D01*
X15096380Y10231715D01*
X14096380Y10993620D02*
X14096380Y11612667D01*
X14477333Y11279334D01*
X14477333Y11422191D01*
X14524952Y11517429D01*
X14572571Y11565048D01*
X14667809Y11612667D01*
X14905904Y11612667D01*
X15001142Y11565048D01*
X15048761Y11517429D01*
X15096380Y11422191D01*
X15096380Y11136477D01*
X15048761Y11041239D01*
X15001142Y10993620D01*
%TO.C,R4*%
X45494380Y39409334D02*
X45018190Y39076000D01*
X45494380Y38837905D02*
X44494380Y38837905D01*
X44494380Y39218858D01*
X44542000Y39314096D01*
X44589619Y39361715D01*
X44684857Y39409334D01*
X44827714Y39409334D01*
X44922952Y39361715D01*
X44970571Y39314096D01*
X45018190Y39218858D01*
X45018190Y38837905D01*
X44827714Y40266477D02*
X45494380Y40266477D01*
X44446761Y40028381D02*
X45161047Y39790286D01*
X45161047Y40409334D01*
%TO.C,R3*%
X11671333Y73545620D02*
X11338000Y74021810D01*
X11099904Y73545620D02*
X11099904Y74545620D01*
X11480857Y74545620D01*
X11576095Y74498000D01*
X11623714Y74450381D01*
X11671333Y74355143D01*
X11671333Y74212286D01*
X11623714Y74117048D01*
X11576095Y74069429D01*
X11480857Y74021810D01*
X11099904Y74021810D01*
X12004666Y74545620D02*
X12623714Y74545620D01*
X12290380Y74164667D01*
X12433238Y74164667D01*
X12528476Y74117048D01*
X12576095Y74069429D01*
X12623714Y73974191D01*
X12623714Y73736096D01*
X12576095Y73640858D01*
X12528476Y73593239D01*
X12433238Y73545620D01*
X12147523Y73545620D01*
X12052285Y73593239D01*
X12004666Y73640858D01*
%TO.C,R2*%
X11671333Y67272920D02*
X11338000Y67749110D01*
X11099904Y67272920D02*
X11099904Y68272920D01*
X11480857Y68272920D01*
X11576095Y68225300D01*
X11623714Y68177681D01*
X11671333Y68082443D01*
X11671333Y67939586D01*
X11623714Y67844348D01*
X11576095Y67796729D01*
X11480857Y67749110D01*
X11099904Y67749110D01*
X12052285Y68177681D02*
X12099904Y68225300D01*
X12195142Y68272920D01*
X12433238Y68272920D01*
X12528476Y68225300D01*
X12576095Y68177681D01*
X12623714Y68082443D01*
X12623714Y67987205D01*
X12576095Y67844348D01*
X12004666Y67272920D01*
X12623714Y67272920D01*
%TO.C,R1*%
X11671333Y54527620D02*
X11338000Y55003810D01*
X11099904Y54527620D02*
X11099904Y55527620D01*
X11480857Y55527620D01*
X11576095Y55480000D01*
X11623714Y55432381D01*
X11671333Y55337143D01*
X11671333Y55194286D01*
X11623714Y55099048D01*
X11576095Y55051429D01*
X11480857Y55003810D01*
X11099904Y55003810D01*
X12623714Y54527620D02*
X12052285Y54527620D01*
X12338000Y54527620D02*
X12338000Y55527620D01*
X12242761Y55384762D01*
X12147523Y55289524D01*
X12052285Y55241905D01*
%TO.C,J2*%
X21042380Y9572667D02*
X21756666Y9572667D01*
X21899523Y9525048D01*
X21994761Y9429810D01*
X22042380Y9286953D01*
X22042380Y9191715D01*
X21137619Y10001239D02*
X21090000Y10048858D01*
X21042380Y10144096D01*
X21042380Y10382191D01*
X21090000Y10477429D01*
X21137619Y10525048D01*
X21232857Y10572667D01*
X21328095Y10572667D01*
X21470952Y10525048D01*
X22042380Y9953620D01*
X22042380Y10572667D01*
%TO.C,J1*%
X30672380Y63626667D02*
X31386666Y63626667D01*
X31529523Y63579048D01*
X31624761Y63483810D01*
X31672380Y63340953D01*
X31672380Y63245715D01*
X31672380Y64626667D02*
X31672380Y64055239D01*
X31672380Y64340953D02*
X30672380Y64340953D01*
X30815238Y64245715D01*
X30910476Y64150477D01*
X30958095Y64055239D01*
%TO.C,D8*%
X12469904Y32142920D02*
X12469904Y33142920D01*
X12708000Y33142920D01*
X12850857Y33095300D01*
X12946095Y33000062D01*
X12993714Y32904824D01*
X13041333Y32714348D01*
X13041333Y32571491D01*
X12993714Y32381015D01*
X12946095Y32285777D01*
X12850857Y32190539D01*
X12708000Y32142920D01*
X12469904Y32142920D01*
X13612761Y32714348D02*
X13517523Y32761967D01*
X13469904Y32809586D01*
X13422285Y32904824D01*
X13422285Y32952443D01*
X13469904Y33047681D01*
X13517523Y33095300D01*
X13612761Y33142920D01*
X13803238Y33142920D01*
X13898476Y33095300D01*
X13946095Y33047681D01*
X13993714Y32952443D01*
X13993714Y32904824D01*
X13946095Y32809586D01*
X13898476Y32761967D01*
X13803238Y32714348D01*
X13612761Y32714348D01*
X13517523Y32666729D01*
X13469904Y32619110D01*
X13422285Y32523872D01*
X13422285Y32333396D01*
X13469904Y32238158D01*
X13517523Y32190539D01*
X13612761Y32142920D01*
X13803238Y32142920D01*
X13898476Y32190539D01*
X13946095Y32238158D01*
X13993714Y32333396D01*
X13993714Y32523872D01*
X13946095Y32619110D01*
X13898476Y32666729D01*
X13803238Y32714348D01*
X6596095Y31572920D02*
X6596095Y32572920D01*
X7167523Y31572920D02*
X6738952Y32144348D01*
X7167523Y32572920D02*
X6596095Y32001491D01*
%TO.C,D7*%
X29233904Y32142920D02*
X29233904Y33142920D01*
X29472000Y33142920D01*
X29614857Y33095300D01*
X29710095Y33000062D01*
X29757714Y32904824D01*
X29805333Y32714348D01*
X29805333Y32571491D01*
X29757714Y32381015D01*
X29710095Y32285777D01*
X29614857Y32190539D01*
X29472000Y32142920D01*
X29233904Y32142920D01*
X30138666Y33142920D02*
X30805333Y33142920D01*
X30376761Y32142920D01*
X23360095Y31572920D02*
X23360095Y32572920D01*
X23931523Y31572920D02*
X23502952Y32144348D01*
X23931523Y32572920D02*
X23360095Y32001491D01*
%TO.C,D6*%
X12469904Y46673620D02*
X12469904Y47673620D01*
X12708000Y47673620D01*
X12850857Y47626000D01*
X12946095Y47530762D01*
X12993714Y47435524D01*
X13041333Y47245048D01*
X13041333Y47102191D01*
X12993714Y46911715D01*
X12946095Y46816477D01*
X12850857Y46721239D01*
X12708000Y46673620D01*
X12469904Y46673620D01*
X13898476Y47673620D02*
X13708000Y47673620D01*
X13612761Y47626000D01*
X13565142Y47578381D01*
X13469904Y47435524D01*
X13422285Y47245048D01*
X13422285Y46864096D01*
X13469904Y46768858D01*
X13517523Y46721239D01*
X13612761Y46673620D01*
X13803238Y46673620D01*
X13898476Y46721239D01*
X13946095Y46768858D01*
X13993714Y46864096D01*
X13993714Y47102191D01*
X13946095Y47197429D01*
X13898476Y47245048D01*
X13803238Y47292667D01*
X13612761Y47292667D01*
X13517523Y47245048D01*
X13469904Y47197429D01*
X13422285Y47102191D01*
X6596095Y46103620D02*
X6596095Y47103620D01*
X7167523Y46103620D02*
X6738952Y46675048D01*
X7167523Y47103620D02*
X6596095Y46532191D01*
%TO.C,D5*%
X29233904Y46673620D02*
X29233904Y47673620D01*
X29472000Y47673620D01*
X29614857Y47626000D01*
X29710095Y47530762D01*
X29757714Y47435524D01*
X29805333Y47245048D01*
X29805333Y47102191D01*
X29757714Y46911715D01*
X29710095Y46816477D01*
X29614857Y46721239D01*
X29472000Y46673620D01*
X29233904Y46673620D01*
X30710095Y47673620D02*
X30233904Y47673620D01*
X30186285Y47197429D01*
X30233904Y47245048D01*
X30329142Y47292667D01*
X30567238Y47292667D01*
X30662476Y47245048D01*
X30710095Y47197429D01*
X30757714Y47102191D01*
X30757714Y46864096D01*
X30710095Y46768858D01*
X30662476Y46721239D01*
X30567238Y46673620D01*
X30329142Y46673620D01*
X30233904Y46721239D01*
X30186285Y46768858D01*
X23360095Y46103620D02*
X23360095Y47103620D01*
X23931523Y46103620D02*
X23502952Y46675048D01*
X23931523Y47103620D02*
X23360095Y46532191D01*
%TO.C,D4*%
X12469904Y39408320D02*
X12469904Y40408320D01*
X12708000Y40408320D01*
X12850857Y40360700D01*
X12946095Y40265462D01*
X12993714Y40170224D01*
X13041333Y39979748D01*
X13041333Y39836891D01*
X12993714Y39646415D01*
X12946095Y39551177D01*
X12850857Y39455939D01*
X12708000Y39408320D01*
X12469904Y39408320D01*
X13898476Y40074986D02*
X13898476Y39408320D01*
X13660380Y40455939D02*
X13422285Y39741653D01*
X14041333Y39741653D01*
X6596095Y38838320D02*
X6596095Y39838320D01*
X7167523Y38838320D02*
X6738952Y39409748D01*
X7167523Y39838320D02*
X6596095Y39266891D01*
%TO.C,D3*%
X29233904Y39408320D02*
X29233904Y40408320D01*
X29472000Y40408320D01*
X29614857Y40360700D01*
X29710095Y40265462D01*
X29757714Y40170224D01*
X29805333Y39979748D01*
X29805333Y39836891D01*
X29757714Y39646415D01*
X29710095Y39551177D01*
X29614857Y39455939D01*
X29472000Y39408320D01*
X29233904Y39408320D01*
X30138666Y40408320D02*
X30757714Y40408320D01*
X30424380Y40027367D01*
X30567238Y40027367D01*
X30662476Y39979748D01*
X30710095Y39932129D01*
X30757714Y39836891D01*
X30757714Y39598796D01*
X30710095Y39503558D01*
X30662476Y39455939D01*
X30567238Y39408320D01*
X30281523Y39408320D01*
X30186285Y39455939D01*
X30138666Y39503558D01*
X23360095Y38838320D02*
X23360095Y39838320D01*
X23931523Y38838320D02*
X23502952Y39409748D01*
X23931523Y39838320D02*
X23360095Y39266891D01*
%TO.C,D2*%
X12469904Y24877620D02*
X12469904Y25877620D01*
X12708000Y25877620D01*
X12850857Y25830000D01*
X12946095Y25734762D01*
X12993714Y25639524D01*
X13041333Y25449048D01*
X13041333Y25306191D01*
X12993714Y25115715D01*
X12946095Y25020477D01*
X12850857Y24925239D01*
X12708000Y24877620D01*
X12469904Y24877620D01*
X13422285Y25782381D02*
X13469904Y25830000D01*
X13565142Y25877620D01*
X13803238Y25877620D01*
X13898476Y25830000D01*
X13946095Y25782381D01*
X13993714Y25687143D01*
X13993714Y25591905D01*
X13946095Y25449048D01*
X13374666Y24877620D01*
X13993714Y24877620D01*
X6596095Y24307620D02*
X6596095Y25307620D01*
X7167523Y24307620D02*
X6738952Y24879048D01*
X7167523Y25307620D02*
X6596095Y24736191D01*
%TO.C,D1*%
X12469904Y61000320D02*
X12469904Y62000320D01*
X12708000Y62000320D01*
X12850857Y61952700D01*
X12946095Y61857462D01*
X12993714Y61762224D01*
X13041333Y61571748D01*
X13041333Y61428891D01*
X12993714Y61238415D01*
X12946095Y61143177D01*
X12850857Y61047939D01*
X12708000Y61000320D01*
X12469904Y61000320D01*
X13993714Y61000320D02*
X13422285Y61000320D01*
X13708000Y61000320D02*
X13708000Y62000320D01*
X13612761Y61857462D01*
X13517523Y61762224D01*
X13422285Y61714605D01*
X6596095Y60430320D02*
X6596095Y61430320D01*
X7167523Y60430320D02*
X6738952Y61001748D01*
X7167523Y61430320D02*
X6596095Y60858891D01*
%TO.C,C1*%
X37305333Y26228858D02*
X37257714Y26181239D01*
X37114857Y26133620D01*
X37019619Y26133620D01*
X36876761Y26181239D01*
X36781523Y26276477D01*
X36733904Y26371715D01*
X36686285Y26562191D01*
X36686285Y26705048D01*
X36733904Y26895524D01*
X36781523Y26990762D01*
X36876761Y27086000D01*
X37019619Y27133620D01*
X37114857Y27133620D01*
X37257714Y27086000D01*
X37305333Y27038381D01*
X38257714Y26133620D02*
X37686285Y26133620D01*
X37972000Y26133620D02*
X37972000Y27133620D01*
X37876761Y26990762D01*
X37781523Y26895524D01*
X37686285Y26847905D01*
%TD*%
%LPC*%
D12*
%TO.C,J3*%
X3344000Y10946000D03*
D13*
X5344000Y6446000D03*
X5344000Y15446000D03*
D14*
X6344000Y10946000D03*
D15*
X12344000Y10946000D03*
%TD*%
D16*
%TO.C,R4*%
X42672000Y34496000D03*
D12*
X42672000Y44656000D03*
%TD*%
D16*
%TO.C,R3*%
X16918000Y71628000D03*
D12*
X6758000Y71628000D03*
%TD*%
D16*
%TO.C,R2*%
X16918000Y65355300D03*
D12*
X6758000Y65355300D03*
%TD*%
D16*
%TO.C,R1*%
X16918000Y52610000D03*
D12*
X6758000Y52610000D03*
%TD*%
D17*
%TO.C,J2*%
X38354000Y11176000D03*
X38354000Y8636000D03*
X35814000Y11176000D03*
X35814000Y8636000D03*
X33274000Y11176000D03*
X33274000Y8636000D03*
X30734000Y11176000D03*
X30734000Y8636000D03*
X28194000Y11176000D03*
D18*
X28194000Y8636000D03*
%TD*%
D12*
%TO.C,J1*%
X35560000Y68115000D03*
X35560000Y65345000D03*
X35560000Y62575000D03*
X35560000Y59805000D03*
X33020000Y69500000D03*
X33020000Y66730000D03*
X33020000Y63960000D03*
X33020000Y61190000D03*
D19*
X33020000Y58420000D03*
%TD*%
D20*
%TO.C,D8*%
X19558000Y30125300D03*
D21*
X6858000Y30125300D03*
%TD*%
D20*
%TO.C,D7*%
X36322000Y30125300D03*
D21*
X23622000Y30125300D03*
%TD*%
D20*
%TO.C,D6*%
X19558000Y44656000D03*
D21*
X6858000Y44656000D03*
%TD*%
D20*
%TO.C,D5*%
X36322000Y44656000D03*
D21*
X23622000Y44656000D03*
%TD*%
D20*
%TO.C,D4*%
X19558000Y37390700D03*
D21*
X6858000Y37390700D03*
%TD*%
D20*
%TO.C,D3*%
X36322000Y37390700D03*
D21*
X23622000Y37390700D03*
%TD*%
D20*
%TO.C,D2*%
X19558000Y22860000D03*
D21*
X6858000Y22860000D03*
%TD*%
D20*
%TO.C,D1*%
X19558000Y58982700D03*
D21*
X6858000Y58982700D03*
%TD*%
D12*
%TO.C,C1*%
X38722000Y21336000D03*
D19*
X36222000Y21336000D03*
%TD*%
M02*
