G04 #@! TF.GenerationSoftware,KiCad,Pcbnew,5.1.4-3.fc30*
G04 #@! TF.CreationDate,2019-09-19T16:23:22+02:00*
G04 #@! TF.ProjectId,dasa,64617361-2e6b-4696-9361-645f70636258,rev?*
G04 #@! TF.SameCoordinates,Original*
G04 #@! TF.FileFunction,Soldermask,Bot*
G04 #@! TF.FilePolarity,Negative*
%FSLAX46Y46*%
G04 Gerber Fmt 4.6, Leading zero omitted, Abs format (unit mm)*
G04 Created by KiCad (PCBNEW 5.1.4-3.fc30) date 2019-09-19 16:23:22*
%MOMM*%
%LPD*%
G04 APERTURE LIST*
%ADD10C,0.100000*%
G04 APERTURE END LIST*
D10*
G36*
X115163097Y-111634069D02*
G01*
X115266032Y-111644207D01*
X115464146Y-111704305D01*
X115464149Y-111704306D01*
X115560975Y-111756061D01*
X115646729Y-111801897D01*
X115806765Y-111933235D01*
X115938103Y-112093271D01*
X115983939Y-112179025D01*
X116035694Y-112275851D01*
X116035695Y-112275854D01*
X116095793Y-112473968D01*
X116116085Y-112680000D01*
X116095793Y-112886032D01*
X116035695Y-113084146D01*
X116035694Y-113084149D01*
X115983939Y-113180975D01*
X115938103Y-113266729D01*
X115806765Y-113426765D01*
X115646729Y-113558103D01*
X115560975Y-113603939D01*
X115464149Y-113655694D01*
X115464146Y-113655695D01*
X115266032Y-113715793D01*
X115163097Y-113725931D01*
X115111631Y-113731000D01*
X113508369Y-113731000D01*
X113456903Y-113725931D01*
X113353968Y-113715793D01*
X113155854Y-113655695D01*
X113155851Y-113655694D01*
X113059025Y-113603939D01*
X112973271Y-113558103D01*
X112813235Y-113426765D01*
X112681897Y-113266729D01*
X112636061Y-113180975D01*
X112584306Y-113084149D01*
X112584305Y-113084146D01*
X112524207Y-112886032D01*
X112503915Y-112680000D01*
X112524207Y-112473968D01*
X112584305Y-112275854D01*
X112584306Y-112275851D01*
X112636061Y-112179025D01*
X112681897Y-112093271D01*
X112813235Y-111933235D01*
X112973271Y-111801897D01*
X113059025Y-111756061D01*
X113155851Y-111704306D01*
X113155854Y-111704305D01*
X113353968Y-111644207D01*
X113456903Y-111634069D01*
X113508369Y-111629000D01*
X115111631Y-111629000D01*
X115163097Y-111634069D01*
X115163097Y-111634069D01*
G37*
G36*
X138074600Y-111404600D02*
G01*
X136245400Y-111404600D01*
X136245400Y-109575400D01*
X138074600Y-109575400D01*
X138074600Y-111404600D01*
X138074600Y-111404600D01*
G37*
G36*
X139879294Y-109588633D02*
G01*
X140051695Y-109640931D01*
X140210583Y-109725858D01*
X140349849Y-109840151D01*
X140464142Y-109979417D01*
X140549069Y-110138305D01*
X140601367Y-110310706D01*
X140619025Y-110490000D01*
X140601367Y-110669294D01*
X140549069Y-110841695D01*
X140464142Y-111000583D01*
X140349849Y-111139849D01*
X140210583Y-111254142D01*
X140051695Y-111339069D01*
X139879294Y-111391367D01*
X139744931Y-111404600D01*
X139655069Y-111404600D01*
X139520706Y-111391367D01*
X139348305Y-111339069D01*
X139189417Y-111254142D01*
X139050151Y-111139849D01*
X138935858Y-111000583D01*
X138850931Y-110841695D01*
X138798633Y-110669294D01*
X138780975Y-110490000D01*
X138798633Y-110310706D01*
X138850931Y-110138305D01*
X138935858Y-109979417D01*
X139050151Y-109840151D01*
X139189417Y-109725858D01*
X139348305Y-109640931D01*
X139520706Y-109588633D01*
X139655069Y-109575400D01*
X139744931Y-109575400D01*
X139879294Y-109588633D01*
X139879294Y-109588633D01*
G37*
G36*
X142419294Y-109588633D02*
G01*
X142591695Y-109640931D01*
X142750583Y-109725858D01*
X142889849Y-109840151D01*
X143004142Y-109979417D01*
X143089069Y-110138305D01*
X143141367Y-110310706D01*
X143159025Y-110490000D01*
X143141367Y-110669294D01*
X143089069Y-110841695D01*
X143004142Y-111000583D01*
X142889849Y-111139849D01*
X142750583Y-111254142D01*
X142591695Y-111339069D01*
X142419294Y-111391367D01*
X142284931Y-111404600D01*
X142195069Y-111404600D01*
X142060706Y-111391367D01*
X141888305Y-111339069D01*
X141729417Y-111254142D01*
X141590151Y-111139849D01*
X141475858Y-111000583D01*
X141390931Y-110841695D01*
X141338633Y-110669294D01*
X141320975Y-110490000D01*
X141338633Y-110310706D01*
X141390931Y-110138305D01*
X141475858Y-109979417D01*
X141590151Y-109840151D01*
X141729417Y-109725858D01*
X141888305Y-109640931D01*
X142060706Y-109588633D01*
X142195069Y-109575400D01*
X142284931Y-109575400D01*
X142419294Y-109588633D01*
X142419294Y-109588633D01*
G37*
G36*
X147499294Y-109588633D02*
G01*
X147671695Y-109640931D01*
X147830583Y-109725858D01*
X147969849Y-109840151D01*
X148084142Y-109979417D01*
X148169069Y-110138305D01*
X148221367Y-110310706D01*
X148239025Y-110490000D01*
X148221367Y-110669294D01*
X148169069Y-110841695D01*
X148084142Y-111000583D01*
X147969849Y-111139849D01*
X147830583Y-111254142D01*
X147671695Y-111339069D01*
X147499294Y-111391367D01*
X147364931Y-111404600D01*
X147275069Y-111404600D01*
X147140706Y-111391367D01*
X146968305Y-111339069D01*
X146809417Y-111254142D01*
X146670151Y-111139849D01*
X146555858Y-111000583D01*
X146470931Y-110841695D01*
X146418633Y-110669294D01*
X146400975Y-110490000D01*
X146418633Y-110310706D01*
X146470931Y-110138305D01*
X146555858Y-109979417D01*
X146670151Y-109840151D01*
X146809417Y-109725858D01*
X146968305Y-109640931D01*
X147140706Y-109588633D01*
X147275069Y-109575400D01*
X147364931Y-109575400D01*
X147499294Y-109588633D01*
X147499294Y-109588633D01*
G37*
G36*
X144959294Y-109588633D02*
G01*
X145131695Y-109640931D01*
X145290583Y-109725858D01*
X145429849Y-109840151D01*
X145544142Y-109979417D01*
X145629069Y-110138305D01*
X145681367Y-110310706D01*
X145699025Y-110490000D01*
X145681367Y-110669294D01*
X145629069Y-110841695D01*
X145544142Y-111000583D01*
X145429849Y-111139849D01*
X145290583Y-111254142D01*
X145131695Y-111339069D01*
X144959294Y-111391367D01*
X144824931Y-111404600D01*
X144735069Y-111404600D01*
X144600706Y-111391367D01*
X144428305Y-111339069D01*
X144269417Y-111254142D01*
X144130151Y-111139849D01*
X144015858Y-111000583D01*
X143930931Y-110841695D01*
X143878633Y-110669294D01*
X143860975Y-110490000D01*
X143878633Y-110310706D01*
X143930931Y-110138305D01*
X144015858Y-109979417D01*
X144130151Y-109840151D01*
X144269417Y-109725858D01*
X144428305Y-109640931D01*
X144600706Y-109588633D01*
X144735069Y-109575400D01*
X144824931Y-109575400D01*
X144959294Y-109588633D01*
X144959294Y-109588633D01*
G37*
G36*
X122361000Y-110231000D02*
G01*
X120259000Y-110231000D01*
X120259000Y-106129000D01*
X122361000Y-106129000D01*
X122361000Y-110231000D01*
X122361000Y-110231000D01*
G37*
G36*
X115516032Y-106494207D02*
G01*
X115714146Y-106554305D01*
X115714149Y-106554306D01*
X115810975Y-106606061D01*
X115896729Y-106651897D01*
X116056765Y-106783235D01*
X116188103Y-106943271D01*
X116233939Y-107029025D01*
X116285694Y-107125851D01*
X116285695Y-107125854D01*
X116345793Y-107323968D01*
X116361000Y-107478370D01*
X116361000Y-108881630D01*
X116345793Y-109036032D01*
X116285695Y-109234145D01*
X116285694Y-109234149D01*
X116233939Y-109330975D01*
X116188103Y-109416729D01*
X116056765Y-109576765D01*
X115896729Y-109708103D01*
X115780030Y-109770479D01*
X115714148Y-109805694D01*
X115714145Y-109805695D01*
X115516031Y-109865793D01*
X115310000Y-109886085D01*
X115103968Y-109865793D01*
X114905854Y-109805695D01*
X114905851Y-109805694D01*
X114809025Y-109753939D01*
X114723271Y-109708103D01*
X114563235Y-109576765D01*
X114431897Y-109416729D01*
X114334307Y-109234149D01*
X114334306Y-109234148D01*
X114334305Y-109234145D01*
X114274207Y-109036031D01*
X114259000Y-108881629D01*
X114259000Y-107478369D01*
X114274207Y-107323970D01*
X114334305Y-107125853D01*
X114409184Y-106985766D01*
X114431898Y-106943271D01*
X114563236Y-106783235D01*
X114723272Y-106651897D01*
X114809026Y-106606061D01*
X114905852Y-106554306D01*
X114905855Y-106554305D01*
X115103969Y-106494207D01*
X115310000Y-106473915D01*
X115516032Y-106494207D01*
X115516032Y-106494207D01*
G37*
G36*
X112558228Y-107361703D02*
G01*
X112713100Y-107425853D01*
X112852481Y-107518985D01*
X112971015Y-107637519D01*
X113064147Y-107776900D01*
X113128297Y-107931772D01*
X113161000Y-108096184D01*
X113161000Y-108263816D01*
X113128297Y-108428228D01*
X113064147Y-108583100D01*
X112971015Y-108722481D01*
X112852481Y-108841015D01*
X112713100Y-108934147D01*
X112558228Y-108998297D01*
X112393816Y-109031000D01*
X112226184Y-109031000D01*
X112061772Y-108998297D01*
X111906900Y-108934147D01*
X111767519Y-108841015D01*
X111648985Y-108722481D01*
X111555853Y-108583100D01*
X111491703Y-108428228D01*
X111459000Y-108263816D01*
X111459000Y-108096184D01*
X111491703Y-107931772D01*
X111555853Y-107776900D01*
X111648985Y-107637519D01*
X111767519Y-107518985D01*
X111906900Y-107425853D01*
X112061772Y-107361703D01*
X112226184Y-107329000D01*
X112393816Y-107329000D01*
X112558228Y-107361703D01*
X112558228Y-107361703D01*
G37*
G36*
X137339294Y-107048633D02*
G01*
X137511695Y-107100931D01*
X137670583Y-107185858D01*
X137809849Y-107300151D01*
X137924142Y-107439417D01*
X138009069Y-107598305D01*
X138061367Y-107770706D01*
X138079025Y-107950000D01*
X138061367Y-108129294D01*
X138009069Y-108301695D01*
X137924142Y-108460583D01*
X137809849Y-108599849D01*
X137670583Y-108714142D01*
X137511695Y-108799069D01*
X137339294Y-108851367D01*
X137204931Y-108864600D01*
X137115069Y-108864600D01*
X136980706Y-108851367D01*
X136808305Y-108799069D01*
X136649417Y-108714142D01*
X136510151Y-108599849D01*
X136395858Y-108460583D01*
X136310931Y-108301695D01*
X136258633Y-108129294D01*
X136240975Y-107950000D01*
X136258633Y-107770706D01*
X136310931Y-107598305D01*
X136395858Y-107439417D01*
X136510151Y-107300151D01*
X136649417Y-107185858D01*
X136808305Y-107100931D01*
X136980706Y-107048633D01*
X137115069Y-107035400D01*
X137204931Y-107035400D01*
X137339294Y-107048633D01*
X137339294Y-107048633D01*
G37*
G36*
X147499294Y-107048633D02*
G01*
X147671695Y-107100931D01*
X147830583Y-107185858D01*
X147969849Y-107300151D01*
X148084142Y-107439417D01*
X148169069Y-107598305D01*
X148221367Y-107770706D01*
X148239025Y-107950000D01*
X148221367Y-108129294D01*
X148169069Y-108301695D01*
X148084142Y-108460583D01*
X147969849Y-108599849D01*
X147830583Y-108714142D01*
X147671695Y-108799069D01*
X147499294Y-108851367D01*
X147364931Y-108864600D01*
X147275069Y-108864600D01*
X147140706Y-108851367D01*
X146968305Y-108799069D01*
X146809417Y-108714142D01*
X146670151Y-108599849D01*
X146555858Y-108460583D01*
X146470931Y-108301695D01*
X146418633Y-108129294D01*
X146400975Y-107950000D01*
X146418633Y-107770706D01*
X146470931Y-107598305D01*
X146555858Y-107439417D01*
X146670151Y-107300151D01*
X146809417Y-107185858D01*
X146968305Y-107100931D01*
X147140706Y-107048633D01*
X147275069Y-107035400D01*
X147364931Y-107035400D01*
X147499294Y-107048633D01*
X147499294Y-107048633D01*
G37*
G36*
X139879294Y-107048633D02*
G01*
X140051695Y-107100931D01*
X140210583Y-107185858D01*
X140349849Y-107300151D01*
X140464142Y-107439417D01*
X140549069Y-107598305D01*
X140601367Y-107770706D01*
X140619025Y-107950000D01*
X140601367Y-108129294D01*
X140549069Y-108301695D01*
X140464142Y-108460583D01*
X140349849Y-108599849D01*
X140210583Y-108714142D01*
X140051695Y-108799069D01*
X139879294Y-108851367D01*
X139744931Y-108864600D01*
X139655069Y-108864600D01*
X139520706Y-108851367D01*
X139348305Y-108799069D01*
X139189417Y-108714142D01*
X139050151Y-108599849D01*
X138935858Y-108460583D01*
X138850931Y-108301695D01*
X138798633Y-108129294D01*
X138780975Y-107950000D01*
X138798633Y-107770706D01*
X138850931Y-107598305D01*
X138935858Y-107439417D01*
X139050151Y-107300151D01*
X139189417Y-107185858D01*
X139348305Y-107100931D01*
X139520706Y-107048633D01*
X139655069Y-107035400D01*
X139744931Y-107035400D01*
X139879294Y-107048633D01*
X139879294Y-107048633D01*
G37*
G36*
X144959294Y-107048633D02*
G01*
X145131695Y-107100931D01*
X145290583Y-107185858D01*
X145429849Y-107300151D01*
X145544142Y-107439417D01*
X145629069Y-107598305D01*
X145681367Y-107770706D01*
X145699025Y-107950000D01*
X145681367Y-108129294D01*
X145629069Y-108301695D01*
X145544142Y-108460583D01*
X145429849Y-108599849D01*
X145290583Y-108714142D01*
X145131695Y-108799069D01*
X144959294Y-108851367D01*
X144824931Y-108864600D01*
X144735069Y-108864600D01*
X144600706Y-108851367D01*
X144428305Y-108799069D01*
X144269417Y-108714142D01*
X144130151Y-108599849D01*
X144015858Y-108460583D01*
X143930931Y-108301695D01*
X143878633Y-108129294D01*
X143860975Y-107950000D01*
X143878633Y-107770706D01*
X143930931Y-107598305D01*
X144015858Y-107439417D01*
X144130151Y-107300151D01*
X144269417Y-107185858D01*
X144428305Y-107100931D01*
X144600706Y-107048633D01*
X144735069Y-107035400D01*
X144824931Y-107035400D01*
X144959294Y-107048633D01*
X144959294Y-107048633D01*
G37*
G36*
X142419294Y-107048633D02*
G01*
X142591695Y-107100931D01*
X142750583Y-107185858D01*
X142889849Y-107300151D01*
X143004142Y-107439417D01*
X143089069Y-107598305D01*
X143141367Y-107770706D01*
X143159025Y-107950000D01*
X143141367Y-108129294D01*
X143089069Y-108301695D01*
X143004142Y-108460583D01*
X142889849Y-108599849D01*
X142750583Y-108714142D01*
X142591695Y-108799069D01*
X142419294Y-108851367D01*
X142284931Y-108864600D01*
X142195069Y-108864600D01*
X142060706Y-108851367D01*
X141888305Y-108799069D01*
X141729417Y-108714142D01*
X141590151Y-108599849D01*
X141475858Y-108460583D01*
X141390931Y-108301695D01*
X141338633Y-108129294D01*
X141320975Y-107950000D01*
X141338633Y-107770706D01*
X141390931Y-107598305D01*
X141475858Y-107439417D01*
X141590151Y-107300151D01*
X141729417Y-107185858D01*
X141888305Y-107100931D01*
X142060706Y-107048633D01*
X142195069Y-107035400D01*
X142284931Y-107035400D01*
X142419294Y-107048633D01*
X142419294Y-107048633D01*
G37*
G36*
X115163097Y-102634069D02*
G01*
X115266032Y-102644207D01*
X115464146Y-102704305D01*
X115464149Y-102704306D01*
X115560975Y-102756061D01*
X115646729Y-102801897D01*
X115806765Y-102933235D01*
X115938103Y-103093271D01*
X115983939Y-103179025D01*
X116035694Y-103275851D01*
X116035695Y-103275854D01*
X116095793Y-103473968D01*
X116116085Y-103680000D01*
X116095793Y-103886032D01*
X116035695Y-104084146D01*
X116035694Y-104084149D01*
X115983939Y-104180975D01*
X115938103Y-104266729D01*
X115806765Y-104426765D01*
X115646729Y-104558103D01*
X115560975Y-104603939D01*
X115464149Y-104655694D01*
X115464146Y-104655695D01*
X115266032Y-104715793D01*
X115163097Y-104725931D01*
X115111631Y-104731000D01*
X113508369Y-104731000D01*
X113456903Y-104725931D01*
X113353968Y-104715793D01*
X113155854Y-104655695D01*
X113155851Y-104655694D01*
X113059025Y-104603939D01*
X112973271Y-104558103D01*
X112813235Y-104426765D01*
X112681897Y-104266729D01*
X112636061Y-104180975D01*
X112584306Y-104084149D01*
X112584305Y-104084146D01*
X112524207Y-103886032D01*
X112503915Y-103680000D01*
X112524207Y-103473968D01*
X112584305Y-103275854D01*
X112584306Y-103275851D01*
X112636061Y-103179025D01*
X112681897Y-103093271D01*
X112813235Y-102933235D01*
X112973271Y-102801897D01*
X113059025Y-102756061D01*
X113155851Y-102704306D01*
X113155854Y-102704305D01*
X113353968Y-102644207D01*
X113456903Y-102634069D01*
X113508369Y-102629000D01*
X115111631Y-102629000D01*
X115163097Y-102634069D01*
X115163097Y-102634069D01*
G37*
G36*
X146039000Y-98641000D02*
G01*
X144337000Y-98641000D01*
X144337000Y-96939000D01*
X146039000Y-96939000D01*
X146039000Y-98641000D01*
X146039000Y-98641000D01*
G37*
G36*
X147936228Y-96971703D02*
G01*
X148091100Y-97035853D01*
X148230481Y-97128985D01*
X148349015Y-97247519D01*
X148442147Y-97386900D01*
X148506297Y-97541772D01*
X148539000Y-97706184D01*
X148539000Y-97873816D01*
X148506297Y-98038228D01*
X148442147Y-98193100D01*
X148349015Y-98332481D01*
X148230481Y-98451015D01*
X148091100Y-98544147D01*
X147936228Y-98608297D01*
X147771816Y-98641000D01*
X147604184Y-98641000D01*
X147439772Y-98608297D01*
X147284900Y-98544147D01*
X147145519Y-98451015D01*
X147026985Y-98332481D01*
X146933853Y-98193100D01*
X146869703Y-98038228D01*
X146837000Y-97873816D01*
X146837000Y-97706184D01*
X146869703Y-97541772D01*
X146933853Y-97386900D01*
X147026985Y-97247519D01*
X147145519Y-97128985D01*
X147284900Y-97035853D01*
X147439772Y-96971703D01*
X147604184Y-96939000D01*
X147771816Y-96939000D01*
X147936228Y-96971703D01*
X147936228Y-96971703D01*
G37*
G36*
X128710425Y-95328760D02*
G01*
X128710428Y-95328761D01*
X128710429Y-95328761D01*
X128889693Y-95383140D01*
X128889696Y-95383142D01*
X128889697Y-95383142D01*
X129054903Y-95471446D01*
X129199712Y-95590288D01*
X129318554Y-95735097D01*
X129406858Y-95900303D01*
X129406860Y-95900307D01*
X129461239Y-96079571D01*
X129461240Y-96079575D01*
X129479601Y-96266000D01*
X129461240Y-96452425D01*
X129461239Y-96452428D01*
X129461239Y-96452429D01*
X129406860Y-96631693D01*
X129406858Y-96631696D01*
X129406858Y-96631697D01*
X129318554Y-96796903D01*
X129199712Y-96941712D01*
X129054903Y-97060554D01*
X128889697Y-97148858D01*
X128889693Y-97148860D01*
X128710429Y-97203239D01*
X128710428Y-97203239D01*
X128710425Y-97203240D01*
X128570718Y-97217000D01*
X128477282Y-97217000D01*
X128337575Y-97203240D01*
X128337572Y-97203239D01*
X128337571Y-97203239D01*
X128158307Y-97148860D01*
X128158303Y-97148858D01*
X127993097Y-97060554D01*
X127848288Y-96941712D01*
X127729446Y-96796903D01*
X127641142Y-96631697D01*
X127641142Y-96631696D01*
X127641140Y-96631693D01*
X127586761Y-96452429D01*
X127586761Y-96452428D01*
X127586760Y-96452425D01*
X127568399Y-96266000D01*
X127586760Y-96079575D01*
X127586761Y-96079571D01*
X127641140Y-95900307D01*
X127641142Y-95900303D01*
X127729446Y-95735097D01*
X127848288Y-95590288D01*
X127993097Y-95471446D01*
X128158303Y-95383142D01*
X128158304Y-95383142D01*
X128158307Y-95383140D01*
X128337571Y-95328761D01*
X128337572Y-95328761D01*
X128337575Y-95328760D01*
X128477282Y-95315000D01*
X128570718Y-95315000D01*
X128710425Y-95328760D01*
X128710425Y-95328760D01*
G37*
G36*
X116775000Y-97217000D02*
G01*
X114873000Y-97217000D01*
X114873000Y-95315000D01*
X116775000Y-95315000D01*
X116775000Y-97217000D01*
X116775000Y-97217000D01*
G37*
G36*
X133539000Y-89951700D02*
G01*
X131637000Y-89951700D01*
X131637000Y-88049700D01*
X133539000Y-88049700D01*
X133539000Y-89951700D01*
X133539000Y-89951700D01*
G37*
G36*
X116775000Y-89951700D02*
G01*
X114873000Y-89951700D01*
X114873000Y-88049700D01*
X116775000Y-88049700D01*
X116775000Y-89951700D01*
X116775000Y-89951700D01*
G37*
G36*
X128710425Y-88063460D02*
G01*
X128710428Y-88063461D01*
X128710429Y-88063461D01*
X128889693Y-88117840D01*
X128889696Y-88117842D01*
X128889697Y-88117842D01*
X129054903Y-88206146D01*
X129199712Y-88324988D01*
X129318554Y-88469797D01*
X129406858Y-88635003D01*
X129406860Y-88635007D01*
X129461239Y-88814271D01*
X129461240Y-88814275D01*
X129479601Y-89000700D01*
X129461240Y-89187125D01*
X129461239Y-89187128D01*
X129461239Y-89187129D01*
X129406860Y-89366393D01*
X129406858Y-89366396D01*
X129406858Y-89366397D01*
X129318554Y-89531603D01*
X129199712Y-89676412D01*
X129054903Y-89795254D01*
X128889697Y-89883558D01*
X128889693Y-89883560D01*
X128710429Y-89937939D01*
X128710428Y-89937939D01*
X128710425Y-89937940D01*
X128570718Y-89951700D01*
X128477282Y-89951700D01*
X128337575Y-89937940D01*
X128337572Y-89937939D01*
X128337571Y-89937939D01*
X128158307Y-89883560D01*
X128158303Y-89883558D01*
X127993097Y-89795254D01*
X127848288Y-89676412D01*
X127729446Y-89531603D01*
X127641142Y-89366397D01*
X127641142Y-89366396D01*
X127641140Y-89366393D01*
X127586761Y-89187129D01*
X127586761Y-89187128D01*
X127586760Y-89187125D01*
X127568399Y-89000700D01*
X127586760Y-88814275D01*
X127586761Y-88814271D01*
X127641140Y-88635007D01*
X127641142Y-88635003D01*
X127729446Y-88469797D01*
X127848288Y-88324988D01*
X127993097Y-88206146D01*
X128158303Y-88117842D01*
X128158304Y-88117842D01*
X128158307Y-88117840D01*
X128337571Y-88063461D01*
X128337572Y-88063461D01*
X128337575Y-88063460D01*
X128477282Y-88049700D01*
X128570718Y-88049700D01*
X128710425Y-88063460D01*
X128710425Y-88063460D01*
G37*
G36*
X145474425Y-88063460D02*
G01*
X145474428Y-88063461D01*
X145474429Y-88063461D01*
X145653693Y-88117840D01*
X145653696Y-88117842D01*
X145653697Y-88117842D01*
X145818903Y-88206146D01*
X145963712Y-88324988D01*
X146082554Y-88469797D01*
X146170858Y-88635003D01*
X146170860Y-88635007D01*
X146225239Y-88814271D01*
X146225240Y-88814275D01*
X146243601Y-89000700D01*
X146225240Y-89187125D01*
X146225239Y-89187128D01*
X146225239Y-89187129D01*
X146170860Y-89366393D01*
X146170858Y-89366396D01*
X146170858Y-89366397D01*
X146082554Y-89531603D01*
X145963712Y-89676412D01*
X145818903Y-89795254D01*
X145653697Y-89883558D01*
X145653693Y-89883560D01*
X145474429Y-89937939D01*
X145474428Y-89937939D01*
X145474425Y-89937940D01*
X145334718Y-89951700D01*
X145241282Y-89951700D01*
X145101575Y-89937940D01*
X145101572Y-89937939D01*
X145101571Y-89937939D01*
X144922307Y-89883560D01*
X144922303Y-89883558D01*
X144757097Y-89795254D01*
X144612288Y-89676412D01*
X144493446Y-89531603D01*
X144405142Y-89366397D01*
X144405142Y-89366396D01*
X144405140Y-89366393D01*
X144350761Y-89187129D01*
X144350761Y-89187128D01*
X144350760Y-89187125D01*
X144332399Y-89000700D01*
X144350760Y-88814275D01*
X144350761Y-88814271D01*
X144405140Y-88635007D01*
X144405142Y-88635003D01*
X144493446Y-88469797D01*
X144612288Y-88324988D01*
X144757097Y-88206146D01*
X144922303Y-88117842D01*
X144922304Y-88117842D01*
X144922307Y-88117840D01*
X145101571Y-88063461D01*
X145101572Y-88063461D01*
X145101575Y-88063460D01*
X145241282Y-88049700D01*
X145334718Y-88049700D01*
X145474425Y-88063460D01*
X145474425Y-88063460D01*
G37*
G36*
X151804823Y-83791313D02*
G01*
X151965242Y-83839976D01*
X152097906Y-83910886D01*
X152113078Y-83918996D01*
X152242659Y-84025341D01*
X152349004Y-84154922D01*
X152349005Y-84154924D01*
X152428024Y-84302758D01*
X152476687Y-84463177D01*
X152493117Y-84630000D01*
X152476687Y-84796823D01*
X152428024Y-84957242D01*
X152357114Y-85089906D01*
X152349004Y-85105078D01*
X152242659Y-85234659D01*
X152113078Y-85341004D01*
X152113076Y-85341005D01*
X151965242Y-85420024D01*
X151804823Y-85468687D01*
X151679804Y-85481000D01*
X151596196Y-85481000D01*
X151471177Y-85468687D01*
X151310758Y-85420024D01*
X151162924Y-85341005D01*
X151162922Y-85341004D01*
X151033341Y-85234659D01*
X150926996Y-85105078D01*
X150918886Y-85089906D01*
X150847976Y-84957242D01*
X150799313Y-84796823D01*
X150782883Y-84630000D01*
X150799313Y-84463177D01*
X150847976Y-84302758D01*
X150926995Y-84154924D01*
X150926996Y-84154922D01*
X151033341Y-84025341D01*
X151162922Y-83918996D01*
X151178094Y-83910886D01*
X151310758Y-83839976D01*
X151471177Y-83791313D01*
X151596196Y-83779000D01*
X151679804Y-83779000D01*
X151804823Y-83791313D01*
X151804823Y-83791313D01*
G37*
G36*
X133539000Y-82686300D02*
G01*
X131637000Y-82686300D01*
X131637000Y-80784300D01*
X133539000Y-80784300D01*
X133539000Y-82686300D01*
X133539000Y-82686300D01*
G37*
G36*
X116775000Y-82686300D02*
G01*
X114873000Y-82686300D01*
X114873000Y-80784300D01*
X116775000Y-80784300D01*
X116775000Y-82686300D01*
X116775000Y-82686300D01*
G37*
G36*
X145474425Y-80798060D02*
G01*
X145474428Y-80798061D01*
X145474429Y-80798061D01*
X145653693Y-80852440D01*
X145653696Y-80852442D01*
X145653697Y-80852442D01*
X145818903Y-80940746D01*
X145963712Y-81059588D01*
X146082554Y-81204397D01*
X146170858Y-81369603D01*
X146170860Y-81369607D01*
X146225239Y-81548871D01*
X146225240Y-81548875D01*
X146243601Y-81735300D01*
X146225240Y-81921725D01*
X146225239Y-81921728D01*
X146225239Y-81921729D01*
X146170860Y-82100993D01*
X146170858Y-82100996D01*
X146170858Y-82100997D01*
X146082554Y-82266203D01*
X145963712Y-82411012D01*
X145818903Y-82529854D01*
X145653697Y-82618158D01*
X145653693Y-82618160D01*
X145474429Y-82672539D01*
X145474428Y-82672539D01*
X145474425Y-82672540D01*
X145334718Y-82686300D01*
X145241282Y-82686300D01*
X145101575Y-82672540D01*
X145101572Y-82672539D01*
X145101571Y-82672539D01*
X144922307Y-82618160D01*
X144922303Y-82618158D01*
X144757097Y-82529854D01*
X144612288Y-82411012D01*
X144493446Y-82266203D01*
X144405142Y-82100997D01*
X144405142Y-82100996D01*
X144405140Y-82100993D01*
X144350761Y-81921729D01*
X144350761Y-81921728D01*
X144350760Y-81921725D01*
X144332399Y-81735300D01*
X144350760Y-81548875D01*
X144350761Y-81548871D01*
X144405140Y-81369607D01*
X144405142Y-81369603D01*
X144493446Y-81204397D01*
X144612288Y-81059588D01*
X144757097Y-80940746D01*
X144922303Y-80852442D01*
X144922304Y-80852442D01*
X144922307Y-80852440D01*
X145101571Y-80798061D01*
X145101572Y-80798061D01*
X145101575Y-80798060D01*
X145241282Y-80784300D01*
X145334718Y-80784300D01*
X145474425Y-80798060D01*
X145474425Y-80798060D01*
G37*
G36*
X128710425Y-80798060D02*
G01*
X128710428Y-80798061D01*
X128710429Y-80798061D01*
X128889693Y-80852440D01*
X128889696Y-80852442D01*
X128889697Y-80852442D01*
X129054903Y-80940746D01*
X129199712Y-81059588D01*
X129318554Y-81204397D01*
X129406858Y-81369603D01*
X129406860Y-81369607D01*
X129461239Y-81548871D01*
X129461240Y-81548875D01*
X129479601Y-81735300D01*
X129461240Y-81921725D01*
X129461239Y-81921728D01*
X129461239Y-81921729D01*
X129406860Y-82100993D01*
X129406858Y-82100996D01*
X129406858Y-82100997D01*
X129318554Y-82266203D01*
X129199712Y-82411012D01*
X129054903Y-82529854D01*
X128889697Y-82618158D01*
X128889693Y-82618160D01*
X128710429Y-82672539D01*
X128710428Y-82672539D01*
X128710425Y-82672540D01*
X128570718Y-82686300D01*
X128477282Y-82686300D01*
X128337575Y-82672540D01*
X128337572Y-82672539D01*
X128337571Y-82672539D01*
X128158307Y-82618160D01*
X128158303Y-82618158D01*
X127993097Y-82529854D01*
X127848288Y-82411012D01*
X127729446Y-82266203D01*
X127641142Y-82100997D01*
X127641142Y-82100996D01*
X127641140Y-82100993D01*
X127586761Y-81921729D01*
X127586761Y-81921728D01*
X127586760Y-81921725D01*
X127568399Y-81735300D01*
X127586760Y-81548875D01*
X127586761Y-81548871D01*
X127641140Y-81369607D01*
X127641142Y-81369603D01*
X127729446Y-81204397D01*
X127848288Y-81059588D01*
X127993097Y-80940746D01*
X128158303Y-80852442D01*
X128158304Y-80852442D01*
X128158307Y-80852440D01*
X128337571Y-80798061D01*
X128337572Y-80798061D01*
X128337575Y-80798060D01*
X128477282Y-80784300D01*
X128570718Y-80784300D01*
X128710425Y-80798060D01*
X128710425Y-80798060D01*
G37*
G36*
X133539000Y-75421000D02*
G01*
X131637000Y-75421000D01*
X131637000Y-73519000D01*
X133539000Y-73519000D01*
X133539000Y-75421000D01*
X133539000Y-75421000D01*
G37*
G36*
X145474425Y-73532760D02*
G01*
X145474428Y-73532761D01*
X145474429Y-73532761D01*
X145653693Y-73587140D01*
X145653696Y-73587142D01*
X145653697Y-73587142D01*
X145818903Y-73675446D01*
X145963712Y-73794288D01*
X146082554Y-73939097D01*
X146150867Y-74066903D01*
X146170860Y-74104307D01*
X146225239Y-74283571D01*
X146225240Y-74283575D01*
X146243601Y-74470000D01*
X146225240Y-74656425D01*
X146225239Y-74656428D01*
X146225239Y-74656429D01*
X146170860Y-74835693D01*
X146170858Y-74835696D01*
X146170858Y-74835697D01*
X146082554Y-75000903D01*
X145963712Y-75145712D01*
X145818903Y-75264554D01*
X145713299Y-75321000D01*
X145653693Y-75352860D01*
X145474429Y-75407239D01*
X145474428Y-75407239D01*
X145474425Y-75407240D01*
X145334718Y-75421000D01*
X145241282Y-75421000D01*
X145101575Y-75407240D01*
X145101572Y-75407239D01*
X145101571Y-75407239D01*
X144922307Y-75352860D01*
X144862701Y-75321000D01*
X144757097Y-75264554D01*
X144612288Y-75145712D01*
X144493446Y-75000903D01*
X144405142Y-74835697D01*
X144405142Y-74835696D01*
X144405140Y-74835693D01*
X144350761Y-74656429D01*
X144350761Y-74656428D01*
X144350760Y-74656425D01*
X144332399Y-74470000D01*
X144350760Y-74283575D01*
X144350761Y-74283571D01*
X144405140Y-74104307D01*
X144425133Y-74066903D01*
X144493446Y-73939097D01*
X144612288Y-73794288D01*
X144757097Y-73675446D01*
X144922303Y-73587142D01*
X144922304Y-73587142D01*
X144922307Y-73587140D01*
X145101571Y-73532761D01*
X145101572Y-73532761D01*
X145101575Y-73532760D01*
X145241282Y-73519000D01*
X145334718Y-73519000D01*
X145474425Y-73532760D01*
X145474425Y-73532760D01*
G37*
G36*
X128710425Y-73532760D02*
G01*
X128710428Y-73532761D01*
X128710429Y-73532761D01*
X128889693Y-73587140D01*
X128889696Y-73587142D01*
X128889697Y-73587142D01*
X129054903Y-73675446D01*
X129199712Y-73794288D01*
X129318554Y-73939097D01*
X129386867Y-74066903D01*
X129406860Y-74104307D01*
X129461239Y-74283571D01*
X129461240Y-74283575D01*
X129479601Y-74470000D01*
X129461240Y-74656425D01*
X129461239Y-74656428D01*
X129461239Y-74656429D01*
X129406860Y-74835693D01*
X129406858Y-74835696D01*
X129406858Y-74835697D01*
X129318554Y-75000903D01*
X129199712Y-75145712D01*
X129054903Y-75264554D01*
X128949299Y-75321000D01*
X128889693Y-75352860D01*
X128710429Y-75407239D01*
X128710428Y-75407239D01*
X128710425Y-75407240D01*
X128570718Y-75421000D01*
X128477282Y-75421000D01*
X128337575Y-75407240D01*
X128337572Y-75407239D01*
X128337571Y-75407239D01*
X128158307Y-75352860D01*
X128098701Y-75321000D01*
X127993097Y-75264554D01*
X127848288Y-75145712D01*
X127729446Y-75000903D01*
X127641142Y-74835697D01*
X127641142Y-74835696D01*
X127641140Y-74835693D01*
X127586761Y-74656429D01*
X127586761Y-74656428D01*
X127586760Y-74656425D01*
X127568399Y-74470000D01*
X127586760Y-74283575D01*
X127586761Y-74283571D01*
X127641140Y-74104307D01*
X127661133Y-74066903D01*
X127729446Y-73939097D01*
X127848288Y-73794288D01*
X127993097Y-73675446D01*
X128158303Y-73587142D01*
X128158304Y-73587142D01*
X128158307Y-73587140D01*
X128337571Y-73532761D01*
X128337572Y-73532761D01*
X128337575Y-73532760D01*
X128477282Y-73519000D01*
X128570718Y-73519000D01*
X128710425Y-73532760D01*
X128710425Y-73532760D01*
G37*
G36*
X116775000Y-75421000D02*
G01*
X114873000Y-75421000D01*
X114873000Y-73519000D01*
X116775000Y-73519000D01*
X116775000Y-75421000D01*
X116775000Y-75421000D01*
G37*
G36*
X151886228Y-73651703D02*
G01*
X152041100Y-73715853D01*
X152180481Y-73808985D01*
X152299015Y-73927519D01*
X152392147Y-74066900D01*
X152456297Y-74221772D01*
X152489000Y-74386184D01*
X152489000Y-74553816D01*
X152456297Y-74718228D01*
X152392147Y-74873100D01*
X152299015Y-75012481D01*
X152180481Y-75131015D01*
X152041100Y-75224147D01*
X151886228Y-75288297D01*
X151721816Y-75321000D01*
X151554184Y-75321000D01*
X151389772Y-75288297D01*
X151234900Y-75224147D01*
X151095519Y-75131015D01*
X150976985Y-75012481D01*
X150883853Y-74873100D01*
X150819703Y-74718228D01*
X150787000Y-74553816D01*
X150787000Y-74386184D01*
X150819703Y-74221772D01*
X150883853Y-74066900D01*
X150976985Y-73927519D01*
X151095519Y-73808985D01*
X151234900Y-73715853D01*
X151389772Y-73651703D01*
X151554184Y-73619000D01*
X151721816Y-73619000D01*
X151886228Y-73651703D01*
X151886228Y-73651703D01*
G37*
G36*
X126050823Y-65677313D02*
G01*
X126211242Y-65725976D01*
X126278361Y-65761852D01*
X126359078Y-65804996D01*
X126488659Y-65911341D01*
X126595004Y-66040922D01*
X126595005Y-66040924D01*
X126674024Y-66188758D01*
X126722687Y-66349177D01*
X126739117Y-66516000D01*
X126722687Y-66682823D01*
X126674024Y-66843242D01*
X126633477Y-66919100D01*
X126595004Y-66991078D01*
X126488659Y-67120659D01*
X126359078Y-67227004D01*
X126359076Y-67227005D01*
X126211242Y-67306024D01*
X126050823Y-67354687D01*
X125925804Y-67367000D01*
X125842196Y-67367000D01*
X125717177Y-67354687D01*
X125556758Y-67306024D01*
X125408924Y-67227005D01*
X125408922Y-67227004D01*
X125279341Y-67120659D01*
X125172996Y-66991078D01*
X125134523Y-66919100D01*
X125093976Y-66843242D01*
X125045313Y-66682823D01*
X125028883Y-66516000D01*
X125045313Y-66349177D01*
X125093976Y-66188758D01*
X125172995Y-66040924D01*
X125172996Y-66040922D01*
X125279341Y-65911341D01*
X125408922Y-65804996D01*
X125489639Y-65761852D01*
X125556758Y-65725976D01*
X125717177Y-65677313D01*
X125842196Y-65665000D01*
X125925804Y-65665000D01*
X126050823Y-65677313D01*
X126050823Y-65677313D01*
G37*
G36*
X115972228Y-65697703D02*
G01*
X116127100Y-65761853D01*
X116266481Y-65854985D01*
X116385015Y-65973519D01*
X116478147Y-66112900D01*
X116542297Y-66267772D01*
X116575000Y-66432184D01*
X116575000Y-66599816D01*
X116542297Y-66764228D01*
X116478147Y-66919100D01*
X116385015Y-67058481D01*
X116266481Y-67177015D01*
X116127100Y-67270147D01*
X115972228Y-67334297D01*
X115807816Y-67367000D01*
X115640184Y-67367000D01*
X115475772Y-67334297D01*
X115320900Y-67270147D01*
X115181519Y-67177015D01*
X115062985Y-67058481D01*
X114969853Y-66919100D01*
X114905703Y-66764228D01*
X114873000Y-66599816D01*
X114873000Y-66432184D01*
X114905703Y-66267772D01*
X114969853Y-66112900D01*
X115062985Y-65973519D01*
X115181519Y-65854985D01*
X115320900Y-65761853D01*
X115475772Y-65697703D01*
X115640184Y-65665000D01*
X115807816Y-65665000D01*
X115972228Y-65697703D01*
X115972228Y-65697703D01*
G37*
G36*
X142837000Y-61557000D02*
G01*
X141135000Y-61557000D01*
X141135000Y-59855000D01*
X142837000Y-59855000D01*
X142837000Y-61557000D01*
X142837000Y-61557000D01*
G37*
G36*
X116775000Y-61094300D02*
G01*
X114873000Y-61094300D01*
X114873000Y-59192300D01*
X116775000Y-59192300D01*
X116775000Y-61094300D01*
X116775000Y-61094300D01*
G37*
G36*
X128710425Y-59206060D02*
G01*
X128710428Y-59206061D01*
X128710429Y-59206061D01*
X128889693Y-59260440D01*
X128889696Y-59260442D01*
X128889697Y-59260442D01*
X129054903Y-59348746D01*
X129199712Y-59467588D01*
X129318554Y-59612397D01*
X129378260Y-59724100D01*
X129406860Y-59777607D01*
X129461239Y-59956871D01*
X129461240Y-59956875D01*
X129479601Y-60143300D01*
X129461240Y-60329725D01*
X129461239Y-60329728D01*
X129461239Y-60329729D01*
X129406860Y-60508993D01*
X129406858Y-60508996D01*
X129406858Y-60508997D01*
X129318554Y-60674203D01*
X129199712Y-60819012D01*
X129054903Y-60937854D01*
X128889697Y-61026158D01*
X128889693Y-61026160D01*
X128710429Y-61080539D01*
X128710428Y-61080539D01*
X128710425Y-61080540D01*
X128570718Y-61094300D01*
X128477282Y-61094300D01*
X128337575Y-61080540D01*
X128337572Y-61080539D01*
X128337571Y-61080539D01*
X128158307Y-61026160D01*
X128158303Y-61026158D01*
X127993097Y-60937854D01*
X127848288Y-60819012D01*
X127729446Y-60674203D01*
X127641142Y-60508997D01*
X127641142Y-60508996D01*
X127641140Y-60508993D01*
X127586761Y-60329729D01*
X127586761Y-60329728D01*
X127586760Y-60329725D01*
X127568399Y-60143300D01*
X127586760Y-59956875D01*
X127586761Y-59956871D01*
X127641140Y-59777607D01*
X127669740Y-59724100D01*
X127729446Y-59612397D01*
X127848288Y-59467588D01*
X127993097Y-59348746D01*
X128158303Y-59260442D01*
X128158304Y-59260442D01*
X128158307Y-59260440D01*
X128337571Y-59206061D01*
X128337572Y-59206061D01*
X128337575Y-59206060D01*
X128477282Y-59192300D01*
X128570718Y-59192300D01*
X128710425Y-59206060D01*
X128710425Y-59206060D01*
G37*
G36*
X144774228Y-58502703D02*
G01*
X144929100Y-58566853D01*
X145068481Y-58659985D01*
X145187015Y-58778519D01*
X145280147Y-58917900D01*
X145344297Y-59072772D01*
X145377000Y-59237184D01*
X145377000Y-59404816D01*
X145344297Y-59569228D01*
X145280147Y-59724100D01*
X145187015Y-59863481D01*
X145068481Y-59982015D01*
X144929100Y-60075147D01*
X144774228Y-60139297D01*
X144609816Y-60172000D01*
X144442184Y-60172000D01*
X144277772Y-60139297D01*
X144122900Y-60075147D01*
X143983519Y-59982015D01*
X143864985Y-59863481D01*
X143771853Y-59724100D01*
X143707703Y-59569228D01*
X143675000Y-59404816D01*
X143675000Y-59237184D01*
X143707703Y-59072772D01*
X143771853Y-58917900D01*
X143864985Y-58778519D01*
X143983519Y-58659985D01*
X144122900Y-58566853D01*
X144277772Y-58502703D01*
X144442184Y-58470000D01*
X144609816Y-58470000D01*
X144774228Y-58502703D01*
X144774228Y-58502703D01*
G37*
G36*
X142234228Y-57117703D02*
G01*
X142389100Y-57181853D01*
X142528481Y-57274985D01*
X142647015Y-57393519D01*
X142740147Y-57532900D01*
X142804297Y-57687772D01*
X142837000Y-57852184D01*
X142837000Y-58019816D01*
X142804297Y-58184228D01*
X142740147Y-58339100D01*
X142647015Y-58478481D01*
X142528481Y-58597015D01*
X142389100Y-58690147D01*
X142234228Y-58754297D01*
X142069816Y-58787000D01*
X141902184Y-58787000D01*
X141737772Y-58754297D01*
X141582900Y-58690147D01*
X141443519Y-58597015D01*
X141324985Y-58478481D01*
X141231853Y-58339100D01*
X141167703Y-58184228D01*
X141135000Y-58019816D01*
X141135000Y-57852184D01*
X141167703Y-57687772D01*
X141231853Y-57532900D01*
X141324985Y-57393519D01*
X141443519Y-57274985D01*
X141582900Y-57181853D01*
X141737772Y-57117703D01*
X141902184Y-57085000D01*
X142069816Y-57085000D01*
X142234228Y-57117703D01*
X142234228Y-57117703D01*
G37*
G36*
X144774228Y-55732703D02*
G01*
X144929100Y-55796853D01*
X145068481Y-55889985D01*
X145187015Y-56008519D01*
X145280147Y-56147900D01*
X145344297Y-56302772D01*
X145377000Y-56467184D01*
X145377000Y-56634816D01*
X145344297Y-56799228D01*
X145280147Y-56954100D01*
X145187015Y-57093481D01*
X145068481Y-57212015D01*
X144929100Y-57305147D01*
X144774228Y-57369297D01*
X144609816Y-57402000D01*
X144442184Y-57402000D01*
X144277772Y-57369297D01*
X144122900Y-57305147D01*
X143983519Y-57212015D01*
X143864985Y-57093481D01*
X143771853Y-56954100D01*
X143707703Y-56799228D01*
X143675000Y-56634816D01*
X143675000Y-56467184D01*
X143707703Y-56302772D01*
X143771853Y-56147900D01*
X143864985Y-56008519D01*
X143983519Y-55889985D01*
X144122900Y-55796853D01*
X144277772Y-55732703D01*
X144442184Y-55700000D01*
X144609816Y-55700000D01*
X144774228Y-55732703D01*
X144774228Y-55732703D01*
G37*
G36*
X142234228Y-54347703D02*
G01*
X142389100Y-54411853D01*
X142528481Y-54504985D01*
X142647015Y-54623519D01*
X142740147Y-54762900D01*
X142804297Y-54917772D01*
X142837000Y-55082184D01*
X142837000Y-55249816D01*
X142804297Y-55414228D01*
X142740147Y-55569100D01*
X142647015Y-55708481D01*
X142528481Y-55827015D01*
X142389100Y-55920147D01*
X142234228Y-55984297D01*
X142069816Y-56017000D01*
X141902184Y-56017000D01*
X141737772Y-55984297D01*
X141582900Y-55920147D01*
X141443519Y-55827015D01*
X141324985Y-55708481D01*
X141231853Y-55569100D01*
X141167703Y-55414228D01*
X141135000Y-55249816D01*
X141135000Y-55082184D01*
X141167703Y-54917772D01*
X141231853Y-54762900D01*
X141324985Y-54623519D01*
X141443519Y-54504985D01*
X141582900Y-54411853D01*
X141737772Y-54347703D01*
X141902184Y-54315000D01*
X142069816Y-54315000D01*
X142234228Y-54347703D01*
X142234228Y-54347703D01*
G37*
G36*
X144774228Y-52962703D02*
G01*
X144929100Y-53026853D01*
X145068481Y-53119985D01*
X145187015Y-53238519D01*
X145280147Y-53377900D01*
X145344297Y-53532772D01*
X145377000Y-53697184D01*
X145377000Y-53864816D01*
X145344297Y-54029228D01*
X145280147Y-54184100D01*
X145187015Y-54323481D01*
X145068481Y-54442015D01*
X144929100Y-54535147D01*
X144774228Y-54599297D01*
X144609816Y-54632000D01*
X144442184Y-54632000D01*
X144277772Y-54599297D01*
X144122900Y-54535147D01*
X143983519Y-54442015D01*
X143864985Y-54323481D01*
X143771853Y-54184100D01*
X143707703Y-54029228D01*
X143675000Y-53864816D01*
X143675000Y-53697184D01*
X143707703Y-53532772D01*
X143771853Y-53377900D01*
X143864985Y-53238519D01*
X143983519Y-53119985D01*
X144122900Y-53026853D01*
X144277772Y-52962703D01*
X144442184Y-52930000D01*
X144609816Y-52930000D01*
X144774228Y-52962703D01*
X144774228Y-52962703D01*
G37*
G36*
X126050823Y-52932013D02*
G01*
X126211242Y-52980676D01*
X126278361Y-53016552D01*
X126359078Y-53059696D01*
X126488659Y-53166041D01*
X126595004Y-53295622D01*
X126595005Y-53295624D01*
X126674024Y-53443458D01*
X126722687Y-53603877D01*
X126739117Y-53770700D01*
X126722687Y-53937523D01*
X126674024Y-54097942D01*
X126603114Y-54230606D01*
X126595004Y-54245778D01*
X126488659Y-54375359D01*
X126359078Y-54481704D01*
X126359076Y-54481705D01*
X126211242Y-54560724D01*
X126050823Y-54609387D01*
X125925804Y-54621700D01*
X125842196Y-54621700D01*
X125717177Y-54609387D01*
X125556758Y-54560724D01*
X125408924Y-54481705D01*
X125408922Y-54481704D01*
X125279341Y-54375359D01*
X125172996Y-54245778D01*
X125164886Y-54230606D01*
X125093976Y-54097942D01*
X125045313Y-53937523D01*
X125028883Y-53770700D01*
X125045313Y-53603877D01*
X125093976Y-53443458D01*
X125172995Y-53295624D01*
X125172996Y-53295622D01*
X125279341Y-53166041D01*
X125408922Y-53059696D01*
X125489639Y-53016552D01*
X125556758Y-52980676D01*
X125717177Y-52932013D01*
X125842196Y-52919700D01*
X125925804Y-52919700D01*
X126050823Y-52932013D01*
X126050823Y-52932013D01*
G37*
G36*
X115972228Y-52952403D02*
G01*
X116127100Y-53016553D01*
X116266481Y-53109685D01*
X116385015Y-53228219D01*
X116478147Y-53367600D01*
X116542297Y-53522472D01*
X116575000Y-53686884D01*
X116575000Y-53854516D01*
X116542297Y-54018928D01*
X116478147Y-54173800D01*
X116385015Y-54313181D01*
X116266481Y-54431715D01*
X116127100Y-54524847D01*
X115972228Y-54588997D01*
X115807816Y-54621700D01*
X115640184Y-54621700D01*
X115475772Y-54588997D01*
X115320900Y-54524847D01*
X115181519Y-54431715D01*
X115062985Y-54313181D01*
X114969853Y-54173800D01*
X114905703Y-54018928D01*
X114873000Y-53854516D01*
X114873000Y-53686884D01*
X114905703Y-53522472D01*
X114969853Y-53367600D01*
X115062985Y-53228219D01*
X115181519Y-53109685D01*
X115320900Y-53016553D01*
X115475772Y-52952403D01*
X115640184Y-52919700D01*
X115807816Y-52919700D01*
X115972228Y-52952403D01*
X115972228Y-52952403D01*
G37*
G36*
X142234228Y-51577703D02*
G01*
X142389100Y-51641853D01*
X142528481Y-51734985D01*
X142647015Y-51853519D01*
X142740147Y-51992900D01*
X142804297Y-52147772D01*
X142837000Y-52312184D01*
X142837000Y-52479816D01*
X142804297Y-52644228D01*
X142740147Y-52799100D01*
X142647015Y-52938481D01*
X142528481Y-53057015D01*
X142389100Y-53150147D01*
X142234228Y-53214297D01*
X142069816Y-53247000D01*
X141902184Y-53247000D01*
X141737772Y-53214297D01*
X141582900Y-53150147D01*
X141443519Y-53057015D01*
X141324985Y-52938481D01*
X141231853Y-52799100D01*
X141167703Y-52644228D01*
X141135000Y-52479816D01*
X141135000Y-52312184D01*
X141167703Y-52147772D01*
X141231853Y-51992900D01*
X141324985Y-51853519D01*
X141443519Y-51734985D01*
X141582900Y-51641853D01*
X141737772Y-51577703D01*
X141902184Y-51545000D01*
X142069816Y-51545000D01*
X142234228Y-51577703D01*
X142234228Y-51577703D01*
G37*
G36*
X144774228Y-50192703D02*
G01*
X144929100Y-50256853D01*
X145068481Y-50349985D01*
X145187015Y-50468519D01*
X145280147Y-50607900D01*
X145344297Y-50762772D01*
X145377000Y-50927184D01*
X145377000Y-51094816D01*
X145344297Y-51259228D01*
X145280147Y-51414100D01*
X145187015Y-51553481D01*
X145068481Y-51672015D01*
X144929100Y-51765147D01*
X144774228Y-51829297D01*
X144609816Y-51862000D01*
X144442184Y-51862000D01*
X144277772Y-51829297D01*
X144122900Y-51765147D01*
X143983519Y-51672015D01*
X143864985Y-51553481D01*
X143771853Y-51414100D01*
X143707703Y-51259228D01*
X143675000Y-51094816D01*
X143675000Y-50927184D01*
X143707703Y-50762772D01*
X143771853Y-50607900D01*
X143864985Y-50468519D01*
X143983519Y-50349985D01*
X144122900Y-50256853D01*
X144277772Y-50192703D01*
X144442184Y-50160000D01*
X144609816Y-50160000D01*
X144774228Y-50192703D01*
X144774228Y-50192703D01*
G37*
G36*
X142234228Y-48807703D02*
G01*
X142389100Y-48871853D01*
X142528481Y-48964985D01*
X142647015Y-49083519D01*
X142740147Y-49222900D01*
X142804297Y-49377772D01*
X142837000Y-49542184D01*
X142837000Y-49709816D01*
X142804297Y-49874228D01*
X142740147Y-50029100D01*
X142647015Y-50168481D01*
X142528481Y-50287015D01*
X142389100Y-50380147D01*
X142234228Y-50444297D01*
X142069816Y-50477000D01*
X141902184Y-50477000D01*
X141737772Y-50444297D01*
X141582900Y-50380147D01*
X141443519Y-50287015D01*
X141324985Y-50168481D01*
X141231853Y-50029100D01*
X141167703Y-49874228D01*
X141135000Y-49709816D01*
X141135000Y-49542184D01*
X141167703Y-49377772D01*
X141231853Y-49222900D01*
X141324985Y-49083519D01*
X141443519Y-48964985D01*
X141582900Y-48871853D01*
X141737772Y-48807703D01*
X141902184Y-48775000D01*
X142069816Y-48775000D01*
X142234228Y-48807703D01*
X142234228Y-48807703D01*
G37*
G36*
X126050823Y-46659313D02*
G01*
X126211242Y-46707976D01*
X126278361Y-46743852D01*
X126359078Y-46786996D01*
X126488659Y-46893341D01*
X126595004Y-47022922D01*
X126595005Y-47022924D01*
X126674024Y-47170758D01*
X126722687Y-47331177D01*
X126739117Y-47498000D01*
X126722687Y-47664823D01*
X126674024Y-47825242D01*
X126633477Y-47901100D01*
X126595004Y-47973078D01*
X126488659Y-48102659D01*
X126359078Y-48209004D01*
X126359076Y-48209005D01*
X126211242Y-48288024D01*
X126050823Y-48336687D01*
X125925804Y-48349000D01*
X125842196Y-48349000D01*
X125717177Y-48336687D01*
X125556758Y-48288024D01*
X125408924Y-48209005D01*
X125408922Y-48209004D01*
X125279341Y-48102659D01*
X125172996Y-47973078D01*
X125134523Y-47901100D01*
X125093976Y-47825242D01*
X125045313Y-47664823D01*
X125028883Y-47498000D01*
X125045313Y-47331177D01*
X125093976Y-47170758D01*
X125172995Y-47022924D01*
X125172996Y-47022922D01*
X125279341Y-46893341D01*
X125408922Y-46786996D01*
X125489639Y-46743852D01*
X125556758Y-46707976D01*
X125717177Y-46659313D01*
X125842196Y-46647000D01*
X125925804Y-46647000D01*
X126050823Y-46659313D01*
X126050823Y-46659313D01*
G37*
G36*
X115972228Y-46679703D02*
G01*
X116127100Y-46743853D01*
X116266481Y-46836985D01*
X116385015Y-46955519D01*
X116478147Y-47094900D01*
X116542297Y-47249772D01*
X116575000Y-47414184D01*
X116575000Y-47581816D01*
X116542297Y-47746228D01*
X116478147Y-47901100D01*
X116385015Y-48040481D01*
X116266481Y-48159015D01*
X116127100Y-48252147D01*
X115972228Y-48316297D01*
X115807816Y-48349000D01*
X115640184Y-48349000D01*
X115475772Y-48316297D01*
X115320900Y-48252147D01*
X115181519Y-48159015D01*
X115062985Y-48040481D01*
X114969853Y-47901100D01*
X114905703Y-47746228D01*
X114873000Y-47581816D01*
X114873000Y-47414184D01*
X114905703Y-47249772D01*
X114969853Y-47094900D01*
X115062985Y-46955519D01*
X115181519Y-46836985D01*
X115320900Y-46743853D01*
X115475772Y-46679703D01*
X115640184Y-46647000D01*
X115807816Y-46647000D01*
X115972228Y-46679703D01*
X115972228Y-46679703D01*
G37*
M02*
