G04 #@! TF.GenerationSoftware,KiCad,Pcbnew,5.1.4-3.fc30*
G04 #@! TF.CreationDate,2019-09-19T16:23:22+02:00*
G04 #@! TF.ProjectId,dasa,64617361-2e6b-4696-9361-645f70636258,rev?*
G04 #@! TF.SameCoordinates,Original*
G04 #@! TF.FileFunction,Legend,Top*
G04 #@! TF.FilePolarity,Positive*
%FSLAX46Y46*%
G04 Gerber Fmt 4.6, Leading zero omitted, Abs format (unit mm)*
G04 Created by KiCad (PCBNEW 5.1.4-3.fc30) date 2019-09-19 16:23:22*
%MOMM*%
%LPD*%
G04 APERTURE LIST*
%ADD10C,0.120000*%
%ADD11C,0.150000*%
G04 APERTURE END LIST*
D10*
X122610000Y-107180000D02*
X122610000Y-109180000D01*
X109200000Y-103070000D02*
X112260000Y-103070000D01*
X109200000Y-113290000D02*
X109200000Y-103070000D01*
X112260000Y-113290000D02*
X109200000Y-113290000D01*
X122420000Y-113290000D02*
X116360000Y-113290000D01*
X122420000Y-110480000D02*
X122420000Y-113290000D01*
X122420000Y-103070000D02*
X122420000Y-105880000D01*
X116360000Y-103070000D02*
X122420000Y-103070000D01*
X151638000Y-83590000D02*
X151638000Y-82820000D01*
X151638000Y-75510000D02*
X151638000Y-76280000D01*
X153008000Y-82820000D02*
X153008000Y-76280000D01*
X150268000Y-82820000D02*
X153008000Y-82820000D01*
X150268000Y-76280000D02*
X150268000Y-82820000D01*
X153008000Y-76280000D02*
X150268000Y-76280000D01*
X124844000Y-47498000D02*
X124074000Y-47498000D01*
X116764000Y-47498000D02*
X117534000Y-47498000D01*
X124074000Y-46128000D02*
X117534000Y-46128000D01*
X124074000Y-48868000D02*
X124074000Y-46128000D01*
X117534000Y-48868000D02*
X124074000Y-48868000D01*
X117534000Y-46128000D02*
X117534000Y-48868000D01*
X124844000Y-53770700D02*
X124074000Y-53770700D01*
X116764000Y-53770700D02*
X117534000Y-53770700D01*
X124074000Y-52400700D02*
X117534000Y-52400700D01*
X124074000Y-55140700D02*
X124074000Y-52400700D01*
X117534000Y-55140700D02*
X124074000Y-55140700D01*
X117534000Y-52400700D02*
X117534000Y-55140700D01*
X124844000Y-66516000D02*
X124074000Y-66516000D01*
X116764000Y-66516000D02*
X117534000Y-66516000D01*
X124074000Y-65146000D02*
X117534000Y-65146000D01*
X124074000Y-67886000D02*
X124074000Y-65146000D01*
X117534000Y-67886000D02*
X124074000Y-67886000D01*
X117534000Y-65146000D02*
X117534000Y-67886000D01*
X131560000Y-114145000D02*
X131560000Y-111605000D01*
X131560000Y-114145000D02*
X134100000Y-114145000D01*
X131810000Y-113895000D02*
X131810000Y-104545000D01*
X152670000Y-113895000D02*
X131810000Y-113895000D01*
X152670000Y-104545000D02*
X152670000Y-113895000D01*
X131810000Y-104545000D02*
X152670000Y-104545000D01*
X140664675Y-60706000D02*
X140231662Y-60956000D01*
X140231662Y-60456000D02*
X140664675Y-60706000D01*
X140231662Y-60956000D02*
X140231662Y-60456000D01*
X149766000Y-46556000D02*
X153866000Y-46556000D01*
X149766000Y-48566000D02*
X149766000Y-46556000D01*
X140926000Y-48566000D02*
X149766000Y-48566000D01*
X140926000Y-61766000D02*
X140926000Y-48566000D01*
X149766000Y-61766000D02*
X140926000Y-61766000D01*
X149766000Y-63776000D02*
X149766000Y-61766000D01*
X153866000Y-63776000D02*
X149766000Y-63776000D01*
X120234000Y-87530700D02*
X120234000Y-90470700D01*
X120474000Y-87530700D02*
X120474000Y-90470700D01*
X120354000Y-87530700D02*
X120354000Y-90470700D01*
X127384000Y-89000700D02*
X124894000Y-89000700D01*
X116964000Y-89000700D02*
X119454000Y-89000700D01*
X124894000Y-87530700D02*
X119454000Y-87530700D01*
X124894000Y-90470700D02*
X124894000Y-87530700D01*
X119454000Y-90470700D02*
X124894000Y-90470700D01*
X119454000Y-87530700D02*
X119454000Y-90470700D01*
X136998000Y-87530700D02*
X136998000Y-90470700D01*
X137238000Y-87530700D02*
X137238000Y-90470700D01*
X137118000Y-87530700D02*
X137118000Y-90470700D01*
X144148000Y-89000700D02*
X141658000Y-89000700D01*
X133728000Y-89000700D02*
X136218000Y-89000700D01*
X141658000Y-87530700D02*
X136218000Y-87530700D01*
X141658000Y-90470700D02*
X141658000Y-87530700D01*
X136218000Y-90470700D02*
X141658000Y-90470700D01*
X136218000Y-87530700D02*
X136218000Y-90470700D01*
X120234000Y-73000000D02*
X120234000Y-75940000D01*
X120474000Y-73000000D02*
X120474000Y-75940000D01*
X120354000Y-73000000D02*
X120354000Y-75940000D01*
X127384000Y-74470000D02*
X124894000Y-74470000D01*
X116964000Y-74470000D02*
X119454000Y-74470000D01*
X124894000Y-73000000D02*
X119454000Y-73000000D01*
X124894000Y-75940000D02*
X124894000Y-73000000D01*
X119454000Y-75940000D02*
X124894000Y-75940000D01*
X119454000Y-73000000D02*
X119454000Y-75940000D01*
X136998000Y-73000000D02*
X136998000Y-75940000D01*
X137238000Y-73000000D02*
X137238000Y-75940000D01*
X137118000Y-73000000D02*
X137118000Y-75940000D01*
X144148000Y-74470000D02*
X141658000Y-74470000D01*
X133728000Y-74470000D02*
X136218000Y-74470000D01*
X141658000Y-73000000D02*
X136218000Y-73000000D01*
X141658000Y-75940000D02*
X141658000Y-73000000D01*
X136218000Y-75940000D02*
X141658000Y-75940000D01*
X136218000Y-73000000D02*
X136218000Y-75940000D01*
X120234000Y-80265300D02*
X120234000Y-83205300D01*
X120474000Y-80265300D02*
X120474000Y-83205300D01*
X120354000Y-80265300D02*
X120354000Y-83205300D01*
X127384000Y-81735300D02*
X124894000Y-81735300D01*
X116964000Y-81735300D02*
X119454000Y-81735300D01*
X124894000Y-80265300D02*
X119454000Y-80265300D01*
X124894000Y-83205300D02*
X124894000Y-80265300D01*
X119454000Y-83205300D02*
X124894000Y-83205300D01*
X119454000Y-80265300D02*
X119454000Y-83205300D01*
X136998000Y-80265300D02*
X136998000Y-83205300D01*
X137238000Y-80265300D02*
X137238000Y-83205300D01*
X137118000Y-80265300D02*
X137118000Y-83205300D01*
X144148000Y-81735300D02*
X141658000Y-81735300D01*
X133728000Y-81735300D02*
X136218000Y-81735300D01*
X141658000Y-80265300D02*
X136218000Y-80265300D01*
X141658000Y-83205300D02*
X141658000Y-80265300D01*
X136218000Y-83205300D02*
X141658000Y-83205300D01*
X136218000Y-80265300D02*
X136218000Y-83205300D01*
X120234000Y-94796000D02*
X120234000Y-97736000D01*
X120474000Y-94796000D02*
X120474000Y-97736000D01*
X120354000Y-94796000D02*
X120354000Y-97736000D01*
X127384000Y-96266000D02*
X124894000Y-96266000D01*
X116964000Y-96266000D02*
X119454000Y-96266000D01*
X124894000Y-94796000D02*
X119454000Y-94796000D01*
X124894000Y-97736000D02*
X124894000Y-94796000D01*
X119454000Y-97736000D02*
X124894000Y-97736000D01*
X119454000Y-94796000D02*
X119454000Y-97736000D01*
X120234000Y-58673300D02*
X120234000Y-61613300D01*
X120474000Y-58673300D02*
X120474000Y-61613300D01*
X120354000Y-58673300D02*
X120354000Y-61613300D01*
X127384000Y-60143300D02*
X124894000Y-60143300D01*
X116964000Y-60143300D02*
X119454000Y-60143300D01*
X124894000Y-58673300D02*
X119454000Y-58673300D01*
X124894000Y-61613300D02*
X124894000Y-58673300D01*
X119454000Y-61613300D02*
X124894000Y-61613300D01*
X119454000Y-58673300D02*
X119454000Y-61613300D01*
X142428302Y-95075000D02*
X142428302Y-95875000D01*
X142028302Y-95475000D02*
X142828302Y-95475000D01*
X150519000Y-97257000D02*
X150519000Y-98323000D01*
X150479000Y-97022000D02*
X150479000Y-98558000D01*
X150439000Y-96842000D02*
X150439000Y-98738000D01*
X150399000Y-96692000D02*
X150399000Y-98888000D01*
X150359000Y-96561000D02*
X150359000Y-99019000D01*
X150319000Y-96444000D02*
X150319000Y-99136000D01*
X150279000Y-96337000D02*
X150279000Y-99243000D01*
X150239000Y-96238000D02*
X150239000Y-99342000D01*
X150199000Y-96145000D02*
X150199000Y-99435000D01*
X150159000Y-96059000D02*
X150159000Y-99521000D01*
X150119000Y-95977000D02*
X150119000Y-99603000D01*
X150079000Y-95900000D02*
X150079000Y-99680000D01*
X150039000Y-95826000D02*
X150039000Y-99754000D01*
X149999000Y-95756000D02*
X149999000Y-99824000D01*
X149959000Y-95688000D02*
X149959000Y-99892000D01*
X149919000Y-95624000D02*
X149919000Y-99956000D01*
X149879000Y-95562000D02*
X149879000Y-100018000D01*
X149839000Y-95503000D02*
X149839000Y-100077000D01*
X149799000Y-95445000D02*
X149799000Y-100135000D01*
X149759000Y-95390000D02*
X149759000Y-100190000D01*
X149719000Y-95336000D02*
X149719000Y-100244000D01*
X149679000Y-95285000D02*
X149679000Y-100295000D01*
X149639000Y-95234000D02*
X149639000Y-100346000D01*
X149599000Y-95186000D02*
X149599000Y-100394000D01*
X149559000Y-95139000D02*
X149559000Y-100441000D01*
X149519000Y-95093000D02*
X149519000Y-100487000D01*
X149479000Y-95049000D02*
X149479000Y-100531000D01*
X149439000Y-95006000D02*
X149439000Y-100574000D01*
X149399000Y-94964000D02*
X149399000Y-100616000D01*
X149359000Y-94923000D02*
X149359000Y-100657000D01*
X149319000Y-94883000D02*
X149319000Y-100697000D01*
X149279000Y-94845000D02*
X149279000Y-100735000D01*
X149239000Y-94807000D02*
X149239000Y-100773000D01*
X149199000Y-94771000D02*
X149199000Y-100809000D01*
X149159000Y-94735000D02*
X149159000Y-100845000D01*
X149119000Y-94700000D02*
X149119000Y-100880000D01*
X149079000Y-94666000D02*
X149079000Y-100914000D01*
X149039000Y-94634000D02*
X149039000Y-100946000D01*
X148999000Y-94601000D02*
X148999000Y-100979000D01*
X148959000Y-94570000D02*
X148959000Y-101010000D01*
X148919000Y-94540000D02*
X148919000Y-101040000D01*
X148879000Y-94510000D02*
X148879000Y-101070000D01*
X148839000Y-94481000D02*
X148839000Y-101099000D01*
X148799000Y-94452000D02*
X148799000Y-101128000D01*
X148759000Y-94425000D02*
X148759000Y-101155000D01*
X148719000Y-98830000D02*
X148719000Y-101182000D01*
X148719000Y-94398000D02*
X148719000Y-96750000D01*
X148679000Y-98830000D02*
X148679000Y-101208000D01*
X148679000Y-94372000D02*
X148679000Y-96750000D01*
X148639000Y-98830000D02*
X148639000Y-101234000D01*
X148639000Y-94346000D02*
X148639000Y-96750000D01*
X148599000Y-98830000D02*
X148599000Y-101259000D01*
X148599000Y-94321000D02*
X148599000Y-96750000D01*
X148559000Y-98830000D02*
X148559000Y-101283000D01*
X148559000Y-94297000D02*
X148559000Y-96750000D01*
X148519000Y-98830000D02*
X148519000Y-101307000D01*
X148519000Y-94273000D02*
X148519000Y-96750000D01*
X148479000Y-98830000D02*
X148479000Y-101330000D01*
X148479000Y-94250000D02*
X148479000Y-96750000D01*
X148439000Y-98830000D02*
X148439000Y-101352000D01*
X148439000Y-94228000D02*
X148439000Y-96750000D01*
X148399000Y-98830000D02*
X148399000Y-101374000D01*
X148399000Y-94206000D02*
X148399000Y-96750000D01*
X148359000Y-98830000D02*
X148359000Y-101396000D01*
X148359000Y-94184000D02*
X148359000Y-96750000D01*
X148319000Y-98830000D02*
X148319000Y-101417000D01*
X148319000Y-94163000D02*
X148319000Y-96750000D01*
X148279000Y-98830000D02*
X148279000Y-101437000D01*
X148279000Y-94143000D02*
X148279000Y-96750000D01*
X148239000Y-98830000D02*
X148239000Y-101456000D01*
X148239000Y-94124000D02*
X148239000Y-96750000D01*
X148199000Y-98830000D02*
X148199000Y-101476000D01*
X148199000Y-94104000D02*
X148199000Y-96750000D01*
X148159000Y-98830000D02*
X148159000Y-101494000D01*
X148159000Y-94086000D02*
X148159000Y-96750000D01*
X148119000Y-98830000D02*
X148119000Y-101512000D01*
X148119000Y-94068000D02*
X148119000Y-96750000D01*
X148079000Y-98830000D02*
X148079000Y-101530000D01*
X148079000Y-94050000D02*
X148079000Y-96750000D01*
X148039000Y-98830000D02*
X148039000Y-101547000D01*
X148039000Y-94033000D02*
X148039000Y-96750000D01*
X147999000Y-98830000D02*
X147999000Y-101564000D01*
X147999000Y-94016000D02*
X147999000Y-96750000D01*
X147959000Y-98830000D02*
X147959000Y-101580000D01*
X147959000Y-94000000D02*
X147959000Y-96750000D01*
X147919000Y-98830000D02*
X147919000Y-101595000D01*
X147919000Y-93985000D02*
X147919000Y-96750000D01*
X147879000Y-98830000D02*
X147879000Y-101611000D01*
X147879000Y-93969000D02*
X147879000Y-96750000D01*
X147839000Y-98830000D02*
X147839000Y-101625000D01*
X147839000Y-93955000D02*
X147839000Y-96750000D01*
X147799000Y-98830000D02*
X147799000Y-101640000D01*
X147799000Y-93940000D02*
X147799000Y-96750000D01*
X147759000Y-98830000D02*
X147759000Y-101653000D01*
X147759000Y-93927000D02*
X147759000Y-96750000D01*
X147719000Y-98830000D02*
X147719000Y-101667000D01*
X147719000Y-93913000D02*
X147719000Y-96750000D01*
X147679000Y-98830000D02*
X147679000Y-101679000D01*
X147679000Y-93901000D02*
X147679000Y-96750000D01*
X147639000Y-98830000D02*
X147639000Y-101692000D01*
X147639000Y-93888000D02*
X147639000Y-96750000D01*
X147599000Y-98830000D02*
X147599000Y-101704000D01*
X147599000Y-93876000D02*
X147599000Y-96750000D01*
X147559000Y-98830000D02*
X147559000Y-101715000D01*
X147559000Y-93865000D02*
X147559000Y-96750000D01*
X147519000Y-98830000D02*
X147519000Y-101726000D01*
X147519000Y-93854000D02*
X147519000Y-96750000D01*
X147479000Y-98830000D02*
X147479000Y-101737000D01*
X147479000Y-93843000D02*
X147479000Y-96750000D01*
X147439000Y-98830000D02*
X147439000Y-101747000D01*
X147439000Y-93833000D02*
X147439000Y-96750000D01*
X147399000Y-98830000D02*
X147399000Y-101757000D01*
X147399000Y-93823000D02*
X147399000Y-96750000D01*
X147359000Y-98830000D02*
X147359000Y-101766000D01*
X147359000Y-93814000D02*
X147359000Y-96750000D01*
X147319000Y-98830000D02*
X147319000Y-101775000D01*
X147319000Y-93805000D02*
X147319000Y-96750000D01*
X147279000Y-98830000D02*
X147279000Y-101784000D01*
X147279000Y-93796000D02*
X147279000Y-96750000D01*
X147239000Y-98830000D02*
X147239000Y-101792000D01*
X147239000Y-93788000D02*
X147239000Y-96750000D01*
X147199000Y-98830000D02*
X147199000Y-101800000D01*
X147199000Y-93780000D02*
X147199000Y-96750000D01*
X147159000Y-98830000D02*
X147159000Y-101807000D01*
X147159000Y-93773000D02*
X147159000Y-96750000D01*
X147118000Y-98830000D02*
X147118000Y-101814000D01*
X147118000Y-93766000D02*
X147118000Y-96750000D01*
X147078000Y-98830000D02*
X147078000Y-101820000D01*
X147078000Y-93760000D02*
X147078000Y-96750000D01*
X147038000Y-98830000D02*
X147038000Y-101827000D01*
X147038000Y-93753000D02*
X147038000Y-96750000D01*
X146998000Y-98830000D02*
X146998000Y-101832000D01*
X146998000Y-93748000D02*
X146998000Y-96750000D01*
X146958000Y-98830000D02*
X146958000Y-101838000D01*
X146958000Y-93742000D02*
X146958000Y-96750000D01*
X146918000Y-98830000D02*
X146918000Y-101842000D01*
X146918000Y-93738000D02*
X146918000Y-96750000D01*
X146878000Y-98830000D02*
X146878000Y-101847000D01*
X146878000Y-93733000D02*
X146878000Y-96750000D01*
X146838000Y-98830000D02*
X146838000Y-101851000D01*
X146838000Y-93729000D02*
X146838000Y-96750000D01*
X146798000Y-98830000D02*
X146798000Y-101855000D01*
X146798000Y-93725000D02*
X146798000Y-96750000D01*
X146758000Y-98830000D02*
X146758000Y-101858000D01*
X146758000Y-93722000D02*
X146758000Y-96750000D01*
X146718000Y-98830000D02*
X146718000Y-101861000D01*
X146718000Y-93719000D02*
X146718000Y-96750000D01*
X146678000Y-98830000D02*
X146678000Y-101864000D01*
X146678000Y-93716000D02*
X146678000Y-96750000D01*
X146638000Y-93714000D02*
X146638000Y-101866000D01*
X146598000Y-93713000D02*
X146598000Y-101867000D01*
X146558000Y-93711000D02*
X146558000Y-101869000D01*
X146518000Y-93710000D02*
X146518000Y-101870000D01*
X146478000Y-93710000D02*
X146478000Y-101870000D01*
X146438000Y-93710000D02*
X146438000Y-101870000D01*
X150558000Y-97790000D02*
G75*
G03X150558000Y-97790000I-4120000J0D01*
G01*
D11*
X123062380Y-108513333D02*
X123776666Y-108513333D01*
X123919523Y-108560952D01*
X124014761Y-108656190D01*
X124062380Y-108799047D01*
X124062380Y-108894285D01*
X123062380Y-108132380D02*
X123062380Y-107513333D01*
X123443333Y-107846666D01*
X123443333Y-107703809D01*
X123490952Y-107608571D01*
X123538571Y-107560952D01*
X123633809Y-107513333D01*
X123871904Y-107513333D01*
X123967142Y-107560952D01*
X124014761Y-107608571D01*
X124062380Y-107703809D01*
X124062380Y-107989523D01*
X124014761Y-108084761D01*
X123967142Y-108132380D01*
X154460380Y-79716666D02*
X153984190Y-80050000D01*
X154460380Y-80288095D02*
X153460380Y-80288095D01*
X153460380Y-79907142D01*
X153508000Y-79811904D01*
X153555619Y-79764285D01*
X153650857Y-79716666D01*
X153793714Y-79716666D01*
X153888952Y-79764285D01*
X153936571Y-79811904D01*
X153984190Y-79907142D01*
X153984190Y-80288095D01*
X153793714Y-78859523D02*
X154460380Y-78859523D01*
X153412761Y-79097619D02*
X154127047Y-79335714D01*
X154127047Y-78716666D01*
X120637333Y-45580380D02*
X120304000Y-45104190D01*
X120065904Y-45580380D02*
X120065904Y-44580380D01*
X120446857Y-44580380D01*
X120542095Y-44628000D01*
X120589714Y-44675619D01*
X120637333Y-44770857D01*
X120637333Y-44913714D01*
X120589714Y-45008952D01*
X120542095Y-45056571D01*
X120446857Y-45104190D01*
X120065904Y-45104190D01*
X120970666Y-44580380D02*
X121589714Y-44580380D01*
X121256380Y-44961333D01*
X121399238Y-44961333D01*
X121494476Y-45008952D01*
X121542095Y-45056571D01*
X121589714Y-45151809D01*
X121589714Y-45389904D01*
X121542095Y-45485142D01*
X121494476Y-45532761D01*
X121399238Y-45580380D01*
X121113523Y-45580380D01*
X121018285Y-45532761D01*
X120970666Y-45485142D01*
X120637333Y-51853080D02*
X120304000Y-51376890D01*
X120065904Y-51853080D02*
X120065904Y-50853080D01*
X120446857Y-50853080D01*
X120542095Y-50900700D01*
X120589714Y-50948319D01*
X120637333Y-51043557D01*
X120637333Y-51186414D01*
X120589714Y-51281652D01*
X120542095Y-51329271D01*
X120446857Y-51376890D01*
X120065904Y-51376890D01*
X121018285Y-50948319D02*
X121065904Y-50900700D01*
X121161142Y-50853080D01*
X121399238Y-50853080D01*
X121494476Y-50900700D01*
X121542095Y-50948319D01*
X121589714Y-51043557D01*
X121589714Y-51138795D01*
X121542095Y-51281652D01*
X120970666Y-51853080D01*
X121589714Y-51853080D01*
X120637333Y-64598380D02*
X120304000Y-64122190D01*
X120065904Y-64598380D02*
X120065904Y-63598380D01*
X120446857Y-63598380D01*
X120542095Y-63646000D01*
X120589714Y-63693619D01*
X120637333Y-63788857D01*
X120637333Y-63931714D01*
X120589714Y-64026952D01*
X120542095Y-64074571D01*
X120446857Y-64122190D01*
X120065904Y-64122190D01*
X121589714Y-64598380D02*
X121018285Y-64598380D01*
X121304000Y-64598380D02*
X121304000Y-63598380D01*
X121208761Y-63741238D01*
X121113523Y-63836476D01*
X121018285Y-63884095D01*
X130008380Y-109553333D02*
X130722666Y-109553333D01*
X130865523Y-109600952D01*
X130960761Y-109696190D01*
X131008380Y-109839047D01*
X131008380Y-109934285D01*
X130103619Y-109124761D02*
X130056000Y-109077142D01*
X130008380Y-108981904D01*
X130008380Y-108743809D01*
X130056000Y-108648571D01*
X130103619Y-108600952D01*
X130198857Y-108553333D01*
X130294095Y-108553333D01*
X130436952Y-108600952D01*
X131008380Y-109172380D01*
X131008380Y-108553333D01*
X139638380Y-55499333D02*
X140352666Y-55499333D01*
X140495523Y-55546952D01*
X140590761Y-55642190D01*
X140638380Y-55785047D01*
X140638380Y-55880285D01*
X140638380Y-54499333D02*
X140638380Y-55070761D01*
X140638380Y-54785047D02*
X139638380Y-54785047D01*
X139781238Y-54880285D01*
X139876476Y-54975523D01*
X139924095Y-55070761D01*
X121435904Y-86983080D02*
X121435904Y-85983080D01*
X121674000Y-85983080D01*
X121816857Y-86030700D01*
X121912095Y-86125938D01*
X121959714Y-86221176D01*
X122007333Y-86411652D01*
X122007333Y-86554509D01*
X121959714Y-86744985D01*
X121912095Y-86840223D01*
X121816857Y-86935461D01*
X121674000Y-86983080D01*
X121435904Y-86983080D01*
X122578761Y-86411652D02*
X122483523Y-86364033D01*
X122435904Y-86316414D01*
X122388285Y-86221176D01*
X122388285Y-86173557D01*
X122435904Y-86078319D01*
X122483523Y-86030700D01*
X122578761Y-85983080D01*
X122769238Y-85983080D01*
X122864476Y-86030700D01*
X122912095Y-86078319D01*
X122959714Y-86173557D01*
X122959714Y-86221176D01*
X122912095Y-86316414D01*
X122864476Y-86364033D01*
X122769238Y-86411652D01*
X122578761Y-86411652D01*
X122483523Y-86459271D01*
X122435904Y-86506890D01*
X122388285Y-86602128D01*
X122388285Y-86792604D01*
X122435904Y-86887842D01*
X122483523Y-86935461D01*
X122578761Y-86983080D01*
X122769238Y-86983080D01*
X122864476Y-86935461D01*
X122912095Y-86887842D01*
X122959714Y-86792604D01*
X122959714Y-86602128D01*
X122912095Y-86506890D01*
X122864476Y-86459271D01*
X122769238Y-86411652D01*
X115562095Y-87553080D02*
X115562095Y-86553080D01*
X116133523Y-87553080D02*
X115704952Y-86981652D01*
X116133523Y-86553080D02*
X115562095Y-87124509D01*
X138199904Y-86983080D02*
X138199904Y-85983080D01*
X138438000Y-85983080D01*
X138580857Y-86030700D01*
X138676095Y-86125938D01*
X138723714Y-86221176D01*
X138771333Y-86411652D01*
X138771333Y-86554509D01*
X138723714Y-86744985D01*
X138676095Y-86840223D01*
X138580857Y-86935461D01*
X138438000Y-86983080D01*
X138199904Y-86983080D01*
X139104666Y-85983080D02*
X139771333Y-85983080D01*
X139342761Y-86983080D01*
X132326095Y-87553080D02*
X132326095Y-86553080D01*
X132897523Y-87553080D02*
X132468952Y-86981652D01*
X132897523Y-86553080D02*
X132326095Y-87124509D01*
X121435904Y-72452380D02*
X121435904Y-71452380D01*
X121674000Y-71452380D01*
X121816857Y-71500000D01*
X121912095Y-71595238D01*
X121959714Y-71690476D01*
X122007333Y-71880952D01*
X122007333Y-72023809D01*
X121959714Y-72214285D01*
X121912095Y-72309523D01*
X121816857Y-72404761D01*
X121674000Y-72452380D01*
X121435904Y-72452380D01*
X122864476Y-71452380D02*
X122674000Y-71452380D01*
X122578761Y-71500000D01*
X122531142Y-71547619D01*
X122435904Y-71690476D01*
X122388285Y-71880952D01*
X122388285Y-72261904D01*
X122435904Y-72357142D01*
X122483523Y-72404761D01*
X122578761Y-72452380D01*
X122769238Y-72452380D01*
X122864476Y-72404761D01*
X122912095Y-72357142D01*
X122959714Y-72261904D01*
X122959714Y-72023809D01*
X122912095Y-71928571D01*
X122864476Y-71880952D01*
X122769238Y-71833333D01*
X122578761Y-71833333D01*
X122483523Y-71880952D01*
X122435904Y-71928571D01*
X122388285Y-72023809D01*
X115562095Y-73022380D02*
X115562095Y-72022380D01*
X116133523Y-73022380D02*
X115704952Y-72450952D01*
X116133523Y-72022380D02*
X115562095Y-72593809D01*
X138199904Y-72452380D02*
X138199904Y-71452380D01*
X138438000Y-71452380D01*
X138580857Y-71500000D01*
X138676095Y-71595238D01*
X138723714Y-71690476D01*
X138771333Y-71880952D01*
X138771333Y-72023809D01*
X138723714Y-72214285D01*
X138676095Y-72309523D01*
X138580857Y-72404761D01*
X138438000Y-72452380D01*
X138199904Y-72452380D01*
X139676095Y-71452380D02*
X139199904Y-71452380D01*
X139152285Y-71928571D01*
X139199904Y-71880952D01*
X139295142Y-71833333D01*
X139533238Y-71833333D01*
X139628476Y-71880952D01*
X139676095Y-71928571D01*
X139723714Y-72023809D01*
X139723714Y-72261904D01*
X139676095Y-72357142D01*
X139628476Y-72404761D01*
X139533238Y-72452380D01*
X139295142Y-72452380D01*
X139199904Y-72404761D01*
X139152285Y-72357142D01*
X132326095Y-73022380D02*
X132326095Y-72022380D01*
X132897523Y-73022380D02*
X132468952Y-72450952D01*
X132897523Y-72022380D02*
X132326095Y-72593809D01*
X121435904Y-79717680D02*
X121435904Y-78717680D01*
X121674000Y-78717680D01*
X121816857Y-78765300D01*
X121912095Y-78860538D01*
X121959714Y-78955776D01*
X122007333Y-79146252D01*
X122007333Y-79289109D01*
X121959714Y-79479585D01*
X121912095Y-79574823D01*
X121816857Y-79670061D01*
X121674000Y-79717680D01*
X121435904Y-79717680D01*
X122864476Y-79051014D02*
X122864476Y-79717680D01*
X122626380Y-78670061D02*
X122388285Y-79384347D01*
X123007333Y-79384347D01*
X115562095Y-80287680D02*
X115562095Y-79287680D01*
X116133523Y-80287680D02*
X115704952Y-79716252D01*
X116133523Y-79287680D02*
X115562095Y-79859109D01*
X138199904Y-79717680D02*
X138199904Y-78717680D01*
X138438000Y-78717680D01*
X138580857Y-78765300D01*
X138676095Y-78860538D01*
X138723714Y-78955776D01*
X138771333Y-79146252D01*
X138771333Y-79289109D01*
X138723714Y-79479585D01*
X138676095Y-79574823D01*
X138580857Y-79670061D01*
X138438000Y-79717680D01*
X138199904Y-79717680D01*
X139104666Y-78717680D02*
X139723714Y-78717680D01*
X139390380Y-79098633D01*
X139533238Y-79098633D01*
X139628476Y-79146252D01*
X139676095Y-79193871D01*
X139723714Y-79289109D01*
X139723714Y-79527204D01*
X139676095Y-79622442D01*
X139628476Y-79670061D01*
X139533238Y-79717680D01*
X139247523Y-79717680D01*
X139152285Y-79670061D01*
X139104666Y-79622442D01*
X132326095Y-80287680D02*
X132326095Y-79287680D01*
X132897523Y-80287680D02*
X132468952Y-79716252D01*
X132897523Y-79287680D02*
X132326095Y-79859109D01*
X121435904Y-94248380D02*
X121435904Y-93248380D01*
X121674000Y-93248380D01*
X121816857Y-93296000D01*
X121912095Y-93391238D01*
X121959714Y-93486476D01*
X122007333Y-93676952D01*
X122007333Y-93819809D01*
X121959714Y-94010285D01*
X121912095Y-94105523D01*
X121816857Y-94200761D01*
X121674000Y-94248380D01*
X121435904Y-94248380D01*
X122388285Y-93343619D02*
X122435904Y-93296000D01*
X122531142Y-93248380D01*
X122769238Y-93248380D01*
X122864476Y-93296000D01*
X122912095Y-93343619D01*
X122959714Y-93438857D01*
X122959714Y-93534095D01*
X122912095Y-93676952D01*
X122340666Y-94248380D01*
X122959714Y-94248380D01*
X115562095Y-94818380D02*
X115562095Y-93818380D01*
X116133523Y-94818380D02*
X115704952Y-94246952D01*
X116133523Y-93818380D02*
X115562095Y-94389809D01*
X121435904Y-58125680D02*
X121435904Y-57125680D01*
X121674000Y-57125680D01*
X121816857Y-57173300D01*
X121912095Y-57268538D01*
X121959714Y-57363776D01*
X122007333Y-57554252D01*
X122007333Y-57697109D01*
X121959714Y-57887585D01*
X121912095Y-57982823D01*
X121816857Y-58078061D01*
X121674000Y-58125680D01*
X121435904Y-58125680D01*
X122959714Y-58125680D02*
X122388285Y-58125680D01*
X122674000Y-58125680D02*
X122674000Y-57125680D01*
X122578761Y-57268538D01*
X122483523Y-57363776D01*
X122388285Y-57411395D01*
X115562095Y-58695680D02*
X115562095Y-57695680D01*
X116133523Y-58695680D02*
X115704952Y-58124252D01*
X116133523Y-57695680D02*
X115562095Y-58267109D01*
X146271333Y-92897142D02*
X146223714Y-92944761D01*
X146080857Y-92992380D01*
X145985619Y-92992380D01*
X145842761Y-92944761D01*
X145747523Y-92849523D01*
X145699904Y-92754285D01*
X145652285Y-92563809D01*
X145652285Y-92420952D01*
X145699904Y-92230476D01*
X145747523Y-92135238D01*
X145842761Y-92040000D01*
X145985619Y-91992380D01*
X146080857Y-91992380D01*
X146223714Y-92040000D01*
X146271333Y-92087619D01*
X147223714Y-92992380D02*
X146652285Y-92992380D01*
X146938000Y-92992380D02*
X146938000Y-91992380D01*
X146842761Y-92135238D01*
X146747523Y-92230476D01*
X146652285Y-92278095D01*
M02*
